<?xml version="1.0" standalone="no"?>
<!DOCTYPE svg PUBLIC "-//W3C//DTD SVG 20010904//EN"
 "http://www.w3.org/TR/2001/REC-SVG-20010904/DTD/svg10.dtd">
<svg version="1.0" xmlns="http://www.w3.org/2000/svg"
 width="200.000000pt" height="200.000000pt" viewBox="0 0 200.000000 200.000000"
 preserveAspectRatio="xMidYMid meet">
<metadata>
Created by potrace 1.16, written by Peter Selinger 2001-2019
</metadata>
<g transform="translate(0.000000,200.000000) scale(0.100000,-0.100000)"
fill="#000000" stroke="none">
<path d="M1045 1881 c-64 -16 -120 -59 -154 -119 -9 -16 -18 -14 -103 16 -116
40 -174 42 -246 6 -63 -31 -93 -68 -125 -154 l-24 -65 -71 -6 c-89 -9 -150
-37 -202 -96 -69 -79 -70 -85 -70 -628 0 -562 -1 -555 84 -641 88 -87 54 -84
846 -84 770 0 751 -2 833 70 25 22 56 62 69 88 21 43 23 62 26 230 l4 182
-312 0 -312 0 -84 82 c-63 61 -84 88 -84 108 0 19 21 46 80 105 l80 80 315 3
315 3 0 119 c0 65 -5 142 -11 169 -20 97 -106 180 -207 202 -46 10 -99 41
-282 163 -197 131 -285 179 -324 175 -6 -1 -24 -4 -41 -8z m236 -225 c79 -53
135 -96 124 -95 -33 0 -388 133 -392 146 -7 21 58 55 93 49 18 -2 96 -48 175
-100z m-426 -28 l180 -63 -249 -3 c-137 -1 -251 -1 -253 1 -7 7 25 72 44 89
20 19 59 36 83 38 8 0 96 -28 195 -62z"/>
<path d="M1235 940 l-69 -70 69 -70 69 -70 289 0 c363 0 356 -3 357 142 0 84
-1 87 -31 112 l-31 26 -292 0 -292 0 -69 -70z m223 -26 c24 -28 28 -51 11 -87
-12 -26 -47 -47 -78 -47 -34 0 -71 39 -71 75 0 49 9 66 44 81 38 16 64 10 94
-22z"/>
</g>
</svg>
