<?xml version="1.0" standalone="no"?>
<!DOCTYPE svg PUBLIC "-//W3C//DTD SVG 20010904//EN"
 "http://www.w3.org/TR/2001/REC-SVG-20010904/DTD/svg10.dtd">
<svg version="1.0" xmlns="http://www.w3.org/2000/svg"
 width="200.000000pt" height="200.000000pt" viewBox="0 0 200.000000 200.000000"
 preserveAspectRatio="xMidYMid meet">
<metadata>
Created by potrace 1.16, written by Peter Selinger 2001-2019
</metadata>
<g transform="translate(0.000000,200.000000) scale(0.100000,-0.100000)"
fill="#000000" stroke="none">
<path d="M63 1836 l-28 -24 -3 -616 c-3 -690 -5 -666 66 -685 21 -6 144 -11
285 -11 l247 0 0 -151 0 -151 29 -29 c16 -16 38 -29 49 -29 17 0 389 113 1002
305 147 47 239 81 247 92 11 14 13 145 11 656 -3 619 -4 639 -22 653 -17 12
-161 14 -937 14 l-918 0 -28 -24z m1865 -67 c3 -41 0 -47 -24 -57 -21 -10 -24
-15 -14 -27 6 -7 18 -11 26 -8 12 4 14 -65 14 -484 l0 -490 -26 -12 c-21 -9
-24 -14 -14 -26 6 -7 18 -11 26 -8 11 4 14 -6 14 -46 0 -44 -3 -53 -22 -61
-39 -17 -1184 -370 -1199 -370 -39 0 -39 6 -39 638 l0 613 33 13 c17 8 142 48
277 90 135 41 396 123 580 180 184 58 342 104 350 103 10 -2 16 -16 18 -48z
m-559 -73 c-2 -2 -128 -42 -279 -89 l-275 -86 -253 -3 c-253 -3 -254 -3 -273
-27 -15 -18 -19 -39 -19 -92 l0 -69 -40 0 -40 0 0 185 0 185 592 0 c325 0 589
-2 587 -4z m-739 -436 l0 -30 -157 0 c-147 0 -158 -1 -180 -22 -18 -17 -23
-32 -23 -75 l0 -53 -40 0 -40 0 0 105 0 105 220 0 220 0 0 -30z m0 -410 l0
-190 -220 0 -220 0 0 190 0 190 220 0 220 0 0 -190z"/>
<path d="M1738 1662 c-43 -14 -60 -33 -40 -45 16 -10 117 29 120 46 4 21 -16
21 -80 -1z"/>
<path d="M1548 1604 c-51 -15 -66 -30 -50 -46 14 -14 127 24 127 43 0 19 -22
20 -77 3z"/>
<path d="M1348 1542 c-45 -14 -60 -33 -39 -46 16 -10 116 30 119 47 4 21 -16
21 -80 -1z"/>
<path d="M1156 1481 c-49 -17 -66 -34 -48 -45 17 -10 127 29 127 44 0 21 -23
21 -79 1z"/>
<path d="M963 1422 c-41 -11 -53 -19 -53 -35 0 -16 5 -19 29 -14 51 10 103 36
99 49 -6 17 -17 17 -75 0z"/>
<path d="M790 1367 c-19 -10 -25 -20 -25 -47 0 -40 28 -50 33 -13 2 12 12 25
23 28 21 7 27 45 7 45 -7 0 -24 -6 -38 -13z"/>
<path d="M764 1197 c-3 -8 -4 -39 -2 -68 2 -40 7 -54 18 -54 20 0 22 126 3
132 -7 3 -15 -2 -19 -10z"/>
<path d="M987 1028 c-63 -48 -60 -213 5 -261 97 -72 172 139 87 247 -22 29
-64 35 -92 14z"/>
<path d="M764 997 c-3 -8 -4 -39 -2 -68 2 -42 7 -55 21 -57 16 -3 18 3 15 64
-2 43 -8 69 -15 72 -7 2 -15 -3 -19 -11z"/>
<path d="M764 787 c-3 -8 -4 -39 -2 -68 2 -40 7 -54 18 -54 20 0 22 126 3 132
-7 3 -15 -2 -19 -10z"/>
<path d="M1738 642 c-45 -14 -60 -33 -39 -46 16 -10 116 30 119 47 4 21 -16
21 -80 -1z"/>
<path d="M764 587 c-3 -8 -4 -39 -2 -68 2 -42 7 -55 21 -57 16 -3 18 3 15 64
-2 43 -8 69 -15 72 -7 2 -15 -3 -19 -11z"/>
<path d="M1548 584 c-51 -15 -66 -30 -50 -46 14 -14 127 24 127 43 0 19 -22
20 -77 3z"/>
<path d="M1348 522 c-45 -14 -60 -33 -39 -46 16 -10 116 30 119 47 4 21 -16
21 -80 -1z"/>
<path d="M1156 461 c-51 -18 -69 -37 -44 -46 21 -8 123 30 123 46 0 20 -23 20
-79 0z"/>
<path d="M963 402 c-41 -11 -53 -19 -53 -35 0 -16 5 -19 29 -14 51 10 103 36
99 49 -6 17 -17 17 -75 0z"/>
<path d="M767 383 c-13 -12 -7 -64 8 -69 28 -11 65 5 65 27 0 16 -5 20 -19 16
-13 -3 -21 1 -24 14 -5 19 -18 24 -30 12z"/>
</g>
</svg>
