<?xml version="1.0" standalone="no"?>
<!DOCTYPE svg PUBLIC "-//W3C//DTD SVG 20010904//EN"
 "http://www.w3.org/TR/2001/REC-SVG-20010904/DTD/svg10.dtd">
<svg version="1.0" xmlns="http://www.w3.org/2000/svg"
 width="200.000000pt" height="200.000000pt" viewBox="0 0 200.000000 200.000000"
 preserveAspectRatio="xMidYMid meet">
<metadata>
Created by potrace 1.16, written by Peter Selinger 2001-2019
</metadata>
<g transform="translate(0.000000,200.000000) scale(0.100000,-0.100000)"
fill="#000000" stroke="none">
<path d="M749 1758 c-23 -40 -64 -110 -90 -156 -27 -45 -49 -87 -49 -92 0 -6
139 -10 372 -10 312 0 370 2 358 13 -12 12 -455 268 -527 306 -21 10 -25 6
-64 -61z"/>
<path d="M127 1662 l-27 -28 0 -712 c0 -699 0 -712 20 -732 20 -20 33 -20 840
-20 807 0 820 0 840 20 18 18 20 33 20 195 l0 175 -227 0 c-254 0 -277 5 -342
71 -49 48 -71 103 -71 177 0 101 46 175 137 221 39 20 58 21 273 21 l230 0 0
178 c0 169 -1 180 -21 198 -20 18 -51 19 -738 24 -708 5 -716 5 -716 25 0 18
8 20 93 23 l92 3 23 37 c13 20 38 63 56 95 l32 57 -243 0 -244 0 -27 -28z"/>
<path d="M1225 1649 c234 -137 260 -149 311 -149 105 0 154 31 154 98 0 24 -9
42 -29 63 l-29 29 -239 0 -238 0 70 -41z"/>
<path d="M1366 985 c-87 -31 -131 -93 -130 -181 1 -62 23 -104 77 -148 l39
-31 260 -3 c188 -2 264 0 274 9 11 9 14 46 14 174 0 144 -2 164 -18 178 -16
15 -48 17 -248 17 -170 -1 -239 -4 -268 -15z m105 -108 c43 -33 49 -84 15
-123 -49 -58 -146 -20 -146 57 0 60 83 103 131 66z"/>
</g>
</svg>
