<?xml version="1.0" standalone="no"?>
<!DOCTYPE svg PUBLIC "-//W3C//DTD SVG 20010904//EN"
 "http://www.w3.org/TR/2001/REC-SVG-20010904/DTD/svg10.dtd">
<svg version="1.0" xmlns="http://www.w3.org/2000/svg"
 width="200.000000pt" height="200.000000pt" viewBox="0 0 200.000000 200.000000"
 preserveAspectRatio="xMidYMid meet">
<metadata>
Created by potrace 1.16, written by Peter Selinger 2001-2019
</metadata>
<g transform="translate(0.000000,200.000000) scale(0.100000,-0.100000)"
fill="#000000" stroke="none">
<path d="M810 1545 c-250 -106 -463 -198 -473 -204 -17 -11 -17 -39 -15 -457
l3 -446 28 -24 28 -24 524 0 524 0 28 24 c26 23 28 31 32 110 l3 86 -200 0
-201 0 -20 26 c-20 25 -21 40 -21 216 0 255 -18 238 245 238 l195 0 0 78 c0
59 -5 85 -20 109 -20 34 -37 41 -110 45 l-45 3 -3 195 c-2 169 -4 197 -19 208
-9 6 -19 12 -22 12 -3 -1 -211 -88 -461 -195z m430 -65 l0 -150 -362 1 c-240
0 -356 4 -343 10 63 30 682 288 693 289 9 0 12 -36 12 -150z"/>
<path d="M1140 1010 c-18 -18 -20 -33 -20 -158 0 -194 -14 -182 214 -182 164
0 185 2 199 18 14 15 17 42 17 160 0 193 13 182 -215 182 -162 0 -177 -2 -195
-20z m260 -120 c39 -39 11 -110 -44 -110 -25 0 -66 41 -66 65 0 7 9 24 21 39
25 31 61 34 89 6z"/>
</g>
</svg>
