<?xml version="1.0" standalone="no"?>
<!DOCTYPE svg PUBLIC "-//W3C//DTD SVG 20010904//EN"
 "http://www.w3.org/TR/2001/REC-SVG-20010904/DTD/svg10.dtd">
<svg version="1.0" xmlns="http://www.w3.org/2000/svg"
 width="200.000000pt" height="200.000000pt" viewBox="0 0 200.000000 200.000000"
 preserveAspectRatio="xMidYMid meet">
<metadata>
Created by potrace 1.16, written by Peter Selinger 2001-2019
</metadata>
<g transform="translate(0.000000,200.000000) scale(0.100000,-0.100000)"
fill="#000000" stroke="none">
<path d="M757 1803 c-13 -21 -32 -53 -41 -70 l-17 -33 -247 0 c-229 0 -249 -2
-280 -20 -18 -11 -41 -34 -52 -52 -19 -32 -20 -52 -20 -706 0 -743 -2 -714 64
-746 31 -14 112 -16 803 -16 753 0 769 0 801 20 53 33 62 68 62 249 0 151 1
160 20 166 41 13 50 53 50 226 l0 161 -35 35 -35 35 0 147 c0 80 -5 163 -10
183 -13 45 -50 76 -101 84 -35 6 -37 8 -28 31 14 38 11 102 -8 133 -9 15 -33
38 -53 49 -36 20 -52 21 -310 21 l-273 0 -121 70 c-67 39 -127 70 -134 70 -6
0 -22 -17 -35 -37z m319 -183 l258 -150 -352 0 -353 0 12 23 c6 12 26 47 44
77 18 30 51 88 74 128 23 39 46 72 50 72 5 0 124 -67 267 -150z m-452 -47
c-20 -38 -42 -76 -48 -85 -9 -15 -25 -18 -92 -18 -63 0 -85 -4 -95 -16 -11
-14 -10 -18 6 -30 16 -12 131 -14 679 -14 600 0 661 -2 678 -17 16 -14 18 -34
18 -179 l0 -163 -217 -3 c-202 -3 -221 -5 -259 -25 -81 -43 -127 -122 -126
-214 0 -67 26 -123 78 -169 65 -57 83 -60 314 -60 l210 0 0 -164 0 -165 -27
-20 c-26 -21 -28 -21 -790 -19 l-765 3 -19 24 c-18 22 -19 48 -19 678 0 558 2
658 15 683 8 15 20 30 27 33 7 3 116 6 241 6 l229 1 -38 -67z m1001 42 c33
-32 32 -75 -1 -114 -25 -30 -29 -31 -104 -31 l-78 0 -138 81 c-76 44 -141 82
-143 85 -2 2 96 4 218 4 l222 0 24 -25z m209 -641 c13 -13 16 -41 16 -155 0
-78 -5 -149 -10 -160 -10 -18 -24 -19 -251 -19 -225 0 -244 1 -278 21 -59 33
-86 81 -86 155 0 54 4 67 31 101 56 70 70 73 331 73 197 0 234 -2 247 -16z"/>
<path d="M1346 869 c-46 -36 -32 -108 24 -128 60 -20 118 29 105 89 -13 58
-79 78 -129 39z"/>
</g>
</svg>
