<?xml version="1.0" standalone="no"?>
<!DOCTYPE svg PUBLIC "-//W3C//DTD SVG 20010904//EN"
 "http://www.w3.org/TR/2001/REC-SVG-20010904/DTD/svg10.dtd">
<svg version="1.0" xmlns="http://www.w3.org/2000/svg"
 width="200.000000pt" height="200.000000pt" viewBox="0 0 200.000000 200.000000"
 preserveAspectRatio="xMidYMid meet">
<metadata>
Created by potrace 1.16, written by Peter Selinger 2001-2019
</metadata>
<g transform="translate(0.000000,200.000000) scale(0.100000,-0.100000)"
fill="#000000" stroke="none">
<path d="M370 1684 c-46 -20 -87 -59 -113 -109 -19 -36 -22 -56 -22 -200 l0
-160 161 -3 161 -2 7 38 c8 55 44 104 96 130 l44 22 610 0 609 0 -6 69 c-9
107 -57 181 -139 215 -55 24 -1355 23 -1408 0z m58 -101 c-5 -25 -61 -25 -66
0 -3 14 4 17 33 17 29 0 36 -3 33 -17z m425 10 c4 -3 2 -12 -4 -20 -16 -19
-322 -19 -338 0 -6 8 -8 17 -4 20 8 9 338 9 346 0z"/>
<path d="M664 1341 c-32 -20 -64 -74 -64 -110 0 -20 5 -21 106 -21 103 0 106
-1 135 -29 l29 -29 0 -147 c0 -86 -4 -155 -11 -167 -18 -33 -71 -48 -170 -48
l-92 0 6 -36 c8 -48 30 -80 70 -101 30 -17 77 -18 637 -18 l605 0 3 363 2 362
-612 0 c-582 0 -615 -1 -644 -19z m656 -101 c0 -12 13 -26 30 -35 35 -18 70
-69 70 -103 0 -34 -32 -24 -42 13 -10 38 -33 55 -75 55 -44 0 -73 -30 -73 -74
0 -40 37 -76 77 -76 67 0 119 -63 110 -132 -6 -43 -27 -72 -69 -94 -19 -10
-28 -22 -28 -39 0 -16 -6 -25 -15 -25 -9 0 -15 9 -15 25 0 17 -9 29 -29 40
-41 21 -71 62 -71 97 0 40 31 34 42 -8 11 -45 38 -60 95 -55 22 2 53 44 53 73
0 36 -40 78 -75 78 -38 0 -83 26 -100 60 -33 63 -10 132 56 165 16 9 29 24 29
34 0 10 3 21 6 24 11 10 24 -3 24 -23z"/>
<path d="M133 1158 c-12 -6 -29 -25 -37 -43 -21 -44 -22 -185 -1 -225 30 -58
43 -60 388 -60 386 0 352 -17 352 177 0 122 -2 136 -19 149 -16 11 -79 14
-340 13 -205 0 -329 -4 -343 -11z m158 -97 c54 -54 25 -135 -52 -147 -47 -8
-87 25 -96 78 -5 32 -1 41 25 68 41 40 83 41 123 1z"/>
<path d="M192 1038 c-27 -27 0 -88 40 -88 36 0 62 62 36 88 -15 15 -61 15 -76
0z"/>
<path d="M232 633 c4 -172 15 -212 66 -266 62 -65 19 -62 767 -62 374 0 692 3
707 8 39 10 95 63 119 109 11 22 23 70 26 109 l6 69 -626 2 c-617 3 -626 3
-654 24 -40 30 -72 81 -79 126 l-7 38 -164 0 -165 0 4 -157z"/>
</g>
</svg>
