<?xml version="1.0" standalone="no"?>
<!DOCTYPE svg PUBLIC "-//W3C//DTD SVG 20010904//EN"
 "http://www.w3.org/TR/2001/REC-SVG-20010904/DTD/svg10.dtd">
<svg version="1.0" xmlns="http://www.w3.org/2000/svg"
 width="200.000000pt" height="200.000000pt" viewBox="0 0 200.000000 200.000000"
 preserveAspectRatio="xMidYMid meet">
<metadata>
Created by potrace 1.16, written by Peter Selinger 2001-2019
</metadata>
<g transform="translate(0.000000,200.000000) scale(0.100000,-0.100000)"
fill="#000000" stroke="none">
<path d="M397 1588 c-23 -14 -45 -38 -57 -63 -19 -40 -20 -62 -20 -516 0 -439
2 -477 19 -514 22 -48 54 -79 103 -100 32 -13 112 -15 568 -15 589 0 575 -1
626 66 l29 37 0 391 c0 373 -1 393 -20 424 -26 43 -68 68 -127 76 l-48 7 0 65
c0 76 -18 117 -63 144 -31 19 -53 20 -502 20 -464 0 -470 -1 -508 -22z m971
-90 c7 -7 12 -36 12 -65 l0 -53 -463 0 c-514 0 -501 -2 -501 63 0 70 -24 67
483 67 342 0 460 -3 469 -12z m-24 -534 c12 -11 16 -36 16 -90 0 -86 -11 -114
-43 -114 -39 0 -47 18 -47 112 0 72 3 89 18 97 24 15 38 13 56 -5z"/>
</g>
</svg>
