<?xml version="1.0" standalone="no"?>
<!DOCTYPE svg PUBLIC "-//W3C//DTD SVG 20010904//EN"
 "http://www.w3.org/TR/2001/REC-SVG-20010904/DTD/svg10.dtd">
<svg version="1.0" xmlns="http://www.w3.org/2000/svg"
 width="200.000000pt" height="200.000000pt" viewBox="0 0 200.000000 200.000000"
 preserveAspectRatio="xMidYMid meet">
<metadata>
Created by potrace 1.16, written by Peter Selinger 2001-2019
</metadata>
<g transform="translate(0.000000,200.000000) scale(0.100000,-0.100000)"
fill="#000000" stroke="none">
<path d="M805 1521 c-318 -109 -498 -175 -512 -189 l-23 -21 0 -478 c0 -417 2
-481 16 -501 l15 -22 699 0 699 0 15 22 c14 20 16 84 16 499 0 454 -1 478 -19
500 -18 23 -25 24 -175 27 l-156 4 0 147 c0 131 -2 150 -18 164 -10 10 -29 16
-43 16 -13 -1 -244 -77 -514 -168z m455 -71 l0 -90 -262 1 c-145 0 -256 3
-248 6 42 17 496 172 503 172 4 1 7 -39 7 -89z m340 -295 l0 -75 -152 0 c-222
-1 -263 -13 -315 -90 -21 -30 -23 -45 -23 -157 0 -140 8 -165 67 -210 l36 -28
194 -3 193 -3 0 -80 0 -79 -600 0 -600 0 0 400 0 400 600 0 600 0 0 -75z m0
-325 l0 -120 -163 0 c-209 0 -207 -1 -207 116 0 131 -10 124 195 124 l175 0 0
-120z"/>
</g>
</svg>
