<?xml version="1.0" standalone="no"?>
<!DOCTYPE svg PUBLIC "-//W3C//DTD SVG 20010904//EN"
 "http://www.w3.org/TR/2001/REC-SVG-20010904/DTD/svg10.dtd">
<svg version="1.0" xmlns="http://www.w3.org/2000/svg"
 width="200.000000pt" height="200.000000pt" viewBox="0 0 200.000000 200.000000"
 preserveAspectRatio="xMidYMid meet">
<metadata>
Created by potrace 1.16, written by Peter Selinger 2001-2019
</metadata>
<g transform="translate(0.000000,200.000000) scale(0.100000,-0.100000)"
fill="#000000" stroke="none">
<path d="M356 1725 c-56 -20 -122 -89 -146 -153 -17 -44 -20 -77 -20 -207 0
-154 0 -155 -22 -155 -33 0 -85 -35 -108 -72 -29 -48 -29 -228 0 -276 23 -37
75 -72 108 -72 22 0 22 -1 22 -148 0 -182 12 -230 75 -300 57 -63 113 -84 212
-80 60 3 68 5 68 23 0 18 -8 20 -85 25 -119 7 -159 31 -199 120 -18 39 -21 66
-21 203 l0 157 159 0 158 0 5 -45 c7 -57 47 -111 102 -136 39 -17 77 -19 644
-19 l602 0 0 -59 c0 -94 -39 -165 -111 -201 -37 -19 -61 -20 -556 -20 -285 0
-524 -4 -532 -9 -8 -5 -11 -16 -8 -25 6 -14 59 -16 525 -16 584 0 574 -1 650
73 25 25 50 63 62 95 19 50 20 78 20 566 0 596 1 588 -84 672 -33 34 -65 56
-91 63 -27 7 -252 11 -715 11 -549 -1 -682 -3 -714 -15z m1449 -58 c23 -13 52
-42 70 -71 24 -40 30 -62 33 -123 l4 -73 -605 0 c-404 0 -615 -4 -634 -11 -60
-22 -113 -95 -113 -154 l0 -25 -161 0 -160 0 3 168 c3 168 3 169 33 218 21 34
44 56 75 72 l44 22 686 0 685 0 40 -23z m105 -672 l0 -355 -606 0 c-543 0
-609 2 -634 16 -33 20 -57 58 -62 99 l-3 30 111 5 c69 3 117 10 126 18 33 27
40 68 36 206 -3 133 -4 136 -31 163 -26 26 -34 28 -135 33 l-107 5 3 29 c2 16
11 40 19 53 35 53 21 52 676 53 l607 0 0 -355z m-1090 146 c15 -28 13 -274 -2
-289 -9 -9 -99 -12 -345 -12 l-334 0 -24 25 c-24 23 -25 31 -25 135 0 107 1
112 26 135 l27 25 333 0 c319 0 334 -1 344 -19z"/>
<path d="M360 1580 c0 -18 5 -21 38 -18 25 2 37 8 37 18 0 10 -12 16 -37 18
-33 3 -38 0 -38 -18z"/>
<path d="M505 1589 c-16 -24 18 -29 181 -27 142 3 169 5 169 18 0 13 -27 15
-172 18 -118 2 -174 -1 -178 -9z"/>
<path d="M1287 1264 c-4 -4 -7 -18 -7 -30 0 -13 -8 -25 -18 -28 -10 -4 -31
-20 -47 -36 -34 -35 -39 -100 -11 -142 20 -30 72 -58 109 -58 28 0 67 -41 67
-70 0 -33 -39 -70 -74 -70 -36 0 -59 19 -75 63 -11 29 -38 36 -47 13 -9 -24
24 -85 58 -106 21 -12 35 -30 38 -47 7 -39 44 -39 48 0 2 18 13 32 32 42 42
22 60 53 60 106 0 38 -6 53 -28 77 -16 17 -42 34 -58 37 -62 12 -79 21 -93 47
-20 35 -5 78 33 97 41 19 89 -4 102 -51 12 -42 38 -44 42 -2 3 34 -34 88 -68
99 -11 3 -20 17 -22 33 -3 26 -26 40 -41 26z"/>
<path d="M192 1085 c-90 -38 -61 -175 38 -175 56 0 90 34 90 88 0 71 -63 114
-128 87z m52 -41 c39 -15 42 -65 5 -85 -41 -22 -80 27 -54 67 16 25 23 28 49
18z"/>
</g>
</svg>
