<?xml version="1.0" standalone="no"?>
<!DOCTYPE svg PUBLIC "-//W3C//DTD SVG 20010904//EN"
 "http://www.w3.org/TR/2001/REC-SVG-20010904/DTD/svg10.dtd">
<svg version="1.0" xmlns="http://www.w3.org/2000/svg"
 width="200.000000pt" height="200.000000pt" viewBox="0 0 200.000000 200.000000"
 preserveAspectRatio="xMidYMid meet">
<metadata>
Created by potrace 1.16, written by Peter Selinger 2001-2019
</metadata>
<g transform="translate(0.000000,200.000000) scale(0.100000,-0.100000)"
fill="#000000" stroke="none">
<path d="M905 1545 c-132 -53 -242 -99 -244 -101 -2 -2 156 -4 353 -4 l357 0
-7 23 c-32 104 -91 164 -170 173 -45 4 -71 -4 -289 -91z"/>
<path d="M372 1343 c-62 -31 -62 -28 -62 -497 0 -252 4 -435 10 -450 5 -14 24
-35 42 -46 32 -19 51 -20 611 -20 634 0 620 -1 652 60 13 25 15 94 15 460 l0
430 -34 38 -34 37 -584 2 c-523 3 -586 1 -616 -14z m1031 -378 c42 -31 70 -98
64 -152 -6 -52 -29 -88 -78 -121 -28 -20 -44 -23 -90 -20 -95 7 -151 65 -151
159 0 58 25 105 73 137 28 20 44 23 94 20 40 -2 70 -10 88 -23z"/>
<path d="M1257 890 c-33 -26 -41 -63 -23 -99 30 -56 103 -62 140 -9 54 77 -42
167 -117 108z"/>
</g>
</svg>
