<?xml version="1.0" standalone="no"?>
<!DOCTYPE svg PUBLIC "-//W3C//DTD SVG 20010904//EN"
 "http://www.w3.org/TR/2001/REC-SVG-20010904/DTD/svg10.dtd">
<svg version="1.0" xmlns="http://www.w3.org/2000/svg"
 width="200.000000pt" height="200.000000pt" viewBox="0 0 200.000000 200.000000"
 preserveAspectRatio="xMidYMid meet">
<metadata>
Created by potrace 1.16, written by Peter Selinger 2001-2019
</metadata>
<g transform="translate(0.000000,200.000000) scale(0.100000,-0.100000)"
fill="#000000" stroke="none">
<path d="M411 1964 c-105 -28 -206 -101 -267 -193 -105 -160 -80 -414 56 -549
l32 -32 -54 0 c-29 0 -70 -5 -90 -11 -70 -19 -68 -6 -68 -584 l0 -517 29 -29
29 -29 922 0 922 0 29 29 29 29 0 517 c0 578 2 565 -68 584 -20 6 -58 11 -84
11 l-48 0 0 50 c0 41 -5 56 -25 75 l-24 25 -256 0 -256 0 -24 -25 c-20 -19
-25 -34 -25 -75 l0 -50 -176 0 -177 0 43 46 c23 25 56 75 73 112 30 63 32 74
32 182 0 109 -2 119 -32 183 -38 80 -122 173 -191 210 -101 55 -224 70 -331
41z m249 -68 c102 -36 205 -147 237 -255 21 -74 14 -199 -15 -265 -63 -141
-210 -236 -363 -236 -152 0 -303 109 -359 257 -31 83 -26 214 11 294 49 104
142 184 249 214 65 18 174 14 240 -9z m610 -674 c0 -64 16 -97 42 -87 13 5 18
22 20 73 3 65 4 67 31 70 l27 3 0 -302 c0 -236 -3 -300 -12 -291 -7 7 -20 12
-30 12 -17 0 -18 13 -18 180 l0 180 -24 0 c-33 0 -36 -18 -36 -202 0 -151 -1
-158 -20 -158 -20 0 -20 7 -20 290 0 283 0 290 20 290 18 0 20 -7 20 -58z
m450 -232 l0 -290 -68 0 c-69 0 -92 -10 -92 -41 0 -33 -39 -69 -76 -69 l-34 0
0 345 0 345 135 0 135 0 0 -290z m-1330 113 c61 -22 209 -22 269 0 36 14 83
17 277 17 l234 0 0 -145 0 -145 -545 0 -545 0 0 138 c0 76 3 142 7 145 3 4 63
7 132 7 93 0 138 -5 171 -17z m1528 -130 l3 -143 -71 0 -70 0 0 145 0 146 68
-3 67 -3 3 -142z m-948 -553 l0 -340 -50 0 -50 0 0 298 c0 218 -3 301 -12 310
-17 17 -649 17 -666 0 -9 -9 -12 -92 -12 -310 l0 -298 -34 0 c-70 0 -66 -23
-66 346 l0 334 445 0 445 0 0 -340z m200 310 c0 -25 -4 -30 -25 -30 -14 0 -29
-8 -35 -19 -6 -12 -10 -129 -10 -310 l0 -291 -35 0 -35 0 0 340 0 340 70 0 70
0 0 -30z m750 -304 c0 -360 2 -346 -51 -346 -18 0 -19 11 -19 298 0 315 -1
322 -47 322 -19 0 -23 5 -23 30 l0 30 70 0 70 0 0 -334z m-1110 -66 l0 -280
-285 0 -285 0 0 280 0 280 285 0 285 0 0 -280z m536 245 c42 -89 158 -108 229
-37 15 15 31 37 36 50 8 20 15 22 94 22 l85 0 0 -280 0 -280 -315 0 -315 0 0
280 0 280 85 0 84 0 17 -35z"/>
<path d="M457 1830 c-63 -16 -112 -47 -160 -100 -53 -59 -77 -121 -77 -200 0
-81 24 -142 81 -204 64 -71 130 -100 224 -99 120 0 215 59 273 168 23 43 27
62 27 135 0 73 -4 92 -27 135 -67 126 -212 197 -341 165z m129 -63 c105 -27
173 -110 182 -222 4 -56 1 -72 -22 -119 -44 -90 -127 -141 -226 -140 -98 2
-176 52 -216 139 -64 137 10 302 153 341 62 16 69 16 129 1z"/>
<path d="M499 1706 c-8 -16 -20 -26 -34 -26 -34 0 -65 -40 -65 -84 0 -42 35
-86 70 -86 16 0 20 -6 20 -35 0 -40 -11 -45 -32 -13 -16 23 -44 20 -54 -7 -9
-23 23 -65 55 -71 17 -4 33 -16 40 -31 14 -30 45 -27 49 4 2 15 13 23 37 27
86 17 88 142 2 164 -27 7 -33 14 -35 40 -4 39 20 44 48 10 15 -19 20 -20 34
-9 21 18 20 33 -5 65 -13 17 -30 26 -49 26 -22 0 -29 5 -32 22 -4 33 -35 35
-49 4z m-9 -112 c0 -31 -23 -28 -28 4 -2 15 2 22 12 22 11 0 16 -9 16 -26z
m98 -126 c-2 -13 -10 -23 -18 -23 -8 0 -16 10 -18 23 -3 17 2 22 18 22 16 0
21 -5 18 -22z"/>
<path d="M1510 1231 c-14 -27 -13 -124 2 -139 7 -7 40 -12 80 -12 59 0 69 3
79 21 15 29 7 128 -12 140 -8 5 -42 9 -76 9 -51 0 -64 -3 -73 -19z m100 -66
c0 -20 -5 -25 -25 -25 -20 0 -25 5 -25 25 0 20 5 25 25 25 20 0 25 -5 25 -25z"/>
<path d="M1508 885 c-15 -32 4 -78 30 -73 22 4 30 77 10 89 -21 14 -28 11 -40
-16z"/>
<path d="M1504 754 c-8 -33 6 -59 32 -59 15 0 19 7 19 40 0 34 -4 40 -22 43
-17 3 -24 -3 -29 -24z"/>
<path d="M354 545 c-11 -28 4 -45 39 -45 42 0 66 23 47 45 -7 8 -28 15 -47 15
-21 0 -36 -6 -39 -15z"/>
<path d="M480 545 c-18 -22 5 -45 45 -45 40 0 63 23 45 45 -7 8 -27 15 -45 15
-18 0 -38 -7 -45 -15z"/>
<path d="M613 554 c-22 -10 -15 -43 11 -50 45 -11 71 -1 71 26 0 22 -5 25 -35
27 -19 1 -41 0 -47 -3z"/>
</g>
</svg>
