<?xml version="1.0" standalone="no"?>
<!DOCTYPE svg PUBLIC "-//W3C//DTD SVG 20010904//EN"
 "http://www.w3.org/TR/2001/REC-SVG-20010904/DTD/svg10.dtd">
<svg version="1.0" xmlns="http://www.w3.org/2000/svg"
 width="200.000000pt" height="200.000000pt" viewBox="0 0 200.000000 200.000000"
 preserveAspectRatio="xMidYMid meet">
<metadata>
Created by potrace 1.16, written by Peter Selinger 2001-2019
</metadata>
<g transform="translate(0.000000,200.000000) scale(0.100000,-0.100000)"
fill="#000000" stroke="none">
<path d="M304 1860 c-87 -13 -163 -67 -209 -151 l-30 -54 0 -630 0 -630 28
-57 c56 -114 152 -181 285 -199 48 -6 328 -9 752 -7 l675 3 40 23 c22 13 52
39 65 59 l25 37 3 499 c2 490 2 500 -18 543 -23 46 -71 83 -124 93 l-31 7 -5
179 c-3 115 -9 188 -17 201 -22 39 -71 72 -123 83 -58 13 -1232 13 -1316 1z
m1325 -136 c19 -24 21 -40 21 -175 l0 -149 -679 0 -678 0 -33 23 c-47 31 -71
67 -77 115 -12 89 24 158 102 193 37 17 81 19 682 19 l642 0 20 -26z m-1181
-580 c36 -25 28 -62 -25 -116 -27 -27 -56 -48 -68 -48 -27 0 -51 19 -60 48 -6
19 3 33 48 78 58 58 70 63 105 38z m272 -74 c38 -38 27 -57 -122 -207 -125
-126 -146 -143 -175 -143 -37 0 -69 36 -59 67 3 11 71 83 149 161 150 149 169
160 207 122z m1100 -305 l0 -175 -177 0 c-198 0 -241 11 -280 66 -67 94 -40
214 59 263 39 19 60 21 221 21 l177 0 0 -175z"/>
<path d="M467 1612 c-22 -24 -21 -65 1 -85 17 -15 62 -17 445 -17 414 0 428 1
447 20 11 11 20 29 20 40 0 11 -9 29 -20 40 -19 19 -33 20 -448 20 -403 0
-430 -1 -445 -18z"/>
<path d="M1456 798 c-38 -54 -2 -93 86 -93 65 1 88 17 88 60 0 38 -31 55 -98
55 -52 0 -63 -3 -76 -22z"/>
</g>
</svg>
