<?xml version="1.0" standalone="no"?>
<!DOCTYPE svg PUBLIC "-//W3C//DTD SVG 20010904//EN"
 "http://www.w3.org/TR/2001/REC-SVG-20010904/DTD/svg10.dtd">
<svg version="1.0" xmlns="http://www.w3.org/2000/svg"
 width="200.000000pt" height="200.000000pt" viewBox="0 0 200.000000 200.000000"
 preserveAspectRatio="xMidYMid meet">
<metadata>
Created by potrace 1.16, written by Peter Selinger 2001-2019
</metadata>
<g transform="translate(0.000000,200.000000) scale(0.100000,-0.100000)"
fill="#000000" stroke="none">
<path d="M970 1534 c-206 -34 -432 -73 -503 -85 l-127 -22 0 -513 0 -514 660
0 660 0 -2 473 -3 472 -100 3 -101 3 -28 124 c-28 121 -30 125 -55 124 -14 -1
-195 -30 -401 -65z m379 -81 c6 -32 14 -68 17 -80 l6 -23 -478 0 c-262 0 -475
3 -472 6 6 5 855 151 894 153 18 1 23 -8 33 -56z m-649 -423 l0 -40 -135 0
-135 0 0 40 0 40 135 0 135 0 0 -40z m870 0 l0 -40 -340 0 -340 0 0 40 0 40
340 0 340 0 0 -40z"/>
</g>
</svg>
