<?xml version="1.0" standalone="no"?>
<!DOCTYPE svg PUBLIC "-//W3C//DTD SVG 20010904//EN"
 "http://www.w3.org/TR/2001/REC-SVG-20010904/DTD/svg10.dtd">
<svg version="1.0" xmlns="http://www.w3.org/2000/svg"
 width="200.000000pt" height="200.000000pt" viewBox="0 0 200.000000 200.000000"
 preserveAspectRatio="xMidYMid meet">
<metadata>
Created by potrace 1.16, written by Peter Selinger 2001-2019
</metadata>
<g transform="translate(0.000000,200.000000) scale(0.100000,-0.100000)"
fill="#000000" stroke="none">
<path d="M149 1691 c-23 -18 -24 -27 -28 -151 -1 -72 0 -145 4 -163 5 -28 62
-76 407 -352 220 -176 414 -329 430 -339 23 -15 36 -17 55 -10 13 5 211 158
438 339 l414 330 0 167 c1 161 0 167 -21 182 -20 14 -117 16 -849 16 -799 0
-828 -1 -850 -19z"/>
<path d="M160 983 l0 -255 118 110 c64 61 129 123 144 139 l28 29 -145 117
-145 116 0 -256z"/>
<path d="M1692 1121 l-144 -116 144 -138 143 -137 3 130 c1 72 1 186 0 254
l-3 122 -143 -115z"/>
<path d="M327 792 l-167 -167 0 -152 c0 -146 1 -153 22 -167 20 -14 114 -16
818 -16 704 0 798 2 818 16 21 14 22 21 22 167 l0 152 -169 169 c-120 120
-173 166 -182 160 -8 -4 -103 -79 -212 -167 -109 -87 -215 -165 -235 -174 -60
-25 -91 -8 -322 177 -117 94 -215 170 -219 170 -3 0 -82 -75 -174 -168z"/>
</g>
</svg>
