<?xml version="1.0" standalone="no"?>
<!DOCTYPE svg PUBLIC "-//W3C//DTD SVG 20010904//EN"
 "http://www.w3.org/TR/2001/REC-SVG-20010904/DTD/svg10.dtd">
<svg version="1.0" xmlns="http://www.w3.org/2000/svg"
 width="200.000000pt" height="200.000000pt" viewBox="0 0 200.000000 200.000000"
 preserveAspectRatio="xMidYMid meet">
<metadata>
Created by potrace 1.16, written by Peter Selinger 2001-2019
</metadata>
<g transform="translate(0.000000,200.000000) scale(0.100000,-0.100000)"
fill="#000000" stroke="none">
<path d="M580 1630 l0 -180 -158 0 c-179 0 -213 -10 -244 -71 -16 -31 -18 -79
-18 -562 0 -574 -1 -561 56 -606 27 -21 31 -21 760 -21 l734 0 0 165 0 165 25
0 c15 0 41 14 63 34 37 34 37 35 41 127 2 51 -2 109 -8 130 -12 40 -49 73 -94
84 l-27 7 -2 162 -3 161 -42 3 -42 3 -3 107 -3 107 -205 0 c-176 0 -205 -2
-205 -15 0 -13 29 -15 193 -18 l192 -2 0 -25 0 -25 -172 0 c-169 0 -208 -6
-194 -29 5 -7 66 -11 187 -11 l179 0 0 -45 0 -45 -215 0 -215 0 0 290 0 290
-290 0 -290 0 0 -180z m153 133 c-15 -43 -80 -103 -110 -103 -14 0 -19 101 -6
113 3 4 32 7 64 7 51 0 58 -2 52 -17z m248 -15 c19 -47 63 -92 109 -113 l40
-18 0 -194 0 -193 -59 0 c-57 0 -60 1 -66 29 -11 52 -70 91 -137 91 -56 0
-112 -37 -129 -85 -13 -35 -14 -35 -71 -35 l-58 0 0 190 0 189 30 16 c47 24
100 75 121 117 l19 38 94 0 94 0 13 -32z m149 -28 c0 -75 -15 -78 -76 -16 -62
61 -59 76 16 76 l60 0 0 -60z m-550 -335 l0 -25 -129 0 c-137 0 -161 -4 -161
-26 0 -11 28 -14 145 -14 l145 0 0 -45 0 -45 -161 0 c-96 0 -168 4 -181 11
-11 6 -26 26 -34 45 -12 29 -12 39 0 68 8 19 22 39 33 45 11 6 84 11 181 11
l162 0 0 -25z m373 -105 c15 -16 27 -35 27 -40 0 -6 -45 -10 -110 -10 l-111 0
16 30 c35 67 126 78 178 20z m-676 -90 c10 0 13 -72 13 -355 0 -309 2 -355 15
-355 13 0 15 46 15 355 l0 355 680 0 680 0 0 -144 0 -145 -142 -3 c-124 -3
-147 -6 -170 -23 -43 -32 -58 -73 -58 -164 0 -92 15 -138 55 -169 26 -20 39
-22 171 -22 l144 0 0 -150 0 -150 -680 0 -680 0 0 55 c0 42 -3 55 -15 55 -12
0 -15 -13 -15 -56 0 -53 -1 -55 -23 -49 -12 4 -33 18 -47 31 l-25 24 -3 474
-3 474 38 -19 c20 -10 43 -19 50 -19z m1498 -354 c29 -29 39 -78 33 -160 -6
-69 -20 -99 -55 -115 -14 -6 -91 -11 -183 -11 -156 0 -159 0 -189 26 -31 26
-31 26 -31 130 0 98 2 107 25 129 24 25 27 25 200 25 172 0 176 -1 200 -24z"/>
<path d="M802 1523 c2 -58 7 -88 16 -91 9 -3 12 19 12 87 0 75 -3 91 -15 91
-13 0 -15 -14 -13 -87z"/>
<path d="M912 1523 c2 -58 7 -88 16 -91 9 -3 12 19 12 87 0 75 -3 91 -15 91
-13 0 -15 -14 -13 -87z"/>
<path d="M497 1073 c-20 -19 12 -23 208 -23 184 0 215 2 215 15 0 13 -30 15
-208 15 -115 0 -212 -3 -215 -7z"/>
<path d="M970 1065 c0 -11 11 -15 40 -15 29 0 40 4 40 15 0 11 -11 15 -40 15
-29 0 -40 -4 -40 -15z"/>
<path d="M1095 1070 c-3 -5 0 -13 8 -16 23 -8 127 0 130 11 3 14 -129 19 -138
5z"/>
<path d="M1280 1065 c0 -12 17 -15 95 -15 78 0 95 3 95 15 0 12 -17 15 -95 15
-78 0 -95 -3 -95 -15z"/>
<path d="M893 854 c-30 -26 -53 -54 -53 -65 0 -29 11 -24 70 36 70 71 57 93
-17 29z"/>
<path d="M602 817 c-46 -47 -51 -57 -24 -57 20 0 92 69 92 88 0 23 -26 11 -68
-31z"/>
<path d="M942 758 c-16 -16 -15 -38 2 -38 18 0 39 27 31 40 -8 13 -18 13 -33
-2z"/>
<path d="M652 718 c-14 -14 -16 -38 -4 -38 14 0 43 36 35 43 -9 10 -17 9 -31
-5z"/>
<path d="M1075 670 c-47 -47 -57 -62 -47 -72 10 -10 25 0 72 47 58 58 73 85
47 85 -7 0 -39 -27 -72 -60z"/>
<path d="M766 601 c-27 -28 -37 -45 -32 -57 6 -15 13 -11 51 26 25 24 45 50
45 57 0 24 -26 13 -64 -26z"/>
<path d="M1150 595 c-19 -20 -21 -28 -11 -38 10 -9 17 -6 37 18 13 17 24 33
24 38 0 16 -28 6 -50 -18z"/>
<path d="M832 538 c-16 -16 -15 -38 2 -38 18 0 39 27 31 40 -8 13 -18 13 -33
-2z"/>
<path d="M290 405 c0 -24 5 -35 15 -35 10 0 15 11 15 35 0 24 -5 35 -15 35
-10 0 -15 -11 -15 -35z"/>
<path d="M495 360 c-13 -21 11 -31 61 -28 36 2 49 7 49 18 0 19 -99 27 -110
10z"/>
<path d="M654 359 c-12 -20 19 -29 86 -27 53 3 65 6 68 21 3 15 -6 17 -72 17
-44 0 -78 -5 -82 -11z"/>
<path d="M865 360 c-4 -7 -3 -16 3 -22 14 -14 47 -6 47 12 0 18 -40 26 -50 10z"/>
<path d="M975 359 c-16 -25 20 -29 251 -27 205 3 239 5 239 18 0 13 -35 15
-242 18 -168 2 -244 -1 -248 -9z"/>
<path d="M1474 780 c-28 -11 -54 -48 -54 -78 0 -35 43 -72 83 -72 81 0 108
108 36 145 -32 17 -36 17 -65 5z m66 -45 c31 -38 -27 -96 -65 -65 -15 13 -21
61 -8 73 12 13 60 7 73 -8z"/>
<path d="M1640 711 c0 -44 11 -58 30 -36 17 20 9 69 -12 73 -15 3 -18 -4 -18
-37z"/>
</g>
</svg>
