<?xml version="1.0" standalone="no"?>
<!DOCTYPE svg PUBLIC "-//W3C//DTD SVG 20010904//EN"
 "http://www.w3.org/TR/2001/REC-SVG-20010904/DTD/svg10.dtd">
<svg version="1.0" xmlns="http://www.w3.org/2000/svg"
 width="200.000000pt" height="200.000000pt" viewBox="0 0 200.000000 200.000000"
 preserveAspectRatio="xMidYMid meet">
<metadata>
Created by potrace 1.16, written by Peter Selinger 2001-2019
</metadata>
<g transform="translate(0.000000,200.000000) scale(0.100000,-0.100000)"
fill="#000000" stroke="none">
<path d="M215 1731 c-43 -11 -80 -37 -93 -67 -18 -38 -15 -332 3 -364 12 -21
14 -105 15 -483 0 -505 -1 -500 63 -534 30 -17 85 -18 797 -18 712 0 767 1
797 18 64 34 63 29 63 534 1 378 3 462 15 483 11 19 14 64 15 178 0 173 -8
205 -63 237 -31 19 -57 20 -807 22 -426 1 -789 -2 -805 -6z m1595 -81 c18 -18
20 -33 20 -162 0 -79 -4 -148 -8 -155 -4 -6 -185 -153 -402 -327 -281 -225
-402 -316 -420 -316 -18 0 -139 91 -420 316 -217 174 -398 321 -402 327 -4 7
-8 75 -8 152 0 111 3 145 16 163 l15 22 795 0 c781 0 794 0 814 -20z m-1342
-635 c10 -9 -16 -39 -128 -144 l-140 -133 0 246 0 247 128 -102 c70 -56 133
-107 140 -114z m1330 -149 l-3 -124 -139 131 -138 132 138 111 139 110 3 -117
c1 -65 1 -174 0 -243z m-1048 -75 c269 -216 231 -216 500 0 111 88 208 163
216 166 9 3 71 -51 174 -153 l160 -158 0 -136 c0 -106 -3 -140 -16 -158 l-15
-22 -769 0 -769 0 -15 22 c-13 18 -16 52 -16 158 l0 136 159 158 c106 105 165
157 175 153 8 -3 105 -78 216 -166z"/>
</g>
</svg>
