<?xml version="1.0" standalone="no"?>
<!DOCTYPE svg PUBLIC "-//W3C//DTD SVG 20010904//EN"
 "http://www.w3.org/TR/2001/REC-SVG-20010904/DTD/svg10.dtd">
<svg version="1.0" xmlns="http://www.w3.org/2000/svg"
 width="200.000000pt" height="200.000000pt" viewBox="0 0 200.000000 200.000000"
 preserveAspectRatio="xMidYMid meet">
<metadata>
Created by potrace 1.16, written by Peter Selinger 2001-2019
</metadata>
<g transform="translate(0.000000,200.000000) scale(0.100000,-0.100000)"
fill="#000000" stroke="none">
<path d="M294 1869 c-34 -13 -69 -37 -102 -73 -85 -89 -82 -64 -82 -796 0
-741 -4 -708 89 -801 94 -94 46 -89 912 -89 l748 0 15 22 c14 20 16 96 16 630
0 595 0 608 -20 628 -20 20 -33 20 -770 20 -608 0 -757 3 -783 14 -61 25 -117
111 -117 180 0 78 68 166 144 185 30 7 200 11 509 11 449 0 464 1 482 20 17
18 17 21 1 45 l-16 25 -488 -1 c-460 0 -490 -1 -538 -20z m-12 -526 c57 -29
160 -33 831 -33 l687 0 0 -555 0 -555 -711 0 c-533 0 -722 3 -753 12 -52 16
-108 72 -124 124 -9 30 -12 177 -12 549 l0 507 28 -18 c15 -10 39 -24 54 -31z"/>
<path d="M1302 998 c-8 -8 -12 -46 -12 -105 l0 -93 -93 0 c-99 0 -117 -7 -117
-47 0 -33 29 -43 124 -43 l86 0 0 -93 c0 -95 8 -117 41 -117 38 0 49 27 49
121 l0 89 89 0 c94 0 121 11 121 49 0 33 -22 41 -117 41 l-93 0 0 86 c0 47 -5
94 -10 105 -12 21 -50 25 -68 7z"/>
</g>
</svg>
