<?xml version="1.0" standalone="no"?>
<!DOCTYPE svg PUBLIC "-//W3C//DTD SVG 20010904//EN"
 "http://www.w3.org/TR/2001/REC-SVG-20010904/DTD/svg10.dtd">
<svg version="1.0" xmlns="http://www.w3.org/2000/svg"
 width="200.000000pt" height="200.000000pt" viewBox="0 0 200.000000 200.000000"
 preserveAspectRatio="xMidYMid meet">
<metadata>
Created by potrace 1.16, written by Peter Selinger 2001-2019
</metadata>
<g transform="translate(0.000000,200.000000) scale(0.100000,-0.100000)"
fill="#000000" stroke="none">
<path d="M373 1523 c-150 -2 -273 -6 -273 -9 0 -2 11 -145 25 -317 38 -465 65
-659 99 -712 13 -20 18 -20 816 -12 526 5 807 11 816 17 6 6 17 39 24 73 14
73 26 670 15 781 l-7 76 -83 -6 -83 -7 -7 62 -7 61 -531 -2 c-293 -2 -655 -4
-804 -5z m1321 -45 c3 -18 15 -154 26 -303 25 -327 46 -504 70 -599 10 -39 17
-72 15 -74 -1 -1 -355 -3 -786 -5 l-784 -2 -17 68 c-23 90 -44 270 -68 577
-11 140 -22 279 -25 307 l-6 53 268 3 c147 1 501 3 785 5 l517 2 5 -32z m182
-134 c10 -80 -3 -719 -16 -779 -15 -72 -26 -76 -44 -15 -24 80 -44 231 -66
500 -11 135 -22 266 -25 292 l-6 47 53 4 c29 2 63 4 75 5 19 2 22 -4 29 -54z"/>
<path d="M851 1374 c-27 -35 -26 -66 2 -100 17 -20 33 -27 57 -27 24 0 40 7
57 27 28 34 29 65 2 100 -16 20 -29 26 -59 26 -30 0 -43 -6 -59 -26z m99 -14
c39 -39 16 -93 -40 -93 -35 0 -60 23 -60 55 0 24 35 58 60 58 11 0 29 -9 40
-20z"/>
</g>
</svg>
