<?xml version="1.0" standalone="no"?>
<!DOCTYPE svg PUBLIC "-//W3C//DTD SVG 20010904//EN"
 "http://www.w3.org/TR/2001/REC-SVG-20010904/DTD/svg10.dtd">
<svg version="1.0" xmlns="http://www.w3.org/2000/svg"
 width="200.000000pt" height="200.000000pt" viewBox="0 0 200.000000 200.000000"
 preserveAspectRatio="xMidYMid meet">
<metadata>
Created by potrace 1.16, written by Peter Selinger 2001-2019
</metadata>
<g transform="translate(0.000000,200.000000) scale(0.100000,-0.100000)"
fill="#000000" stroke="none">
<path d="M215 1876 c-37 -17 -80 -62 -94 -99 -15 -39 -15 -1515 0 -1554 15
-42 68 -92 109 -103 21 -6 319 -10 775 -10 698 0 742 1 780 19 46 21 79 54 94
94 8 19 11 271 11 778 0 614 -2 755 -14 782 -16 39 -61 82 -99 96 -46 18
-1523 14 -1562 -3z m1544 -91 c16 -8 31 -22 35 -30 3 -9 6 -118 6 -241 l0
-224 -270 0 c-290 0 -351 -7 -393 -46 -54 -50 -59 -70 -55 -259 3 -198 8 -212
88 -252 43 -22 53 -23 337 -23 l293 0 0 -230 0 -231 -25 -24 -24 -25 -751 0
-751 0 -24 25 -25 24 0 746 c0 509 3 753 11 766 6 11 20 24 32 29 12 5 352 9
755 9 625 1 737 -1 761 -14z m-319 -785 l0 -190 -117 0 c-160 0 -153 -8 -153
188 0 201 -7 192 152 192 l118 0 0 -190z m360 0 l0 -190 -135 0 -135 0 0 190
0 190 135 0 135 0 0 -190z"/>
</g>
</svg>
