<?xml version="1.0" standalone="no"?>
<!DOCTYPE svg PUBLIC "-//W3C//DTD SVG 20010904//EN"
 "http://www.w3.org/TR/2001/REC-SVG-20010904/DTD/svg10.dtd">
<svg version="1.0" xmlns="http://www.w3.org/2000/svg"
 width="200.000000pt" height="200.000000pt" viewBox="0 0 200.000000 200.000000"
 preserveAspectRatio="xMidYMid meet">
<metadata>
Created by potrace 1.16, written by Peter Selinger 2001-2019
</metadata>
<g transform="translate(0.000000,200.000000) scale(0.100000,-0.100000)"
fill="#000000" stroke="none">
<path d="M750 1608 c-256 -104 -478 -195 -493 -200 -57 -22 -57 -18 -57 -604
l0 -536 34 -34 34 -34 682 0 682 0 34 34 34 34 0 185 0 186 48 3 47 3 0 195 0
195 -47 3 -48 3 0 156 0 155 -34 34 -34 34 -119 0 -119 0 -76 188 c-42 103
-82 188 -90 189 -7 1 -222 -84 -478 -189z m515 25 c26 -65 56 -139 66 -165
l19 -48 -473 0 -472 1 395 163 c217 91 400 165 406 165 7 1 33 -52 59 -116z
m375 -273 c18 -18 20 -33 20 -170 l0 -150 -190 0 c-247 0 -230 15 -230 -200 0
-215 -17 -200 230 -200 l190 0 0 -180 c0 -167 -1 -181 -20 -200 -20 -20 -33
-20 -690 -20 -657 0 -670 0 -690 20 -19 19 -20 33 -20 550 0 517 1 531 20 550
20 20 33 20 690 20 657 0 670 0 690 -20z m120 -520 l0 -160 -237 2 -238 3 -3
145 c-1 79 0 150 2 157 4 10 57 13 241 13 l235 0 0 -160z"/>
<path d="M1365 850 c-14 -22 12 -31 81 -28 53 2 69 6 69 18 0 12 -16 16 -72
18 -45 2 -74 -1 -78 -8z"/>
</g>
</svg>
