<?xml version="1.0" standalone="no"?>
<!DOCTYPE svg PUBLIC "-//W3C//DTD SVG 20010904//EN"
 "http://www.w3.org/TR/2001/REC-SVG-20010904/DTD/svg10.dtd">
<svg version="1.0" xmlns="http://www.w3.org/2000/svg"
 width="200.000000pt" height="200.000000pt" viewBox="0 0 200.000000 200.000000"
 preserveAspectRatio="xMidYMid meet">
<metadata>
Created by potrace 1.16, written by Peter Selinger 2001-2019
</metadata>
<g transform="translate(0.000000,200.000000) scale(0.100000,-0.100000)"
fill="#000000" stroke="none">
<path d="M283 1769 c-30 -15 -48 -33 -63 -64 -20 -42 -21 -52 -18 -722 3 -764
-2 -712 81 -752 43 -21 51 -21 729 -21 l685 0 34 23 c71 47 70 31 67 617 -3
490 -4 528 -21 554 -30 45 -89 66 -190 66 l-88 0 -38 63 c-115 183 -148 230
-173 243 -22 11 -114 14 -495 14 -454 0 -469 -1 -510 -21z m975 -218 c23 -37
42 -71 42 -75 0 -3 -211 -6 -470 -6 l-470 0 0 75 0 75 428 0 427 0 43 -69z
m372 -370 l0 -129 -127 -4 c-145 -6 -183 -18 -230 -72 -88 -100 -60 -254 57
-313 39 -20 59 -23 172 -23 l128 0 0 -135 0 -135 -635 0 -635 0 0 74 0 74 148
4 c176 4 197 12 207 80 3 24 5 148 3 275 -4 300 12 278 -203 275 l-155 -3 0
80 0 81 635 0 635 0 0 -129z m-153 -283 c52 -49 12 -138 -62 -138 -48 0 -75
29 -75 80 0 52 27 80 77 80 24 0 45 -8 60 -22z"/>
</g>
</svg>
