<?xml version="1.0" standalone="no"?>
<!DOCTYPE svg PUBLIC "-//W3C//DTD SVG 20010904//EN"
 "http://www.w3.org/TR/2001/REC-SVG-20010904/DTD/svg10.dtd">
<svg version="1.0" xmlns="http://www.w3.org/2000/svg"
 width="200.000000pt" height="200.000000pt" viewBox="0 0 200.000000 200.000000"
 preserveAspectRatio="xMidYMid meet">
<metadata>
Created by potrace 1.16, written by Peter Selinger 2001-2019
</metadata>
<g transform="translate(0.000000,200.000000) scale(0.100000,-0.100000)"
fill="#000000" stroke="none">
<path d="M818 1967 c-127 -48 -201 -134 -215 -248 l-6 -49 -165 0 c-146 0
-171 -2 -206 -20 -84 -42 -81 -19 -84 -508 -2 -386 -1 -433 13 -438 9 -4 18
-4 21 -1 3 3 8 154 11 335 l6 330 33 -14 c27 -12 159 -14 730 -14 l696 0 33
-33 c41 -41 47 -76 43 -257 l-3 -135 -183 -5 c-231 -6 -221 2 -222 -178 0
-128 11 -173 45 -186 9 -3 95 -6 191 -6 l174 0 0 -180 c0 -198 -7 -230 -55
-268 l-28 -22 -693 0 -692 0 -31 26 c-17 14 -35 42 -41 62 -5 20 -10 119 -10
220 0 169 -1 183 -17 180 -17 -3 -18 -22 -18 -220 0 -238 1 -242 69 -292 27
-21 36 -21 740 -21 l713 0 37 29 c61 46 66 70 66 291 l0 195 44 0 c33 0 52 6
73 24 l28 24 0 137 0 137 -28 24 c-20 17 -40 24 -72 24 l-44 0 -3 188 c-3 179
-4 188 -27 221 -26 36 -90 70 -133 71 l-28 0 0 88 c0 163 -35 192 -231 192
l-126 0 -6 45 c-13 93 -82 186 -172 232 -61 32 -170 41 -227 20z m173 -49 c58
-20 107 -58 140 -110 27 -41 33 -62 37 -124 4 -65 2 -80 -22 -128 -47 -96
-132 -149 -236 -150 -82 0 -144 28 -199 90 -120 136 -65 358 104 418 50 18
131 20 176 4z m-377 -354 c13 -43 32 -71 75 -115 l57 -59 -239 0 c-273 0 -285
3 -313 76 -20 52 -7 102 33 134 24 18 40 20 198 20 l171 0 18 -56z m893 34
c21 -19 23 -30 23 -115 l0 -93 -231 0 -232 0 46 40 c42 38 107 144 107 177 0
10 28 13 132 13 121 0 134 -2 155 -22z m351 -750 c17 -17 17 -229 0 -246 -17
-17 -459 -17 -476 0 -8 8 -12 50 -12 123 0 73 4 115 12 123 17 17 459 17 476
0z"/>
<path d="M865 1891 c-125 -31 -207 -161 -176 -277 29 -108 132 -182 238 -171
88 9 164 65 194 144 16 44 12 128 -9 175 -25 57 -80 104 -144 123 -56 16 -59
16 -103 6z m140 -73 c118 -80 107 -252 -19 -309 -72 -33 -145 -22 -200 29 -99
93 -59 261 72 303 40 13 112 2 147 -23z"/>
<path d="M890 1789 c0 -6 -9 -22 -20 -36 -34 -44 -21 -87 33 -106 32 -12 19
-28 -18 -21 -31 6 -35 4 -35 -15 0 -12 6 -24 14 -27 8 -3 17 -16 20 -30 8 -32
31 -30 50 4 42 76 41 72 25 100 -8 15 -25 28 -37 30 -12 2 -22 10 -22 19 0 11
6 14 25 9 32 -8 44 17 21 43 -9 10 -16 23 -16 29 0 7 -9 12 -20 12 -11 0 -20
-5 -20 -11z"/>
<path d="M144 656 c-9 -25 0 -61 16 -61 10 0 16 12 18 38 2 28 0 37 -13 37 -8
0 -18 -6 -21 -14z"/>
</g>
</svg>
