<?xml version="1.0" standalone="no"?>
<!DOCTYPE svg PUBLIC "-//W3C//DTD SVG 20010904//EN"
 "http://www.w3.org/TR/2001/REC-SVG-20010904/DTD/svg10.dtd">
<svg version="1.0" xmlns="http://www.w3.org/2000/svg"
 width="200.000000pt" height="200.000000pt" viewBox="0 0 200.000000 200.000000"
 preserveAspectRatio="xMidYMid meet">
<metadata>
Created by potrace 1.16, written by Peter Selinger 2001-2019
</metadata>
<g transform="translate(0.000000,200.000000) scale(0.100000,-0.100000)"
fill="#000000" stroke="none">
<path d="M815 1914 c-97 -34 -168 -134 -169 -239 -1 -85 25 -145 86 -200 50
-45 122 -75 178 -75 95 0 201 72 240 162 33 77 25 177 -19 246 -67 105 -197
148 -316 106z m209 -81 c112 -79 113 -239 3 -327 -33 -27 -48 -31 -110 -34
-67 -3 -75 -1 -119 28 -138 92 -108 310 49 360 50 17 133 4 177 -27z"/>
<path d="M890 1789 c0 -6 -9 -22 -20 -36 -34 -44 -21 -87 33 -106 32 -12 19
-28 -18 -21 -31 6 -35 4 -35 -15 0 -12 6 -24 14 -27 8 -3 17 -16 20 -30 8 -32
31 -30 50 4 42 76 41 72 25 100 -8 15 -25 28 -37 30 -12 2 -22 10 -22 19 0 11
6 14 25 9 32 -8 44 17 21 43 -9 10 -16 23 -16 29 0 7 -9 12 -20 12 -11 0 -20
-5 -20 -11z"/>
<path d="M220 1592 c-36 -37 -46 -87 -27 -135 29 -69 41 -72 322 -75 l250 -2
-53 46 c-51 45 -92 109 -106 167 l-6 27 -176 0 -176 0 -28 -28z"/>
<path d="M1205 1571 c-20 -62 -61 -119 -108 -151 -20 -14 -37 -28 -37 -32 0
-5 106 -8 235 -8 l235 0 0 98 c0 90 -2 100 -23 120 -21 20 -34 22 -154 22
l-131 0 -17 -49z"/>
<path d="M187 1001 c-10 -529 -9 -800 3 -843 6 -20 24 -48 41 -62 l31 -26 692
0 693 0 28 22 c48 38 55 70 55 268 l0 180 -176 0 -176 0 -29 29 c-29 29 -29
30 -29 155 0 118 1 127 24 153 l24 28 179 5 178 5 3 135 c4 181 -2 216 -43
257 l-33 33 -694 0 c-650 0 -696 1 -729 18 l-36 18 -6 -375z"/>
<path d="M1393 860 c-22 -9 -23 -14 -23 -124 0 -63 3 -121 6 -130 5 -14 36
-16 238 -16 167 0 235 3 244 12 8 8 12 50 12 124 0 152 14 144 -250 143 -113
0 -215 -4 -227 -9z"/>
</g>
</svg>
