<?xml version="1.0" standalone="no"?>
<!DOCTYPE svg PUBLIC "-//W3C//DTD SVG 20010904//EN"
 "http://www.w3.org/TR/2001/REC-SVG-20010904/DTD/svg10.dtd">
<svg version="1.0" xmlns="http://www.w3.org/2000/svg"
 width="200.000000pt" height="200.000000pt" viewBox="0 0 200.000000 200.000000"
 preserveAspectRatio="xMidYMid meet">
<metadata>
Created by potrace 1.16, written by Peter Selinger 2001-2019
</metadata>
<g transform="translate(0.000000,200.000000) scale(0.100000,-0.100000)"
fill="#000000" stroke="none">
<path d="M1500 1762 c-52 -7 -1237 -375 -1272 -395 -49 -27 -88 -84 -95 -139
l-6 -43 30 32 c16 17 41 35 54 38 13 3 369 4 790 3 l765 -3 -38 125 c-21 69
-53 170 -69 224 -41 131 -79 169 -159 158z"/>
<path d="M214 1236 c-38 -17 -74 -61 -74 -92 l0 -24 830 0 c917 0 862 -4 823
62 -41 71 -5 68 -818 68 -588 -1 -736 -3 -761 -14z"/>
<path d="M130 1075 c0 -13 100 -15 840 -15 740 0 840 2 840 15 0 13 -100 15
-840 15 -740 0 -840 -2 -840 -15z"/>
<path d="M140 665 c0 -281 2 -341 15 -365 32 -62 1 -60 826 -60 l751 0 39 39
c37 36 39 42 39 100 l0 61 -217 0 c-188 0 -223 2 -253 18 -98 49 -108 185 -17
241 32 20 49 21 245 21 116 0 217 3 226 6 14 5 16 27 16 140 l0 134 -835 0
-835 0 0 -335z"/>
<path d="M1343 694 c-80 -40 -92 -150 -22 -208 l31 -26 248 0 c218 0 249 2
261 17 19 23 19 193 0 216 -12 15 -42 17 -250 17 -194 0 -242 -3 -268 -16z
m99 -71 c38 -35 9 -103 -44 -103 -26 0 -58 36 -58 64 0 50 63 75 102 39z"/>
</g>
</svg>
