<?xml version="1.0" standalone="no"?>
<!DOCTYPE svg PUBLIC "-//W3C//DTD SVG 20010904//EN"
 "http://www.w3.org/TR/2001/REC-SVG-20010904/DTD/svg10.dtd">
<svg version="1.0" xmlns="http://www.w3.org/2000/svg"
 width="200.000000pt" height="200.000000pt" viewBox="0 0 200.000000 200.000000"
 preserveAspectRatio="xMidYMid meet">
<metadata>
Created by potrace 1.16, written by Peter Selinger 2001-2019
</metadata>
<g transform="translate(0.000000,200.000000) scale(0.100000,-0.100000)"
fill="#000000" stroke="none">
<path d="M976 1758 c-8 -13 -28 -75 -46 -138 -17 -63 -33 -121 -36 -129 -3
-10 -13 -5 -33 20 -43 52 -121 91 -196 96 -158 13 -305 -130 -293 -286 l3 -49
-45 -5 c-32 -4 -51 -13 -67 -32 l-23 -26 0 -464 0 -463 26 -31 26 -31 708 0
708 0 26 31 26 31 0 463 0 464 -24 28 c-23 26 -30 28 -115 31 -50 2 -91 7 -91
10 0 3 19 72 41 154 38 136 40 150 26 171 -12 19 -62 36 -289 100 -151 42
-284 77 -296 77 -12 0 -28 -10 -36 -22z m318 -108 c137 -39 252 -72 255 -75 4
-5 -14 -73 -65 -252 -15 -51 -17 -53 -50 -53 -19 0 -34 3 -34 6 0 3 10 39 22
80 l21 75 -31 27 c-22 19 -32 37 -34 62 -3 35 -3 35 -93 62 -115 34 -133 35
-145 3 -9 -23 -25 -31 -79 -37 -25 -3 -31 -20 -92 -240 -6 -25 -16 -38 -27
-38 -32 0 -20 124 28 295 48 169 46 166 63 160 7 -3 124 -36 261 -75z m-577
-105 c71 -21 137 -94 153 -169 17 -82 -1 -138 -65 -202 -40 -41 -62 -54 -101
-62 -152 -33 -280 71 -278 224 1 100 60 179 158 210 55 17 73 17 133 -1z m542
-11 c51 -14 60 -21 64 -44 3 -15 17 -41 31 -57 l25 -30 -18 -64 -18 -64 -161
-3 c-112 -2 -162 1 -162 8 0 21 52 195 62 208 6 6 19 12 29 12 10 0 31 11 46
25 34 29 29 29 102 9z m-848 -350 c38 -71 148 -134 234 -134 94 0 205 61 244
134 l14 26 313 0 c275 0 313 -2 318 -16 3 -9 6 -72 6 -140 l0 -124 -100 0
c-140 0 -196 -14 -243 -60 -20 -21 -40 -52 -43 -69 l-6 -31 -429 0 -429 0 0
208 c0 148 3 211 12 220 7 7 31 12 53 12 35 0 44 -4 56 -26z m1287 14 c8 -8
12 -54 12 -140 l0 -128 -60 0 -60 0 0 140 0 140 48 0 c26 0 53 -5 60 -12z m12
-453 l0 -125 -220 0 -219 0 -36 35 c-30 31 -35 42 -35 85 0 38 6 55 27 80 14
18 36 36 47 40 12 5 114 9 229 9 l207 1 0 -125z m-542 -85 c38 -81 70 -94 235
-98 l137 -4 0 -132 c0 -89 -4 -136 -12 -144 -9 -9 -158 -12 -609 -12 -530 0
-599 2 -613 16 -14 13 -16 47 -16 220 l0 204 428 0 427 -1 23 -49z m542 -229
c0 -150 -5 -161 -76 -161 l-44 0 0 145 0 145 60 0 60 0 0 -129z"/>
<path d="M620 1475 c-7 -8 -21 -15 -31 -15 -29 0 -59 -36 -59 -71 0 -44 15
-66 55 -79 27 -9 35 -17 35 -35 0 -21 -5 -24 -42 -27 -36 -2 -44 -7 -46 -25
-3 -21 1 -23 41 -23 31 0 47 -5 51 -15 3 -8 14 -15 25 -15 10 0 21 7 25 15 3
8 16 15 30 15 30 0 66 43 66 79 0 37 -25 68 -60 76 -23 5 -30 12 -30 31 0 21
4 24 40 24 28 0 43 5 47 16 9 23 -23 44 -64 44 -18 0 -33 5 -33 10 0 15 -36
12 -50 -5z m0 -90 c0 -25 -23 -35 -35 -15 -10 16 2 40 20 40 9 0 15 -9 15 -25z
m95 -95 c7 -12 -12 -40 -26 -40 -5 0 -9 11 -9 25 0 25 23 35 35 15z"/>
<path d="M1203 1428 c-6 -7 -16 -30 -23 -52 -11 -33 -10 -40 4 -55 16 -15 18
-15 31 3 38 51 25 151 -12 104z"/>
</g>
</svg>
