<?xml version="1.0" standalone="no"?>
<!DOCTYPE svg PUBLIC "-//W3C//DTD SVG 20010904//EN"
 "http://www.w3.org/TR/2001/REC-SVG-20010904/DTD/svg10.dtd">
<svg version="1.0" xmlns="http://www.w3.org/2000/svg"
 width="200.000000pt" height="200.000000pt" viewBox="0 0 200.000000 200.000000"
 preserveAspectRatio="xMidYMid meet">
<metadata>
Created by potrace 1.16, written by Peter Selinger 2001-2019
</metadata>
<g transform="translate(0.000000,200.000000) scale(0.100000,-0.100000)"
fill="#000000" stroke="none">
<path d="M1015 1768 c-2 -7 -25 -85 -49 -173 -36 -125 -45 -176 -45 -232 0
-63 3 -73 18 -73 14 0 24 24 50 118 54 196 47 182 91 182 32 0 43 6 67 36 l28
35 109 -30 c107 -30 131 -43 121 -69 -8 -22 14 -62 40 -74 30 -14 31 -32 5
-118 -11 -36 -20 -68 -20 -72 0 -5 17 -8 38 -8 l37 0 46 165 c40 142 44 165
30 169 -78 23 -553 156 -557 156 -2 0 -7 -6 -9 -12z"/>
<path d="M560 1591 c-117 -38 -189 -142 -177 -255 28 -277 410 -303 478 -33
24 96 -26 210 -116 262 -48 29 -139 41 -185 26z m87 -75 c5 -8 27 -16 53 -18
40 -3 45 -6 45 -28 0 -23 -4 -25 -48 -28 -46 -3 -48 -4 -45 -30 2 -20 9 -28
28 -30 40 -6 70 -40 70 -82 0 -47 -23 -78 -65 -86 -18 -3 -36 -12 -39 -20 -7
-19 -35 -18 -42 1 -4 10 -20 15 -49 15 -50 0 -75 21 -55 45 7 9 29 15 51 15
37 0 39 2 39 30 0 25 -4 30 -24 30 -37 0 -79 55 -72 94 7 38 48 76 82 76 15 0
24 6 24 15 0 19 36 20 47 1z"/>
<path d="M554 1425 c-6 -16 12 -45 27 -45 5 0 9 14 9 30 0 32 -26 43 -36 15z"/>
<path d="M656 1323 c-11 -12 -6 -53 7 -53 14 0 37 19 37 32 0 11 -36 28 -44
21z"/>
<path d="M1170 1565 c-13 -14 -38 -27 -55 -31 -31 -6 -33 -8 -63 -118 -18 -62
-32 -116 -32 -119 0 -4 78 -7 173 -7 l174 0 21 72 21 73 -26 27 c-14 14 -28
41 -32 60 -6 30 -12 34 -66 50 -81 22 -88 22 -115 -7z m83 -142 c-2 -52 -18
-83 -43 -83 -24 0 -29 16 -17 65 12 49 25 67 46 63 12 -3 16 -14 14 -45z"/>
<path d="M252 1218 c-9 -9 -12 -76 -12 -240 l0 -228 455 0 454 0 19 43 c47
102 100 126 280 127 l132 0 0 143 c0 98 -4 147 -12 155 -9 9 -98 12 -343 12
l-330 -1 -26 -43 c-34 -56 -102 -102 -180 -122 -57 -15 -68 -15 -128 0 -79 19
-134 55 -181 119 -32 43 -39 47 -75 47 -23 0 -46 -5 -53 -12z"/>
<path d="M1634 1214 c3 -9 6 -78 6 -155 l0 -139 60 0 60 0 0 143 c0 98 -4 147
-12 155 -7 7 -36 12 -66 12 -45 0 -53 -3 -48 -16z"/>
<path d="M1295 850 c-37 -15 -76 -66 -82 -107 -7 -54 24 -115 71 -137 28 -13
71 -16 255 -16 l221 0 0 135 0 135 -222 -1 c-123 0 -232 -4 -243 -9z"/>
<path d="M240 472 c0 -164 3 -231 12 -240 17 -17 1299 -17 1316 0 8 8 12 57
12 154 l0 143 -149 3 c-148 3 -150 3 -191 33 -42 30 -62 56 -80 108 l-10 27
-455 0 -455 0 0 -228z"/>
<path d="M1638 375 l-3 -155 51 0 c27 0 55 5 62 12 8 8 12 57 12 155 l0 143
-60 0 -59 0 -3 -155z"/>
</g>
</svg>
