<?xml version="1.0" standalone="no"?>
<!DOCTYPE svg PUBLIC "-//W3C//DTD SVG 20010904//EN"
 "http://www.w3.org/TR/2001/REC-SVG-20010904/DTD/svg10.dtd">
<svg version="1.0" xmlns="http://www.w3.org/2000/svg"
 width="200.000000pt" height="200.000000pt" viewBox="0 0 200.000000 200.000000"
 preserveAspectRatio="xMidYMid meet">
<metadata>
Created by potrace 1.16, written by Peter Selinger 2001-2019
</metadata>
<g transform="translate(0.000000,200.000000) scale(0.100000,-0.100000)"
fill="#000000" stroke="none">
<path d="M975 1750 l-190 -119 -225 -1 c-242 -1 -268 -5 -340 -55 -21 -15 -55
-50 -74 -78 -64 -94 -66 -115 -66 -649 0 -451 1 -480 20 -530 28 -74 70 -122
142 -157 l61 -31 622 0 c713 0 683 -3 771 84 67 68 84 118 84 252 l0 103 40
22 c132 74 131 262 -1 329 l-39 20 0 114 c0 106 -2 117 -31 174 -35 71 -83
114 -153 141 -40 15 -51 24 -61 53 -35 104 -125 184 -227 203 -36 7 -38 10
-83 119 -26 61 -50 114 -54 118 -3 4 -92 -46 -196 -112z m233 -176 c40 -97 71
-178 69 -180 -2 -2 -165 -3 -363 -2 l-358 3 284 178 c156 97 287 177 290 177
3 0 38 -79 78 -176z m-559 -28 c-2 -2 -59 -38 -126 -80 -108 -67 -129 -76
-170 -76 -52 0 -125 -29 -160 -62 -13 -12 -26 -19 -29 -15 -13 13 27 115 63
156 60 71 93 81 272 81 85 0 152 -2 150 -4z m719 -28 c31 -19 92 -99 92 -120
0 -4 -20 -8 -45 -8 -38 0 -47 4 -54 23 -5 12 -18 46 -30 75 -23 58 -17 64 37
30z m222 -232 c26 -13 58 -41 75 -65 28 -40 30 -49 33 -156 l4 -113 -209 -4
c-190 -3 -211 -5 -250 -26 -22 -12 -50 -33 -61 -47 -73 -93 -43 -234 60 -284
41 -19 61 -21 252 -21 l208 0 -4 -114 c-3 -108 -5 -117 -33 -157 -16 -23 -50
-53 -74 -66 l-45 -23 -626 2 -627 3 -41 29 c-26 18 -51 47 -67 79 l-25 51 0
383 c0 418 1 426 58 487 15 16 45 37 67 47 38 17 77 19 650 18 l610 0 45 -23z
m206 -444 c55 -44 59 -109 10 -158 l-34 -34 -236 0 c-254 0 -277 4 -302 51
-26 51 -14 106 30 141 19 16 49 18 266 18 217 0 247 -2 266 -18z"/>
<path d="M322 758 l3 -353 38 -3 37 -3 0 355 0 356 -40 0 -40 0 2 -352z"/>
<path d="M480 775 l0 -285 40 0 40 0 0 285 0 285 -40 0 -40 0 0 -285z"/>
<path d="M1331 794 c-26 -32 -26 -36 -3 -64 31 -38 92 -26 108 22 8 25 -31 68
-62 68 -12 0 -32 -12 -43 -26z"/>
</g>
</svg>
