<?xml version="1.0" standalone="no"?>
<!DOCTYPE svg PUBLIC "-//W3C//DTD SVG 20010904//EN"
 "http://www.w3.org/TR/2001/REC-SVG-20010904/DTD/svg10.dtd">
<svg version="1.0" xmlns="http://www.w3.org/2000/svg"
 width="200.000000pt" height="200.000000pt" viewBox="0 0 200.000000 200.000000"
 preserveAspectRatio="xMidYMid meet">
<metadata>
Created by potrace 1.16, written by Peter Selinger 2001-2019
</metadata>
<g transform="translate(0.000000,200.000000) scale(0.100000,-0.100000)"
fill="#000000" stroke="none">
<path d="M226 1838 c-13 -18 -16 -52 -16 -165 l0 -143 -55 0 c-42 0 -60 -5
-75 -20 -20 -20 -20 -33 -20 -673 0 -574 2 -655 16 -675 l15 -22 835 0 c913 0
874 -2 937 58 16 15 39 45 50 67 22 40 22 42 22 735 l0 695 -22 41 c-25 47
-73 91 -120 111 -26 10 -177 13 -792 13 l-760 0 -15 -22z m1555 -136 c20 -22
29 -43 29 -67 0 -24 -9 -45 -29 -67 l-29 -33 -706 -3 -706 -2 0 105 0 105 706
-2 706 -3 29 -33z m29 -822 l0 -550 -29 -32 -29 -33 -781 -3 -781 -2 0 165 0
165 171 0 172 0 40 -36 c148 -134 378 -119 517 33 66 72 93 145 93 248 0 111
-28 182 -102 255 -64 64 -122 95 -206 111 -104 19 -244 -22 -311 -92 l-28 -29
-173 0 -173 0 0 165 0 165 783 1 c430 0 791 4 802 9 11 5 23 9 28 9 4 1 7
-246 7 -549z m-895 181 c52 -24 121 -99 134 -147 27 -98 5 -188 -64 -256 -110
-108 -298 -85 -379 46 -44 71 -49 165 -12 240 27 55 70 96 128 121 47 20 145
18 193 -4z m-462 -138 c-10 -36 -10 -140 0 -175 l7 -28 -135 0 -135 0 0 115 0
115 135 0 135 0 -7 -27z"/>
</g>
</svg>
