<?xml version="1.0" standalone="no"?>
<!DOCTYPE svg PUBLIC "-//W3C//DTD SVG 20010904//EN"
 "http://www.w3.org/TR/2001/REC-SVG-20010904/DTD/svg10.dtd">
<svg version="1.0" xmlns="http://www.w3.org/2000/svg"
 width="200.000000pt" height="200.000000pt" viewBox="0 0 200.000000 200.000000"
 preserveAspectRatio="xMidYMid meet">
<metadata>
Created by potrace 1.16, written by Peter Selinger 2001-2019
</metadata>
<g transform="translate(0.000000,200.000000) scale(0.100000,-0.100000)"
fill="#000000" stroke="none">
<path d="M878 1846 c-185 -66 -291 -242 -266 -441 21 -158 156 -292 325 -325
204 -40 423 120 451 330 19 134 -36 295 -76 223 -7 -11 -5 -30 5 -57 16 -47
18 -155 4 -204 -59 -197 -289 -294 -474 -200 -159 80 -225 282 -146 445 32 67
108 138 174 162 68 25 165 28 231 5 54 -18 77 -13 72 18 -7 48 -206 77 -300
44z"/>
<path d="M977 1744 c-4 -4 -7 -19 -7 -34 0 -18 -9 -31 -30 -43 -56 -34 -77
-111 -44 -167 20 -33 56 -55 105 -64 46 -8 61 -26 57 -68 -4 -46 -46 -70 -85
-48 -16 9 -30 28 -35 48 -7 27 -13 33 -31 30 -37 -5 -35 -58 3 -102 18 -20 38
-36 46 -36 9 0 14 -11 14 -29 0 -37 24 -59 45 -41 8 7 15 25 15 41 0 18 5 29
14 29 8 0 28 16 45 35 65 74 31 169 -71 200 -28 8 -57 20 -64 26 -19 15 -18
64 2 83 32 33 104 8 104 -36 0 -22 24 -40 44 -32 36 14 8 100 -43 130 -21 13
-31 27 -33 48 -2 22 -9 32 -23 34 -12 2 -24 0 -28 -4z"/>
<path d="M1234 1735 c-4 -9 0 -23 9 -32 21 -21 49 -9 45 19 -4 28 -45 38 -54
13z"/>
<path d="M163 990 c-35 -14 -50 -48 -69 -155 -41 -217 -17 -595 41 -662 41
-49 190 -44 249 8 31 27 40 29 109 29 60 0 76 3 81 16 12 32 -13 44 -94 44
-56 0 -79 4 -83 13 -16 42 -29 223 -24 335 6 151 21 229 46 237 76 24 440 32
662 14 145 -11 185 -21 192 -48 5 -20 -17 -81 -30 -81 -50 -2 -447 -71 -458
-80 -50 -41 108 -111 342 -151 191 -32 280 -25 453 37 147 52 204 58 258 30
27 -14 31 -20 21 -32 -40 -48 -281 -169 -472 -236 l-92 -32 -320 -5 -320 -6 0
-25 0 -25 315 0 c361 1 367 2 585 95 237 101 375 190 375 240 0 59 -121 122
-202 105 -18 -4 -100 -29 -182 -57 l-149 -51 -106 6 c-58 3 -144 12 -191 21
-92 17 -195 45 -188 51 2 3 80 16 174 30 179 27 207 38 232 89 33 67 6 141
-59 162 -92 31 -540 44 -742 22 -107 -11 -108 -11 -124 11 -34 50 -163 78
-230 51z m153 -65 c30 -12 35 -19 30 -38 -3 -12 -13 -67 -22 -122 -18 -114
-14 -348 9 -472 13 -71 13 -72 -10 -82 -27 -12 -122 -14 -140 -3 -6 4 -20 45
-30 92 -36 166 -15 603 30 632 20 13 95 9 133 -7z"/>
</g>
</svg>
