<?xml version="1.0" standalone="no"?>
<!DOCTYPE svg PUBLIC "-//W3C//DTD SVG 20010904//EN"
 "http://www.w3.org/TR/2001/REC-SVG-20010904/DTD/svg10.dtd">
<svg version="1.0" xmlns="http://www.w3.org/2000/svg"
 width="200.000000pt" height="200.000000pt" viewBox="0 0 200.000000 200.000000"
 preserveAspectRatio="xMidYMid meet">
<metadata>
Created by potrace 1.16, written by Peter Selinger 2001-2019
</metadata>
<g transform="translate(0.000000,200.000000) scale(0.100000,-0.100000)"
fill="#000000" stroke="none">
<path d="M655 1475 c-14 -13 -25 -29 -25 -34 0 -5 -15 -7 -34 -4 -26 4 -39 0
-55 -16 -19 -19 -21 -32 -21 -151 0 -71 -3 -130 -7 -130 -4 0 -19 11 -33 25
-52 49 -119 50 -141 1 -10 -20 -8 -32 10 -66 12 -23 29 -72 37 -108 23 -97 36
-124 98 -191 62 -67 72 -105 36 -141 -28 -28 -28 -112 0 -140 19 -19 33 -20
213 -20 232 0 237 2 237 86 0 41 -5 59 -20 74 -26 26 -25 50 5 110 34 67 56
67 90 0 30 -60 31 -84 5 -110 -15 -15 -20 -33 -20 -74 0 -84 5 -86 237 -86
180 0 194 1 213 20 28 28 28 112 0 140 -36 36 -26 73 40 146 47 52 64 80 80
131 11 36 20 72 20 81 0 8 12 40 26 70 21 45 24 59 15 79 -22 48 -90 47 -141
-2 -14 -14 -29 -25 -33 -25 -4 0 -7 58 -7 130 0 121 -1 131 -22 150 -17 16
-31 20 -56 16 -28 -4 -34 -1 -42 19 -19 51 -79 59 -119 16 -17 -18 -32 -26
-40 -22 -36 23 -101 -27 -101 -78 0 -27 -11 -30 -100 -30 -89 0 -100 3 -100
30 0 51 -65 101 -101 78 -8 -4 -23 4 -40 22 -34 36 -71 38 -104 4z m85 -24 c5
-11 10 -63 10 -115 l0 -96 -29 0 c-16 0 -36 -3 -45 -6 -14 -5 -16 7 -16 99 0
83 3 109 16 121 21 22 51 20 64 -3z m584 3 c13 -12 16 -38 16 -121 0 -92 -2
-104 -16 -99 -9 3 -29 6 -45 6 l-29 0 0 103 c0 106 7 127 41 127 10 0 25 -7
33 -16z m-464 -53 c5 -11 10 -51 10 -90 l0 -71 -45 0 -45 0 0 78 c0 47 5 83
12 90 18 18 56 14 68 -7z m348 7 c7 -7 12 -43 12 -90 l0 -78 -45 0 -45 0 0 71
c0 39 5 79 10 90 12 21 50 25 68 7z m-590 -10 c9 -9 12 -71 12 -216 l0 -203
-42 25 -43 26 -3 163 c-3 180 4 217 41 217 13 0 28 -5 35 -12z m827 -12 c13
-19 15 -53 13 -190 l-3 -166 -42 -26 -43 -25 0 203 c0 145 3 207 12 216 19 19
46 14 63 -12z m-465 -92 c18 -47 14 -54 -35 -54 -43 0 -45 1 -45 28 0 34 16
52 47 52 16 0 27 -8 33 -26z m108 14 c7 -7 12 -25 12 -40 0 -27 -2 -28 -45
-28 -49 0 -53 7 -35 54 10 28 47 35 68 14z m240 -110 c8 -8 12 -60 12 -168 0
-108 -4 -160 -12 -168 -17 -17 -639 -17 -656 0 -17 17 -17 319 0 336 17 17
639 17 656 0z m-874 -49 c32 -25 56 -69 56 -103 0 -28 5 -34 73 -77 41 -27 47
-35 47 -65 0 -24 8 -43 25 -59 23 -24 29 -25 159 -25 l135 0 -24 -46 c-14 -26
-25 -58 -25 -70 l0 -24 -164 0 -163 0 -6 41 c-4 31 -17 53 -55 93 -60 64 -78
96 -98 182 -8 37 -24 84 -34 105 -11 21 -17 45 -14 53 9 23 56 20 88 -5z
m1180 5 c3 -8 -5 -36 -18 -62 -13 -26 -27 -67 -31 -92 -11 -68 -37 -119 -95
-183 -39 -43 -53 -67 -57 -97 l-6 -40 -163 0 -164 0 0 24 c0 12 -11 44 -25 70
l-24 46 133 0 c157 0 175 8 185 81 6 40 10 46 58 74 43 25 54 36 59 65 9 49
29 85 60 109 31 25 79 28 88 5z m-706 -513 c9 -5 12 -25 10 -57 l-3 -49 -189
-3 c-130 -2 -193 1 -202 9 -17 14 -18 81 -2 97 14 14 365 17 386 3z m530 -3
c16 -16 15 -83 -2 -97 -9 -8 -72 -11 -202 -9 l-189 3 -3 49 c-2 32 1 52 10 57
21 14 372 11 386 -3z"/>
<path d="M750 1162 c0 -10 -5 -23 -12 -30 -7 -7 -20 -12 -30 -12 -16 0 -18
-10 -18 -90 0 -80 2 -90 18 -90 23 0 42 -19 42 -42 0 -17 16 -18 250 -18 234
0 250 1 250 18 0 23 19 42 42 42 16 0 18 10 18 90 0 80 -2 90 -18 90 -23 0
-42 19 -42 42 0 17 -16 18 -250 18 -234 0 -250 -1 -250 -18z m495 -47 c30 -30
35 -41 35 -83 0 -42 -5 -54 -34 -86 l-35 -36 -211 0 -211 0 -35 36 c-29 32
-34 44 -34 86 0 41 5 54 33 83 l32 34 213 0 213 1 34 -35z"/>
<path d="M973 1099 c-75 -28 -57 -139 23 -139 54 0 90 61 64 110 -13 24 -59
39 -87 29z m63 -55 c9 -34 -15 -59 -49 -50 -53 13 -41 76 14 76 22 0 30 -6 35
-26z"/>
<path d="M787 1044 c-16 -17 -4 -24 39 -24 32 0 44 4 42 13 -5 13 -69 22 -81
11z"/>
<path d="M1137 1044 c-16 -17 -4 -24 39 -24 32 0 44 4 42 13 -5 13 -69 22 -81
11z"/>
</g>
</svg>
