<?xml version="1.0" standalone="no"?>
<!DOCTYPE svg PUBLIC "-//W3C//DTD SVG 20010904//EN"
 "http://www.w3.org/TR/2001/REC-SVG-20010904/DTD/svg10.dtd">
<svg version="1.0" xmlns="http://www.w3.org/2000/svg"
 width="200.000000pt" height="200.000000pt" viewBox="0 0 200.000000 200.000000"
 preserveAspectRatio="xMidYMid meet">
<metadata>
Created by potrace 1.16, written by Peter Selinger 2001-2019
</metadata>
<g transform="translate(0.000000,200.000000) scale(0.100000,-0.100000)"
fill="#000000" stroke="none">
<path d="M1483 1804 c-59 -85 -108 -165 -108 -177 0 -20 6 -22 58 -25 l57 -3
0 -664 0 -665 -40 0 -40 0 -2 418 -3 417 -99 3 c-64 2 -103 -1 -112 -9 -12 -9
-14 -82 -14 -420 l0 -409 -35 0 -35 0 0 314 c0 173 -3 321 -6 330 -5 13 -25
16 -115 16 l-109 0 0 -330 0 -330 -40 0 -40 0 0 238 c0 130 -4 243 -8 250 -6
9 -36 12 -113 10 l-104 -3 -3 -248 -2 -247 -40 0 -40 0 -2 178 -3 177 -110 0
-110 0 -3 -177 -2 -178 -88 0 c-139 0 -132 6 -132 -120 0 -103 1 -108 23 -114
29 -8 1845 -8 1875 0 21 6 22 11 22 114 0 127 9 120 -142 120 l-98 0 0 665 0
664 63 3 c51 2 62 6 62 21 0 29 -216 337 -237 337 -11 0 -55 -54 -125 -156z
m201 -24 c42 -61 76 -113 76 -115 0 -3 -12 -5 -26 -5 -14 0 -34 -5 -45 -10
-18 -10 -19 -29 -19 -695 l0 -685 -60 0 -60 0 0 685 c0 666 -1 685 -19 695
-11 5 -34 10 -51 10 l-31 0 78 115 c43 63 79 114 80 115 1 0 36 -50 77 -110z
m-324 -1120 l0 -390 -60 0 -60 0 0 390 0 390 60 0 60 0 0 -390z m-310 -85 l0
-305 -60 0 -60 0 0 305 0 305 60 0 60 0 0 -305z m-310 -85 l0 -220 -60 0 -60
0 0 220 0 220 60 0 60 0 0 -220z m-310 -65 l0 -155 -60 0 -60 0 0 148 c0 82 3
152 7 155 3 4 30 7 60 7 l53 0 0 -155z m1480 -275 l0 -60 -910 0 -910 0 0 60
0 60 910 0 910 0 0 -60z"/>
<path d="M1170 1532 c-110 -65 -140 -95 -106 -108 15 -6 239 117 252 137 6 10
-13 39 -25 39 -3 0 -58 -31 -121 -68z"/>
<path d="M710 1537 c-100 -28 -167 -94 -196 -193 -45 -154 71 -321 235 -341
151 -18 301 117 301 272 0 94 -69 203 -152 243 -58 26 -133 34 -188 19z m155
-66 c118 -55 159 -184 97 -302 -22 -43 -38 -59 -81 -81 -218 -114 -427 149
-263 331 61 68 165 90 247 52z"/>
<path d="M763 1433 c-7 -2 -13 -9 -13 -15 0 -6 -11 -23 -25 -40 -43 -51 -26
-106 40 -128 34 -11 46 -32 24 -45 -5 -4 -18 0 -28 9 -44 39 -74 3 -36 -43 14
-16 25 -33 25 -39 0 -12 29 -24 41 -16 5 3 9 10 9 16 0 6 11 21 25 34 33 31
34 82 2 112 -13 12 -30 22 -39 22 -27 0 -41 25 -22 41 14 11 18 11 29 -5 16
-21 48 -18 53 6 2 9 -6 25 -18 35 -12 10 -26 28 -31 41 -9 22 -14 25 -36 15z"/>
<path d="M359 1067 c-144 -85 -159 -95 -159 -113 0 -33 35 -22 165 52 113 64
136 80 133 98 -2 11 -10 22 -18 23 -8 1 -63 -26 -121 -60z"/>
</g>
</svg>
