<?xml version="1.0" standalone="no"?>
<!DOCTYPE svg PUBLIC "-//W3C//DTD SVG 20010904//EN"
 "http://www.w3.org/TR/2001/REC-SVG-20010904/DTD/svg10.dtd">
<svg version="1.0" xmlns="http://www.w3.org/2000/svg"
 width="200.000000pt" height="200.000000pt" viewBox="0 0 200.000000 200.000000"
 preserveAspectRatio="xMidYMid meet">
<metadata>
Created by potrace 1.16, written by Peter Selinger 2001-2019
</metadata>
<g transform="translate(0.000000,200.000000) scale(0.100000,-0.100000)"
fill="#000000" stroke="none">
<path d="M1530 1788 c-41 -60 -76 -114 -78 -119 -2 -5 19 -9 47 -9 l51 0 0
-695 0 -696 58 3 57 3 3 693 2 692 45 0 c25 0 45 5 45 10 0 9 -129 202 -149
222 -3 3 -40 -43 -81 -104z"/>
<path d="M1184 1552 c-115 -65 -134 -79 -134 -99 0 -32 35 -21 145 42 63 37
118 71 121 76 6 10 -13 39 -25 39 -3 0 -51 -26 -107 -58z"/>
<path d="M695 1485 c-22 -8 -57 -32 -77 -56 -126 -140 -31 -359 157 -359 123
0 214 93 215 218 0 151 -146 249 -295 197z m104 -57 c5 -13 19 -31 30 -40 12
-10 21 -25 21 -33 0 -24 -29 -29 -50 -10 -16 15 -22 15 -35 5 -18 -15 -3 -40
23 -40 9 0 26 -10 39 -22 32 -30 31 -81 -2 -112 -14 -13 -25 -28 -25 -34 0 -6
-4 -13 -9 -16 -12 -8 -41 4 -41 16 0 6 -11 23 -25 39 -38 46 -8 82 36 43 10
-9 23 -13 28 -9 22 13 10 34 -24 45 -66 22 -83 77 -40 128 14 17 25 34 25 40
0 10 15 19 33 21 4 1 11 -9 16 -21z"/>
<path d="M359 1077 c-144 -85 -159 -95 -159 -113 0 -33 35 -22 165 52 113 64
136 80 133 98 -2 11 -10 22 -18 23 -8 1 -63 -26 -121 -60z"/>
<path d="M1240 670 l0 -401 58 3 57 3 0 395 0 395 -57 3 -58 3 0 -401z"/>
<path d="M932 583 l3 -308 58 -3 57 -3 0 311 0 310 -60 0 -60 0 2 -307z"/>
<path d="M624 717 c-2 -7 -3 -109 -2 -227 l3 -215 58 -3 57 -3 0 231 0 230
-55 0 c-36 0 -57 -5 -61 -13z"/>
<path d="M314 577 c-2 -7 -3 -78 -2 -157 l3 -145 58 -3 57 -3 0 161 0 160 -55
0 c-36 0 -57 -5 -61 -13z"/>
<path d="M90 160 l0 -60 910 0 910 0 0 60 0 60 -910 0 -910 0 0 -60z"/>
</g>
</svg>
