<?xml version="1.0" standalone="no"?>
<!DOCTYPE svg PUBLIC "-//W3C//DTD SVG 20010904//EN"
 "http://www.w3.org/TR/2001/REC-SVG-20010904/DTD/svg10.dtd">
<svg version="1.0" xmlns="http://www.w3.org/2000/svg"
 width="200.000000pt" height="200.000000pt" viewBox="0 0 200.000000 200.000000"
 preserveAspectRatio="xMidYMid meet">
<metadata>
Created by potrace 1.16, written by Peter Selinger 2001-2019
</metadata>
<g transform="translate(0.000000,200.000000) scale(0.100000,-0.100000)"
fill="#000000" stroke="none">
<path d="M1110 1920 c-36 -10 -146 -40 -245 -66 -221 -59 -240 -72 -233 -161
4 -48 10 -61 37 -85 36 -32 65 -35 137 -13 27 8 54 15 59 15 6 0 10 -24 11
-54 l1 -54 -41 -5 c-61 -8 -86 -42 -86 -118 0 -50 4 -64 24 -84 14 -14 42 -27
63 -31 l39 -6 -1 -60 c0 -55 3 -62 33 -89 l32 -29 248 -2 c401 -5 390 -5 447
24 64 34 118 90 147 153 32 71 32 191 -1 258 -34 69 -101 132 -167 156 -51 20
-70 21 -257 16 l-202 -5 53 18 c92 30 123 92 88 176 -28 68 -72 78 -186 46z
m124 -43 c23 -17 33 -89 15 -104 -8 -6 -127 -41 -266 -78 -201 -53 -256 -64
-272 -56 -23 13 -39 76 -24 100 6 10 99 40 259 82 137 37 254 67 260 68 5 0
18 -5 28 -12z m371 -261 c55 -25 109 -80 133 -135 23 -54 20 -157 -6 -207 -47
-91 -113 -135 -214 -142 -112 -8 -197 40 -250 141 -35 65 -31 165 7 235 30 54
82 99 140 120 53 19 135 14 190 -12z m-338 -28 c-19 -24 -40 -53 -46 -65 -11
-22 -17 -23 -139 -23 -86 0 -132 4 -140 12 -16 16 -16 90 0 106 8 8 64 12 186
12 l173 0 -34 -42z m-77 -203 l0 -65 -183 0 c-129 0 -187 4 -195 12 -17 17
-15 84 4 102 13 13 45 16 195 16 l179 0 0 -65z m37 -152 c7 -16 26 -43 43 -61
16 -18 30 -35 30 -38 0 -2 -78 -4 -173 -4 -121 0 -177 4 -185 12 -16 16 -16
90 0 106 8 8 54 12 143 12 l130 0 12 -27z"/>
<path d="M1475 1568 c-4 -13 -19 -33 -34 -45 -22 -18 -26 -29 -26 -73 0 -59
21 -85 81 -96 33 -6 35 -8 32 -43 -2 -28 -8 -37 -25 -39 -14 -2 -26 4 -33 17
-11 22 -44 28 -55 11 -7 -12 22 -70 36 -70 5 0 14 -11 19 -25 9 -24 50 -37 50
-15 0 6 14 24 30 42 25 26 30 39 30 83 0 61 -18 83 -74 92 -35 6 -37 7 -34 42
2 28 8 37 25 39 14 2 26 -4 33 -17 6 -12 20 -21 30 -21 29 0 26 45 -3 73 -13
12 -29 32 -36 45 -6 12 -18 22 -26 22 -7 0 -17 -10 -20 -22z"/>
<path d="M609 924 c-67 -20 -137 -72 -193 -142 -43 -53 -52 -60 -69 -50 -14 7
-27 7 -43 -1 -15 -6 -25 -7 -29 -1 -12 20 -39 9 -121 -51 -87 -63 -104 -83
-104 -117 0 -27 319 -482 346 -494 13 -6 33 -8 46 -5 37 10 118 75 118 96 0
10 21 32 46 50 25 19 50 44 56 57 14 30 25 27 128 -31 193 -108 347 -120 511
-38 74 37 261 182 481 374 149 131 177 172 164 243 -13 67 -112 124 -175 99
-14 -5 -101 -62 -192 -126 -92 -65 -169 -117 -173 -117 -3 0 -6 12 -6 26 0 36
-32 85 -69 107 -17 10 -85 27 -153 38 -67 11 -175 37 -240 59 -101 34 -130 40
-201 39 -45 0 -103 -7 -128 -15z m296 -69 c55 -20 161 -47 235 -60 168 -32
165 -31 190 -62 44 -56 13 -146 -54 -158 -18 -4 -98 3 -179 15 -147 21 -156
21 -249 -6 -21 -6 -24 -40 -4 -47 8 -3 36 0 64 7 42 12 67 11 178 -5 196 -28
217 -26 274 26 29 26 383 276 418 294 52 27 116 -14 116 -75 0 -26 -9 -43 -39
-75 -94 -96 -461 -399 -543 -448 -75 -44 -138 -61 -224 -61 -95 0 -165 22
-294 91 -57 31 -103 49 -125 49 -33 0 -39 7 -152 170 l-119 170 44 52 c56 69
85 94 133 120 94 50 193 51 330 3z m-416 -702 c-7 -8 -25 -21 -39 -28 -25 -13
-29 -12 -47 8 -48 53 -302 429 -297 440 3 7 35 33 72 60 l67 47 128 -256 c105
-210 126 -258 116 -271z m-21 336 c73 -104 135 -196 138 -202 4 -11 -52 -57
-69 -57 -6 0 -227 433 -227 445 0 3 6 5 13 5 6 0 72 -86 145 -191z"/>
<path d="M357 303 c-23 -23 36 -112 66 -100 25 9 21 28 -14 70 -31 37 -40 43
-52 30z"/>
</g>
</svg>
