<?xml version="1.0" standalone="no"?>
<!DOCTYPE svg PUBLIC "-//W3C//DTD SVG 20010904//EN"
 "http://www.w3.org/TR/2001/REC-SVG-20010904/DTD/svg10.dtd">
<svg version="1.0" xmlns="http://www.w3.org/2000/svg"
 width="200.000000pt" height="200.000000pt" viewBox="0 0 200.000000 200.000000"
 preserveAspectRatio="xMidYMid meet">
<metadata>
Created by potrace 1.16, written by Peter Selinger 2001-2019
</metadata>
<g transform="translate(0.000000,200.000000) scale(0.100000,-0.100000)"
fill="#000000" stroke="none">
<path d="M953 1861 c-138 -37 -258 -73 -267 -80 -27 -23 -13 -102 21 -115 17
-7 510 121 541 140 36 23 21 98 -23 114 -13 5 -113 -17 -272 -59z"/>
<path d="M1440 1691 c-79 -24 -150 -83 -188 -155 -22 -43 -26 -64 -26 -131 0
-67 4 -88 26 -130 31 -60 77 -105 138 -136 65 -33 187 -33 250 0 141 73 203
221 153 367 -24 71 -112 157 -183 178 -56 17 -128 20 -170 7z m98 -94 c2 -9
17 -30 33 -46 16 -16 29 -38 29 -49 0 -31 -27 -34 -54 -6 -33 36 -66 26 -66
-21 0 -35 2 -36 62 -49 44 -10 58 -32 58 -91 0 -49 -3 -57 -30 -77 -16 -12
-30 -29 -30 -39 0 -18 -26 -33 -41 -23 -5 3 -9 14 -9 24 0 11 -10 25 -22 31
-29 15 -38 28 -38 56 0 34 20 38 46 9 26 -27 33 -30 58 -20 10 4 16 18 16 39
0 32 -3 34 -54 49 -60 18 -66 26 -66 97 0 48 23 89 50 89 6 0 10 8 10 18 0 10
3 22 7 26 12 12 38 2 41 -17z"/>
<path d="M937 1642 c-21 -23 -22 -71 -3 -98 13 -16 29 -19 129 -22 l115 -4 18
29 c9 15 30 47 46 71 l29 42 -159 0 c-141 0 -161 -2 -175 -18z"/>
<path d="M806 1454 c-21 -20 -21 -78 0 -98 13 -13 45 -16 190 -16 l174 0 0 65
0 65 -174 0 c-145 0 -177 -3 -190 -16z"/>
<path d="M960 1283 c-41 -15 -55 -87 -22 -116 16 -14 44 -17 175 -17 l157 0
-34 50 c-19 28 -38 59 -41 70 -6 18 -15 20 -113 19 -59 0 -114 -3 -122 -6z"/>
<path d="M598 877 c-70 -30 -124 -72 -165 -130 l-32 -44 135 -194 c113 -163
141 -196 177 -214 23 -12 71 -37 107 -57 175 -97 345 -103 498 -17 67 37 351
263 500 398 63 57 110 108 119 129 33 79 -20 156 -104 150 -38 -3 -70 -21
-232 -133 -136 -94 -193 -140 -207 -165 -26 -46 -78 -80 -125 -80 -20 0 -101
9 -178 21 -130 19 -144 19 -192 5 -38 -12 -56 -13 -65 -5 -25 21 2 45 65 59
52 11 78 10 215 -10 171 -24 200 -21 231 26 21 33 19 90 -5 124 -16 22 -33 31
-73 38 -28 6 -104 20 -167 32 -63 12 -149 35 -190 52 -107 43 -231 49 -312 15z"/>
<path d="M155 669 c-103 -73 -112 -83 -99 -116 16 -42 313 -462 335 -474 21
-11 53 3 104 45 l30 24 -145 286 c-80 157 -147 285 -150 285 -3 0 -36 -22 -75
-50z m239 -407 c31 -45 34 -72 7 -72 -20 0 -71 59 -71 83 0 40 32 35 64 -11z"/>
<path d="M300 714 c0 -6 233 -467 249 -493 8 -12 16 -10 45 13 20 15 36 32 36
37 0 10 -222 334 -283 412 -26 33 -47 47 -47 31z"/>
</g>
</svg>
