<?xml version="1.0" standalone="no"?>
<!DOCTYPE svg PUBLIC "-//W3C//DTD SVG 20010904//EN"
 "http://www.w3.org/TR/2001/REC-SVG-20010904/DTD/svg10.dtd">
<svg version="1.0" xmlns="http://www.w3.org/2000/svg"
 width="200.000000pt" height="200.000000pt" viewBox="0 0 200.000000 200.000000"
 preserveAspectRatio="xMidYMid meet">
<metadata>
Created by potrace 1.16, written by Peter Selinger 2001-2019
</metadata>
<g transform="translate(0.000000,200.000000) scale(0.100000,-0.100000)"
fill="#000000" stroke="none">
<path d="M1271 1939 c-216 -42 -375 -257 -358 -484 10 -131 81 -258 184 -332
l47 -33 -91 0 c-106 0 -103 4 -103 -110 l0 -79 -32 -3 c-26 -2 -35 -9 -43 -33
l-10 -30 -187 3 -188 2 0 39 c0 73 5 71 -161 71 l-149 0 2 -372 3 -373 139 -3
c93 -2 143 1 152 9 8 7 14 30 14 55 0 40 2 44 24 44 18 0 50 -29 131 -119 58
-65 117 -123 131 -130 18 -8 159 -11 478 -11 l453 0 34 23 c39 26 63 85 54
134 -7 37 -47 89 -75 98 -17 6 -20 16 -20 75 l0 69 38 3 37 3 0 120 0 120 -37
3 -38 3 0 69 0 69 38 3 37 3 0 120 0 120 -90 5 c-87 5 -89 5 -64 21 56 37 123
117 157 188 66 137 55 312 -28 439 -103 160 -290 238 -479 201z m221 -70 c188
-63 302 -250 268 -440 -15 -82 -50 -150 -112 -216 -188 -198 -528 -138 -646
115 -24 50 -27 69 -27 162 0 97 2 110 31 170 87 185 294 274 486 209z m228
-904 l0 -65 -355 0 -355 0 0 65 0 65 355 0 355 0 0 -65z m-1290 -390 l0 -315
-100 0 -100 0 0 315 0 315 100 0 100 0 0 -315z m1210 195 l0 -70 -314 0 -314
0 -41 49 c-23 27 -41 58 -41 70 0 21 0 21 355 21 l355 0 0 -70z m-672 -102
c245 -255 302 -319 302 -337 0 -35 -38 -71 -76 -71 -30 0 -52 16 -180 135
-139 129 -175 152 -187 120 -8 -18 3 -30 166 -179 148 -134 174 -148 241 -126
19 6 40 18 46 26 10 11 51 14 221 14 203 0 208 0 223 -22 22 -31 20 -74 -4
-98 -19 -19 -33 -20 -467 -20 -247 0 -453 4 -458 8 -6 4 -62 62 -124 129 -102
111 -116 123 -147 123 l-34 0 0 205 0 205 185 0 185 0 108 -112z m762 -93 l0
-65 -267 0 -268 1 -58 64 -59 65 326 0 326 0 0 -65z m-90 -195 l0 -70 -154 0
-154 0 -7 33 c-4 17 -20 49 -36 70 l-30 37 191 0 190 0 0 -70z"/>
<path d="M1259 1807 c-211 -79 -288 -324 -160 -510 58 -85 150 -130 266 -131
66 -1 90 3 135 25 80 37 125 81 162 157 29 59 33 75 32 147 -1 97 -23 154 -88
223 -66 71 -123 95 -226 99 -54 2 -98 -2 -121 -10z m226 -69 c52 -26 102 -73
128 -123 17 -31 22 -58 22 -120 0 -70 -4 -87 -30 -134 -52 -94 -133 -141 -244
-141 -154 0 -287 151 -267 303 25 188 224 298 391 215z"/>
<path d="M1347 1713 c-4 -3 -7 -16 -7 -28 0 -16 -9 -27 -30 -35 -41 -17 -60
-46 -60 -92 0 -44 25 -74 67 -84 116 -26 135 -42 94 -76 -32 -25 -65 -23 -97
7 -31 29 -49 32 -58 9 -9 -23 20 -64 55 -77 21 -8 29 -19 31 -42 4 -43 39 -42
53 2 5 18 16 35 25 38 34 11 64 54 64 92 0 47 -33 75 -107 92 -36 8 -61 19
-67 31 -26 49 78 71 118 25 13 -15 28 -22 37 -19 31 12 11 65 -34 88 -18 10
-30 26 -34 46 -6 29 -33 41 -50 23z"/>
</g>
</svg>
