<?xml version="1.0" standalone="no"?>
<!DOCTYPE svg PUBLIC "-//W3C//DTD SVG 20010904//EN"
 "http://www.w3.org/TR/2001/REC-SVG-20010904/DTD/svg10.dtd">
<svg version="1.0" xmlns="http://www.w3.org/2000/svg"
 width="200.000000pt" height="200.000000pt" viewBox="0 0 200.000000 200.000000"
 preserveAspectRatio="xMidYMid meet">
<metadata>
Created by potrace 1.16, written by Peter Selinger 2001-2019
</metadata>
<g transform="translate(0.000000,200.000000) scale(0.100000,-0.100000)"
fill="#000000" stroke="none">
<path d="M1373 1939 c-257 -50 -421 -330 -343 -582 86 -280 405 -409 662 -270
58 32 157 133 187 190 93 183 54 403 -95 542 -116 109 -259 151 -411 120z
m248 -132 c71 -34 136 -99 168 -167 23 -48 26 -68 26 -155 0 -90 -3 -105 -28
-153 -119 -226 -418 -267 -582 -79 -90 103 -115 255 -61 373 29 63 101 145
151 171 96 52 233 56 326 10z"/>
<path d="M1344 1755 c-111 -55 -168 -144 -168 -265 0 -93 24 -151 89 -214 187
-182 497 -50 498 213 1 119 -69 224 -179 271 -69 30 -175 27 -240 -5z m154
-58 c2 -18 13 -32 30 -41 38 -20 64 -51 60 -73 -5 -27 -33 -27 -62 1 -16 17
-36 26 -57 26 -34 0 -69 -24 -69 -46 0 -19 38 -40 85 -49 64 -11 93 -31 104
-72 13 -48 -8 -94 -55 -119 -22 -12 -34 -26 -34 -40 0 -12 -7 -27 -15 -34 -20
-16 -45 3 -45 35 0 16 -9 26 -30 35 -53 22 -80 83 -43 97 10 4 23 -2 34 -16
36 -44 121 -43 134 0 10 29 -10 46 -66 58 -92 20 -129 52 -129 111 0 24 47 79
77 91 15 5 23 17 23 32 0 30 9 39 35 35 14 -2 21 -12 23 -31z"/>
<path d="M57 1084 c-4 -4 -7 -195 -7 -424 0 -310 3 -419 12 -428 18 -18 292
-17 307 2 8 9 10 131 9 432 l-3 419 -156 3 c-85 1 -158 -1 -162 -4z"/>
<path d="M950 985 c-11 -13 -2 -27 57 -93 l70 -77 384 0 384 0 0 90 0 90 -441
3 c-386 2 -443 0 -454 -13z"/>
<path d="M440 680 l0 -280 25 0 c19 0 54 -35 165 -165 78 -91 150 -170 160
-175 12 -6 218 -10 559 -10 l540 0 26 23 c52 44 39 154 -21 177 -14 6 -127 10
-251 10 l-226 0 -38 -35 c-34 -31 -45 -35 -92 -35 -28 1 -62 6 -75 13 -12 7
-103 93 -202 192 -132 131 -180 185 -178 200 2 11 10 21 18 23 9 1 97 -76 208
-183 156 -151 196 -185 219 -185 29 0 68 22 90 50 18 22 16 71 -5 101 -9 14
-122 143 -250 286 -186 209 -239 262 -263 267 -18 3 -116 6 -220 6 l-189 0 0
-280z"/>
<path d="M1152 733 c8 -10 45 -53 83 -95 l68 -78 312 0 c256 0 315 3 324 14 8
9 11 43 9 93 l-3 78 -404 3 c-385 2 -404 1 -389 -15z"/>
<path d="M1360 504 c0 -3 12 -20 27 -38 33 -39 53 -87 53 -126 l0 -30 189 0
c104 0 196 3 205 6 13 5 16 23 16 94 0 82 -1 88 -22 94 -30 8 -468 8 -468 0z"/>
</g>
</svg>
