<?xml version="1.0" standalone="no"?>
<!DOCTYPE svg PUBLIC "-//W3C//DTD SVG 20010904//EN"
 "http://www.w3.org/TR/2001/REC-SVG-20010904/DTD/svg10.dtd">
<svg version="1.0" xmlns="http://www.w3.org/2000/svg"
 width="200.000000pt" height="200.000000pt" viewBox="0 0 200.000000 200.000000"
 preserveAspectRatio="xMidYMid meet">
<metadata>
Created by potrace 1.16, written by Peter Selinger 2001-2019
</metadata>
<g transform="translate(0.000000,200.000000) scale(0.100000,-0.100000)"
fill="#000000" stroke="none">
<path d="M996 1974 c-42 -41 -2 -94 70 -94 22 0 44 -3 48 -7 4 -4 -100 -114
-231 -245 l-238 -238 -144 0 -145 0 -168 -167 c-93 -93 -171 -178 -175 -191
-7 -28 21 -62 50 -62 13 0 78 57 177 155 l156 155 144 0 144 0 257 256 c230
230 257 253 262 232 4 -12 7 -34 7 -48 0 -62 64 -94 94 -47 13 19 13 36 0 137
-11 77 -21 121 -33 132 -11 12 -50 23 -121 33 -131 18 -135 18 -154 -1z"/>
<path d="M1796 1681 l-121 -119 -36 23 c-102 66 -259 73 -372 17 -204 -101
-283 -342 -176 -542 l29 -54 -62 -63 -63 -62 -60 29 c-317 158 -660 -131 -556
-467 11 -37 30 -79 40 -93 l20 -25 -120 -121 c-122 -124 -135 -146 -101 -177
17 -16 92 -17 879 -17 820 0 861 1 876 18 16 17 17 92 17 879 0 820 -1 861
-18 876 -10 10 -27 17 -37 17 -10 0 -73 -54 -139 -119z m94 -811 l0 -750 -752
0 -752 0 62 63 63 63 71 -35 c68 -34 77 -36 172 -36 89 0 108 3 159 27 209 98
295 349 186 548 l-30 54 63 63 63 62 67 -33 c150 -76 314 -52 443 66 113 103
153 258 106 405 -12 38 -31 79 -41 93 l-19 25 67 68 c36 37 68 67 69 67 2 0 3
-337 3 -750z m-412 648 c7 -7 12 -20 12 -30 0 -10 16 -26 40 -38 71 -36 100
-139 45 -160 -34 -13 -55 -3 -71 34 l-13 31 -1 -31 c0 -26 6 -34 30 -44 84
-35 108 -137 49 -205 -17 -19 -42 -38 -55 -41 -15 -4 -27 -16 -30 -31 -13 -50
-87 -50 -100 1 -3 13 -20 30 -40 39 -61 30 -94 115 -58 151 28 29 66 18 83
-24 10 -25 10 -25 10 5 0 24 -6 33 -32 45 -105 49 -97 195 14 240 16 7 29 20
29 29 0 25 20 41 50 41 14 0 31 -5 38 -12z m-688 -688 c11 -11 20 -26 20 -33
0 -7 16 -21 35 -30 86 -41 101 -167 21 -167 -26 0 -41 14 -49 45 -3 14 -5 11
-6 -10 0 -24 5 -33 32 -45 105 -49 97 -195 -13 -240 -16 -7 -31 -22 -34 -36
-12 -47 -87 -43 -94 5 -2 12 -13 26 -25 31 -50 21 -87 70 -87 115 0 39 16 55
52 55 23 0 32 -7 43 -32 l14 -33 1 31 c0 26 -6 34 -30 44 -83 34 -108 137 -50
204 17 18 41 37 55 40 14 4 25 13 25 21 0 19 36 55 55 55 8 0 24 -9 35 -20z"/>
<path d="M1375 1341 c-3 -5 -1 -12 5 -16 5 -3 10 1 10 9 0 18 -6 21 -15 7z"/>
<path d="M1491 1154 c0 -11 3 -14 6 -6 3 7 2 16 -1 19 -3 4 -6 -2 -5 -13z"/>
<path d="M800 474 c0 -8 5 -12 10 -9 6 4 8 11 5 16 -9 14 -15 11 -15 -7z"/>
</g>
</svg>
