<?xml version="1.0" standalone="no"?>
<!DOCTYPE svg PUBLIC "-//W3C//DTD SVG 20010904//EN"
 "http://www.w3.org/TR/2001/REC-SVG-20010904/DTD/svg10.dtd">
<svg version="1.0" xmlns="http://www.w3.org/2000/svg"
 width="200.000000pt" height="200.000000pt" viewBox="0 0 200.000000 200.000000"
 preserveAspectRatio="xMidYMid meet">
<metadata>
Created by potrace 1.16, written by Peter Selinger 2001-2019
</metadata>
<g transform="translate(0.000000,200.000000) scale(0.100000,-0.100000)"
fill="#000000" stroke="none">
<path d="M482 1968 c-7 -7 -12 -36 -12 -65 l0 -53 -109 0 c-80 0 -112 -4 -120
-14 -8 -9 -11 -72 -9 -202 l3 -189 115 -5 115 -5 0 -110 0 -110 -95 -2 c-129
-4 -140 -7 -140 -41 0 -46 15 -52 132 -52 l108 0 0 -53 c0 -58 12 -77 47 -77
29 0 43 27 43 84 l0 46 104 0 c82 0 108 3 120 16 24 23 24 355 0 378 -12 13
-38 16 -120 16 l-104 0 0 110 0 110 98 0 c104 0 142 13 142 49 0 40 -31 51
-138 51 l-102 0 0 49 c0 52 -17 81 -49 81 -9 0 -22 -5 -29 -12z m-12 -328 l0
-110 -75 0 -75 0 0 110 0 110 75 0 75 0 0 -110z m235 -315 l0 -110 -72 -3 -73
-3 0 116 0 116 73 -3 72 -3 0 -110z"/>
<path d="M1136 1234 c-23 -23 -23 -285 0 -308 13 -14 60 -16 354 -16 408 0
370 -17 370 170 0 187 38 170 -370 170 -294 0 -341 -2 -354 -16z m624 -154 l0
-70 -275 0 -275 0 0 70 0 70 275 0 275 0 0 -70z"/>
<path d="M150 781 c-13 -26 -13 -266 0 -292 10 -18 25 -19 358 -19 257 0 351
3 360 12 17 17 17 289 0 306 -9 9 -103 12 -360 12 -333 0 -348 -1 -358 -19z
m640 -146 l0 -75 -275 0 -275 0 0 75 0 75 275 0 275 0 0 -75z"/>
<path d="M1132 788 c-17 -17 -17 -289 0 -306 9 -9 103 -12 360 -12 333 0 348
1 358 19 13 26 13 266 0 292 -10 18 -25 19 -358 19 -257 0 -351 -3 -360 -12z
m628 -153 l0 -75 -275 0 -275 0 0 75 0 75 275 0 275 0 0 -75z"/>
<path d="M157 342 c-14 -15 -17 -42 -17 -154 0 -118 2 -137 18 -151 17 -15 56
-17 355 -17 292 0 338 2 351 16 23 23 23 285 0 308 -13 14 -59 16 -353 16
-315 0 -339 -1 -354 -18z m633 -157 l0 -75 -275 0 -275 0 0 75 0 75 275 0 275
0 0 -75z"/>
<path d="M1136 344 c-23 -23 -23 -285 0 -308 13 -14 60 -16 354 -16 408 0 370
-17 370 170 0 187 38 170 -370 170 -294 0 -341 -2 -354 -16z m624 -159 l0 -75
-275 0 -275 0 0 75 0 75 275 0 275 0 0 -75z"/>
</g>
</svg>
