<?xml version="1.0" standalone="no"?>
<!DOCTYPE svg PUBLIC "-//W3C//DTD SVG 20010904//EN"
 "http://www.w3.org/TR/2001/REC-SVG-20010904/DTD/svg10.dtd">
<svg version="1.0" xmlns="http://www.w3.org/2000/svg"
 width="200.000000pt" height="200.000000pt" viewBox="0 0 200.000000 200.000000"
 preserveAspectRatio="xMidYMid meet">
<metadata>
Created by potrace 1.16, written by Peter Selinger 2001-2019
</metadata>
<g transform="translate(0.000000,200.000000) scale(0.100000,-0.100000)"
fill="#000000" stroke="none">
<path d="M992 1968 c-7 -7 -12 -27 -12 -45 l0 -33 -158 0 c-110 0 -162 -4
-170 -12 -17 -17 -17 -459 0 -476 8 -8 60 -12 170 -12 l158 0 0 -155 0 -155
-153 0 c-167 0 -192 -7 -185 -50 5 -41 40 -50 196 -50 l142 0 0 -28 c0 -33 16
-52 45 -52 29 0 45 19 45 52 l0 28 148 0 c208 0 192 -22 192 254 0 159 -3 225
-12 234 -8 8 -60 12 -170 12 l-158 0 0 160 0 160 158 0 c166 0 182 4 182 45 0
41 -16 45 -182 45 l-158 0 0 33 c0 38 -15 57 -45 57 -12 0 -26 -5 -33 -12z
m-12 -328 l0 -160 -125 0 -125 0 0 160 0 160 125 0 125 0 0 -160z m340 -405
l0 -155 -125 0 -125 0 0 155 0 155 125 0 125 0 0 -155z"/>
<path d="M1460 801 l-145 -108 -3 33 c-6 64 -8 64 -387 64 -306 0 -343 -2
-367 -18 -68 -44 -348 -277 -354 -294 -4 -13 28 -78 102 -206 59 -103 115
-199 123 -215 9 -15 23 -29 31 -32 28 -9 863 163 887 183 27 22 435 459 447
479 12 21 -4 51 -75 144 -50 65 -65 79 -87 78 -18 0 -75 -36 -172 -108z m199
-43 c17 -23 30 -46 29 -50 -3 -7 -200 -220 -327 -352 l-76 -79 -385 -79 c-212
-43 -389 -76 -395 -74 -9 3 -195 318 -195 329 0 3 65 57 145 121 l144 116 311
0 310 0 0 -34 c0 -29 -8 -41 -49 -75 l-49 -41 -214 0 c-225 0 -238 -3 -238
-45 0 -43 12 -45 255 -45 l230 0 50 42 c70 58 407 308 416 308 4 0 21 -19 38
-42z"/>
</g>
</svg>
