<?xml version="1.0" standalone="no"?>
<!DOCTYPE svg PUBLIC "-//W3C//DTD SVG 20010904//EN"
 "http://www.w3.org/TR/2001/REC-SVG-20010904/DTD/svg10.dtd">
<svg version="1.0" xmlns="http://www.w3.org/2000/svg"
 width="200.000000pt" height="200.000000pt" viewBox="0 0 200.000000 200.000000"
 preserveAspectRatio="xMidYMid meet">
<metadata>
Created by potrace 1.16, written by Peter Selinger 2001-2019
</metadata>
<g transform="translate(0.000000,200.000000) scale(0.100000,-0.100000)"
fill="#000000" stroke="none">
<path d="M1275 1778 c-138 -26 -268 -130 -332 -264 -37 -78 -38 -81 -43 -228
-5 -136 -6 -147 -19 -123 -14 26 -41 37 -41 18 0 -17 64 -121 75 -121 9 0 75
108 75 124 0 17 -31 2 -45 -21 -15 -26 -15 -19 -13 118 3 145 3 146 40 220
101 203 315 296 531 229 153 -47 277 -199 293 -358 5 -46 11 -62 22 -62 12 0
14 11 9 68 -5 50 -17 88 -47 148 -64 131 -177 220 -317 249 -76 16 -116 17
-188 3z"/>
<path d="M1230 1648 c-77 -30 -169 -124 -198 -201 -27 -72 -29 -181 -4 -249
97 -268 444 -322 621 -98 106 133 97 326 -19 453 -26 29 -72 66 -102 82 -46
26 -65 30 -148 32 -78 3 -105 -1 -150 -19z m286 -40 c105 -54 165 -150 172
-273 5 -106 -20 -176 -88 -244 -74 -74 -127 -96 -235 -96 -105 0 -158 21 -228
89 -120 116 -129 318 -22 444 71 83 146 114 265 109 67 -3 95 -9 136 -29z"/>
<path d="M1337 1563 c-4 -3 -7 -14 -7 -23 0 -9 -12 -23 -26 -30 -37 -20 -57
-65 -51 -112 6 -48 25 -70 93 -108 29 -17 54 -39 57 -52 17 -62 -58 -82 -77
-20 -6 18 -15 22 -47 22 -34 0 -39 -3 -39 -22 0 -32 35 -86 64 -100 14 -6 26
-20 28 -32 4 -31 62 -30 66 1 2 12 12 25 22 28 11 3 31 20 46 38 23 27 26 38
22 85 -5 61 -21 81 -95 121 -41 22 -48 31 -51 59 -3 31 -2 33 25 30 20 -2 29
-9 31 -25 3 -19 10 -23 43 -23 36 0 39 2 39 29 0 32 -43 91 -66 91 -8 0 -14
10 -14 25 0 21 -5 25 -28 25 -16 0 -32 -3 -35 -7z m57 -63 c20 0 53 -31 61
-57 9 -34 -17 -29 -43 7 -13 17 -32 30 -44 30 -30 0 -58 -28 -58 -60 0 -30 24
-55 92 -94 86 -48 89 -145 7 -187 -22 -11 -39 -27 -40 -37 0 -14 -2 -13 -9 4
-4 11 -22 27 -39 34 -33 13 -51 37 -51 64 0 26 24 18 42 -14 15 -26 23 -30 57
-30 44 0 61 18 61 62 0 35 -24 63 -85 97 -58 33 -69 52 -63 112 2 27 11 39 41
58 20 13 37 31 38 40 0 10 4 8 9 -6 5 -13 16 -23 24 -23z"/>
<path d="M66 1094 c-8 -20 -8 -618 0 -638 5 -13 24 -16 99 -16 99 0 125 10
125 51 0 18 8 19 114 19 l114 0 198 -150 198 -150 487 0 488 0 20 26 c30 38
29 114 -2 150 -23 26 -28 27 -293 54 -148 16 -269 29 -269 29 0 1 0 26 0 56 0
47 -4 59 -30 84 -16 17 -169 118 -339 226 l-310 195 -188 0 -188 0 0 23 c0 45
-28 57 -127 57 -74 0 -92 -3 -97 -16z m192 -321 l-3 -298 -77 -3 -78 -3 0 301
0 300 80 0 80 0 -2 -297z m711 31 c163 -102 308 -199 324 -215 57 -61 12 -159
-73 -159 -11 0 -141 63 -287 140 -148 78 -274 138 -282 135 -8 -3 -11 -9 -5
-14 5 -5 129 -73 276 -150 286 -151 318 -162 369 -122 24 18 30 18 303 -9 240
-23 281 -30 293 -46 16 -22 17 -86 1 -102 -9 -9 -132 -12 -493 -12 l-480 1
-199 149 -199 150 -114 0 -113 0 0 220 0 220 192 0 191 0 296 -186z"/>
<path d="M132 1014 c-28 -19 -28 -58 -1 -78 23 -16 47 -12 67 12 17 22 15 39
-8 62 -24 24 -29 24 -58 4z m41 -39 c1 -5 -6 -11 -15 -13 -11 -2 -18 3 -18 13
0 17 30 18 33 0z"/>
</g>
</svg>
