<?xml version="1.0" standalone="no"?>
<!DOCTYPE svg PUBLIC "-//W3C//DTD SVG 20010904//EN"
 "http://www.w3.org/TR/2001/REC-SVG-20010904/DTD/svg10.dtd">
<svg version="1.0" xmlns="http://www.w3.org/2000/svg"
 width="200.000000pt" height="200.000000pt" viewBox="0 0 200.000000 200.000000"
 preserveAspectRatio="xMidYMid meet">
<metadata>
Created by potrace 1.16, written by Peter Selinger 2001-2019
</metadata>
<g transform="translate(0.000000,200.000000) scale(0.100000,-0.100000)"
fill="#000000" stroke="none">
<path d="M407 1933 c-4 -3 -7 -129 -7 -280 0 -150 -3 -273 -6 -273 -3 0 -14 5
-25 11 -37 19 -80 -13 -61 -46 10 -19 208 -155 224 -155 13 0 188 118 217 146
12 11 12 18 3 39 -12 25 -45 34 -57 15 -21 -33 -25 11 -25 251 0 160 -4 268
-10 280 -10 17 -22 19 -129 19 -65 0 -121 -3 -124 -7z m181 -344 l-3 -272 -26
-19 c-25 -19 -28 -19 -53 -3 l-26 17 0 274 0 274 55 0 55 0 -2 -271z"/>
<path d="M856 1764 c-14 -13 -16 -53 -16 -284 l0 -269 -26 14 c-15 7 -33 11
-40 8 -16 -6 -26 -35 -19 -54 9 -21 190 -144 217 -147 16 -2 57 20 126 68 83
58 102 75 102 96 0 30 -24 41 -61 27 l-29 -11 0 272 c0 198 -3 275 -12 284
-19 19 -222 16 -242 -4z m174 -338 l0 -275 -28 -19 c-27 -20 -27 -20 -55 2
l-27 22 0 272 0 272 55 0 55 0 0 -274z"/>
<path d="M1462 1309 c-104 -20 -212 -116 -247 -218 -39 -114 -8 -257 74 -342
l47 -49 -76 0 c-46 0 -81 -5 -88 -12 -8 -8 -12 -54 -12 -140 l0 -128 -33 0
c-18 0 -38 -5 -45 -12 -17 -17 -17 -319 0 -336 17 -17 709 -17 726 0 8 8 12
54 12 140 l0 128 33 0 c18 0 38 5 45 12 17 17 17 319 0 336 -7 7 -43 12 -90
12 l-78 0 40 40 c120 120 133 315 29 447 -44 54 -115 100 -184 118 -65 16 -88
17 -153 4z m174 -94 c49 -20 105 -76 130 -130 73 -155 -30 -338 -202 -360 -63
-9 -119 6 -180 48 -137 92 -141 313 -7 410 76 54 176 67 259 32z m194 -695 l0
-100 -25 0 c-23 0 -25 3 -25 50 l0 50 -40 0 -40 0 0 -50 c0 -49 -1 -50 -30
-50 -29 0 -30 1 -30 50 l0 50 -40 0 -40 0 0 -50 c0 -47 -2 -50 -25 -50 -23 0
-25 3 -25 50 l0 50 -40 0 -40 0 0 -50 c0 -49 -1 -50 -30 -50 -29 0 -30 1 -30
50 l0 50 -40 0 -40 0 0 -50 c0 -47 -2 -50 -25 -50 l-25 0 0 100 0 100 295 0
295 0 0 -100z m-90 -280 l0 -100 -25 0 c-23 0 -25 3 -25 50 l0 50 -40 0 -40 0
0 -50 c0 -49 -1 -50 -30 -50 -29 0 -30 1 -30 50 l0 50 -40 0 -40 0 0 -50 c0
-47 -2 -50 -25 -50 -23 0 -25 3 -25 50 l0 50 -40 0 -40 0 0 -50 c0 -49 -1 -50
-30 -50 -29 0 -30 1 -30 50 l0 50 -40 0 -40 0 0 -50 c0 -47 -2 -50 -25 -50
l-25 0 0 100 0 100 295 0 295 0 0 -100z"/>
<path d="M1514 1192 c-6 -4 -14 -17 -18 -29 -5 -16 -15 -23 -32 -23 -41 0 -84
-51 -84 -98 0 -53 39 -102 81 -102 22 0 29 -5 29 -19 0 -16 -8 -20 -46 -23
-88 -6 -88 -70 -1 -76 40 -3 48 -7 53 -27 6 -25 36 -41 55 -30 5 4 14 18 19
31 7 17 17 24 36 24 15 0 38 12 56 30 28 28 30 36 25 78 -6 55 -41 92 -88 92
-22 0 -29 5 -29 19 0 17 8 20 51 23 96 6 96 70 0 76 -41 2 -51 7 -51 21 0 31
-31 50 -56 33z m-24 -152 c0 -11 -7 -20 -15 -20 -8 0 -15 9 -15 20 0 11 7 20
15 20 8 0 15 -9 15 -20z m120 -120 c0 -13 -7 -20 -20 -20 -13 0 -20 7 -20 20
0 13 7 20 20 20 13 0 20 -7 20 -20z"/>
<path d="M364 1099 c-16 -5 -48 -24 -70 -43 l-39 -34 22 -68 23 -68 -25 -26
c-20 -21 -25 -36 -25 -79 0 -29 5 -61 10 -71 8 -16 4 -28 -25 -65 -81 -107
-152 -309 -143 -407 7 -64 49 -126 108 -155 43 -22 53 -23 333 -23 245 0 293
2 320 16 75 38 117 104 117 182 0 107 -61 271 -143 385 -32 46 -34 51 -21 75
26 51 9 140 -30 155 -13 5 -13 14 4 63 27 77 26 87 -15 122 -64 57 -127 59
-199 9 l-29 -20 -46 25 c-57 32 -88 38 -127 27z m109 -114 c25 -19 52 -35 59
-35 7 0 33 16 57 35 45 36 77 43 111 25 18 -10 18 -12 -3 -70 l-22 -60 -145 2
-145 3 -19 52 c-15 43 -16 56 -6 68 21 25 64 17 113 -20z m265 -207 c-3 -23
-4 -23 -205 -26 l-203 -2 0 25 0 25 206 0 205 0 -3 -22z m15 -168 c107 -141
163 -331 122 -410 -29 -57 -47 -60 -345 -60 -298 0 -309 2 -344 60 -21 36 -20
70 4 164 23 92 78 199 132 261 l40 45 173 0 173 0 45 -60z"/>
<path d="M502 608 c-7 -7 -12 -17 -12 -24 0 -6 -14 -14 -32 -18 -52 -10 -78
-42 -78 -96 0 -58 20 -87 70 -100 29 -8 40 -16 40 -30 0 -16 -9 -19 -52 -22
-47 -3 -53 -6 -56 -26 -5 -35 15 -52 62 -52 33 0 43 -4 51 -22 6 -14 21 -24
37 -26 22 -3 29 2 33 20 5 18 17 27 49 36 35 9 47 18 61 48 11 23 15 47 11 67
-7 37 -42 77 -67 77 -31 0 -49 12 -49 31 0 16 8 19 50 19 40 0 51 4 60 21 18
32 -12 59 -65 59 -37 0 -44 3 -49 25 -7 27 -42 35 -64 13z m-12 -138 c0 -11
-7 -20 -15 -20 -8 0 -15 9 -15 20 0 11 7 20 15 20 8 0 15 -9 15 -20z m118
-127 c-5 -26 -38 -29 -38 -4 0 15 6 21 21 21 14 0 19 -5 17 -17z"/>
</g>
</svg>
