<?xml version="1.0" standalone="no"?>
<!DOCTYPE svg PUBLIC "-//W3C//DTD SVG 20010904//EN"
 "http://www.w3.org/TR/2001/REC-SVG-20010904/DTD/svg10.dtd">
<svg version="1.0" xmlns="http://www.w3.org/2000/svg"
 width="200.000000pt" height="200.000000pt" viewBox="0 0 200.000000 200.000000"
 preserveAspectRatio="xMidYMid meet">
<metadata>
Created by potrace 1.16, written by Peter Selinger 2001-2019
</metadata>
<g transform="translate(0.000000,200.000000) scale(0.100000,-0.100000)"
fill="#000000" stroke="none">
<path d="M410 1513 c-85 -80 -156 -154 -158 -164 -3 -17 4 -19 77 -19 l81 0 0
-305 c0 -254 2 -305 14 -305 8 0 17 7 20 16 8 20 8 598 0 618 -5 12 -21 16
-68 16 l-61 0 125 120 c69 65 129 119 133 119 5 1 67 -54 138 -121 l129 -123
-68 -5 -67 -5 0 -125 c0 -104 2 -125 15 -125 12 0 16 20 18 108 l3 107 79 0
c49 0 82 4 86 12 8 13 -307 328 -328 328 -7 -1 -83 -66 -168 -147z"/>
<path d="M1252 1482 c-89 -86 -162 -163 -162 -169 0 -10 24 -13 85 -13 l84 0
3 -112 c2 -93 6 -113 18 -113 12 0 15 22 18 124 2 93 -1 126 -10 133 -7 4 -38
8 -68 8 l-55 0 125 125 c69 69 127 125 130 125 3 0 62 -54 132 -120 l128 -120
-48 0 c-26 0 -53 -4 -60 -8 -16 -11 -13 -647 3 -647 6 0 11 111 13 308 l2 307
80 0 c61 0 80 3 80 14 0 14 -314 316 -327 316 -5 -1 -81 -72 -171 -158z"/>
<path d="M839 1107 c-136 -57 -225 -166 -251 -307 -31 -167 70 -353 232 -429
48 -22 68 -26 160 -26 97 0 110 2 170 31 83 40 151 107 192 192 31 62 33 74
33 167 0 92 -2 105 -33 170 -39 83 -108 152 -190 192 -48 23 -73 27 -157 30
-87 3 -107 1 -156 -20z m213 -18 c175 -37 290 -178 289 -357 0 -134 -69 -246
-193 -313 -60 -32 -68 -34 -163 -34 -82 0 -109 4 -147 22 -101 46 -173 131
-204 237 -55 196 76 405 279 445 60 12 80 12 139 0z"/>
<path d="M980 976 c0 -29 -4 -36 -19 -36 -31 0 -81 -65 -81 -106 0 -49 49 -98
107 -107 67 -11 96 -74 53 -117 -15 -15 -33 -20 -74 -20 -64 0 -86 -7 -86 -26
0 -10 14 -14 50 -14 l50 0 0 -36 c0 -28 3 -35 18 -32 10 2 18 14 20 32 2 17
18 42 37 60 41 39 52 76 35 117 -17 40 -52 66 -100 74 -63 11 -89 64 -54 113
13 19 24 22 78 22 66 0 94 14 75 37 -7 7 -24 13 -40 13 -23 0 -28 5 -31 27 -2
17 -10 29 -20 31 -15 3 -18 -4 -18 -32z"/>
</g>
</svg>
