<?xml version="1.0" standalone="no"?>
<!DOCTYPE svg PUBLIC "-//W3C//DTD SVG 20010904//EN"
 "http://www.w3.org/TR/2001/REC-SVG-20010904/DTD/svg10.dtd">
<svg version="1.0" xmlns="http://www.w3.org/2000/svg"
 width="200.000000pt" height="200.000000pt" viewBox="0 0 200.000000 200.000000"
 preserveAspectRatio="xMidYMid meet">
<metadata>
Created by potrace 1.16, written by Peter Selinger 2001-2019
</metadata>
<g transform="translate(0.000000,200.000000) scale(0.100000,-0.100000)"
fill="#000000" stroke="none">
<path d="M1167 1696 c-9 -7 -22 -27 -28 -45 -8 -22 -17 -31 -32 -31 -12 0 -39
-5 -59 -11 -57 -15 -57 -37 0 -172 49 -114 49 -116 30 -134 -13 -12 -17 -25
-13 -41 5 -19 -3 -35 -35 -73 -23 -27 -60 -80 -84 -118 l-42 -69 -39 39 c-110
111 -296 137 -442 62 -68 -34 -146 -117 -181 -190 -24 -51 -27 -70 -27 -158 0
-88 3 -107 27 -158 75 -160 250 -256 416 -227 77 13 124 31 168 65 l33 25 46
-49 c77 -82 205 -121 400 -121 247 0 395 66 455 203 76 171 -3 480 -176 693
-34 41 -43 60 -39 77 4 15 1 28 -9 36 -22 19 -21 24 29 141 24 58 45 112 45
121 0 26 -37 51 -84 56 -35 4 -47 10 -52 27 -3 11 -16 31 -27 44 -19 20 -29
22 -141 22 -85 -1 -126 -5 -139 -14z m269 -50 c3 -13 -6 -88 -20 -165 -14 -78
-26 -145 -26 -151 0 -6 -35 -10 -85 -10 -47 0 -85 4 -85 10 0 5 -11 75 -26
155 -14 80 -22 155 -19 165 6 18 16 20 130 20 123 0 125 0 131 -24z m-292 -83
c3 -10 12 -61 21 -113 9 -52 18 -103 21 -113 5 -15 1 -18 -23 -15 -25 3 -32
13 -76 116 -27 62 -46 119 -43 127 8 23 93 20 100 -2z m422 2 c4 -9 -15 -67
-41 -130 -45 -107 -50 -115 -75 -115 l-28 0 15 78 c7 42 18 101 24 130 l10 52
45 0 c31 0 46 -5 50 -15z m-56 -295 c0 -6 -75 -10 -205 -10 -130 0 -205 4
-205 10 0 6 75 10 205 10 130 0 205 -4 205 -10z m41 -102 c63 -68 125 -178
162 -286 23 -69 30 -111 34 -199 7 -133 -7 -182 -69 -249 -75 -82 -185 -109
-410 -101 -176 5 -248 24 -317 83 -62 54 -67 68 -35 109 l26 35 154 0 154 0 0
-84 c0 -52 4 -88 11 -92 7 -4 89 71 200 182 l189 189 -189 189 c-110 110 -193
186 -200 182 -7 -4 -11 -41 -11 -92 l0 -85 -157 3 c-152 3 -158 4 -155 23 5
29 85 153 130 203 l40 42 197 0 198 0 48 -52z m-858 -73 c132 -34 228 -138
256 -276 31 -150 -51 -311 -196 -385 -52 -26 -68 -29 -153 -29 -87 0 -100 3
-156 32 -210 110 -262 380 -107 553 92 102 221 140 356 105z m755 -493 l-153
-152 -3 67 c-2 38 -8 71 -15 75 -7 4 -80 8 -164 8 l-151 0 14 47 c18 59 18
157 0 216 l-14 47 148 0 c82 0 155 3 164 6 13 5 16 22 16 77 l0 72 155 -155
155 -155 -152 -153z"/>
<path d="M494 991 c-252 -115 -170 -494 107 -494 195 0 317 200 229 377 -45
88 -124 136 -230 136 -42 0 -79 -7 -106 -19z m179 -25 c93 -34 148 -112 148
-211 0 -184 -200 -288 -351 -182 -18 13 -15 14 32 9 36 -3 57 -11 68 -25 13
-15 23 -18 43 -13 15 3 27 13 27 21 0 11 12 15 43 15 23 0 53 7 65 16 22 15
23 21 19 108 -3 50 -6 96 -6 101 -1 6 2 27 5 48 9 53 -7 67 -72 67 -42 0 -54
3 -54 15 0 23 -46 41 -65 25 -8 -7 -15 -19 -15 -26 0 -10 -15 -14 -55 -14 -68
0 -79 -16 -71 -103 7 -83 7 -84 -2 -147 l-8 -55 -22 45 c-85 177 87 371 271
306z m2 -76 c52 0 55 -1 55 -25 0 -23 -3 -25 -49 -25 -41 0 -50 3 -54 21 -4
15 -12 20 -29 17 -19 -2 -24 -10 -26 -41 -2 -21 2 -45 9 -53 10 -12 2 -14 -50
-14 l-61 0 0 60 0 60 55 0 c46 0 56 3 66 22 l12 22 8 -22 c7 -19 16 -22 64
-22z m55 -195 l0 -75 -55 0 c-48 0 -57 -3 -64 -22 l-8 -22 -12 22 c-10 19 -20
22 -66 22 l-55 0 0 45 0 45 50 0 50 0 0 -39 c0 -31 4 -41 21 -46 33 -11 41 7
37 79 l-3 66 53 0 52 0 0 -75z"/>
</g>
</svg>
