<?xml version="1.0" standalone="no"?>
<!DOCTYPE svg PUBLIC "-//W3C//DTD SVG 20010904//EN"
 "http://www.w3.org/TR/2001/REC-SVG-20010904/DTD/svg10.dtd">
<svg version="1.0" xmlns="http://www.w3.org/2000/svg"
 width="200.000000pt" height="200.000000pt" viewBox="0 0 200.000000 200.000000"
 preserveAspectRatio="xMidYMid meet">
<metadata>
Created by potrace 1.16, written by Peter Selinger 2001-2019
</metadata>
<g transform="translate(0.000000,200.000000) scale(0.100000,-0.100000)"
fill="#000000" stroke="none">
<path d="M1198 1674 c-29 -9 -30 -39 -4 -189 15 -80 26 -150 26 -155 0 -6 37
-10 83 -10 l83 0 22 118 c30 161 34 205 23 222 -8 11 -34 15 -113 17 -57 1
-111 -1 -120 -3z"/>
<path d="M1044 1565 c-3 -8 16 -65 43 -127 44 -103 51 -113 76 -116 24 -3 28
0 23 15 -3 10 -12 61 -21 113 -23 136 -19 130 -71 130 -30 0 -46 -5 -50 -15z"/>
<path d="M1461 1528 c-6 -29 -17 -88 -24 -130 l-15 -78 28 0 c26 0 31 8 75
115 26 63 45 121 42 130 -5 10 -20 15 -51 15 l-45 0 -10 -52z"/>
<path d="M1100 1270 c0 -6 75 -10 205 -10 130 0 205 4 205 10 0 6 -75 10 -205
10 -130 0 -205 -4 -205 -10z"/>
<path d="M1074 1183 c-49 -52 -130 -176 -136 -208 -3 -19 3 -20 155 -23 l157
-3 0 85 c0 51 4 88 11 92 7 4 90 -72 200 -182 l189 -189 -189 -189 c-111 -111
-193 -186 -200 -182 -7 4 -11 40 -11 92 l0 84 -154 0 -154 0 -26 -35 c-32 -41
-27 -55 35 -109 56 -48 142 -74 274 -84 163 -13 299 4 386 48 49 25 103 88
124 144 28 72 17 243 -22 358 -39 112 -104 226 -170 294 l-51 54 -186 0 -186
0 -46 -47z"/>
<path d="M517 1099 c-65 -15 -133 -56 -180 -109 -155 -172 -102 -444 107 -553
56 -29 69 -32 156 -32 83 0 102 3 151 28 63 31 136 103 169 167 67 131 36 304
-72 406 -58 55 -87 71 -155 89 -63 16 -118 18 -176 4z m201 -115 c96 -48 149
-144 139 -254 -8 -93 -56 -164 -138 -205 -68 -35 -170 -35 -238 0 -155 78
-187 288 -63 413 77 76 201 96 300 46z"/>
<path d="M538 971 c-94 -30 -158 -117 -158 -211 0 -36 8 -71 22 -100 l22 -45
8 55 c9 63 9 64 2 147 -8 87 3 103 71 103 40 0 55 4 55 14 0 7 7 19 15 26 19
16 65 -2 65 -25 0 -12 12 -15 54 -15 65 0 81 -14 72 -67 -3 -21 -6 -42 -5 -48
0 -5 3 -51 6 -101 4 -87 3 -93 -19 -108 -12 -9 -42 -16 -65 -16 -31 0 -43 -4
-43 -15 0 -8 -12 -18 -27 -21 -20 -5 -30 -2 -43 13 -11 14 -32 22 -69 25 l-54
5 39 -23 c167 -101 367 41 332 236 -18 96 -99 168 -200 175 -29 3 -65 0 -80
-4z"/>
<path d="M591 912 c-10 -19 -20 -22 -66 -22 l-55 0 0 -60 0 -60 61 0 c52 0 60
2 50 14 -7 8 -11 32 -9 53 2 31 7 39 26 41 17 3 25 -2 29 -17 4 -18 13 -21 54
-21 50 0 63 8 53 34 -5 12 -20 16 -60 16 -47 0 -56 3 -63 22 l-8 22 -12 -22z"/>
<path d="M625 698 c0 -71 -1 -73 -25 -73 -22 0 -25 5 -28 43 l-3 42 -50 0 -49
0 0 -45 0 -45 55 0 c46 0 56 -3 66 -22 12 -22 12 -22 19 -3 6 16 19 21 66 25
l59 5 0 70 0 70 -55 3 -55 3 0 -73z"/>
<path d="M1290 992 l0 -72 -165 0 c-91 0 -165 -1 -165 -2 0 -2 7 -25 15 -52
19 -63 19 -159 0 -222 -8 -27 -15 -50 -15 -51 0 -2 74 -3 165 -3 l164 0 3 -70
3 -70 153 152 152 153 -155 155 -155 155 0 -73z"/>
</g>
</svg>
