<?xml version="1.0" standalone="no"?>
<!DOCTYPE svg PUBLIC "-//W3C//DTD SVG 20010904//EN"
 "http://www.w3.org/TR/2001/REC-SVG-20010904/DTD/svg10.dtd">
<svg version="1.0" xmlns="http://www.w3.org/2000/svg"
 width="200.000000pt" height="200.000000pt" viewBox="0 0 200.000000 200.000000"
 preserveAspectRatio="xMidYMid meet">
<metadata>
Created by potrace 1.16, written by Peter Selinger 2001-2019
</metadata>
<g transform="translate(0.000000,200.000000) scale(0.100000,-0.100000)"
fill="#000000" stroke="none">
<path d="M783 1803 c-9 -3 -13 -32 -13 -94 l0 -89 -81 0 c-129 0 -119 24 -119
-293 0 -199 3 -276 12 -285 17 -17 1169 -17 1186 0 7 7 12 44 12 95 l0 83 78
0 c129 0 122 -17 122 291 0 160 -4 268 -10 280 -10 18 -27 19 -593 18 -320 0
-588 -3 -594 -6z m1107 -283 l0 -200 -55 0 -55 0 0 134 c0 109 -3 138 -16 150
-14 14 -69 16 -460 16 l-444 0 0 50 0 50 515 0 515 0 0 -200z m-200 -200 l0
-200 -515 0 -515 0 0 200 0 200 515 0 515 0 0 -200z"/>
<path d="M1105 1483 c-100 -52 -132 -149 -82 -244 60 -114 223 -120 297 -12
20 29 25 49 25 98 0 52 -5 68 -28 99 -53 69 -145 95 -212 59z m133 -109 c69
-78 -49 -184 -123 -109 -29 28 -32 70 -9 103 33 48 92 50 132 6z"/>
<path d="M36 1004 c-14 -13 -16 -62 -16 -378 0 -339 1 -364 18 -379 16 -14 44
-17 176 -17 89 0 166 4 177 10 12 7 19 21 19 40 0 17 5 30 11 30 6 0 97 -26
203 -57 166 -50 202 -57 276 -58 l85 0 380 158 c209 87 394 167 411 178 62 38
82 134 45 215 -21 47 -50 70 -103 85 -31 8 -77 2 -270 -36 -155 -30 -234 -41
-237 -34 -7 23 -62 77 -88 87 -16 6 -172 27 -348 47 -176 20 -330 38 -342 41
-17 3 -23 11 -23 32 0 49 -11 52 -191 52 -139 0 -170 -3 -183 -16z m284 -374
l0 -300 -105 0 -105 0 0 300 0 300 105 0 105 0 0 -300z m445 174 c191 -22 319
-42 332 -50 31 -20 39 -58 19 -89 l-16 -25 -198 0 c-210 0 -242 -7 -242 -50 0
-43 33 -50 225 -50 101 0 198 5 220 11 41 12 105 69 105 95 0 8 4 14 9 14 5 0
103 18 217 40 244 47 277 49 298 18 19 -27 21 -78 4 -100 -7 -9 -184 -87 -393
-174 -466 -193 -416 -187 -722 -95 l-213 64 0 214 0 213 23 0 c12 0 162 -16
332 -36z"/>
</g>
</svg>
