<?xml version="1.0" standalone="no"?>
<!DOCTYPE svg PUBLIC "-//W3C//DTD SVG 20010904//EN"
 "http://www.w3.org/TR/2001/REC-SVG-20010904/DTD/svg10.dtd">
<svg version="1.0" xmlns="http://www.w3.org/2000/svg"
 width="200.000000pt" height="200.000000pt" viewBox="0 0 200.000000 200.000000"
 preserveAspectRatio="xMidYMid meet">
<metadata>
Created by potrace 1.16, written by Peter Selinger 2001-2019
</metadata>
<g transform="translate(0.000000,200.000000) scale(0.100000,-0.100000)"
fill="#000000" stroke="none">
<path d="M726 1868 c-9 -5 -16 -15 -16 -23 0 -11 58 -115 136 -241 12 -20 15
-21 66 -8 72 19 290 18 354 -1 27 -8 50 -15 50 -15 5 0 154 258 154 268 0 24
-32 28 -108 14 -63 -11 -94 -11 -174 -1 -79 10 -117 10 -195 -1 -83 -10 -110
-10 -175 2 -46 9 -83 11 -92 6z"/>
<path d="M1540 1793 c-78 -41 -113 -94 -118 -179 -6 -86 16 -141 74 -193 148
-130 374 -26 374 172 0 172 -178 280 -330 200z m134 -58 c6 -10 21 -27 32 -37
31 -25 36 -56 14 -76 -18 -15 -18 -17 -3 -34 24 -27 19 -64 -16 -103 -17 -20
-31 -40 -31 -45 0 -6 -11 -10 -25 -10 -14 0 -25 4 -25 10 0 5 -13 25 -30 43
-33 38 -41 87 -14 87 14 0 14 2 0 22 -25 35 -20 83 9 106 14 11 25 24 25 29 0
15 24 34 39 31 7 -2 19 -12 25 -23z"/>
<path d="M1624 1649 c-8 -13 13 -29 39 -29 15 0 16 3 7 20 -12 22 -35 26 -46
9z"/>
<path d="M1613 1556 c4 -10 7 -20 7 -22 0 -2 11 -4 25 -4 16 0 25 6 25 15 0 8
-6 15 -14 15 -8 0 -22 3 -32 7 -14 5 -16 3 -11 -11z"/>
<path d="M286 1720 c-100 -39 -166 -136 -166 -244 0 -81 17 -129 64 -183 108
-123 290 -124 399 -3 51 56 69 102 69 176 1 193 -188 324 -366 254z m130 -84
c3 -13 16 -29 29 -36 27 -14 50 -62 41 -85 -9 -24 -45 -18 -58 10 -9 21 -18
25 -42 23 -23 -2 -31 -8 -31 -23 0 -15 9 -21 35 -25 51 -9 76 -25 90 -60 11
-27 11 -37 -3 -65 -9 -18 -25 -36 -36 -40 -12 -3 -21 -14 -21 -24 0 -24 -25
-45 -45 -38 -8 4 -17 17 -21 31 -3 14 -14 28 -24 31 -27 9 -55 72 -40 91 18
21 39 17 52 -10 6 -14 17 -27 26 -31 24 -9 52 5 52 25 0 19 -8 23 -68 35 -23
5 -40 17 -53 38 -24 40 -18 73 20 108 16 15 32 36 36 48 9 30 53 29 61 -3z"/>
<path d="M903 1562 c-105 -37 -184 -114 -217 -209 -20 -59 -71 -538 -62 -586
l7 -38 43 6 c52 8 157 -16 193 -45 22 -17 41 -20 137 -20 120 0 167 -15 181
-59 9 -30 30 -27 189 23 130 41 141 46 158 77 10 19 21 48 24 66 6 34 -40 482
-57 548 -24 90 -107 187 -197 228 -40 19 -69 22 -197 24 -125 3 -159 0 -202
-15z m324 -218 c217 -104 214 -424 -5 -531 -76 -37 -183 -39 -252 -4 -111 57
-170 154 -170 279 1 216 227 352 427 256z"/>
<path d="M1045 1311 c-110 -28 -185 -123 -185 -233 1 -154 148 -266 293 -224
165 48 227 233 124 368 -52 68 -156 108 -232 89z m75 -36 c5 -14 16 -25 24
-25 24 0 67 -60 64 -89 -4 -38 -42 -41 -60 -5 -19 39 -41 50 -75 38 -22 -7
-28 -16 -28 -39 0 -31 8 -36 79 -50 44 -9 86 -57 86 -98 0 -39 -37 -91 -70
-102 -11 -4 -20 -15 -20 -26 0 -30 -48 -26 -60 6 -5 14 -14 25 -18 25 -5 0
-21 12 -36 27 -36 36 -34 88 4 88 17 0 26 -7 30 -25 8 -35 51 -48 84 -26 14 9
26 23 26 31 0 20 -40 45 -73 45 -45 0 -97 57 -97 107 0 34 6 46 45 81 25 22
45 46 45 51 0 22 41 11 50 -14z"/>
<path d="M1520 648 c-372 -115 -347 -105 -354 -142 -12 -64 -31 -71 -190 -71
l-141 0 0 25 0 25 124 3 c71 1 130 7 138 14 17 13 17 52 1 66 -7 6 -68 12
-135 14 -113 3 -123 5 -148 28 -21 20 -39 25 -94 28 -43 3 -77 -1 -92 -9 -36
-19 -109 -82 -109 -94 0 -5 25 -71 54 -145 l53 -135 314 0 314 0 214 130 c224
136 252 161 238 216 -19 74 -63 85 -187 47z"/>
<path d="M289 546 c-160 -62 -159 -62 -159 -85 0 -18 212 -321 233 -332 16 -9
227 56 237 72 9 13 6 24 -75 229 -58 148 -69 171 -89 169 -6 0 -72 -24 -147
-53z"/>
</g>
</svg>
