<?xml version="1.0" standalone="no"?>
<!DOCTYPE svg PUBLIC "-//W3C//DTD SVG 20010904//EN"
 "http://www.w3.org/TR/2001/REC-SVG-20010904/DTD/svg10.dtd">
<svg version="1.0" xmlns="http://www.w3.org/2000/svg"
 width="200.000000pt" height="200.000000pt" viewBox="0 0 200.000000 200.000000"
 preserveAspectRatio="xMidYMid meet">
<metadata>
Created by potrace 1.16, written by Peter Selinger 2001-2019
</metadata>
<g transform="translate(0.000000,200.000000) scale(0.100000,-0.100000)"
fill="#000000" stroke="none">
<path d="M726 1868 c-9 -5 -16 -15 -16 -22 0 -8 36 -75 80 -149 44 -75 80
-137 80 -140 0 -2 -22 -18 -49 -36 -57 -37 -116 -111 -136 -173 -14 -43 -65
-464 -65 -539 0 -22 6 -55 14 -73 l14 -33 -36 -13 c-20 -7 -60 -35 -89 -63
-44 -42 -55 -48 -68 -37 -12 10 -39 3 -152 -40 -167 -63 -173 -66 -173 -89 0
-18 212 -321 233 -332 15 -9 227 55 237 71 4 7 5 21 3 31 -5 17 9 18 323 21
l329 3 213 129 c247 150 266 171 227 246 -23 45 -65 51 -153 24 l-72 -23 34
40 c58 69 62 100 37 332 -29 266 -39 324 -60 373 -23 52 -83 119 -137 153
l-41 26 84 140 c45 77 83 145 83 152 0 25 -31 29 -108 15 -63 -11 -94 -11
-174 -1 -79 10 -117 10 -195 -1 -83 -10 -110 -10 -175 2 -46 9 -83 11 -92 6z
m557 -72 c48 -1 86 -4 85 -7 -2 -4 -30 -52 -62 -108 l-60 -101 -157 0 -157 0
-61 103 c-34 57 -61 105 -61 108 0 3 30 3 68 1 37 -1 87 2 112 7 25 6 81 7
125 4 44 -4 119 -7 168 -7z m1 -305 c62 -30 113 -82 138 -139 27 -61 82 -530
68 -582 -10 -36 -47 -78 -87 -99 -14 -7 -109 -11 -285 -11 -212 1 -267 3 -282
15 -10 8 -43 20 -72 26 -50 11 -55 15 -70 56 -16 41 -16 54 10 286 15 133 33
263 42 288 17 54 73 123 118 146 68 36 110 43 241 40 114 -2 136 -5 179 -26z
m-460 -884 c36 -25 45 -27 150 -27 118 0 136 -6 136 -46 0 -37 -21 -43 -151
-46 l-124 -3 0 -25 0 -25 141 0 c118 0 145 3 160 17 18 15 456 158 487 158 20
0 28 -25 14 -42 -7 -8 -100 -68 -207 -134 l-195 -119 -331 -3 -331 -3 -37 97
c-20 53 -36 102 -36 109 0 13 85 90 125 114 12 7 49 10 90 8 57 -2 77 -8 109
-30z m441 -36 c-95 -34 -92 -34 -97 -6 l-5 25 76 -1 76 0 -50 -18z m-790 -187
c32 -80 56 -146 54 -148 -2 -2 -35 -12 -72 -23 l-68 -21 -23 32 c-85 113 -157
219 -153 223 3 2 49 22 103 43 55 21 100 39 101 39 1 1 27 -64 58 -145z"/>
<path d="M1027 1370 c-90 -23 -169 -89 -208 -174 -25 -56 -25 -159 1 -228 23
-62 82 -124 150 -159 69 -35 176 -33 252 4 177 87 222 314 93 465 -64 74 -193
115 -288 92z m156 -73 c90 -38 141 -117 141 -217 0 -78 -25 -132 -81 -179
-154 -128 -383 -21 -383 179 0 90 51 169 135 213 37 20 144 22 188 4z"/>
<path d="M1070 1289 c0 -5 -20 -29 -45 -51 -39 -35 -45 -47 -45 -81 0 -50 52
-107 97 -107 33 0 73 -25 73 -45 0 -8 -12 -22 -26 -31 -33 -22 -76 -9 -84 26
-8 35 -54 36 -58 1 -5 -32 13 -64 49 -85 16 -9 29 -23 29 -30 0 -20 25 -37 44
-30 9 3 16 14 16 24 0 10 9 21 20 25 33 11 70 63 70 102 0 41 -42 89 -86 98
-71 14 -79 19 -79 50 0 23 6 32 28 39 32 12 56 1 73 -33 7 -13 17 -28 22 -33
16 -16 42 8 42 37 0 27 -45 85 -66 85 -8 0 -19 11 -24 25 -9 25 -50 36 -50 14z"/>
<path d="M1540 1793 c-34 -18 -66 -45 -85 -72 -27 -39 -30 -50 -30 -125 0 -73
3 -87 28 -124 15 -23 46 -54 69 -69 37 -25 51 -28 123 -28 72 0 86 3 123 28
65 42 96 97 100 176 7 134 -79 231 -212 239 -52 3 -69 0 -116 -25z m74 -55
c-4 -12 -17 -31 -30 -41 -28 -22 -32 -71 -8 -105 14 -20 14 -22 0 -22 -27 0
-19 -49 14 -87 49 -55 32 -73 -30 -30 -58 39 -75 71 -75 141 0 52 4 68 27 98
23 31 78 67 101 68 5 0 5 -10 1 -22z m129 -10 c44 -31 70 -93 64 -151 -5 -54
-28 -91 -77 -124 -63 -43 -79 -25 -29 32 35 40 40 76 14 105 -16 18 -16 20 -1
26 25 9 20 59 -8 81 -13 10 -27 29 -31 42 -6 21 -5 22 17 16 12 -4 35 -16 51
-27z m-73 -88 c9 -17 8 -20 -7 -20 -26 0 -47 16 -39 29 11 17 34 13 46 -9z
m-14 -80 c8 0 14 -7 14 -15 0 -9 -9 -15 -25 -15 -14 0 -25 2 -25 4 0 2 -3 12
-7 22 -5 14 -3 16 11 11 10 -4 24 -7 32 -7z"/>
<path d="M286 1720 c-100 -39 -166 -136 -166 -244 0 -81 17 -129 64 -183 108
-123 290 -124 399 -3 51 56 69 102 69 176 1 193 -188 324 -366 254z m165 -55
c52 -19 94 -56 121 -109 29 -56 22 -149 -14 -204 -40 -59 -121 -97 -193 -89
-178 18 -249 235 -118 359 31 30 93 56 134 57 15 1 46 -6 70 -14z"/>
<path d="M355 1639 c-4 -12 -21 -33 -38 -48 -53 -48 -33 -132 35 -146 60 -12
68 -16 68 -35 0 -20 -28 -34 -52 -25 -9 4 -20 17 -26 31 -13 27 -34 31 -52 10
-15 -19 13 -82 40 -91 10 -3 21 -17 24 -31 4 -14 13 -27 21 -31 20 -7 45 14
45 38 0 10 9 21 21 24 11 4 27 22 36 40 14 28 14 38 3 65 -14 35 -39 51 -90
60 -26 4 -35 10 -35 25 0 15 8 21 31 23 24 2 33 -2 42 -23 13 -28 49 -34 58
-10 9 23 -14 71 -41 85 -13 7 -26 23 -29 36 -8 32 -52 33 -61 3z"/>
</g>
</svg>
