<?xml version="1.0" standalone="no"?>
<!DOCTYPE svg PUBLIC "-//W3C//DTD SVG 20010904//EN"
 "http://www.w3.org/TR/2001/REC-SVG-20010904/DTD/svg10.dtd">
<svg version="1.0" xmlns="http://www.w3.org/2000/svg"
 width="200.000000pt" height="200.000000pt" viewBox="0 0 200.000000 200.000000"
 preserveAspectRatio="xMidYMid meet">
<metadata>
Created by potrace 1.16, written by Peter Selinger 2001-2019
</metadata>
<g transform="translate(0.000000,200.000000) scale(0.100000,-0.100000)"
fill="#000000" stroke="none">
<path d="M726 1868 c-9 -5 -16 -15 -16 -22 0 -8 36 -75 80 -149 44 -75 80
-137 80 -140 0 -2 -22 -18 -49 -36 -57 -37 -116 -111 -136 -173 -14 -43 -65
-464 -65 -539 0 -22 6 -55 14 -73 l14 -33 -36 -13 c-20 -7 -60 -35 -89 -63
-44 -42 -55 -48 -68 -37 -12 10 -39 3 -152 -40 -167 -63 -173 -66 -173 -89 0
-18 212 -321 233 -332 15 -9 227 55 237 71 4 7 5 21 3 31 -5 17 9 18 323 21
l329 3 213 129 c247 150 266 171 227 246 -23 45 -65 51 -153 24 l-72 -23 34
40 c58 69 62 100 37 332 -29 266 -39 324 -60 373 -23 52 -83 119 -137 153
l-41 26 84 140 c45 77 83 145 83 152 0 25 -31 29 -108 15 -63 -11 -94 -11
-174 -1 -79 10 -117 10 -195 -1 -83 -10 -110 -10 -175 2 -46 9 -83 11 -92 6z
m557 -72 c48 -1 86 -4 85 -7 -2 -4 -30 -52 -62 -108 l-60 -101 -157 0 -157 0
-61 103 c-34 57 -61 105 -61 108 0 3 30 3 68 1 37 -1 87 2 112 7 25 6 81 7
125 4 44 -4 119 -7 168 -7z m1 -305 c62 -30 113 -82 138 -139 27 -61 82 -530
68 -582 -10 -36 -47 -78 -87 -99 -14 -7 -109 -11 -285 -11 -212 1 -267 3 -282
15 -10 8 -43 20 -72 26 -50 11 -55 15 -70 56 -16 41 -16 54 10 286 15 133 33
263 42 288 17 54 73 123 118 146 68 36 110 43 241 40 114 -2 136 -5 179 -26z
m-460 -884 c36 -25 45 -27 150 -27 118 0 136 -6 136 -46 0 -37 -21 -43 -151
-46 l-124 -3 0 -25 0 -25 141 0 c118 0 145 3 160 17 18 15 456 158 487 158 20
0 28 -25 14 -42 -7 -8 -100 -68 -207 -134 l-195 -119 -331 -3 -331 -3 -37 97
c-20 53 -36 102 -36 109 0 13 85 90 125 114 12 7 49 10 90 8 57 -2 77 -8 109
-30z m441 -36 c-95 -34 -92 -34 -97 -6 l-5 25 76 -1 76 0 -50 -18z"/>
<path d="M1027 1370 c-90 -23 -169 -89 -208 -174 -25 -56 -25 -159 1 -228 23
-62 82 -124 150 -159 69 -35 176 -33 252 4 177 87 222 314 93 465 -64 74 -193
115 -288 92z m93 -95 c5 -14 16 -25 24 -25 24 0 67 -60 64 -89 -4 -38 -42 -41
-60 -5 -19 39 -41 50 -75 38 -22 -7 -28 -16 -28 -39 0 -31 8 -36 79 -50 44 -9
86 -57 86 -98 0 -39 -37 -91 -70 -102 -11 -4 -20 -15 -20 -26 0 -30 -48 -26
-60 6 -5 14 -14 25 -18 25 -5 0 -21 12 -36 27 -36 36 -34 88 4 88 17 0 26 -7
30 -25 8 -35 51 -48 84 -26 14 9 26 23 26 31 0 20 -40 45 -73 45 -45 0 -97 57
-97 107 0 34 6 46 45 81 25 22 45 46 45 51 0 22 41 11 50 -14z"/>
<path d="M1540 1793 c-34 -18 -66 -45 -85 -72 -27 -39 -30 -50 -30 -125 0 -73
3 -87 28 -124 15 -23 46 -54 69 -69 37 -25 51 -28 123 -28 72 0 86 3 123 28
65 42 96 97 100 176 7 134 -79 231 -212 239 -52 3 -69 0 -116 -25z m134 -58
c6 -10 21 -27 32 -37 31 -25 36 -56 14 -76 -18 -15 -18 -17 -3 -34 24 -27 19
-64 -16 -103 -17 -20 -31 -40 -31 -45 0 -6 -11 -10 -25 -10 -14 0 -25 4 -25
10 0 5 -13 25 -30 43 -33 38 -41 87 -14 87 14 0 14 2 0 22 -25 35 -20 83 9
106 14 11 25 24 25 29 0 15 24 34 39 31 7 -2 19 -12 25 -23z"/>
<path d="M1624 1649 c-8 -13 13 -29 39 -29 15 0 16 3 7 20 -12 22 -35 26 -46
9z"/>
<path d="M1613 1556 c4 -10 7 -20 7 -22 0 -2 11 -4 25 -4 16 0 25 6 25 15 0 8
-6 15 -14 15 -8 0 -22 3 -32 7 -14 5 -16 3 -11 -11z"/>
<path d="M286 1720 c-100 -39 -166 -136 -166 -244 0 -81 17 -129 64 -183 108
-123 290 -124 399 -3 52 57 70 103 70 176 -1 194 -189 324 -367 254z m130 -84
c3 -13 16 -29 29 -36 27 -14 50 -62 41 -85 -9 -24 -45 -18 -58 10 -9 21 -18
25 -42 23 -23 -2 -31 -8 -31 -23 0 -15 9 -21 35 -25 51 -9 76 -25 90 -60 11
-27 11 -37 -3 -65 -9 -18 -25 -36 -36 -40 -12 -3 -21 -14 -21 -24 0 -24 -25
-45 -45 -38 -8 4 -17 17 -21 31 -3 14 -14 28 -24 31 -27 9 -55 72 -40 91 18
21 39 17 52 -10 6 -14 17 -27 26 -31 24 -9 52 5 52 25 0 19 -8 23 -68 35 -23
5 -40 17 -53 38 -24 40 -18 73 20 108 16 15 32 36 36 48 9 30 53 29 61 -3z"/>
</g>
</svg>
