<?xml version="1.0" standalone="no"?>
<!DOCTYPE svg PUBLIC "-//W3C//DTD SVG 20010904//EN"
 "http://www.w3.org/TR/2001/REC-SVG-20010904/DTD/svg10.dtd">
<svg version="1.0" xmlns="http://www.w3.org/2000/svg"
 width="200.000000pt" height="200.000000pt" viewBox="0 0 200.000000 200.000000"
 preserveAspectRatio="xMidYMid meet">
<metadata>
Created by potrace 1.16, written by Peter Selinger 2001-2019
</metadata>
<g transform="translate(0.000000,200.000000) scale(0.100000,-0.100000)"
fill="#000000" stroke="none">
<path d="M880 1862 c-233 -61 -378 -297 -329 -534 28 -132 123 -256 244 -317
l60 -31 -346 0 -346 0 -21 -23 c-20 -21 -22 -34 -22 -133 0 -60 4 -116 10
-124 5 -9 5 -19 -1 -26 -6 -8 -8 -59 -6 -131 6 -142 6 -114 0 -257 -4 -112 -3
-120 18 -142 l22 -24 407 0 c302 0 409 3 418 12 9 9 15 9 24 0 9 -9 116 -12
418 -12 l407 0 22 24 c21 22 22 30 18 142 -3 66 -5 125 -5 132 1 16 1 248 0
265 0 6 2 65 5 131 4 112 3 120 -18 142 l-22 24 -346 0 -346 1 66 34 c78 40
166 130 202 208 58 121 58 273 1 393 -33 70 -128 172 -192 207 -101 55 -226
69 -342 39z m270 -51 c111 -43 197 -128 242 -241 31 -78 31 -222 0 -300 -45
-112 -130 -197 -242 -242 -44 -17 -76 -22 -155 -22 -93 -1 -106 2 -165 31
-123 60 -194 142 -232 267 -67 221 66 457 292 521 72 20 188 14 260 -14z
m-175 -986 l0 -110 -405 0 -405 0 -3 99 c-1 55 0 106 2 113 5 11 80 13 408 11
l403 -3 0 -110z m860 0 l0 -110 -405 0 -405 0 -3 99 c-1 55 0 106 2 113 5 11
80 13 408 11 l403 -3 0 -110z m-871 -161 c24 -9 24 -219 0 -228 -20 -8 -768
-8 -788 0 -13 5 -16 25 -16 114 0 77 4 110 13 113 18 8 772 8 791 1z m860 0
c24 -9 24 -219 0 -228 -20 -8 -768 -8 -788 0 -13 5 -16 25 -16 114 0 77 4 110
13 113 18 8 772 8 791 1z m-849 -389 l0 -110 -405 0 -405 0 -3 99 c-1 55 0
106 2 113 5 11 80 13 408 11 l403 -3 0 -110z m860 0 l0 -110 -405 0 -405 0 -3
99 c-1 55 0 106 2 113 5 11 80 13 408 11 l403 -3 0 -110z"/>
<path d="M987 1744 c-4 -4 -7 -22 -7 -41 0 -18 -5 -33 -11 -33 -27 0 -80 -35
-99 -65 -48 -77 -4 -170 93 -199 15 -5 17 -19 17 -101 0 -52 -3 -95 -7 -95
-25 0 -74 43 -79 69 -6 31 -29 48 -39 30 -21 -33 43 -121 100 -135 19 -5 25
-13 27 -42 4 -51 32 -51 36 0 3 32 8 38 36 48 83 27 120 122 74 190 -12 19
-42 44 -65 55 l-42 20 -1 93 c0 77 3 92 16 92 22 0 74 -55 74 -78 0 -24 29
-37 36 -17 16 40 -31 105 -92 127 -28 10 -33 17 -36 47 -3 33 -17 49 -31 35z
m-7 -208 l0 -95 -30 11 c-90 31 -72 169 23 177 4 1 7 -42 7 -93z m73 -147 c50
-26 71 -84 47 -130 -9 -16 -58 -49 -75 -49 -3 0 -5 43 -5 95 0 52 3 95 6 95 3
0 15 -5 27 -11z"/>
</g>
</svg>
