<?xml version="1.0" standalone="no"?>
<!DOCTYPE svg PUBLIC "-//W3C//DTD SVG 20010904//EN"
 "http://www.w3.org/TR/2001/REC-SVG-20010904/DTD/svg10.dtd">
<svg version="1.0" xmlns="http://www.w3.org/2000/svg"
 width="200.000000pt" height="200.000000pt" viewBox="0 0 200.000000 200.000000"
 preserveAspectRatio="xMidYMid meet">
<metadata>
Created by potrace 1.16, written by Peter Selinger 2001-2019
</metadata>
<g transform="translate(0.000000,200.000000) scale(0.100000,-0.100000)"
fill="#000000" stroke="none">
<path d="M852 1880 c-109 -29 -187 -74 -272 -160 -87 -86 -131 -163 -160 -276
-48 -187 3 -399 130 -537 l50 -55 0 -364 c0 -372 2 -388 38 -388 8 0 93 48
188 106 l174 106 174 -106 c95 -58 180 -106 188 -106 36 0 38 16 38 388 l0
364 51 56 c208 233 195 587 -31 812 -86 87 -164 132 -276 160 -96 25 -197 25
-292 0z m267 -75 c260 -62 437 -326 393 -587 -47 -280 -319 -477 -594 -430
-418 72 -582 580 -283 877 131 130 308 181 484 140z m-261 -1086 c134 -34 288
-17 411 46 l51 25 0 -285 c0 -157 -3 -285 -6 -285 -4 0 -73 40 -154 90 -81 49
-153 90 -160 90 -7 0 -79 -40 -160 -90 -81 -49 -150 -90 -154 -90 -3 0 -6 128
-6 285 l0 285 51 -25 c28 -15 85 -35 127 -46z"/>
<path d="M900 1687 c-140 -41 -234 -130 -280 -268 -61 -178 33 -397 205 -478
200 -94 434 -13 530 182 127 259 -47 558 -333 573 -46 2 -95 -1 -122 -9z m190
-83 c95 -28 158 -85 203 -182 33 -70 30 -189 -5 -257 -70 -136 -204 -204 -349
-177 -113 21 -212 109 -245 220 -73 242 153 468 396 396z"/>
<path d="M960 1520 c0 -11 -17 -35 -37 -54 -34 -31 -38 -39 -38 -85 0 -41 5
-55 29 -80 18 -18 45 -34 69 -38 47 -10 67 -34 51 -60 -16 -26 -51 -28 -66 -4
-9 15 -23 21 -51 21 -38 0 -39 -1 -33 -27 4 -16 22 -43 41 -61 19 -18 35 -41
35 -52 0 -17 7 -20 40 -20 33 0 40 3 40 20 0 11 17 35 38 54 33 31 37 39 37
85 0 41 -5 55 -29 80 -18 18 -45 34 -69 38 -47 10 -67 34 -51 61 16 25 51 27
66 3 9 -15 23 -21 51 -21 38 0 39 1 33 28 -4 15 -22 42 -41 60 -19 18 -35 41
-35 52 0 17 -7 20 -40 20 -33 0 -40 -3 -40 -20z"/>
</g>
</svg>
