<?xml version="1.0" standalone="no"?>
<!DOCTYPE svg PUBLIC "-//W3C//DTD SVG 20010904//EN"
 "http://www.w3.org/TR/2001/REC-SVG-20010904/DTD/svg10.dtd">
<svg version="1.0" xmlns="http://www.w3.org/2000/svg"
 width="200.000000pt" height="200.000000pt" viewBox="0 0 200.000000 200.000000"
 preserveAspectRatio="xMidYMid meet">
<metadata>
Created by potrace 1.16, written by Peter Selinger 2001-2019
</metadata>
<g transform="translate(0.000000,200.000000) scale(0.100000,-0.100000)"
fill="#000000" stroke="none">
<path d="M785 1880 c-518 -81 -856 -574 -740 -1079 104 -448 539 -746 992
-677 250 38 477 182 612 390 28 43 51 81 51 85 0 3 -27 21 -59 38 l-59 33 -32
-58 c-18 -31 -69 -93 -114 -138 -91 -91 -185 -149 -311 -191 -70 -23 -97 -26
-210 -27 -95 0 -147 5 -194 18 -257 71 -461 270 -533 521 -33 116 -33 308 0
415 79 252 279 446 533 516 45 13 101 18 189 18 145 1 221 -18 355 -87 96 -50
234 -180 284 -269 l32 -57 59 32 c33 18 60 35 60 38 0 4 -22 41 -50 83 -123
188 -336 336 -549 382 -88 18 -241 25 -316 14z"/>
<path d="M820 1495 c0 -53 -1 -55 -39 -74 -53 -28 -116 -102 -131 -156 -19
-67 -8 -164 24 -219 47 -80 141 -136 228 -136 30 0 46 -7 69 -29 37 -37 38
-79 3 -120 -53 -63 -149 -28 -156 57 l-3 37 -87 3 -88 3 0 -53 c1 -92 59 -186
143 -229 36 -19 37 -21 37 -74 l0 -55 90 0 90 0 0 54 c0 53 1 54 44 80 186
109 177 379 -15 477 -21 10 -67 23 -101 28 -48 6 -67 14 -85 35 -75 88 46 199
128 117 21 -22 29 -39 29 -65 l0 -36 90 0 90 0 0 43 c0 94 -61 197 -141 238
-38 19 -39 21 -39 74 l0 55 -90 0 -90 0 0 -55z"/>
<path d="M1407 1142 l-87 -87 0 -55 0 -55 88 -88 87 -87 58 23 57 22 0 58 0
57 195 0 195 0 0 70 0 70 -195 0 -195 0 0 58 0 58 -52 20 c-29 10 -55 20 -58
22 -3 1 -45 -37 -93 -86z"/>
</g>
</svg>
