<?xml version="1.0" standalone="no"?>
<!DOCTYPE svg PUBLIC "-//W3C//DTD SVG 20010904//EN"
 "http://www.w3.org/TR/2001/REC-SVG-20010904/DTD/svg10.dtd">
<svg version="1.0" xmlns="http://www.w3.org/2000/svg"
 width="200.000000pt" height="200.000000pt" viewBox="0 0 200.000000 200.000000"
 preserveAspectRatio="xMidYMid meet">
<metadata>
Created by potrace 1.16, written by Peter Selinger 2001-2019
</metadata>
<g transform="translate(0.000000,200.000000) scale(0.100000,-0.100000)"
fill="#000000" stroke="none">
<path d="M346 1668 c-79 -139 -82 -154 -28 -160 26 -3 28 -9 62 -153 28 -117
39 -151 53 -153 10 -2 21 5 26 20 7 16 10 -34 10 -154 1 -97 -2 -183 -5 -192
-5 -13 -23 -16 -95 -16 -76 0 -92 -3 -109 -20 -11 -11 -20 -28 -20 -38 0 -11
-9 -27 -20 -37 -11 -10 -20 -25 -20 -34 0 -26 29 -61 51 -61 25 0 25 -31 -1
-48 -22 -13 -29 -76 -10 -87 6 -4 8 -16 4 -27 -4 -13 2 -28 17 -44 22 -23 28
-24 154 -24 115 0 134 2 148 18 10 10 17 24 17 31 0 9 9 11 33 5 126 -28 263
-18 354 26 121 60 153 150 107 307 l-6 23 323 2 324 3 3 33 c3 26 8 32 26 32
12 0 30 6 39 13 16 11 17 45 15 407 l-3 395 -622 3 -623 2 0 -41 c0 -56 -16
-47 -63 34 -21 37 -45 67 -52 67 -8 0 -48 -59 -89 -132z m138 -18 c25 -44 46
-81 46 -84 0 -2 -9 -6 -19 -9 -15 -4 -25 -29 -47 -123 l-28 -119 -27 112 c-31
126 -34 133 -55 133 -9 0 -14 4 -12 8 5 13 91 162 93 162 1 0 23 -36 49 -80z
m1266 -315 c0 -316 -2 -365 -15 -365 -13 0 -15 47 -17 343 l-3 342 -562 3
c-555 2 -563 2 -563 22 0 20 7 20 580 20 l580 0 0 -365z m-75 -80 l0 -360
-310 -3 c-283 -2 -311 -1 -322 15 -7 9 -13 20 -13 25 0 4 104 9 232 10 l232 3
8 35 c11 41 41 70 74 70 13 0 28 9 34 19 6 11 10 90 10 186 0 96 -4 175 -10
186 -6 10 -21 19 -34 19 -33 0 -63 29 -74 70 l-8 35 -399 0 -399 0 -11 -39
c-12 -42 -37 -66 -70 -66 -35 0 -45 -20 -45 -92 0 -54 -3 -68 -15 -68 -19 0
-19 -19 1 -87 13 -44 14 -60 4 -84 -7 -16 -10 -36 -6 -44 3 -9 -4 -35 -17 -58
l-22 -42 -3 228 c-3 258 2 291 40 295 43 5 52 25 28 64 -11 18 -20 36 -20 41
0 4 251 6 558 5 l557 -3 0 -360z m-206 235 c12 -39 49 -70 86 -70 13 0 15 -23
15 -164 l0 -163 -30 -6 c-38 -8 -69 -39 -77 -77 l-5 -30 -228 0 -227 0 -11 25
c-7 14 -12 27 -12 29 0 2 23 -3 51 -11 66 -20 122 -11 189 30 74 45 113 114
113 200 0 234 -294 331 -433 144 -26 -34 -42 -47 -60 -47 -14 0 -58 -16 -99
-35 -40 -19 -84 -35 -97 -35 -23 0 -24 3 -24 70 0 62 2 70 19 70 29 0 78 46
84 80 l7 30 363 0 364 0 12 -40z m-302 -51 c67 -25 123 -109 123 -184 0 -75
-56 -159 -123 -184 -75 -29 -177 -2 -207 54 -16 28 -15 34 4 94 l21 63 -33 27
c-38 32 -38 34 -12 71 41 58 153 87 227 59z m-262 -151 c29 -13 30 -19 9 -81
l-16 -47 -138 0 -138 0 -11 31 c-16 47 -15 49 32 49 25 0 69 13 107 30 70 32
114 37 155 18z m13 -185 c3 -10 -33 -13 -157 -13 -148 0 -174 4 -154 24 4 3
74 5 157 4 109 -2 150 -6 154 -15z m35 -132 c46 -85 82 -181 91 -241 5 -36 2
-54 -16 -90 -37 -73 -128 -110 -274 -110 -83 0 -184 23 -184 41 0 6 11 25 25
41 18 21 24 37 19 52 -7 26 -32 46 -56 46 -25 0 -23 28 3 49 38 30 22 101 -22
101 -27 0 -24 12 22 101 l41 79 157 0 156 0 38 -69z m-415 -168 c3 -10 -26
-13 -122 -13 -106 0 -126 2 -126 15 0 13 18 15 122 13 86 -2 123 -7 126 -15z
m-40 -75 c-3 -9 -40 -14 -126 -16 -104 -2 -122 0 -122 13 0 13 20 15 126 15
96 0 125 -3 122 -12z m70 -75 c3 -10 -26 -13 -122 -13 -116 0 -138 4 -119 24
13 12 236 2 241 -11z m-48 -78 c0 -13 -21 -15 -125 -15 -104 0 -125 2 -125 15
0 13 21 15 125 15 104 0 125 -2 125 -15z m18 -72 c3 -10 -26 -13 -122 -13
-106 0 -126 2 -126 15 0 13 18 15 122 13 86 -2 123 -7 126 -15z"/>
<path d="M1373 1274 c-21 -9 -15 -33 10 -39 13 -4 48 -5 78 -3 46 3 54 6 54
23 0 18 -7 20 -65 22 -36 1 -71 -1 -77 -3z"/>
<path d="M1070 1388 c-5 -13 -20 -35 -32 -50 -21 -27 -21 -29 -5 -62 11 -24
25 -36 47 -41 59 -13 47 -60 -12 -48 -21 4 -28 2 -28 -10 0 -9 5 -19 11 -22 5
-4 14 -18 19 -31 11 -29 36 -32 45 -5 3 10 14 26 25 36 25 23 26 76 2 98 -9 8
-30 20 -45 26 -19 8 -27 17 -25 29 4 17 20 20 50 7 29 -11 31 18 6 58 -27 42
-45 46 -58 15z"/>
<path d="M747 1004 c-4 -4 -7 -18 -7 -31 0 -12 -5 -23 -10 -23 -6 0 -22 -11
-35 -25 -50 -49 -20 -138 50 -151 41 -7 58 -25 53 -55 -5 -33 -31 -46 -61 -30
-14 7 -30 10 -36 7 -18 -12 -12 -32 13 -46 15 -7 26 -23 28 -39 4 -34 32 -34
36 0 2 15 13 31 26 39 25 13 46 49 46 78 0 9 -9 32 -20 49 -15 25 -29 34 -60
39 -44 7 -65 32 -55 64 8 25 50 37 70 20 17 -14 45 -6 45 13 0 7 -11 20 -24
27 -15 7 -26 24 -28 38 -3 26 -18 38 -31 26z"/>
<path d="M1191 676 c-39 -68 -71 -130 -71 -139 0 -10 11 -17 32 -19 l33 -3 36
-148 c36 -147 48 -175 67 -163 6 3 27 76 47 161 l37 155 29 0 c16 0 32 6 35
13 8 21 -138 267 -158 267 -11 0 -41 -43 -87 -124z m141 -29 c45 -79 46 -82
25 -87 -18 -5 -26 -22 -47 -113 -14 -58 -28 -109 -31 -112 -3 -3 -13 30 -22
73 -30 136 -36 152 -58 152 -12 0 -19 4 -17 8 10 25 92 162 97 162 3 0 27 -38
53 -83z"/>
<path d="M1579 728 c-23 -40 -55 -94 -70 -121 -39 -64 -38 -85 3 -89 l32 -3
37 -153 c20 -84 39 -155 42 -158 20 -20 36 16 66 143 18 76 35 146 37 156 4
11 15 17 34 17 16 0 32 5 35 11 11 16 -137 269 -157 269 -11 0 -32 -27 -59
-72z m111 -83 c22 -37 40 -71 40 -75 0 -4 -9 -10 -19 -13 -15 -4 -24 -26 -41
-103 -13 -55 -26 -105 -29 -112 -4 -7 -17 32 -30 85 -32 137 -30 133 -52 133
-10 0 -19 2 -19 5 0 3 21 42 46 86 28 49 50 77 56 71 5 -5 27 -39 48 -77z"/>
</g>
</svg>
