<?xml version="1.0" standalone="no"?>
<!DOCTYPE svg PUBLIC "-//W3C//DTD SVG 20010904//EN"
 "http://www.w3.org/TR/2001/REC-SVG-20010904/DTD/svg10.dtd">
<svg version="1.0" xmlns="http://www.w3.org/2000/svg"
 width="200.000000pt" height="200.000000pt" viewBox="0 0 200.000000 200.000000"
 preserveAspectRatio="xMidYMid meet">
<metadata>
Created by potrace 1.16, written by Peter Selinger 2001-2019
</metadata>
<g transform="translate(0.000000,200.000000) scale(0.100000,-0.100000)"
fill="#000000" stroke="none">
<path d="M350 1659 c-56 -102 -56 -99 -31 -99 21 0 20 4 60 -153 10 -43 21
-81 23 -83 3 -2 15 42 28 99 28 121 34 135 60 139 17 3 14 12 -31 91 -28 48
-54 87 -57 87 -4 0 -27 -37 -52 -81z"/>
<path d="M570 1690 c0 -20 7 -20 595 -20 l595 0 0 -365 c0 -358 0 -365 20
-365 20 0 20 7 20 385 l0 385 -615 0 c-608 0 -615 0 -615 -20z"/>
<path d="M530 1625 c0 -2 9 -19 20 -37 30 -50 27 -68 -14 -68 -34 0 -35 -2
-46 -52 -7 -34 -10 -137 -8 -283 l3 -230 23 42 c12 23 22 57 22 76 0 18 5 38
11 44 8 8 5 29 -11 77 -23 69 -21 96 5 96 12 0 15 15 15 79 l0 79 33 7 c52 11
74 31 82 72 4 21 12 41 18 45 7 4 195 8 419 8 315 0 409 -3 415 -12 4 -7 13
-29 18 -48 10 -33 24 -44 88 -69 l27 -11 -2 -202 -3 -202 -47 -14 c-45 -12
-49 -16 -61 -60 l-14 -47 -247 -3 c-135 -1 -246 -5 -246 -8 0 -3 5 -14 10 -25
10 -18 25 -19 345 -19 l335 0 -2 383 -3 382 -592 3 c-326 1 -593 0 -593 -3z"/>
<path d="M710 1515 c0 -37 -31 -74 -75 -91 l-46 -17 3 -66 c3 -59 5 -66 25
-69 12 -2 59 13 104 32 46 20 94 36 108 36 19 0 35 12 61 47 85 114 209 143
332 76 94 -51 150 -165 129 -264 -6 -27 -17 -62 -25 -77 -21 -40 -86 -99 -128
-117 -47 -19 -148 -19 -194 0 l-36 15 19 -33 19 -32 239 0 239 0 7 29 c11 38
45 74 80 81 l29 7 -2 171 c-3 168 -4 172 -25 175 -31 5 -72 47 -79 82 l-6 30
-389 0 c-345 0 -389 -2 -389 -15z m840 -275 c0 -18 -7 -20 -79 -20 -44 0 -83
5 -86 10 -14 22 10 30 86 30 72 0 79 -2 79 -20z"/>
<path d="M1003 1424 c-29 -14 -61 -39 -72 -57 l-20 -32 37 -31 37 -32 -23 -69
c-20 -64 -21 -72 -7 -100 20 -40 83 -68 151 -67 170 3 262 205 153 337 -63 77
-165 97 -256 51z m116 -39 c2 -10 12 -26 24 -35 29 -24 13 -43 -28 -36 -26 5
-34 3 -39 -11 -8 -20 17 -43 45 -43 23 0 49 -37 49 -70 0 -15 -11 -37 -25 -50
-14 -13 -25 -32 -25 -42 0 -11 -7 -18 -20 -18 -13 0 -20 7 -20 19 0 10 -10 25
-22 33 -33 22 -18 52 23 43 22 -5 34 -3 40 6 10 17 -8 39 -32 39 -56 0 -80 92
-34 128 14 11 25 26 25 34 0 33 32 35 39 3z"/>
<path d="M736 1259 c-42 -22 -75 -31 -112 -33 -58 -1 -57 1 -33 -64 9 -22 11
-22 155 -20 l147 3 19 55 19 55 -22 18 c-34 27 -103 21 -173 -14z"/>
<path d="M575 1089 c-16 -24 18 -29 176 -27 138 3 164 5 164 18 0 13 -26 15
-167 18 -114 2 -169 -1 -173 -9z"/>
<path d="M534 929 c-36 -72 -43 -94 -32 -100 7 -5 16 -9 20 -9 15 0 38 -33 38
-56 0 -13 -9 -33 -20 -44 -28 -28 -25 -43 13 -60 26 -12 33 -22 35 -51 2 -29
-2 -41 -22 -57 -32 -25 -33 -36 -1 -50 84 -38 249 -39 352 0 155 57 168 158
52 398 l-58 120 -165 0 -166 0 -46 -91z m234 22 c2 -13 16 -34 30 -47 21 -17
24 -25 15 -35 -9 -9 -18 -9 -42 0 -43 18 -73 0 -69 -42 3 -28 9 -33 53 -49 61
-21 85 -49 85 -95 0 -28 -8 -43 -34 -68 -19 -17 -36 -43 -38 -56 -5 -35 -42
-33 -46 3 -2 15 -14 34 -28 42 -45 30 -26 66 22 41 24 -12 32 -12 49 -1 24 16
31 59 13 73 -7 5 -32 15 -55 22 -82 23 -99 133 -27 172 14 7 24 21 24 34 0 12
3 25 7 29 14 14 38 0 41 -23z"/>
<path d="M250 765 c0 -13 21 -15 130 -15 109 0 130 2 130 15 0 13 -21 15 -130
15 -109 0 -130 -2 -130 -15z"/>
<path d="M207 694 c-19 -20 4 -24 129 -24 104 0 135 3 132 13 -5 13 -248 24
-261 11z"/>
<path d="M1241 603 c-50 -86 -50 -88 -29 -93 20 -5 27 -21 52 -130 16 -69 31
-120 33 -114 2 5 16 61 31 124 23 97 31 115 49 120 21 5 21 8 -25 87 -26 45
-50 84 -54 88 -3 3 -29 -34 -57 -82z"/>
<path d="M1621 603 c-49 -85 -50 -88 -29 -93 20 -5 26 -22 52 -130 l29 -125
32 125 c26 106 34 125 53 130 20 5 19 8 -26 87 -26 45 -50 84 -54 88 -3 3 -29
-34 -57 -82z"/>
<path d="M280 605 c0 -13 18 -15 133 -13 174 4 172 22 -3 26 -112 2 -130 0
-130 -13z"/>
<path d="M230 525 c0 -13 21 -15 130 -15 109 0 130 2 130 15 0 13 -21 15 -130
15 -109 0 -130 -2 -130 -15z"/>
<path d="M250 445 c0 -13 21 -15 130 -15 109 0 130 2 130 15 0 13 -21 15 -130
15 -109 0 -130 -2 -130 -15z"/>
</g>
</svg>
