<?xml version="1.0" standalone="no"?>
<!DOCTYPE svg PUBLIC "-//W3C//DTD SVG 20010904//EN"
 "http://www.w3.org/TR/2001/REC-SVG-20010904/DTD/svg10.dtd">
<svg version="1.0" xmlns="http://www.w3.org/2000/svg"
 width="200.000000pt" height="200.000000pt" viewBox="0 0 200.000000 200.000000"
 preserveAspectRatio="xMidYMid meet">
<metadata>
Created by potrace 1.16, written by Peter Selinger 2001-2019
</metadata>
<g transform="translate(0.000000,200.000000) scale(0.100000,-0.100000)"
fill="#000000" stroke="none">
<path d="M707 1944 c-4 -4 -7 -58 -7 -119 0 -89 3 -115 15 -125 29 -24 36 3
33 126 -3 98 -6 119 -18 122 -9 1 -19 0 -23 -4z"/>
<path d="M1606 1935 c-3 -9 -6 -63 -6 -120 0 -80 3 -105 15 -115 29 -24 36 3
33 126 -3 100 -6 119 -19 122 -9 2 -19 -4 -23 -13z"/>
<path d="M565 1867 c-3 -7 -5 -54 -3 -103 3 -81 5 -89 23 -89 19 0 20 7 20
100 0 87 -2 100 -18 103 -9 2 -19 -3 -22 -11z"/>
<path d="M857 1873 c-4 -3 -7 -51 -7 -105 0 -97 0 -99 23 -96 21 3 22 8 25 91
2 57 -1 94 -9 103 -13 15 -22 18 -32 7z"/>
<path d="M1465 1867 c-3 -7 -5 -54 -3 -103 3 -81 5 -89 23 -89 19 0 20 7 20
100 0 87 -2 100 -18 103 -9 2 -19 -3 -22 -11z"/>
<path d="M1757 1873 c-4 -3 -7 -51 -7 -105 0 -97 0 -99 23 -96 21 3 22 8 25
91 2 57 -1 94 -9 103 -13 15 -22 18 -32 7z"/>
<path d="M1216 1694 c-3 -9 -6 -68 -6 -133 0 -129 12 -168 44 -142 13 11 16
36 16 136 0 136 -4 155 -30 155 -10 0 -21 -7 -24 -16z"/>
<path d="M655 1641 c-93 -24 -172 -87 -214 -173 -26 -51 -31 -73 -31 -133 0
-137 56 -232 172 -290 62 -30 80 -35 144 -35 82 0 86 3 99 75 15 86 96 191
180 236 43 23 45 26 39 59 -25 146 -150 259 -294 266 -36 2 -78 0 -95 -5z m93
-119 c2 -12 16 -29 31 -37 28 -14 41 -33 41 -61 0 -20 -20 -17 -47 8 l-23 21
0 -51 c0 -47 3 -53 30 -67 35 -18 50 -43 50 -83 0 -33 -31 -78 -60 -87 -10 -3
-20 -16 -22 -28 -4 -32 -38 -35 -38 -3 0 15 -7 27 -18 30 -27 9 -65 53 -57 65
9 16 35 13 41 -4 4 -8 12 -15 20 -15 10 0 14 13 14 44 0 39 -4 47 -30 62 -75
45 -71 145 8 175 12 5 22 17 22 27 0 38 33 41 38 4z"/>
<path d="M682 1438 c-15 -15 -15 -51 0 -66 21 -21 28 -13 28 33 0 46 -7 54
-28 33z"/>
<path d="M750 1255 c0 -48 12 -58 31 -24 8 16 8 28 0 45 -17 38 -31 28 -31
-21z"/>
<path d="M1554 1641 c-124 -32 -224 -138 -240 -254 l-6 -44 56 -31 c31 -18 72
-53 95 -82 41 -52 81 -143 81 -185 0 -31 29 -39 118 -33 113 8 205 70 257 175
25 50 30 70 30 138 0 95 -29 168 -91 230 -74 72 -206 110 -300 86z m94 -119
c2 -12 16 -29 32 -37 32 -17 50 -43 43 -62 -7 -20 -31 -15 -43 7 -18 34 -30
22 -30 -30 0 -45 3 -51 30 -65 35 -18 50 -43 50 -83 0 -33 -31 -78 -60 -87
-10 -3 -20 -16 -22 -28 -4 -32 -38 -35 -38 -3 0 15 -7 27 -18 30 -27 9 -65 53
-57 65 9 16 35 13 41 -4 4 -8 12 -15 20 -15 10 0 14 14 14 48 0 42 -3 48 -29
60 -16 7 -36 28 -46 48 -15 33 -15 37 2 72 10 20 30 43 46 50 15 7 27 21 27
31 0 38 33 40 38 3z"/>
<path d="M1582 1438 c-22 -22 -8 -78 20 -78 4 0 8 20 8 45 0 46 -7 54 -28 33z"/>
<path d="M1650 1255 c0 -48 12 -58 31 -24 8 16 8 28 0 45 -17 38 -31 28 -31
-21z"/>
<path d="M1101 1591 c-8 -5 -11 -34 -9 -92 3 -76 5 -84 23 -84 18 0 20 8 23
86 2 66 0 88 -11 92 -8 3 -19 2 -26 -2z"/>
<path d="M1063 1299 c-75 -29 -144 -95 -178 -170 -24 -55 -27 -70 -23 -143 4
-61 11 -93 30 -131 120 -232 450 -233 568 -1 31 61 35 78 35 146 0 68 -4 85
-35 146 -75 146 -244 212 -397 153z m135 -107 c2 -12 16 -29 32 -37 40 -21 54
-49 33 -66 -13 -12 -18 -11 -31 9 -23 34 -32 26 -32 -28 0 -44 3 -52 24 -60
74 -28 73 -131 -1 -169 -12 -6 -23 -21 -25 -33 -4 -33 -38 -37 -38 -4 0 15 -7
27 -18 30 -27 9 -65 53 -57 65 9 16 30 14 45 -4 21 -26 30 -17 30 33 0 44 -3
49 -34 66 -74 40 -67 137 12 167 12 5 22 17 22 27 0 38 33 41 38 4z"/>
<path d="M1132 1108 c-15 -15 -15 -51 0 -66 21 -21 28 -13 28 33 0 46 -7 54
-28 33z"/>
<path d="M1200 925 c0 -48 12 -58 31 -24 8 16 8 28 0 45 -17 38 -31 28 -31
-21z"/>
<path d="M475 741 c-39 -10 -68 -25 -259 -134 -87 -50 -160 -96 -163 -103 -4
-11 135 -261 165 -296 13 -16 18 -15 66 9 91 47 123 41 334 -65 194 -98 240
-112 311 -92 23 6 215 110 425 232 480 277 456 261 456 297 0 38 -44 91 -75
91 -31 0 -366 -193 -408 -235 l-35 -35 -221 0 c-214 0 -221 1 -221 20 0 19 7
20 200 20 124 0 208 4 223 11 51 23 63 104 22 144 -23 24 -29 25 -160 25
l-136 0 -177 56 c-181 57 -281 73 -347 55z"/>
</g>
</svg>
