<?xml version="1.0" standalone="no"?>
<!DOCTYPE svg PUBLIC "-//W3C//DTD SVG 20010904//EN"
 "http://www.w3.org/TR/2001/REC-SVG-20010904/DTD/svg10.dtd">
<svg version="1.0" xmlns="http://www.w3.org/2000/svg"
 width="200.000000pt" height="200.000000pt" viewBox="0 0 200.000000 200.000000"
 preserveAspectRatio="xMidYMid meet">
<metadata>
Created by potrace 1.16, written by Peter Selinger 2001-2019
</metadata>
<g transform="translate(0.000000,200.000000) scale(0.100000,-0.100000)"
fill="#000000" stroke="none">
<path d="M717 1944 c-4 -4 -7 -61 -7 -126 0 -118 0 -119 23 -116 21 3 22 6 22
123 0 100 -3 120 -15 123 -9 1 -19 0 -23 -4z"/>
<path d="M1605 1938 c-3 -8 -4 -63 -3 -124 3 -105 4 -109 26 -112 l23 -3 -3
123 c-3 108 -5 123 -21 126 -9 2 -19 -3 -22 -10z"/>
<path d="M574 1867 c-3 -8 -4 -54 -2 -103 3 -81 5 -89 23 -89 18 0 20 8 23 80
2 44 0 90 -3 102 -6 25 -33 31 -41 10z"/>
<path d="M855 1867 c-3 -7 -5 -54 -3 -103 3 -81 5 -89 23 -89 19 0 20 7 20
100 0 87 -2 100 -18 103 -9 2 -19 -3 -22 -11z"/>
<path d="M1465 1867 c-3 -7 -5 -54 -3 -103 3 -81 5 -89 23 -89 19 0 20 7 20
100 0 87 -2 100 -18 103 -9 2 -19 -3 -22 -11z"/>
<path d="M1746 1865 c-8 -21 -8 -158 0 -179 3 -9 15 -16 25 -16 18 0 20 7 17
102 -3 85 -6 103 -19 106 -9 2 -19 -4 -23 -13z"/>
<path d="M1227 1744 c-11 -12 -8 -282 3 -289 6 -4 18 -1 26 6 22 18 16 282 -6
287 -9 1 -19 0 -23 -4z"/>
<path d="M1096 1625 c-3 -9 -6 -47 -6 -85 0 -49 4 -71 15 -80 27 -23 36 2 33
91 -2 68 -6 84 -19 87 -9 2 -19 -4 -23 -13z"/>
<path d="M688 1609 c-107 -15 -194 -78 -244 -176 -25 -50 -29 -69 -29 -138 0
-65 5 -90 26 -135 56 -118 159 -184 289 -185 41 0 89 4 105 8 29 7 31 6 43
-36 22 -73 79 -137 156 -177 61 -31 77 -35 145 -35 150 1 264 87 315 238 4 14
11 16 33 10 16 -5 62 -8 103 -8 59 1 87 6 131 26 185 86 244 316 123 482 -38
52 -107 101 -164 117 -94 26 -218 3 -294 -55 -43 -33 -93 -106 -106 -157 -10
-36 -12 -37 -38 -26 -35 14 -169 14 -204 0 -25 -10 -27 -9 -38 26 -19 61 -78
139 -128 170 -83 52 -135 63 -224 51z m167 -77 c73 -38 145 -131 145 -189 0
-10 -18 -35 -40 -55 -49 -47 -88 -121 -98 -190 -7 -50 -9 -53 -47 -64 -168
-51 -331 58 -352 234 -12 105 46 207 148 261 59 30 70 33 134 29 44 -3 85 -13
110 -26z m866 13 c177 -61 234 -293 106 -432 -60 -66 -108 -87 -192 -88 -38 0
-84 6 -101 13 -27 12 -32 19 -37 61 -8 68 -42 135 -93 184 -24 23 -44 50 -44
60 0 59 78 158 155 193 59 28 140 31 206 9z m-462 -231 c61 -18 132 -77 164
-139 31 -57 31 -183 0 -241 -58 -109 -183 -170 -298 -144 -127 28 -215 137
-215 266 0 120 82 229 197 260 64 17 90 17 152 -2z"/>
<path d="M717 1504 c-4 -4 -7 -15 -7 -25 0 -10 -9 -20 -20 -24 -30 -10 -60
-54 -60 -90 0 -36 30 -80 60 -90 16 -5 20 -15 20 -51 0 -45 -12 -57 -28 -27
-12 21 -42 10 -42 -17 0 -12 14 -29 35 -42 19 -13 35 -32 37 -43 4 -29 42 -27
46 3 2 13 14 28 26 33 28 13 56 59 56 92 0 29 -44 87 -66 87 -10 0 -14 13 -14
45 0 48 6 55 25 28 7 -10 19 -14 29 -10 27 10 15 49 -21 72 -17 11 -33 29 -35
40 -3 20 -28 32 -41 19z m-7 -145 c0 -36 -2 -40 -15 -29 -15 13 -20 51 -8 63
15 16 23 4 23 -34z m76 -153 c-10 -40 -26 -31 -26 16 0 39 1 41 16 26 11 -11
14 -25 10 -42z"/>
<path d="M1607 1504 c-4 -4 -7 -15 -7 -25 0 -10 -9 -21 -21 -24 -26 -9 -59
-62 -59 -96 0 -31 32 -75 60 -84 16 -5 20 -15 20 -52 0 -45 0 -46 -20 -28 -21
19 -50 14 -50 -9 0 -16 22 -41 50 -56 10 -5 20 -20 22 -32 4 -31 42 -31 46 0
2 12 7 22 12 22 4 0 22 13 39 29 51 48 38 127 -26 160 -18 9 -23 20 -23 51 0
42 9 50 30 25 14 -17 36 -20 45 -5 9 15 -21 59 -50 72 -13 6 -25 20 -27 32 -3
21 -28 33 -41 20z m-7 -146 c0 -39 -1 -41 -16 -26 -11 11 -14 25 -10 42 10 40
26 31 26 -16z m78 -146 c-5 -45 -28 -38 -28 8 0 37 2 41 16 30 8 -7 14 -25 12
-38z"/>
<path d="M1167 1273 c-4 -3 -7 -14 -7 -24 0 -10 -14 -26 -31 -34 -17 -10 -37
-31 -45 -51 -14 -32 -13 -39 3 -72 10 -20 30 -43 46 -50 23 -11 27 -19 27 -58
0 -46 -9 -54 -30 -29 -14 17 -36 20 -45 5 -10 -16 13 -49 45 -65 18 -9 30 -24
30 -35 0 -10 5 -22 10 -25 15 -9 40 13 40 35 0 9 11 22 26 28 30 14 58 74 48
105 -8 28 -44 67 -61 67 -9 0 -13 15 -13 52 l0 51 25 -23 c19 -18 28 -21 37
-12 16 16 -5 59 -37 74 -14 6 -25 19 -25 28 0 27 -28 49 -43 33z m-7 -143 c0
-43 -13 -52 -30 -20 -8 14 -8 26 0 40 17 32 30 23 30 -20z m80 -150 c0 -3 -7
-15 -15 -26 -13 -18 -14 -16 -14 26 0 42 1 44 14 26 8 -11 15 -23 15 -26z"/>
<path d="M502 789 c-23 -4 -46 -10 -50 -12 -89 -48 -385 -223 -393 -233 -12
-15 -4 -34 16 -34 7 0 84 41 171 91 257 147 248 143 339 142 68 0 104 -8 239
-52 156 -50 161 -51 282 -51 70 0 134 -5 148 -11 47 -22 56 -88 18 -131 -13
-16 -37 -18 -203 -18 -194 0 -219 -3 -219 -26 0 -27 40 -34 188 -34 203 0 235
5 275 45 41 42 342 215 372 215 32 0 67 -46 63 -83 -3 -28 -29 -45 -373 -245
-203 -118 -392 -223 -420 -234 -78 -31 -115 -22 -309 77 -149 76 -178 87 -220
87 -73 -2 -192 -66 -179 -97 8 -21 23 -19 84 15 85 47 107 43 303 -56 183 -92
231 -105 310 -85 53 13 801 442 834 477 16 18 22 37 22 71 0 39 -5 50 -39 84
-35 35 -60 45 -100 39 -8 -1 -80 -39 -160 -85 -141 -81 -146 -83 -155 -62 -36
95 -62 107 -231 107 -126 0 -135 1 -250 40 -191 64 -272 77 -363 59z"/>
</g>
</svg>
