<?xml version="1.0" standalone="no"?>
<!DOCTYPE svg PUBLIC "-//W3C//DTD SVG 20010904//EN"
 "http://www.w3.org/TR/2001/REC-SVG-20010904/DTD/svg10.dtd">
<svg version="1.0" xmlns="http://www.w3.org/2000/svg"
 width="200.000000pt" height="200.000000pt" viewBox="0 0 200.000000 200.000000"
 preserveAspectRatio="xMidYMid meet">
<metadata>
Created by potrace 1.16, written by Peter Selinger 2001-2019
</metadata>
<g transform="translate(0.000000,200.000000) scale(0.100000,-0.100000)"
fill="#000000" stroke="none">
<path d="M1574 1991 c-97 -25 -187 -99 -232 -190 -23 -49 -27 -68 -27 -146 0
-109 20 -159 92 -236 71 -77 135 -103 248 -103 102 0 155 19 219 75 192 168
155 458 -74 574 -57 29 -167 42 -226 26z m126 -114 c0 -27 5 -35 30 -44 23 -9
30 -18 30 -37 0 -29 -7 -31 -61 -14 -51 15 -92 -1 -87 -35 2 -16 20 -30 67
-53 35 -17 73 -41 83 -54 37 -46 14 -125 -46 -154 -19 -9 -38 -16 -44 -16 -12
0 -22 -24 -22 -51 0 -14 -7 -19 -25 -19 -22 0 -25 4 -25 35 0 30 -4 35 -32 43
-28 7 -34 13 -36 41 -3 31 -2 33 20 26 50 -17 124 -17 137 -1 25 30 5 62 -53
86 -73 29 -101 60 -101 112 0 33 6 45 33 69 18 16 41 29 51 29 14 0 21 10 25
35 6 29 11 35 31 35 22 0 25 -5 25 -33z"/>
<path d="M875 1870 c-352 -56 -633 -309 -726 -655 -29 -105 -31 -284 -5 -400
10 -44 21 -83 24 -87 6 -5 116 18 130 28 2 1 -3 26 -12 55 -8 30 -17 71 -19
92 l-6 37 120 0 119 0 0 -35 c0 -20 7 -71 16 -113 11 -57 21 -81 37 -92 63
-42 130 -118 159 -179 40 -84 50 -211 24 -292 -10 -28 -14 -55 -9 -59 11 -10
136 -38 203 -45 86 -10 246 11 345 44 124 43 225 104 322 194 187 178 277 387
275 642 -1 151 -27 271 -57 268 -19 -1 -107 -23 -113 -28 -1 -1 4 -29 12 -61
8 -32 17 -74 20 -91 l6 -33 -120 0 -120 0 0 35 c0 20 -7 71 -16 113 -11 58
-21 81 -37 91 -53 35 -140 135 -164 189 -34 74 -43 204 -20 283 9 30 13 57 9
60 -4 3 -38 14 -76 23 -84 21 -240 28 -321 16z m73 -324 c2 -125 0 -147 -13
-152 -19 -8 -196 15 -215 26 -10 6 -6 22 21 66 40 66 177 216 193 211 7 -2 12
-54 14 -151z m194 86 c65 -67 148 -184 148 -208 0 -14 -146 -38 -201 -32 l-34
3 -3 130 c-3 131 1 175 17 175 4 0 37 -30 73 -68z m-409 36 c-4 -7 -36 -54
-70 -105 -33 -51 -63 -97 -65 -103 -4 -14 -128 30 -128 45 0 13 48 59 100 98
76 55 185 99 163 65z m-266 -289 c43 -17 79 -32 81 -34 1 -1 -6 -36 -18 -76
-11 -41 -23 -104 -27 -141 l-6 -68 -117 0 -118 0 5 43 c10 81 97 307 119 307
2 0 38 -14 81 -31z m288 -79 c33 -5 89 -14 125 -18 l65 -7 0 -105 0 -105 -167
-3 -168 -2 0 37 c0 37 34 195 46 215 3 5 13 7 22 4 10 -3 44 -10 77 -16z m593
-7 c15 -27 42 -158 42 -197 l0 -36 -165 0 -165 0 0 110 0 110 58 1 c31 1 86 7
122 14 92 17 98 17 108 -2z m-400 -457 c1 -55 -1 -103 -6 -108 -9 -9 -168 -29
-246 -32 l-40 -1 -18 58 c-10 32 -21 87 -24 123 l-7 64 169 -2 169 -3 3 -99z
m442 68 c0 -42 -38 -212 -49 -218 -4 -3 -50 2 -102 10 -52 8 -114 18 -139 22
l-45 7 -3 94 c-1 52 -1 100 2 108 4 10 43 13 171 13 l165 0 0 -36z m344 -1
c-9 -64 -44 -174 -75 -233 -47 -91 -37 -86 -125 -55 -44 16 -81 30 -83 31 -2
2 6 39 18 83 12 44 24 109 28 145 l6 66 118 0 118 0 -5 -37z m-787 -438 c2
-78 -1 -147 -7 -155 -8 -12 -20 -4 -70 45 -65 64 -163 200 -157 219 4 11 150
35 202 32 l30 -1 2 -140z m271 123 c34 -5 64 -14 67 -18 13 -21 -187 -270
-217 -270 -4 0 -8 70 -8 156 l0 155 48 -6 c26 -3 75 -11 110 -17z m275 -72
c20 -9 37 -20 37 -25 0 -31 -209 -171 -254 -171 -23 0 -21 4 23 60 22 27 54
75 72 106 35 62 41 63 122 30z"/>
<path d="M265 681 c-93 -25 -190 -103 -232 -190 -25 -49 -28 -67 -27 -146 0
-69 5 -101 22 -138 30 -66 104 -142 171 -174 48 -24 68 -27 146 -27 78 0 98 3
146 27 66 32 142 108 172 175 31 66 31 206 0 274 -52 115 -172 197 -297 203
-39 3 -84 1 -101 -4z m125 -116 c0 -27 4 -35 18 -35 25 0 42 -20 42 -48 0 -21
-4 -23 -22 -18 -59 18 -95 18 -112 1 -28 -28 -15 -48 53 -81 78 -37 101 -64
101 -114 0 -48 -30 -86 -80 -101 -34 -10 -41 -17 -46 -46 -5 -26 -11 -33 -30
-33 -21 0 -24 5 -24 35 0 25 -5 37 -17 41 -37 11 -48 22 -51 49 -3 26 -2 27
25 20 99 -25 143 -15 143 32 0 20 -10 29 -57 49 -84 37 -103 58 -103 114 0 54
25 87 71 97 23 4 30 12 35 39 5 27 11 34 30 34 21 0 24 -5 24 -35z"/>
</g>
</svg>
