<?xml version="1.0" standalone="no"?>
<!DOCTYPE svg PUBLIC "-//W3C//DTD SVG 20010904//EN"
 "http://www.w3.org/TR/2001/REC-SVG-20010904/DTD/svg10.dtd">
<svg version="1.0" xmlns="http://www.w3.org/2000/svg"
 width="200.000000pt" height="200.000000pt" viewBox="0 0 200.000000 200.000000"
 preserveAspectRatio="xMidYMid meet">
<metadata>
Created by potrace 1.16, written by Peter Selinger 2001-2019
</metadata>
<g transform="translate(0.000000,200.000000) scale(0.100000,-0.100000)"
fill="#000000" stroke="none">
<path d="M149 1873 c-10 -2 -20 -14 -23 -26 -11 -41 -7 -1557 4 -1578 10 -18
26 -19 465 -19 l454 0 16 -29 c23 -46 75 -80 141 -92 36 -7 148 -9 289 -7 254
4 265 7 322 72 49 55 56 90 50 260 -7 225 -52 357 -158 463 l-49 50 37 107
c36 103 37 108 20 121 -16 11 -25 10 -60 -6 -52 -23 -90 -24 -155 -3 -47 15
-54 15 -92 0 -74 -29 -70 -41 -70 207 l0 222 -90 105 c-50 58 -104 117 -120
133 l-30 27 -468 -1 c-257 -1 -474 -3 -483 -6z m923 -180 l3 -118 103 -3 102
-3 0 -195 c0 -183 -1 -196 -17 -189 -10 5 -33 10 -50 13 -29 4 -33 1 -33 -19
0 -13 13 -67 30 -118 l29 -95 -48 -51 c-52 -55 -92 -125 -110 -190 -5 -22 -17
-107 -26 -190 -8 -82 -18 -167 -21 -187 l-6 -38 -419 0 -419 0 0 670 0 669
380 3 c398 3 419 6 394 46 -10 16 -44 17 -393 20 l-381 2 0 45 0 45 440 0 439
0 3 -117z m129 -14 l41 -49 -56 0 -56 0 0 61 c0 71 2 70 71 -12z m381 -567
c32 2 58 1 58 -1 0 -3 -10 -35 -22 -73 -20 -61 -25 -69 -57 -80 -20 -7 -70
-13 -111 -13 -41 0 -91 6 -111 13 -32 11 -37 19 -57 80 -12 38 -22 70 -22 73
0 3 31 3 69 1 47 -3 77 0 96 11 25 13 33 13 63 0 22 -9 58 -13 94 -11z m-245
-217 c74 -19 180 -19 239 1 l46 16 37 -30 c42 -33 103 -148 127 -237 21 -79
31 -310 15 -358 -7 -20 -28 -50 -47 -67 l-35 -30 -260 0 c-288 0 -303 3 -339
63 -25 41 -25 87 -1 295 22 186 45 249 114 320 22 23 42 42 44 42 1 0 28 -7
60 -15z"/>
<path d="M254 1547 c-2 -7 -3 -76 -2 -152 l3 -140 150 0 150 0 0 150 0 150
-148 3 c-115 2 -149 0 -153 -11z m246 -61 c0 -8 -8 -12 -22 -9 -16 3 -33 -6
-57 -31 -32 -33 -35 -34 -57 -19 -19 12 -27 13 -39 3 -13 -11 -15 -7 -15 29
l0 41 95 0 c73 0 95 -3 95 -14z m0 -111 l0 -65 -95 0 -95 0 0 42 0 42 33 -32
c18 -18 39 -32 47 -32 8 0 35 25 60 55 25 29 46 54 48 54 1 1 2 -28 2 -64z"/>
<path d="M637 1493 c-4 -3 -7 -17 -7 -30 l0 -23 180 0 c152 0 182 2 186 15 4
8 1 22 -6 30 -10 12 -44 15 -180 15 -91 0 -170 -3 -173 -7z"/>
<path d="M648 1373 c-27 -7 -23 -51 5 -58 12 -3 91 -4 176 -3 136 3 155 5 165
21 9 15 7 21 -8 33 -15 11 -54 14 -170 13 -83 -1 -159 -3 -168 -6z"/>
<path d="M262 1178 c-8 -8 -12 -56 -12 -150 0 -126 2 -138 19 -148 25 -13 247
-13 272 0 17 10 19 22 19 148 0 94 -4 142 -12 150 -17 17 -269 17 -286 0z
m238 -73 c0 -13 -3 -13 -21 -3 -18 12 -24 9 -55 -26 -32 -37 -36 -38 -58 -26
-14 7 -32 10 -40 7 -13 -5 -16 1 -16 28 l0 35 95 0 c78 0 95 -3 95 -15z m0
-105 l0 -60 -95 0 -95 0 0 40 0 41 31 -36 c17 -19 37 -35 44 -35 8 0 35 25 60
55 26 30 49 55 51 55 2 0 4 -27 4 -60z"/>
<path d="M648 1123 c-27 -7 -23 -51 5 -58 12 -3 91 -4 176 -3 136 3 155 5 165
21 9 15 7 21 -8 33 -15 11 -54 14 -170 13 -83 -1 -159 -3 -168 -6z"/>
<path d="M634 985 c-4 -8 -4 -22 0 -30 8 -22 354 -22 362 0 4 8 1 22 -6 30
-18 22 -348 22 -356 0z"/>
<path d="M257 804 c-4 -4 -7 -69 -7 -144 0 -105 3 -140 14 -149 9 -8 59 -11
152 -9 l139 3 0 150 0 150 -146 3 c-80 1 -148 -1 -152 -4z m243 -68 c0 -8 -8
-12 -22 -9 -16 3 -33 -6 -57 -31 -32 -33 -35 -34 -57 -19 -19 12 -27 13 -39 3
-13 -11 -15 -7 -15 29 l0 41 95 0 c73 0 95 -3 95 -14z m0 -111 l0 -65 -95 0
-95 0 0 42 0 42 33 -32 c18 -18 39 -32 47 -32 8 0 35 25 60 55 25 29 46 54 48
54 1 1 2 -28 2 -64z"/>
<path d="M634 735 c-4 -8 -4 -22 0 -30 8 -22 354 -22 362 0 4 8 1 22 -6 30
-18 22 -348 22 -356 0z"/>
<path d="M647 623 c-13 -3 -17 -12 -15 -31 l3 -27 174 0 c157 0 175 2 185 18
9 15 7 21 -8 33 -15 11 -54 14 -170 13 -83 -1 -159 -3 -169 -6z"/>
<path d="M1360 841 c-76 -24 -155 -96 -192 -176 -34 -75 -32 -181 5 -257 34
-70 101 -131 173 -158 66 -24 122 -25 195 -4 172 51 262 229 204 405 -24 72
-110 159 -179 182 -51 17 -161 21 -206 8z m195 -72 c218 -102 179 -423 -57
-470 -75 -15 -155 9 -215 64 -133 122 -86 352 84 413 58 20 136 17 188 -7z"/>
<path d="M1426 764 c-3 -9 -6 -24 -6 -34 0 -10 -10 -20 -23 -24 -41 -10 -77
-52 -77 -89 0 -49 43 -86 111 -96 67 -9 103 -27 95 -48 -3 -8 -6 -16 -6 -18 0
-2 -15 -8 -32 -14 -43 -14 -90 -1 -104 28 -17 34 -29 42 -47 35 -19 -7 -22
-45 -7 -75 6 -10 29 -28 50 -39 30 -15 40 -27 40 -44 0 -13 7 -29 15 -36 23
-19 45 -4 45 29 0 25 7 33 43 50 63 30 81 76 52 130 -15 30 -76 61 -120 61
-33 0 -75 20 -75 36 0 20 33 34 78 34 34 0 44 -6 70 -37 26 -32 32 -36 46 -24
9 7 16 22 16 31 0 26 -45 77 -74 84 -17 4 -25 15 -30 41 -6 28 -11 35 -30 35
-13 0 -27 -7 -30 -16z"/>
</g>
</svg>
