<?xml version="1.0" standalone="no"?>
<!DOCTYPE svg PUBLIC "-//W3C//DTD SVG 20010904//EN"
 "http://www.w3.org/TR/2001/REC-SVG-20010904/DTD/svg10.dtd">
<svg version="1.0" xmlns="http://www.w3.org/2000/svg"
 width="200.000000pt" height="200.000000pt" viewBox="0 0 200.000000 200.000000"
 preserveAspectRatio="xMidYMid meet">
<metadata>
Created by potrace 1.16, written by Peter Selinger 2001-2019
</metadata>
<g transform="translate(0.000000,200.000000) scale(0.100000,-0.100000)"
fill="#000000" stroke="none">
<path d="M855 1905 c-16 -9 -39 -26 -50 -39 -11 -12 -39 -28 -62 -34 -49 -15
-99 -67 -108 -114 -5 -25 5 -63 39 -156 25 -68 46 -127 46 -132 0 -6 -10 -10
-21 -10 -12 0 -39 -17 -60 -39 -36 -35 -39 -43 -39 -92 0 -54 0 -54 -79 -136
-206 -212 -246 -490 -108 -758 76 -149 220 -265 373 -301 121 -28 283 -3 382
60 l37 23 36 -24 c19 -13 60 -28 90 -35 222 -46 403 178 311 386 -27 59 -75
111 -127 136 l-45 22 0 62 c0 157 -73 327 -192 448 -56 57 -75 83 -71 97 8 32
-16 88 -53 120 -19 17 -34 35 -34 40 0 6 21 65 46 133 34 93 44 131 39 156 -9
47 -59 99 -108 114 -23 6 -54 24 -69 40 -47 49 -115 62 -173 33z m103 -81 c26
-18 27 -44 11 -227 -14 -171 -13 -167 -54 -167 -41 0 -42 2 -50 145 -3 61 -8
133 -11 161 -4 41 -1 55 16 77 24 30 55 34 88 11z m-174 -209 l6 -130 -40 104
c-22 57 -40 108 -40 113 0 16 51 61 60 52 4 -5 10 -67 14 -139z m306 135 c44
-24 44 -45 -1 -166 -23 -63 -44 -112 -47 -110 -5 6 19 286 25 286 2 0 13 -5
23 -10z m24 -432 c21 -30 20 -44 -4 -68 -19 -19 -33 -20 -207 -20 -205 0 -223
5 -223 60 0 48 10 50 221 50 193 0 198 -1 213 -22z m142 -237 c84 -105 134
-238 134 -353 l0 -58 -32 0 c-18 0 -56 -11 -83 -24 -138 -64 -199 -215 -145
-358 11 -28 19 -53 17 -54 -1 -1 -25 -14 -53 -28 -165 -83 -372 -45 -512 93
-114 112 -167 248 -166 421 1 121 23 195 88 292 51 77 143 162 165 151 9 -4
109 -9 223 -11 167 -2 213 0 235 11 25 14 30 13 56 -5 16 -11 49 -46 73 -77z
m241 -524 c100 -69 118 -205 40 -294 -75 -85 -182 -95 -276 -25 -85 63 -94
208 -18 291 61 66 180 79 254 28z"/>
<path d="M860 970 c0 -25 -7 -33 -40 -50 -59 -30 -82 -72 -77 -139 3 -48 8
-58 44 -92 31 -29 52 -39 89 -44 68 -9 92 -20 106 -50 10 -22 8 -30 -9 -53
-16 -21 -30 -28 -66 -30 -38 -3 -48 1 -61 20 -9 12 -16 35 -16 50 0 26 -3 28
-40 28 -40 0 -40 0 -40 -39 0 -45 32 -97 77 -126 23 -14 32 -28 33 -47 0 -26
3 -28 40 -28 37 0 40 2 40 28 1 22 9 31 43 47 84 41 108 147 50 216 -33 39
-53 48 -120 59 -64 11 -93 32 -93 69 0 32 8 44 37 60 55 28 109 1 119 -60 6
-38 8 -39 47 -39 l40 0 -7 46 c-7 54 -34 95 -81 124 -27 17 -35 28 -35 51 0
27 -2 29 -40 29 -38 0 -40 -2 -40 -30z"/>
<path d="M1320 498 c-88 -67 -85 -62 -59 -97 l23 -31 33 26 33 25 0 -100 0
-101 40 0 40 0 0 95 c0 94 6 109 30 80 19 -22 36 -18 59 13 l20 29 -27 19
c-15 11 -49 36 -77 56 l-50 36 -65 -50z"/>
</g>
</svg>
