<?xml version="1.0" standalone="no"?>
<!DOCTYPE svg PUBLIC "-//W3C//DTD SVG 20010904//EN"
 "http://www.w3.org/TR/2001/REC-SVG-20010904/DTD/svg10.dtd">
<svg version="1.0" xmlns="http://www.w3.org/2000/svg"
 width="200.000000pt" height="200.000000pt" viewBox="0 0 200.000000 200.000000"
 preserveAspectRatio="xMidYMid meet">
<metadata>
Created by potrace 1.16, written by Peter Selinger 2001-2019
</metadata>
<g transform="translate(0.000000,200.000000) scale(0.100000,-0.100000)"
fill="#000000" stroke="none">
<path d="M988 1891 c-49 -16 -95 -50 -124 -93 -26 -37 -29 -49 -29 -125 l0
-83 -165 0 c-91 0 -170 -4 -176 -8 -6 -4 -70 -85 -142 -179 l-132 -173 0 -114
c0 -114 0 -116 31 -150 17 -19 46 -41 65 -48 l34 -12 0 -93 0 -93 -29 0 c-27
0 -31 5 -45 54 -16 54 -17 55 -70 70 -67 20 -106 21 -106 2 0 -19 18 -31 72
-46 l46 -12 48 -192 48 -192 -24 -31 c-43 -59 -22 -157 40 -185 17 -7 33 -21
36 -30 8 -26 53 -58 81 -58 34 0 80 26 88 50 5 17 15 20 56 20 45 0 54 -4 83
-35 22 -23 42 -35 60 -35 37 0 83 25 91 50 6 19 16 20 473 22 l467 3 3 365 2
366 42 19 c71 34 83 59 86 188 l3 112 -141 183 -141 182 -170 0 -170 0 6 53
c17 136 -75 244 -214 253 -31 2 -68 -1 -83 -5z m167 -76 c67 -39 93 -98 77
-175 -15 -68 -47 -133 -119 -233 l-55 -79 -54 74 c-97 132 -139 246 -120 322
9 37 55 87 101 108 52 24 110 19 170 -17z m-530 -425 l-75 -150 -125 0 c-69 0
-125 3 -125 6 0 3 50 70 111 150 l110 144 90 0 89 0 -75 -150z m264 97 l30
-53 -26 -97 -26 -97 -129 0 -128 0 75 150 75 150 49 0 c49 0 50 0 80 -53z
m539 -93 c40 -80 72 -147 72 -150 0 -3 -57 -3 -127 -2 l-126 3 -25 93 -25 94
29 54 29 54 51 0 51 0 71 -146z m267 15 c55 -73 106 -140 113 -150 13 -18 8
-19 -115 -19 l-128 0 -73 145 c-39 80 -72 147 -72 150 0 3 39 5 88 5 l87 0
100 -131z m-506 -151 c1 -16 -12 -18 -135 -18 -105 0 -135 3 -131 13 2 6 10
36 17 65 8 28 17 52 20 52 4 0 24 -25 45 -55 20 -30 44 -55 51 -55 8 0 33 26
57 59 l42 58 17 -51 c9 -28 17 -59 17 -68z m-649 -152 c0 -75 -3 -88 -24 -113
-22 -25 -31 -28 -105 -31 -78 -4 -81 -3 -111 26 -29 29 -30 34 -30 116 l0 86
135 0 135 0 0 -84z m330 9 c0 -125 -27 -155 -141 -155 -110 0 -139 34 -139
161 l0 69 140 0 140 0 0 -75z m328 -12 c-4 -82 -6 -87 -38 -116 -31 -28 -36
-29 -112 -25 -73 3 -82 6 -104 31 -21 25 -24 38 -24 113 l0 84 141 0 142 0 -5
-87z m322 3 c0 -75 -3 -88 -24 -113 -22 -25 -31 -28 -105 -31 -78 -4 -81 -3
-111 26 -29 29 -30 34 -30 116 l0 86 135 0 135 0 0 -84z m330 9 c0 -125 -27
-155 -140 -155 -109 0 -140 36 -140 159 l0 71 140 0 140 0 0 -75z m-1223 -194
c12 -6 58 -11 103 -11 82 0 123 12 149 44 12 14 17 13 43 -9 39 -33 62 -38
156 -34 67 3 84 8 114 31 26 20 37 24 41 14 10 -27 73 -46 152 -46 77 0 118
13 145 45 12 14 15 14 34 -3 34 -32 62 -42 110 -42 l46 0 0 -345 0 -345 -130
0 -130 0 0 250 c0 236 -1 250 -19 260 -11 6 -87 10 -176 10 -89 0 -165 -4
-176 -10 -18 -10 -19 -24 -19 -260 l0 -250 -119 0 c-111 0 -120 1 -126 20 -8
24 -54 50 -91 50 -18 0 -38 -12 -60 -35 -29 -31 -38 -35 -83 -35 -41 0 -51 3
-56 20 -9 29 -61 53 -102 47 l-33 -6 0 45 0 44 173 0 c94 0 177 4 183 8 14 9
88 308 80 327 -5 13 -37 15 -221 15 l-215 0 0 95 0 95 40 0 c43 0 88 18 110
45 12 14 15 14 34 -3 12 -11 31 -25 43 -31z m783 -471 l0 -230 -145 0 -145 0
0 230 0 230 145 0 145 0 0 -230z m-630 208 c0 -7 -13 -62 -28 -123 l-28 -110
-181 -3 -181 -2 -27 117 c-15 65 -30 121 -32 126 -2 4 104 7 236 7 186 0 241
-3 241 -12z m-430 -364 c0 -49 -2 -55 -15 -44 -15 13 -20 56 -9 84 13 33 24
14 24 -40z m134 -70 c21 -21 20 -37 -4 -59 -41 -37 -97 24 -58 63 17 17 44 15
62 -4z m290 0 c21 -21 20 -37 -4 -59 -41 -37 -97 24 -58 63 17 17 44 15 62 -4z"/>
<path d="M981 1754 c-114 -96 6 -268 139 -199 75 39 79 160 8 209 -36 26 -111
21 -147 -10z m128 -50 c27 -34 27 -62 -1 -91 -46 -49 -118 -20 -118 48 0 67
78 95 119 43z"/>
</g>
</svg>
