<?xml version="1.0" standalone="no"?>
<!DOCTYPE svg PUBLIC "-//W3C//DTD SVG 20010904//EN"
 "http://www.w3.org/TR/2001/REC-SVG-20010904/DTD/svg10.dtd">
<svg version="1.0" xmlns="http://www.w3.org/2000/svg"
 width="200.000000pt" height="200.000000pt" viewBox="0 0 200.000000 200.000000"
 preserveAspectRatio="xMidYMid meet">
<metadata>
Created by potrace 1.16, written by Peter Selinger 2001-2019
</metadata>
<g transform="translate(0.000000,200.000000) scale(0.100000,-0.100000)"
fill="#000000" stroke="none">
<path d="M223 1890 c-80 -19 -114 -68 -121 -175 -9 -145 33 -254 120 -310 l47
-30 0 -197 1 -198 -26 0 c-38 0 -98 -37 -120 -73 -18 -30 -19 -54 -19 -332 0
-288 1 -302 22 -340 25 -47 64 -85 113 -111 33 -18 72 -19 760 -19 l725 0 41
22 c22 12 55 37 71 57 55 62 58 83 58 403 0 280 -1 293 -21 320 -30 40 -82 73
-115 73 l-29 0 0 198 0 197 36 20 c19 10 49 36 65 56 51 65 62 104 63 224 1
126 -13 164 -74 200 -34 20 -50 20 -800 22 -421 1 -780 -2 -797 -7z m297 -207
c0 -140 -43 -198 -145 -198 -100 0 -145 59 -145 191 0 44 3 84 7 87 3 4 69 7
145 7 l138 0 0 -87z m420 4 c0 -66 -5 -92 -22 -127 -51 -98 -168 -107 -242
-20 -24 29 -26 38 -26 131 l0 99 145 0 145 0 0 -83z m408 -21 c-3 -95 -5 -107
-28 -131 -77 -82 -189 -70 -237 25 -18 35 -23 61 -23 127 l0 83 146 0 146 0
-4 -104z m420 14 c4 -135 -40 -195 -143 -195 -102 0 -145 58 -145 198 l0 88
143 -3 142 -3 3 -85z m-1154 -257 c102 -86 251 -85 354 1 l32 28 33 -28 c52
-44 106 -64 175 -64 71 0 116 16 174 61 23 19 43 28 46 22 17 -25 97 -72 132
-78 l40 -7 0 -189 0 -189 -600 0 -600 0 0 189 0 189 38 7 c41 7 89 34 117 65
23 25 21 25 59 -7z m1156 -849 l0 -276 -34 -34 -34 -34 -696 0 c-478 0 -702 3
-719 11 -54 24 -57 44 -57 338 l0 271 770 0 770 0 0 -276z"/>
<path d="M650 641 c-14 -4 -31 -20 -39 -35 -12 -25 -11 -31 6 -55 l20 -26 363
0 363 0 20 26 c17 24 18 30 6 55 -8 15 -25 31 -39 35 -14 4 -171 7 -350 7
-179 0 -336 -3 -350 -7z"/>
</g>
</svg>
