<?xml version="1.0" standalone="no"?>
<!DOCTYPE svg PUBLIC "-//W3C//DTD SVG 20010904//EN"
 "http://www.w3.org/TR/2001/REC-SVG-20010904/DTD/svg10.dtd">
<svg version="1.0" xmlns="http://www.w3.org/2000/svg"
 width="200.000000pt" height="200.000000pt" viewBox="0 0 200.000000 200.000000"
 preserveAspectRatio="xMidYMid meet">
<metadata>
Created by potrace 1.16, written by Peter Selinger 2001-2019
</metadata>
<g transform="translate(0.000000,200.000000) scale(0.100000,-0.100000)"
fill="#000000" stroke="none">
<path d="M1372 1743 c-37 -63 -39 -96 -4 -101 12 -2 24 2 26 10 3 13 36 114
44 136 2 7 -4 12 -14 12 -12 0 -31 -21 -52 -57z"/>
<path d="M1471 1777 c-37 -98 -38 -137 -1 -137 25 0 27 5 38 93 8 62 7 67 -10
67 -10 0 -22 -10 -27 -23z"/>
<path d="M1545 1735 c-9 -78 -3 -98 27 -93 27 4 33 29 23 105 -5 42 -10 53
-25 53 -15 0 -20 -11 -25 -65z"/>
<path d="M1632 1733 c11 -88 13 -93 38 -93 31 0 35 26 14 94 -15 46 -25 62
-40 64 -20 3 -20 0 -12 -65z"/>
<path d="M1703 1788 c7 -19 40 -121 43 -135 5 -19 44 -16 51 4 10 25 -56 143
-80 143 -11 0 -17 -5 -14 -12z"/>
<path d="M1038 1639 c-17 -9 -18 -35 -18 -309 l0 -300 -68 0 c-79 0 -115 -17
-93 -44 10 -12 32 -16 87 -16 l74 0 0 -298 c0 -218 3 -301 12 -310 19 -19 182
-16 199 4 22 27 -14 44 -93 44 l-68 0 0 280 0 280 74 0 c55 0 77 4 87 16 22
27 -14 44 -93 44 l-68 0 0 280 0 280 74 0 c55 0 77 4 87 16 11 14 10 18 -6 30
-22 17 -161 19 -187 3z"/>
<path d="M1388 1607 l-28 -11 0 -108 0 -108 60 0 60 0 0 69 c0 102 -1 101 90
101 91 0 90 1 90 -101 l0 -69 60 0 60 0 0 108 0 108 -31 11 c-22 9 -37 9 -55
1 -18 -8 -31 -8 -49 0 -19 9 -31 9 -50 0 -19 -8 -31 -8 -50 0 -19 9 -31 9 -50
0 -19 -8 -31 -8 -50 0 -14 7 -27 12 -28 11 -1 -1 -14 -6 -29 -12z"/>
<path d="M1520 1450 l0 -70 50 0 50 0 0 70 0 70 -50 0 -50 0 0 -70z"/>
<path d="M217 1272 c-15 -16 -17 -50 -17 -274 0 -234 1 -256 18 -271 16 -15
50 -17 275 -17 219 0 258 2 271 16 14 13 16 52 16 274 0 304 5 290 -101 290
l-69 0 0 -110 0 -110 -120 0 -120 0 0 110 0 110 -68 0 c-54 0 -72 -4 -85 -18z"/>
<path d="M410 1195 l0 -96 83 3 82 3 3 93 3 92 -86 0 -85 0 0 -95z"/>
<path d="M1372 1153 c-37 -64 -38 -96 -4 -101 12 -2 24 2 25 10 4 15 38 118
44 136 3 7 -3 12 -14 12 -12 0 -30 -19 -51 -57z"/>
<path d="M1469 1183 c-5 -16 -14 -40 -20 -55 -16 -40 -8 -72 19 -76 26 -4 29
2 40 91 8 62 7 67 -10 67 -11 0 -23 -11 -29 -27z"/>
<path d="M1545 1145 c-9 -78 -3 -98 27 -93 27 4 33 29 23 105 -5 42 -10 53
-25 53 -15 0 -20 -11 -25 -65z"/>
<path d="M1632 1143 c11 -89 14 -95 40 -91 31 4 34 39 9 103 -12 33 -25 51
-38 53 -19 3 -19 -1 -11 -65z"/>
<path d="M1703 1198 c6 -18 40 -121 44 -136 5 -21 48 -10 51 14 4 30 -59 134
-82 134 -10 0 -16 -5 -13 -12z"/>
<path d="M1387 1017 l-28 -11 3 -106 3 -105 58 -3 57 -3 0 70 c0 102 -1 101
90 101 91 0 90 1 90 -101 l0 -69 60 0 60 0 0 108 0 108 -31 11 c-22 9 -37 9
-55 1 -18 -8 -31 -8 -49 0 -19 9 -31 9 -50 0 -19 -8 -31 -8 -50 0 -19 9 -31 9
-50 0 -19 -8 -31 -8 -50 0 -14 7 -27 12 -28 11 -1 -1 -15 -6 -30 -12z"/>
<path d="M1520 860 l0 -70 50 0 50 0 0 70 0 70 -50 0 -50 0 0 -70z"/>
<path d="M1372 563 c-37 -64 -38 -96 -4 -101 12 -2 24 2 25 10 4 15 38 118 44
136 3 7 -3 12 -14 12 -12 0 -30 -19 -51 -57z"/>
<path d="M1469 593 c-5 -16 -14 -40 -20 -55 -16 -40 -8 -72 19 -76 26 -4 29 2
40 91 8 62 7 67 -10 67 -11 0 -23 -11 -29 -27z"/>
<path d="M1545 567 c-10 -80 -5 -102 25 -102 30 0 35 22 25 102 -5 43 -10 53
-25 53 -15 0 -20 -10 -25 -53z"/>
<path d="M1632 553 c11 -89 14 -95 40 -91 31 4 34 39 9 103 -12 33 -25 51 -38
53 -19 3 -19 -1 -11 -65z"/>
<path d="M1703 608 c5 -12 35 -106 43 -136 6 -21 49 -10 52 14 4 30 -58 134
-81 134 -11 0 -17 -5 -14 -12z"/>
<path d="M1388 430 c-22 -6 -23 -9 -23 -115 l0 -110 58 -3 57 -3 0 75 c0 94
10 106 90 106 80 0 90 -12 90 -106 l0 -74 60 0 60 0 0 109 c0 71 -4 112 -11
117 -14 8 -348 11 -381 4z"/>
<path d="M1520 270 l0 -70 50 0 50 0 0 70 0 70 -50 0 -50 0 0 -70z"/>
</g>
</svg>
