<?xml version="1.0" standalone="no"?>
<!DOCTYPE svg PUBLIC "-//W3C//DTD SVG 20010904//EN"
 "http://www.w3.org/TR/2001/REC-SVG-20010904/DTD/svg10.dtd">
<svg version="1.0" xmlns="http://www.w3.org/2000/svg"
 width="200.000000pt" height="200.000000pt" viewBox="0 0 200.000000 200.000000"
 preserveAspectRatio="xMidYMid meet">
<metadata>
Created by potrace 1.16, written by Peter Selinger 2001-2019
</metadata>
<g transform="translate(0.000000,200.000000) scale(0.100000,-0.100000)"
fill="#000000" stroke="none">
<path d="M1378 1783 c-53 -61 -85 -161 -58 -178 6 -4 10 -54 10 -118 0 -62 5
-119 10 -127 8 -12 44 -16 200 -18 250 -4 237 -12 243 145 3 65 8 132 12 149
5 24 0 41 -25 85 -17 30 -39 60 -48 67 -11 8 -62 12 -172 12 -137 0 -159 -2
-172 -17z m29 -94 c-9 -35 -20 -55 -31 -57 -9 -2 -16 3 -16 11 0 17 50 110 56
104 3 -2 -2 -28 -9 -58z m78 -15 c-4 -31 -11 -44 -22 -44 -18 0 -14 42 8 95
10 25 13 27 17 11 2 -10 1 -38 -3 -62z m84 -2 c1 -36 -2 -43 -16 -40 -15 3
-17 12 -14 53 1 28 6 54 9 59 9 15 21 -25 21 -72z m75 31 c21 -61 20 -73 -4
-73 -17 0 -20 7 -20 44 0 24 -3 51 -6 60 -3 9 -2 16 4 16 6 0 17 -21 26 -47z
m79 -2 c32 -58 34 -71 7 -71 -13 0 -20 7 -20 19 0 10 -7 37 -15 60 -19 56 -6
52 28 -8z m5 -220 l3 -91 -46 0 -45 0 0 68 c0 40 -5 73 -12 80 -16 16 -132 16
-146 -1 -6 -7 -12 -42 -14 -77 l-3 -65 -43 -3 -43 -3 3 93 3 93 142 0 c78 0
144 3 148 7 4 4 17 3 28 -1 20 -8 22 -17 25 -100z m-138 -36 l0 -55 -35 0 -35
0 0 55 0 55 35 0 35 0 0 -55z"/>
<path d="M1033 1624 c-10 -4 -13 -74 -13 -300 l0 -294 -57 0 c-76 0 -103 -8
-103 -30 0 -22 27 -30 103 -30 l57 0 0 -288 c0 -211 3 -291 12 -300 13 -13
153 -17 182 -6 24 9 19 41 -6 48 -13 3 -49 6 -80 6 l-58 0 0 270 0 270 58 0
c75 0 102 8 102 30 0 22 -27 30 -102 30 l-58 0 0 270 0 270 58 0 c81 0 104 8
100 34 -3 19 -10 21 -93 23 -49 1 -96 -1 -102 -3z"/>
<path d="M249 1299 c-14 -5 -31 -21 -38 -35 -15 -34 -15 -494 0 -528 20 -43
48 -47 312 -44 241 3 247 3 269 26 23 22 23 25 23 282 0 257 0 260 -23 282
-22 23 -27 23 -270 25 -142 1 -258 -2 -273 -8z m151 -124 c0 -73 3 -86 19 -95
23 -12 160 -13 178 -2 7 5 13 40 15 92 l3 85 65 3 c52 2 67 0 77 -14 16 -23
19 -455 3 -485 -10 -18 -24 -19 -248 -19 -172 0 -241 3 -250 12 -17 17 -17
479 0 496 7 7 39 12 75 12 l63 0 0 -85z m160 20 l0 -65 -55 0 -55 0 0 65 0 65
55 0 55 0 0 -65z"/>
<path d="M1378 1213 c-8 -10 -27 -40 -42 -66 -23 -40 -27 -56 -21 -85 4 -21 9
-89 11 -152 4 -91 8 -118 21 -127 12 -9 71 -13 209 -13 162 0 195 3 208 16 13
12 16 39 16 129 0 65 4 116 10 120 28 17 -19 145 -68 183 -11 8 -62 12 -172
12 -137 0 -159 -2 -172 -17z m31 -89 c-18 -76 -18 -76 -32 -72 -6 3 -13 11
-15 19 -3 16 47 113 54 106 3 -2 -1 -26 -7 -53z m73 -35 c-4 -19 -12 -33 -18
-32 -17 4 -16 35 3 82 18 46 18 46 21 15 2 -18 -1 -47 -6 -65z m87 14 c1 -42
-15 -66 -29 -43 -8 12 -3 81 7 110 8 23 21 -17 22 -67z m77 22 c14 -43 15 -58
6 -67 -8 -8 -15 -8 -21 -2 -11 12 -20 124 -10 124 4 0 16 -25 25 -55z m79 0
c23 -41 27 -57 18 -66 -14 -14 -33 -3 -33 20 0 10 -7 37 -15 60 -20 58 -5 51
30 -14z m3 -214 l3 -91 -46 0 -45 0 0 70 c0 58 -3 71 -19 80 -28 14 -126 13
-139 -3 -6 -7 -12 -42 -14 -77 l-3 -65 -43 -3 -43 -3 3 93 3 93 142 0 c78 0
144 3 148 7 4 4 17 3 28 -1 20 -8 22 -17 25 -100z m-138 -36 l0 -55 -35 0 -35
0 0 55 0 55 35 0 35 0 0 -55z"/>
<path d="M1393 653 c-7 -2 -29 -31 -49 -64 -31 -51 -35 -65 -29 -97 4 -20 9
-89 11 -152 4 -91 8 -118 21 -127 12 -9 71 -13 209 -13 162 0 195 3 208 16 13
12 16 39 16 129 0 65 4 116 10 120 28 17 -19 142 -68 183 -11 8 -60 12 -166
11 -83 0 -157 -3 -163 -6z m18 -84 c-6 -18 -11 -42 -11 -55 0 -28 -17 -41 -33
-25 -9 9 -5 25 17 67 31 58 46 66 27 13z m71 -50 c-4 -19 -12 -33 -18 -32 -17
4 -16 35 3 82 18 46 18 46 21 15 2 -18 -1 -47 -6 -65z m87 14 c1 -42 -15 -66
-29 -43 -8 12 -3 81 7 110 8 23 21 -17 22 -67z m77 22 c14 -43 15 -58 6 -67
-8 -8 -15 -8 -21 -2 -11 12 -20 124 -10 124 4 0 16 -25 25 -55z m84 -9 c18
-34 21 -49 13 -57 -14 -14 -33 -3 -33 20 0 10 -7 38 -15 61 -19 54 -1 41 35
-24z m-7 -115 c4 0 7 -41 7 -91 l0 -90 -45 0 -45 0 0 70 c0 58 -3 71 -19 80
-27 14 -124 13 -139 -2 -7 -7 -12 -40 -12 -80 l0 -68 -45 0 -45 0 0 89 c0 55
4 91 11 93 9 3 311 2 332 -1z m-133 -126 l0 -55 -35 0 -35 0 0 55 0 55 35 0
35 0 0 -55z"/>
</g>
</svg>
