<?xml version="1.0" standalone="no"?>
<!DOCTYPE svg PUBLIC "-//W3C//DTD SVG 20010904//EN"
 "http://www.w3.org/TR/2001/REC-SVG-20010904/DTD/svg10.dtd">
<svg version="1.0" xmlns="http://www.w3.org/2000/svg"
 width="200.000000pt" height="200.000000pt" viewBox="0 0 200.000000 200.000000"
 preserveAspectRatio="xMidYMid meet">
<metadata>
Created by potrace 1.16, written by Peter Selinger 2001-2019
</metadata>
<g transform="translate(0.000000,200.000000) scale(0.100000,-0.100000)"
fill="#000000" stroke="none">
<path d="M596 1769 c-71 -17 -174 -79 -228 -138 -135 -148 -173 -365 -93 -539
l25 -55 -50 -53 c-53 -56 -61 -78 -33 -88 12 -5 32 8 68 44 l51 50 34 -36 c51
-52 127 -100 199 -124 116 -39 283 -25 380 31 l34 20 84 -83 c55 -54 83 -90
83 -105 0 -31 380 -448 422 -462 129 -45 248 54 223 186 -8 42 -36 72 -288
301 -120 109 -173 152 -185 148 -12 -4 -42 19 -101 78 l-84 85 26 58 c39 87
51 155 44 253 l-6 86 94 94 94 94 3 -115 c3 -106 4 -114 23 -114 19 0 20 8 23
163 l2 162 -153 0 c-154 0 -182 -6 -170 -36 4 -11 32 -14 120 -14 l116 0 -84
-87 c-46 -49 -86 -89 -89 -91 -3 -1 -16 19 -30 45 -56 105 -162 194 -277 232
-67 23 -202 27 -277 10z m223 -50 c70 -16 148 -59 202 -112 50 -49 109 -139
109 -167 0 -8 -33 -47 -72 -87 l-73 -73 -113 112 -114 113 -207 -214 c-127
-131 -211 -210 -215 -203 -45 72 -59 233 -30 333 41 139 181 272 318 299 59
11 144 11 195 -1z m167 -499 c14 0 48 28 92 74 l70 74 6 -33 c10 -52 -11 -164
-44 -231 -81 -166 -276 -268 -456 -237 -87 15 -178 61 -233 117 l-44 45 36 41
c19 23 104 112 189 199 l153 158 105 -104 c66 -65 113 -103 126 -103z m199
-320 l79 -80 -34 -35 -34 -35 -83 82 -83 82 32 33 c18 18 35 33 38 33 3 0 41
-36 85 -80z m349 -280 c192 -177 212 -202 208 -255 -4 -58 -65 -102 -125 -91
-31 6 -62 35 -221 209 l-185 202 57 58 c31 31 59 57 63 57 4 0 95 -81 203
-180z"/>
</g>
</svg>
