<?xml version="1.0" standalone="no"?>
<!DOCTYPE svg PUBLIC "-//W3C//DTD SVG 20010904//EN"
 "http://www.w3.org/TR/2001/REC-SVG-20010904/DTD/svg10.dtd">
<svg version="1.0" xmlns="http://www.w3.org/2000/svg"
 width="200.000000pt" height="200.000000pt" viewBox="0 0 200.000000 200.000000"
 preserveAspectRatio="xMidYMid meet">
<metadata>
Created by potrace 1.16, written by Peter Selinger 2001-2019
</metadata>
<g transform="translate(0.000000,200.000000) scale(0.100000,-0.100000)"
fill="#000000" stroke="none">
<path d="M581 1724 c-189 -72 -302 -251 -288 -453 5 -75 35 -172 54 -178 6 -2
102 91 213 207 112 115 210 210 219 210 9 0 66 -50 127 -111 l110 -110 72 75
c40 42 72 83 72 91 0 47 -90 167 -165 220 -110 78 -285 99 -414 49z"/>
<path d="M1154 1725 c-15 -39 1 -45 123 -45 l118 0 -93 -93 c-90 -90 -93 -94
-82 -122 l11 -29 99 99 100 100 0 -111 c0 -87 3 -114 15 -124 12 -10 18 -10
30 0 12 10 15 42 15 164 0 105 -4 156 -12 164 -8 8 -59 12 -165 12 -127 0
-155 -3 -159 -15z"/>
<path d="M575 1235 l-197 -206 43 -39 c108 -101 202 -135 346 -128 82 5 103
10 167 41 123 61 207 163 241 292 17 65 20 171 6 180 -5 3 -40 -28 -76 -69
-37 -41 -74 -77 -82 -81 -11 -3 -52 31 -127 105 -62 60 -114 110 -117 110 -3
0 -95 -92 -204 -205z"/>
<path d="M252 980 c-54 -61 -62 -90 -24 -90 16 0 46 27 95 86 17 20 17 22 0
43 l-18 22 -53 -61z"/>
<path d="M1093 946 l-33 -32 85 -84 85 -84 35 34 35 34 -82 83 c-45 46 -85 82
-88 82 -3 -1 -20 -16 -37 -33z"/>
<path d="M1307 742 c-31 -32 -57 -61 -57 -66 0 -8 295 -334 356 -394 29 -27
41 -32 83 -32 44 0 52 4 80 35 36 41 41 86 13 126 -15 22 -406 389 -414 389
-2 0 -29 -26 -61 -58z"/>
</g>
</svg>
