<?xml version="1.0" standalone="no"?>
<!DOCTYPE svg PUBLIC "-//W3C//DTD SVG 20010904//EN"
 "http://www.w3.org/TR/2001/REC-SVG-20010904/DTD/svg10.dtd">
<svg version="1.0" xmlns="http://www.w3.org/2000/svg"
 width="200.000000pt" height="200.000000pt" viewBox="0 0 200.000000 200.000000"
 preserveAspectRatio="xMidYMid meet">
<metadata>
Created by potrace 1.16, written by Peter Selinger 2001-2019
</metadata>
<g transform="translate(0.000000,200.000000) scale(0.100000,-0.100000)"
fill="#000000" stroke="none">
<path d="M55 1808 c-3 -7 -4 -294 -3 -638 l3 -625 458 -3 c251 -1 457 1 457 6
0 30 -28 32 -447 32 l-423 0 -2 617 c-3 580 -4 618 -21 621 -9 2 -19 -2 -22
-10z"/>
<path d="M1112 1733 c2 -14 16 -19 62 -23 l58 -5 -123 -100 c-68 -55 -132
-106 -143 -114 -18 -13 -25 -8 -102 72 -45 48 -85 87 -88 87 -15 0 -496 -374
-496 -386 0 -34 50 -4 266 158 l228 171 82 -88 c51 -54 87 -86 95 -82 8 3 77
57 154 120 77 64 141 114 143 112 1 -1 -2 -14 -8 -29 -16 -44 -13 -76 8 -76
15 0 24 20 46 90 14 50 24 95 21 100 -4 6 -51 10 -106 10 -90 0 -100 -2 -97
-17z"/>
<path d="M1180 1332 l0 -128 80 15 80 15 0 113 0 113 -80 0 -80 0 0 -128z"/>
<path d="M540 975 l0 -295 80 0 80 0 0 295 0 295 -80 0 -80 0 0 -295z"/>
<path d="M1203 1161 c-138 -51 -227 -158 -254 -304 -46 -249 186 -483 437
-440 130 23 237 103 292 221 24 50 27 69 27 157 0 91 -3 106 -31 165 -39 81
-100 142 -183 183 -83 41 -206 49 -288 18z m280 -46 c76 -37 149 -117 177
-193 32 -83 25 -206 -15 -286 -118 -233 -448 -263 -601 -55 -98 133 -96 300 5
436 92 125 289 169 434 98z"/>
<path d="M1263 1100 c-63 -13 -114 -43 -164 -97 -60 -64 -82 -130 -77 -226 7
-151 109 -261 263 -285 135 -22 264 47 325 173 19 40 24 66 24 130 0 88 -19
140 -73 206 -63 76 -196 120 -298 99z m-15 -88 c3 -29 6 -33 30 -30 22 2 28 9
30 36 2 24 8 32 23 32 15 0 19 -7 19 -35 0 -32 2 -35 30 -35 28 0 30 3 30 35
0 28 4 35 20 35 16 0 20 -7 20 -30 0 -23 6 -33 25 -40 14 -5 30 -21 35 -34 7
-18 18 -25 42 -28 46 -4 44 -31 -2 -38 -29 -4 -36 -10 -38 -32 -3 -26 -1 -28
31 -28 37 0 54 -19 34 -39 -6 -6 -24 -11 -40 -11 -25 0 -28 -3 -25 -27 2 -23
9 -29 38 -33 49 -7 47 -34 -2 -38 -28 -2 -38 -8 -38 -21 0 -22 -19 -41 -42
-41 -14 0 -18 -8 -18 -36 0 -28 -3 -35 -17 -32 -12 2 -19 14 -21 36 -3 28 -7
32 -33 32 -26 0 -29 -3 -29 -30 0 -19 -6 -33 -16 -37 -19 -7 -34 13 -34 45 0
17 -6 22 -24 22 -21 0 -25 -6 -28 -32 -2 -25 -8 -33 -23 -33 -15 0 -21 8 -23
32 -2 23 -9 33 -27 37 -15 4 -27 16 -31 31 -4 18 -14 25 -37 27 -21 2 -33 9
-35 21 -3 14 4 17 32 17 33 0 36 2 36 29 0 26 -4 30 -32 33 -25 2 -33 8 -33
23 0 15 8 21 33 23 28 3 32 7 32 32 0 25 -4 29 -32 32 -44 4 -45 32 -1 36 23
2 33 9 37 27 4 15 16 27 31 31 19 5 25 13 25 33 0 54 43 56 48 3z"/>
<path d="M1190 795 l0 -146 138 3 137 3 3 143 3 142 -141 0 -140 0 0 -145z"/>
<path d="M860 910 l0 -230 23 0 c21 0 22 3 22 113 0 125 17 178 83 265 50 65
43 76 -51 80 l-77 3 0 -231z"/>
<path d="M220 880 l0 -200 80 0 80 0 0 200 0 200 -80 0 -80 0 0 -200z"/>
<path d="M1631 488 c-22 -28 -23 -30 -6 -48 23 -26 37 -25 63 3 l22 23 -28 26
-27 26 -24 -30z"/>
<path d="M1715 410 c-32 -33 -57 -62 -54 -64 3 -3 32 21 64 54 32 33 57 62 54
64 -3 3 -32 -21 -64 -54z"/>
<path d="M1755 370 l-60 -61 66 -64 c76 -74 108 -82 155 -41 21 18 28 32 28
60 0 32 -9 45 -65 102 l-64 64 -60 -60z"/>
</g>
</svg>
