<?xml version="1.0" standalone="no"?>
<!DOCTYPE svg PUBLIC "-//W3C//DTD SVG 20010904//EN"
 "http://www.w3.org/TR/2001/REC-SVG-20010904/DTD/svg10.dtd">
<svg version="1.0" xmlns="http://www.w3.org/2000/svg"
 width="200.000000pt" height="200.000000pt" viewBox="0 0 200.000000 200.000000"
 preserveAspectRatio="xMidYMid meet">
<metadata>
Created by potrace 1.16, written by Peter Selinger 2001-2019
</metadata>
<g transform="translate(0.000000,200.000000) scale(0.100000,-0.100000)"
fill="#000000" stroke="none">
<path d="M952 1748 c-6 -8 -15 -36 -19 -63 -8 -47 -11 -51 -56 -72 l-47 -23
-56 37 -55 36 -75 -73 c-40 -41 -74 -81 -74 -88 0 -8 14 -33 31 -57 l31 -43
-18 -50 -18 -51 -60 -10 c-57 -10 -76 -22 -76 -47 0 -7 -29 -13 -74 -16 -136
-9 -240 -81 -299 -206 -27 -57 -31 -78 -31 -147 0 -65 5 -91 26 -137 58 -126
175 -207 304 -211 38 -1 86 2 107 6 34 7 38 6 49 -17 6 -14 20 -28 30 -32 11
-3 17 -8 15 -11 -3 -2 -14 0 -24 5 -11 7 -25 7 -33 2 -13 -8 -13 -13 1 -37 87
-152 103 -174 129 -188 49 -25 88 -19 126 19 51 51 47 85 -22 207 -55 97 -66
110 -79 89 -10 -17 -21 -11 -34 17 -11 24 -9 29 20 59 17 18 37 30 44 28 7 -3
36 11 63 31 l50 36 48 -23 c47 -23 49 -24 59 -83 l10 -60 115 0 115 0 10 60
c10 59 12 60 59 83 l48 23 49 -36 c27 -19 52 -35 56 -35 14 0 153 144 153 158
0 7 -14 34 -31 58 l-31 45 19 47 c19 45 21 47 78 60 33 7 63 18 67 25 10 16
10 188 0 204 -4 7 -34 18 -67 25 -57 13 -59 15 -78 61 -28 69 -10 82 38 28 22
-24 46 -41 59 -41 14 0 59 38 131 110 60 61 114 110 119 110 5 0 18 -8 28 -17
11 -10 22 -13 28 -7 14 15 40 196 30 209 -7 8 -34 8 -102 -3 -113 -17 -127
-26 -96 -59 l22 -24 -77 -77 -77 -77 -63 63 c-42 41 -71 62 -86 62 -14 0 -33
7 -43 16 -17 16 -21 15 -73 -20 l-55 -36 -47 23 c-46 21 -48 23 -58 82 l-10
60 -106 3 c-78 2 -109 -1 -117 -10z m194 -85 c9 -56 11 -59 54 -80 91 -45 94
-45 146 -8 77 55 72 28 -10 -53 l-75 -76 -44 21 c-176 85 -374 22 -464 -149
-25 -47 -28 -64 -28 -148 0 -84 3 -102 28 -152 35 -72 94 -130 165 -165 48
-23 70 -27 142 -27 73 -1 93 3 142 27 121 59 189 161 196 293 4 69 1 89 -20
141 l-25 62 60 58 c47 45 56 51 42 27 -17 -31 -17 -33 5 -90 31 -77 36 -81 95
-91 l50 -8 0 -80 0 -80 -50 -8 c-27 -4 -54 -12 -59 -17 -9 -9 -56 -120 -56
-132 0 -4 14 -28 32 -53 l32 -46 -54 -54 -55 -55 -51 36 -50 35 -70 -33 -69
-33 -9 -57 -8 -58 -78 0 -78 0 -6 48 c-10 65 -15 82 -29 82 -7 0 -37 12 -67
26 l-54 25 -44 -31 c-24 -17 -46 -30 -48 -28 -2 2 4 26 12 53 48 155 -38 341
-192 416 -25 12 -43 26 -41 33 2 6 26 14 53 19 27 5 53 12 58 17 9 9 56 120
56 132 0 4 -14 28 -32 53 l-32 46 54 54 55 55 48 -34 c53 -38 55 -38 147 7 43
21 45 24 54 80 l8 57 78 0 78 0 8 -57z m750 21 c-3 -9 -6 -29 -6 -45 0 -26 -3
-29 -21 -24 -18 6 -42 -13 -140 -111 l-119 -119 -64 64 c-54 53 -68 63 -89 57
-14 -3 -98 -82 -197 -186 -95 -99 -178 -180 -186 -180 -41 0 -10 38 182 231
l209 209 60 -60 c33 -33 70 -60 80 -60 12 0 58 38 114 94 72 73 93 99 88 115
-5 22 6 28 62 30 26 1 32 -2 27 -15z m-715 -245 l50 -22 -116 -118 c-63 -64
-115 -125 -115 -135 0 -25 49 -74 75 -74 13 0 61 40 130 110 60 61 112 110
116 110 3 0 14 -25 24 -56 59 -188 -82 -384 -276 -384 -97 0 -154 23 -221 90
-68 68 -94 138 -85 230 9 108 93 219 190 254 64 22 169 20 228 -5z m-632 -291
c195 -98 224 -357 58 -503 -65 -57 -134 -79 -226 -73 -108 8 -193 63 -247 160
-26 48 -29 62 -29 148 0 108 9 133 78 207 98 106 232 129 366 61z m67 -593 c7
-30 1 -40 -21 -31 -22 8 -31 36 -14 47 22 14 28 11 35 -16z m129 -131 c41 -73
41 -103 0 -130 -46 -30 -94 10 -143 117 -2 4 13 12 33 19 19 6 43 22 53 36 9
13 18 24 19 24 1 0 18 -30 38 -66z"/>
<path d="M312 1152 c-67 -24 -119 -66 -156 -126 -25 -40 -30 -60 -34 -130 -5
-99 13 -149 77 -219 62 -67 125 -90 228 -85 76 4 87 8 137 42 152 105 181 301
62 433 -83 92 -203 124 -314 85z m164 -37 c104 -31 176 -126 176 -233 0 -78
-25 -134 -82 -185 -79 -71 -174 -86 -265 -43 -143 68 -189 238 -98 368 40 58
121 101 204 107 8 0 38 -6 65 -14z"/>
<path d="M393 1083 c-4 -10 -24 -34 -45 -54 -31 -29 -38 -43 -38 -73 0 -49 13
-70 50 -86 28 -11 30 -16 30 -61 0 -27 -4 -49 -8 -49 -14 0 -32 23 -32 42 0
11 -7 18 -20 18 -44 0 -15 -91 36 -110 15 -6 24 -18 24 -30 0 -28 34 -23 38 5
2 12 13 25 25 30 11 6 30 25 40 43 17 29 18 38 8 74 -9 30 -20 43 -42 51 -27
11 -29 15 -29 65 0 47 2 53 15 42 8 -7 15 -18 15 -25 0 -23 26 -37 39 -21 17
20 -11 83 -43 98 -15 6 -26 19 -26 29 0 24 -29 33 -37 12z m-10 -125 c-7 -54
-10 -56 -24 -26 -8 19 -8 31 0 47 19 34 30 24 24 -21z m75 -155 c2 -18 -3 -35
-12 -43 -14 -11 -16 -7 -16 35 0 53 23 60 28 8z"/>
</g>
</svg>
