<?xml version="1.0" standalone="no"?>
<!DOCTYPE svg PUBLIC "-//W3C//DTD SVG 20010904//EN"
 "http://www.w3.org/TR/2001/REC-SVG-20010904/DTD/svg10.dtd">
<svg version="1.0" xmlns="http://www.w3.org/2000/svg"
 width="200.000000pt" height="200.000000pt" viewBox="0 0 200.000000 200.000000"
 preserveAspectRatio="xMidYMid meet">
<metadata>
Created by potrace 1.16, written by Peter Selinger 2001-2019
</metadata>
<g transform="translate(0.000000,200.000000) scale(0.100000,-0.100000)"
fill="#000000" stroke="none">
<path d="M557 1943 c-4 -3 -7 -327 -7 -720 l0 -713 180 0 c99 0 180 3 180 8 0
4 -7 29 -15 56 -31 103 -12 235 46 328 126 198 385 253 580 123 21 -14 41 -25
44 -25 3 0 5 18 5 40 0 34 -4 42 -25 50 -20 8 -25 16 -25 43 0 31 -4 36 -42
50 -40 16 -43 16 -63 -3 -30 -28 -46 -25 -83 13 -37 38 -39 53 -12 82 19 20
19 23 4 63 -15 36 -21 41 -53 44 l-36 3 0 60 0 60 33 3 c26 3 36 11 53 44 l20
40 -20 22 c-30 31 -26 47 19 91 l40 39 31 -23 c29 -21 33 -22 67 -9 31 11 38
19 40 46 2 24 10 36 28 42 24 9 25 13 22 77 l-3 68 -501 3 c-275 1 -504 -1
-507 -5z m293 -223 l0 -90 -89 0 c-102 0 -101 -1 -101 90 0 91 -1 90 101 90
l89 0 0 -90z m204 64 c21 -8 21 -30 0 -38 -9 -3 -40 -6 -69 -6 -29 0 -60 3
-69 6 -19 7 -21 30 -3 37 18 8 123 8 141 1z m131 -109 c0 -19 -8 -20 -129 -23
-134 -3 -169 6 -145 35 9 11 40 13 143 11 123 -3 131 -4 131 -23z m-335 -195
l0 -90 -89 0 c-102 0 -101 -1 -101 90 0 91 -1 90 101 90 l89 0 0 -90z m204 64
c21 -8 21 -30 0 -38 -9 -3 -40 -6 -69 -6 -29 0 -60 3 -69 6 -19 7 -21 30 -3
37 18 8 123 8 141 1z m131 -109 c0 -19 -8 -20 -129 -23 -134 -3 -169 6 -145
35 9 11 40 13 143 11 123 -3 131 -4 131 -23z m-335 -195 l0 -90 -89 0 c-102 0
-101 -1 -101 90 0 91 -1 90 101 90 l89 0 0 -90z m204 64 c21 -8 21 -30 0 -38
-9 -3 -42 -6 -74 -6 -61 0 -90 16 -68 38 12 12 115 17 142 6z m134 -111 c-3
-16 -19 -18 -137 -21 -75 -1 -139 2 -144 7 -24 24 9 31 144 31 128 0 140 -2
137 -17z"/>
<path d="M710 1720 l0 -50 50 0 50 0 0 50 0 50 -50 0 -50 0 0 -50z"/>
<path d="M710 1480 l0 -50 50 0 50 0 0 50 0 50 -50 0 -50 0 0 -50z"/>
<path d="M710 1240 l0 -50 50 0 50 0 0 50 0 50 -50 0 -50 0 0 -50z"/>
<path d="M390 1495 c0 -318 0 -325 20 -325 16 0 20 -7 20 -35 0 -30 4 -37 36
-50 20 -8 38 -15 40 -15 2 0 4 169 4 375 l0 375 -60 0 -60 0 0 -325z"/>
<path d="M1570 1732 c0 -31 -16 -52 -38 -52 -8 0 -34 -10 -58 -22 l-44 -22
-23 22 c-20 19 -26 20 -41 9 -16 -12 -16 -14 3 -31 26 -24 26 -28 -3 -101 -22
-53 -28 -60 -55 -63 -25 -3 -31 -8 -31 -27 0 -19 6 -24 31 -27 27 -3 33 -10
55 -63 28 -71 29 -73 8 -97 -14 -14 -15 -20 -4 -33 12 -14 16 -13 36 6 l24 22
52 -22 c29 -13 60 -27 68 -31 8 -4 16 -21 18 -39 2 -23 8 -31 22 -31 14 0 20
9 22 37 3 35 6 38 47 50 25 7 49 17 55 23 16 16 38 12 61 -10 20 -19 23 -19
35 -5 11 13 9 19 -9 39 l-22 24 19 38 c10 22 22 51 26 67 5 23 11 27 41 27 31
0 35 3 35 25 0 21 -5 25 -31 25 -25 0 -32 6 -45 38 -8 20 -22 50 -30 65 -15
27 -15 30 6 52 19 20 21 27 11 39 -11 13 -16 13 -41 -5 -27 -21 -27 -21 -66
-1 -22 10 -51 22 -66 26 -24 5 -28 11 -28 41 0 28 -4 35 -20 35 -15 0 -20 -7
-20 -28z m127 -138 c56 -45 75 -87 71 -160 -3 -49 -10 -69 -31 -98 -65 -85
-187 -100 -264 -33 -87 76 -94 188 -18 268 42 45 81 60 147 56 46 -3 65 -9 95
-33z"/>
<path d="M1535 1576 c-53 -24 -78 -60 -82 -118 -7 -88 49 -149 136 -150 109
-1 177 126 116 218 -34 52 -115 76 -170 50z"/>
<path d="M237 1694 c-4 -4 -7 -146 -7 -315 l0 -308 31 11 c31 11 33 13 43 61
4 18 13 27 26 27 20 0 20 6 18 263 l-3 262 -50 3 c-28 2 -54 0 -58 -4z"/>
<path d="M350 1096 c0 -31 -4 -37 -27 -42 -16 -4 -44 -15 -65 -25 -35 -18 -37
-18 -60 1 -19 14 -28 16 -36 8 -9 -9 -7 -17 9 -34 l21 -23 -22 -48 c-34 -76
-36 -78 -64 -81 -40 -5 -36 -40 6 -44 27 -3 33 -8 41 -37 4 -18 15 -44 24 -58
15 -22 14 -25 -7 -48 -19 -21 -21 -27 -10 -40 12 -14 15 -13 36 6 l22 21 64
-25 c56 -23 63 -29 66 -56 2 -23 8 -31 23 -31 15 0 19 7 19 30 0 20 6 33 18
37 51 17 102 46 102 59 0 18 -3 18 -50 -6 -26 -13 -59 -20 -99 -20 -52 0 -65
4 -102 33 -60 45 -83 89 -84 157 -1 150 148 244 280 176 27 -14 51 -23 54 -20
13 12 -20 41 -67 58 -45 16 -51 22 -54 49 -2 21 -9 33 -20 35 -15 3 -18 -4
-18 -32z"/>
<path d="M1178 1031 c-104 -34 -165 -86 -212 -179 -67 -132 -50 -292 43 -402
l29 -35 46 25 c38 20 45 28 39 45 -23 73 -49 182 -46 192 2 7 54 40 114 75 81
47 107 67 103 78 -4 8 -9 25 -11 38 -5 19 -1 22 23 22 63 0 203 -23 207 -34 7
-18 -74 -197 -91 -204 -9 -3 -23 5 -34 18 l-20 24 -51 -28 c-29 -16 -56 -32
-60 -36 -5 -4 4 -53 19 -109 31 -115 31 -115 -48 -158 l-50 -27 33 -9 c19 -5
66 -7 104 -5 168 11 305 134 336 304 21 111 -31 257 -115 331 -95 83 -241 113
-358 74z"/>
<path d="M326 980 c-123 -37 -143 -214 -31 -277 49 -28 87 -29 140 -3 55 27
75 63 75 141 0 60 -2 64 -40 101 -24 22 -51 38 -65 38 -13 0 -29 2 -37 4 -7 2
-26 0 -42 -4z m109 -74 c49 -49 42 -115 -16 -154 -43 -30 -84 -23 -123 19 -24
27 -27 38 -23 73 8 54 44 86 98 86 29 0 47 -7 64 -24z"/>
<path d="M336 871 c-21 -23 -18 -70 6 -85 28 -17 72 4 76 38 4 31 -21 66 -48
66 -9 0 -25 -9 -34 -19z"/>
<path d="M1353 818 c2 -19 -16 -33 -103 -85 -58 -34 -111 -66 -117 -70 -10 -6
-7 -27 12 -92 41 -139 61 -115 -230 -281 -140 -80 -255 -149 -255 -155 0 -44
20 -36 296 125 154 89 283 165 287 170 5 4 -3 50 -17 103 -14 52 -26 99 -26
105 0 10 163 112 180 112 4 0 13 -7 20 -16 12 -13 16 -8 36 38 l22 53 -36 7
c-63 12 -72 10 -69 -14z"/>
<path d="M230 425 l0 -165 271 0 271 0 66 37 67 38 -264 3 c-175 1 -269 6
-278 13 -8 7 -13 34 -13 75 0 60 -2 65 -25 74 -19 7 -25 17 -25 40 0 24 -6 33
-26 40 -14 6 -30 10 -35 10 -5 0 -9 -69 -9 -165z"/>
<path d="M458 578 c-23 -8 -28 -16 -28 -43 0 -25 -5 -34 -21 -38 -18 -5 -20
-12 -17 -59 l3 -53 290 -3 c159 -1 296 0 303 3 9 3 5 14 -15 40 l-28 35 -202
0 c-233 0 -233 0 -233 81 0 52 -4 55 -52 37z"/>
<path d="M1698 425 c-3 -3 -3 -25 -1 -49 4 -35 1 -47 -20 -72 -22 -26 -31 -29
-76 -27 -43 2 -51 -1 -51 -15 0 -19 151 -172 187 -191 87 -44 196 39 178 135
-5 30 -26 58 -98 131 -84 86 -105 102 -119 88z m178 -232 c6 -23 -10 -61 -35
-80 -36 -28 -70 -15 -137 49 l-64 62 35 20 c20 12 43 36 53 57 l17 38 63 -62
c34 -34 65 -72 68 -84z"/>
<path d="M1577 392 c-16 -17 -15 -20 6 -41 26 -24 57 -20 57 9 0 15 -29 50
-42 50 -3 0 -12 -8 -21 -18z"/>
<path d="M1088 284 c-16 -8 -28 -17 -28 -19 0 -3 44 -5 97 -5 102 0 111 7 35
27 -60 16 -71 15 -104 -3z"/>
</g>
</svg>
