<?xml version="1.0" standalone="no"?>
<!DOCTYPE svg PUBLIC "-//W3C//DTD SVG 20010904//EN"
 "http://www.w3.org/TR/2001/REC-SVG-20010904/DTD/svg10.dtd">
<svg version="1.0" xmlns="http://www.w3.org/2000/svg"
 width="200.000000pt" height="200.000000pt" viewBox="0 0 200.000000 200.000000"
 preserveAspectRatio="xMidYMid meet">
<metadata>
Created by potrace 1.16, written by Peter Selinger 2001-2019
</metadata>
<g transform="translate(0.000000,200.000000) scale(0.100000,-0.100000)"
fill="#000000" stroke="none">
<path d="M764 1920 c-343 -90 -608 -360 -689 -698 -12 -49 -15 -76 -8 -83 15
-15 230 -72 248 -66 8 4 15 18 15 31 0 44 48 179 87 245 78 131 224 247 368
291 128 40 116 21 113 167 l-3 128 -30 2 c-16 1 -62 -6 -101 -17z m86 -120 c0
-64 -4 -92 -12 -94 -256 -74 -427 -225 -515 -456 -18 -47 -32 -95 -33 -107 0
-13 -3 -23 -7 -23 -16 0 -159 43 -166 50 -12 11 20 124 58 206 65 141 153 251
277 344 96 73 149 100 265 140 136 46 133 47 133 -60z"/>
<path d="M1100 1807 l0 -132 88 -27 c213 -66 378 -225 454 -438 19 -56 23 -84
23 -210 0 -132 -3 -152 -27 -220 -14 -41 -23 -79 -18 -83 17 -18 235 -75 247
-65 14 11 47 110 64 193 22 104 15 295 -14 407 -28 107 -90 242 -144 315 -55
74 -161 180 -230 229 -111 81 -322 164 -415 164 l-28 0 0 -133z m145 63 c250
-71 469 -260 576 -495 60 -132 74 -205 74 -375 -1 -149 -10 -213 -45 -304 l-9
-24 -82 24 c-45 13 -84 25 -86 28 -2 2 5 35 16 74 73 263 5 519 -188 713 -85
85 -174 140 -284 174 l-72 23 -3 91 c-3 106 -8 103 103 71z"/>
<path d="M1247 1479 c-13 -8 -15 -14 -7 -29 5 -10 10 -21 10 -24 0 -2 -30 -30
-66 -61 l-66 -55 -46 55 c-25 30 -51 55 -57 55 -6 0 -92 -68 -190 -151 -220
-185 -245 -207 -245 -218 0 -17 53 -72 66 -69 7 2 91 68 185 147 l171 143 45
-51 c24 -28 52 -51 62 -51 9 0 63 39 119 86 100 85 103 86 123 69 25 -24 33
-15 53 67 25 103 28 98 -61 98 -43 0 -86 -5 -96 -11z m123 -36 c-1 -30 -15
-53 -32 -53 -11 0 -64 -38 -119 -85 -55 -47 -103 -85 -108 -85 -4 0 -27 23
-50 50 -23 28 -48 50 -56 50 -7 0 -91 -65 -186 -145 -94 -79 -176 -142 -181
-139 -6 4 -4 12 4 19 46 44 361 305 368 305 4 0 27 -22 50 -50 23 -27 48 -50
55 -50 23 0 195 150 195 171 0 14 7 19 30 19 17 0 30 -3 30 -7z"/>
<path d="M1247 1203 c-4 -3 -7 -128 -7 -278 0 -197 3 -274 12 -283 16 -16 140
-16 156 0 17 17 17 539 0 556 -13 13 -149 17 -161 5z m123 -278 l0 -245 -45 0
-45 0 0 245 0 245 45 0 45 0 0 -245z"/>
<path d="M832 1078 c-17 -17 -17 -419 0 -436 16 -16 140 -16 156 0 17 17 17
419 0 436 -7 7 -40 12 -78 12 -38 0 -71 -5 -78 -12z m118 -218 l0 -180 -45 0
-45 0 0 180 0 180 45 0 45 0 0 -180z"/>
<path d="M1037 993 c-4 -3 -7 -84 -7 -179 0 -147 2 -173 16 -178 28 -11 140
-6 152 6 13 13 18 311 6 342 -5 13 -22 16 -83 16 -43 0 -81 -3 -84 -7z m123
-173 l0 -140 -45 0 -45 0 0 133 c0 74 3 137 7 140 3 4 24 7 45 7 l38 0 0 -140z"/>
<path d="M617 934 c-13 -13 -8 -279 5 -292 17 -17 142 -16 157 2 8 9 11 59 9
152 l-3 139 -80 3 c-45 1 -84 0 -88 -4z m133 -144 l0 -110 -45 0 -45 0 0 110
0 110 45 0 45 0 0 -110z"/>
<path d="M56 911 c-14 -22 34 -208 79 -306 117 -258 352 -452 633 -525 131
-34 126 -38 130 109 1 68 -1 128 -6 133 -4 4 -34 15 -65 23 -219 57 -403 231
-472 445 -10 30 -19 56 -20 58 -4 5 -244 72 -259 72 -8 0 -17 -4 -20 -9z m149
-71 c86 -24 105 -34 105 -57 0 -28 68 -159 115 -221 82 -109 230 -211 365
-253 l55 -17 3 -91 c2 -70 0 -91 -10 -91 -26 0 -154 39 -212 65 -247 110 -443
342 -504 600 -23 96 -24 98 -10 92 8 -2 50 -15 93 -27z"/>
<path d="M598 599 c-10 -5 -15 -16 -12 -24 9 -23 849 -22 858 0 3 8 -3 19 -14
25 -25 13 -809 13 -832 -1z"/>
<path d="M1433 484 c-86 -72 -167 -112 -290 -144 l-43 -11 0 -134 0 -135 27 0
c91 0 308 86 421 167 75 53 202 179 202 200 0 7 -10 18 -22 23 -28 11 -233 70
-244 70 -5 0 -28 -16 -51 -36z m169 -41 l89 -26 -48 -49 c-106 -109 -272 -207
-408 -243 -100 -26 -96 -29 -93 77 l3 92 50 12 c69 18 183 76 241 124 27 21
55 39 63 40 8 0 54 -12 103 -27z"/>
</g>
</svg>
