<?xml version="1.0" standalone="no"?>
<!DOCTYPE svg PUBLIC "-//W3C//DTD SVG 20010904//EN"
 "http://www.w3.org/TR/2001/REC-SVG-20010904/DTD/svg10.dtd">
<svg version="1.0" xmlns="http://www.w3.org/2000/svg"
 width="200.000000pt" height="200.000000pt" viewBox="0 0 200.000000 200.000000"
 preserveAspectRatio="xMidYMid meet">
<metadata>
Created by potrace 1.16, written by Peter Selinger 2001-2019
</metadata>
<g transform="translate(0.000000,200.000000) scale(0.100000,-0.100000)"
fill="#000000" stroke="none">
<path d="M61 1817 c-8 -11 -10 -180 -9 -628 l3 -614 451 -3 450 -2 51 -49 c66
-64 140 -98 240 -113 71 -10 89 -10 143 6 35 9 81 26 103 36 l41 20 28 -27
c19 -18 25 -30 18 -37 -20 -20 -8 -40 72 -122 94 -97 145 -123 201 -105 64 21
103 85 91 150 -6 28 -28 57 -99 130 -85 85 -95 93 -122 87 -23 -5 -34 -2 -52
18 l-22 24 25 50 c119 235 -18 527 -276 592 l-48 12 0 133 c0 129 -1 133 -22
139 -30 8 -182 8 -202 0 -14 -5 -16 -29 -16 -159 l0 -153 -32 -21 c-33 -20
-33 -20 -40 0 -7 18 -16 19 -125 17 l-118 -3 -3 -240 c-1 -132 0 -250 3 -262
5 -20 12 -23 59 -23 47 0 54 -3 64 -25 l12 -25 -415 0 -415 0 0 594 c0 490 -2
596 -14 605 -10 8 -16 8 -25 -2z m1247 -459 l-3 -113 -55 -6 c-30 -3 -65 -9
-77 -13 l-23 -7 0 125 0 126 80 0 81 0 -3 -112z m122 -182 c25 -9 67 -33 94
-54 224 -170 184 -520 -72 -640 -50 -24 -70 -27 -157 -27 -90 0 -106 3 -159
29 -79 39 -140 102 -179 184 -28 59 -32 77 -31 152 0 106 26 178 91 250 82 92
179 132 298 125 39 -2 90 -11 115 -19z m-440 -41 c0 -14 -16 -45 -35 -71 -52
-68 -78 -166 -73 -270 4 -82 4 -84 -19 -84 l-23 0 0 225 0 225 75 0 c73 0 75
-1 75 -25z m658 -608 l22 -23 -28 -27 -28 -27 -24 25 -23 25 24 24 c31 30 31
30 57 3z m92 -30 c0 -1 -28 -29 -62 -62 l-63 -60 60 63 c55 58 65 67 65 59z
m97 -99 c73 -72 82 -110 38 -153 -43 -44 -77 -35 -154 40 l-66 64 55 56 c30
30 57 55 59 55 3 0 34 -28 68 -62z"/>
<path d="M1195 1157 c-67 -23 -99 -43 -148 -96 -60 -64 -88 -127 -94 -212 -13
-170 98 -322 265 -365 156 -39 319 41 393 192 27 55 32 75 32 141 0 107 -28
178 -97 247 -72 71 -131 98 -231 102 -50 3 -95 -1 -120 -9z m230 -58 c55 -26
119 -90 147 -148 33 -65 33 -197 0 -258 -53 -101 -141 -160 -250 -170 -194
-18 -361 164 -322 350 26 125 103 211 220 244 57 16 150 8 205 -18z"/>
<path d="M1182 1068 c-7 -7 -12 -22 -12 -34 0 -12 -11 -29 -25 -38 -14 -9 -25
-23 -25 -31 0 -8 -13 -15 -32 -17 -25 -2 -33 -8 -33 -23 0 -15 8 -21 33 -23
26 -3 32 -7 32 -28 0 -18 -5 -24 -22 -24 -32 0 -52 -15 -45 -34 4 -10 18 -16
37 -16 28 0 31 -3 28 -27 -2 -23 -8 -29 -35 -31 -25 -2 -33 -8 -33 -23 0 -15
7 -19 34 -19 28 0 35 -4 38 -22 2 -13 13 -27 26 -33 12 -5 22 -19 22 -30 0
-30 16 -49 34 -42 10 4 16 18 16 37 0 27 3 30 29 30 26 0 30 -4 33 -32 2 -21
8 -33 18 -33 10 0 16 12 18 33 3 28 7 32 32 32 25 0 29 -4 32 -32 4 -43 32
-45 36 -3 2 20 11 34 25 40 12 6 26 20 32 32 6 14 20 23 40 25 42 4 40 32 -2
36 -29 3 -33 7 -33 33 0 26 3 29 30 29 19 0 33 6 37 16 7 19 -13 34 -44 34
-18 0 -23 6 -23 24 0 21 6 25 33 28 24 2 32 8 32 23 0 15 -8 21 -32 23 -21 2
-33 9 -33 18 0 8 -13 23 -30 32 -20 12 -30 26 -32 47 -4 42 -32 40 -36 -2 -3
-29 -7 -33 -32 -33 -25 0 -29 4 -32 33 -2 20 -8 32 -18 32 -10 0 -16 -12 -18
-32 -3 -29 -7 -33 -33 -33 -24 0 -29 4 -29 24 0 31 -22 50 -38 34z m256 -245
l3 -133 -141 0 -140 0 0 135 0 136 138 -3 137 -3 3 -132z"/>
<path d="M1084 1749 c-11 -18 14 -33 66 -39 l49 -5 -135 -109 -135 -109 -84
83 c-50 50 -89 81 -97 77 -18 -6 -465 -344 -472 -356 -3 -5 0 -14 8 -20 11
-10 60 22 242 159 l229 171 82 -83 c45 -46 88 -82 94 -80 6 2 72 53 146 114
74 60 136 108 138 106 3 -2 0 -20 -5 -39 -14 -48 -13 -59 9 -59 15 0 24 18 45
86 15 47 25 92 22 100 -7 18 -191 20 -202 3z"/>
<path d="M485 1318 c-3 -7 -4 -155 -3 -328 l3 -315 120 0 120 0 0 325 0 325
-118 3 c-89 2 -119 -1 -122 -10z m195 -318 l0 -290 -75 0 -75 0 0 290 0 290
75 0 75 0 0 -290z"/>
<path d="M174 1127 c-2 -7 -3 -111 -2 -232 l3 -220 118 -3 117 -3 0 236 0 235
-115 0 c-84 0 -117 -3 -121 -13z m196 -222 l0 -196 -77 3 -78 3 -3 180 c-1 98
0 185 2 192 4 9 29 13 81 13 l75 0 0 -195z"/>
</g>
</svg>
