<?xml version="1.0" standalone="no"?>
<!DOCTYPE svg PUBLIC "-//W3C//DTD SVG 20010904//EN"
 "http://www.w3.org/TR/2001/REC-SVG-20010904/DTD/svg10.dtd">
<svg version="1.0" xmlns="http://www.w3.org/2000/svg"
 width="200.000000pt" height="200.000000pt" viewBox="0 0 200.000000 200.000000"
 preserveAspectRatio="xMidYMid meet">
<metadata>
Created by potrace 1.16, written by Peter Selinger 2001-2019
</metadata>
<g transform="translate(0.000000,200.000000) scale(0.100000,-0.100000)"
fill="#000000" stroke="none">
<path d="M552 1934 c-17 -12 -22 -25 -22 -60 l0 -44 -50 0 c-86 0 -110 -21
-110 -97 l0 -33 -56 0 c-100 0 -94 21 -94 -312 l0 -290 -45 -40 c-50 -44 -54
-57 -26 -82 18 -16 18 -20 4 -56 -13 -32 -21 -39 -47 -42 -31 -3 -31 -3 -31
-63 0 -60 0 -60 31 -63 24 -2 34 -11 47 -37 15 -31 15 -34 -4 -51 -10 -9 -19
-25 -19 -34 0 -18 60 -80 78 -80 9 0 12 -41 12 -154 0 -127 3 -157 16 -170 13
-14 50 -16 242 -16 l227 -1 -37 -20 c-42 -21 -47 -42 -24 -88 32 -61 34 -61
187 28 l141 81 138 0 c153 0 168 3 180 34 6 17 22 25 71 35 35 7 86 23 114 36
l50 24 25 -24 c77 -74 177 20 103 97 l-26 27 27 61 c57 126 52 260 -14 376
-25 44 -30 65 -30 118 0 54 3 67 19 76 12 6 21 23 23 41 2 26 10 34 41 46 36
15 39 14 61 -6 12 -11 27 -21 32 -21 12 0 84 72 84 85 0 5 -10 19 -21 31 -20
22 -21 25 -6 61 13 33 19 38 51 41 l37 3 -3 62 c-3 62 -3 62 -37 67 -27 4 -36
12 -48 43 -14 33 -14 40 -1 55 29 34 29 41 -8 82 -42 46 -49 48 -80 19 -22
-20 -25 -21 -61 -6 -31 12 -39 20 -41 46 -2 17 -11 35 -22 41 -14 8 -19 25
-22 86 -3 60 -7 79 -23 90 -15 12 -105 14 -515 14 -432 0 -498 -2 -518 -16z
m1008 -98 c0 -55 -3 -66 -19 -71 -14 -4 -21 -17 -23 -42 -3 -31 -8 -37 -41
-50 -36 -15 -39 -14 -61 6 -12 11 -26 21 -31 21 -13 0 -85 -72 -85 -84 0 -5
10 -20 21 -32 20 -22 21 -25 6 -61 -11 -30 -21 -39 -43 -41 -42 -5 -54 -20
-54 -66 0 -53 8 -64 49 -68 28 -2 36 -9 48 -41 15 -36 14 -39 -6 -61 -11 -12
-21 -26 -21 -31 0 -13 72 -85 84 -85 5 0 20 10 32 21 22 20 25 21 61 6 33 -13
38 -19 41 -50 2 -25 9 -38 23 -42 14 -5 19 -16 19 -45 l0 -39 -56 34 c-72 44
-142 59 -241 53 -56 -3 -95 -12 -135 -31 -185 -84 -280 -306 -214 -495 l15
-42 -179 0 -180 0 0 700 0 700 495 0 495 0 0 -64z m-1030 -422 c0 -345 -1
-366 -17 -359 -10 4 -26 10 -35 12 -12 4 -18 15 -18 34 0 18 -7 32 -20 39 -19
10 -20 21 -20 325 l0 315 55 0 55 0 0 -366z m1080 271 c0 -21 5 -35 13 -35 6
0 35 -11 63 -24 l52 -24 20 21 c17 17 24 18 36 8 14 -12 14 -16 -4 -38 -19
-24 -19 -26 -1 -61 10 -21 21 -49 25 -64 5 -24 11 -28 41 -28 31 0 35 -3 35
-25 0 -22 -4 -25 -35 -25 -30 0 -36 -4 -41 -27 -4 -16 -15 -44 -25 -65 -18
-35 -18 -37 1 -61 17 -22 18 -26 5 -37 -13 -10 -19 -9 -36 6 -18 16 -24 16
-52 5 -18 -7 -47 -18 -64 -24 -29 -9 -33 -15 -33 -44 0 -29 -3 -33 -25 -33
-22 0 -25 5 -25 33 0 30 -4 33 -59 55 -70 26 -79 27 -103 5 -14 -12 -21 -14
-30 -5 -11 11 -8 24 14 53 9 13 8 24 -5 50 -8 19 -19 46 -22 62 -6 23 -12 27
-41 27 -30 0 -34 3 -34 25 0 22 4 25 34 25 31 0 35 4 41 33 4 17 14 44 23 58
15 27 13 38 -10 71 -10 13 -10 20 -1 29 9 9 18 7 38 -9 l26 -21 52 25 c29 13
58 24 65 24 7 0 12 14 12 35 0 31 3 35 25 35 22 0 25 -4 25 -35z m-1240 -280
c0 -244 -1 -255 -20 -265 -13 -7 -20 -21 -20 -39 0 -19 -6 -30 -17 -34 -10 -2
-26 -8 -35 -12 -17 -7 -18 11 -18 299 l0 306 55 0 55 0 0 -255z m50 -335 c0
-20 6 -32 18 -36 59 -19 92 -39 92 -55 0 -17 -4 -16 -46 6 -80 43 -159 29
-226 -38 -74 -74 -72 -186 6 -263 67 -67 139 -78 229 -33 29 15 37 17 37 5 0
-19 -18 -32 -67 -47 -36 -12 -43 -18 -45 -44 -3 -35 -38 -50 -38 -17 0 31 -11
52 -26 52 -7 0 -34 10 -58 22 -44 21 -46 21 -65 4 -12 -11 -27 -16 -37 -12
-15 6 -14 9 6 31 l24 25 -22 45 c-12 25 -22 52 -22 59 0 15 -21 26 -51 26 -31
0 -22 27 11 34 17 3 33 14 36 23 4 10 15 37 26 61 l20 43 -21 23 c-19 21 -20
24 -6 36 13 11 19 9 39 -9 l23 -21 44 22 c24 12 51 24 59 28 8 4 16 19 18 34
2 18 9 26 23 26 15 0 19 -7 19 -30z m1024 -73 c70 -32 140 -103 174 -175 23
-49 27 -70 27 -147 0 -78 -4 -98 -29 -152 -35 -76 -94 -134 -179 -174 -53 -25
-74 -29 -142 -29 -108 0 -116 8 -50 48 64 39 65 41 30 162 -13 46 -23 85 -22
86 1 1 28 16 60 34 l59 33 22 -28 23 -29 16 25 c22 33 77 164 77 183 0 17 -61
29 -160 30 -69 1 -70 0 -55 -49 5 -17 -11 -29 -100 -80 -57 -33 -107 -65 -109
-72 -3 -7 6 -50 19 -95 14 -46 25 -90 25 -99 0 -8 -18 -25 -39 -37 l-39 -22
-32 37 c-59 67 -75 116 -75 228 0 90 3 105 28 155 47 92 120 153 220 186 64
21 183 12 251 -19z m-975 -51 c46 -24 61 -57 61 -134 0 -62 -3 -71 -27 -94
-57 -52 -111 -62 -173 -30 -99 49 -107 191 -15 252 36 24 113 27 154 6z m974
-132 c13 -5 12 -12 -5 -55 -20 -47 -22 -49 -39 -33 -17 15 -23 13 -103 -36
-99 -59 -98 -55 -62 -180 14 -47 24 -85 23 -86 -1 -1 -128 -74 -282 -163 -261
-150 -281 -160 -289 -141 -5 11 -7 22 -5 24 2 2 115 68 252 147 156 90 247
149 247 158 0 9 -11 56 -25 105 -14 49 -22 92 -19 95 3 3 53 33 112 67 87 50
107 66 105 83 -2 18 3 21 36 21 22 0 46 -3 54 -6z m-1138 -246 c18 -8 25 -19
25 -41 0 -20 6 -30 20 -34 17 -5 20 -14 20 -62 0 -99 -11 -96 286 -99 l258 -3
-59 -34 -60 -34 -267 -1 -268 0 0 160 c0 95 4 160 10 160 5 0 21 -5 35 -12z
m225 -37 c0 -74 2 -75 233 -81 l199 -5 26 -32 25 -33 -297 0 -296 0 0 54 c0
45 3 54 20 59 14 4 20 14 20 35 0 24 6 32 28 40 42 16 42 15 42 -37z m1094
-150 c34 -37 -8 -69 -46 -34 -17 15 -17 17 -2 35 21 23 27 23 48 -1z m-416
-98 c66 -11 40 -23 -50 -23 l-93 0 30 20 c20 14 38 19 55 15 14 -4 40 -9 58
-12z"/>
<path d="M687 1764 c-10 -10 -9 -146 2 -162 5 -9 31 -12 92 -10 l84 3 0 85 0
85 -85 3 c-47 1 -89 0 -93 -4z m133 -79 l0 -45 -45 0 -45 0 0 45 0 45 45 0 45
0 0 -45z"/>
<path d="M924 1735 c-10 -26 7 -35 69 -35 69 0 93 10 84 34 -9 22 -145 23
-153 1z"/>
<path d="M923 1644 c-3 -9 0 -20 8 -25 23 -15 232 -11 254 4 38 28 7 37 -126
37 -110 0 -131 -2 -136 -16z"/>
<path d="M686 1525 c-3 -9 -6 -48 -6 -85 0 -82 8 -90 97 -90 87 0 95 9 91 105
l-3 80 -86 3 c-72 2 -88 0 -93 -13z m134 -80 l0 -45 -45 0 -45 0 0 45 0 45 45
0 45 0 0 -45z"/>
<path d="M922 1493 c3 -15 14 -18 78 -18 60 0 75 3 75 15 0 12 -17 16 -78 18
-71 3 -78 1 -75 -15z"/>
<path d="M931 1421 c-8 -5 -11 -16 -8 -25 9 -23 265 -24 274 -1 3 9 2 19 -2
23 -10 11 -248 14 -264 3z"/>
<path d="M698 1299 c-15 -8 -18 -24 -18 -82 0 -40 4 -78 9 -85 5 -9 31 -12 92
-10 l84 3 3 80 c2 66 0 82 -14 92 -21 15 -131 17 -156 2z m122 -84 l0 -45 -45
0 -45 0 0 45 0 45 45 0 45 0 0 -45z"/>
<path d="M923 1264 c-9 -23 15 -34 77 -34 62 0 86 11 77 34 -5 13 -21 16 -77
16 -56 0 -72 -3 -77 -16z"/>
<path d="M923 1174 c-3 -9 0 -20 8 -25 23 -15 232 -11 254 4 38 28 7 37 -126
37 -110 0 -131 -2 -136 -16z"/>
<path d="M1515 1581 c-66 -29 -115 -104 -115 -174 0 -27 28 -89 53 -115 96
-103 278 -55 306 81 18 82 -28 174 -103 208 -52 23 -90 24 -141 0z m143 -51
c59 -36 80 -126 42 -187 -69 -114 -250 -63 -250 70 0 108 116 173 208 117z"/>
<path d="M326 879 c-34 -40 -34 -88 -2 -126 20 -23 32 -28 71 -28 39 0 51 5
71 28 56 65 14 157 -71 157 -36 0 -48 -5 -69 -31z m106 -26 c35 -31 12 -85
-36 -85 -27 0 -55 25 -56 50 0 17 37 52 57 52 9 0 25 -7 35 -17z"/>
<path d="M1690 374 c0 -25 -4 -53 -10 -63 -13 -25 -58 -42 -99 -39 -19 2 -36
-2 -38 -7 -2 -6 41 -55 95 -108 94 -92 101 -97 142 -97 52 0 95 24 115 66 31
67 20 95 -85 207 -96 102 -120 110 -120 41z m173 -195 c0 -23 -8 -39 -27 -56
-44 -37 -70 -30 -142 38 l-64 62 33 17 c17 9 43 33 56 54 l25 37 60 -60 c48
-48 59 -66 59 -92z"/>
</g>
</svg>
