<?xml version="1.0" standalone="no"?>
<!DOCTYPE svg PUBLIC "-//W3C//DTD SVG 20010904//EN"
 "http://www.w3.org/TR/2001/REC-SVG-20010904/DTD/svg10.dtd">
<svg version="1.0" xmlns="http://www.w3.org/2000/svg"
 width="200.000000pt" height="200.000000pt" viewBox="0 0 200.000000 200.000000"
 preserveAspectRatio="xMidYMid meet">
<metadata>
Created by potrace 1.16, written by Peter Selinger 2001-2019
</metadata>
<g transform="translate(0.000000,200.000000) scale(0.100000,-0.100000)"
fill="#000000" stroke="none">
<path d="M986 1772 c-3 -5 -8 -32 -12 -60 -7 -58 -7 -58 -84 -89 -71 -29 -79
-29 -128 7 -23 17 -45 30 -50 30 -4 0 -32 -24 -61 -54 l-53 -54 36 -54 37 -55
-26 -54 c-13 -30 -25 -59 -25 -66 0 -17 -27 -29 -83 -37 -26 -4 -47 -13 -47
-19 0 -7 25 -25 55 -41 77 -40 132 -97 168 -173 37 -81 47 -182 23 -258 -8
-27 -14 -50 -13 -52 2 -1 24 12 50 29 l47 31 63 -28 c83 -37 84 -38 92 -100
l6 -55 84 0 84 0 6 55 c4 30 12 59 19 64 6 5 40 20 76 35 l65 26 51 -34 51
-34 58 58 57 58 -36 48 c-20 26 -35 53 -32 58 3 6 16 37 29 69 14 32 29 62 33
67 5 4 34 12 64 17 l55 8 0 80 0 80 -56 11 c-63 13 -79 20 -79 37 0 7 -11 36
-25 66 l-25 53 21 37 c19 31 13 27 -43 -28 l-66 -63 26 -57 c54 -117 26 -271
-68 -374 -70 -77 -143 -110 -250 -115 -119 -5 -183 20 -266 102 -78 78 -107
147 -107 258 0 64 5 87 31 142 53 114 145 184 269 207 72 14 137 4 211 -31
l59 -28 77 77 c42 42 76 80 76 84 0 15 -23 6 -60 -23 -21 -16 -46 -30 -56 -30
-28 0 -136 46 -144 62 -4 7 -11 37 -15 66 l-7 52 -78 0 c-44 0 -81 -4 -84 -8z"/>
<path d="M1858 1753 c-15 -4 -15 -8 -5 -24 11 -18 1 -30 -94 -124 -58 -58
-111 -105 -118 -105 -7 0 -44 30 -82 67 l-70 67 -219 -219 c-195 -195 -218
-221 -205 -235 14 -13 37 7 213 183 108 108 204 197 212 197 8 0 45 -30 82
-67 l68 -68 129 129 c110 110 132 128 145 117 16 -13 18 -9 29 62 4 25 2 27
-32 26 -20 -1 -44 -3 -53 -6z"/>
<path d="M985 1501 c-181 -47 -281 -255 -205 -428 27 -62 102 -137 163 -164
75 -33 173 -32 247 2 77 36 111 68 151 141 31 57 34 71 34 143 -1 54 -6 93
-18 119 l-17 40 -124 -122 c-67 -67 -129 -122 -137 -122 -21 0 -79 62 -79 85
0 10 54 73 122 141 l121 123 -49 22 c-53 23 -159 33 -209 20z"/>
<path d="M273 1201 c-137 -51 -217 -164 -217 -306 0 -125 69 -237 182 -292 50
-24 68 -28 142 -27 102 1 161 24 226 89 73 74 89 114 89 230 0 112 -14 151
-81 225 -78 86 -230 122 -341 81z m204 -16 c67 -20 144 -89 179 -161 36 -74
38 -174 4 -252 -61 -141 -242 -220 -382 -165 -130 50 -203 156 -203 293 1 91
25 149 91 215 78 77 196 104 311 70z"/>
<path d="M300 1145 c-104 -32 -180 -138 -180 -250 0 -198 207 -323 380 -229
131 71 175 223 103 356 -33 60 -86 102 -156 123 -61 18 -88 18 -147 0z m98
-43 c2 -12 16 -29 31 -37 44 -22 68 -101 33 -113 -7 -2 -19 12 -27 31 -24 58
-35 54 -35 -12 0 -48 3 -61 15 -61 9 0 27 -11 40 -25 43 -42 30 -126 -25 -159
-16 -9 -30 -26 -32 -39 -4 -29 -32 -29 -36 1 -2 13 -16 29 -33 38 -18 9 -37
31 -46 51 -13 32 -13 38 0 51 18 17 37 8 37 -17 0 -18 18 -41 32 -41 4 0 8 23
8 50 0 43 -3 52 -22 59 -81 31 -82 161 -2 191 13 5 24 18 24 28 0 38 33 41 38
4z"/>
<path d="M332 1008 c-15 -15 -15 -51 0 -66 21 -21 28 -13 28 33 0 46 -7 54
-28 33z"/>
<path d="M400 809 c0 -44 2 -50 15 -39 21 18 28 46 15 70 -18 34 -30 22 -30
-31z"/>
<path d="M561 571 c-17 -11 -8 -39 14 -48 26 -9 39 11 23 36 -14 24 -17 24
-37 12z"/>
<path d="M667 574 c-4 -4 -7 -17 -7 -29 0 -12 -10 -35 -22 -50 -20 -26 -25
-27 -80 -21 -47 5 -58 3 -58 -9 0 -15 92 -178 118 -207 39 -46 135 -39 172 11
36 52 27 103 -38 210 -55 92 -71 109 -85 95z m73 -167 c30 -57 33 -68 22 -91
-17 -38 -57 -54 -90 -35 -23 12 -92 111 -92 132 0 4 11 7 25 7 14 0 39 13 57
29 18 16 35 28 38 26 3 -2 21 -32 40 -68z"/>
</g>
</svg>
