<?xml version="1.0" standalone="no"?>
<!DOCTYPE svg PUBLIC "-//W3C//DTD SVG 20010904//EN"
 "http://www.w3.org/TR/2001/REC-SVG-20010904/DTD/svg10.dtd">
<svg version="1.0" xmlns="http://www.w3.org/2000/svg"
 width="200.000000pt" height="200.000000pt" viewBox="0 0 200.000000 200.000000"
 preserveAspectRatio="xMidYMid meet">
<metadata>
Created by potrace 1.16, written by Peter Selinger 2001-2019
</metadata>
<g transform="translate(0.000000,200.000000) scale(0.100000,-0.100000)"
fill="#000000" stroke="none">
<path d="M750 1919 c-180 -48 -386 -181 -495 -321 -91 -116 -168 -276 -189
-389 l-6 -36 82 -22 c46 -12 88 -21 93 -21 6 0 19 30 29 68 43 164 170 339
313 433 67 43 169 89 236 105 l27 6 0 99 c0 54 -3 99 -7 98 -5 0 -42 -9 -83
-20z"/>
<path d="M1150 1841 l0 -99 75 -23 c258 -76 468 -316 515 -586 17 -97 8 -269
-19 -353 -11 -35 -17 -67 -13 -71 11 -10 172 -52 177 -47 3 3 17 50 31 104 32
122 36 314 10 431 -61 277 -254 527 -503 652 -65 32 -184 74 -240 85 l-33 6 0
-99z"/>
<path d="M1320 1380 c0 -12 -35 -48 -96 -100 -52 -44 -99 -80 -104 -80 -11 0
-41 30 -77 78 -14 17 -29 32 -34 32 -13 0 -389 -320 -389 -331 0 -5 3 -9 8 -9
4 0 87 68 185 150 98 83 183 150 189 150 5 0 33 -25 62 -56 l53 -57 107 91
c59 50 117 92 129 94 13 2 23 13 28 31 7 26 5 27 -27 27 -27 0 -34 -4 -34 -20z"/>
<path d="M1300 920 l0 -260 45 0 45 0 0 260 0 260 -45 0 -45 0 0 -260z"/>
<path d="M860 855 l0 -195 45 0 45 0 0 195 0 195 -45 0 -45 0 0 -195z"/>
<path d="M1080 810 l0 -150 45 0 45 0 0 150 0 150 -45 0 -45 0 0 -150z"/>
<path d="M640 780 l0 -120 45 0 45 0 0 120 0 120 -45 0 -45 0 0 -120z"/>
<path d="M67 793 c37 -167 134 -341 259 -466 132 -132 295 -219 487 -261 l27
-6 0 98 0 99 -62 17 c-139 38 -303 153 -391 274 -42 57 -96 161 -112 216 -12
41 -12 41 -106 68 -52 15 -99 28 -106 28 -8 0 -7 -19 4 -67z"/>
<path d="M575 577 c-46 -34 -12 -37 440 -37 382 0 444 2 449 15 3 8 -3 19 -14
25 -12 6 -173 10 -437 10 -336 0 -423 -3 -438 -13z"/>
<path d="M1470 409 c-51 -44 -200 -120 -272 -139 l-48 -13 0 -98 0 -98 33 5
c75 14 216 68 287 110 80 48 195 141 230 186 l21 27 -38 10 c-21 6 -67 19
-103 29 l-65 19 -45 -38z"/>
</g>
</svg>
