<?xml version="1.0" standalone="no"?>
<!DOCTYPE svg PUBLIC "-//W3C//DTD SVG 20010904//EN"
 "http://www.w3.org/TR/2001/REC-SVG-20010904/DTD/svg10.dtd">
<svg version="1.0" xmlns="http://www.w3.org/2000/svg"
 width="200.000000pt" height="200.000000pt" viewBox="0 0 200.000000 200.000000"
 preserveAspectRatio="xMidYMid meet">
<metadata>
Created by potrace 1.16, written by Peter Selinger 2001-2019
</metadata>
<g transform="translate(0.000000,200.000000) scale(0.100000,-0.100000)"
fill="#000000" stroke="none">
<path d="M465 1833 c-11 -3 -30 -14 -42 -26 -21 -19 -23 -29 -23 -129 l0 -109
-106 -167 c-97 -152 -105 -169 -99 -202 9 -51 49 -113 89 -141 l36 -24 0 -427
c0 -412 1 -428 19 -438 21 -11 1306 -15 1335 -4 14 5 16 53 16 438 l0 431 40
37 c45 43 65 78 75 128 5 32 -3 50 -94 194 l-101 160 0 112 c0 105 -2 115 -24
141 l-24 28 -539 2 c-296 0 -547 -1 -558 -4z m1089 -49 c13 -5 16 -24 16 -105
l0 -99 -565 0 -565 0 0 99 c0 70 4 101 13 104 18 8 1082 8 1101 1z m-854 -251
c0 -5 -16 -70 -37 -145 l-36 -138 -189 0 -189 0 12 21 c6 12 35 58 63 103 29
44 65 100 79 124 l27 42 135 0 c74 0 135 -3 135 -7z m280 -138 l0 -145 -156 0
c-143 0 -155 1 -150 18 3 9 19 71 37 137 17 66 33 123 36 128 2 4 56 7 119 7
l114 0 0 -145z m305 25 c17 -63 35 -127 39 -142 l6 -28 -155 0 -155 0 0 145 0
146 117 -3 116 -3 32 -115z m362 0 c40 -63 80 -127 89 -142 l15 -28 -189 0
-189 0 -36 138 c-21 75 -37 141 -37 145 0 4 61 6 136 5 l137 -3 74 -115z
m-1042 -247 c-59 -142 -245 -165 -334 -42 -58 79 -58 79 159 79 l190 0 -15
-37z m371 5 c-15 -77 -94 -134 -172 -125 -70 8 -120 54 -138 130 l-6 27 161 0
162 0 -7 -32z m358 5 c-17 -74 -85 -133 -153 -133 -72 0 -143 58 -157 128 l-6
32 161 0 161 0 -6 -27z m421 0 c-9 -38 -50 -90 -85 -108 -105 -54 -230 -10
-275 98 l-15 37 191 0 191 0 -7 -27z m-1097 -86 c24 -41 110 -87 161 -87 48 1
116 33 153 72 l29 32 22 -26 c50 -58 123 -87 191 -74 45 9 120 60 135 93 l12
27 25 -32 c14 -18 47 -44 72 -60 40 -23 58 -27 120 -27 l72 0 0 -402 0 -403
-385 0 -385 0 -2 337 -3 338 -187 3 -188 2 0 -340 0 -340 -70 0 -70 0 0 399 0
398 69 5 c79 6 146 38 183 88 12 17 23 30 24 30 1 0 11 -15 22 -33z m182 -567
l0 -320 -150 0 -150 0 0 320 0 320 150 0 150 0 0 -320z"/>
<path d="M1225 936 c-43 -19 -66 -49 -72 -94 -5 -38 -7 -40 -46 -45 -22 -3
-46 -11 -53 -19 -8 -8 -23 -101 -40 -242 l-28 -229 23 -18 c21 -17 44 -19 262
-19 227 0 240 1 259 20 17 17 20 29 15 68 -3 26 -16 129 -29 230 -12 100 -27
187 -33 193 -6 6 -32 14 -57 16 -45 6 -46 6 -46 42 0 46 -23 79 -66 97 -40 17
-51 17 -89 0z m98 -53 c10 -9 17 -30 17 -50 l0 -33 -75 0 c-68 0 -75 2 -75 20
0 74 78 112 133 63z m-173 -173 c0 -33 3 -40 20 -40 17 0 20 7 20 40 l0 40 75
0 75 0 0 -35 c0 -23 6 -38 16 -42 20 -7 34 13 34 50 0 24 4 27 33 27 l33 0 26
-212 c14 -117 24 -216 21 -220 -7 -12 -461 -10 -468 2 -3 5 6 102 20 215 14
112 25 207 25 210 0 3 16 5 35 5 34 0 35 -1 35 -40z"/>
<path d="M1250 649 c0 -6 -13 -24 -30 -39 -16 -15 -30 -35 -30 -43 0 -26 34
-58 70 -66 38 -7 52 -34 24 -45 -9 -4 -28 1 -41 9 -24 16 -43 13 -43 -7 0 -17
69 -80 80 -73 6 3 10 11 10 17 0 5 11 19 25 30 47 37 21 108 -40 108 -30 0
-48 20 -34 37 13 15 45 17 54 3 9 -15 35 -12 35 4 0 17 -54 76 -69 76 -6 0
-11 -5 -11 -11z"/>
</g>
</svg>
