<?xml version="1.0" standalone="no"?>
<!DOCTYPE svg PUBLIC "-//W3C//DTD SVG 20010904//EN"
 "http://www.w3.org/TR/2001/REC-SVG-20010904/DTD/svg10.dtd">
<svg version="1.0" xmlns="http://www.w3.org/2000/svg"
 width="200.000000pt" height="200.000000pt" viewBox="0 0 200.000000 200.000000"
 preserveAspectRatio="xMidYMid meet">
<metadata>
Created by potrace 1.16, written by Peter Selinger 2001-2019
</metadata>
<g transform="translate(0.000000,200.000000) scale(0.100000,-0.100000)"
fill="#000000" stroke="none">
<path d="M432 1824 c-20 -14 -22 -23 -22 -115 l0 -99 595 0 595 0 0 99 c0 92
-2 101 -22 115 -20 14 -91 16 -573 16 -482 0 -553 -2 -573 -16z"/>
<path d="M311 1426 c-50 -79 -91 -149 -91 -155 0 -15 376 -16 385 -1 11 19 82
285 78 293 -2 4 -66 7 -142 7 l-138 0 -92 -144z"/>
<path d="M736 1562 c-3 -5 -23 -73 -44 -151 -28 -101 -36 -144 -28 -147 7 -3
79 -3 161 -2 l150 3 0 150 0 150 -117 3 c-64 1 -119 -1 -122 -6z"/>
<path d="M1024 1557 c-2 -7 -3 -76 -2 -152 l3 -140 150 -3 c82 -1 154 -1 161
2 8 3 0 46 -28 147 -21 78 -41 146 -44 151 -3 4 -57 8 -120 8 -85 0 -116 -3
-120 -13z"/>
<path d="M1317 1563 c-4 -9 66 -273 77 -292 10 -15 386 -16 386 0 0 6 -41 76
-91 155 l-92 144 -138 0 c-76 0 -140 -3 -142 -7z"/>
<path d="M200 1202 c0 -30 49 -90 96 -118 103 -61 231 -19 288 93 9 18 16 34
16 38 0 3 -90 5 -200 5 -185 0 -200 -1 -200 -18z"/>
<path d="M652 1183 c15 -57 52 -99 104 -119 40 -15 52 -16 92 -5 67 18 113 64
127 129 l7 32 -170 0 -170 0 10 -37z"/>
<path d="M1025 1188 c14 -65 60 -111 127 -129 86 -23 171 30 196 124 l10 37
-170 0 -170 0 7 -32z"/>
<path d="M1400 1216 c0 -18 34 -76 57 -97 84 -79 189 -86 274 -18 34 27 69 82
69 108 0 8 -61 11 -200 11 -110 0 -200 -2 -200 -4z"/>
<path d="M564 1085 c-41 -42 -62 -55 -103 -65 -29 -7 -70 -10 -92 -7 l-39 5 2
-426 3 -427 65 0 65 0 5 360 5 360 195 0 195 0 3 -362 2 -363 405 0 405 0 0
431 0 430 -45 -6 c-76 -12 -141 10 -202 70 l-53 51 -19 -32 c-26 -44 -87 -82
-141 -90 -68 -9 -128 11 -177 61 l-43 42 -43 -42 c-94 -95 -254 -79 -319 31
-11 19 -21 33 -21 32 -1 0 -25 -25 -53 -53z m798 -174 c25 -22 33 -39 37 -77
l6 -49 47 -3 c25 -2 51 -9 57 -16 6 -7 24 -118 40 -247 26 -207 28 -237 15
-256 -14 -23 -15 -23 -284 -23 l-270 0 -11 24 c-9 18 -5 78 16 252 15 126 31
237 36 246 6 11 24 18 56 20 l48 3 7 50 c10 70 49 105 118 105 41 0 56 -5 82
-29z"/>
<path d="M1230 882 c-16 -13 -23 -30 -24 -58 l-1 -39 78 -3 77 -3 0 39 c0 70
-76 108 -130 64z"/>
<path d="M1085 728 c-2 -7 -13 -94 -25 -193 -12 -99 -24 -197 -27 -217 l-6
-38 252 0 251 0 0 23 c0 12 -11 112 -25 222 -14 110 -25 203 -25 208 0 4 -18
7 -40 7 l-40 0 0 -46 c0 -38 -3 -45 -17 -42 -13 2 -19 15 -21 46 l-3 42 -80 0
-79 0 0 -46 c0 -38 -3 -45 -17 -42 -13 2 -19 15 -21 46 -3 41 -4 42 -38 42
-19 0 -36 -6 -39 -12z m215 -102 c0 -7 11 -21 25 -30 14 -9 25 -23 25 -31 0
-17 -31 -20 -47 -4 -15 15 -55 1 -51 -19 2 -9 19 -20 38 -25 75 -19 95 -78 40
-119 -16 -12 -30 -28 -30 -35 0 -21 -31 -15 -37 7 -3 10 -13 22 -23 25 -22 7
-34 35 -21 48 7 7 15 6 25 -2 20 -17 71 -10 71 9 0 8 -16 19 -39 25 -40 11
-76 46 -76 72 0 8 14 28 30 43 17 15 30 33 30 39 0 6 9 11 20 11 11 0 20 -6
20 -14z"/>
<path d="M515 838 c-3 -7 -4 -162 -3 -343 l3 -330 155 0 155 0 0 340 0 340
-153 3 c-117 2 -154 0 -157 -10z"/>
</g>
</svg>
