<?xml version="1.0" standalone="no"?>
<!DOCTYPE svg PUBLIC "-//W3C//DTD SVG 20010904//EN"
 "http://www.w3.org/TR/2001/REC-SVG-20010904/DTD/svg10.dtd">
<svg version="1.0" xmlns="http://www.w3.org/2000/svg"
 width="200.000000pt" height="200.000000pt" viewBox="0 0 200.000000 200.000000"
 preserveAspectRatio="xMidYMid meet">
<metadata>
Created by potrace 1.16, written by Peter Selinger 2001-2019
</metadata>
<g transform="translate(0.000000,200.000000) scale(0.100000,-0.100000)"
fill="#000000" stroke="none">
<path d="M1140 1814 c-76 -33 -140 -129 -140 -210 0 -35 -5 -45 -40 -73 -22
-17 -40 -36 -40 -41 0 -6 25 -10 55 -10 51 0 58 -3 96 -40 143 -139 389 -32
389 169 0 51 -41 132 -84 168 -64 52 -164 68 -236 37z m135 -86 c44 -41 56
-70 35 -83 -6 -4 -23 7 -39 24 -34 36 -41 37 -71 13 -21 -17 -21 -19 -5 -35 9
-9 30 -17 46 -17 33 0 79 -38 79 -65 0 -27 -20 -55 -46 -65 -13 -5 -24 -16
-24 -25 0 -8 -9 -15 -20 -15 -11 0 -20 6 -20 14 0 8 -9 18 -20 21 -26 8 -54
50 -46 70 8 23 31 18 44 -10 13 -29 61 -35 82 -10 17 20 -3 45 -37 45 -37 0
-82 28 -89 55 -7 29 18 75 46 82 10 3 20 13 23 24 3 10 8 19 11 19 3 0 26 -19
51 -42z"/>
<path d="M510 1721 c-102 -32 -201 -110 -260 -202 -35 -53 -70 -150 -70 -191
l0 -29 76 3 77 3 11 45 c24 93 124 198 211 221 22 5 46 12 53 14 8 3 12 28 12
80 l0 75 -27 -1 c-16 0 -53 -8 -83 -18z"/>
<path d="M580 1444 c-42 -18 -77 -50 -96 -86 -14 -27 -14 -27 28 -38 24 -6 59
-15 78 -21 19 -5 38 -9 43 -9 4 0 7 38 7 85 0 93 -1 95 -60 69z"/>
<path d="M680 1365 l0 -95 56 -87 56 -86 24 29 c82 100 54 248 -57 309 -77 41
-79 39 -79 -70z"/>
<path d="M1641 1302 c-52 -20 -96 -43 -99 -49 -7 -24 28 -26 78 -5 l50 21 -11
-22 c-7 -12 -71 -81 -143 -153 -150 -150 -289 -248 -476 -338 -201 -97 -458
-166 -616 -166 -76 0 -94 -6 -94 -32 0 -18 5 -19 78 -13 193 16 364 55 532
122 255 101 451 233 642 432 l115 120 -5 -48 c-4 -49 11 -78 28 -51 13 21 33
201 24 210 -5 5 -49 -7 -103 -28z"/>
<path d="M460 1251 c0 -117 126 -218 241 -192 22 5 43 12 46 15 6 6 -31 72
-75 131 -26 37 -36 42 -108 59 -43 10 -85 21 -91 23 -9 4 -13 -7 -13 -36z"/>
<path d="M180 1196 c0 -37 34 -140 63 -188 14 -24 52 -68 84 -99 76 -73 159
-115 261 -133 l33 -6 -3 82 -3 81 -48 12 c-96 24 -192 120 -219 219 l-15 51
-76 3 c-76 3 -77 2 -77 -22z"/>
<path d="M976 1166 c-9 -30 -31 -74 -49 -98 -46 -60 -109 -105 -173 -124 l-54
-15 0 -79 0 -79 33 5 c149 26 287 124 354 251 28 53 38 82 57 166 l6 27 -79 0
-80 0 -15 -54z"/>
<path d="M1620 560 l0 -390 100 0 100 0 0 390 0 390 -100 0 -100 0 0 -390z"/>
<path d="M1200 420 l0 -250 100 0 100 0 0 250 0 250 -100 0 -100 0 0 -250z"/>
<path d="M780 340 l0 -170 105 0 105 0 0 170 0 170 -105 0 -105 0 0 -170z"/>
<path d="M360 285 l0 -115 105 0 105 0 0 115 0 115 -105 0 -105 0 0 -115z"/>
</g>
</svg>
