<?xml version="1.0" standalone="no"?>
<!DOCTYPE svg PUBLIC "-//W3C//DTD SVG 20010904//EN"
 "http://www.w3.org/TR/2001/REC-SVG-20010904/DTD/svg10.dtd">
<svg version="1.0" xmlns="http://www.w3.org/2000/svg"
 width="200.000000pt" height="200.000000pt" viewBox="0 0 200.000000 200.000000"
 preserveAspectRatio="xMidYMid meet">
<metadata>
Created by potrace 1.16, written by Peter Selinger 2001-2019
</metadata>
<g transform="translate(0.000000,200.000000) scale(0.100000,-0.100000)"
fill="#000000" stroke="none">
<path d="M663 1906 c-79 -25 -139 -90 -157 -168 -6 -27 -9 -28 -70 -28 -77 0
-76 1 -76 -121 l0 -89 -60 0 -60 0 0 -176 0 -176 29 -29 c16 -16 37 -29 45
-29 14 0 16 -50 16 -485 l0 -484 -62 -3 c-48 -2 -63 -7 -63 -18 0 -13 95 -15
795 -15 700 0 795 2 795 15 0 11 -15 16 -62 18 l-63 3 0 484 c0 435 2 485 16
485 8 0 29 13 45 29 l29 29 0 176 0 176 -60 0 -60 0 0 89 c0 122 1 121 -76
121 l-63 0 -11 38 c-15 59 -62 116 -117 143 -47 24 -54 24 -358 26 -235 2
-320 -1 -352 -11z m945 -318 l3 -88 -611 0 -610 0 0 83 c0 46 3 87 7 90 3 4
277 6 607 5 l601 -3 3 -87z m-998 -267 c0 -135 -2 -151 -21 -175 -27 -34 -86
-37 -115 -5 -17 18 -19 40 -22 175 l-3 154 80 0 81 0 0 -149z m370 -4 c0 -179
-6 -197 -70 -197 -27 0 -45 7 -60 22 -18 20 -20 35 -20 175 l0 153 75 0 75 0
0 -153z m190 0 c0 -140 -2 -155 -20 -175 -15 -15 -33 -22 -60 -22 -64 0 -70
18 -70 197 l0 153 75 0 75 0 0 -153z m378 -1 c-3 -135 -5 -157 -22 -175 -29
-32 -88 -29 -115 5 -19 24 -21 40 -21 175 l0 149 81 0 80 0 -3 -154z m-1081
-206 c32 -25 88 -26 128 -1 29 18 31 18 67 -3 l38 -21 0 -232 0 -232 -52 -3
c-39 -2 -53 -7 -53 -18 0 -11 14 -16 53 -18 l52 -3 0 -230 0 -229 -170 0 -170
0 0 485 c0 381 3 485 13 485 6 0 23 9 37 20 31 24 27 24 57 0z m373 0 c34 -27
99 -26 134 1 l26 20 26 -20 c35 -28 97 -28 135 0 l29 20 26 -20 c34 -26 90
-27 128 -2 28 19 29 19 60 0 41 -25 96 -24 130 2 l26 20 29 -20 c16 -12 34
-21 40 -21 8 0 11 -140 11 -485 l0 -485 -455 0 -455 0 0 478 0 479 38 25 c46
32 42 32 72 8z"/>
<path d="M1146 715 c-138 -172 -179 -234 -146 -223 15 5 320 391 320 406 0 6
-4 12 -9 12 -5 0 -79 -88 -165 -195z"/>
<path d="M1255 520 c-143 -181 -169 -220 -146 -220 13 0 321 383 321 399 0 32
-39 -7 -175 -179z"/>
</g>
</svg>
