<?xml version="1.0" standalone="no"?>
<!DOCTYPE svg PUBLIC "-//W3C//DTD SVG 20010904//EN"
 "http://www.w3.org/TR/2001/REC-SVG-20010904/DTD/svg10.dtd">
<svg version="1.0" xmlns="http://www.w3.org/2000/svg"
 width="200.000000pt" height="200.000000pt" viewBox="0 0 200.000000 200.000000"
 preserveAspectRatio="xMidYMid meet">
<metadata>
Created by potrace 1.16, written by Peter Selinger 2001-2019
</metadata>
<g transform="translate(0.000000,200.000000) scale(0.100000,-0.100000)"
fill="#000000" stroke="none">
<path d="M1109 1805 c-72 -38 -129 -129 -129 -208 0 -24 -11 -43 -46 -78 -26
-26 -43 -52 -40 -58 4 -6 33 -11 65 -11 51 0 62 -4 90 -31 48 -46 107 -69 176
-69 165 0 280 155 233 312 -15 51 -82 126 -133 149 -59 27 -157 25 -216 -6z
m223 -44 c61 -39 103 -120 96 -186 -12 -102 -84 -175 -182 -183 -70 -6 -117
11 -167 59 -32 31 -48 39 -77 39 l-36 0 27 28 c19 20 27 39 27 64 0 46 17 95
48 137 55 74 181 94 264 42z"/>
<path d="M1210 1738 c-1 -7 -15 -22 -33 -33 -44 -28 -49 -74 -11 -104 15 -11
36 -21 48 -21 12 0 31 -6 41 -14 26 -19 13 -46 -22 -46 -33 0 -47 9 -56 33 -9
23 -31 17 -35 -9 -2 -12 12 -33 37 -57 21 -20 41 -37 44 -37 2 0 23 17 46 38
28 26 41 46 41 64 0 33 -42 68 -80 68 -36 0 -57 24 -40 45 19 23 57 18 76 -10
20 -31 44 -32 44 -2 0 13 -16 37 -40 60 -41 38 -60 46 -60 25z"/>
<path d="M530 1731 c-83 -27 -132 -55 -193 -111 -86 -79 -135 -166 -157 -280
-5 -29 -5 -49 2 -57 11 -14 155 -18 174 -5 6 4 15 23 19 42 23 110 120 205
232 228 l38 8 0 94 0 95 -30 2 c-16 1 -55 -6 -85 -16z m80 -81 c0 -43 -4 -60
-13 -60 -31 0 -138 -64 -176 -105 -37 -40 -69 -97 -85 -147 -4 -14 -17 -18
-62 -18 l-56 0 6 38 c26 146 177 301 331 338 28 7 51 13 53 13 1 1 2 -26 2
-59z"/>
<path d="M635 1493 c-127 -30 -205 -120 -205 -238 0 -105 72 -201 172 -230
221 -63 393 188 257 375 -45 61 -158 109 -224 93z m15 -129 c0 -77 -2 -85 -17
-80 -10 3 -48 13 -85 22 l-67 16 13 27 c25 48 98 101 139 101 15 0 17 -11 17
-86z m105 67 c112 -50 147 -190 74 -291 l-31 -42 -54 81 -54 80 0 96 c0 106 0
106 65 76z m-162 -179 c61 -17 63 -19 115 -95 30 -43 51 -81 48 -85 -4 -3 -38
-8 -76 -10 -57 -4 -75 0 -109 19 -53 29 -91 87 -98 151 l-6 50 32 -7 c17 -4
59 -14 94 -23z"/>
<path d="M1618 1293 c-81 -32 -104 -52 -79 -68 5 -3 33 4 61 15 l51 20 -11
-20 c-6 -11 -54 -66 -107 -121 -285 -297 -662 -478 -1077 -518 -100 -10 -130
-21 -110 -41 14 -14 185 2 318 30 361 74 739 299 969 574 l49 60 -7 -51 c-7
-50 5 -77 25 -57 15 16 39 188 28 202 -13 15 -7 17 -110 -25z"/>
<path d="M188 1229 c-20 -11 -17 -39 13 -134 50 -156 198 -290 361 -325 85
-19 88 -16 88 89 l0 91 -27 6 c-129 27 -224 116 -248 234 -4 19 -13 38 -19 42
-16 11 -148 9 -168 -3z m160 -91 c36 -102 122 -184 220 -211 l42 -11 0 -58 0
-57 -32 5 c-69 12 -178 73 -233 128 -56 58 -110 155 -121 219 l-6 38 57 -3 57
-3 16 -47z"/>
<path d="M984 1232 c-6 -4 -16 -29 -24 -55 -31 -115 -118 -194 -242 -221 l-28
-6 0 -91 c0 -105 3 -108 86 -90 146 33 274 137 340 274 39 84 55 174 33 188
-17 11 -150 12 -165 1z m131 -74 c-10 -50 -58 -148 -94 -193 -61 -75 -158
-133 -263 -159 l-28 -6 0 59 0 58 45 13 c52 14 120 60 159 106 29 36 65 110
66 137 0 14 10 17 61 17 l61 0 -7 -32z"/>
<path d="M1592 958 c-17 -17 -17 -769 0 -786 16 -16 210 -16 226 0 17 17 17
769 0 786 -16 16 -210 16 -226 0z m198 -393 l0 -355 -85 0 -85 0 0 355 0 355
85 0 85 0 0 -355z"/>
<path d="M1177 694 c-13 -13 -8 -509 5 -522 18 -18 212 -16 227 2 8 9 11 88 9
267 l-3 254 -116 3 c-63 1 -118 -1 -122 -4z m203 -259 l0 -225 -85 0 -85 0 0
225 0 225 85 0 85 0 0 -225z"/>
<path d="M767 533 c-13 -12 -8 -348 5 -361 16 -16 210 -16 226 0 13 13 18 321
6 352 -5 13 -25 16 -118 16 -62 0 -116 -3 -119 -7z m203 -178 l0 -145 -85 0
-85 0 0 145 0 145 85 0 85 0 0 -145z"/>
<path d="M362 428 c-17 -17 -17 -239 0 -256 16 -16 210 -16 226 0 17 17 17
239 0 256 -16 16 -210 16 -226 0z m196 -125 l3 -93 -86 0 -85 0 0 88 c0 49 3
92 7 96 4 4 41 5 83 4 l75 -3 3 -92z"/>
</g>
</svg>
