<?xml version="1.0" standalone="no"?>
<!DOCTYPE svg PUBLIC "-//W3C//DTD SVG 20010904//EN"
 "http://www.w3.org/TR/2001/REC-SVG-20010904/DTD/svg10.dtd">
<svg version="1.0" xmlns="http://www.w3.org/2000/svg"
 width="200.000000pt" height="200.000000pt" viewBox="0 0 200.000000 200.000000"
 preserveAspectRatio="xMidYMid meet">
<metadata>
Created by potrace 1.16, written by Peter Selinger 2001-2019
</metadata>
<g transform="translate(0.000000,200.000000) scale(0.100000,-0.100000)"
fill="#000000" stroke="none">
<path d="M1236 1784 c-24 -38 -31 -43 -38 -30 -9 15 -38 23 -38 10 0 -11 41
-74 49 -74 7 0 81 121 81 133 0 22 -29 1 -54 -39z"/>
<path d="M1315 1809 c-16 -25 21 -29 261 -27 213 3 249 5 249 18 0 13 -36 15
-252 18 -175 2 -254 -1 -258 -9z"/>
<path d="M570 1789 c-55 -25 -105 -71 -133 -124 -28 -53 -30 -154 -3 -213 15
-34 17 -44 6 -57 -7 -8 -20 -13 -29 -10 -12 3 -51 -30 -129 -108 -126 -128
-134 -147 -83 -198 51 -50 71 -42 204 89 63 63 97 104 97 118 0 38 24 48 72
30 179 -72 377 76 355 267 -20 169 -204 275 -357 206z m173 -20 c87 -24 151
-115 151 -214 0 -129 -95 -225 -224 -225 -129 0 -224 96 -224 225 0 157 140
258 297 214z m-254 -403 c9 -10 8 -16 -4 -26 -21 -17 -51 6 -34 26 6 8 15 14
19 14 4 0 13 -6 19 -14z m-35 -96 c-13 -13 -79 53 -69 70 5 8 19 1 43 -24 25
-24 33 -39 26 -46z m-89 -90 l-60 -60 -35 35 -35 35 60 60 60 60 35 -35 35
-35 -60 -60z m-95 -90 c-21 -13 -25 -13 -50 8 -18 15 -22 24 -16 47 l7 28 37
-37 c31 -30 34 -38 22 -46z"/>
<path d="M584 1725 c-182 -91 -117 -365 87 -365 89 0 165 61 190 152 21 79
-21 168 -99 211 -63 34 -113 35 -178 2z m149 -19 c104 -44 136 -179 61 -260
-104 -111 -286 -42 -286 109 0 118 118 197 225 151z"/>
<path d="M1307 1734 c-18 -18 16 -24 139 -24 112 0 134 2 134 15 0 13 -21 15
-133 15 -74 0 -137 -3 -140 -6z"/>
<path d="M1236 1574 c-24 -38 -31 -43 -38 -30 -9 15 -38 23 -38 10 0 -11 41
-74 48 -74 9 0 82 118 82 131 0 23 -28 5 -54 -37z"/>
<path d="M1310 1600 c-35 -23 21 -30 255 -30 141 0 246 4 255 10 35 23 -21 30
-255 30 -141 0 -246 -4 -255 -10z"/>
<path d="M1307 1524 c-18 -18 16 -24 139 -24 112 0 134 2 134 15 0 13 -21 15
-133 15 -74 0 -137 -3 -140 -6z"/>
<path d="M1453 1370 c-24 -10 -39 -50 -29 -76 9 -23 -162 -206 -188 -200 -10
3 -29 0 -43 -5 -21 -8 -37 -2 -98 33 -59 34 -75 49 -79 72 -9 42 -24 56 -61
56 -34 0 -65 -25 -65 -54 0 -11 -22 -27 -67 -47 -64 -29 -77 -30 -130 -14 -26
8 -73 -33 -73 -65 0 -53 84 -81 114 -38 9 12 16 30 16 38 0 11 27 27 76 48 69
29 78 30 98 17 18 -12 29 -13 53 -4 28 9 38 6 106 -36 43 -27 74 -52 71 -59
-3 -7 5 -24 16 -39 41 -52 115 -23 109 41 -3 26 9 44 83 125 78 84 90 93 116
89 63 -9 96 68 46 107 -29 23 -38 24 -71 11z m61 -42 c8 -14 7 -21 -6 -34 -30
-30 -75 9 -48 42 16 18 39 15 54 -8z m-535 -122 c17 -20 2 -46 -25 -46 -26 0
-40 20 -30 45 7 19 40 20 55 1z m-269 -111 c6 -8 10 -22 8 -32 -4 -24 -47 -24
-62 0 -9 15 -7 21 8 33 25 18 31 18 46 -1z m533 -47 c14 -21 2 -48 -22 -48
-30 0 -45 34 -25 55 18 18 33 16 47 -7z"/>
<path d="M485 1147 c-3 -6 -4 -199 -3 -427 l3 -415 414 -3 413 -2 42 -43 c62
-64 106 -82 201 -82 91 0 137 17 191 72 133 133 99 354 -68 437 -29 14 -62 26
-75 26 l-23 0 0 200 c0 231 10 213 -115 208 l-70 -3 -5 -226 -5 -225 -37 -45
-38 -44 0 128 0 127 -89 0 c-72 0 -90 -3 -95 -16 -8 -20 -8 -368 0 -388 5 -13
22 -16 79 -16 41 0 76 -3 78 -7 3 -5 8 -23 12 -41 l7 -32 -394 2 -393 3 -3
413 c-1 272 -6 412 -12 412 -6 0 -13 -6 -15 -13z m1065 -247 l0 -180 -27 -5
c-16 -4 -45 -12 -65 -20 l-38 -13 0 199 0 199 65 0 65 0 0 -180z m-270 -275
l0 -175 -60 0 -60 0 0 175 0 175 60 0 60 0 0 -175z m397 25 c146 -84 162 -282
33 -392 -90 -78 -220 -78 -310 0 -130 110 -113 308 33 392 44 25 62 30 122 30
60 0 78 -5 122 -30z"/>
<path d="M1540 590 c0 -11 -6 -20 -13 -20 -22 0 -57 -45 -57 -73 0 -36 30 -64
77 -72 21 -4 44 -8 51 -10 15 -5 16 -47 0 -63 -17 -17 -68 -15 -90 5 -10 9
-21 13 -25 9 -10 -10 10 -39 35 -51 12 -5 22 -18 22 -27 0 -10 7 -18 15 -18 8
0 15 7 15 15 0 8 13 21 29 29 32 17 41 34 41 75 0 36 -24 57 -79 68 -50 9 -72
33 -55 61 15 23 71 28 94 7 18 -17 40 -13 40 6 0 5 -16 19 -35 30 -19 12 -35
27 -35 35 0 8 -7 14 -15 14 -8 0 -15 -9 -15 -20z"/>
<path d="M862 703 l3 -288 87 -3 c84 -3 88 -2 93 20 3 13 4 142 3 288 l-3 265
-93 3 -92 3 2 -288z m148 -3 l0 -260 -60 0 -60 0 0 260 0 260 60 0 60 0 0
-260z"/>
<path d="M602 872 c-9 -7 -12 -60 -10 -233 l3 -224 90 0 90 0 0 230 0 230 -80
3 c-44 1 -86 -2 -93 -6z m148 -227 l0 -195 -65 0 -65 0 0 195 0 195 65 0 65 0
0 -195z"/>
</g>
</svg>
