<?xml version="1.0" standalone="no"?>
<!DOCTYPE svg PUBLIC "-//W3C//DTD SVG 20010904//EN"
 "http://www.w3.org/TR/2001/REC-SVG-20010904/DTD/svg10.dtd">
<svg version="1.0" xmlns="http://www.w3.org/2000/svg"
 width="200.000000pt" height="200.000000pt" viewBox="0 0 200.000000 200.000000"
 preserveAspectRatio="xMidYMid meet">
<metadata>
Created by potrace 1.16, written by Peter Selinger 2001-2019
</metadata>
<g transform="translate(0.000000,200.000000) scale(0.100000,-0.100000)"
fill="#000000" stroke="none">
<path d="M301 1783 c-5 -10 -34 -99 -66 -198 -50 -160 -56 -186 -50 -235 4
-30 15 -70 26 -88 18 -31 19 -57 19 -439 l0 -405 -25 -30 c-30 -35 -32 -77 -6
-109 l19 -24 589 -5 c549 -5 590 -6 622 -24 51 -27 137 -32 201 -11 62 21 132
81 162 139 25 49 34 138 19 192 -24 89 -105 171 -193 194 l-38 11 0 239 c0
225 1 242 21 280 35 67 23 168 -43 365 l-53 160 -597 3 c-561 2 -598 1 -607
-15z m213 -60 c-21 -93 -54 -307 -54 -350 0 -88 -35 -132 -105 -133 -71 0
-115 53 -115 138 0 29 61 233 105 350 3 8 30 12 89 12 75 0 84 -2 80 -17z
m230 -180 c-3 -109 -10 -213 -16 -230 -26 -86 -146 -100 -191 -23 -24 40 -22
101 10 288 l28 162 87 0 88 0 -6 -197z m260 105 c3 -50 6 -149 6 -219 l0 -127
-31 -31 c-25 -25 -39 -31 -76 -31 -36 0 -50 6 -74 29 l-29 29 0 154 c0 84 3
183 7 221 l6 67 92 0 92 0 7 -92z m259 -73 c36 -205 34 -266 -11 -306 -43 -38
-98 -40 -141 -3 -37 31 -38 39 -46 282 l-6 193 88 -3 88 -3 28 -160z m255 -5
c47 -146 52 -171 46 -219 -8 -73 -44 -111 -104 -111 -23 0 -50 5 -61 10 -29
16 -49 64 -49 117 0 26 -13 121 -29 211 l-28 163 86 -3 85 -3 54 -165z m-681
-379 c12 -6 43 -11 68 -11 51 0 77 10 116 47 22 20 27 22 32 9 9 -24 82 -56
127 -56 44 0 118 32 127 56 4 11 12 8 39 -15 37 -33 87 -46 140 -38 l34 6 0
-218 0 -219 -43 -10 c-123 -31 -215 -156 -205 -279 l3 -43 -492 0 -493 0 0
383 0 382 63 0 c54 0 69 4 100 28 l37 28 36 -27 c65 -50 165 -43 218 15 l19
21 26 -24 c14 -13 36 -29 48 -35z m791 -517 c216 -90 149 -415 -85 -414 -186
1 -282 228 -155 364 58 61 161 83 240 50z m-320 -336 c7 -7 12 -16 12 -20 0
-5 -242 -7 -537 -6 -503 3 -538 4 -541 21 -3 16 27 17 525 17 398 0 532 -3
541 -12z"/>
<path d="M1282 1148 c-7 -7 -12 -26 -12 -43 0 -22 -6 -33 -22 -40 -22 -10 -23
-14 -23 -150 0 -136 1 -140 23 -150 16 -7 22 -18 22 -41 0 -40 23 -62 45 -44
8 7 15 27 15 44 0 23 6 34 23 41 21 10 22 14 22 155 0 143 0 145 -22 148 -19
3 -23 10 -23 42 0 25 -5 40 -16 44 -20 8 -18 8 -32 -6z m38 -233 c0 -88 -1
-95 -20 -95 -19 0 -20 7 -20 95 0 88 1 95 20 95 19 0 20 -7 20 -95z"/>
<path d="M1017 1064 c-4 -4 -7 -22 -7 -41 0 -27 -5 -35 -25 -43 l-25 -10 0
-140 0 -140 25 -10 c21 -8 25 -16 25 -50 0 -37 2 -41 23 -38 18 2 23 10 25 41
3 30 9 40 28 47 24 9 24 10 24 150 0 140 0 141 -24 150 -19 7 -25 17 -28 47
-3 36 -23 54 -41 37z m33 -234 c0 -73 -3 -90 -15 -90 -12 0 -15 17 -15 90 0
73 3 90 15 90 12 0 15 -17 15 -90z"/>
<path d="M477 1034 c-4 -4 -7 -22 -7 -41 0 -27 -5 -35 -25 -43 -25 -9 -25 -10
-25 -139 0 -143 3 -161 31 -161 15 0 19 -7 19 -32 0 -42 12 -61 36 -56 14 2
20 13 22 45 3 34 7 42 25 45 21 3 22 7 25 146 l3 142 -25 11 c-19 9 -26 21
-28 48 -2 27 -8 37 -23 39 -12 2 -24 0 -28 -4z m43 -229 c0 -88 -1 -95 -20
-95 -19 0 -20 7 -20 95 0 88 1 95 20 95 19 0 20 -7 20 -95z"/>
<path d="M747 913 c-4 -3 -7 -23 -7 -44 0 -31 -4 -38 -22 -41 -23 -3 -23 -5
-23 -148 0 -142 1 -145 22 -148 18 -3 22 -11 25 -45 3 -37 6 -42 28 -42 22 0
25 5 28 43 2 33 7 42 22 42 26 0 30 19 30 150 0 132 -4 150 -31 150 -15 0 -19
7 -19 33 0 44 -31 73 -53 50z m43 -233 c0 -83 -1 -90 -20 -90 -19 0 -20 7 -20
90 0 83 1 90 20 90 19 0 20 -7 20 -90z"/>
<path d="M1527 664 c-4 -4 -7 -14 -7 -23 0 -9 -15 -23 -33 -31 -30 -14 -32
-18 -35 -75 -4 -73 8 -85 85 -85 52 0 53 0 53 -30 0 -29 -2 -30 -44 -30 -36 0
-45 4 -49 21 -10 36 -42 20 -45 -24 -3 -34 0 -39 28 -51 17 -7 37 -24 44 -37
15 -32 38 -30 54 4 7 15 19 27 27 27 23 0 45 42 45 88 0 62 -32 92 -100 92
-47 0 -50 2 -50 25 0 23 4 25 44 25 36 0 45 -4 49 -21 6 -24 34 -23 50 2 13
21 -15 69 -43 76 -11 3 -20 15 -22 27 -3 21 -37 34 -51 20z"/>
</g>
</svg>
