<?xml version="1.0" standalone="no"?>
<!DOCTYPE svg PUBLIC "-//W3C//DTD SVG 20010904//EN"
 "http://www.w3.org/TR/2001/REC-SVG-20010904/DTD/svg10.dtd">
<svg version="1.0" xmlns="http://www.w3.org/2000/svg"
 width="200.000000pt" height="200.000000pt" viewBox="0 0 200.000000 200.000000"
 preserveAspectRatio="xMidYMid meet">
<metadata>
Created by potrace 1.16, written by Peter Selinger 2001-2019
</metadata>
<g transform="translate(0.000000,200.000000) scale(0.100000,-0.100000)"
fill="#000000" stroke="none">
<path d="M345 1740 c-14 -23 -115 -350 -115 -375 0 -41 21 -113 36 -126 12 -9
14 -82 14 -406 l0 -395 -25 -20 c-31 -24 -34 -77 -7 -101 17 -15 71 -17 566
-17 535 0 548 0 588 -21 86 -44 196 -33 274 26 98 75 122 231 51 336 -32 48
-100 96 -147 104 l-40 7 0 234 c0 216 2 236 20 266 36 59 28 139 -33 328 l-53
165 -561 3 c-361 1 -564 -1 -568 -8z m421 -217 c-4 -104 -9 -202 -12 -220 -12
-79 -126 -113 -184 -55 -44 45 -47 96 -15 275 14 84 29 160 31 170 5 15 18 17
96 17 l90 0 -6 -187z m464 185 c0 -2 11 -64 25 -138 14 -74 25 -170 25 -212 0
-72 -2 -78 -31 -107 -26 -26 -38 -31 -79 -31 -42 0 -51 4 -79 35 -26 30 -31
44 -31 88 0 29 -3 123 -7 210 l-6 157 91 0 c51 0 92 -1 92 -2z m-643 -517 c50
-26 151 -2 174 41 11 20 11 19 37 -5 15 -13 37 -30 49 -36 50 -26 147 -3 178
43 l15 20 15 -20 c47 -68 170 -71 229 -5 l18 20 30 -29 c32 -32 80 -45 134
-37 l34 6 0 -220 c0 -213 -1 -219 -20 -219 -59 0 -160 -77 -191 -145 -12 -26
-19 -64 -19 -108 l0 -67 -477 2 -478 3 -3 377 -2 377 53 -6 c58 -6 96 8 131
46 l19 21 26 -24 c14 -13 36 -29 48 -35z m951 -539 c2 -12 12 -22 25 -24 24
-3 48 -43 40 -64 -8 -20 -24 -17 -30 6 -4 17 -14 20 -54 20 l-49 0 0 -35 0
-35 54 0 c45 0 58 -4 70 -22 32 -45 9 -128 -35 -128 -14 0 -19 -7 -19 -26 0
-19 -5 -25 -17 -22 -10 2 -19 13 -21 24 -2 15 -12 24 -31 27 -31 7 -45 29 -36
58 9 27 24 24 35 -7 9 -22 15 -25 52 -22 42 3 43 4 46 41 l3 37 -50 0 c-38 0
-56 5 -71 20 -38 38 -16 130 31 130 12 0 19 7 19 18 0 38 33 41 38 4z"/>
<path d="M1277 1133 c-4 -3 -7 -21 -7 -39 0 -26 -4 -33 -22 -36 -22 -3 -23 -7
-26 -135 l-3 -132 26 -7 c21 -5 25 -12 25 -45 0 -27 4 -39 14 -39 16 0 26 21
26 55 0 14 7 25 20 28 19 5 20 14 20 137 0 123 -1 132 -20 137 -13 3 -20 14
-20 28 0 43 -16 66 -33 48z"/>
<path d="M1022 1048 c-7 -7 -12 -24 -12 -39 0 -19 -6 -30 -20 -34 -19 -6 -20
-15 -20 -137 0 -120 1 -130 19 -135 14 -4 21 -15 23 -41 2 -26 8 -38 21 -40
14 -3 17 4 17 37 0 33 3 40 23 43 22 3 22 6 22 133 0 125 -1 130 -22 140 -17
7 -23 18 -23 42 0 36 -11 48 -28 31z"/>
<path d="M510 991 c0 -33 -4 -40 -22 -43 -22 -3 -23 -7 -26 -135 l-3 -132 26
-7 c21 -5 25 -12 25 -45 0 -28 4 -39 15 -39 11 0 15 11 15 39 0 33 4 40 25 45
l26 7 -3 132 c-3 128 -4 132 -25 135 -19 3 -23 10 -23 43 0 28 -4 39 -15 39
-11 0 -15 -11 -15 -39z"/>
<path d="M760 871 c0 -33 -3 -40 -22 -43 -23 -3 -23 -6 -23 -133 0 -126 1
-130 22 -133 18 -3 22 -11 25 -45 4 -59 32 -58 36 1 3 34 7 42 23 42 18 0 19
8 19 135 0 127 -1 135 -19 135 -16 0 -20 8 -23 37 -2 27 -8 39 -20 41 -15 3
-18 -4 -18 -37z"/>
</g>
</svg>
