<?xml version="1.0" standalone="no"?>
<!DOCTYPE svg PUBLIC "-//W3C//DTD SVG 20010904//EN"
 "http://www.w3.org/TR/2001/REC-SVG-20010904/DTD/svg10.dtd">
<svg version="1.0" xmlns="http://www.w3.org/2000/svg"
 width="200.000000pt" height="200.000000pt" viewBox="0 0 200.000000 200.000000"
 preserveAspectRatio="xMidYMid meet">
<metadata>
Created by potrace 1.16, written by Peter Selinger 2001-2019
</metadata>
<g transform="translate(0.000000,200.000000) scale(0.100000,-0.100000)"
fill="#000000" stroke="none">
<path d="M296 1855 c-8 -9 -54 -65 -101 -124 l-85 -109 0 -117 c0 -137 12
-172 74 -217 l41 -29 5 -372 5 -372 389 -3 c404 -2 416 -1 416 39 0 32 -42 39
-231 39 l-179 0 0 185 0 185 54 0 c36 0 60 5 70 16 19 18 19 20 6 45 -9 16
-22 19 -93 19 -45 0 -89 -5 -97 -10 -12 -8 -16 -46 -18 -225 l-3 -215 -125 0
-124 0 0 334 0 334 30 7 c17 4 43 18 59 31 26 21 30 22 42 8 23 -28 67 -44
122 -44 44 0 62 6 95 29 35 26 42 28 53 15 44 -53 160 -59 223 -10 20 15 36
23 36 18 0 -4 17 -18 39 -30 54 -31 123 -29 180 4 l45 25 27 -20 c15 -11 39
-23 53 -27 25 -6 26 -8 26 -90 l0 -84 -44 0 c-58 0 -94 -27 -77 -58 12 -22 14
-22 296 -22 l285 0 -75 -142 -74 -143 -76 0 c-41 0 -148 2 -237 3 l-163 2 -47
166 c-67 233 -85 253 -219 244 -72 -5 -74 -6 -77 -32 -4 -35 25 -48 104 -48
67 0 58 19 149 -295 72 -249 92 -290 156 -312 22 -8 111 -12 255 -12 243 -1
263 3 250 52 l-6 27 -231 0 c-146 0 -238 4 -251 11 -18 10 -36 42 -53 97 l-7
23 239 -1 c131 0 243 -1 250 0 14 0 213 373 213 400 0 34 -40 40 -266 40
l-214 0 0 89 c0 80 2 90 19 96 30 9 79 70 90 112 6 21 11 81 11 133 l0 96 -90
114 c-50 63 -98 121 -107 128 -13 9 -133 12 -519 12 -438 0 -505 -2 -518 -15z
m172 -87 c-86 -136 -88 -141 -88 -234 0 -149 -24 -194 -103 -194 -27 0 -45 7
-62 25 -23 22 -25 31 -25 129 l0 104 76 96 75 96 71 0 70 0 -14 -22z m242 17
c0 -3 -16 -47 -35 -96 -32 -83 -35 -100 -35 -195 0 -98 -2 -107 -25 -129 -17
-17 -35 -25 -60 -25 -78 0 -105 44 -105 169 l0 80 61 101 60 100 70 0 c38 0
69 -2 69 -5z m163 -88 c34 -86 37 -100 37 -198 0 -101 -1 -107 -26 -133 -35
-35 -92 -36 -131 -2 -27 23 -28 29 -31 123 -3 93 -2 103 33 193 45 115 42 110
64 110 13 0 27 -24 54 -93z m250 -5 l57 -99 0 -95 c0 -89 -2 -99 -26 -127 -21
-26 -33 -31 -69 -31 -36 0 -48 5 -69 31 -24 29 -26 37 -26 139 0 74 -5 119
-15 144 -9 20 -24 59 -35 86 l-20 50 73 0 72 0 58 -98z m250 -1 l77 -99 0 -95
c0 -88 -2 -98 -26 -126 -20 -25 -34 -31 -64 -31 -84 0 -100 28 -100 172 l0
103 -50 83 c-28 46 -50 85 -50 88 0 2 30 4 68 4 l67 -1 78 -98z"/>
<path d="M1167 302 c-20 -20 -27 -39 -27 -66 0 -48 13 -72 52 -92 80 -41 167
35 138 121 -15 45 -44 65 -95 65 -32 0 -47 -6 -68 -28z m93 -68 c0 -19 -28
-30 -42 -16 -8 8 -8 15 1 26 14 17 41 10 41 -10z"/>
<path d="M1579 301 c-64 -64 -16 -171 77 -171 16 0 39 13 61 35 32 32 35 39
30 78 -12 85 -107 118 -168 58z m86 -67 c0 -10 -8 -20 -17 -22 -18 -3 -26 27
-11 42 12 11 28 0 28 -20z"/>
</g>
</svg>
