<?xml version="1.0" standalone="no"?>
<!DOCTYPE svg PUBLIC "-//W3C//DTD SVG 20010904//EN"
 "http://www.w3.org/TR/2001/REC-SVG-20010904/DTD/svg10.dtd">
<svg version="1.0" xmlns="http://www.w3.org/2000/svg"
 width="200.000000pt" height="200.000000pt" viewBox="0 0 200.000000 200.000000"
 preserveAspectRatio="xMidYMid meet">
<metadata>
Created by potrace 1.16, written by Peter Selinger 2001-2019
</metadata>
<g transform="translate(0.000000,200.000000) scale(0.100000,-0.100000)"
fill="#000000" stroke="none">
<path d="M253 1886 c-62 -20 -99 -51 -127 -108 l-26 -52 0 -526 c0 -556 1
-565 47 -628 48 -64 88 -76 277 -82 l170 -5 -97 -78 c-53 -42 -104 -91 -112
-107 -31 -60 -12 -129 47 -172 33 -23 34 -23 413 -26 461 -4 477 -3 527 48 34
34 38 43 38 88 0 62 -18 85 -139 182 l-80 65 172 5 c200 6 208 9 286 98 85 98
86 105 60 305 -21 163 -22 171 -5 181 74 44 111 74 135 110 109 158 62 363
-105 457 -48 28 -52 32 -57 75 -7 63 -50 122 -112 153 l-49 26 -611 2 c-481 2
-619 -1 -652 -11z m1280 -50 c34 -14 97 -78 97 -99 0 -7 3 -22 6 -33 5 -20 1
-22 -68 -26 -119 -8 -223 -77 -269 -181 -33 -74 -33 -191 1 -262 29 -59 84
-117 141 -145 l42 -22 -7 -66 c-4 -37 -12 -100 -18 -139 l-10 -73 -649 0 -649
0 0 470 c0 505 -1 498 52 547 12 12 34 26 48 32 16 6 256 10 638 10 493 1 619
-2 645 -13z m162 -225 c22 -10 59 -38 82 -62 123 -128 87 -337 -72 -422 -57
-31 -183 -31 -241 0 -54 29 -107 89 -129 146 -21 56 -17 165 8 213 22 44 85
103 132 125 54 25 166 25 220 0z m-50 -586 c14 -85 35 -260 35 -291 0 -50 -45
-94 -95 -94 -47 0 -95 44 -95 88 0 20 37 327 40 327 0 0 25 0 55 0 53 0 55 -1
60 -30z m-192 -334 c18 -51 43 -74 105 -95 l37 -13 -42 -22 c-42 -21 -48 -21
-666 -21 l-624 0 -34 23 c-50 34 -79 82 -79 133 l0 44 643 0 642 0 18 -49z
m-221 -297 c65 -53 123 -104 128 -114 18 -34 11 -70 -19 -101 l-29 -29 -417 0
c-279 0 -423 4 -437 11 -11 6 -26 26 -34 45 -22 53 -3 82 126 188 l115 95 224
0 224 1 119 -96z"/>
<path d="M475 1701 c-47 -12 -72 -28 -97 -63 -23 -33 -23 -35 -23 -328 0 -332
1 -337 75 -379 36 -20 52 -21 292 -21 248 0 256 1 288 23 18 12 43 35 54 50
20 27 21 40 21 320 0 276 -1 294 -20 327 -12 19 -36 43 -55 55 -32 18 -54 20
-270 22 -129 1 -248 -2 -265 -6z m85 -214 c0 -140 3 -177 16 -195 17 -25 48
-28 84 -7 14 8 39 14 55 14 17 0 41 -6 55 -14 33 -19 60 -19 82 2 16 14 18 34
18 195 l0 178 46 0 c53 0 97 -23 113 -57 7 -15 11 -124 11 -304 l0 -281 -29
-29 -29 -29 -262 0 -262 0 -29 29 -29 29 0 284 c1 302 3 317 51 344 13 7 43
13 67 14 l42 0 0 -173z m268 -1 l2 -168 -27 7 c-37 10 -142 11 -170 1 l-23 -8
0 171 0 172 108 -3 107 -3 3 -169z"/>
<path d="M523 1124 c-7 -3 -13 -14 -13 -25 0 -18 6 -20 83 -17 74 3 82 5 82
23 0 18 -7 20 -70 22 -38 1 -76 -1 -82 -3z"/>
<path d="M1520 1492 c-47 -25 -83 -94 -75 -142 22 -124 176 -163 254 -64 30
38 35 83 16 132 -32 78 -123 113 -195 74z m131 -61 c50 -50 35 -124 -30 -151
-38 -15 -75 -7 -107 25 -55 55 -9 155 71 155 27 0 44 -8 66 -29z"/>
</g>
</svg>
