<?xml version="1.0" standalone="no"?>
<!DOCTYPE svg PUBLIC "-//W3C//DTD SVG 20010904//EN"
 "http://www.w3.org/TR/2001/REC-SVG-20010904/DTD/svg10.dtd">
<svg version="1.0" xmlns="http://www.w3.org/2000/svg"
 width="200.000000pt" height="200.000000pt" viewBox="0 0 200.000000 200.000000"
 preserveAspectRatio="xMidYMid meet">
<metadata>
Created by potrace 1.16, written by Peter Selinger 2001-2019
</metadata>
<g transform="translate(0.000000,200.000000) scale(0.100000,-0.100000)"
fill="#000000" stroke="none">
<path d="M714 1841 c-59 -27 -79 -58 -125 -204 -49 -153 -51 -178 -21 -235 21
-40 22 -56 22 -257 l0 -215 -139 0 c-77 0 -146 -3 -154 -6 -12 -4 -17 5 -23
43 -12 83 -13 84 -112 81 -85 -3 -87 -3 -87 -28 0 -24 3 -25 66 -28 l66 -3 38
-252 c21 -139 43 -266 50 -283 7 -17 10 -52 8 -81 -5 -47 -3 -54 23 -80 16
-15 27 -36 25 -47 -9 -58 54 -113 116 -101 39 7 76 56 70 93 -4 22 -3 22 110
22 97 0 114 -2 109 -15 -9 -25 15 -75 45 -90 43 -23 77 -18 110 14 45 46 35
117 -20 146 -25 12 -73 15 -276 15 -218 0 -246 2 -252 16 -14 37 13 48 248
108 l234 59 470 6 c522 7 503 4 545 74 19 30 20 53 20 397 l0 365 25 49 c14
27 25 58 25 69 0 11 -20 84 -45 161 -48 153 -66 181 -137 210 -32 14 -105 16
-515 16 -444 0 -481 -2 -519 -19z m819 -742 c36 -16 47 -50 47 -143 0 -69 -4
-88 -21 -110 l-20 -26 -259 0 -258 0 -7 30 c-9 39 -58 80 -97 80 l-30 0 4 66
c4 58 8 70 32 90 27 24 27 24 306 24 183 0 287 -4 303 -11z m-587 -254 c3 -8
-2 -67 -13 -132 l-18 -118 -273 -69 c-167 -42 -277 -65 -282 -60 -11 11 -69
364 -62 382 3 9 77 12 323 12 270 0 320 -2 325 -15z"/>
</g>
</svg>
