<?xml version="1.0" standalone="no"?>
<!DOCTYPE svg PUBLIC "-//W3C//DTD SVG 20010904//EN"
 "http://www.w3.org/TR/2001/REC-SVG-20010904/DTD/svg10.dtd">
<svg version="1.0" xmlns="http://www.w3.org/2000/svg"
 width="200.000000pt" height="200.000000pt" viewBox="0 0 200.000000 200.000000"
 preserveAspectRatio="xMidYMid meet">
<metadata>
Created by potrace 1.16, written by Peter Selinger 2001-2019
</metadata>
<g transform="translate(0.000000,200.000000) scale(0.100000,-0.100000)"
fill="#000000" stroke="none">
<path d="M830 1780 l0 -170 170 0 170 0 0 170 0 170 -45 0 -45 0 0 -55 0 -55
-80 0 -80 0 0 55 0 55 -45 0 -45 0 0 -170z"/>
<path d="M977 1944 c-4 -4 -7 -18 -7 -31 0 -19 5 -23 31 -23 27 0 30 3 27 28
-3 26 -34 43 -51 26z"/>
<path d="M267 1704 c-4 -4 -7 -81 -7 -171 l0 -163 175 0 175 0 0 171 0 170
-47 -3 -48 -3 -3 -57 -3 -58 -74 0 -74 0 -3 58 -3 57 -40 3 c-23 2 -44 0 -48
-4z"/>
<path d="M410 1680 c0 -25 4 -30 25 -30 21 0 25 5 25 30 0 25 -4 30 -25 30
-21 0 -25 -5 -25 -30z"/>
<path d="M1375 1688 c-3 -8 -4 -86 -3 -173 l3 -160 170 0 170 0 0 170 0 170
-45 0 -45 0 -3 -57 -3 -58 -74 0 -74 0 -3 58 -3 57 -43 3 c-28 2 -44 -1 -47
-10z"/>
<path d="M1520 1665 c0 -31 3 -35 25 -35 22 0 25 4 25 35 0 31 -3 35 -25 35
-22 0 -25 -4 -25 -35z"/>
<path d="M970 1385 l0 -165 30 0 30 0 0 165 0 165 -30 0 -30 0 0 -165z"/>
<path d="M660 1333 c0 -12 -5 -23 -10 -25 -6 -2 13 -26 42 -54 48 -46 55 -50
75 -39 21 11 20 13 -42 75 -53 53 -65 60 -65 43z"/>
<path d="M1255 1280 c-47 -47 -55 -60 -39 -60 11 0 24 -4 30 -10 7 -7 26 7 59
40 33 33 44 50 33 50 -9 0 -18 9 -20 20 -3 18 -12 12 -63 -40z"/>
<path d="M70 1020 l0 -170 170 0 170 0 0 170 0 170 -45 0 -45 0 0 -60 0 -60
-80 0 -80 0 0 60 0 60 -45 0 -45 0 0 -170z"/>
<path d="M217 1183 c-4 -3 -7 -17 -7 -30 0 -18 5 -23 25 -23 21 0 25 5 25 30
0 22 -5 30 -18 30 -10 0 -22 -3 -25 -7z"/>
<path d="M1590 1020 l0 -170 170 0 170 0 0 170 0 170 -45 0 -45 0 0 -60 0 -60
-80 0 -80 0 0 60 0 60 -45 0 -45 0 0 -170z"/>
<path d="M1740 1161 c0 -27 4 -31 26 -31 22 0 25 4 22 28 -2 19 -9 28 -25 30
-20 3 -23 -1 -23 -27z"/>
<path d="M786 1148 c-19 -27 -20 -42 -3 -56 21 -18 59 14 55 46 -4 34 -31 40
-52 10z"/>
<path d="M897 1163 c-14 -14 -6 -53 14 -67 31 -21 59 -1 59 41 0 31 -2 33 -33
33 -19 0 -37 -3 -40 -7z"/>
<path d="M1030 1138 c0 -44 28 -63 59 -41 15 10 21 23 19 41 -3 23 -8 27 -40
30 -37 3 -38 2 -38 -30z"/>
<path d="M1167 1164 c-15 -15 -6 -54 15 -68 20 -14 24 -14 38 -1 13 14 13 18
0 43 -16 27 -40 39 -53 26z"/>
<path d="M823 1037 l-33 -22 0 -102 0 -103 65 0 65 0 0 75 0 75 80 0 80 0 0
-75 0 -75 65 0 65 0 0 103 0 102 -35 23 c-42 27 -40 27 -76 1 l-29 -21 -35 22
-35 22 -35 -22 -35 -22 -29 21 c-35 25 -38 25 -78 -2z"/>
<path d="M464 995 c-4 -8 -3 -22 0 -30 5 -13 27 -15 138 -13 l133 3 3 28 3 27
-136 0 c-111 0 -137 -3 -141 -15z"/>
<path d="M1262 983 l3 -28 135 0 135 0 0 25 0 25 -138 3 -138 3 3 -28z"/>
<path d="M693 713 c-32 -35 -39 -49 -28 -51 8 -2 15 -11 15 -20 0 -10 22 5 60
43 33 33 60 63 60 67 0 4 -14 8 -32 8 -24 0 -40 -10 -75 -47z"/>
<path d="M975 748 c-3 -8 -4 -79 -3 -158 l3 -145 25 0 25 0 0 155 c0 153 0
155 -23 158 -12 2 -24 -3 -27 -10z"/>
<path d="M1200 752 c0 -4 21 -28 48 -53 44 -44 48 -45 63 -29 16 17 15 20 -20
54 -24 23 -46 36 -64 36 -15 0 -27 -4 -27 -8z"/>
<path d="M1360 450 l0 -170 170 0 170 0 0 170 0 170 -45 0 -45 0 0 -55 0 -55
-80 0 -80 0 0 55 0 55 -45 0 -45 0 0 -170z"/>
<path d="M1500 590 c0 -25 4 -30 25 -30 21 0 25 5 25 30 0 25 -4 30 -25 30
-21 0 -25 -5 -25 -30z"/>
<path d="M290 440 l0 -170 170 0 170 0 0 170 0 170 -45 0 -44 0 -3 -57 -3 -58
-77 -3 -78 -3 0 61 0 60 -45 0 -45 0 0 -170z"/>
<path d="M437 603 c-4 -3 -7 -17 -7 -30 0 -18 5 -23 25 -23 21 0 25 5 25 30 0
22 -5 30 -18 30 -10 0 -22 -3 -25 -7z"/>
<path d="M830 220 l0 -170 170 0 170 0 0 170 0 170 -45 0 -45 0 0 -55 0 -55
-80 0 -80 0 0 55 0 55 -45 0 -45 0 0 -170z"/>
<path d="M970 360 c0 -27 3 -30 30 -30 27 0 30 3 30 30 0 27 -3 30 -30 30 -27
0 -30 -3 -30 -30z"/>
</g>
</svg>
