<?xml version="1.0" standalone="no"?>
<!DOCTYPE svg PUBLIC "-//W3C//DTD SVG 20010904//EN"
 "http://www.w3.org/TR/2001/REC-SVG-20010904/DTD/svg10.dtd">
<svg version="1.0" xmlns="http://www.w3.org/2000/svg"
 width="200.000000pt" height="200.000000pt" viewBox="0 0 200.000000 200.000000"
 preserveAspectRatio="xMidYMid meet">
<metadata>
Created by potrace 1.16, written by Peter Selinger 2001-2019
</metadata>
<g transform="translate(0.000000,200.000000) scale(0.100000,-0.100000)"
fill="#000000" stroke="none">
<path d="M800 1780 l0 -200 85 0 85 0 0 -180 0 -180 -88 0 -87 0 -83 83 -82
82 0 178 0 177 -195 0 -195 0 0 -200 0 -200 182 0 183 0 71 -71 72 -71 -25
-56 -24 -56 23 -18 c13 -10 26 -18 31 -18 4 0 7 -9 7 -20 0 -19 -7 -20 -160
-20 l-159 0 -3 103 -3 102 -195 0 -195 0 -3 -197 -2 -198 200 0 200 0 0 65 0
65 160 0 160 0 0 -88 0 -88 -68 -67 -68 -67 -182 0 -182 0 0 -200 0 -200 195
0 195 0 0 176 0 177 92 93 92 94 68 0 68 0 0 -180 0 -180 -85 0 -85 0 0 -200
0 -200 200 0 200 0 0 200 0 200 -85 0 -85 0 0 180 0 180 68 0 67 0 82 -82 83
-83 2 -180 3 -180 195 0 195 0 3 198 2 197 -183 0 -183 0 -62 63 -62 63 0 87
0 87 160 0 160 0 0 -65 0 -65 200 0 200 0 -2 198 -3 197 -195 0 -195 0 -3
-102 -3 -103 -159 0 c-153 0 -160 1 -160 20 0 11 3 20 8 20 4 0 17 8 30 18
l23 18 -25 55 -24 56 67 67 67 66 177 0 177 0 0 200 0 200 -195 0 -195 0 0
-178 0 -177 -78 -78 -77 -77 -83 0 -82 0 0 180 0 180 85 0 85 0 0 200 0 200
-200 0 -200 0 0 -200z m120 90 l0 -50 80 0 80 0 0 50 c0 49 1 50 30 50 l30 0
0 -140 0 -140 -140 0 -140 0 0 140 0 140 30 0 c29 0 30 -1 30 -50z m110 25 c0
-21 -5 -25 -30 -25 -25 0 -30 4 -30 25 0 21 5 25 30 25 25 0 30 -4 30 -25z
m-670 -270 l0 -55 75 0 75 0 0 55 0 55 35 0 35 0 0 -145 0 -145 -145 0 -145 0
0 145 0 145 35 0 35 0 0 -55z m100 25 c0 -25 -4 -30 -25 -30 -21 0 -25 5 -25
30 0 25 4 30 25 30 21 0 25 -5 25 -30z m1010 -35 l0 -55 75 0 75 0 0 55 0 55
35 0 35 0 0 -145 0 -145 -145 0 -145 0 0 145 0 145 35 0 35 0 0 -55z m100 30
c0 -20 -5 -25 -25 -25 -20 0 -25 5 -25 25 0 20 5 25 25 25 20 0 25 -5 25 -25z
m-1410 -540 l0 -55 80 0 80 0 0 55 c0 54 0 55 30 55 l30 0 0 -145 0 -146 -142
3 -143 3 -3 143 -3 142 36 0 35 0 0 -55z m100 30 c0 -20 -5 -25 -25 -25 -20 0
-25 5 -25 25 0 20 5 25 25 25 20 0 25 -5 25 -25z m580 1 c0 -14 -10 -32 -22
-40 -20 -14 -24 -14 -37 -1 -22 22 0 65 34 65 20 0 25 -5 25 -24z m130 -4 c0
-37 -30 -56 -59 -36 -12 9 -21 26 -21 40 0 21 4 24 40 24 37 0 40 -2 40 -28z
m140 4 c0 -14 -9 -31 -21 -40 -29 -20 -59 -1 -59 36 0 26 3 28 40 28 36 0 40
-3 40 -24z m110 3 c14 -26 6 -49 -18 -49 -25 0 -42 19 -42 47 0 31 44 32 60 2z
m460 -34 l0 -55 80 0 80 0 0 55 0 55 35 0 36 0 -3 -142 -3 -143 -142 -3 -143
-3 0 146 0 145 30 0 c30 0 30 -1 30 -55z m110 30 c0 -20 -5 -25 -25 -25 -20 0
-25 5 -25 25 0 20 5 25 25 25 20 0 25 -5 25 -25z m-889 -96 l29 -21 35 22 35
22 35 -22 35 -22 29 21 c35 25 39 26 63 4 15 -13 18 -32 18 -110 l0 -93 -40 0
-40 0 0 75 0 75 -100 0 -100 0 0 -75 0 -75 -40 0 -40 0 0 96 c0 80 3 99 18
110 23 18 29 17 63 -7z m149 -154 l0 -45 -50 0 -50 0 0 45 0 45 50 0 50 0 0
-45z m400 -350 l0 -56 78 3 77 3 3 53 c3 50 4 52 33 52 l29 0 0 -140 0 -140
-145 0 -145 0 0 140 0 140 35 0 35 0 0 -55z m100 30 c0 -20 -5 -25 -25 -25
-20 0 -25 5 -25 25 0 20 5 25 25 25 20 0 25 -5 25 -25z m-1170 -40 l0 -55 80
0 80 0 0 55 c0 54 0 55 30 55 l30 0 0 -145 0 -145 -145 0 -145 0 0 145 0 145
35 0 35 0 0 -55z m100 25 c0 -25 -4 -30 -25 -30 -21 0 -25 5 -25 30 0 25 4 30
25 30 21 0 25 -5 25 -30z m442 -242 l3 -53 75 0 75 0 3 53 c3 50 4 52 33 52
l29 0 0 -140 0 -140 -140 0 -140 0 0 140 0 140 29 0 c29 0 30 -2 33 -52z m108
27 c0 -21 -5 -25 -30 -25 -25 0 -30 4 -30 25 0 21 5 25 30 25 25 0 30 -4 30
-25z"/>
</g>
</svg>
