<?xml version="1.0" standalone="no"?>
<!DOCTYPE svg PUBLIC "-//W3C//DTD SVG 20010904//EN"
 "http://www.w3.org/TR/2001/REC-SVG-20010904/DTD/svg10.dtd">
<svg version="1.0" xmlns="http://www.w3.org/2000/svg"
 width="200.000000pt" height="200.000000pt" viewBox="0 0 200.000000 200.000000"
 preserveAspectRatio="xMidYMid meet">
<metadata>
Created by potrace 1.16, written by Peter Selinger 2001-2019
</metadata>
<g transform="translate(0.000000,200.000000) scale(0.100000,-0.100000)"
fill="#000000" stroke="none">
<path d="M573 1785 c-87 -19 -157 -59 -229 -131 -185 -184 -192 -475 -17 -664
102 -111 210 -160 353 -162 93 -1 145 10 227 49 l54 26 79 -78 c63 -62 78 -84
78 -107 -1 -31 1 -34 277 -319 88 -91 174 -173 192 -182 123 -64 261 77 195
200 -9 17 -118 128 -242 247 -192 186 -228 216 -255 216 -25 0 -45 15 -109 79
l-79 80 33 72 c25 55 34 91 38 146 3 40 7 73 11 73 3 0 28 -16 55 -35 28 -20
54 -31 61 -27 7 4 97 103 201 220 l189 213 3 -71 c2 -53 7 -72 18 -77 9 -3 20
0 25 8 11 18 12 200 1 217 -13 20 -237 13 -237 -8 0 -12 17 -16 83 -18 45 -2
82 -5 82 -8 0 -5 -293 -337 -351 -398 l-28 -29 -55 38 c-49 34 -57 44 -72 94
-47 165 -186 296 -355 336 -77 18 -143 18 -226 0z m297 -71 c105 -50 208 -160
235 -252 6 -20 -1 -17 -55 22 -34 25 -70 46 -79 46 -9 0 -70 -61 -136 -135
l-120 -135 -60 60 c-33 33 -67 60 -75 60 -19 0 -140 -133 -140 -154 0 -31 32
-15 87 45 l56 60 61 -60 c34 -34 67 -61 73 -61 6 0 66 61 133 135 67 74 124
135 126 135 3 0 39 -25 80 -55 l74 -55 0 -58 c-1 -208 -150 -390 -358 -433
-214 -44 -422 75 -502 286 -29 79 -30 205 -2 286 47 133 143 231 273 279 44
17 74 20 159 17 93 -2 112 -6 170 -33z m280 -789 l75 -75 -38 -37 -37 -38 -77
77 -77 78 34 35 c19 19 37 35 40 35 3 0 39 -34 80 -75z m373 -308 l228 -222
-1 -47 c0 -39 -5 -50 -31 -72 -22 -19 -42 -26 -72 -26 -42 -1 -44 1 -264 227
-123 125 -223 232 -223 238 0 13 112 125 125 125 5 0 113 -100 238 -223z"/>
</g>
</svg>
