<?xml version="1.0" standalone="no"?>
<!DOCTYPE svg PUBLIC "-//W3C//DTD SVG 20010904//EN"
 "http://www.w3.org/TR/2001/REC-SVG-20010904/DTD/svg10.dtd">
<svg version="1.0" xmlns="http://www.w3.org/2000/svg"
 width="200.000000pt" height="200.000000pt" viewBox="0 0 200.000000 200.000000"
 preserveAspectRatio="xMidYMid meet">
<metadata>
Created by potrace 1.16, written by Peter Selinger 2001-2019
</metadata>
<g transform="translate(0.000000,200.000000) scale(0.100000,-0.100000)"
fill="#000000" stroke="none">
<path d="M1514 1785 c-10 -25 2 -30 87 -35 l79 -5 -191 -215 c-105 -118 -192
-217 -194 -219 -2 -2 -26 12 -52 31 -70 51 -70 51 -65 17 3 -22 18 -40 59 -69
33 -23 61 -37 68 -32 7 4 99 105 206 226 l194 218 5 -73 c4 -66 7 -74 25 -74
19 0 20 7 20 120 l0 120 -118 3 c-99 2 -118 0 -123 -13z"/>
<path d="M540 1741 c-231 -73 -366 -320 -304 -556 77 -299 439 -432 701 -258
68 45 113 100 155 189 30 62 33 78 33 162 l0 94 -76 54 -76 53 -127 -139 c-71
-78 -134 -140 -144 -140 -10 0 -44 27 -77 60 l-60 60 -60 -67 c-59 -64 -85
-75 -85 -35 0 13 85 108 143 159 4 4 38 -23 75 -60 l67 -67 125 140 c68 77
130 140 138 140 8 0 43 -20 78 -46 35 -25 64 -40 64 -34 0 26 -56 118 -103
168 -61 63 -115 97 -198 123 -76 24 -194 24 -269 0z"/>
<path d="M1030 945 l-34 -35 79 -80 79 -80 38 37 38 37 -77 78 c-43 43 -80 78
-83 78 -3 0 -21 -16 -40 -35z"/>
<path d="M1223 757 l-66 -67 64 -67 c266 -282 398 -412 422 -418 39 -10 75 2
108 35 32 31 38 78 16 117 -10 18 -389 390 -455 447 l-22 19 -67 -66z"/>
</g>
</svg>
