<?xml version="1.0" standalone="no"?>
<!DOCTYPE svg PUBLIC "-//W3C//DTD SVG 20010904//EN"
 "http://www.w3.org/TR/2001/REC-SVG-20010904/DTD/svg10.dtd">
<svg version="1.0" xmlns="http://www.w3.org/2000/svg"
 width="200.000000pt" height="200.000000pt" viewBox="0 0 200.000000 200.000000"
 preserveAspectRatio="xMidYMid meet">
<metadata>
Created by potrace 1.16, written by Peter Selinger 2001-2019
</metadata>
<g transform="translate(0.000000,200.000000) scale(0.100000,-0.100000)"
fill="#000000" stroke="none">
<path d="M410 1780 c-7 -12 -9 -88 -8 -202 l3 -183 595 0 595 0 3 183 c1 114
-1 190 -8 202 -10 20 -23 20 -590 20 -567 0 -580 0 -590 -20z"/>
<path d="M210 1341 c-17 -32 -13 -177 6 -195 14 -14 99 -16 784 -16 685 0 770
2 784 16 12 11 16 36 16 95 0 134 99 119 -800 119 -760 0 -780 0 -790 -19z"/>
<path d="M340 685 l0 -414 -72 -3 c-61 -3 -73 -6 -76 -21 -9 -48 -34 -47 808
-47 842 0 817 -1 808 47 -3 15 -15 18 -76 21 l-72 3 0 414 0 415 -660 0 -660
0 0 -415z m740 85 l0 -230 -292 2 -293 3 -3 215 c-1 118 0 220 2 227 4 10 70
13 296 13 l290 0 0 -230z m428 -137 l2 -363 -195 0 -195 0 0 365 0 365 193 -2
192 -3 3 -362z"/>
<path d="M888 787 c-59 -34 -108 -68 -108 -75 0 -17 -6 -19 123 53 59 33 107
66 107 73 0 18 -7 16 -122 -51z"/>
<path d="M753 783 c-59 -35 -77 -53 -52 -53 17 0 139 71 139 81 0 17 -25 9
-87 -28z"/>
<path d="M1186 743 c-8 -8 -8 -178 0 -186 3 -3 12 -3 20 0 20 8 20 178 0 186
-8 3 -17 3 -20 0z"/>
</g>
</svg>
