<?xml version="1.0" standalone="no"?>
<!DOCTYPE svg PUBLIC "-//W3C//DTD SVG 20010904//EN"
 "http://www.w3.org/TR/2001/REC-SVG-20010904/DTD/svg10.dtd">
<svg version="1.0" xmlns="http://www.w3.org/2000/svg"
 width="200.000000pt" height="200.000000pt" viewBox="0 0 200.000000 200.000000"
 preserveAspectRatio="xMidYMid meet">
<metadata>
Created by potrace 1.16, written by Peter Selinger 2001-2019
</metadata>
<g transform="translate(0.000000,200.000000) scale(0.100000,-0.100000)"
fill="#000000" stroke="none">
<path d="M315 1905 c-5 -2 -22 -6 -37 -9 -60 -13 -58 15 -58 -901 0 -555 3
-843 10 -856 27 -50 19 -49 763 -49 469 0 704 3 725 11 66 23 62 -28 62 898
l0 841 -29 32 -29 33 -699 2 c-384 1 -702 0 -708 -2z m1400 -87 c3 -13 4 -390
3 -838 l-3 -815 -715 0 -715 0 -3 815 c-1 448 0 825 3 838 l5 22 710 0 710 0
5 -22z"/>
<path d="M597 1690 c-9 -24 -19 -32 -49 -36 -181 -29 -185 -281 -4 -308 l46
-7 0 -90 0 -89 -35 0 c-41 0 -73 27 -82 70 -11 59 -63 67 -63 10 0 -68 60
-133 132 -144 37 -6 46 -11 55 -36 14 -39 42 -39 56 0 9 25 18 30 55 36 77 12
132 76 132 156 0 78 -57 138 -141 152 l-39 6 0 90 0 90 29 0 c40 0 79 -34 91
-81 9 -33 15 -40 33 -37 17 2 23 11 25 38 5 66 -57 131 -136 144 -30 4 -40 12
-49 36 -6 17 -19 30 -28 30 -9 0 -22 -13 -28 -30z m-7 -190 l0 -90 -29 0 c-16
0 -37 3 -46 6 -21 8 -45 56 -45 89 0 37 50 85 89 85 l31 0 0 -90z m161 -189
c32 -33 37 -67 14 -110 -16 -32 -33 -41 -76 -41 l-29 0 0 90 0 90 31 0 c20 0
40 -10 60 -29z"/>
<path d="M914 1575 c-4 -8 -4 -22 0 -30 5 -13 49 -15 338 -13 l333 3 0 25 0
25 -333 3 c-289 2 -333 0 -338 -13z"/>
<path d="M923 1403 c-7 -2 -13 -15 -13 -29 0 -32 19 -35 169 -32 103 3 126 6
134 20 8 12 7 21 -2 32 -11 13 -36 16 -145 15 -72 0 -137 -3 -143 -6z"/>
<path d="M1303 1400 c-25 -10 -30 -29 -11 -48 13 -13 252 -18 282 -6 22 8 20
41 -3 54 -24 12 -237 12 -268 0z"/>
<path d="M923 1213 c-20 -7 -15 -41 6 -53 12 -6 132 -10 321 -10 189 0 309 4
321 10 23 13 25 46 3 54 -19 7 -633 7 -651 -1z"/>
<path d="M427 898 c-16 -12 -17 -40 -15 -313 l3 -300 585 0 585 0 3 300 c2
273 1 301 -15 313 -25 18 -1121 18 -1146 0z m233 -118 l0 -60 -95 0 -95 0 0
60 0 60 95 0 95 0 0 -60z m870 0 l0 -60 -405 0 -405 0 0 60 0 60 405 0 405 0
0 -60z m-870 -190 l0 -60 -95 0 -95 0 0 60 0 60 95 0 95 0 0 -60z m870 0 l0
-60 -405 0 -405 0 0 60 0 60 405 0 405 0 0 -60z m-875 -185 l0 -60 -92 -3 -93
-3 0 66 0 66 93 -3 92 -3 0 -60z m875 0 l0 -65 -405 0 -405 0 0 65 0 65 405 0
405 0 0 -65z"/>
</g>
</svg>
