<?xml version="1.0" standalone="no"?>
<!DOCTYPE svg PUBLIC "-//W3C//DTD SVG 20010904//EN"
 "http://www.w3.org/TR/2001/REC-SVG-20010904/DTD/svg10.dtd">
<svg version="1.0" xmlns="http://www.w3.org/2000/svg"
 width="200.000000pt" height="200.000000pt" viewBox="0 0 200.000000 200.000000"
 preserveAspectRatio="xMidYMid meet">
<metadata>
Created by potrace 1.16, written by Peter Selinger 2001-2019
</metadata>
<g transform="translate(0.000000,200.000000) scale(0.100000,-0.100000)"
fill="#000000" stroke="none">
<path d="M258 1771 l-33 -29 -3 -728 -2 -728 41 -42 42 -43 52 45 c29 24 56
44 61 44 4 0 29 -20 55 -46 l46 -45 50 45 c28 26 55 46 59 46 5 0 30 -21 56
-47 l48 -47 48 47 c26 26 51 47 56 47 4 0 31 -20 59 -45 l51 -45 46 45 c25 25
50 45 54 45 5 0 32 -20 60 -44 l51 -44 49 44 c26 24 52 44 57 44 6 0 31 -20
57 -44 l47 -44 43 38 42 38 0 701 c0 757 -1 742 52 798 l21 23 -616 0 -617 0
-32 -29z m262 -157 c0 -9 9 -18 20 -21 35 -9 20 -38 -19 -38 -46 0 -50 -21 -8
-41 19 -9 40 -28 47 -42 9 -22 8 -30 -9 -51 -12 -14 -26 -36 -31 -48 -11 -26
-40 -31 -40 -8 0 9 -12 20 -26 25 -41 16 -28 45 21 45 51 0 53 21 5 44 -21 10
-38 27 -45 45 -8 25 -6 31 18 52 15 12 27 30 27 39 0 8 9 15 20 15 12 0 20 -7
20 -16z m755 -14 c0 -13 -39 -15 -284 -18 -166 -1 -289 2 -294 7 -28 28 10 31
291 29 247 -3 287 -5 287 -18z m0 -220 c0 -13 -39 -15 -290 -15 -269 0 -290 1
-293 18 -3 16 14 17 290 15 253 -3 293 -5 293 -18z m1 -211 c3 -6 0 -15 -7
-20 -8 -5 -204 -9 -435 -9 -341 0 -424 3 -433 13 -6 8 -8 17 -4 20 12 13 871
8 879 -4z m-12 -205 c9 -3 16 -12 16 -20 0 -12 -70 -14 -438 -14 -241 0 -442
3 -445 7 -4 3 -2 12 4 20 9 10 92 13 429 13 230 0 425 -3 434 -6z m5 -223 c43
-27 -9 -31 -433 -31 -238 0 -436 3 -439 7 -4 3 -2 12 4 20 9 10 92 13 433 13
231 0 427 -4 435 -9z m6 -231 c0 -13 -27 -15 -174 -18 -168 -2 -202 3 -186 27
4 8 62 11 183 9 149 -3 177 -5 177 -18z"/>
<path d="M1571 1778 c-75 -51 -76 -54 -79 -301 l-4 -222 33 -27 32 -27 36 30
c45 37 57 36 98 -3 l33 -32 30 29 30 29 0 215 c0 186 -2 221 -18 250 -37 74
-128 103 -191 59z"/>
</g>
</svg>
