<?xml version="1.0" standalone="no"?>
<!DOCTYPE svg PUBLIC "-//W3C//DTD SVG 20010904//EN"
 "http://www.w3.org/TR/2001/REC-SVG-20010904/DTD/svg10.dtd">
<svg version="1.0" xmlns="http://www.w3.org/2000/svg"
 width="200.000000pt" height="200.000000pt" viewBox="0 0 200.000000 200.000000"
 preserveAspectRatio="xMidYMid meet">
<metadata>
Created by potrace 1.16, written by Peter Selinger 2001-2019
</metadata>
<g transform="translate(0.000000,200.000000) scale(0.100000,-0.100000)"
fill="#000000" stroke="none">
<path d="M589 1787 c-70 -46 -69 -41 -69 -534 l0 -443 359 0 360 0 15 -22 c13
-18 16 -55 16 -194 0 -238 25 -305 138 -372 41 -24 57 -27 132 -27 96 0 141
18 196 77 73 77 69 29 72 768 2 650 2 666 -18 698 -11 18 -34 41 -52 52 -32
19 -52 20 -574 20 l-541 0 -34 -23z m375 -209 c21 -30 20 -54 -4 -78 -16 -16
-33 -20 -85 -20 -71 0 -105 20 -105 62 0 43 27 58 106 58 64 0 75 -3 88 -22z
m580 6 c24 -23 20 -70 -6 -88 -18 -13 -56 -16 -209 -16 l-188 0 -20 27 c-21
26 -21 53 1 81 8 9 62 12 209 12 166 0 200 -2 213 -16z m-580 -256 c21 -30 20
-54 -4 -78 -16 -16 -33 -20 -85 -20 -71 0 -105 20 -105 62 0 43 27 58 106 58
64 0 75 -3 88 -22z m580 6 c24 -23 20 -70 -6 -88 -18 -13 -56 -16 -209 -16
l-188 0 -20 27 c-21 26 -21 53 1 81 8 9 62 12 209 12 166 0 200 -2 213 -16z
m-580 -256 c21 -30 20 -54 -4 -78 -16 -16 -33 -20 -85 -20 -71 0 -105 20 -105
62 0 43 27 58 106 58 64 0 75 -3 88 -22z m580 6 c24 -23 20 -70 -6 -88 -18
-13 -56 -16 -209 -16 l-188 0 -20 27 c-21 26 -21 53 1 81 8 9 62 12 209 12
166 0 200 -2 213 -16z"/>
<path d="M250 683 c-8 -3 -25 -15 -37 -26 -21 -19 -23 -30 -23 -118 0 -74 5
-112 20 -152 24 -65 91 -136 158 -169 47 -23 50 -23 465 -26 l418 -3 -30 42
c-54 74 -71 136 -71 264 0 62 -4 125 -10 139 -20 55 -33 56 -472 55 -222 0
-410 -3 -418 -6z"/>
</g>
</svg>
