<?xml version="1.0" standalone="no"?>
<!DOCTYPE svg PUBLIC "-//W3C//DTD SVG 20010904//EN"
 "http://www.w3.org/TR/2001/REC-SVG-20010904/DTD/svg10.dtd">
<svg version="1.0" xmlns="http://www.w3.org/2000/svg"
 width="200.000000pt" height="200.000000pt" viewBox="0 0 200.000000 200.000000"
 preserveAspectRatio="xMidYMid meet">
<metadata>
Created by potrace 1.16, written by Peter Selinger 2001-2019
</metadata>
<g transform="translate(0.000000,200.000000) scale(0.100000,-0.100000)"
fill="#000000" stroke="none">
<path d="M426 1915 c-53 -19 -106 -63 -130 -111 -20 -38 -21 -54 -24 -641 l-2
-601 -60 -7 c-35 -4 -73 -16 -92 -29 -103 -69 -94 -222 16 -275 40 -20 59 -21
389 -21 l346 0 45 -48 c51 -55 111 -88 189 -104 46 -10 64 -9 123 8 60 16 110
19 381 22 l312 3 21 27 c19 24 21 35 16 102 -3 41 -5 82 -4 90 0 8 1 50 2 92
1 92 -9 108 -77 115 l-45 5 -4 69 c-6 106 -17 113 -173 118 l-125 3 0 53 0 53
87 -24 c152 -42 170 -34 199 79 16 67 16 69 -3 95 -17 22 -43 33 -149 62
l-129 35 -3 248 -2 247 141 0 141 0 -4 124 c-3 143 -13 165 -88 204 l-44 22
-606 0 c-488 -1 -612 -4 -644 -15z m1084 -72 c-19 -36 -20 -57 -20 -390 0
-194 -3 -353 -7 -353 -5 0 -62 15 -128 34 -120 34 -120 34 -70 37 42 3 50 7
50 24 0 19 -8 20 -283 23 l-283 2 3 -22 c3 -23 5 -23 182 -26 139 -2 176 -5
168 -15 -6 -6 -15 -31 -21 -54 -11 -42 -12 -42 -64 -45 -44 -3 -52 -6 -52 -23
0 -17 8 -20 46 -23 36 -2 48 -7 52 -22 5 -19 -3 -20 -152 -22 -153 -3 -156 -3
-159 -25 l-3 -23 228 0 228 0 132 -37 133 -36 0 -60 0 -59 -197 1 c-202 2
-459 -6 -501 -15 -17 -3 -22 -11 -20 -27 3 -20 9 -22 86 -25 l84 -3 -36 -39
c-20 -22 -36 -45 -36 -50 0 -6 -101 -10 -280 -10 l-281 0 3 593 c3 530 5 595
20 622 21 38 66 81 98 94 15 6 231 10 563 10 l537 1 -20 -37z m224 -2 c30 -30
31 -36 34 -126 l4 -95 -121 0 -121 0 0 84 c0 70 4 88 23 117 12 18 34 40 47
47 39 20 98 8 134 -27z m-266 -791 c163 -45 300 -84 304 -88 13 -13 -24 -122
-41 -122 -9 0 -146 36 -306 79 -281 77 -290 80 -288 103 2 33 22 108 29 108 3
0 139 -36 302 -80z m-201 -385 c17 -8 52 -32 77 -55 123 -114 123 -296 0 -412
-97 -91 -267 -92 -372 -3 -104 87 -123 262 -41 375 74 102 219 143 336 95z
m503 -60 l0 -65 -154 0 -154 0 -26 44 c-14 25 -38 54 -52 65 l-27 21 207 0
206 0 0 -65z m-933 -112 c-18 -66 -15 -145 8 -205 7 -17 -13 -18 -324 -18
-360 0 -367 1 -410 56 -41 52 -18 143 42 169 25 11 103 14 360 15 308 0 328
-1 324 -17z m1063 -78 l0 -65 -205 0 -205 0 0 49 c0 27 -3 56 -6 65 -5 14 17
16 205 16 l211 0 0 -65z m0 -190 l0 -65 -256 0 -256 0 24 33 c14 17 33 47 42
65 l17 32 214 0 215 0 0 -65z"/>
<path d="M580 1743 c-1 -10 -15 -27 -33 -38 -24 -15 -33 -29 -35 -53 -4 -42 8
-57 80 -93 61 -31 67 -39 43 -59 -22 -18 -64 -4 -75 25 -6 15 -17 25 -30 25
-31 0 -27 -54 6 -85 15 -14 30 -25 34 -25 4 0 10 -9 13 -20 7 -28 36 -25 47 5
5 14 16 25 24 25 22 0 46 40 46 77 0 35 -22 55 -98 88 -53 23 -54 49 0 53 31
3 38 -1 50 -25 17 -37 42 -36 46 1 4 30 -30 76 -55 76 -7 0 -13 9 -13 20 0 27
-50 29 -50 3z"/>
<path d="M772 1598 c3 -23 6 -23 138 -23 132 0 135 0 138 23 3 22 3 22 -138
22 -141 0 -141 0 -138 -22z"/>
<path d="M777 1513 c-13 -12 -7 -41 9 -47 9 -3 105 -6 214 -6 163 0 200 3 210
15 10 12 10 18 0 30 -10 12 -48 15 -220 15 -113 0 -210 -3 -213 -7z"/>
<path d="M526 1308 c-18 -25 -21 -74 -6 -112 9 -24 14 -26 68 -26 32 0 63 5
70 12 7 7 12 37 12 68 0 31 -5 61 -12 68 -7 7 -36 12 -64 12 -43 0 -56 -4 -68
-22z m94 -63 c0 -20 -5 -25 -25 -25 -20 0 -25 5 -25 25 0 20 5 25 25 25 20 0
25 -5 25 -25z"/>
<path d="M775 1306 c-11 -8 -16 -19 -12 -30 6 -14 19 -16 84 -14 67 3 78 6 81
22 2 10 -2 22 -10 27 -21 14 -122 10 -143 -5z"/>
<path d="M997 1313 c-12 -3 -17 -12 -15 -26 3 -21 7 -22 138 -22 130 0 135 1
138 21 2 15 -4 23 -20 28 -26 7 -214 6 -241 -1z"/>
<path d="M543 1070 c-27 -11 -40 -67 -26 -113 7 -26 16 -34 45 -41 23 -6 50
-6 70 0 32 10 33 11 36 74 2 52 0 67 -14 77 -20 15 -78 16 -111 3z m77 -75 c0
-20 -5 -25 -25 -25 -20 0 -25 5 -25 25 0 20 5 25 25 25 20 0 25 -5 25 -25z"/>
<path d="M764 1045 c-11 -27 7 -35 80 -35 76 0 105 12 85 37 -17 19 -158 18
-165 -2z"/>
<path d="M526 798 c-20 -29 -20 -87 0 -116 12 -18 25 -22 68 -22 28 0 57 5 64
12 7 7 12 37 12 68 0 31 -5 61 -12 68 -7 7 -36 12 -64 12 -43 0 -56 -4 -68
-22z m94 -58 c0 -25 -4 -30 -25 -30 -21 0 -25 5 -25 30 0 25 4 30 25 30 21 0
25 -5 25 -30z"/>
<path d="M773 804 c-19 -8 -16 -32 6 -44 24 -12 121 -13 139 -1 8 5 12 17 10
27 -3 16 -13 19 -73 21 -39 1 -76 -1 -82 -3z"/>
<path d="M983 794 c-12 -32 24 -44 137 -44 113 0 149 12 137 44 -5 14 -25 16
-137 16 -112 0 -132 -2 -137 -16z"/>
<path d="M1137 624 c-4 -4 -7 -15 -7 -24 0 -10 -13 -23 -30 -30 -40 -16 -60
-46 -60 -88 0 -43 32 -73 110 -101 75 -27 91 -51 54 -80 -15 -12 -33 -21 -40
-21 -30 0 -63 21 -76 47 -17 37 -42 36 -46 -1 -4 -31 27 -72 65 -87 12 -4 23
-18 25 -31 4 -31 42 -32 46 0 2 14 15 27 37 36 39 17 69 67 61 102 -7 28 -55
65 -116 88 -77 30 -89 53 -45 82 40 26 92 12 110 -31 15 -38 26 -43 45 -20 20
24 -11 81 -54 102 -21 9 -36 25 -38 37 -3 21 -28 33 -41 20z"/>
</g>
</svg>
