<?xml version="1.0" standalone="no"?>
<!DOCTYPE svg PUBLIC "-//W3C//DTD SVG 20010904//EN"
 "http://www.w3.org/TR/2001/REC-SVG-20010904/DTD/svg10.dtd">
<svg version="1.0" xmlns="http://www.w3.org/2000/svg"
 width="200.000000pt" height="200.000000pt" viewBox="0 0 200.000000 200.000000"
 preserveAspectRatio="xMidYMid meet">
<metadata>
Created by potrace 1.16, written by Peter Selinger 2001-2019
</metadata>
<g transform="translate(0.000000,200.000000) scale(0.100000,-0.100000)"
fill="#000000" stroke="none">
<path d="M395 1921 c-48 -22 -79 -54 -100 -103 -13 -32 -15 -120 -15 -658 l0
-620 275 0 c161 0 275 4 275 9 0 5 16 30 35 55 19 26 35 48 35 51 0 3 -32 5
-71 5 -67 0 -70 1 -67 23 3 21 8 22 109 25 81 2 116 7 145 22 36 18 37 19 13
20 -35 0 -56 24 -39 45 10 12 39 15 139 15 69 0 132 -4 140 -9 8 -5 12 -18 8
-30 -8 -33 47 -51 154 -51 l89 0 0 65 0 64 -37 10 c-21 6 -69 20 -108 32 -62
20 -101 23 -340 28 l-270 6 0 25 0 25 167 3 c158 2 166 3 161 22 -4 15 -16 20
-57 22 -43 3 -51 6 -51 23 0 17 8 20 57 23 55 3 57 4 64 35 3 18 13 44 20 59
l14 28 -187 2 c-187 3 -188 3 -191 26 l-3 22 298 -2 c290 -3 298 -4 298 -23 0
-17 -8 -21 -55 -24 l-55 -3 135 -37 135 -37 5 382 c5 379 5 383 28 413 l23 31
-568 0 c-531 0 -571 -2 -608 -19z m215 -126 c5 -14 14 -25 18 -25 22 0 63 -55
60 -79 -4 -36 -35 -39 -50 -6 -13 29 -53 43 -77 28 -30 -19 -16 -37 51 -70 51
-24 69 -39 74 -58 10 -41 -4 -75 -41 -97 -19 -11 -35 -26 -35 -34 0 -20 -41
-17 -46 4 -3 9 -18 25 -35 34 -45 27 -64 98 -25 98 8 0 24 -13 36 -30 22 -31
48 -37 81 -20 31 17 22 29 -45 60 -105 46 -124 108 -49 155 18 11 32 25 33 31
0 12 21 34 32 34 5 0 13 -11 18 -25z m445 -155 l0 -25 -143 -3 c-120 -2 -143
0 -148 13 -4 8 -4 22 0 30 5 13 28 15 148 13 l143 -3 0 -25z m173 -112 l-3
-23 -230 0 -230 0 -3 23 -3 22 236 0 236 0 -3 -22z m-580 -190 c16 -16 16
-120 0 -136 -7 -7 -39 -12 -75 -12 -51 0 -64 3 -73 19 -14 27 -13 114 2 129
16 16 130 16 146 0z m282 -23 c0 -25 -1 -25 -84 -25 -85 0 -103 7 -92 35 4 12
25 15 91 15 84 0 85 0 85 -25z m345 0 c0 -19 -8 -20 -139 -23 -141 -3 -164 2
-153 33 6 13 26 15 149 13 135 -3 143 -4 143 -23z m-633 -242 c24 -21 25 -114
2 -137 -21 -22 -117 -22 -138 0 -22 21 -21 111 1 136 22 24 109 25 135 1z
m293 -13 c16 -26 -18 -40 -96 -40 -78 0 -96 8 -85 35 4 12 25 15 90 15 48 0
88 -5 91 -10z m-291 -256 c10 -10 16 -33 16 -66 0 -69 -18 -88 -83 -88 -69 0
-87 18 -87 86 0 69 15 84 85 84 35 0 59 -5 69 -16z m281 -24 c0 -24 -2 -25
-76 -28 -59 -2 -79 1 -89 13 -10 12 -10 18 0 30 10 12 30 15 89 13 74 -3 76
-4 76 -28z"/>
<path d="M550 1269 c0 -27 3 -30 28 -27 21 2 28 9 30 31 3 24 0 27 -27 27 -28
0 -31 -3 -31 -31z"/>
<path d="M550 999 c0 -27 3 -30 28 -27 21 2 28 9 30 31 3 24 0 27 -27 27 -28
0 -31 -3 -31 -31z"/>
<path d="M550 741 c0 -28 3 -31 31 -31 27 0 30 3 27 28 -2 21 -9 28 -30 30
-25 3 -28 0 -28 -27z"/>
<path d="M1634 1924 c-50 -24 -64 -60 -64 -163 l0 -91 126 0 126 0 -4 88 c-5
102 -22 142 -72 166 -42 20 -72 20 -112 0z"/>
<path d="M1156 1079 c-9 -34 -14 -64 -12 -67 10 -10 630 -173 641 -168 15 5
39 116 28 126 -9 9 -600 170 -624 170 -11 0 -21 -20 -33 -61z"/>
<path d="M1094 696 c-110 -27 -194 -104 -230 -210 -25 -74 -16 -187 21 -255
105 -193 362 -227 517 -69 65 67 91 139 86 238 -9 153 -108 268 -256 299 -63
13 -72 13 -138 -3z m104 -109 c7 -15 19 -27 26 -27 18 0 64 -51 71 -81 8 -33
-17 -58 -40 -39 -8 7 -15 18 -15 26 0 19 -40 44 -71 44 -15 0 -37 -9 -50 -19
-34 -28 -19 -46 71 -90 41 -20 83 -48 94 -63 18 -25 18 -30 5 -65 -10 -26 -26
-44 -51 -58 -21 -11 -39 -29 -40 -40 -4 -29 -52 -28 -56 1 -2 12 -17 28 -38
37 -57 28 -85 117 -36 117 11 0 24 -13 33 -33 19 -42 74 -59 113 -33 52 34 23
70 -86 105 -44 14 -88 63 -88 96 0 28 55 95 77 95 8 0 19 14 25 31 13 37 37
35 56 -4z"/>
<path d="M1430 664 c0 -4 14 -22 31 -41 17 -20 38 -51 47 -69 l16 -35 145 3
146 3 3 64 c2 45 -1 67 -10 72 -15 10 -378 12 -378 3z"/>
<path d="M110 477 c-13 -7 -35 -28 -48 -47 -27 -40 -26 -92 3 -136 33 -51 57
-54 416 -54 l331 0 -6 28 c-14 64 -18 150 -8 185 l10 37 -336 0 c-250 0 -343
-4 -362 -13z"/>
<path d="M1546 398 l3 -73 203 0 203 0 3 64 c2 45 -1 67 -10 72 -7 5 -101 9
-209 9 l-196 0 3 -72z"/>
<path d="M1507 218 c-15 -29 -34 -63 -43 -76 l-17 -22 254 2 254 3 0 70 0 70
-210 3 -211 2 -27 -52z"/>
</g>
</svg>
