<?xml version="1.0" standalone="no"?>
<!DOCTYPE svg PUBLIC "-//W3C//DTD SVG 20010904//EN"
 "http://www.w3.org/TR/2001/REC-SVG-20010904/DTD/svg10.dtd">
<svg version="1.0" xmlns="http://www.w3.org/2000/svg"
 width="200.000000pt" height="200.000000pt" viewBox="0 0 200.000000 200.000000"
 preserveAspectRatio="xMidYMid meet">
<metadata>
Created by potrace 1.16, written by Peter Selinger 2001-2019
</metadata>
<g transform="translate(0.000000,200.000000) scale(0.100000,-0.100000)"
fill="#000000" stroke="none">
<path d="M1249 1832 c-32 -16 -68 -46 -88 -72 -31 -42 -37 -45 -93 -51 -62 -6
-110 -33 -116 -63 -10 -50 34 -96 91 -96 l24 0 -18 -52 c-46 -133 -11 -264 85
-318 l51 -30 -45 -1 c-25 0 -53 -4 -63 -7 -20 -8 -120 -213 -138 -284 l-12
-46 -59 -4 c-32 -2 -58 -3 -58 -3 0 0 -11 80 -24 179 -17 125 -29 183 -40 194
-17 17 -278 50 -403 51 -79 1 -98 -19 -87 -96 6 -46 4 -50 -20 -61 -31 -14
-43 -55 -26 -87 7 -13 10 -31 6 -41 -4 -9 1 -28 11 -43 10 -14 22 -39 28 -55
5 -16 19 -34 30 -40 29 -16 32 -23 40 -82 8 -68 36 -104 79 -104 23 0 41 -9
62 -31 16 -17 55 -48 88 -70 73 -49 126 -52 193 -14 23 14 43 30 43 35 0 13
56 -21 69 -43 9 -14 9 -31 1 -70 -16 -71 -10 -162 10 -162 12 0 16 18 21 78 9
106 18 109 12 5 l-6 -84 31 -26 c47 -39 190 -70 330 -72 108 -1 115 0 133 23
12 15 19 39 19 66 0 38 2 43 20 38 13 -4 20 -14 21 -32 1 -53 24 -106 44 -106
14 0 19 6 17 20 -2 11 -6 38 -9 61 l-5 41 46 5 c52 6 107 43 136 91 11 17 41
92 67 166 42 120 48 146 48 216 -1 72 -4 87 -35 143 -30 57 -100 132 -122 132
-5 0 -24 11 -41 24 -18 13 -56 36 -86 51 l-53 27 6 41 c4 23 12 59 18 79 10
35 12 36 53 35 50 -2 79 18 95 69 9 27 8 40 -5 67 -15 33 -15 38 5 98 16 45
20 75 15 105 -13 90 -104 178 -223 214 -85 26 -110 25 -173 -8z m185 -42 c63
-24 138 -86 156 -130 14 -33 9 -108 -9 -153 l-11 -29 -48 40 c-77 65 -165 117
-256 152 -47 19 -86 36 -86 40 0 9 72 76 95 88 31 18 99 14 159 -8z m21 -275
c30 -22 55 -42 55 -45 0 -3 -14 -13 -30 -22 -29 -17 -39 -41 -21 -52 5 -3 27
4 50 17 49 27 74 17 79 -31 4 -39 -24 -56 -77 -47 l-38 6 -23 -53 c-13 -31
-25 -82 -28 -123 -4 -58 -9 -75 -31 -99 -54 -60 -169 -88 -191 -47 -16 32 -12
60 16 97 22 28 33 34 63 34 61 0 111 18 111 40 0 23 -10 24 -80 9 -74 -16
-133 -4 -177 34 -61 53 -77 123 -52 223 14 53 29 63 64 40 14 -9 30 -14 35
-11 19 11 10 35 -19 53 -27 17 -26 17 105 17 l133 0 56 -40z m-913 -344 c92
-9 170 -20 173 -23 12 -12 54 -363 44 -373 -14 -14 -11 -51 6 -65 16 -13 21
-55 7 -64 -15 -9 -377 16 -389 28 -6 6 -15 39 -19 72 -6 58 -5 62 15 69 30 9
43 48 29 83 -6 15 -10 41 -9 59 2 23 -3 36 -18 45 -12 7 -21 23 -21 35 0 12
-13 32 -29 45 -27 22 -48 87 -34 102 9 9 63 6 245 -13z m938 -97 c0 -4 -14
-22 -31 -42 -40 -45 -103 -176 -129 -266 -11 -38 -23 -73 -28 -78 -5 -5 -47 0
-94 11 -46 11 -94 18 -105 15 -14 -4 -25 2 -37 21 -17 25 -17 30 -1 78 9 29
32 87 52 129 l36 77 27 -29 c15 -16 39 -32 54 -36 55 -13 177 41 218 96 20 28
38 39 38 24z m-1163 -41 c6 -16 -40 -38 -61 -30 -23 9 -20 26 7 37 28 11 49 9
54 -7z m1345 -72 c21 -18 49 -57 64 -87 43 -87 37 -155 -25 -333 -28 -79 -61
-155 -73 -169 -28 -30 -77 -52 -116 -52 -35 0 -279 76 -287 90 -6 9 23 140 34
152 3 4 69 -1 146 -11 77 -10 144 -15 149 -10 19 17 -3 39 -40 39 -30 0 -35 3
-29 18 19 49 45 163 40 172 -12 19 -35 10 -41 -17 -24 -108 -46 -163 -64 -163
-16 0 -12 32 16 126 35 122 77 207 131 262 36 37 47 44 52 31 3 -9 23 -30 43
-48z m-1302 -5 c0 -14 -49 -36 -81 -36 -26 0 -24 25 4 38 33 16 77 15 77 -2z
m10 -81 c0 -16 -30 -35 -54 -35 -21 0 -20 27 2 39 25 15 52 13 52 -4z m607
-135 c18 -11 46 -39 62 -62 16 -24 40 -53 52 -66 22 -21 22 -24 8 -70 -15 -47
-15 -47 -60 -48 -24 0 -62 -4 -84 -8 l-40 -7 24 19 c27 22 21 42 -12 42 -20 1
-21 2 -4 14 41 31 5 58 -42 30 -17 -10 -33 -15 -37 -11 -13 13 25 55 70 76 67
31 59 63 -19 76 -22 3 -55 8 -73 11 -56 9 -24 24 51 24 54 0 80 -5 104 -20z
m-107 -57 c0 -5 -11 -16 -24 -25 -23 -17 -24 -17 -22 7 1 19 7 25 24 25 12 0
22 -3 22 -7z m-68 -82 c-8 -23 -112 -81 -144 -81 -27 0 -72 24 -119 63 l-34
29 135 -6 c83 -4 141 -2 150 4 20 13 20 13 12 -9z m408 -38 c0 -9 -7 -43 -16
-74 l-16 -58 -30 15 c-21 11 -28 20 -23 32 3 9 11 36 18 60 10 37 15 42 39 42
20 0 28 -5 28 -17z"/>
<path d="M1232 1758 c-19 -19 -15 -58 6 -58 25 0 42 19 42 47 0 25 -27 32 -48
11z"/>
<path d="M1314 1762 c-6 -4 -17 -18 -23 -31 -11 -19 -10 -26 3 -39 14 -14 17
-14 36 3 32 29 18 90 -16 67z"/>
<path d="M1367 1722 c-23 -26 -22 -62 2 -62 25 0 43 24 39 51 -4 30 -21 34
-41 11z"/>
<path d="M1254 1517 c-9 -25 4 -37 40 -37 18 0 41 -7 52 -15 27 -20 44 -18 44
5 0 25 -34 47 -87 56 -34 5 -44 3 -49 -9z"/>
<path d="M1110 1455 c-16 -19 -6 -45 19 -45 23 0 35 28 20 46 -15 18 -24 18
-39 -1z"/>
<path d="M1185 1452 c-16 -11 -55 -94 -49 -103 11 -18 35 -8 54 24 28 46 25
100 -5 79z"/>
<path d="M1280 1425 c-17 -20 -5 -45 20 -45 11 0 23 7 26 15 6 15 -11 45 -26
45 -4 0 -13 -7 -20 -15z"/>
<path d="M1514 1385 c-4 -9 -2 -21 4 -27 15 -15 44 -1 40 19 -4 23 -36 29 -44
8z"/>
<path d="M1252 1308 c-7 -7 -36 -13 -65 -13 -64 0 -73 -25 -15 -39 47 -12 113
11 113 39 0 23 -17 29 -33 13z"/>
<path d="M400 1120 c0 -22 13 -26 102 -34 39 -3 60 0 68 8 17 22 -9 33 -92 40
-73 5 -78 4 -78 -14z"/>
<path d="M616 1112 c-3 -3 -6 -13 -6 -23 0 -13 9 -17 51 -17 45 0 50 2 47 22
-2 17 -10 21 -45 23 -23 0 -44 -1 -47 -5z"/>
<path d="M530 1000 c0 -5 -7 -10 -15 -10 -22 0 -48 -45 -40 -70 3 -11 20 -27
36 -35 17 -9 29 -24 29 -35 0 -21 -15 -27 -25 -10 -10 15 -35 12 -35 -5 0 -8
10 -23 22 -33 12 -9 32 -28 45 -41 20 -21 23 -22 29 -7 4 9 19 30 35 46 42 41
34 91 -17 110 -28 11 -33 34 -5 25 34 -10 35 16 2 46 -32 29 -61 38 -61 19z
m5 -60 c3 -5 1 -10 -4 -10 -6 0 -11 5 -11 10 0 6 2 10 4 10 3 0 8 -4 11 -10z
m52 -102 c-3 -8 -6 -5 -6 6 -1 11 2 17 5 13 3 -3 4 -12 1 -19z"/>
<path d="M944 1081 c-70 -50 -140 -146 -124 -170 12 -20 25 -11 62 44 18 27
56 66 83 87 28 21 50 43 50 50 0 24 -31 19 -71 -11z"/>
</g>
</svg>
