<?xml version="1.0" standalone="no"?>
<!DOCTYPE svg PUBLIC "-//W3C//DTD SVG 20010904//EN"
 "http://www.w3.org/TR/2001/REC-SVG-20010904/DTD/svg10.dtd">
<svg version="1.0" xmlns="http://www.w3.org/2000/svg"
 width="200.000000pt" height="200.000000pt" viewBox="0 0 200.000000 200.000000"
 preserveAspectRatio="xMidYMid meet">
<metadata>
Created by potrace 1.16, written by Peter Selinger 2001-2019
</metadata>
<g transform="translate(0.000000,200.000000) scale(0.100000,-0.100000)"
fill="#000000" stroke="none">
<path d="M493 1753 c-7 -2 -13 -20 -13 -39 0 -33 -1 -34 -43 -34 -24 0 -48 -5
-55 -12 -9 -9 -12 -180 -12 -710 0 -679 1 -698 19 -708 21 -11 1017 -15 1045
-4 11 4 16 19 16 45 l0 39 49 0 c81 0 81 0 81 105 0 62 5 102 15 122 38 76 38
179 0 269 -12 30 -15 88 -15 323 l0 287 -163 162 -163 162 -375 -1 c-206 0
-380 -3 -386 -6z m905 -186 l142 -143 -2 -252 -3 -253 -42 31 -43 32 0 204 0
205 -144 144 -144 145 -326 0 c-283 0 -326 2 -326 15 0 13 48 15 373 15 l372
0 143 -143z m-121 -59 l133 -133 0 -185 0 -185 -97 0 c-87 0 -104 -3 -148 -27
-185 -98 -233 -332 -101 -493 66 -80 205 -129 304 -107 l42 10 0 -49 0 -49
-500 0 -500 0 0 675 0 675 367 0 368 0 132 -132z m166 -571 c51 -30 88 -71
119 -131 32 -60 31 -165 -1 -229 -84 -172 -296 -218 -436 -95 -65 57 -95 123
-95 211 0 115 49 195 153 247 57 29 68 31 138 28 60 -4 86 -10 122 -31z m97
-512 l0 -45 -45 0 c-58 0 -58 16 -2 57 23 17 43 32 45 32 1 1 2 -19 2 -44z"/>
<path d="M526 1391 c-17 -27 28 -31 300 -29 256 3 279 4 282 21 3 16 -16 17
-287 17 -159 0 -292 -4 -295 -9z"/>
<path d="M526 1181 c-17 -27 28 -31 300 -29 240 3 279 5 279 18 0 13 -40 15
-287 18 -163 1 -289 -2 -292 -7z"/>
<path d="M525 969 c-16 -25 19 -29 221 -27 178 3 209 5 209 18 0 13 -31 15
-212 18 -147 2 -214 -1 -218 -9z"/>
<path d="M530 755 c-20 -24 -1 -26 220 -23 174 3 205 5 205 18 0 23 -406 28
-425 5z"/>
<path d="M530 545 c-20 -24 -1 -26 220 -23 174 3 205 5 205 18 0 23 -406 28
-425 5z"/>
<path d="M1290 900 c0 -11 -12 -26 -29 -34 -15 -8 -34 -29 -41 -46 -11 -27
-11 -37 3 -66 13 -27 25 -36 62 -45 51 -13 72 -38 55 -69 -9 -18 -32 -25 -100
-32 -41 -5 -31 -32 13 -36 28 -2 37 -8 37 -21 0 -10 3 -21 7 -24 10 -10 33 13
33 34 0 10 9 23 20 29 21 11 36 52 31 85 -4 30 -38 62 -73 69 -91 18 -69 96
28 96 22 0 44 3 47 7 10 10 -13 33 -33 33 -10 0 -20 9 -23 20 -7 26 -37 26
-37 0z"/>
</g>
</svg>
