<?xml version="1.0" standalone="no"?>
<!DOCTYPE svg PUBLIC "-//W3C//DTD SVG 20010904//EN"
 "http://www.w3.org/TR/2001/REC-SVG-20010904/DTD/svg10.dtd">
<svg version="1.0" xmlns="http://www.w3.org/2000/svg"
 width="200.000000pt" height="200.000000pt" viewBox="0 0 200.000000 200.000000"
 preserveAspectRatio="xMidYMid meet">
<metadata>
Created by potrace 1.16, written by Peter Selinger 2001-2019
</metadata>
<g transform="translate(0.000000,200.000000) scale(0.100000,-0.100000)"
fill="#000000" stroke="none">
<path d="M510 1907 c-30 -16 -51 -37 -67 -67 l-23 -43 0 -791 c0 -543 4 -803
11 -831 16 -57 64 -100 127 -114 71 -15 812 -15 882 0 63 14 114 59 129 116 8
30 11 273 9 840 l-3 798 -23 37 c-13 21 -40 45 -66 57 -41 20 -58 21 -488 21
l-445 0 -43 -23z m945 -51 c34 -14 55 -41 55 -70 0 -14 -54 -16 -515 -16
l-515 0 13 33 c27 66 32 67 505 67 342 0 429 -3 457 -14z m65 -841 l0 -685
-520 0 -520 0 0 685 0 685 520 0 520 0 0 -685z m-4 -797 c-4 -30 -16 -52 -36
-70 l-30 -28 -450 0 -450 0 -29 28 c-20 18 -32 41 -36 70 l-7 42 522 0 523 0
-7 -42z"/>
<path d="M1101 1411 l-42 -39 24 -53 c19 -44 28 -54 48 -54 18 0 24 5 23 23
-1 29 9 28 61 -8 79 -54 130 -143 143 -247 6 -53 9 -58 32 -58 24 0 25 2 24
65 -1 115 -82 244 -194 308 -25 14 -47 27 -49 28 -1 2 4 13 12 25 9 11 13 28
10 35 -9 25 -49 15 -92 -25z"/>
<path d="M893 1395 c-108 -30 -200 -97 -250 -182 l-26 -44 -23 22 c-26 24 -54
20 -54 -8 0 -24 58 -123 72 -123 18 0 92 23 106 33 27 21 0 69 -29 51 -13 -7
-11 3 5 34 41 80 161 153 279 170 47 7 52 10 52 32 0 22 -5 25 -40 27 -22 1
-64 -4 -92 -12z"/>
<path d="M977 1264 c-4 -4 -7 -19 -7 -34 0 -21 -7 -29 -36 -39 -64 -23 -96
-116 -58 -170 21 -29 72 -51 121 -51 72 0 105 -48 63 -90 -27 -27 -81 -26
-129 2 -44 25 -74 19 -69 -14 2 -15 19 -30 55 -48 42 -21 52 -30 55 -55 2 -24
8 -30 28 -30 21 0 26 5 28 31 2 25 10 33 38 43 67 24 96 120 54 174 -22 27
-74 47 -125 47 -38 0 -75 25 -75 51 0 52 78 76 141 43 38 -19 61 -12 57 18 -2
16 -17 29 -45 43 -34 15 -43 25 -45 50 -2 21 -9 31 -23 33 -12 2 -24 0 -28 -4z"/>
<path d="M583 1004 c-3 -8 -3 -42 0 -75 10 -107 87 -236 174 -290 32 -20 34
-24 19 -34 -20 -15 -21 -51 -1 -58 8 -4 41 3 75 14 l60 21 0 46 c0 62 -8 89
-28 97 -21 8 -44 -23 -36 -48 6 -18 3 -18 -36 4 -85 48 -155 158 -167 261 -3
29 -10 59 -16 66 -13 17 -36 15 -44 -4z"/>
<path d="M1313 914 c-23 -8 -44 -21 -47 -29 -7 -20 20 -44 44 -38 28 7 25 -7
-13 -63 -59 -86 -172 -154 -255 -154 -62 0 -91 -32 -57 -60 21 -18 131 2 201
35 64 32 143 107 182 174 22 39 31 48 36 36 8 -23 50 -15 54 10 1 11 -11 39
-28 63 -35 46 -49 50 -117 26z"/>
<path d="M892 203 c-19 -37 -5 -43 102 -43 109 0 133 9 115 42 -8 16 -23 18
-109 18 -84 0 -101 -3 -108 -17z"/>
</g>
</svg>
