<?xml version="1.0" standalone="no"?>
<!DOCTYPE svg PUBLIC "-//W3C//DTD SVG 20010904//EN"
 "http://www.w3.org/TR/2001/REC-SVG-20010904/DTD/svg10.dtd">
<svg version="1.0" xmlns="http://www.w3.org/2000/svg"
 width="200.000000pt" height="200.000000pt" viewBox="0 0 200.000000 200.000000"
 preserveAspectRatio="xMidYMid meet">
<metadata>
Created by potrace 1.16, written by Peter Selinger 2001-2019
</metadata>
<g transform="translate(0.000000,200.000000) scale(0.100000,-0.100000)"
fill="#000000" stroke="none">
<path d="M509 1871 c-49 -10 -93 -43 -115 -88 -18 -36 -19 -75 -22 -660 l-3
-623 -108 0 c-88 0 -111 -3 -122 -16 -18 -22 -24 -135 -10 -207 12 -68 32 -98
86 -129 l40 -23 620 0 620 0 41 24 c23 13 51 40 63 61 21 37 21 46 21 599 l0
561 99 0 c55 0 112 4 126 10 l26 10 -3 192 c-3 214 -5 220 -77 269 l-35 24
-605 2 c-333 0 -622 -2 -642 -6z m1045 -98 c-5 -10 -11 -357 -14 -771 l-5
-754 -24 -19 c-32 -26 -74 -24 -108 5 -26 23 -28 28 -31 132 -2 60 -9 115 -14
122 -8 9 -111 12 -454 12 l-444 0 0 620 0 621 25 24 24 25 527 0 c498 0 526
-1 518 -17z m211 -8 c24 -23 25 -29 25 -165 l0 -140 -80 0 -80 0 -1 123 c-2
160 -2 158 27 185 33 29 78 29 109 -3z m-473 -1432 c3 -49 8 -96 12 -105 8
-17 -21 -18 -518 -18 l-527 0 -24 25 c-22 22 -25 32 -25 105 l0 80 539 0 539
0 4 -87z"/>
<path d="M978 1659 c-10 -5 -18 -20 -18 -33 0 -16 -10 -27 -35 -39 -68 -32
-99 -118 -70 -192 20 -53 50 -77 124 -99 68 -20 91 -40 91 -81 0 -59 -66 -92
-113 -55 -15 12 -27 29 -27 39 0 23 -28 61 -45 61 -7 0 -21 -7 -30 -17 -35
-34 11 -136 74 -164 20 -9 31 -22 33 -38 6 -53 69 -53 76 0 2 16 15 31 40 44
51 28 87 99 77 156 -11 62 -54 105 -133 129 -83 26 -92 34 -92 80 0 46 24 70
72 70 41 0 63 -20 73 -68 12 -57 86 -51 85 7 -1 40 -40 100 -79 123 -28 16
-41 30 -41 45 0 12 -9 27 -19 33 -23 12 -22 12 -43 -1z"/>
<path d="M620 873 c-16 -6 -40 -32 -40 -44 0 -4 7 -15 16 -23 13 -14 64 -16
404 -16 340 0 391 2 404 16 20 19 20 25 2 50 -14 18 -31 19 -393 21 -208 1
-385 -1 -393 -4z"/>
<path d="M596 691 c-21 -23 -12 -49 21 -62 13 -5 104 -9 201 -9 189 0 222 7
222 50 0 34 -32 40 -233 40 -176 0 -195 -2 -211 -19z"/>
</g>
</svg>
