<?xml version="1.0" standalone="no"?>
<!DOCTYPE svg PUBLIC "-//W3C//DTD SVG 20010904//EN"
 "http://www.w3.org/TR/2001/REC-SVG-20010904/DTD/svg10.dtd">
<svg version="1.0" xmlns="http://www.w3.org/2000/svg"
 width="200.000000pt" height="200.000000pt" viewBox="0 0 200.000000 200.000000"
 preserveAspectRatio="xMidYMid meet">
<metadata>
Created by potrace 1.16, written by Peter Selinger 2001-2019
</metadata>
<g transform="translate(0.000000,200.000000) scale(0.100000,-0.100000)"
fill="#000000" stroke="none">
<path d="M416 1884 c-3 -9 -6 -282 -5 -607 0 -431 3 -601 12 -627 7 -19 27
-44 46 -57 31 -21 45 -23 177 -23 l144 0 2 -232 c3 -267 6 -275 72 -183 22 30
42 52 46 48 3 -5 23 -29 44 -55 20 -27 41 -48 46 -48 5 0 28 25 51 55 l42 55
40 -55 c23 -30 46 -55 53 -55 7 0 29 23 49 50 20 28 40 50 45 50 5 0 25 -23
45 -50 20 -28 42 -50 49 -50 6 0 29 23 49 50 21 28 41 50 45 50 5 0 23 -20 41
-45 39 -54 48 -60 66 -45 13 11 15 93 14 564 0 400 -3 560 -12 586 -21 61 -60
74 -224 78 l-143 4 0 273 c0 154 -4 276 -9 279 -16 11 -35 -4 -72 -55 l-36
-49 -42 55 c-23 30 -46 55 -51 55 -5 0 -28 -24 -51 -52 -23 -29 -44 -51 -48
-48 -3 2 -23 26 -44 52 -20 27 -42 48 -47 48 -5 0 -28 -25 -50 -56 l-41 -55
-37 48 c-57 76 -62 76 -111 7 -18 -24 -36 -44 -41 -44 -4 0 -25 23 -45 50 -38
52 -58 62 -69 34z m249 -104 c20 -27 44 -50 53 -50 10 0 33 23 52 50 19 27 37
50 40 50 3 0 23 -22 43 -50 21 -27 44 -50 52 -50 8 0 31 23 52 50 20 28 40 50
43 50 3 -1 20 -21 38 -46 45 -61 59 -65 93 -23 l28 34 1 -227 0 -226 -237 -4
c-259 -3 -270 -5 -303 -61 -19 -30 -20 -53 -20 -324 0 -280 -1 -294 -20 -313
-11 -11 -33 -20 -50 -20 -17 0 -39 9 -50 20 -20 20 -20 33 -20 593 l0 572 25
-30 c13 -16 24 -33 25 -37 0 -5 8 -8 18 -8 10 0 35 23 55 50 21 28 39 50 41
50 3 0 21 -22 41 -50z m100 -515 l25 -24 0 -311 0 -310 -80 0 -80 0 10 26 c6
14 10 151 10 314 0 285 0 290 22 310 29 27 64 25 93 -5z m750 0 l25 -24 0
-523 0 -523 -25 30 c-13 17 -24 33 -25 38 0 4 -9 7 -19 7 -12 0 -34 -20 -55
-50 -20 -28 -41 -48 -46 -45 -5 3 -24 26 -41 50 -18 25 -40 45 -49 45 -9 0
-31 -20 -49 -45 -17 -24 -36 -47 -40 -50 -5 -3 -26 17 -46 45 -20 27 -43 50
-51 50 -7 0 -31 -22 -51 -49 -21 -28 -40 -50 -43 -50 -3 -1 -23 22 -43 49 -21
28 -44 50 -52 50 -7 0 -24 -15 -37 -33 l-23 -32 -5 525 c-3 289 -9 533 -14
543 -8 16 11 17 328 17 l337 0 24 -25z"/>
<path d="M557 1583 c-10 -3 -17 -12 -15 -21 3 -15 30 -17 270 -20 229 -2 267
0 271 13 4 9 -2 19 -13 25 -18 10 -476 13 -513 3z"/>
<path d="M543 1444 c-3 -9 0 -20 8 -25 8 -5 127 -9 265 -9 252 0 280 4 267 36
-4 11 -54 14 -269 14 -233 0 -265 -2 -271 -16z"/>
<path d="M917 1196 c-13 -32 15 -36 268 -36 137 0 256 4 264 9 8 5 11 16 8 25
-6 14 -38 16 -271 16 -215 0 -265 -3 -269 -14z"/>
<path d="M928 1080 c-9 -6 -15 -17 -12 -25 9 -23 532 -22 541 0 3 9 2 19 -2
23 -11 12 -508 13 -527 2z"/>
<path d="M917 946 c-13 -32 15 -36 268 -36 137 0 256 4 264 9 8 5 11 16 8 25
-6 14 -38 16 -271 16 -215 0 -265 -3 -269 -14z"/>
<path d="M928 830 c-9 -6 -15 -17 -12 -25 9 -23 532 -22 541 0 3 9 2 19 -2 23
-11 12 -508 13 -527 2z"/>
<path d="M917 696 c-13 -32 15 -36 268 -36 137 0 256 4 264 9 8 5 11 16 8 25
-6 14 -38 16 -271 16 -215 0 -265 -3 -269 -14z"/>
<path d="M928 580 c-9 -6 -15 -17 -12 -25 9 -23 532 -22 541 0 3 9 2 19 -2 23
-11 12 -508 13 -527 2z"/>
<path d="M917 446 c-13 -32 15 -36 268 -36 137 0 256 4 264 9 8 5 11 16 8 25
-6 14 -38 16 -271 16 -215 0 -265 -3 -269 -14z"/>
</g>
</svg>
