<?xml version="1.0" standalone="no"?>
<!DOCTYPE svg PUBLIC "-//W3C//DTD SVG 20010904//EN"
 "http://www.w3.org/TR/2001/REC-SVG-20010904/DTD/svg10.dtd">
<svg version="1.0" xmlns="http://www.w3.org/2000/svg"
 width="200.000000pt" height="200.000000pt" viewBox="0 0 200.000000 200.000000"
 preserveAspectRatio="xMidYMid meet">
<metadata>
Created by potrace 1.16, written by Peter Selinger 2001-2019
</metadata>
<g transform="translate(0.000000,200.000000) scale(0.100000,-0.100000)"
fill="#000000" stroke="none">
<path d="M417 1893 c-4 -3 -7 -296 -7 -649 0 -700 -2 -674 55 -674 53 0 55 15
55 388 l0 344 39 39 39 39 306 0 306 0 -2 257 c-3 293 -6 301 -71 213 -20 -27
-41 -50 -45 -49 -4 0 -24 22 -45 50 -20 27 -42 49 -47 49 -5 0 -27 -22 -47
-49 -21 -28 -41 -50 -45 -50 -4 -1 -24 22 -45 49 -20 28 -43 50 -50 50 -7 0
-29 -22 -50 -50 -20 -27 -40 -50 -44 -50 -4 0 -24 23 -44 50 -20 28 -43 50
-50 50 -7 0 -30 -22 -50 -50 -20 -27 -40 -50 -44 -50 -4 0 -24 23 -44 50 -35
47 -55 59 -70 43z m660 -284 c6 -6 9 -18 6 -25 -4 -11 -54 -14 -268 -14 -265
0 -284 2 -271 35 4 13 47 15 264 15 177 0 262 -4 269 -11z m6 -133 c3 -8 3
-17 0 -20 -4 -3 -127 -6 -275 -6 -217 0 -268 3 -268 13 0 8 3 17 7 20 3 4 124
7 269 7 215 0 263 -2 267 -14z"/>
<path d="M611 1326 c-49 -27 -50 -38 -51 -399 0 -211 -4 -346 -10 -357 -6 -11
-23 -26 -38 -34 -25 -14 -18 -15 101 -16 l127 0 0 376 c0 238 -4 382 -10 395
-11 20 -60 49 -82 49 -7 -1 -24 -7 -37 -14z"/>
<path d="M760 1334 c0 -3 6 -15 13 -27 9 -17 13 -166 17 -612 6 -660 3 -639
73 -545 20 27 41 50 45 49 4 0 24 -22 45 -50 20 -27 42 -49 47 -49 5 0 27 22
47 49 21 28 41 50 45 50 4 1 24 -21 45 -49 20 -27 43 -50 50 -50 7 0 29 23 50
50 20 28 40 50 44 50 4 0 24 -22 44 -50 20 -27 43 -50 50 -50 7 0 30 23 50 50
20 28 40 50 44 50 4 0 24 -23 45 -51 24 -32 43 -49 54 -47 16 3 17 48 20 568
2 522 1 568 -15 600 -35 69 -44 70 -450 70 -200 0 -363 -3 -363 -6z m698 -146
c3 -17 -15 -18 -266 -18 -148 0 -271 3 -275 6 -3 3 -3 12 0 20 4 12 49 14 271
12 245 -3 267 -4 270 -20z m0 -125 c-3 -17 -25 -18 -267 -21 -200 -2 -266 1
-272 10 -4 7 -5 16 -3 20 3 4 127 8 275 8 252 0 270 -1 267 -17z m0 -125 c3
-17 -15 -18 -266 -18 -148 0 -271 3 -275 6 -3 3 -3 12 0 20 4 12 49 14 271 12
245 -3 267 -4 270 -20z m0 -125 c-3 -17 -25 -18 -267 -21 -200 -2 -266 1 -272
10 -4 7 -5 16 -3 20 3 4 127 8 275 8 252 0 270 -1 267 -17z m0 -125 c3 -17
-15 -18 -266 -18 -148 0 -271 3 -275 6 -3 3 -3 12 0 20 4 12 49 14 271 12 245
-3 267 -4 270 -20z m0 -125 c-3 -17 -25 -18 -267 -21 -200 -2 -266 1 -272 10
-4 7 -5 16 -3 20 3 4 127 8 275 8 252 0 270 -1 267 -17z m0 -125 c3 -17 -15
-18 -266 -18 -148 0 -271 3 -275 6 -3 3 -3 12 0 20 4 12 49 14 271 12 245 -3
267 -4 270 -20z"/>
</g>
</svg>
