<?xml version="1.0" standalone="no"?>
<!DOCTYPE svg PUBLIC "-//W3C//DTD SVG 20010904//EN"
 "http://www.w3.org/TR/2001/REC-SVG-20010904/DTD/svg10.dtd">
<svg version="1.0" xmlns="http://www.w3.org/2000/svg"
 width="200.000000pt" height="200.000000pt" viewBox="0 0 200.000000 200.000000"
 preserveAspectRatio="xMidYMid meet">
<metadata>
Created by potrace 1.16, written by Peter Selinger 2001-2019
</metadata>
<g transform="translate(0.000000,200.000000) scale(0.100000,-0.100000)"
fill="#000000" stroke="none">
<path d="M520 1831 l0 -60 48 -3 c34 -2 47 -7 47 -18 0 -11 -13 -16 -47 -18
l-48 -3 0 -485 0 -484 130 0 130 0 0 -78 0 -77 185 -185 185 -184 -31 -32 -30
-31 36 -32 c46 -40 82 -41 120 -1 36 38 58 38 102 0 44 -39 80 -39 118 0 16
16 37 30 48 30 11 0 35 -13 54 -30 18 -16 45 -30 58 -30 13 0 40 14 58 30 44
38 66 38 102 0 16 -17 39 -30 52 -30 l23 0 0 810 0 810 -51 0 c-43 0 -50 3
-47 18 2 13 15 18 51 20 l47 3 0 60 0 59 -670 0 -670 0 0 -59z m308 -83 c3
-16 -6 -18 -72 -18 -57 0 -76 3 -76 13 0 24 13 28 79 25 53 -2 66 -6 69 -20z
m217 2 c0 -11 -15 -16 -64 -18 -75 -4 -93 1 -85 23 9 22 149 18 149 -5z m215
0 c0 -18 -7 -20 -69 -20 -67 0 -89 9 -76 30 3 6 37 10 76 10 62 0 69 -2 69
-20z m218 -2 c3 -16 -6 -18 -72 -18 -70 0 -76 2 -76 20 0 19 5 21 72 18 60 -2
73 -6 76 -20z m217 2 c0 -12 -16 -16 -69 -18 -69 -3 -95 6 -81 28 4 7 33 10
78 8 56 -2 72 -6 72 -18z m-825 -176 c0 -22 4 -24 50 -24 43 0 50 -3 50 -20 0
-18 -7 -20 -85 -20 -72 0 -88 -3 -105 -20 -24 -24 -25 -38 -5 -67 11 -16 28
-22 76 -25 54 -4 66 -8 90 -36 40 -44 39 -93 0 -133 -16 -16 -39 -29 -50 -29
-15 0 -21 -6 -21 -22 0 -32 -15 -52 -34 -45 -10 4 -16 18 -16 37 0 29 -1 30
-50 30 -43 0 -50 3 -50 20 0 18 7 20 78 20 90 0 122 15 122 59 0 39 -17 51
-72 51 -54 0 -102 20 -118 49 -5 11 -10 37 -10 57 0 45 40 94 77 94 19 0 23 5
23 29 0 16 6 31 13 34 18 7 37 -13 37 -39z m805 -59 c0 -19 -8 -20 -279 -23
-167 -1 -284 2 -289 7 -5 5 -7 17 -4 25 6 14 39 16 289 14 275 -3 283 -4 283
-23z m-6 -124 c8 -5 11 -16 8 -25 -6 -14 -39 -16 -287 -16 -248 0 -281 2 -287
16 -3 9 0 20 8 25 18 11 540 11 558 0z m0 -140 c8 -5 11 -16 8 -25 -6 -14 -39
-16 -287 -16 -248 0 -281 2 -287 16 -3 9 0 20 8 25 18 11 540 11 558 0z m6
-221 c0 -13 -62 -15 -487 -18 -484 -2 -488 -2 -488 18 0 20 4 20 488 18 425
-3 487 -5 487 -18z m-6 -139 c8 -5 11 -16 8 -25 -6 -14 -55 -16 -486 -16 -324
0 -482 3 -486 10 -4 6 -4 17 -1 25 5 13 74 15 478 15 260 0 479 -4 487 -9z
m-133 -176 c92 -27 154 -116 154 -220 0 -225 -302 -303 -416 -109 -40 68 -40
160 -1 226 30 51 70 84 126 104 48 17 77 17 137 -1z"/>
<path d="M1400 664 c-96 -42 -135 -144 -91 -240 58 -128 238 -137 313 -16 33
54 32 135 -4 189 -47 72 -141 101 -218 67z m195 -86 c0 -20 -141 -178 -159
-178 -22 0 -90 65 -82 78 10 17 30 15 57 -7 l24 -19 65 74 c62 71 95 89 95 52z"/>
<path d="M250 645 l0 -95 115 0 c108 0 115 1 115 20 0 13 7 20 20 20 13 0 20
-7 20 -20 0 -17 7 -20 40 -20 33 0 40 3 40 20 0 15 7 20 25 20 18 0 25 -5 25
-20 0 -17 7 -20 50 -20 l50 0 0 95 0 95 -250 0 -250 0 0 -95z"/>
<path d="M715 500 l-60 -60 165 -165 165 -165 62 62 63 63 -162 162 c-90 90
-165 163 -168 163 -3 0 -32 -27 -65 -60z"/>
<path d="M127 513 c-4 -3 -7 -46 -7 -95 l0 -88 115 0 c108 0 115 1 115 20 0
15 7 20 25 20 18 0 25 -5 25 -20 0 -17 7 -20 40 -20 33 0 40 3 40 20 0 13 7
20 20 20 13 0 20 -7 20 -20 0 -17 7 -20 50 -20 l50 0 0 95 0 95 -243 0 c-134
0 -247 -3 -250 -7z"/>
<path d="M250 205 l0 -95 115 0 115 0 0 25 c0 18 5 25 20 25 15 0 20 -7 20
-25 0 -22 4 -25 40 -25 36 0 40 3 40 25 0 20 5 25 25 25 20 0 25 -5 25 -25 0
-23 3 -25 50 -25 l50 0 0 95 0 95 -250 0 -250 0 0 -95z"/>
</g>
</svg>
