<?xml version="1.0" standalone="no"?>
<!DOCTYPE svg PUBLIC "-//W3C//DTD SVG 20010904//EN"
 "http://www.w3.org/TR/2001/REC-SVG-20010904/DTD/svg10.dtd">
<svg version="1.0" xmlns="http://www.w3.org/2000/svg"
 width="200.000000pt" height="200.000000pt" viewBox="0 0 200.000000 200.000000"
 preserveAspectRatio="xMidYMid meet">
<metadata>
Created by potrace 1.16, written by Peter Selinger 2001-2019
</metadata>
<g transform="translate(0.000000,200.000000) scale(0.100000,-0.100000)"
fill="#000000" stroke="none">
<path d="M518 1298 l-3 -593 -155 -5 -155 -5 -3 -87 c-3 -86 -3 -87 -30 -90
l-27 -3 -3 -107 -3 -108 45 0 45 0 3 -93 3 -92 248 -3 247 -2 0 110 0 110 -45
0 -45 0 0 67 0 68 168 -168 c92 -92 172 -167 177 -167 13 0 135 122 135 135 0
6 -76 87 -170 180 l-170 169 -40 -39 -40 -39 0 82 0 82 -75 0 -75 0 0 499 0
500 43 3 c29 2 42 8 42 18 0 10 -13 16 -42 18 l-43 3 0 60 0 59 640 0 640 0 0
-60 0 -60 -39 0 c-37 0 -68 -19 -54 -33 3 -4 26 -7 50 -7 l43 0 0 -775 c0
-426 -4 -775 -8 -775 -5 0 -19 11 -32 25 -32 34 -74 33 -117 -5 -42 -37 -54
-37 -96 0 -44 39 -80 39 -124 0 -18 -17 -39 -30 -44 -30 -6 0 -28 14 -49 30
-23 18 -50 30 -67 30 -19 0 -39 -10 -58 -30 -34 -35 -55 -38 -80 -10 -21 23
-45 26 -45 6 0 -22 49 -56 79 -56 17 0 38 11 56 30 36 38 58 38 102 0 44 -39
80 -39 118 0 36 38 58 38 102 0 18 -16 45 -30 58 -30 13 0 40 14 58 30 44 38
66 38 102 0 18 -19 38 -30 50 -28 20 3 20 7 20 888 l0 885 -667 3 -668 2 -2
-592z m152 -703 l0 -75 -74 0 c-65 0 -74 2 -79 20 -3 11 -10 20 -17 20 -7 0
-14 -9 -17 -20 -4 -14 -14 -20 -34 -20 -22 0 -29 5 -29 20 0 11 -7 20 -15 20
-8 0 -15 -9 -15 -20 0 -18 -7 -20 -80 -20 l-80 0 0 75 0 75 220 0 220 0 0 -75z
m262 -172 c82 -81 148 -152 148 -158 0 -6 -21 -32 -48 -58 l-47 -47 -153 153
-153 153 46 52 c26 29 50 52 53 52 4 0 73 -66 154 -147z m-322 -18 l0 -75 -99
0 c-90 0 -99 2 -104 20 -3 11 -10 20 -17 20 -7 0 -14 -9 -17 -20 -8 -28 -60
-28 -65 0 -4 29 -22 30 -26 3 -3 -21 -9 -23 -58 -23 l-54 0 0 75 0 75 220 0
220 0 0 -75z m90 -185 l0 -80 -59 0 c-54 0 -60 2 -63 22 -5 32 -28 35 -28 4 0
-23 -4 -26 -35 -26 -31 0 -35 3 -35 26 0 31 -23 28 -28 -4 -3 -21 -9 -22 -93
-22 l-89 0 0 80 0 80 215 0 215 0 0 -80z"/>
<path d="M720 1731 c-27 -18 4 -32 61 -29 40 2 54 7 54 18 0 18 -91 26 -115
11z"/>
<path d="M927 1734 c-4 -4 -7 -14 -7 -21 0 -11 15 -13 63 -11 47 2 62 7 62 18
0 11 -14 16 -55 18 -31 2 -59 0 -63 -4z"/>
<path d="M1125 1730 c-13 -21 8 -30 66 -30 52 0 60 2 57 18 -2 13 -15 18 -60
20 -32 2 -59 -2 -63 -8z"/>
<path d="M1337 1734 c-4 -4 -7 -14 -7 -21 0 -11 15 -13 63 -11 47 2 62 7 62
18 0 11 -14 16 -55 18 -31 2 -59 0 -63 -4z"/>
<path d="M1535 1730 c-13 -21 8 -30 66 -30 52 0 60 2 57 18 -2 13 -15 18 -60
20 -32 2 -59 -2 -63 -8z"/>
<path d="M836 1568 c-3 -7 -6 -21 -8 -32 -2 -11 -17 -23 -38 -30 -47 -15 -75
-69 -59 -114 14 -42 43 -58 113 -64 63 -5 86 -22 86 -63 0 -47 -22 -59 -116
-65 -97 -6 -120 -23 -36 -28 51 -3 52 -4 52 -33 0 -38 24 -34 28 4 2 19 9 27
23 27 11 0 34 13 50 29 40 41 40 91 0 132 -25 25 -37 29 -84 29 -40 0 -58 5
-70 18 -20 22 -22 75 -4 90 7 6 51 12 97 14 68 2 85 6 85 18 0 11 -13 16 -47
18 -43 3 -48 6 -48 27 0 27 -18 43 -24 23z"/>
<path d="M1110 1485 c0 -13 38 -15 280 -15 242 0 280 2 280 15 0 13 -38 15
-280 15 -242 0 -280 -2 -280 -15z"/>
<path d="M1110 1345 c0 -13 38 -15 280 -15 242 0 280 2 280 15 0 13 -38 15
-280 15 -242 0 -280 -2 -280 -15z"/>
<path d="M1117 1213 c-4 -3 -7 -10 -7 -15 0 -4 126 -8 281 -8 220 0 280 3 277
13 -4 9 -69 13 -275 15 -148 1 -272 -1 -276 -5z"/>
<path d="M710 1010 c-39 -26 26 -30 485 -27 410 2 470 4 470 17 0 13 -60 15
-470 17 -298 2 -476 -1 -485 -7z"/>
<path d="M707 854 c-4 -4 -4 -11 -1 -15 3 -5 221 -9 485 -9 419 0 479 2 479
15 0 13 -60 15 -478 15 -263 0 -482 -3 -485 -6z"/>
<path d="M1369 692 c-130 -68 -158 -242 -56 -344 91 -91 219 -90 308 2 89 91
89 209 0 300 -73 76 -160 90 -252 42z m146 -13 c85 -24 137 -92 137 -179 0
-185 -234 -254 -339 -100 -81 118 1 274 152 289 6 0 28 -4 50 -10z"/>
<path d="M1501 515 l-65 -74 -24 20 c-26 20 -52 25 -52 10 0 -10 65 -61 78
-61 13 0 152 155 152 169 0 26 -29 5 -89 -64z"/>
</g>
</svg>
