<?xml version="1.0" standalone="no"?>
<!DOCTYPE svg PUBLIC "-//W3C//DTD SVG 20010904//EN"
 "http://www.w3.org/TR/2001/REC-SVG-20010904/DTD/svg10.dtd">
<svg version="1.0" xmlns="http://www.w3.org/2000/svg"
 width="200.000000pt" height="200.000000pt" viewBox="0 0 200.000000 200.000000"
 preserveAspectRatio="xMidYMid meet">
<metadata>
Created by potrace 1.16, written by Peter Selinger 2001-2019
</metadata>
<g transform="translate(0.000000,200.000000) scale(0.100000,-0.100000)"
fill="#000000" stroke="none">
<path d="M158 1843 l-148 -148 0 -726 c0 -720 0 -727 21 -753 l20 -26 544 0
c423 0 546 -3 554 -13 79 -98 98 -111 182 -126 30 -5 72 -16 94 -25 50 -19 80
-19 130 0 22 9 64 20 94 25 69 12 101 30 140 76 39 47 37 45 84 84 47 39 69
80 72 134 2 23 11 57 21 76 24 46 25 136 1 173 -10 15 -20 49 -22 77 -6 61
-25 99 -67 132 -47 37 -60 50 -90 89 -31 41 -79 66 -134 69 -21 2 -57 12 -79
23 -53 28 -119 27 -172 -1 l-43 -23 0 485 0 484 -24 28 -24 28 -504 3 -503 2
-147 -147z m1117 -88 l0 -150 -395 0 -395 0 -3 140 c-1 76 0 145 2 152 4 11
82 13 398 11 l393 -3 0 -150z m-902 25 c46 -183 31 -198 -149 -153 -65 16
-119 34 -122 41 -6 18 28 15 140 -14 136 -34 138 -32 104 104 -29 112 -32 146
-14 140 7 -3 25 -56 41 -118z m-135 -267 c4 -36 -16 -46 -25 -13 -3 11 -12 20
-19 20 -11 0 -14 -19 -14 -84 0 -81 15 -123 27 -77 7 28 33 27 33 -2 0 -34
-19 -47 -68 -47 -56 0 -82 14 -82 45 0 30 25 34 33 5 3 -11 10 -20 16 -20 7 0
11 32 11 90 0 73 -3 90 -15 90 -8 0 -15 -9 -15 -20 0 -11 -7 -20 -15 -20 -18
0 -20 41 -3 58 8 8 35 12 73 10 60 -3 60 -3 63 -35z m111 -58 l26 -90 5 90 c4
71 8 90 20 90 23 0 27 -206 4 -225 -27 -23 -47 1 -79 101 l-30 94 -5 -98 c-3
-53 -9 -98 -15 -100 -11 -2 -20 196 -10 220 3 9 16 13 32 11 24 -3 28 -11 52
-93z m119 13 c2 -60 7 -79 23 -93 18 -18 20 -17 44 5 22 21 25 32 25 98 0 54
3 73 13 70 8 -3 13 -32 15 -84 l3 -79 -39 -38 -39 -39 -37 32 -36 32 0 90 c0
67 3 89 13 86 8 -3 13 -31 15 -80z m274 65 c15 -13 18 -31 18 -96 0 -69 -3
-84 -22 -104 -28 -30 -74 -30 -105 -1 -20 19 -23 31 -23 101 0 61 4 85 17 99
21 23 89 24 115 1z m186 -20 c4 -36 -16 -46 -25 -13 -3 11 -12 20 -19 20 -11
0 -14 -19 -14 -84 0 -87 13 -117 30 -72 13 34 30 33 30 -2 0 -40 -17 -52 -71
-52 -51 0 -79 18 -79 50 0 30 19 34 30 6 19 -51 30 -27 30 64 0 73 -3 90 -15
90 -9 0 -15 -9 -15 -21 0 -24 -23 -21 -28 5 -7 34 17 47 82 44 61 -3 61 -3 64
-35z m175 22 c1 -5 -20 -11 -48 -13 -27 -2 -55 -8 -62 -14 -8 -6 -13 -34 -13
-71 0 -77 16 -97 77 -97 32 0 43 -4 43 -15 0 -11 -13 -15 -54 -15 -76 0 -96
26 -96 123 0 59 4 75 22 94 19 20 30 23 75 21 29 -2 54 -7 56 -13z m175 3 c-3
-8 -28 -15 -59 -18 -52 -5 -54 -6 -57 -37 l-3 -32 57 -3 c82 -4 86 -28 5 -28
-60 0 -61 0 -61 -28 0 -40 17 -52 73 -52 65 0 59 -24 -8 -28 -38 -3 -52 1 -71
19 -21 20 -24 31 -24 102 0 104 10 117 92 117 43 0 59 -3 56 -12z m-925 -280
c10 -8 17 -31 19 -58 l3 -45 80 -3 c82 -3 105 -12 105 -43 0 -37 -27 -49 -111
-49 -78 0 -79 0 -79 -25 0 -25 0 -25 95 -25 l95 0 0 -70 c0 -115 -29 -150
-130 -160 l-55 -5 -5 -47 c-7 -55 -11 -61 -45 -61 -34 1 -38 6 -45 61 l-5 47
-80 3 c-82 3 -105 12 -105 43 0 37 27 49 111 49 78 0 79 0 79 25 0 25 0 25
-95 25 l-95 0 0 66 c0 113 33 154 130 164 l55 5 6 48 c7 62 35 83 72 55z m863
-3 c49 -20 66 -65 62 -168 -2 -46 -7 -82 -13 -82 -6 0 -12 41 -15 92 -8 145
10 137 -330 141 l-280 3 0 -325 0 -326 -257 -2 -258 -3 -3 -116 c-2 -105 -1
-118 18 -142 l21 -27 416 -2 c322 -2 417 -6 421 -15 5 -17 -814 -19 -852 -2
-47 22 -57 61 -54 204 l3 130 258 3 257 2 0 319 c0 174 3 321 7 324 3 4 132 7
285 7 222 0 286 -3 314 -15z m-27 -79 c15 -17 11 -206 -4 -206 -6 0 -11 40
-13 95 l-3 95 -224 0 -225 0 -2 -322 -3 -323 -257 -3 -258 -2 0 -70 0 -70 395
0 c260 0 395 -3 395 -10 0 -7 -138 -9 -407 -8 l-408 3 0 90 0 90 258 3 257 2
0 325 0 325 244 0 c196 0 246 -3 255 -14z m88 -242 c1 -5 -10 -16 -26 -26 -16
-9 -38 -33 -48 -52 -11 -21 -34 -44 -53 -54 -50 -25 -80 -75 -80 -134 0 -34
-6 -57 -21 -77 -28 -39 -29 -117 -1 -163 25 -42 37 -158 16 -158 -15 0 -22 23
-28 85 -2 22 -12 56 -22 75 -23 45 -23 115 0 160 10 19 20 55 22 79 6 58 30
106 66 134 16 12 39 32 51 45 12 13 39 41 60 63 37 38 57 45 64 23z m284 -33
c18 -13 41 -19 71 -18 54 2 92 -21 115 -68 9 -19 29 -39 44 -45 52 -22 74 -56
74 -115 0 -39 6 -59 20 -75 27 -30 28 -110 1 -139 -13 -14 -19 -37 -20 -75 -1
-46 -6 -60 -30 -85 -15 -16 -38 -32 -50 -35 -13 -3 -29 -21 -39 -43 -22 -51
-67 -77 -120 -70 -33 5 -46 1 -70 -19 -37 -31 -88 -32 -130 -2 -22 16 -46 23
-77 23 -55 0 -95 24 -117 69 -9 19 -29 39 -47 47 -46 21 -79 75 -72 121 5 29
1 45 -19 74 -31 45 -32 79 -3 124 16 24 23 51 23 86 0 59 19 88 72 110 21 9
38 26 47 48 19 47 59 71 116 71 26 0 53 5 61 12 44 36 103 38 150 4z"/>
<path d="M510 1755 l0 -125 370 0 370 0 0 125 0 125 -370 0 -370 0 0 -125z
m690 0 l0 -75 -320 0 -320 0 0 75 0 75 320 0 320 0 0 -75z"/>
<path d="M590 1755 l0 -45 290 0 290 0 0 45 0 45 -290 0 -290 0 0 -45z"/>
<path d="M647 1513 c-4 -3 -7 -39 -7 -80 0 -68 2 -74 24 -84 17 -8 29 -8 45 0
18 10 21 21 21 79 0 40 -5 73 -12 80 -13 13 -60 16 -71 5z"/>
<path d="M316 1233 c-3 -3 -6 -27 -6 -53 l0 -47 -67 -6 c-59 -6 -72 -10 -95
-37 -23 -25 -28 -39 -28 -85 l0 -55 95 0 95 0 0 -55 0 -55 -89 0 c-55 0 -92
-4 -97 -11 -12 -20 19 -29 103 -29 l82 0 3 -52 c4 -68 22 -69 26 -2 l3 51 67
6 c58 6 71 10 95 37 22 25 27 39 27 85 l0 54 -92 3 -93 3 -3 52 -3 52 93 3
c75 2 93 6 93 18 0 12 -18 16 -92 18 l-93 3 0 49 c0 46 -9 67 -24 53z m-6
-198 l0 -56 -77 3 -78 3 -3 32 c-5 51 25 73 98 73 l60 0 0 -55z m188 -118 c2
-16 -4 -39 -13 -53 -14 -21 -23 -24 -80 -24 l-65 0 0 48 c0 27 3 52 7 56 4 4
39 5 78 4 69 -3 70 -4 73 -31z"/>
<path d="M190 1045 c-19 -22 -3 -35 46 -35 40 0 44 2 44 25 0 22 -4 25 -39 25
-22 0 -44 -6 -51 -15z"/>
<path d="M370 895 c0 -23 4 -25 44 -25 31 0 46 5 50 16 11 30 6 34 -44 34 -47
0 -50 -2 -50 -25z"/>
<path d="M1435 874 c-28 -18 -47 -24 -69 -21 -50 8 -91 -15 -109 -62 -11 -27
-24 -42 -41 -47 -44 -11 -71 -50 -68 -100 1 -34 -5 -55 -23 -82 -31 -46 -31
-60 1 -107 18 -28 24 -47 21 -69 -7 -49 16 -92 58 -107 28 -10 40 -23 55 -56
21 -49 54 -67 105 -57 24 4 41 0 70 -20 47 -32 63 -32 111 0 29 20 46 25 72
20 48 -7 88 16 104 59 9 27 23 41 55 55 49 22 65 51 56 105 -4 28 -1 41 15 58
35 38 37 76 7 121 -21 31 -25 46 -20 72 8 47 -16 89 -60 104 -28 9 -39 21 -52
52 -18 46 -59 69 -109 61 -22 -3 -41 3 -69 21 -21 14 -46 26 -55 26 -9 0 -34
-12 -55 -26z m-30 -169 c38 -37 35 -95 -6 -129 -35 -30 -58 -32 -98 -11 -34
17 -55 62 -45 99 15 63 103 88 149 41z m269 -14 l39 -40 -164 -171 c-90 -95
-173 -177 -183 -182 -17 -9 -26 -4 -59 32 l-40 42 179 179 c98 98 181 179 184
179 3 0 23 -18 44 -39z m11 -266 c38 -37 35 -95 -6 -129 -35 -30 -58 -32 -98
-11 -34 17 -55 62 -45 99 15 63 103 88 149 41z"/>
<path d="M1308 688 c-9 -7 -19 -23 -23 -35 -9 -32 36 -77 68 -67 35 10 47 24
47 54 0 48 -55 77 -92 48z"/>
<path d="M1467 532 l-158 -158 24 -22 23 -21 157 157 158 158 -24 22 -23 21
-157 -157z"/>
<path d="M1580 400 c-27 -27 -25 -46 5 -76 19 -19 31 -23 48 -18 35 10 47 24
47 54 0 54 -61 79 -100 40z"/>
</g>
</svg>
