<?xml version="1.0" standalone="no"?>
<!DOCTYPE svg PUBLIC "-//W3C//DTD SVG 20010904//EN"
 "http://www.w3.org/TR/2001/REC-SVG-20010904/DTD/svg10.dtd">
<svg version="1.0" xmlns="http://www.w3.org/2000/svg"
 width="200.000000pt" height="200.000000pt" viewBox="0 0 200.000000 200.000000"
 preserveAspectRatio="xMidYMid meet">
<metadata>
Created by potrace 1.16, written by Peter Selinger 2001-2019
</metadata>
<g transform="translate(0.000000,200.000000) scale(0.100000,-0.100000)"
fill="#000000" stroke="none">
<path d="M232 1888 c-9 -9 -12 -197 -12 -783 l0 -771 79 -57 c44 -31 85 -57
93 -57 7 0 43 21 79 46 l67 46 63 -46 c35 -25 70 -46 79 -46 9 0 44 21 79 46
l63 46 67 -46 c36 -25 73 -46 81 -46 8 0 32 14 54 30 l38 29 53 -55 c108 -110
259 -150 394 -104 116 39 185 102 239 217 23 49 27 71 27 148 0 80 -3 97 -32
157 -17 37 -50 87 -73 112 -48 52 -140 102 -206 112 l-44 6 0 509 c0 453 -2
510 -16 516 -9 3 -42 -13 -83 -41 -37 -25 -71 -46 -75 -46 -3 0 -34 20 -68 45
-34 25 -67 45 -73 45 -6 0 -40 -20 -75 -45 -35 -25 -67 -45 -70 -45 -4 0 -33
20 -66 45 -32 24 -63 45 -69 45 -5 0 -40 -21 -77 -47 l-68 -46 -68 46 c-37 26
-72 47 -78 47 -5 0 -38 -20 -72 -45 -34 -25 -65 -45 -70 -45 -4 0 -36 20 -70
45 -67 49 -72 51 -90 33z m372 -103 c35 -25 70 -45 77 -45 8 0 44 21 80 46
l67 46 63 -46 c35 -25 70 -46 79 -46 9 0 44 21 79 46 l63 46 67 -46 c36 -25
72 -46 79 -46 8 0 33 14 57 30 24 17 46 30 49 30 3 0 6 -171 6 -380 l0 -380
-545 0 -545 0 0 386 0 386 50 -36 c28 -20 57 -36 65 -36 9 0 43 20 77 45 34
25 64 45 66 45 2 0 32 -20 66 -45z m756 -864 l0 -49 -50 -11 c-109 -23 -215
-107 -265 -208 -34 -68 -45 -192 -26 -270 12 -47 12 -48 -16 -70 -15 -13 -32
-23 -36 -23 -5 0 -37 20 -71 45 -35 25 -67 45 -72 45 -5 0 -39 -21 -76 -47
l-68 -46 -68 46 c-37 26 -72 47 -78 47 -5 0 -38 -20 -72 -45 -34 -25 -65 -45
-69 -45 -3 0 -30 16 -60 37 l-53 36 0 304 0 303 540 0 540 0 0 -49z m176 -144
c67 -34 138 -113 161 -180 28 -81 24 -180 -10 -250 -35 -71 -110 -139 -185
-167 -45 -18 -72 -21 -129 -18 -122 8 -218 71 -274 180 -31 59 -38 191 -15
252 36 95 107 165 199 198 75 27 185 20 253 -15z"/>
<path d="M802 1658 c-7 -7 -12 -24 -12 -39 0 -19 -6 -30 -20 -34 -33 -10 -60
-54 -60 -96 0 -53 40 -98 95 -106 42 -6 75 -27 75 -48 0 -27 -36 -44 -100 -47
-62 -3 -65 -4 -65 -28 0 -22 5 -25 37 -28 33 -3 37 -6 40 -35 2 -27 7 -32 28
-32 21 0 26 6 30 33 4 23 14 38 37 52 80 48 44 190 -48 190 -42 0 -69 17 -69
43 0 35 19 47 73 47 54 0 87 13 87 35 0 17 -30 35 -59 35 -15 0 -21 6 -21 23
0 21 -16 47 -30 47 -3 0 -11 -5 -18 -12z"/>
<path d="M383 849 c-8 -8 -9 -18 -2 -31 8 -14 21 -18 62 -18 60 0 80 10 75 36
-3 16 -14 20 -63 22 -37 2 -65 -2 -72 -9z"/>
<path d="M642 848 c-7 -7 -8 -17 -1 -30 9 -16 25 -18 188 -18 186 0 210 5 195
44 -5 14 -29 16 -188 16 -124 0 -186 -4 -194 -12z"/>
<path d="M398 703 c-20 -5 -29 -25 -18 -42 11 -18 92 -26 119 -12 61 33 -18
76 -101 54z"/>
<path d="M658 704 c-21 -6 -29 -27 -17 -45 6 -10 38 -15 125 -17 165 -5 209 7
183 49 -6 11 -39 14 -141 16 -73 1 -140 -1 -150 -3z"/>
<path d="M398 543 c-20 -5 -29 -25 -18 -42 11 -18 92 -26 119 -12 61 33 -18
76 -101 54z"/>
<path d="M658 543 c-21 -5 -29 -26 -17 -44 11 -18 227 -26 258 -9 26 14 27 36
2 50 -19 10 -208 12 -243 3z"/>
<path d="M1367 502 c-102 -103 -136 -142 -131 -155 16 -42 51 -18 181 119 70
75 128 144 128 153 0 9 -9 17 -20 19 -14 2 -60 -37 -158 -136z"/>
<path d="M1257 623 c-13 -12 -7 -41 10 -47 21 -9 46 16 37 37 -6 17 -35 23
-47 10z"/>
<path d="M1487 393 c-13 -12 -7 -41 10 -47 21 -9 46 16 37 37 -6 17 -35 23
-47 10z"/>
</g>
</svg>
