<?xml version="1.0" standalone="no"?>
<!DOCTYPE svg PUBLIC "-//W3C//DTD SVG 20010904//EN"
 "http://www.w3.org/TR/2001/REC-SVG-20010904/DTD/svg10.dtd">
<svg version="1.0" xmlns="http://www.w3.org/2000/svg"
 width="200.000000pt" height="200.000000pt" viewBox="0 0 200.000000 200.000000"
 preserveAspectRatio="xMidYMid meet">
<metadata>
Created by potrace 1.16, written by Peter Selinger 2001-2019
</metadata>
<g transform="translate(0.000000,200.000000) scale(0.100000,-0.100000)"
fill="#000000" stroke="none">
<path d="M158 1843 l-148 -148 0 -726 c0 -720 0 -727 21 -753 l20 -26 496 0
c391 0 494 3 491 13 -4 9 -112 13 -489 15 -441 2 -485 4 -496 19 -10 13 -13
176 -13 733 l0 715 138 138 137 137 492 0 492 0 15 -22 c14 -20 16 -82 16
-476 0 -358 3 -453 13 -450 9 4 13 107 15 461 l2 456 -24 28 -24 28 -504 3
-503 2 -147 -147z"/>
<path d="M484 1897 c-2 -7 -3 -76 -2 -152 l3 -140 395 0 395 0 0 150 0 150
-393 3 c-316 2 -394 0 -398 -11z m766 -142 l0 -125 -370 0 -370 0 0 125 0 125
370 0 370 0 0 -125z"/>
<path d="M560 1755 l0 -75 320 0 320 0 0 75 0 75 -320 0 -320 0 0 -75z m610 0
l0 -45 -290 0 -290 0 0 45 0 45 290 0 290 0 0 -45z"/>
<path d="M320 1880 c0 -12 12 -67 26 -122 34 -138 34 -138 -119 -100 -72 18
-119 26 -123 20 -11 -17 8 -25 124 -53 124 -30 156 -27 167 18 8 29 -47 249
-63 255 -7 2 -12 -6 -12 -18z"/>
<path d="M102 1538 c-17 -17 -15 -58 3 -58 8 0 15 9 15 20 0 11 7 20 15 20 12
0 15 -16 15 -85 0 -66 -3 -85 -14 -85 -7 0 -16 9 -19 21 -7 27 -27 15 -27 -16
0 -31 26 -45 82 -45 49 0 68 13 68 46 0 31 -20 41 -27 15 -3 -12 -12 -21 -19
-21 -11 0 -14 19 -14 85 0 66 3 85 14 85 7 0 16 -9 19 -20 8 -30 27 -24 27 9
0 17 -6 31 -16 35 -27 10 -110 6 -122 -6z"/>
<path d="M264 1537 c-9 -25 1 -222 11 -220 6 2 12 47 15 100 l5 98 30 -94 c32
-100 52 -124 79 -101 23 19 19 225 -4 225 -12 0 -16 -19 -20 -90 l-5 -90 -28
93 c-25 84 -29 92 -52 92 -14 0 -28 -6 -31 -13z"/>
<path d="M440 1462 l0 -90 36 -32 37 -32 39 39 39 38 -3 79 c-2 52 -7 81 -15
84 -10 3 -13 -16 -13 -70 0 -66 -3 -77 -25 -98 -24 -22 -26 -23 -44 -5 -16 14
-21 33 -23 93 -2 49 -7 77 -15 80 -10 3 -13 -19 -13 -86z"/>
<path d="M627 1532 c-13 -14 -17 -38 -17 -99 0 -70 3 -82 23 -101 31 -29 77
-29 105 1 19 20 22 35 22 104 0 65 -3 83 -18 96 -26 23 -94 22 -115 -1z m92
-26 c7 -9 11 -41 9 -83 l-3 -68 -40 0 -40 0 -3 69 c-2 38 -1 75 2 83 7 17 60
17 75 -1z"/>
<path d="M791 1536 c-15 -18 -11 -48 7 -54 7 -2 12 5 12 17 0 12 6 21 15 21
12 0 15 -16 15 -85 0 -66 -3 -85 -14 -85 -7 0 -16 9 -19 21 -3 12 -10 18 -16
14 -18 -11 -12 -54 8 -65 27 -14 104 -13 119 2 17 17 15 58 -3 58 -8 0 -15 -7
-15 -15 0 -8 -7 -15 -15 -15 -12 0 -15 16 -15 85 0 66 3 85 14 85 7 0 16 -9
19 -20 9 -33 29 -23 25 13 -3 32 -3 32 -64 35 -45 2 -64 -1 -73 -12z"/>
<path d="M972 1527 c-18 -19 -22 -35 -22 -94 0 -98 20 -123 96 -123 47 0 55 3
52 18 -2 12 -15 18 -48 20 -24 2 -50 8 -57 14 -17 14 -17 132 0 146 7 6 35 12
62 14 66 4 60 22 -8 26 -45 2 -56 -1 -75 -21z"/>
<path d="M1147 1532 c-13 -14 -17 -38 -17 -99 0 -71 3 -82 24 -102 19 -18 33
-22 72 -19 36 2 49 7 49 18 0 11 -15 16 -55 20 -54 5 -55 6 -58 38 l-3 32 61
0 c45 0 61 3 58 13 -3 7 -27 13 -62 15 l-57 3 3 32 c3 31 5 32 57 37 78 7 80
30 3 30 -44 0 -63 -4 -75 -18z"/>
<path d="M296 1254 c-9 -8 -16 -32 -16 -53 l0 -38 -52 -7 c-102 -14 -138 -58
-138 -170 l0 -66 95 0 c95 0 95 0 95 -25 0 -25 -1 -25 -79 -25 -87 0 -115 -14
-109 -53 4 -31 44 -47 121 -47 l67 0 0 -37 c0 -49 12 -65 45 -65 33 0 45 16
45 63 0 36 0 36 52 43 107 14 138 52 138 166 l0 70 -95 0 c-95 0 -95 0 -95 25
0 25 1 25 79 25 84 0 111 12 111 50 0 34 -39 50 -117 50 l-73 0 0 45 c0 34 -5
47 -19 55 -27 14 -37 13 -55 -6z m46 -76 l3 -53 93 -3 c68 -2 92 -6 89 -15 -2
-8 -35 -13 -96 -15 l-92 -3 3 -52 3 -52 93 -3 92 -3 0 -54 c0 -43 -5 -59 -26
-84 -23 -27 -31 -30 -92 -33 l-67 -3 -3 -52 c-2 -37 -7 -53 -17 -53 -10 0 -15
16 -17 53 l-3 52 -93 3 c-68 2 -92 6 -89 15 2 8 35 13 96 15 l92 3 -3 52 -3
52 -92 3 -93 3 0 54 c0 43 5 59 26 84 23 27 31 30 92 33 l67 3 3 53 c2 36 7
52 17 52 10 0 15 -16 17 -52z"/>
<path d="M165 1066 c-9 -14 -15 -37 -13 -53 3 -28 3 -28 78 -28 l75 0 3 53 3
52 -65 0 c-58 0 -67 -3 -81 -24z m115 -31 c0 -23 -4 -25 -44 -25 -25 0 -48 5
-51 10 -12 20 17 40 56 40 35 0 39 -3 39 -25z"/>
<path d="M347 944 c-4 -4 -7 -29 -7 -56 l0 -48 65 0 c57 0 66 3 80 24 9 14 15
37 13 53 -3 27 -4 28 -73 31 -39 1 -74 0 -78 -4z m123 -33 c0 -31 -14 -41 -56
-41 -40 0 -44 2 -44 25 0 23 3 25 50 25 28 0 50 -4 50 -9z"/>
<path d="M617 1263 c-4 -3 -7 -150 -7 -324 l0 -319 -257 -2 -258 -3 -3 -130
c-3 -107 0 -136 14 -162 30 -57 40 -58 484 -58 353 0 405 2 405 15 0 13 -54
15 -417 18 l-417 2 -20 26 c-18 23 -21 41 -21 140 l0 114 258 2 257 3 3 323 2
322 284 0 c340 0 318 9 326 -133 3 -51 9 -92 15 -92 17 0 18 159 1 200 -26 61
-47 65 -364 65 -153 0 -282 -3 -285 -7z"/>
<path d="M690 865 l0 -325 -257 -2 -258 -3 -3 -83 c-2 -53 1 -89 9 -98 9 -12
79 -14 405 -14 385 0 435 4 393 31 -8 5 -186 9 -396 9 l-383 0 0 65 0 65 258
2 257 3 3 323 2 322 225 0 224 0 3 -95 c2 -55 7 -95 13 -95 15 0 19 189 4 206
-9 11 -59 14 -255 14 l-244 0 0 -325z"/>
<path d="M1450 1004 c-8 -3 -31 -14 -50 -23 -19 -10 -53 -18 -74 -20 -53 -3
-102 -27 -129 -63 -28 -37 -58 -67 -95 -95 -36 -28 -60 -76 -66 -134 -2 -24
-12 -60 -22 -79 -24 -46 -23 -117 2 -166 12 -21 21 -58 22 -82 2 -55 21 -91
69 -131 47 -39 45 -37 84 -84 39 -46 71 -64 140 -76 30 -5 72 -16 94 -25 50
-19 80 -19 130 0 22 9 64 20 94 25 69 12 101 30 140 76 39 47 37 45 84 84 47
39 69 80 72 134 2 23 11 57 21 76 24 46 25 136 1 173 -10 15 -20 49 -22 77 -6
61 -25 99 -67 132 -47 37 -60 50 -90 89 -31 41 -79 66 -134 69 -21 2 -56 11
-76 22 -40 20 -103 30 -128 21z m123 -54 c21 -11 56 -20 80 -20 55 0 105 -32
130 -83 10 -20 24 -37 31 -37 20 0 65 -39 81 -71 9 -16 17 -50 18 -76 2 -27
12 -61 22 -77 25 -37 24 -110 0 -156 -11 -19 -20 -54 -22 -77 -1 -23 -9 -55
-17 -72 -16 -31 -61 -71 -80 -71 -6 0 -20 -17 -31 -37 -28 -51 -77 -83 -131
-83 -27 0 -61 -10 -90 -25 -59 -31 -89 -31 -148 0 -29 15 -63 25 -90 25 -53 0
-104 32 -128 79 -9 18 -31 40 -49 49 -48 24 -79 75 -79 130 0 28 -8 57 -21 79
-29 46 -29 120 0 166 13 22 21 51 21 79 0 55 31 106 79 130 18 9 40 31 49 49
24 48 75 79 129 79 24 0 59 9 80 20 22 12 57 20 83 20 26 0 61 -8 83 -20z"/>
<path d="M1451 919 c-14 -5 -31 -15 -40 -22 -8 -7 -35 -12 -61 -12 -57 0 -97
-24 -116 -71 -9 -22 -26 -39 -47 -48 -53 -22 -72 -51 -72 -110 0 -35 -7 -62
-23 -86 -29 -45 -28 -79 3 -124 20 -29 24 -45 19 -74 -7 -46 26 -100 73 -121
18 -8 37 -27 44 -43 6 -16 25 -40 42 -54 27 -22 38 -25 77 -21 37 4 50 1 75
-19 40 -32 94 -32 132 0 24 20 37 24 70 19 53 -7 98 19 120 70 10 22 26 40 39
43 12 3 35 19 50 35 25 26 29 39 29 84 0 39 5 59 20 75 28 30 28 109 0 140
-14 16 -20 36 -20 75 0 59 -22 93 -74 115 -15 6 -35 26 -44 45 -23 47 -61 70
-115 68 -30 -1 -53 5 -71 18 -33 24 -79 31 -110 18z m93 -44 c26 -18 50 -25
82 -25 60 0 78 -11 97 -59 13 -30 24 -42 52 -51 44 -15 68 -57 60 -104 -5 -26
-1 -41 20 -72 30 -45 28 -83 -7 -121 -16 -17 -19 -30 -15 -58 9 -54 -7 -83
-56 -105 -32 -14 -46 -28 -55 -55 -17 -44 -59 -68 -106 -60 -25 5 -41 1 -71
-19 -47 -32 -63 -32 -110 0 -29 20 -46 24 -70 20 -51 -10 -84 8 -105 57 -15
33 -27 46 -55 56 -42 15 -65 58 -58 107 3 22 -3 41 -21 69 -32 47 -32 61 0
109 19 27 25 47 21 69 -7 52 10 83 57 106 30 14 46 28 50 46 11 45 41 65 96
65 36 0 59 7 86 25 20 14 45 25 54 25 9 0 34 -11 54 -25z"/>
<path d="M1287 710 c-49 -39 -42 -116 14 -145 40 -21 63 -19 98 11 89 74 -21
206 -112 134z m97 -29 c26 -28 17 -73 -16 -89 -49 -23 -101 25 -77 71 22 42
64 50 93 18z"/>
<path d="M1446 551 l-179 -179 40 -42 c29 -31 44 -40 54 -34 8 5 90 87 183
182 l170 172 -39 40 c-22 22 -42 40 -45 40 -3 0 -86 -81 -184 -179z m67 -63
l-157 -157 -23 21 -24 22 158 158 157 157 23 -21 24 -22 -158 -158z"/>
<path d="M1567 430 c-49 -39 -42 -116 14 -145 40 -21 63 -19 98 11 89 74 -21
206 -112 134z m97 -29 c44 -48 -15 -122 -69 -87 -32 21 -40 52 -21 81 20 31
65 33 90 6z"/>
</g>
</svg>
