<?xml version="1.0" standalone="no"?>
<!DOCTYPE svg PUBLIC "-//W3C//DTD SVG 20010904//EN"
 "http://www.w3.org/TR/2001/REC-SVG-20010904/DTD/svg10.dtd">
<svg version="1.0" xmlns="http://www.w3.org/2000/svg"
 width="200.000000pt" height="200.000000pt" viewBox="0 0 200.000000 200.000000"
 preserveAspectRatio="xMidYMid meet">
<metadata>
Created by potrace 1.16, written by Peter Selinger 2001-2019
</metadata>
<g transform="translate(0.000000,200.000000) scale(0.100000,-0.100000)"
fill="#000000" stroke="none">
<path d="M345 1971 c-77 -19 -156 -91 -175 -160 -15 -54 -13 -1572 2 -1622 15
-51 69 -114 122 -142 39 -21 53 -22 344 -25 l302 -3 0 70 0 70 -296 3 -296 3
-24 28 -24 28 0 779 0 779 24 28 24 28 315 3 315 3 4 -173 c4 -194 14 -231 85
-301 58 -58 91 -69 235 -75 l128 -5 0 -197 0 -196 -76 -12 c-172 -27 -300
-132 -354 -293 -18 -52 -21 -81 -18 -155 3 -81 8 -100 41 -167 107 -216 353
-302 571 -199 267 127 329 478 121 687 -28 27 -72 61 -98 75 l-47 25 0 268 c0
163 -4 285 -11 312 -9 34 -52 95 -180 257 -94 117 -187 226 -209 242 -21 15
-58 32 -82 37 -52 10 -701 10 -743 0z m929 -366 l136 -170 -102 -3 c-115 -3
-136 5 -173 69 -16 28 -20 57 -23 169 -3 121 -2 133 11 120 9 -8 77 -91 151
-185z m272 -1016 c30 -17 54 -33 54 -36 0 -16 -132 -222 -146 -227 -9 -3 -35
-6 -58 -6 -38 0 -47 6 -106 65 l-65 65 48 47 47 47 34 -33 c19 -18 39 -30 44
-27 6 3 27 35 47 71 20 36 39 65 42 65 3 0 30 -14 59 -31z"/>
<path d="M570 1691 c0 -33 -4 -40 -29 -50 -60 -25 -111 -104 -111 -170 1 -42
35 -106 74 -136 26 -19 56 -30 113 -39 l78 -12 0 -34 c0 -34 -1 -35 -44 -38
-45 -3 -81 17 -81 45 0 10 -18 13 -70 13 -38 0 -70 -3 -70 -7 0 -55 57 -141
111 -169 25 -12 29 -21 29 -54 l0 -40 65 0 65 0 0 35 c0 30 5 37 38 54 46 23
67 46 87 94 50 120 -38 247 -172 247 -56 0 -83 14 -83 43 0 33 19 47 60 47 37
0 61 -17 73 -52 5 -15 19 -18 72 -18 59 0 65 2 65 20 0 54 -56 137 -112 166
-23 12 -28 21 -28 54 l0 40 -65 0 -65 0 0 -39z"/>
<path d="M410 730 l0 -90 225 0 225 0 0 90 0 90 -225 0 -225 0 0 -90z"/>
<path d="M410 455 l0 -95 225 0 225 0 0 95 0 95 -225 0 -225 0 0 -95z"/>
</g>
</svg>
