<?xml version="1.0" standalone="no"?>
<!DOCTYPE svg PUBLIC "-//W3C//DTD SVG 20010904//EN"
 "http://www.w3.org/TR/2001/REC-SVG-20010904/DTD/svg10.dtd">
<svg version="1.0" xmlns="http://www.w3.org/2000/svg"
 width="200.000000pt" height="200.000000pt" viewBox="0 0 200.000000 200.000000"
 preserveAspectRatio="xMidYMid meet">
<metadata>
Created by potrace 1.16, written by Peter Selinger 2001-2019
</metadata>
<g transform="translate(0.000000,200.000000) scale(0.100000,-0.100000)"
fill="#000000" stroke="none">
<path d="M272 1935 c-63 -19 -111 -61 -138 -119 -24 -51 -24 -51 -24 -441 0
-214 4 -395 8 -401 18 -27 56 -34 186 -34 l136 0 0 -412 c0 -450 1 -460 54
-466 25 -3 42 10 128 95 l98 98 98 -98 c128 -127 124 -127 254 0 l98 97 98
-97 c70 -70 104 -97 122 -97 18 0 52 27 122 97 l98 98 98 -98 c103 -103 131
-116 165 -79 16 17 17 90 17 848 -1 666 -4 836 -14 867 -21 57 -61 103 -113
128 l-48 24 -700 2 c-564 2 -708 -1 -743 -12z m118 -122 c16 -9 33 -27 39 -40
7 -16 11 -142 11 -368 l0 -345 -110 0 -110 0 0 340 c0 285 2 346 15 370 29 55
101 75 155 43z m1324 7 c14 -5 35 -24 46 -42 19 -32 20 -51 20 -782 l0 -749
-74 71 c-45 44 -82 72 -96 72 -14 0 -58 -36 -124 -100 l-102 -99 -99 99 c-57
57 -108 100 -119 100 -11 0 -63 -44 -120 -100 l-102 -100 -94 96 c-52 52 -106
97 -118 101 -20 5 -37 -7 -98 -68 l-74 -73 0 745 c0 611 -3 754 -14 792 l-14
47 578 0 c352 0 589 -4 604 -10z"/>
<path d="M1126 1588 c-9 -12 -16 -39 -16 -60 0 -27 -5 -38 -19 -43 -40 -12
-101 -66 -122 -106 -30 -60 -29 -144 4 -207 32 -62 89 -100 169 -113 77 -12
109 -33 127 -86 13 -37 13 -43 -5 -74 -11 -18 -35 -42 -53 -53 -63 -37 -141
10 -155 93 -9 56 -50 77 -91 47 -14 -10 -18 -24 -17 -56 3 -82 60 -161 136
-190 22 -8 26 -16 26 -50 0 -27 7 -47 20 -60 24 -24 38 -25 68 -4 17 12 22 25
22 59 0 34 4 45 19 50 40 12 101 66 123 107 28 55 30 147 4 198 -41 78 -98
115 -198 129 -78 10 -108 40 -108 106 0 86 83 139 156 100 34 -18 64 -67 64
-104 0 -26 42 -55 70 -46 34 11 44 42 31 100 -14 63 -65 126 -121 151 -37 17
-40 21 -40 59 0 68 -60 102 -94 53z"/>
</g>
</svg>
