<?xml version="1.0" standalone="no"?>
<!DOCTYPE svg PUBLIC "-//W3C//DTD SVG 20010904//EN"
 "http://www.w3.org/TR/2001/REC-SVG-20010904/DTD/svg10.dtd">
<svg version="1.0" xmlns="http://www.w3.org/2000/svg"
 width="200.000000pt" height="200.000000pt" viewBox="0 0 200.000000 200.000000"
 preserveAspectRatio="xMidYMid meet">
<metadata>
Created by potrace 1.16, written by Peter Selinger 2001-2019
</metadata>
<g transform="translate(0.000000,200.000000) scale(0.100000,-0.100000)"
fill="#000000" stroke="none">
<path d="M206 1904 c-14 -14 -16 -109 -16 -899 0 -790 2 -885 16 -899 8 -9 23
-16 32 -16 9 0 57 37 106 81 l88 81 88 -86 c48 -47 95 -86 105 -86 10 0 57 38
104 85 l87 85 84 -85 c47 -47 92 -85 100 -85 8 0 53 38 100 85 l84 85 87 -85
c47 -47 94 -85 104 -85 10 0 57 38 105 85 l87 85 90 -80 c50 -44 98 -80 106
-80 9 0 23 7 31 16 14 14 16 109 16 899 0 790 -2 885 -16 899 -14 14 -100 16
-794 16 -694 0 -780 -2 -794 -16z m1514 -870 c0 -432 -4 -784 -9 -782 -4 1
-31 24 -60 50 l-51 46 0 736 0 736 60 0 60 0 0 -786z m-602 574 c15 -15 15
-51 0 -66 -17 -17 -499 -17 -516 0 -15 15 -15 51 0 66 17 17 499 17 516 0z
m280 0 c7 -7 12 -21 12 -33 0 -35 -20 -45 -90 -45 -70 0 -90 10 -90 45 0 35
20 45 90 45 38 0 71 -5 78 -12z m-284 -294 c22 -22 20 -50 -6 -68 -33 -24
-479 -24 -502 0 -21 21 -20 61 2 73 10 6 112 11 254 11 202 0 239 -2 252 -16z
m277 6 c20 -11 25 -45 10 -69 -15 -23 -133 -28 -154 -6 -22 22 -22 61 1 74 22
14 118 14 143 1z m-88 -241 c8 -11 13 -28 10 -38 -2 -10 -129 -142 -282 -295
-191 -190 -284 -276 -298 -276 -12 0 -29 10 -37 21 -13 19 -13 26 -1 48 7 14
134 146 282 294 185 183 276 267 290 267 12 0 28 -9 36 -21z m-463 -64 c34
-17 60 -62 60 -100 0 -119 -171 -158 -216 -50 -27 65 -9 120 48 148 41 21 71
21 108 2z m413 -306 c40 -21 67 -52 73 -86 13 -71 -41 -133 -115 -133 -115 0
-152 162 -49 213 39 20 62 21 91 6z"/>
<path d="M771 927 c-16 -16 7 -41 25 -26 8 6 14 15 14 19 0 14 -27 19 -39 7z"/>
<path d="M1195 610 c-8 -14 3 -30 21 -30 8 0 14 9 14 20 0 21 -24 28 -35 10z"/>
</g>
</svg>
