<?xml version="1.0" standalone="no"?>
<!DOCTYPE svg PUBLIC "-//W3C//DTD SVG 20010904//EN"
 "http://www.w3.org/TR/2001/REC-SVG-20010904/DTD/svg10.dtd">
<svg version="1.0" xmlns="http://www.w3.org/2000/svg"
 width="200.000000pt" height="200.000000pt" viewBox="0 0 200.000000 200.000000"
 preserveAspectRatio="xMidYMid meet">
<metadata>
Created by potrace 1.16, written by Peter Selinger 2001-2019
</metadata>
<g transform="translate(0.000000,200.000000) scale(0.100000,-0.100000)"
fill="#000000" stroke="none">
<path d="M211 1896 c-8 -10 -10 -254 -9 -902 l3 -889 23 -3 c17 -3 47 18 114
78 l91 80 87 -85 c48 -47 95 -85 105 -85 10 0 57 38 104 85 l87 85 84 -85 c47
-47 92 -85 100 -85 8 0 53 38 100 85 l84 85 87 -85 c47 -47 95 -85 105 -85 10
0 57 39 105 86 l86 86 89 -81 c68 -62 95 -80 114 -79 l25 3 3 889 c1 648 -1
892 -9 902 -9 12 -146 14 -789 14 -643 0 -780 -2 -789 -14z m1519 -866 c0
-440 -3 -800 -6 -800 -3 0 -36 27 -73 60 -37 33 -76 60 -87 60 -10 0 -56 -37
-101 -82 l-82 -82 -85 82 c-57 56 -91 82 -107 82 -16 0 -50 -26 -106 -82 l-83
-83 -83 83 c-56 56 -90 82 -106 82 -16 0 -50 -26 -107 -82 l-85 -82 -82 82
c-45 45 -91 82 -101 82 -11 0 -50 -27 -87 -60 -37 -33 -70 -60 -73 -60 -3 0
-6 360 -6 800 l0 800 730 0 730 0 0 -800z"/>
<path d="M607 1603 c-14 -13 -6 -53 12 -63 12 -6 108 -10 243 -10 247 0 267 4
254 53 l-6 27 -249 0 c-136 0 -251 -3 -254 -7z"/>
<path d="M1247 1604 c-14 -14 -7 -54 12 -64 28 -14 104 -13 125 3 11 8 17 23
14 38 -3 23 -7 24 -73 27 -39 1 -74 0 -78 -4z"/>
<path d="M612 1308 c-16 -16 -15 -43 2 -57 9 -8 84 -11 251 -9 214 3 239 5
249 21 8 12 8 22 0 35 -10 15 -35 17 -250 20 -178 2 -243 -1 -252 -10z"/>
<path d="M1253 1314 c-7 -3 -13 -19 -13 -35 0 -34 20 -42 95 -37 55 3 78 25
59 56 -8 13 -26 17 -70 19 -32 1 -65 -1 -71 -3z"/>
<path d="M970 805 c-245 -245 -283 -287 -274 -303 30 -47 45 -35 330 249 151
151 277 282 280 292 7 21 -12 47 -35 47 -9 0 -144 -128 -301 -285z"/>
<path d="M734 1009 c-28 -14 -54 -61 -54 -98 0 -20 11 -43 31 -66 27 -30 37
-35 76 -35 37 0 50 5 74 31 63 67 20 180 -68 178 -21 0 -47 -5 -59 -10z m79
-82 c8 -21 -8 -39 -29 -35 -11 2 -20 13 -22 26 -3 18 1 22 21 22 14 0 27 -6
30 -13z"/>
<path d="M1145 679 c-30 -27 -35 -37 -35 -76 0 -62 40 -103 100 -103 52 0 76
13 95 50 25 49 19 88 -19 126 -46 46 -91 47 -141 3z m93 -75 c4 -28 -28 -41
-45 -19 -16 23 -5 47 21 43 13 -2 22 -11 24 -24z"/>
</g>
</svg>
