<?xml version="1.0" standalone="no"?>
<!DOCTYPE svg PUBLIC "-//W3C//DTD SVG 20010904//EN"
 "http://www.w3.org/TR/2001/REC-SVG-20010904/DTD/svg10.dtd">
<svg version="1.0" xmlns="http://www.w3.org/2000/svg"
 width="200.000000pt" height="200.000000pt" viewBox="0 0 200.000000 200.000000"
 preserveAspectRatio="xMidYMid meet">
<metadata>
Created by potrace 1.16, written by Peter Selinger 2001-2019
</metadata>
<g transform="translate(0.000000,200.000000) scale(0.100000,-0.100000)"
fill="#000000" stroke="none">
<path d="M375 1798 c-3 -7 -4 -371 -3 -808 l3 -795 625 0 625 0 3 705 2 705
-102 102 -103 103 -523 0 c-409 0 -524 -3 -527 -12z m1015 -133 l0 -95 95 0
95 0 0 -665 0 -665 -580 0 -580 0 0 760 0 760 485 0 485 0 0 -95z m105 5 l49
-50 -52 0 -52 0 0 50 c0 28 1 50 3 50 1 0 25 -22 52 -50z"/>
<path d="M583 1613 c-7 -2 -13 -13 -13 -24 0 -18 8 -19 119 -19 123 0 153 9
116 37 -18 13 -193 18 -222 6z"/>
<path d="M572 1438 c-17 -17 -17 -619 0 -636 17 -17 839 -17 856 0 17 17 17
619 0 636 -17 17 -839 17 -856 0z m408 -73 l0 -35 -185 0 -185 0 0 35 0 35
185 0 185 0 0 -35z m410 0 l0 -35 -185 0 -185 0 0 35 0 35 185 0 185 0 0 -35z
m-410 -305 l0 -220 -185 0 -185 0 0 220 0 220 185 0 185 0 0 -220z m410 0 l0
-220 -185 0 -185 0 0 220 0 220 185 0 185 0 0 -220z"/>
<path d="M1183 1191 c-2 -10 -18 -28 -34 -40 -55 -41 -29 -108 44 -113 29 -2
42 -8 42 -18 0 -11 -15 -16 -55 -20 -41 -4 -56 -9 -58 -22 -2 -12 5 -19 25
-24 15 -4 34 -15 41 -25 15 -22 42 -14 42 12 0 10 6 19 13 19 21 0 47 34 47
62 0 34 -27 56 -78 64 -64 10 -55 32 16 36 49 3 57 6 57 23 0 14 -8 21 -26 23
-17 2 -29 11 -32 23 -7 24 -37 25 -44 0z"/>
<path d="M987 554 c-4 -4 -7 -16 -7 -26 0 -17 14 -18 226 -18 l225 0 -3 23
c-3 22 -4 22 -219 25 -118 1 -218 -1 -222 -4z"/>
<path d="M980 411 c0 -26 18 -31 124 -31 62 0 98 4 111 13 37 28 7 37 -116 37
-110 0 -119 -1 -119 -19z"/>
</g>
</svg>
