<?xml version="1.0" standalone="no"?>
<!DOCTYPE svg PUBLIC "-//W3C//DTD SVG 20010904//EN"
 "http://www.w3.org/TR/2001/REC-SVG-20010904/DTD/svg10.dtd">
<svg version="1.0" xmlns="http://www.w3.org/2000/svg"
 width="200.000000pt" height="200.000000pt" viewBox="0 0 200.000000 200.000000"
 preserveAspectRatio="xMidYMid meet">
<metadata>
Created by potrace 1.16, written by Peter Selinger 2001-2019
</metadata>
<g transform="translate(0.000000,200.000000) scale(0.100000,-0.100000)"
fill="#000000" stroke="none">
<path d="M27 1973 c-4 -3 -7 -429 -7 -945 0 -1047 -6 -972 70 -929 50 28 67
27 123 -9 75 -47 124 -70 152 -70 25 0 78 25 160 76 51 31 79 26 164 -29 91
-59 129 -58 236 6 44 26 86 47 95 47 9 0 51 -21 95 -47 107 -64 145 -65 235
-6 87 56 109 60 159 33 67 -38 71 -31 71 128 l0 139 58 6 c124 11 247 101 304
223 109 233 -46 520 -297 552 l-60 7 -5 410 -5 410 -771 3 c-424 1 -774 -1
-777 -5z m1493 -437 l0 -384 -47 -16 c-27 -9 -67 -27 -90 -41 l-43 -24 0 284
c0 249 -2 284 -16 289 -9 3 -246 6 -528 6 -385 0 -515 -3 -524 -12 -9 -9 -12
-105 -12 -369 0 -197 3 -364 6 -373 5 -14 57 -16 474 -16 l468 0 -9 -37 c-5
-21 -9 -62 -9 -90 l0 -53 -345 0 c-299 0 -346 -2 -351 -15 -4 -8 -1 -22 6 -30
11 -13 65 -15 361 -15 l348 0 20 -45 c39 -88 147 -181 244 -210 l42 -12 3
-101 3 -102 -44 6 c-47 7 -66 0 -169 -63 -68 -42 -81 -40 -169 17 -102 65
-133 64 -255 -9 -37 -23 -75 -41 -84 -41 -8 0 -51 21 -95 47 -107 64 -144 65
-237 6 -99 -63 -106 -63 -196 -8 -81 50 -135 65 -171 46 l-21 -12 0 881 0 880
720 0 720 0 0 -384z m-550 -271 l0 -325 -325 0 -325 0 0 325 0 325 325 0 325
0 0 -325z m310 180 l0 -145 -125 0 -125 0 0 145 0 145 125 0 125 0 0 -145z m0
-321 c0 -91 -3 -110 -22 -144 l-23 -40 -102 0 -103 0 0 145 0 145 125 0 125 0
0 -106z m385 -39 c103 -27 178 -89 223 -185 22 -46 26 -69 27 -140 0 -73 -4
-93 -28 -141 -30 -63 -92 -125 -159 -161 -37 -20 -58 -23 -143 -23 -89 0 -106
3 -150 27 -62 32 -130 104 -158 166 -32 72 -31 199 4 272 43 91 123 158 219
184 71 19 94 19 165 1z"/>
<path d="M264 685 c-11 -29 15 -45 75 -45 64 0 84 9 79 36 -3 16 -14 19 -76
22 -58 2 -73 0 -78 -13z"/>
<path d="M478 459 c-24 -13 -23 -36 1 -49 12 -6 132 -10 321 -10 189 0 309 4
321 10 24 14 24 36 0 50 -26 14 -620 13 -643 -1z"/>
<path d="M620 1481 c0 -26 -4 -29 -42 -34 -61 -8 -92 -46 -85 -104 6 -55 29
-81 84 -95 l43 -10 0 -49 c0 -48 -1 -49 -31 -49 -22 0 -32 5 -36 19 -7 26 -33
35 -50 18 -11 -10 -11 -20 -3 -42 15 -39 38 -54 83 -55 34 0 37 -2 37 -29 0
-35 28 -50 47 -25 7 10 13 26 13 36 0 13 8 18 29 18 43 0 60 9 76 41 36 68 4
144 -65 158 -34 7 -35 8 -38 59 -3 50 -2 52 23 52 18 0 28 -7 35 -26 11 -28
36 -29 54 -2 17 27 -22 71 -71 82 -34 8 -42 14 -47 38 -4 22 -11 28 -31 28
-21 0 -25 -5 -25 -29z m-5 -136 c0 -34 -3 -40 -20 -37 -39 6 -45 12 -45 41 0
31 12 41 45 38 16 -2 20 -9 20 -42z m115 -139 c20 -26 8 -61 -22 -64 -27 -3
-28 -1 -28 37 0 33 3 41 19 41 10 0 24 -7 31 -14z"/>
<path d="M1475 1006 c-56 -26 -119 -90 -142 -144 -50 -119 12 -283 130 -344
176 -89 389 44 388 243 -1 196 -202 327 -376 245z m201 -55 c141 -64 156 -273
26 -364 -42 -29 -54 -32 -118 -32 -60 0 -77 4 -112 27 -139 92 -123 307 28
372 48 21 127 19 176 -3z"/>
<path d="M1556 915 c-9 -14 -25 -25 -36 -25 -30 0 -53 -43 -46 -85 8 -42 31
-58 109 -74 37 -8 57 -17 57 -27 0 -21 -106 -20 -114 1 -7 19 -30 19 -45 1
-20 -23 4 -65 40 -73 18 -3 34 -14 36 -24 9 -33 43 -32 55 2 4 9 20 19 37 22
32 7 51 36 51 78 0 34 -41 64 -108 79 -81 17 -85 40 -7 40 30 0 55 -4 55 -9 0
-17 33 -22 48 -7 22 21 -4 68 -44 78 -19 5 -34 16 -37 28 -7 27 -31 25 -51 -5z"/>
</g>
</svg>
