<?xml version="1.0" standalone="no"?>
<!DOCTYPE svg PUBLIC "-//W3C//DTD SVG 20010904//EN"
 "http://www.w3.org/TR/2001/REC-SVG-20010904/DTD/svg10.dtd">
<svg version="1.0" xmlns="http://www.w3.org/2000/svg"
 width="200.000000pt" height="200.000000pt" viewBox="0 0 200.000000 200.000000"
 preserveAspectRatio="xMidYMid meet">
<metadata>
Created by potrace 1.16, written by Peter Selinger 2001-2019
</metadata>
<g transform="translate(0.000000,200.000000) scale(0.100000,-0.100000)"
fill="#000000" stroke="none">
<path d="M27 1973 c-4 -3 -7 -381 -7 -840 0 -926 -5 -863 66 -829 49 23 63 21
130 -20 89 -55 132 -56 218 -5 37 23 77 41 89 41 11 0 53 -19 93 -42 l73 -43
1 -91 c0 -75 3 -94 18 -107 17 -15 75 -17 625 -17 594 0 607 0 627 20 19 19
20 33 20 315 0 282 -1 296 -20 315 -19 19 -33 20 -285 20 l-265 0 -2 643 -3
642 -686 3 c-377 1 -689 -1 -692 -5z m1323 -668 l0 -615 -312 0 c-276 0 -314
-2 -330 -17 -16 -14 -18 -34 -18 -190 0 -95 -3 -173 -6 -173 -4 0 -30 14 -58
32 -31 19 -69 33 -96 35 -39 4 -54 -1 -112 -36 -37 -23 -77 -41 -90 -41 -12 0
-50 17 -83 37 -49 31 -69 38 -112 38 l-53 0 0 773 0 772 635 0 635 0 0 -615z
m570 -950 l0 -275 -585 0 -585 0 0 275 0 275 585 0 585 0 0 -275z"/>
<path d="M693 1850 c-3 -11 -13 -20 -22 -20 -37 0 -61 -29 -61 -74 0 -45 18
-71 55 -78 12 -2 21 -13 23 -26 4 -25 -15 -29 -32 -6 -16 21 -46 7 -46 -21 0
-29 25 -55 51 -55 11 0 23 -8 26 -17 14 -38 39 -42 54 -10 6 13 25 28 42 33
61 18 58 114 -3 137 -22 8 -30 18 -30 36 0 23 1 23 18 8 22 -20 36 -21 50 -4
15 18 -3 55 -35 69 -15 7 -34 21 -41 30 -18 24 -43 23 -49 -2z m-3 -95 c0 -8
-4 -15 -10 -15 -5 0 -10 7 -10 15 0 8 5 15 10 15 6 0 10 -7 10 -15z m80 -116
c0 -5 -4 -9 -10 -9 -5 0 -10 7 -10 16 0 8 5 12 10 9 6 -3 10 -10 10 -16z"/>
<path d="M244 1715 c-16 -40 -1 -45 145 -45 119 0 140 2 145 16 14 37 -11 44
-151 44 -110 0 -135 -3 -139 -15z"/>
<path d="M900 1715 c-10 -12 -10 -18 0 -30 10 -12 39 -15 145 -15 106 0 135 3
145 15 10 12 10 18 0 30 -10 12 -39 15 -145 15 -106 0 -135 -3 -145 -15z"/>
<path d="M240 1471 c-6 -12 -10 -134 -10 -326 0 -192 4 -314 10 -326 10 -18
26 -19 473 -19 347 0 466 3 475 12 9 9 12 96 12 329 0 175 -3 324 -6 333 -5
14 -57 16 -475 16 -453 0 -469 -1 -479 -19z m620 -166 l0 -125 -285 0 -285 0
0 125 0 125 285 0 285 0 0 -125z m280 80 l0 -45 -110 0 -110 0 0 45 0 45 110
0 110 0 0 -45z m0 -160 l0 -45 -110 0 -110 0 0 45 0 45 110 0 110 0 0 -45z
m-280 -240 l0 -125 -285 0 -285 0 0 125 0 125 285 0 285 0 0 -125z m280 80 l0
-45 -110 0 -110 0 0 45 0 45 110 0 110 0 0 -45z m0 -155 l0 -50 -110 0 -110 0
0 50 0 50 110 0 110 0 0 -50z"/>
<path d="M902 558 c-7 -7 -12 -19 -12 -28 0 -21 -28 -47 -55 -52 -18 -3 -20
-12 -23 -120 l-3 -116 38 -19 c24 -11 39 -26 41 -40 2 -12 9 -26 16 -32 9 -8
144 -10 436 -9 l422 3 12 35 c8 27 19 38 46 46 l35 12 0 117 0 117 -35 12
c-25 8 -37 20 -45 41 -5 17 -14 33 -20 37 -5 4 -197 8 -425 8 -311 0 -419 -3
-428 -12z m260 -75 c-51 -73 -54 -174 -8 -243 l26 -40 -114 0 -115 0 -17 29
c-10 16 -28 35 -41 42 -21 11 -23 19 -23 84 0 66 2 73 24 83 13 6 32 24 42 41
l18 31 114 0 113 0 -19 -27z m238 5 c143 -73 94 -281 -66 -283 -81 0 -142 55
-151 137 -8 66 22 116 92 152 41 22 73 20 125 -6z m335 -11 c11 -18 30 -36 43
-42 20 -9 22 -17 22 -81 0 -66 -2 -72 -25 -82 -14 -7 -34 -25 -43 -42 l-17
-30 -112 0 c-111 0 -128 5 -98 30 8 7 22 36 30 65 18 61 8 129 -25 176 -11 15
-20 30 -20 33 0 3 51 6 113 6 l112 -1 20 -32z"/>
<path d="M1310 480 c0 -5 -13 -16 -30 -25 -65 -33 -44 -103 37 -128 39 -12 43
-15 20 -16 -15 -1 -36 5 -47 11 -16 10 -23 10 -36 -4 -16 -16 -16 -18 0 -42 9
-14 23 -26 32 -26 8 0 17 -7 20 -15 8 -19 43 -19 50 0 4 8 12 15 19 15 40 0
62 84 29 111 -14 11 -14 13 0 21 9 5 16 17 16 27 0 19 -30 51 -47 51 -6 0 -13
7 -17 15 -6 16 -46 21 -46 5z m55 -90 c7 -11 -9 -11 -45 0 -24 8 -24 8 7 9 17
1 35 -3 38 -9z"/>
</g>
</svg>
