<?xml version="1.0" standalone="no"?>
<!DOCTYPE svg PUBLIC "-//W3C//DTD SVG 20010904//EN"
 "http://www.w3.org/TR/2001/REC-SVG-20010904/DTD/svg10.dtd">
<svg version="1.0" xmlns="http://www.w3.org/2000/svg"
 width="200.000000pt" height="200.000000pt" viewBox="0 0 200.000000 200.000000"
 preserveAspectRatio="xMidYMid meet">
<metadata>
Created by potrace 1.16, written by Peter Selinger 2001-2019
</metadata>
<g transform="translate(0.000000,200.000000) scale(0.100000,-0.100000)"
fill="#000000" stroke="none">
<path d="M227 1853 c-4 -3 -7 -225 -7 -492 l0 -486 -68 -50 c-57 -43 -73 -61
-106 -127 -51 -100 -59 -190 -26 -287 56 -166 187 -261 360 -261 93 0 155 20
228 74 l49 36 394 2 394 3 3 615 2 615 -166 183 -166 182 -442 0 c-244 0 -446
-3 -449 -7z m853 -216 c0 -113 4 -167 12 -175 8 -8 58 -12 160 -12 l148 0 0
-565 0 -565 -346 0 c-326 0 -346 1 -339 18 38 85 47 131 43 208 -3 63 -11 94
-33 140 -80 164 -274 256 -437 208 -17 -5 -18 21 -18 450 l0 456 405 0 405 0
0 -163z m219 -56 l63 -71 -111 0 -111 0 0 123 1 122 47 -52 c26 -28 76 -83
111 -122z m-773 -766 c90 -44 153 -130 173 -238 19 -106 -20 -219 -104 -296
-123 -113 -331 -106 -447 16 -180 188 -91 482 167 547 47 12 159 -3 211 -29z"/>
<path d="M413 1674 c-3 -8 -1 -20 4 -25 5 -5 112 -8 264 -7 246 3 254 4 254
23 0 19 -8 20 -258 23 -227 2 -258 0 -264 -14z"/>
<path d="M413 1474 c-3 -8 -1 -20 4 -25 5 -5 112 -8 264 -7 246 3 254 4 254
23 0 19 -8 20 -258 23 -227 2 -258 0 -264 -14z"/>
<path d="M413 1274 c-3 -8 -1 -20 4 -25 5 -5 173 -8 424 -7 406 3 414 3 414
23 0 20 -8 20 -418 23 -373 2 -418 1 -424 -14z"/>
<path d="M413 1074 c-3 -8 -1 -20 4 -25 5 -5 173 -8 424 -7 406 3 414 3 414
23 0 20 -8 20 -418 23 -373 2 -418 1 -424 -14z"/>
<path d="M713 874 c-3 -8 -1 -20 4 -25 5 -5 116 -8 274 -7 256 3 264 4 264 23
0 19 -8 20 -268 23 -236 2 -268 0 -274 -14z"/>
<path d="M863 674 c-14 -36 22 -44 197 -44 175 0 211 8 197 44 -6 14 -29 16
-197 16 -168 0 -191 -2 -197 -16z"/>
<path d="M873 483 c-19 -7 -16 -31 6 -43 11 -6 89 -10 181 -10 92 0 170 4 181
10 23 13 25 36 3 44 -19 7 -353 7 -371 -1z"/>
<path d="M234 720 c-31 -12 -54 -49 -54 -86 0 -79 102 -115 154 -53 14 17 26
39 26 50 0 32 -26 74 -55 87 -30 14 -42 14 -71 2z m61 -85 c0 -25 -4 -30 -24
-30 -32 0 -49 28 -31 50 7 9 23 15 34 13 16 -2 21 -10 21 -33z"/>
<path d="M363 548 c-95 -95 -173 -180 -173 -189 0 -9 7 -20 17 -23 12 -5 62
39 190 166 95 95 173 180 173 189 0 9 -7 20 -17 23 -12 5 -62 -39 -190 -166z"/>
<path d="M437 480 c-67 -53 -24 -160 64 -160 35 0 79 53 79 95 0 73 -84 111
-143 65z m89 -55 c8 -20 -13 -45 -38 -45 -21 0 -33 22 -24 45 7 20 55 19 62 0z"/>
<path d="M1628 1849 c-13 -7 -18 -23 -18 -52 0 -38 -3 -44 -30 -54 l-30 -11 0
-325 c0 -179 3 -332 6 -341 3 -9 12 -16 20 -16 12 0 14 -50 14 -295 l0 -295
50 -101 c37 -74 55 -99 67 -97 10 2 37 43 64 98 l48 95 0 298 c1 247 3 297 15
297 8 0 17 7 20 16 3 9 6 130 6 270 l0 254 29 0 c57 0 61 -19 61 -273 l0 -228
23 3 c22 3 22 3 25 233 2 157 -1 239 -9 258 -14 33 -56 57 -99 57 -29 0 -30 1
-30 46 0 42 -3 47 -30 57 -27 10 -30 16 -30 54 0 32 -5 45 -19 53 -25 13 -131
13 -153 -1z m122 -74 c0 -23 -4 -25 -45 -25 -41 0 -45 2 -45 25 0 23 4 25 45
25 41 0 45 -2 45 -25z m50 -375 l0 -290 -100 0 -100 0 0 290 0 290 100 0 100
0 0 -290z m-30 -625 l0 -275 -65 0 -65 0 0 275 0 275 65 0 65 0 0 -275z m-42
-380 c-12 -24 -23 -44 -24 -42 -1 1 -11 21 -23 45 l-21 42 45 0 45 0 -22 -45z"/>
</g>
</svg>
