<?xml version="1.0" standalone="no"?>
<!DOCTYPE svg PUBLIC "-//W3C//DTD SVG 20010904//EN"
 "http://www.w3.org/TR/2001/REC-SVG-20010904/DTD/svg10.dtd">
<svg version="1.0" xmlns="http://www.w3.org/2000/svg"
 width="200.000000pt" height="200.000000pt" viewBox="0 0 200.000000 200.000000"
 preserveAspectRatio="xMidYMid meet">
<metadata>
Created by potrace 1.16, written by Peter Selinger 2001-2019
</metadata>
<g transform="translate(0.000000,200.000000) scale(0.100000,-0.100000)"
fill="#000000" stroke="none">
<path d="M120 1871 c-14 -27 -14 -1715 0 -1742 10 -19 31 -19 875 -19 772 0
865 2 879 16 14 14 16 88 16 663 l0 647 -192 225 -193 224 -687 3 c-671 2
-687 2 -698 -17z m1509 -268 l171 -198 0 -602 0 -603 -800 0 -800 0 0 800 0
800 629 0 629 0 171 -197z"/>
<path d="M390 1283 c-39 -14 -40 -23 -40 -468 0 -406 1 -433 18 -448 17 -15
75 -17 634 -17 583 0 616 1 631 18 15 17 17 62 17 448 0 356 -2 434 -14 450
-14 18 -33 19 -623 21 -334 1 -615 -1 -623 -4z m1168 -250 l2 -163 -410 0
-410 0 0 158 c0 87 3 162 7 165 4 4 187 6 407 5 l401 -3 3 -162z m-908 -8 l0
-166 -102 3 -103 3 -3 163 -2 162 105 0 105 0 0 -165z m0 -420 l0 -165 -105 0
-105 0 0 165 0 165 105 0 105 0 0 -165z m910 0 l0 -165 -405 0 -405 0 0 165 0
165 405 0 405 0 0 -165z"/>
</g>
</svg>
