<?xml version="1.0" standalone="no"?>
<!DOCTYPE svg PUBLIC "-//W3C//DTD SVG 20010904//EN"
 "http://www.w3.org/TR/2001/REC-SVG-20010904/DTD/svg10.dtd">
<svg version="1.0" xmlns="http://www.w3.org/2000/svg"
 width="200.000000pt" height="200.000000pt" viewBox="0 0 200.000000 200.000000"
 preserveAspectRatio="xMidYMid meet">
<metadata>
Created by potrace 1.16, written by Peter Selinger 2001-2019
</metadata>
<g transform="translate(0.000000,200.000000) scale(0.100000,-0.100000)"
fill="#000000" stroke="none">
<path d="M260 1929 c-32 -13 -77 -56 -98 -94 -15 -26 -17 -83 -20 -472 l-3
-443 145 0 146 0 2 -416 3 -417 104 114 c58 63 108 115 112 117 3 2 39 -43 79
-98 l73 -101 62 68 c34 37 76 84 93 103 20 22 35 31 39 24 81 -113 136 -184
141 -184 4 -1 48 43 98 97 l91 97 64 -88 c35 -49 69 -95 74 -103 9 -12 28 5
100 86 50 55 93 101 96 101 3 0 46 -56 95 -125 49 -68 92 -125 97 -125 4 0 6
397 5 883 -3 827 -4 884 -21 915 -10 18 -32 42 -50 52 -31 19 -55 20 -767 19
-462 0 -744 -4 -760 -10z m126 -87 c43 -34 44 -45 44 -451 l0 -391 -105 0
-105 0 0 373 c0 224 4 387 10 409 6 20 22 46 37 58 32 25 90 26 119 2z m1370
4 c18 -14 19 -33 22 -563 1 -301 1 -645 0 -763 l-3 -214 -53 71 -53 72 -91
-99 c-50 -55 -92 -100 -94 -100 -3 0 -37 45 -78 100 l-74 100 -88 -99 c-49
-55 -92 -100 -96 -100 -3 -1 -39 44 -79 99 l-73 100 -61 -67 c-34 -38 -76 -84
-93 -103 -20 -22 -35 -31 -39 -24 -84 116 -137 184 -143 184 -4 0 -40 -34 -79
-76 l-71 -76 0 751 c0 634 -2 757 -14 786 l-15 35 628 0 c526 0 630 -2 647
-14z"/>
<path d="M1100 1741 c0 -36 -3 -40 -47 -62 -53 -27 -93 -78 -93 -119 0 -35 37
-89 77 -113 18 -10 60 -22 93 -27 79 -11 112 -32 108 -68 -4 -34 -38 -52 -99
-52 -59 0 -99 29 -99 71 0 27 -2 29 -41 29 l-42 0 6 -46 c6 -53 50 -107 104
-125 31 -10 33 -14 33 -55 l0 -44 40 0 40 0 0 45 c0 43 1 45 40 56 93 28 131
131 74 199 -36 42 -71 58 -149 69 -104 15 -137 61 -72 102 24 15 44 19 80 16
56 -5 87 -29 87 -69 0 -27 2 -28 46 -28 l46 0 -7 38 c-12 70 -55 115 -127 136
-13 4 -18 16 -18 46 l0 40 -40 0 c-40 0 -40 0 -40 -39z"/>
<path d="M610 990 l0 -40 535 0 535 0 0 40 0 40 -535 0 -535 0 0 -40z"/>
<path d="M610 770 l0 -40 535 0 535 0 0 40 0 40 -535 0 -535 0 0 -40z"/>
<path d="M610 550 l0 -40 535 0 535 0 0 40 0 40 -535 0 -535 0 0 -40z"/>
</g>
</svg>
