<?xml version="1.0" standalone="no"?>
<!DOCTYPE svg PUBLIC "-//W3C//DTD SVG 20010904//EN"
 "http://www.w3.org/TR/2001/REC-SVG-20010904/DTD/svg10.dtd">
<svg version="1.0" xmlns="http://www.w3.org/2000/svg"
 width="200.000000pt" height="200.000000pt" viewBox="0 0 200.000000 200.000000"
 preserveAspectRatio="xMidYMid meet">
<metadata>
Created by potrace 1.16, written by Peter Selinger 2001-2019
</metadata>
<g transform="translate(0.000000,200.000000) scale(0.100000,-0.100000)"
fill="#000000" stroke="none">
<path d="M335 1870 c-4 -6 5 -20 19 -31 15 -12 37 -40 49 -62 l22 -42 5 -745
c4 -540 8 -750 17 -765 18 -31 65 -73 96 -84 39 -15 67 -14 67 2 0 8 9 22 21
33 46 41 59 86 59 202 0 79 4 113 13 121 10 7 156 12 478 13 l464 3 3 575 c1
400 -1 592 -9 630 -16 76 -72 133 -147 149 -71 15 -1148 16 -1157 1z m1146
-364 c8 -17 8 -29 0 -45 -12 -21 -14 -21 -432 -21 l-419 0 -11 24 c-8 17 -8
29 0 45 12 21 14 21 432 21 l419 0 11 -24z m1 -191 c9 -21 8 -28 -7 -45 -17
-19 -31 -20 -255 -20 -170 0 -239 3 -248 12 -13 13 -16 60 -5 71 3 4 118 7
255 7 l248 0 12 -25z m-8 -177 c20 -29 20 -34 -4 -58 -19 -19 -33 -20 -323
-20 -258 0 -306 2 -325 16 -26 18 -28 46 -6 68 13 14 57 16 329 16 313 0 314
0 329 -22z"/>
<path d="M268 1850 c-18 -9 -46 -34 -63 -54 -27 -34 -30 -45 -30 -105 0 -55 5
-74 24 -103 39 -56 83 -81 149 -82 l57 -1 3 105 c3 126 -10 171 -68 223 l-39
35 -33 -18z"/>
<path d="M717 493 c-4 -3 -7 -46 -7 -95 0 -115 -14 -167 -58 -218 -28 -34 -32
-44 -21 -51 8 -5 229 -8 534 -7 550 3 552 3 604 51 98 90 70 251 -54 308 -37
17 -75 19 -516 19 -262 0 -479 -3 -482 -7z"/>
</g>
</svg>
