<?xml version="1.0" standalone="no"?>
<!DOCTYPE svg PUBLIC "-//W3C//DTD SVG 20010904//EN"
 "http://www.w3.org/TR/2001/REC-SVG-20010904/DTD/svg10.dtd">
<svg version="1.0" xmlns="http://www.w3.org/2000/svg"
 width="200.000000pt" height="200.000000pt" viewBox="0 0 200.000000 200.000000"
 preserveAspectRatio="xMidYMid meet">
<metadata>
Created by potrace 1.16, written by Peter Selinger 2001-2019
</metadata>
<g transform="translate(0.000000,200.000000) scale(0.100000,-0.100000)"
fill="#000000" stroke="none">
<path d="M466 1915 c-57 -20 -87 -46 -113 -95 l-23 -43 2 -780 3 -780 98 -68
c53 -38 108 -71 120 -75 18 -4 44 8 103 49 l80 55 55 -40 c75 -55 107 -70 129
-63 11 3 49 26 84 51 36 24 70 44 77 44 6 0 39 -20 74 -44 92 -66 97 -66 195
-1 47 32 97 70 112 86 l28 29 0 639 0 639 69 4 c103 5 111 16 110 142 -1 112
-11 149 -51 195 -62 68 -39 66 -603 68 -420 2 -517 0 -549 -12z m114 -135 c17
-17 20 -33 20 -104 0 -104 9 -130 51 -145 21 -7 146 -11 370 -11 l339 0 0
-617 0 -618 -53 -36 -52 -37 -80 54 c-44 29 -87 54 -96 54 -8 0 -51 -24 -94
-54 l-79 -54 -71 49 c-43 29 -82 49 -99 49 -16 0 -57 -20 -100 -50 l-74 -49
-56 40 -56 40 2 736 3 735 24 19 c30 25 76 24 101 -1z m940 2 c18 -14 24 -32
28 -75 l4 -57 -411 0 -411 0 0 44 c0 24 -3 58 -6 75 l-6 31 390 0 c363 0 391
-1 412 -18z"/>
<path d="M872 1354 c-14 -9 -22 -26 -22 -43 0 -22 -9 -34 -38 -54 -100 -65
-100 -218 -2 -285 19 -12 43 -24 54 -27 68 -13 78 -17 88 -40 9 -21 8 -28 -7
-45 -15 -17 -31 -20 -92 -20 -65 0 -77 -3 -98 -25 -14 -13 -25 -31 -25 -40 0
-27 46 -65 80 -65 19 0 30 -5 30 -14 0 -25 41 -66 66 -66 32 0 64 33 64 68 1
19 10 33 32 47 66 42 94 122 69 198 -16 48 -80 104 -128 113 -53 9 -83 30 -83
58 0 36 18 44 108 48 69 3 86 7 98 23 34 46 8 94 -54 102 -35 5 -42 9 -42 28
0 26 -29 55 -56 55 -11 0 -30 -7 -42 -16z"/>
</g>
</svg>
