<?xml version="1.0" standalone="no"?>
<!DOCTYPE svg PUBLIC "-//W3C//DTD SVG 20010904//EN"
 "http://www.w3.org/TR/2001/REC-SVG-20010904/DTD/svg10.dtd">
<svg version="1.0" xmlns="http://www.w3.org/2000/svg"
 width="200.000000pt" height="200.000000pt" viewBox="0 0 200.000000 200.000000"
 preserveAspectRatio="xMidYMid meet">
<metadata>
Created by potrace 1.16, written by Peter Selinger 2001-2019
</metadata>
<g transform="translate(0.000000,200.000000) scale(0.100000,-0.100000)"
fill="#000000" stroke="none">
<path d="M694 1839 c3 -17 6 -58 6 -90 l0 -59 448 2 447 3 -1 58 c-1 50 -6 63
-28 85 l-26 27 -427 3 -426 3 7 -32z"/>
<path d="M429 1834 l-24 -26 -3 -792 -2 -792 60 -43 c34 -23 68 -40 76 -37 8
3 47 28 89 56 41 27 81 50 90 50 9 0 49 -23 90 -50 42 -28 81 -53 89 -56 8 -3
39 12 68 34 76 56 115 74 141 66 12 -4 53 -29 91 -55 38 -27 73 -49 78 -49 6
0 36 19 69 41 l59 42 -2 671 -3 671 -389 3 c-345 2 -392 4 -408 19 -15 13 -18
32 -18 110 0 131 -18 163 -94 163 -22 0 -40 -8 -57 -26z m519 -472 c6 -9 12
-26 12 -39 0 -20 5 -23 38 -23 68 0 101 -46 72 -101 -9 -16 -22 -19 -85 -19
-88 0 -121 -11 -137 -44 -16 -37 11 -73 59 -81 59 -10 88 -24 121 -58 52 -54
67 -132 38 -200 -13 -32 -78 -97 -96 -97 -6 0 -10 -14 -10 -32 0 -39 -25 -68
-58 -68 -35 0 -62 27 -62 62 0 26 -3 28 -42 28 -49 0 -78 22 -78 59 0 49 12
56 114 61 80 5 98 9 111 25 33 45 5 88 -66 99 -167 26 -217 244 -76 335 27 18
37 31 37 51 0 61 70 89 108 42z"/>
</g>
</svg>
