<?xml version="1.0" standalone="no"?>
<!DOCTYPE svg PUBLIC "-//W3C//DTD SVG 20010904//EN"
 "http://www.w3.org/TR/2001/REC-SVG-20010904/DTD/svg10.dtd">
<svg version="1.0" xmlns="http://www.w3.org/2000/svg"
 width="200.000000pt" height="200.000000pt" viewBox="0 0 200.000000 200.000000"
 preserveAspectRatio="xMidYMid meet">
<metadata>
Created by potrace 1.16, written by Peter Selinger 2001-2019
</metadata>
<g transform="translate(0.000000,200.000000) scale(0.100000,-0.100000)"
fill="#000000" stroke="none">
<path d="M260 1933 c-41 -14 -40 -2 -40 -933 0 -758 2 -899 14 -916 14 -18 32
-19 442 -22 l428 -3 338 338 338 338 0 582 0 582 -26 20 c-26 21 -33 21 -753
20 -399 0 -733 -3 -741 -6z m1390 -618 l0 -495 -295 0 c-282 0 -296 -1 -315
-20 -19 -19 -20 -33 -20 -315 l0 -295 -335 0 -335 0 0 810 0 810 650 0 650 0
0 -495z m-90 -628 c0 -1 -92 -94 -205 -207 l-205 -205 0 208 0 207 205 0 c113
0 205 -1 205 -3z"/>
<path d="M962 1744 c-17 -11 -22 -25 -22 -57 -1 -39 -4 -44 -44 -68 -46 -28
-86 -94 -86 -142 0 -36 25 -96 53 -125 30 -33 64 -49 120 -57 55 -8 77 -26 77
-60 0 -28 -26 -45 -68 -45 -35 0 -47 13 -57 58 -12 56 -81 72 -112 26 -33 -50
15 -151 90 -190 22 -12 27 -21 27 -52 0 -51 19 -75 60 -75 41 0 60 24 60 75 0
31 5 40 29 52 70 37 113 127 92 196 -23 76 -102 139 -177 140 -51 0 -84 56
-52 88 16 16 83 15 95 0 6 -7 13 -25 17 -40 13 -58 68 -76 107 -37 18 18 20
28 15 63 -9 52 -47 108 -91 132 -31 17 -35 23 -35 61 0 43 -24 73 -60 73 -9 0
-26 -7 -38 -16z"/>
</g>
</svg>
