<?xml version="1.0" standalone="no"?>
<!DOCTYPE svg PUBLIC "-//W3C//DTD SVG 20010904//EN"
 "http://www.w3.org/TR/2001/REC-SVG-20010904/DTD/svg10.dtd">
<svg version="1.0" xmlns="http://www.w3.org/2000/svg"
 width="200.000000pt" height="200.000000pt" viewBox="0 0 200.000000 200.000000"
 preserveAspectRatio="xMidYMid meet">
<metadata>
Created by potrace 1.16, written by Peter Selinger 2001-2019
</metadata>
<g transform="translate(0.000000,200.000000) scale(0.100000,-0.100000)"
fill="#000000" stroke="none">
<path d="M165 1784 c-11 -3 -30 -7 -42 -10 -33 -6 -94 -63 -109 -101 -11 -26
-14 -129 -14 -495 0 -430 2 -466 19 -504 20 -44 56 -74 110 -92 24 -9 176 -12
507 -12 l474 0 0 -34 c0 -30 -4 -35 -30 -41 -16 -4 -41 -20 -55 -37 -21 -25
-25 -40 -25 -94 0 -72 17 -116 53 -136 16 -9 90 -14 257 -16 289 -4 334 0 372
38 26 26 28 34 28 104 0 71 2 76 21 76 12 0 36 15 55 34 25 25 34 43 34 68 0
32 3 36 43 48 60 18 96 47 118 94 17 38 19 74 19 496 0 268 -4 469 -10 489
-11 39 -51 85 -95 109 -27 15 -108 17 -870 19 -462 0 -849 -1 -860 -3z m1731
-105 l29 -30 3 -460 c3 -511 3 -507 -63 -535 -45 -18 -52 -18 -60 6 -3 11 -18
27 -33 35 -25 15 -27 20 -24 80 3 44 -1 72 -13 95 -27 52 -62 60 -254 60
l-170 0 37 73 c35 69 37 76 37 172 0 92 -3 106 -32 167 -40 85 -106 151 -191
191 -61 29 -75 32 -167 32 -89 0 -106 -3 -157 -28 -139 -68 -218 -185 -226
-331 -7 -141 38 -246 146 -333 55 -45 148 -79 232 -86 45 -4 45 -4 51 -47 4
-32 14 -51 38 -72 l31 -28 -470 0 c-517 0 -524 1 -554 59 -14 26 -16 92 -16
485 l0 455 31 36 31 35 867 0 867 0 30 -31z m-800 -196 c62 -21 117 -57 147
-97 98 -128 101 -286 8 -404 -37 -46 -42 -49 -98 -55 -49 -5 -63 -11 -87 -38
-27 -31 -30 -31 -92 -26 -205 16 -338 210 -280 408 49 172 234 269 402 212z
m565 -633 c15 -8 19 -21 19 -58 0 -26 -4 -53 -8 -60 -7 -9 -70 -12 -283 -10
l-274 3 -3 53 c-2 31 2 60 9 68 9 11 58 14 266 14 156 0 262 -4 274 -10z m83
-226 c10 -27 7 -99 -6 -112 -9 -9 -82 -12 -269 -12 -142 0 -264 3 -273 6 -12
5 -16 20 -16 63 0 32 3 61 7 64 3 4 129 7 279 7 239 0 273 -2 278 -16z m-115
-208 c7 -8 11 -37 9 -68 l-3 -53 -269 -3 c-190 -2 -273 1 -282 9 -17 14 -19
100 -2 117 19 19 531 17 547 -2z"/>
<path d="M250 1292 c-52 -53 -53 -166 -1 -224 27 -30 33 -32 98 -32 120 -1
159 39 151 158 -4 62 -7 71 -36 97 -30 27 -39 29 -108 29 -70 0 -78 -2 -104
-28z m168 -54 c17 -17 15 -103 -2 -117 -8 -7 -37 -11 -68 -9 l-53 3 -3 54 c-2
29 -1 60 2 67 7 18 107 19 124 2z"/>
<path d="M1534 1286 c-32 -32 -34 -38 -34 -100 0 -70 17 -118 48 -135 61 -32
176 -19 211 25 43 55 38 168 -9 216 -26 26 -34 28 -105 28 -74 0 -78 -1 -111
-34z m171 -106 l0 -65 -53 -3 c-68 -4 -82 8 -82 67 0 62 12 73 80 69 l55 -3 0
-65z"/>
<path d="M976 1414 c-9 -8 -16 -25 -16 -37 0 -11 -15 -36 -32 -54 -26 -26 -33
-42 -33 -73 0 -48 42 -97 92 -106 18 -3 38 -14 43 -24 16 -29 -13 -50 -69 -50
-32 0 -53 -5 -62 -16 -17 -21 0 -48 33 -52 17 -2 27 -12 34 -35 16 -56 74 -41
74 20 0 12 8 27 19 32 10 6 26 26 35 46 30 63 -2 122 -79 147 -32 11 -40 18
-40 38 0 23 5 25 52 30 29 3 60 12 68 21 21 21 9 49 -25 56 -20 3 -30 13 -35
31 -10 42 -34 52 -59 26z"/>
</g>
</svg>
