<?xml version="1.0" standalone="no"?>
<!DOCTYPE svg PUBLIC "-//W3C//DTD SVG 20010904//EN"
 "http://www.w3.org/TR/2001/REC-SVG-20010904/DTD/svg10.dtd">
<svg version="1.0" xmlns="http://www.w3.org/2000/svg"
 width="200.000000pt" height="200.000000pt" viewBox="0 0 200.000000 200.000000"
 preserveAspectRatio="xMidYMid meet">
<metadata>
Created by potrace 1.16, written by Peter Selinger 2001-2019
</metadata>
<g transform="translate(0.000000,200.000000) scale(0.100000,-0.100000)"
fill="#000000" stroke="none">
<path d="M987 1781 c-209 -69 -348 -272 -334 -490 8 -132 55 -239 145 -327
235 -232 640 -159 781 140 52 109 62 203 36 314 -36 152 -129 268 -269 338
-77 37 -84 39 -190 41 -87 2 -123 -1 -169 -16z m317 -109 c83 -39 149 -105
189 -190 30 -62 32 -75 32 -172 0 -96 -3 -110 -29 -165 -144 -293 -563 -298
-710 -8 -91 181 -30 401 142 512 108 69 258 78 376 23z"/>
<path d="M1112 1588 c-7 -7 -12 -20 -12 -29 0 -11 -11 -20 -29 -24 -49 -11
-91 -70 -91 -127 0 -50 20 -79 73 -105 l47 -24 0 -59 c0 -33 -4 -60 -9 -60
-14 0 -29 23 -33 49 -8 56 -70 52 -76 -5 -4 -42 32 -93 78 -111 25 -10 40 -22
40 -33 0 -46 65 -49 76 -4 4 15 19 30 38 38 51 21 76 60 76 118 0 65 -13 86
-66 109 l-44 20 0 60 c0 68 17 77 36 18 10 -28 17 -34 40 -34 26 0 29 4 32 35
3 46 -27 95 -71 111 -22 8 -37 22 -44 40 -12 31 -40 38 -61 17z m-12 -174 c0
-38 -3 -45 -16 -40 -9 3 -18 6 -20 6 -10 0 -3 57 8 68 21 21 28 13 28 -34z
m108 -176 c18 -18 15 -43 -8 -63 -20 -18 -20 -17 -20 28 0 48 7 56 28 35z"/>
<path d="M617 806 c-61 -17 -82 -36 -73 -69 7 -29 35 -39 79 -26 61 17 133 10
234 -24 118 -41 159 -61 173 -86 25 -47 12 -49 -155 -24 -61 9 -123 13 -137
10 -45 -12 -48 -73 -4 -81 11 -3 81 -15 155 -26 155 -26 201 -20 229 29 13 23
26 30 76 39 34 7 90 27 126 45 36 18 106 54 155 80 105 55 175 69 205 42 18
-16 17 -18 -38 -64 -148 -124 -414 -280 -562 -331 -82 -28 -175 -36 -237 -21
-26 7 -86 30 -132 52 -94 44 -125 48 -141 19 -18 -33 4 -57 90 -100 197 -99
333 -95 575 15 186 85 513 307 562 381 14 22 13 27 -11 68 -70 119 -197 115
-421 -12 -97 -56 -182 -91 -218 -92 -11 0 -38 20 -61 44 -46 47 -136 87 -281
125 -90 24 -120 25 -188 7z"/>
<path d="M262 770 c-66 -40 -72 -63 -72 -274 0 -175 2 -191 22 -227 53 -95
213 -98 282 -6 19 26 21 43 24 220 3 216 -3 242 -67 284 -45 31 -141 32 -189
3z m144 -91 c17 -20 19 -36 16 -193 -2 -145 -5 -173 -19 -183 -26 -20 -80 -16
-103 7 -18 18 -20 33 -20 185 0 152 2 167 20 185 27 27 81 26 106 -1z"/>
</g>
</svg>
