<?xml version="1.0" standalone="no"?>
<!DOCTYPE svg PUBLIC "-//W3C//DTD SVG 20010904//EN"
 "http://www.w3.org/TR/2001/REC-SVG-20010904/DTD/svg10.dtd">
<svg version="1.0" xmlns="http://www.w3.org/2000/svg"
 width="200.000000pt" height="200.000000pt" viewBox="0 0 200.000000 200.000000"
 preserveAspectRatio="xMidYMid meet">
<metadata>
Created by potrace 1.16, written by Peter Selinger 2001-2019
</metadata>
<g transform="translate(0.000000,200.000000) scale(0.100000,-0.100000)"
fill="#000000" stroke="none">
<path d="M987 1781 c-158 -52 -289 -196 -327 -360 -27 -115 4 -279 72 -378
213 -313 687 -279 847 61 52 109 62 203 36 314 -36 152 -129 268 -269 338 -77
37 -84 39 -190 41 -87 2 -123 -1 -169 -16z m186 -210 c6 -18 22 -32 43 -40 47
-17 76 -61 72 -108 -3 -34 -6 -38 -32 -38 -23 0 -30 6 -40 34 -19 59 -36 50
-36 -18 l0 -60 44 -20 c53 -23 66 -44 66 -109 0 -58 -25 -97 -76 -118 -19 -8
-34 -23 -38 -38 -11 -45 -76 -42 -76 3 0 10 -18 25 -42 36 -55 26 -87 80 -72
122 17 48 74 38 74 -13 0 -13 9 -28 20 -34 19 -10 20 -8 20 49 l0 60 -47 24
c-53 26 -73 55 -73 105 0 57 42 116 91 127 18 4 29 13 29 24 0 46 56 56 73 12z"/>
<path d="M1072 1448 c-11 -11 -18 -68 -8 -68 2 0 11 -3 20 -6 13 -5 16 2 16
40 0 47 -7 55 -28 34z"/>
<path d="M1180 1203 c0 -45 0 -46 20 -28 23 20 26 45 8 63 -21 21 -28 13 -28
-35z"/>
<path d="M617 806 c-70 -19 -83 -36 -69 -84 7 -23 12 -108 12 -206 0 -97 4
-176 10 -187 11 -19 136 -87 200 -107 138 -45 268 -26 472 66 177 81 507 306
555 378 14 22 13 27 -11 68 -70 120 -193 116 -431 -16 -60 -34 -129 -66 -154
-73 l-45 -11 3 -62 c2 -60 1 -64 -34 -99 l-35 -35 -83 4 c-74 5 -253 45 -243
55 2 2 61 -5 131 -17 105 -18 135 -20 166 -11 48 14 69 44 69 96 0 95 -66 152
-241 209 -131 43 -204 51 -272 32z"/>
<path d="M262 770 c-66 -40 -72 -63 -72 -274 0 -175 2 -191 22 -227 53 -95
213 -98 282 -6 19 26 21 43 24 220 3 216 -3 242 -67 284 -45 31 -141 32 -189
3z"/>
</g>
</svg>
