<?xml version="1.0" standalone="no"?>
<!DOCTYPE svg PUBLIC "-//W3C//DTD SVG 20010904//EN"
 "http://www.w3.org/TR/2001/REC-SVG-20010904/DTD/svg10.dtd">
<svg version="1.0" xmlns="http://www.w3.org/2000/svg"
 width="200.000000pt" height="200.000000pt" viewBox="0 0 200.000000 200.000000"
 preserveAspectRatio="xMidYMid meet">
<metadata>
Created by potrace 1.16, written by Peter Selinger 2001-2019
</metadata>
<g transform="translate(0.000000,200.000000) scale(0.100000,-0.100000)"
fill="#000000" stroke="none">
<path d="M1244 1791 c-119 -41 -213 -124 -267 -239 -30 -63 -32 -74 -32 -177
0 -103 2 -114 32 -177 77 -162 224 -258 398 -258 174 0 321 96 398 258 30 63
32 74 32 177 0 102 -3 115 -32 177 -55 117 -157 206 -280 243 -64 20 -186 18
-249 -4z m262 -135 c152 -70 222 -256 152 -407 -52 -114 -158 -182 -282 -183
-124 0 -224 62 -279 173 -55 113 -40 236 42 340 32 41 116 91 171 102 54 12
140 1 196 -25z"/>
<path d="M1351 1613 c-12 -8 -21 -23 -21 -33 0 -10 -9 -21 -20 -25 -36 -11
-60 -54 -60 -106 0 -60 25 -91 95 -117 28 -11 50 -26 50 -33 0 -15 -21 -16
-92 -4 -39 7 -43 5 -52 -16 -12 -32 2 -56 45 -76 20 -10 34 -24 34 -35 0 -9
11 -25 25 -34 23 -15 27 -15 50 0 14 9 25 24 25 33 0 9 17 30 38 48 34 30 37
37 37 83 0 62 -26 93 -99 121 -57 21 -69 47 -21 44 17 -1 47 -5 67 -9 33 -5
39 -3 49 19 16 34 6 54 -34 73 -19 9 -38 28 -44 43 -12 34 -44 44 -72 24z"/>
<path d="M270 962 c-19 -9 -45 -33 -58 -52 -23 -34 -23 -35 -20 -338 l3 -303
43 -41 43 -40 99 4 c94 3 100 4 130 33 l31 29 283 -28 c410 -41 449 -34 725
135 91 56 179 114 194 128 140 128 47 344 -148 346 -55 0 -69 -5 -150 -51 -80
-46 -190 -94 -214 -94 -5 0 -7 18 -4 40 7 54 -35 141 -83 170 -76 47 -344 65
-519 35 -85 -15 -89 -15 -109 4 -32 30 -71 41 -144 41 -44 0 -79 -6 -102 -18z
m165 -382 l0 -265 -60 0 -60 0 -3 255 c-1 140 0 261 3 268 3 9 22 12 62 10
l58 -3 0 -265z m513 239 c94 -10 130 -21 144 -43 15 -22 7 -55 -18 -75 -24
-19 -40 -21 -143 -21 -127 0 -161 -11 -161 -53 0 -63 70 -87 252 -87 171 0
320 41 492 135 77 43 121 42 156 -2 25 -32 25 -44 0 -76 -32 -41 -323 -215
-405 -242 -93 -31 -134 -31 -450 0 -137 14 -251 25 -253 25 -1 0 -1 93 0 207
l3 207 40 9 c43 9 160 23 213 26 18 0 76 -4 130 -10z"/>
</g>
</svg>
