<?xml version="1.0" standalone="no"?>
<!DOCTYPE svg PUBLIC "-//W3C//DTD SVG 20010904//EN"
 "http://www.w3.org/TR/2001/REC-SVG-20010904/DTD/svg10.dtd">
<svg version="1.0" xmlns="http://www.w3.org/2000/svg"
 width="200.000000pt" height="200.000000pt" viewBox="0 0 200.000000 200.000000"
 preserveAspectRatio="xMidYMid meet">
<metadata>
Created by potrace 1.16, written by Peter Selinger 2001-2019
</metadata>
<g transform="translate(0.000000,200.000000) scale(0.100000,-0.100000)"
fill="#000000" stroke="none">
<path d="M1034 1860 c-98 -20 -217 -107 -268 -194 -13 -23 -32 -67 -41 -99
l-16 -57 -32 24 c-90 67 -272 106 -353 76 l-27 -10 5 -103 c3 -59 12 -117 20
-138 l16 -36 -48 -61 c-26 -34 -56 -82 -66 -107 l-19 -45 -60 0 c-113 0 -105
15 -105 -195 0 -210 -8 -195 105 -195 l60 0 19 -46 c36 -87 141 -201 229 -249
l36 -19 3 -136 3 -135 124 -3 c93 -2 126 1 133 10 4 7 8 57 8 111 l0 97 195 0
194 0 3 -107 3 -108 130 0 130 0 3 137 3 138 42 21 c23 12 74 54 112 93 83 85
129 171 153 288 l17 81 45 13 c122 36 195 173 160 298 -15 53 -65 117 -85 109
-21 -7 -19 -15 16 -72 29 -45 31 -56 27 -115 -3 -54 -9 -72 -35 -103 -30 -38
-69 -65 -109 -77 -19 -6 -22 0 -36 71 -20 104 -69 200 -140 277 l-57 63 0 86
c0 54 -6 106 -17 140 -36 115 -130 215 -244 258 -62 23 -174 33 -236 19z m238
-72 c208 -96 279 -343 152 -535 -34 -53 -35 -53 -86 -53 l-52 0 43 43 c70 69
86 107 86 212 0 74 -4 97 -23 132 -58 111 -147 166 -265 166 -125 1 -227 -65
-279 -178 -49 -108 -18 -259 67 -334 19 -17 35 -33 35 -36 0 -3 -21 -5 -47 -3
-42 3 -50 7 -80 46 -88 116 -84 312 10 431 42 53 108 101 171 123 74 27 192
20 268 -14z m-36 -106 c48 -25 100 -81 121 -131 9 -20 15 -63 15 -96 1 -174
-169 -293 -336 -236 -84 29 -153 120 -163 216 -11 105 41 195 140 246 54 27
70 30 122 26 33 -2 79 -14 101 -25z m-704 -132 c35 -11 88 -37 118 -57 52 -37
54 -40 66 -104 7 -36 25 -90 41 -120 15 -30 29 -57 31 -61 2 -4 -14 -8 -35
-10 -27 -2 -39 -8 -41 -20 -3 -17 21 -18 406 -18 225 0 411 3 415 6 15 16 -8
34 -43 34 l-38 0 31 57 30 57 43 -50 c112 -128 159 -307 123 -464 -28 -124
-125 -254 -245 -330 l-64 -40 0 -125 0 -125 -85 0 -85 0 0 99 c0 71 -4 102
-14 110 -9 8 -82 11 -242 9 l-229 -3 -3 -107 -3 -108 -89 0 -90 0 0 129 0 129
-57 32 c-82 46 -156 127 -203 221 l-40 79 -70 0 -70 0 0 145 0 145 69 0 70 0
35 73 c19 39 56 96 82 125 l46 53 -17 44 c-20 54 -35 152 -28 188 5 26 8 27
63 27 32 0 87 -9 122 -20z"/>
<path d="M1107 1623 c-4 -3 -7 -14 -7 -24 0 -10 -10 -24 -22 -30 -31 -16 -38
-28 -38 -65 0 -38 15 -52 72 -69 31 -9 43 -17 43 -31 0 -32 -45 -31 -71 1 -24
30 -44 26 -44 -9 0 -23 28 -56 48 -56 6 0 12 -12 14 -27 4 -40 36 -43 44 -5 4
18 15 34 30 41 58 26 37 109 -33 126 -47 12 -69 28 -59 44 13 21 63 12 80 -14
10 -15 22 -22 31 -19 24 10 17 44 -14 73 -15 14 -31 36 -35 49 -7 21 -26 29
-39 15z"/>
<path d="M416 1137 c-51 -51 -22 -127 48 -127 46 0 80 41 72 85 -8 38 -23 53
-63 61 -26 5 -37 1 -57 -19z"/>
<path d="M1292 908 c-51 -12 -86 -26 -89 -35 -9 -22 15 -32 54 -21 19 5 39 8
45 6 6 -2 -26 -38 -71 -80 -90 -85 -185 -139 -278 -158 -74 -16 -223 -8 -291
15 -39 14 -56 15 -64 7 -18 -18 5 -37 70 -58 43 -14 86 -19 172 -18 99 0 125
4 182 26 98 37 169 83 256 165 42 40 78 73 80 73 1 0 2 -25 2 -55 0 -49 2 -55
20 -55 20 0 21 5 18 102 -2 57 -7 102 -13 104 -5 1 -47 -7 -93 -18z"/>
</g>
</svg>
