<?xml version="1.0" standalone="no"?>
<!DOCTYPE svg PUBLIC "-//W3C//DTD SVG 20010904//EN"
 "http://www.w3.org/TR/2001/REC-SVG-20010904/DTD/svg10.dtd">
<svg version="1.0" xmlns="http://www.w3.org/2000/svg"
 width="200.000000pt" height="200.000000pt" viewBox="0 0 200.000000 200.000000"
 preserveAspectRatio="xMidYMid meet">
<metadata>
Created by potrace 1.16, written by Peter Selinger 2001-2019
</metadata>
<g transform="translate(0.000000,200.000000) scale(0.100000,-0.100000)"
fill="#000000" stroke="none">
<path d="M1030 1836 c-239 -51 -375 -315 -276 -532 l25 -54 55 0 55 0 -34 56
c-37 61 -52 138 -40 201 16 89 87 179 175 224 63 31 175 31 242 0 168 -80 229
-289 128 -438 l-29 -43 54 0 c64 0 73 10 101 105 22 79 15 185 -20 260 -51
112 -166 202 -285 225 -65 12 -80 12 -151 -4z"/>
<path d="M1026 1696 c-58 -22 -108 -67 -139 -127 -25 -47 -28 -63 -25 -119 4
-73 27 -127 70 -171 l30 -29 147 0 c172 0 181 4 225 92 63 127 12 278 -117
345 -43 22 -143 27 -191 9z m104 -90 c0 -16 7 -27 20 -31 26 -8 54 -50 46 -70
-8 -21 -33 -19 -46 5 -12 22 -64 28 -76 9 -9 -16 15 -34 63 -48 24 -6 48 -21
54 -32 16 -31 1 -77 -31 -94 -16 -8 -30 -25 -32 -37 -4 -30 -32 -30 -36 0 -2
12 -12 27 -23 32 -27 15 -51 54 -43 74 9 24 33 19 44 -10 8 -21 15 -25 42 -22
25 2 33 8 33 23 0 14 -11 22 -44 30 -82 20 -104 94 -40 132 16 10 29 25 29 33
0 20 9 30 27 30 7 0 13 -11 13 -24z"/>
<path d="M312 1503 c3 -49 13 -111 23 -140 l18 -52 -42 -47 c-23 -26 -56 -78
-74 -115 l-32 -68 -77 0 -78 -1 0 -165 0 -165 78 0 77 0 32 -69 c40 -84 114
-167 199 -223 l64 -42 0 -133 0 -133 110 0 110 0 0 110 0 110 220 0 220 0 0
-110 0 -110 110 0 110 0 0 134 0 134 58 33 c118 66 225 212 252 346 7 34 10
98 8 153 -4 77 -11 109 -36 170 -30 70 -112 190 -131 190 -7 0 -31 -43 -31
-55 0 -3 6 -5 13 -5 22 0 57 -45 57 -73 0 -14 -10 -35 -22 -47 -21 -19 -33
-20 -439 -20 l-418 0 -20 26 c-12 15 -21 37 -21 49 0 23 38 65 58 65 15 0 16
-5 -8 63 -11 32 -22 87 -24 123 -3 62 -5 67 -37 86 -69 43 -159 68 -248 68
l-83 0 4 -87z m189 -372 c34 -35 36 -59 8 -95 -24 -31 -81 -36 -111 -9 -29 26
-24 87 8 112 36 28 60 26 95 -8z m887 -309 c3 -103 3 -103 -20 -100 -20 3 -23
10 -26 54 l-3 51 -61 -60 c-79 -77 -191 -149 -276 -179 -89 -30 -257 -33 -344
-4 -64 21 -88 40 -70 58 8 8 26 6 67 -6 176 -56 339 -30 489 79 34 24 83 66
111 94 l50 52 -59 -7 c-53 -6 -58 -6 -54 12 2 14 23 24 83 41 44 12 87 21 95
20 12 -2 16 -23 18 -105z"/>
<path d="M1844 1306 c-3 -8 7 -33 22 -56 38 -57 44 -140 16 -197 -24 -46 -72
-90 -108 -99 -17 -4 -24 -13 -24 -31 0 -22 3 -24 28 -18 15 3 45 18 66 33 117
81 138 255 43 360 -24 25 -35 28 -43 8z"/>
<path d="M707 1193 c-4 -3 -7 -12 -7 -20 0 -11 75 -13 410 -13 403 0 410 0
410 20 0 20 -7 20 -403 20 -222 0 -407 -3 -410 -7z"/>
</g>
</svg>
