<?xml version="1.0" standalone="no"?>
<!DOCTYPE svg PUBLIC "-//W3C//DTD SVG 20010904//EN"
 "http://www.w3.org/TR/2001/REC-SVG-20010904/DTD/svg10.dtd">
<svg version="1.0" xmlns="http://www.w3.org/2000/svg"
 width="200.000000pt" height="200.000000pt" viewBox="0 0 200.000000 200.000000"
 preserveAspectRatio="xMidYMid meet">
<metadata>
Created by potrace 1.16, written by Peter Selinger 2001-2019
</metadata>
<g transform="translate(0.000000,200.000000) scale(0.100000,-0.100000)"
fill="#000000" stroke="none">
<path d="M890 1711 c-64 -12 -159 -53 -224 -96 -112 -74 -206 -208 -240 -341
-17 -66 -21 -206 -7 -265 l8 -37 -86 -4 c-188 -9 -227 -76 -219 -383 3 -154 5
-163 31 -208 18 -31 43 -55 70 -70 l42 -22 735 0 735 0 43 25 c27 15 54 42 70
70 27 45 27 47 27 245 0 185 -2 203 -21 240 -42 77 -95 104 -210 105 l-72 0 9
38 c13 58 10 190 -6 261 -32 134 -127 271 -242 347 -96 63 -190 94 -301 99
-53 2 -117 0 -142 -4z m303 -159 c185 -85 300 -295 270 -493 -24 -153 -127
-291 -268 -360 -68 -33 -73 -34 -195 -34 -122 0 -127 1 -193 33 -146 72 -246
206 -270 361 -28 186 66 376 237 476 76 44 128 55 246 52 92 -3 113 -8 173
-35z m-673 -771 c107 -159 342 -268 529 -246 175 20 333 109 427 240 l46 65
98 0 c134 0 130 6 130 -215 0 -138 -3 -175 -16 -193 l-15 -22 -716 0 c-653 0
-718 1 -735 17 -16 14 -18 34 -18 196 0 226 -5 217 131 217 l98 0 41 -59z"/>
<path d="M970 1477 c-19 -9 -26 -22 -28 -49 -3 -32 -8 -38 -38 -48 -22 -8 -47
-28 -65 -52 -24 -34 -29 -51 -29 -98 0 -101 58 -156 176 -168 74 -8 99 -27 78
-59 -9 -15 -29 -18 -116 -21 -116 -3 -140 -15 -140 -68 0 -37 21 -54 80 -61
46 -5 52 -9 52 -29 0 -31 26 -54 60 -54 36 0 60 23 60 58 1 22 9 31 43 47 60
28 87 74 87 145 0 101 -61 159 -178 169 -72 7 -97 26 -76 58 9 15 29 18 115
21 117 3 139 14 139 67 0 42 -16 54 -79 62 -44 5 -51 9 -51 27 0 47 -47 75
-90 53z"/>
</g>
</svg>
