<?xml version="1.0" standalone="no"?>
<!DOCTYPE svg PUBLIC "-//W3C//DTD SVG 20010904//EN"
 "http://www.w3.org/TR/2001/REC-SVG-20010904/DTD/svg10.dtd">
<svg version="1.0" xmlns="http://www.w3.org/2000/svg"
 width="200.000000pt" height="200.000000pt" viewBox="0 0 200.000000 200.000000"
 preserveAspectRatio="xMidYMid meet">
<metadata>
Created by potrace 1.16, written by Peter Selinger 2001-2019
</metadata>
<g transform="translate(0.000000,200.000000) scale(0.100000,-0.100000)"
fill="#000000" stroke="none">
<path d="M568 1841 c-91 -19 -128 -72 -128 -187 0 -92 2 -94 76 -94 l45 0 -3
-42 c-3 -40 -5 -43 -38 -49 -54 -9 -96 -35 -122 -76 l-23 -38 0 -540 c0 -527
1 -541 21 -575 11 -19 35 -45 54 -57 l33 -23 517 0 517 0 33 23 c19 12 43 38
54 57 20 34 21 48 21 575 l0 540 -23 38 c-26 41 -68 67 -122 76 -33 6 -35 9
-38 49 l-3 42 49 0 c67 0 75 12 71 109 -5 89 -21 121 -80 156 -32 19 -54 20
-454 22 -231 1 -436 -2 -457 -6z m903 -90 c24 -24 29 -38 29 -75 l0 -46 -500
0 -500 0 0 46 c0 37 5 51 29 75 l29 29 442 0 442 0 29 -29z m-288 -528 c132
-63 223 -187 248 -339 37 -225 -129 -446 -365 -487 -178 -30 -373 70 -455 234
-120 241 -5 519 254 612 38 13 73 17 150 14 88 -2 108 -6 168 -34z"/>
<path d="M893 1186 c-101 -33 -187 -108 -233 -201 -36 -73 -40 -207 -10 -288
47 -125 156 -214 292 -238 57 -10 77 -10 135 5 94 23 167 69 219 139 60 81 77
139 72 246 -3 74 -9 95 -37 149 -67 124 -177 194 -316 199 -49 2 -96 -3 -122
-11z m125 -108 c7 -7 12 -20 12 -29 0 -10 11 -19 30 -23 43 -8 80 -51 80 -93
0 -21 -6 -36 -15 -39 -20 -8 -45 13 -45 37 0 24 -30 39 -80 39 -60 0 -80 -14
-80 -55 0 -43 20 -55 90 -55 90 0 129 -35 130 -116 0 -61 -25 -100 -73 -112
-22 -6 -33 -16 -37 -33 -4 -17 -13 -24 -30 -24 -17 0 -26 7 -30 24 -4 17 -15
27 -37 33 -41 11 -73 52 -73 94 0 29 4 34 23 34 17 0 27 -9 38 -32 13 -31 17
-33 72 -36 35 -2 64 2 73 9 17 14 19 75 2 86 -7 4 -46 10 -86 14 -83 7 -109
24 -120 80 -15 74 17 133 78 145 19 4 30 13 30 23 0 17 18 41 30 41 3 0 11 -5
18 -12z"/>
</g>
</svg>
