<?xml version="1.0" standalone="no"?>
<!DOCTYPE svg PUBLIC "-//W3C//DTD SVG 20010904//EN"
 "http://www.w3.org/TR/2001/REC-SVG-20010904/DTD/svg10.dtd">
<svg version="1.0" xmlns="http://www.w3.org/2000/svg"
 width="200.000000pt" height="200.000000pt" viewBox="0 0 200.000000 200.000000"
 preserveAspectRatio="xMidYMid meet">
<metadata>
Created by potrace 1.16, written by Peter Selinger 2001-2019
</metadata>
<g transform="translate(0.000000,200.000000) scale(0.100000,-0.100000)"
fill="#000000" stroke="none">
<path d="M893 1980 c-114 -27 -228 -122 -285 -237 -32 -66 -33 -71 -33 -195 0
-123 -1 -127 -23 -138 -36 -16 -40 -13 -52 31 -13 47 -50 89 -79 89 -48 0 -91
-99 -91 -211 0 -46 -4 -53 -54 -108 -30 -32 -69 -86 -87 -120 l-34 -61 -58 0
c-100 0 -97 7 -97 -203 0 -129 4 -187 12 -195 7 -7 41 -12 80 -12 56 0 70 -3
75 -18 28 -77 158 -227 245 -283 l48 -31 0 -134 c0 -160 -5 -154 135 -154 132
0 135 2 135 101 0 72 2 80 17 75 109 -32 351 -32 479 0 24 6 24 5 24 -75 0
-69 3 -82 19 -91 25 -13 191 -13 225 0 l26 10 0 132 0 133 61 45 c136 99 230
236 267 389 l18 74 35 -31 34 -30 5 -194 5 -193 25 0 25 0 3 180 c2 146 0 188
-13 222 -18 45 -62 89 -100 99 -19 5 -25 16 -33 62 -34 189 -163 359 -351 462
-67 37 -80 48 -76 65 13 50 16 145 6 200 -29 155 -141 284 -289 334 -64 22
-183 27 -249 11z m265 -84 c43 -20 79 -47 116 -87 71 -76 98 -147 100 -254 1
-70 -3 -88 -31 -146 -17 -37 -47 -84 -67 -106 -70 -78 -216 -133 -314 -118
-127 19 -237 97 -295 209 -29 57 -32 68 -32 161 0 87 3 107 26 156 47 99 128
171 232 205 70 23 191 14 265 -20z m-708 -513 c0 -13 -12 -30 -31 -44 l-32
-22 7 48 c4 26 12 60 18 74 l10 26 14 -30 c7 -16 13 -40 14 -52z m263 -150
c196 -181 508 -139 659 89 l24 37 75 -41 c106 -58 224 -179 272 -278 70 -144
71 -282 2 -426 -41 -84 -137 -192 -224 -249 l-60 -40 -1 -127 0 -128 -75 0
-75 0 0 85 c0 65 -3 87 -14 91 -8 3 -50 -2 -93 -12 -107 -25 -319 -25 -426 0
-43 10 -85 15 -93 12 -11 -4 -14 -26 -14 -91 l0 -85 -75 0 -74 0 -3 127 -3
127 -55 37 c-91 62 -175 154 -219 239 -23 43 -48 81 -57 84 -8 3 -40 6 -70 6
l-54 0 0 50 0 50 54 0 c56 0 81 15 70 43 -6 18 -35 27 -86 27 l-38 0 0 50 0
49 67 3 68 3 31 62 c65 130 157 222 301 300 l77 42 32 -47 c17 -26 52 -66 77
-89z"/>
<path d="M977 1854 c-4 -4 -7 -18 -7 -30 0 -14 -8 -25 -19 -29 -11 -3 -34 -22
-50 -41 -26 -29 -31 -43 -31 -86 0 -77 27 -114 98 -134 31 -8 62 -17 69 -19 6
-2 20 -16 29 -30 22 -33 11 -69 -28 -98 -36 -27 -74 -15 -103 31 -24 38 -58
40 -63 4 -5 -31 21 -69 64 -94 19 -11 34 -28 34 -38 0 -23 26 -44 45 -36 8 3
15 16 15 30 0 17 10 30 35 45 67 39 93 117 60 181 -22 42 -60 67 -121 80 -59
12 -74 29 -74 79 0 35 39 71 77 71 24 0 57 -28 79 -66 10 -15 15 -17 30 -8 11
6 20 17 22 25 4 24 -37 79 -72 96 -25 11 -36 24 -38 42 -3 26 -35 41 -51 25z"/>
<path d="M754 1768 c-74 -88 -96 -220 -55 -328 27 -72 68 -122 94 -118 32 4
32 33 2 73 -74 97 -72 234 5 332 24 31 26 59 4 67 -22 8 -19 10 -50 -26z"/>
<path d="M1189 1784 c-8 -10 -10 -20 -3 -28 78 -106 97 -177 71 -267 -9 -31
-30 -73 -47 -94 -36 -45 -36 -70 0 -70 33 0 85 70 106 142 29 101 -1 233 -69
306 -30 31 -39 33 -58 11z"/>
<path d="M408 1163 c-35 -38 -41 -65 -24 -106 17 -43 42 -57 94 -57 33 0 45 6
67 32 23 27 26 39 22 72 -11 82 -105 116 -159 59z m92 -54 c14 -26 -4 -51 -34
-47 -21 3 -32 28 -22 54 8 21 44 17 56 -7z"/>
<path d="M742 1098 c-21 -21 -13 -38 36 -69 125 -79 291 -82 434 -7 62 33 77
54 54 76 -13 14 -24 11 -92 -24 -74 -37 -81 -39 -173 -39 -90 0 -101 2 -166
35 -39 19 -72 36 -75 38 -3 1 -11 -3 -18 -10z"/>
</g>
</svg>
