<?xml version="1.0" standalone="no"?>
<!DOCTYPE svg PUBLIC "-//W3C//DTD SVG 20010904//EN"
 "http://www.w3.org/TR/2001/REC-SVG-20010904/DTD/svg10.dtd">
<svg version="1.0" xmlns="http://www.w3.org/2000/svg"
 width="200.000000pt" height="200.000000pt" viewBox="0 0 200.000000 200.000000"
 preserveAspectRatio="xMidYMid meet">
<metadata>
Created by potrace 1.16, written by Peter Selinger 2001-2019
</metadata>
<g transform="translate(0.000000,200.000000) scale(0.100000,-0.100000)"
fill="#000000" stroke="none">
<path d="M837 1886 c-95 -35 -172 -119 -197 -216 -14 -53 -7 -140 16 -195 10
-24 12 -41 6 -43 -6 -2 -46 -20 -89 -41 l-79 -38 -43 38 c-44 39 -104 63 -144
57 -15 -2 -25 -15 -35 -48 -16 -56 -18 -186 -3 -232 10 -31 9 -40 -13 -78 -14
-24 -33 -72 -42 -107 -17 -61 -18 -63 -50 -63 -21 0 -42 -8 -54 -20 -19 -19
-20 -33 -20 -210 0 -237 -4 -230 131 -230 l92 0 72 -69 c40 -37 86 -76 104
-87 30 -18 31 -20 31 -94 0 -112 3 -115 140 -115 105 0 113 1 131 24 10 13 19
32 19 42 0 18 6 19 93 13 65 -4 119 -2 185 10 50 9 97 16 102 16 6 0 10 -17
10 -39 0 -59 16 -66 141 -66 145 0 143 -2 147 158 l4 123 41 41 c85 84 152
228 163 352 6 61 9 68 26 63 16 -4 18 -10 12 -36 -14 -62 0 -96 41 -96 36 0
58 33 53 80 -2 22 0 40 4 40 9 0 35 -27 40 -42 5 -14 38 -3 38 12 0 7 -13 25
-30 41 -23 24 -37 29 -67 28 -61 -4 -112 18 -118 49 -15 73 -48 163 -82 221
-56 94 -174 200 -285 256 -49 25 -97 45 -105 45 -8 0 -12 6 -9 13 44 104 44
202 2 286 -36 69 -67 103 -128 136 -43 24 -67 29 -133 32 -52 2 -93 -2 -118
-11z m219 -50 c121 -56 182 -201 138 -328 -50 -149 -231 -223 -372 -152 -159
79 -200 279 -85 414 51 59 121 90 203 90 47 0 79 -7 116 -24z m122 -623 c3
-10 -48 -13 -232 -13 -216 0 -249 3 -229 24 4 3 108 5 232 4 169 -2 225 -6
229 -15z m-654 -169 c36 -35 3 -127 -39 -110 -20 7 -37 53 -29 80 14 47 40 58
68 30z m1266 -280 c0 -14 -5 -24 -11 -22 -6 2 -10 7 -10 11 1 4 1 14 1 22 0 8
5 15 10 15 6 0 10 -12 10 -26z"/>
<path d="M920 1770 c0 -26 -5 -31 -41 -40 -52 -14 -74 -57 -55 -105 17 -40 49
-55 123 -55 52 0 64 -3 73 -20 8 -15 6 -24 -10 -40 -17 -17 -33 -20 -101 -20
-71 0 -80 -2 -77 -17 2 -13 15 -19 45 -21 37 -3 42 -6 45 -30 4 -35 32 -36 36
-1 2 20 11 28 40 35 80 20 87 124 11 151 -19 7 -57 12 -86 12 -62 1 -83 23
-57 59 13 20 24 22 100 22 65 0 84 3 84 14 0 17 -22 26 -61 26 -26 0 -29 4
-29 30 0 23 -4 30 -20 30 -15 0 -20 -7 -20 -30z"/>
</g>
</svg>
