<?xml version="1.0" standalone="no"?>
<!DOCTYPE svg PUBLIC "-//W3C//DTD SVG 20010904//EN"
 "http://www.w3.org/TR/2001/REC-SVG-20010904/DTD/svg10.dtd">
<svg version="1.0" xmlns="http://www.w3.org/2000/svg"
 width="200.000000pt" height="200.000000pt" viewBox="0 0 200.000000 200.000000"
 preserveAspectRatio="xMidYMid meet">
<metadata>
Created by potrace 1.16, written by Peter Selinger 2001-2019
</metadata>
<g transform="translate(0.000000,200.000000) scale(0.100000,-0.100000)"
fill="#000000" stroke="none">
<path d="M210 1909 c-33 -13 -68 -47 -88 -84 -15 -27 -17 -94 -20 -629 -3
-626 0 -680 40 -731 43 -55 82 -65 254 -65 l156 0 65 -60 c35 -33 68 -60 73
-60 6 0 10 -43 10 -100 l0 -100 110 0 110 0 0 54 0 54 123 4 c67 3 130 9 140
13 15 6 17 0 17 -59 l0 -66 110 0 110 0 0 121 0 121 32 37 32 36 146 5 c140 5
148 6 189 33 79 53 76 21 76 732 0 704 4 664 -72 722 l-36 28 -776 2 c-502 1
-785 -2 -801 -8z m553 -176 c4 -3 2 -12 -4 -20 -9 -10 -63 -13 -250 -13 -229
0 -260 4 -244 30 7 11 487 14 498 3z m562 -13 c0 -19 -90 -27 -111 -9 -24 20
-4 30 54 27 43 -2 57 -7 57 -18z m203 3 c-3 -15 -14 -18 -58 -18 -44 0 -55 3
-58 18 -3 15 5 17 58 17 53 0 61 -2 58 -17z m207 -3 c0 -11 -13 -16 -50 -18
-54 -2 -82 9 -70 27 11 18 120 10 120 -9z m123 -703 c-3 -536 -1 -514 -71
-557 -27 -17 -51 -20 -149 -20 -65 0 -118 2 -118 4 0 2 11 28 24 57 14 30 28
75 31 102 7 46 9 48 50 58 24 6 58 24 76 39 28 23 32 31 21 41 -10 11 -16 11
-30 1 -22 -16 -103 -55 -106 -50 -1 1 -7 30 -14 63 -15 77 -52 151 -105 210
-48 56 -162 134 -225 154 -35 12 -42 19 -42 40 -1 37 -33 104 -63 127 -13 11
-44 26 -67 34 -49 16 -113 4 -163 -32 -33 -23 -66 -89 -67 -130 0 -22 -7 -29
-37 -38 -21 -7 -55 -22 -75 -33 l-37 -20 -31 26 c-32 28 -103 52 -120 42 -6
-3 -10 -55 -10 -115 0 -96 -3 -114 -25 -158 -14 -28 -28 -64 -31 -81 -6 -28
-10 -31 -44 -31 -72 0 -70 4 -70 -161 l0 -149 -57 0 c-65 0 -111 22 -140 67
-17 25 -18 64 -21 510 l-3 483 861 0 861 0 -3 -483z m-762 248 c87 -57 83
-192 -8 -242 l-33 -18 73 -3 c63 -2 73 -5 70 -20 -3 -15 -21 -17 -178 -17
-157 0 -175 2 -178 17 -3 15 7 18 70 20 l73 3 -33 18 c-99 54 -94 197 8 250
40 21 97 18 136 -8z m-428 -502 c-2 -17 -9 -28 -18 -28 -9 0 -16 11 -18 28 -3
22 1 27 18 27 17 0 21 -5 18 -27z m712 -176 c0 -22 -55 -100 -95 -136 -51 -44
-107 -69 -201 -87 -78 -14 -94 -13 -94 11 0 15 14 20 85 30 115 16 222 84 255
164 12 31 50 44 50 18z"/>
</g>
</svg>
