<?xml version="1.0" standalone="no"?>
<!DOCTYPE svg PUBLIC "-//W3C//DTD SVG 20010904//EN"
 "http://www.w3.org/TR/2001/REC-SVG-20010904/DTD/svg10.dtd">
<svg version="1.0" xmlns="http://www.w3.org/2000/svg"
 width="200.000000pt" height="200.000000pt" viewBox="0 0 200.000000 200.000000"
 preserveAspectRatio="xMidYMid meet">
<metadata>
Created by potrace 1.16, written by Peter Selinger 2001-2019
</metadata>
<g transform="translate(0.000000,200.000000) scale(0.100000,-0.100000)"
fill="#000000" stroke="none">
<path d="M863 1871 c-120 -41 -202 -151 -205 -276 l-2 -55 -240 0 c-133 0
-247 -4 -254 -8 -10 -7 -12 -156 -10 -713 l3 -704 845 0 845 0 3 704 c2 557 0
706 -10 713 -7 4 -135 8 -284 8 l-271 0 -5 63 c-17 204 -219 336 -415 268z
m198 -36 c104 -36 169 -124 177 -239 6 -90 -20 -157 -83 -215 -59 -54 -107
-74 -186 -74 -156 -2 -273 115 -272 273 0 77 17 122 70 180 73 82 188 111 294
75z m-297 -494 c9 -10 45 -31 79 -47 108 -49 225 -34 323 41 32 25 36 25 228
25 l196 0 0 -84 0 -85 -32 -3 -33 -3 -3 -359 c-2 -382 -3 -376 46 -376 21 0
22 -4 22 -85 l0 -85 -620 0 -620 0 0 540 0 540 198 0 c182 0 200 -2 216 -19z"/>
<path d="M957 1784 c-4 -4 -7 -20 -7 -36 0 -25 -4 -28 -30 -28 -36 0 -80 -39
-80 -70 0 -29 26 -76 45 -84 9 -3 45 -6 80 -6 44 0 68 -5 79 -16 19 -18 19
-20 6 -45 -9 -16 -22 -19 -86 -19 -41 0 -85 -5 -96 -11 -21 -11 -21 -12 -3
-25 10 -8 33 -14 51 -14 28 0 33 -4 36 -27 4 -37 32 -37 36 -1 3 23 10 29 43
38 44 12 70 52 61 95 -8 43 -37 59 -119 65 -83 6 -109 23 -87 58 9 13 30 18
100 22 74 4 89 8 92 23 3 14 -4 17 -42 17 -43 0 -45 1 -48 32 -3 31 -17 45
-31 32z"/>
<path d="M868 1161 c-73 -24 -117 -52 -163 -103 -110 -121 -122 -299 -29 -435
39 -56 74 -87 144 -124 39 -20 59 -24 145 -24 87 0 107 3 155 26 175 84 253
303 169 477 -73 151 -265 235 -421 183z m82 -44 c0 -29 7 -37 26 -30 8 3 14
16 14 30 0 24 2 25 36 18 62 -11 85 -25 74 -46 -6 -10 -10 -22 -10 -28 0 -17
31 -13 45 6 11 15 14 15 37 -2 13 -11 32 -29 42 -42 17 -23 17 -24 -6 -43 -17
-14 -20 -21 -12 -30 9 -9 17 -9 34 0 28 15 30 12 45 -54 l13 -55 -27 -3 c-34
-4 -34 -31 0 -38 l26 -5 -14 -54 c-7 -30 -15 -57 -17 -59 -2 -2 -13 2 -25 10
-17 10 -23 10 -33 0 -11 -11 -8 -17 12 -32 l24 -18 -43 -43 -43 -43 -18 24
c-14 19 -22 22 -30 14 -9 -9 -9 -17 0 -33 10 -19 7 -23 -24 -36 -53 -22 -84
-20 -88 8 -2 12 -10 22 -18 22 -8 0 -16 -10 -18 -22 -4 -26 -29 -30 -83 -12
-44 15 -43 14 -29 39 9 17 9 25 0 34 -9 8 -16 5 -31 -13 l-20 -25 -42 43 c-39
39 -41 43 -24 55 19 14 23 46 6 46 -6 0 -19 -5 -29 -10 -17 -9 -21 -4 -35 42
-20 67 -20 66 13 70 16 2 27 9 27 18 0 9 -11 16 -27 18 -33 4 -33 3 -13 70 17
57 17 57 46 42 27 -15 40 17 14 36 -17 12 -17 15 -1 38 9 14 28 33 42 43 25
16 27 16 39 0 7 -9 17 -17 23 -17 18 0 24 20 11 36 -15 19 -5 29 41 42 58 17
70 14 70 -11z"/>
<path d="M885 1002 c-79 -37 -122 -116 -112 -204 13 -102 91 -171 196 -171 66
0 106 18 149 67 108 123 27 313 -136 323 -41 3 -69 -2 -97 -15z"/>
</g>
</svg>
