<?xml version="1.0" standalone="no"?>
<!DOCTYPE svg PUBLIC "-//W3C//DTD SVG 20010904//EN"
 "http://www.w3.org/TR/2001/REC-SVG-20010904/DTD/svg10.dtd">
<svg version="1.0" xmlns="http://www.w3.org/2000/svg"
 width="200.000000pt" height="200.000000pt" viewBox="0 0 200.000000 200.000000"
 preserveAspectRatio="xMidYMid meet">
<metadata>
Created by potrace 1.16, written by Peter Selinger 2001-2019
</metadata>
<g transform="translate(0.000000,200.000000) scale(0.100000,-0.100000)"
fill="#000000" stroke="none">
<path d="M497 1700 c-4 -15 2 -24 21 -34 33 -17 71 -59 101 -108 21 -35 23
-36 56 -25 19 6 35 14 35 18 0 10 -129 128 -164 150 -39 24 -42 24 -49 -1z"/>
<path d="M493 1549 c4 -45 9 -84 11 -86 3 -4 83 32 94 42 12 10 -81 125 -101
125 -6 0 -8 -28 -4 -81z"/>
<path d="M787 1520 c-196 -33 -400 -176 -473 -331 l-28 -59 -71 0 c-42 0 -76
-5 -83 -12 -13 -13 -17 -163 -6 -192 5 -12 20 -16 63 -16 31 0 61 -4 68 -8 7
-4 25 -40 42 -80 69 -170 224 -298 430 -354 118 -33 306 -30 426 6 218 65 378
209 429 385 20 69 21 193 1 257 -8 27 -15 50 -15 50 0 1 15 5 34 8 18 4 54 24
79 46 25 23 55 40 69 40 54 0 135 89 126 138 -5 28 -31 19 -40 -15 -9 -36 -60
-83 -89 -83 -16 0 -19 7 -19 50 0 61 -31 100 -79 100 -37 0 -54 -26 -53 -84 1
-34 7 -47 35 -73 32 -29 34 -33 19 -46 -10 -8 -35 -24 -57 -35 l-39 -20 -27
43 c-89 140 -253 246 -437 281 -79 15 -226 17 -305 4z m285 -61 c80 -17 206
-79 276 -138 69 -57 158 -181 149 -205 -10 -24 -30 -10 -62 45 -69 117 -234
230 -380 260 -66 13 -81 22 -71 38 9 14 22 14 88 0z m606 -61 c7 -7 12 -32 12
-55 0 -40 -2 -43 -19 -34 -22 12 -43 65 -35 86 7 18 26 19 42 3z m-471 -87
c71 -35 126 -93 162 -170 22 -47 26 -70 26 -141 0 -76 -4 -93 -33 -152 -45
-93 -113 -152 -204 -179 -168 -51 -329 24 -406 189 -23 48 -27 71 -27 147 0
79 4 97 28 145 91 179 284 247 454 161z m-599 -35 c14 -13 26 -40 29 -63 5
-35 1 -45 -25 -74 -59 -66 -157 -33 -169 57 -12 92 99 146 165 80z m-18 -259
c38 -18 70 -62 70 -95 0 -30 -46 -79 -86 -92 -20 -7 -67 -10 -105 -8 -74 4
-112 23 -138 70 -27 48 11 112 81 136 45 15 136 9 178 -11z"/>
<path d="M997 1300 c-88 -22 -163 -83 -208 -170 -20 -37 -24 -60 -23 -130 0
-105 27 -163 104 -233 81 -73 173 -93 280 -61 78 23 169 116 194 198 58 186
-68 380 -259 400 -27 3 -67 1 -88 -4z m80 -59 c3 -11 17 -21 35 -25 41 -8 88
-60 88 -97 0 -37 -27 -39 -36 -4 -7 27 -48 65 -70 65 -11 0 -14 -19 -14 -78
l0 -78 35 -12 c85 -31 115 -134 56 -193 -16 -16 -43 -32 -59 -35 -18 -4 -32
-14 -35 -25 -3 -10 -10 -19 -17 -19 -7 0 -14 9 -17 19 -3 11 -17 21 -35 25
-41 8 -88 60 -88 98 0 23 4 29 18 26 9 -2 18 -13 20 -25 4 -24 46 -63 68 -63
11 0 14 19 14 78 l0 78 -35 12 c-84 31 -113 130 -56 191 16 17 43 34 59 37 18
4 32 14 35 25 3 10 10 19 17 19 7 0 14 -9 17 -19z"/>
<path d="M986 1159 c-26 -20 -36 -70 -18 -95 9 -13 54 -44 64 -44 5 0 8 36 8
80 0 88 -7 96 -54 59z"/>
<path d="M1080 899 c0 -88 8 -97 56 -56 17 15 27 33 27 51 0 30 -34 71 -64 79
-18 5 -19 -1 -19 -74z"/>
<path d="M566 1236 c8 -34 -4 -66 -28 -75 -18 -6 -19 -9 -5 -14 21 -8 67 29
67 54 0 25 -18 59 -31 59 -5 0 -7 -11 -3 -24z"/>
<path d="M497 1234 c-14 -15 -6 -34 14 -34 14 0 19 5 17 17 -3 18 -20 27 -31
17z"/>
<path d="M415 986 c-41 -18 -58 -41 -52 -68 10 -37 57 -58 127 -58 70 0 117
21 127 58 15 61 -115 106 -202 68z"/>
<path d="M1275 475 c-27 -13 -78 -31 -112 -41 -48 -13 -63 -21 -63 -35 0 -16
8 -19 53 -19 28 0 82 -11 120 -24 l67 -23 0 84 c0 46 -3 83 -7 82 -5 0 -30
-11 -58 -24z"/>
<path d="M560 435 l0 -55 53 0 c28 0 83 -11 120 -24 l68 -23 -3 40 -3 39 -70
18 c-38 10 -91 27 -117 39 l-48 20 0 -54z"/>
<path d="M560 317 c0 -14 5 -29 10 -32 6 -4 52 -1 103 6 90 12 91 13 60 26
-18 7 -64 16 -103 19 l-70 7 0 -26z"/>
<path d="M1100 317 c0 -14 5 -29 10 -32 6 -4 52 -1 103 6 90 12 91 13 60 26
-18 7 -64 16 -103 19 l-70 7 0 -26z"/>
</g>
</svg>
