<?xml version="1.0" standalone="no"?>
<!DOCTYPE svg PUBLIC "-//W3C//DTD SVG 20010904//EN"
 "http://www.w3.org/TR/2001/REC-SVG-20010904/DTD/svg10.dtd">
<svg version="1.0" xmlns="http://www.w3.org/2000/svg"
 width="200.000000pt" height="200.000000pt" viewBox="0 0 200.000000 200.000000"
 preserveAspectRatio="xMidYMid meet">
<metadata>
Created by potrace 1.16, written by Peter Selinger 2001-2019
</metadata>
<g transform="translate(0.000000,200.000000) scale(0.100000,-0.100000)"
fill="#000000" stroke="none">
<path d="M499 1704 c-11 -13 -14 -52 -13 -157 l2 -141 -63 -60 c-34 -34 -76
-86 -94 -117 l-31 -56 -67 -6 c-58 -4 -71 -9 -91 -33 -22 -25 -24 -34 -20
-125 4 -120 11 -131 97 -137 l59 -4 18 -47 c36 -96 115 -192 213 -256 l41 -28
0 -108 c0 -98 2 -110 22 -129 12 -11 31 -20 42 -20 51 1 219 29 229 39 7 7 14
34 17 62 l5 50 108 3 107 3 0 -58 c0 -47 4 -62 22 -79 25 -23 30 -23 135 -10
156 21 153 17 153 158 l0 107 58 45 c160 127 231 312 188 494 -13 56 -14 71
-4 78 7 4 16 8 19 8 3 0 18 13 35 28 16 16 44 32 63 35 69 14 131 76 131 131
0 30 -35 18 -45 -16 -6 -19 -24 -42 -44 -55 -44 -30 -59 -29 -54 1 7 36 -15
94 -43 112 -32 21 -72 11 -84 -22 -18 -46 -11 -75 25 -111 39 -39 38 -46 -8
-69 -23 -12 -32 -13 -35 -5 -2 7 -26 39 -52 73 -86 107 -205 183 -355 230 -59
18 -97 21 -237 23 l-166 1 -68 63 c-116 109 -184 142 -215 105z m94 -53 c49
-34 143 -128 136 -136 -3 -2 -19 -8 -36 -11 -27 -5 -33 -2 -47 24 -8 16 -38
50 -66 75 -46 42 -64 77 -39 77 6 0 29 -13 52 -29z m5 -124 l33 -46 -49 -25
-49 -25 -7 46 c-3 25 -6 64 -6 86 0 39 0 39 23 25 12 -9 37 -36 55 -61z m551
-47 c163 -39 325 -149 398 -271 167 -278 -16 -611 -389 -711 -118 -31 -290
-31 -408 1 -126 34 -212 83 -301 171 -70 70 -93 105 -133 203 -15 37 -15 37
-73 37 -33 0 -64 5 -71 12 -13 13 -17 153 -6 182 5 12 21 16 73 16 36 0 71 4
77 8 6 4 21 30 35 57 13 28 55 82 94 121 80 81 189 141 315 174 105 27 277 27
389 0z m535 -112 c20 -29 21 -78 2 -78 -30 0 -60 73 -39 93 11 12 21 8 37 -15z
m-336 -993 c-2 -2 -28 5 -58 15 -30 11 -81 19 -112 20 -50 0 -58 3 -58 19 0
14 15 22 63 35 34 10 85 28 112 40 l50 22 3 -74 c2 -41 2 -76 0 -77z m-702
118 c22 -9 68 -24 104 -33 64 -17 65 -18 68 -55 3 -33 1 -37 -15 -30 -54 22
-112 35 -160 35 l-53 0 0 50 c0 28 4 50 9 50 5 0 26 -7 47 -17z m104 -137 l35
-13 -87 -12 c-93 -14 -108 -11 -108 20 0 17 7 19 63 18 34 0 78 -6 97 -13z
m525 0 l40 -13 -60 -8 c-109 -15 -130 -13 -133 13 -3 21 0 22 55 21 32 0 76
-6 98 -13z"/>
<path d="M1007 1443 c-18 -17 -3 -31 40 -38 156 -23 326 -131 398 -254 29 -49
47 -62 60 -41 11 18 -52 105 -123 172 -77 72 -167 120 -280 149 -84 21 -86 22
-95 12z"/>
<path d="M990 1317 c-63 -18 -111 -49 -164 -108 -59 -66 -79 -127 -74 -227 7
-129 72 -227 186 -280 48 -23 71 -27 142 -27 73 0 93 4 141 28 66 32 132 99
162 165 31 66 31 198 0 264 -29 64 -92 129 -156 162 -65 32 -168 43 -237 23z
m206 -51 c105 -49 164 -136 172 -252 4 -61 1 -80 -20 -126 -48 -103 -136 -167
-243 -176 -127 -10 -237 52 -289 163 -37 76 -37 180 0 253 31 61 99 125 157
146 67 23 163 20 223 -8z"/>
<path d="M1060 1226 c0 -7 -14 -16 -31 -20 -49 -9 -89 -57 -89 -104 0 -49 37
-98 83 -110 l32 -8 3 -77 c3 -70 1 -77 -16 -77 -20 0 -48 26 -66 61 -15 31
-30 29 -34 -4 -4 -34 43 -84 87 -93 17 -4 31 -13 31 -20 0 -18 29 -18 36 0 3
8 19 18 34 21 38 8 90 68 90 103 0 51 -39 96 -102 116 -15 4 -18 18 -18 81 0
46 4 75 11 75 24 0 52 -24 65 -56 16 -38 37 -41 42 -5 4 27 -66 101 -96 101
-11 0 -22 7 -26 15 -7 19 -36 20 -36 1z m0 -131 c0 -41 -2 -75 -5 -75 -16 0
-63 31 -69 45 -13 34 -5 64 20 84 47 37 54 29 54 -54z m89 -141 c38 -32 40
-66 6 -99 -44 -45 -55 -34 -55 50 0 41 4 75 9 75 5 0 23 -12 40 -26z"/>
<path d="M507 1266 c-33 -31 -43 -68 -27 -107 16 -39 46 -59 88 -59 69 0 114
59 92 124 -21 66 -103 88 -153 42z m112 -48 c13 -23 13 -29 -2 -52 -12 -17
-26 -26 -44 -26 l-26 0 27 21 c28 22 34 57 14 78 -11 11 -10 13 2 9 8 -3 21
-16 29 -30z m-59 -13 c0 -8 -9 -15 -20 -15 -11 0 -20 7 -20 15 0 8 9 15 20 15
11 0 20 -7 20 -15z"/>
<path d="M446 1030 c-34 -11 -75 -47 -86 -75 -11 -30 8 -72 43 -98 27 -19 45
-22 117 -22 73 0 90 3 118 24 18 13 38 34 43 48 12 33 -12 83 -52 107 -36 21
-139 30 -183 16z m149 -44 c36 -15 58 -46 50 -68 -11 -29 -62 -48 -129 -48
-58 0 -69 3 -97 28 -28 25 -30 31 -20 51 25 46 127 66 196 37z"/>
</g>
</svg>
