<?xml version="1.0" standalone="no"?>
<!DOCTYPE svg PUBLIC "-//W3C//DTD SVG 20010904//EN"
 "http://www.w3.org/TR/2001/REC-SVG-20010904/DTD/svg10.dtd">
<svg version="1.0" xmlns="http://www.w3.org/2000/svg"
 width="200.000000pt" height="200.000000pt" viewBox="0 0 200.000000 200.000000"
 preserveAspectRatio="xMidYMid meet">
<metadata>
Created by potrace 1.16, written by Peter Selinger 2001-2019
</metadata>
<g transform="translate(0.000000,200.000000) scale(0.100000,-0.100000)"
fill="#000000" stroke="none">
<path d="M404 1740 c-31 -12 -54 -49 -54 -85 0 -17 18 -67 39 -112 38 -78 39
-82 23 -104 -9 -13 -35 -57 -57 -98 -38 -71 -42 -75 -90 -89 -112 -32 -139
-75 -139 -218 0 -80 4 -108 20 -140 22 -43 88 -84 136 -84 24 0 32 -9 62 -68
38 -76 113 -179 156 -216 29 -24 30 -28 30 -110 0 -141 24 -166 163 -166 95 0
131 17 144 71 l8 29 135 4 c74 2 145 7 158 11 20 7 22 4 22 -28 0 -27 7 -41
31 -61 28 -23 39 -26 114 -26 148 0 165 21 165 195 l0 117 34 40 c93 109 147
270 148 441 0 59 3 107 7 107 17 -1 39 -29 51 -65 37 -115 52 -145 71 -145 11
0 22 7 26 16 5 13 -12 83 -34 140 -2 7 12 17 31 24 45 15 66 44 66 93 0 94
-132 120 -177 34 l-15 -29 -21 20 c-12 12 -47 63 -77 114 -98 165 -229 276
-395 335 -72 25 -93 28 -210 27 -96 0 -146 -5 -192 -18 l-62 -18 -31 22 c-17
12 -52 29 -77 36 -51 15 -176 18 -209 4z m204 -66 c20 -8 49 -27 64 -41 l27
-26 68 23 c91 30 233 37 331 16 116 -24 215 -79 302 -166 91 -91 141 -174 170
-283 19 -70 22 -99 17 -192 -7 -151 -49 -264 -136 -369 l-41 -48 0 -120 c0
-66 -5 -128 -10 -139 -9 -16 -22 -19 -83 -19 -44 0 -78 5 -85 12 -7 7 -12 30
-12 53 0 68 -7 71 -95 50 -63 -14 -102 -17 -205 -12 -140 6 -140 6 -140 -52 0
-42 -17 -51 -97 -51 -89 0 -93 5 -93 128 l0 89 -68 69 c-49 51 -79 93 -110
156 -46 93 -65 112 -131 123 -27 4 -53 17 -68 33 -21 23 -23 34 -23 124 0 91
2 101 24 123 13 13 41 27 62 31 68 12 89 29 123 100 17 36 45 86 61 110 17 23
30 49 30 57 0 8 -18 54 -40 102 -42 91 -48 120 -27 128 28 12 150 6 185 -9z
m1190 -443 c25 -16 9 -46 -26 -49 -26 -3 -32 0 -32 15 0 35 30 52 58 34z"/>
<path d="M495 1375 c-36 -35 -34 -88 4 -126 65 -65 171 -7 154 85 -13 64 -110
89 -158 41z m93 -63 c4 -28 -24 -40 -45 -19 -21 21 -9 49 19 45 15 -2 24 -11
26 -26z"/>
<path d="M870 1361 c-140 -43 -241 -176 -241 -318 -1 -119 30 -194 111 -266
72 -65 143 -90 245 -85 97 4 159 31 225 98 74 73 95 127 95 240 0 85 -3 101
-30 153 -36 73 -109 140 -181 166 -56 22 -172 27 -224 12z m226 -79 c86 -44
154 -156 154 -251 0 -154 -130 -281 -286 -281 -61 0 -145 34 -189 77 -143 138
-102 373 80 460 42 20 61 23 125 20 51 -2 88 -11 116 -25z"/>
<path d="M947 1244 c-4 -4 -7 -18 -7 -31 0 -16 -6 -23 -20 -23 -41 0 -86 -27
-99 -59 -26 -61 19 -131 84 -131 32 0 35 -2 35 -30 0 -30 -1 -30 -54 -30 -60
0 -88 -19 -69 -48 7 -12 27 -18 67 -20 52 -3 56 -5 56 -28 0 -13 7 -27 15 -30
19 -8 45 13 45 36 0 13 11 19 39 24 111 17 108 186 -4 186 -32 0 -35 2 -35 30
0 29 1 30 48 30 58 0 75 10 70 41 -3 22 -9 24 -60 27 -53 3 -57 5 -60 30 -3
26 -34 42 -51 26z m-7 -155 c0 -27 -3 -30 -27 -27 -22 2 -29 9 -31 31 -3 24 0
27 27 27 28 0 31 -3 31 -31z m115 -119 c0 -20 -6 -26 -27 -28 -25 -3 -28 0
-28 28 0 28 3 31 28 28 21 -2 27 -8 27 -28z"/>
</g>
</svg>
