<?xml version="1.0" standalone="no"?>
<!DOCTYPE svg PUBLIC "-//W3C//DTD SVG 20010904//EN"
 "http://www.w3.org/TR/2001/REC-SVG-20010904/DTD/svg10.dtd">
<svg version="1.0" xmlns="http://www.w3.org/2000/svg"
 width="200.000000pt" height="200.000000pt" viewBox="0 0 200.000000 200.000000"
 preserveAspectRatio="xMidYMid meet">
<metadata>
Created by potrace 1.16, written by Peter Selinger 2001-2019
</metadata>
<g transform="translate(0.000000,200.000000) scale(0.100000,-0.100000)"
fill="#000000" stroke="none">
<path d="M404 1740 c-31 -12 -54 -49 -54 -85 0 -17 17 -67 39 -111 l39 -81
-35 -54 c-19 -30 -43 -73 -54 -97 -10 -23 -24 -44 -31 -47 -7 -2 -33 -9 -58
-15 -28 -8 -58 -26 -81 -49 -33 -33 -38 -44 -44 -105 -9 -82 6 -185 32 -220
21 -29 61 -51 118 -66 37 -10 43 -16 78 -89 25 -51 61 -103 107 -153 l70 -76
0 -92 c0 -89 1 -93 30 -122 30 -30 30 -30 131 -26 96 3 102 4 125 31 13 15 24
38 24 50 0 21 3 22 122 22 68 0 138 3 156 7 25 6 32 4 32 -8 0 -30 31 -81 56
-93 14 -6 63 -11 109 -11 79 0 87 2 117 29 l33 29 4 128 3 128 43 61 c99 139
130 236 130 406 l0 127 25 -13 c20 -10 32 -33 55 -105 31 -96 46 -114 72 -87
14 14 13 23 -10 91 -25 74 -25 76 -6 76 28 0 75 26 83 45 10 27 6 79 -7 96
-43 56 -131 48 -164 -14 l-15 -29 -21 20 c-12 12 -47 62 -77 113 -145 243
-361 373 -616 370 -78 0 -176 -17 -236 -40 -24 -9 -34 -7 -64 14 -69 47 -200
69 -260 45z m148 -60 c20 -6 60 -26 88 -45 l51 -34 42 18 c100 43 271 54 382
26 222 -58 398 -235 455 -461 49 -189 2 -403 -119 -548 l-41 -48 0 -120 c0
-66 -5 -128 -10 -139 -9 -16 -22 -19 -83 -19 -44 0 -78 5 -85 12 -7 7 -12 30
-12 53 0 68 -7 71 -95 50 -63 -14 -102 -17 -205 -12 -140 6 -140 6 -140 -52 0
-41 -17 -51 -91 -51 -93 0 -99 7 -99 124 l0 93 -68 69 c-49 51 -79 93 -110
156 -46 93 -65 112 -131 123 -27 4 -53 17 -68 33 -21 23 -23 34 -23 123 0 118
15 144 93 158 59 11 81 30 119 106 17 33 44 79 59 102 16 23 29 49 29 57 0 9
-18 56 -40 105 -43 94 -47 116 -27 124 21 9 91 7 129 -3z m1253 -470 c0 -20
-6 -26 -28 -28 -32 -4 -46 20 -26 44 19 24 54 14 54 -16z"/>
<path d="M499 1381 c-21 -22 -29 -39 -29 -66 0 -45 45 -95 85 -95 41 0 82 26
94 62 33 95 -79 170 -150 99z"/>
<path d="M880 1365 c-111 -31 -201 -115 -237 -221 -23 -67 -15 -195 17 -259
51 -105 158 -179 277 -191 47 -5 77 -2 133 15 62 19 81 31 135 84 82 81 109
148 103 257 -6 93 -31 153 -92 218 -84 89 -220 129 -336 97z m118 -147 c3 -25
7 -27 60 -30 53 -3 57 -5 57 -28 0 -23 -4 -25 -57 -28 l-58 -3 0 -34 c0 -33 2
-35 35 -35 51 0 85 -36 85 -90 0 -52 -36 -90 -86 -90 -28 0 -33 -4 -36 -27 -2
-22 -8 -28 -28 -28 -20 0 -26 6 -28 28 -3 26 -5 27 -62 27 -44 0 -59 4 -64 16
-11 29 13 44 70 44 53 0 54 1 54 29 0 25 -4 29 -38 35 -124 19 -112 186 14
186 18 0 24 5 24 23 0 30 9 39 35 35 13 -2 21 -12 23 -30z"/>
<path d="M886 1115 c-19 -19 -11 -41 16 -49 30 -7 38 0 38 35 0 22 -5 29 -19
29 -11 0 -26 -7 -35 -15z"/>
<path d="M1000 970 c0 -28 3 -31 28 -28 21 2 27 8 27 28 0 20 -6 26 -27 28
-25 3 -28 0 -28 -28z"/>
</g>
</svg>
