<?xml version="1.0" standalone="no"?>
<!DOCTYPE svg PUBLIC "-//W3C//DTD SVG 20010904//EN"
 "http://www.w3.org/TR/2001/REC-SVG-20010904/DTD/svg10.dtd">
<svg version="1.0" xmlns="http://www.w3.org/2000/svg"
 width="200.000000pt" height="200.000000pt" viewBox="0 0 200.000000 200.000000"
 preserveAspectRatio="xMidYMid meet">
<metadata>
Created by potrace 1.16, written by Peter Selinger 2001-2019
</metadata>
<g transform="translate(0.000000,200.000000) scale(0.100000,-0.100000)"
fill="#000000" stroke="none">
<path d="M913 1921 c-100 -26 -215 -110 -273 -201 -53 -83 -70 -154 -70 -298
l0 -127 -24 30 c-13 17 -28 26 -33 22 -10 -11 50 -121 69 -125 15 -3 81 105
72 119 -9 15 -19 10 -36 -18 -17 -27 -17 -25 -18 93 0 94 5 137 20 185 37 120
118 211 236 266 54 25 70 28 174 28 109 0 119 -2 182 -32 74 -35 150 -103 191
-173 29 -50 57 -147 57 -197 0 -23 5 -33 15 -33 19 0 20 56 1 125 -35 132
-130 247 -251 305 -64 31 -80 34 -175 36 -58 2 -119 -1 -137 -5z"/>
<path d="M930 1811 c-168 -55 -275 -217 -251 -382 5 -35 16 -80 25 -100 61
-143 236 -239 384 -209 287 59 395 395 191 599 -70 70 -128 94 -234 98 -49 1
-101 -1 -115 -6z m240 -49 c109 -57 171 -151 178 -274 6 -97 -16 -162 -77
-230 -62 -69 -127 -100 -222 -106 -112 -7 -168 15 -244 92 -71 72 -95 129 -95
227 0 88 22 148 77 209 76 85 137 110 253 107 67 -2 95 -7 130 -25z"/>
<path d="M1000 1697 c0 -15 -9 -26 -28 -35 -36 -15 -52 -49 -52 -107 0 -35 6
-49 31 -74 17 -17 35 -31 41 -31 6 0 26 -12 45 -26 26 -20 33 -32 31 -52 -2
-22 -9 -28 -34 -30 -28 -3 -33 1 -43 28 -9 28 -14 31 -43 28 -29 -3 -33 -7
-36 -34 -3 -35 28 -81 64 -94 14 -6 24 -18 24 -30 0 -16 7 -20 30 -20 23 0 30
4 30 20 0 12 10 24 24 30 40 15 66 58 66 109 -1 63 -19 90 -87 131 -46 28 -58
41 -58 60 0 37 41 41 55 6 8 -22 16 -26 51 -26 l41 0 -7 33 c-11 48 -22 65
-55 82 -18 9 -30 23 -30 35 0 16 -7 20 -30 20 -24 0 -30 -4 -30 -23z m40 -27
c0 -13 7 -20 19 -20 19 0 61 -43 61 -61 0 -18 -28 -8 -44 16 -18 28 -52 33
-80 12 -13 -9 -17 -23 -14 -52 3 -36 7 -42 53 -67 69 -37 95 -70 95 -119 0
-45 -34 -89 -70 -89 -15 0 -20 -6 -20 -25 0 -14 -4 -25 -10 -25 -5 0 -10 11
-10 24 0 18 -7 25 -30 29 -19 4 -34 17 -45 36 -19 38 -19 41 5 41 11 0 20 -5
20 -12 0 -21 32 -48 57 -48 46 0 63 17 63 64 0 48 -11 62 -77 95 -51 25 -73
55 -73 99 0 35 37 82 65 82 8 0 15 9 15 20 0 11 5 20 10 20 6 0 10 -9 10 -20z"/>
<path d="M165 1574 c-19 -14 -20 -28 -23 -412 l-3 -398 126 -167 125 -167 0
-90 c0 -81 -2 -90 -19 -90 -33 0 -42 -24 -39 -107 l3 -78 270 0 270 0 3 72 c3
84 -8 113 -43 113 l-25 0 0 160 0 160 -161 255 c-88 140 -172 264 -187 276
-19 15 -37 20 -64 17 -45 -4 -41 -20 -64 232 -16 175 -20 197 -41 218 -26 26
-97 30 -128 6z m104 -23 c10 -6 20 -73 36 -232 19 -192 21 -227 9 -244 -32
-45 -19 -87 97 -308 61 -117 115 -216 120 -222 6 -6 12 -6 18 0 6 6 -35 93
-105 225 -72 138 -114 226 -114 246 0 51 55 85 104 63 17 -8 75 -91 186 -266
l160 -254 0 -154 0 -155 -180 0 -180 0 0 98 -1 97 -119 159 -120 159 0 393 c0
304 3 393 13 397 20 9 61 7 76 -2z m579 -1393 l3 -58 -246 0 -245 0 0 60 0 60
243 -2 242 -3 3 -57z"/>
<path d="M742 188 c-34 -34 6 -90 48 -68 35 19 20 80 -20 80 -9 0 -21 -5 -28
-12z m38 -28 c0 -5 -4 -10 -10 -10 -5 0 -10 5 -10 10 0 6 5 10 10 10 6 0 10
-4 10 -10z"/>
<path d="M1707 1568 c-21 -21 -25 -43 -41 -218 -23 -252 -19 -236 -64 -232
-27 3 -45 -2 -64 -17 -15 -12 -99 -136 -187 -276 l-161 -255 0 -160 0 -160
-25 0 c-35 0 -46 -29 -43 -113 l3 -72 270 0 270 0 3 72 c3 80 -8 113 -38 113
-18 0 -20 7 -20 90 l0 90 125 167 125 166 0 387 c0 377 -1 388 -21 414 -28 35
-99 37 -132 4z m97 -14 c14 -5 16 -50 16 -398 l0 -393 -120 -159 -119 -159 -1
-97 0 -98 -180 0 -180 0 0 155 0 155 161 254 c109 173 168 257 186 265 48 22
103 -12 103 -63 0 -20 -41 -108 -115 -246 -70 -134 -110 -219 -104 -225 6 -6
12 -6 18 0 5 6 59 105 120 222 116 221 129 263 97 308 -12 17 -10 52 9 244 16
159 26 226 36 232 16 10 51 12 73 3z m-164 -1394 l0 -60 -245 0 -245 0 0 53
c0 30 3 57 7 60 3 4 114 7 245 7 l238 0 0 -60z"/>
<path d="M1202 188 c-34 -34 6 -90 48 -68 35 19 20 80 -20 80 -9 0 -21 -5 -28
-12z m38 -28 c0 -5 -4 -10 -10 -10 -5 0 -10 5 -10 10 0 6 5 10 10 10 6 0 10
-4 10 -10z"/>
</g>
</svg>
