<?xml version="1.0" standalone="no"?>
<!DOCTYPE svg PUBLIC "-//W3C//DTD SVG 20010904//EN"
 "http://www.w3.org/TR/2001/REC-SVG-20010904/DTD/svg10.dtd">
<svg version="1.0" xmlns="http://www.w3.org/2000/svg"
 width="200.000000pt" height="200.000000pt" viewBox="0 0 200.000000 200.000000"
 preserveAspectRatio="xMidYMid meet">
<metadata>
Created by potrace 1.16, written by Peter Selinger 2001-2019
</metadata>
<g transform="translate(0.000000,200.000000) scale(0.100000,-0.100000)"
fill="#000000" stroke="none">
<path d="M1413 1949 c-39 -11 -91 -62 -109 -106 -17 -39 -18 -101 -3 -140 24
-64 109 -122 179 -123 52 0 120 38 154 87 25 36 29 52 29 103 0 51 -4 67 -29
103 -50 72 -134 101 -221 76z m124 -58 c25 -12 48 -32 57 -50 35 -67 8 -167
-52 -189 -56 -21 -65 -22 -102 -12 -126 34 -129 222 -4 260 43 12 55 11 101
-9z"/>
<path d="M1428 1856 c-31 -39 -35 -67 -13 -86 12 -10 13 -16 4 -27 -15 -17 3
-63 25 -63 7 0 19 -7 26 -15 20 -24 35 -18 65 25 25 37 27 43 15 68 -7 15 -12
39 -11 53 2 19 -7 33 -33 52 -19 15 -38 27 -43 27 -4 0 -20 -16 -35 -34z m66
-52 c5 -12 2 -15 -10 -10 -8 3 -18 6 -20 6 -3 0 -2 5 1 10 9 15 22 12 29 -6z
m-2 -76 c-11 -11 -32 -3 -32 12 0 4 9 6 21 3 13 -4 17 -9 11 -15z"/>
<path d="M462 1919 c-51 -15 -107 -78 -121 -136 -49 -204 220 -320 339 -146
67 98 9 250 -107 282 -45 13 -66 13 -111 0z m139 -72 c89 -60 67 -203 -37
-237 -117 -39 -221 92 -159 197 38 65 131 84 196 40z"/>
<path d="M510 1838 c-44 -26 -52 -37 -46 -70 3 -17 0 -28 -9 -32 -19 -7 -19
-50 0 -66 8 -7 15 -19 15 -27 0 -25 28 -25 70 2 37 23 42 30 38 57 -3 19 0 32
9 35 7 3 13 16 13 28 0 24 -37 96 -48 94 -4 0 -23 -10 -42 -21z m40 -74 c0
-14 -3 -14 -15 -4 -8 7 -15 14 -15 16 0 2 7 4 15 4 8 0 15 -7 15 -16z m-30
-65 c0 -5 -7 -6 -15 -3 -8 4 -15 13 -15 21 0 13 3 13 15 3 8 -7 15 -16 15 -21z"/>
<path d="M934 1661 c-58 -15 -137 -66 -170 -110 -60 -77 -79 -191 -49 -276 8
-22 15 -43 15 -47 0 -5 -49 -8 -108 -8 -136 0 -142 -5 -142 -108 0 -70 10 -94
42 -104 9 -3 0 -42 -31 -138 l-43 -134 22 -266 c12 -146 25 -281 30 -300 14
-53 38 -80 94 -106 51 -24 53 -24 406 -24 353 0 355 0 406 24 56 26 80 53 94
106 5 19 18 154 30 300 l22 265 -42 135 c-29 90 -39 135 -31 138 32 11 41 35
41 106 0 101 -6 106 -143 106 -59 0 -107 3 -107 8 0 4 7 25 15 47 31 85 11
199 -49 277 -63 83 -205 134 -302 109z m151 -62 c60 -17 128 -90 151 -162 15
-50 16 -66 6 -114 -20 -95 -29 -103 -124 -103 l-81 0 23 24 c38 42 30 74 -35
133 -62 57 -68 83 -17 83 31 0 58 -23 64 -55 2 -12 11 -20 23 -20 32 0 33 58
1 90 -14 14 -26 35 -26 46 0 30 -31 37 -48 11 -8 -12 -23 -22 -32 -22 -32 0
-50 -12 -65 -41 -21 -39 -7 -67 54 -119 57 -48 63 -67 26 -76 -34 -8 -75 19
-75 51 0 28 -12 38 -34 29 -29 -11 -14 -87 20 -107 32 -18 11 -28 -53 -25 -65
3 -68 4 -87 38 -29 49 -29 159 1 215 27 50 78 99 123 119 42 18 129 20 185 5z
m385 -484 l0 -55 -470 0 -470 0 0 55 0 55 470 0 470 0 0 -55z m-16 -242 l46
-138 -23 -278 c-28 -326 -30 -330 -134 -362 -22 -6 -23 -4 -23 50 0 46 -4 60
-25 80 -13 14 -33 25 -45 25 -17 0 -20 6 -20 45 0 39 3 45 20 45 12 0 32 11
45 25 21 20 25 34 25 80 0 70 -28 105 -85 105 -39 0 -38 -1 -25 57 14 60 0 90
-47 102 -79 21 -389 72 -418 69 -24 -2 -32 -9 -41 -38 -39 -123 -26 -145 102
-170 49 -10 77 -19 63 -19 -15 -1 -38 -10 -53 -22 -22 -17 -26 -28 -26 -74 0
-49 -2 -53 -27 -60 -47 -11 -53 -23 -53 -101 0 -64 3 -75 22 -88 12 -9 30 -16
40 -16 15 0 18 -9 18 -51 l0 -51 -72 4 c-82 4 -122 20 -151 60 -17 23 -23 66
-44 305 l-23 278 46 138 46 137 408 0 408 0 46 -137z m-490 -179 c105 -20 193
-37 195 -39 2 -2 0 -25 -3 -50 -6 -37 -11 -45 -24 -41 -9 2 -101 19 -204 38
-185 32 -188 33 -188 58 0 37 11 70 23 70 6 0 96 -16 201 -36z m304 -251 l3
-43 -215 0 -216 0 0 45 0 45 213 -2 212 -3 3 -42z m-88 -148 l0 -45 -210 0
-210 0 0 45 0 45 210 0 210 0 0 -45z m85 -155 l0 -45 -210 0 -210 0 -3 48 -3
47 213 -2 213 -3 0 -45z"/>
</g>
</svg>
