<?xml version="1.0" standalone="no"?>
<!DOCTYPE svg PUBLIC "-//W3C//DTD SVG 20010904//EN"
 "http://www.w3.org/TR/2001/REC-SVG-20010904/DTD/svg10.dtd">
<svg version="1.0" xmlns="http://www.w3.org/2000/svg"
 width="200.000000pt" height="200.000000pt" viewBox="0 0 200.000000 200.000000"
 preserveAspectRatio="xMidYMid meet">
<metadata>
Created by potrace 1.16, written by Peter Selinger 2001-2019
</metadata>
<g transform="translate(0.000000,200.000000) scale(0.100000,-0.100000)"
fill="#000000" stroke="none">
<path d="M1420 1937 c-53 -28 -90 -90 -90 -150 0 -85 83 -167 168 -167 105 0
193 112 163 210 -33 111 -142 160 -241 107z m104 -48 c39 -22 54 -53 37 -73
-8 -10 -7 -17 4 -26 21 -17 19 -56 -5 -80 -11 -11 -20 -24 -20 -29 0 -15 -29
-21 -43 -8 -7 7 -21 17 -32 23 -30 17 -42 41 -29 62 9 13 8 20 -2 30 -20 19
-17 51 9 89 26 39 34 40 81 12z"/>
<path d="M1480 1831 c0 -10 30 -24 37 -17 3 3 2 9 -2 15 -8 13 -35 15 -35 2z"/>
<path d="M1485 1750 c3 -5 13 -10 21 -10 8 0 14 5 14 10 0 6 -9 10 -21 10 -11
0 -17 -4 -14 -10z"/>
<path d="M458 1920 c-80 -24 -136 -107 -124 -184 15 -95 87 -152 181 -144 63
5 108 35 135 88 46 90 10 187 -85 231 -43 20 -65 22 -107 9z m110 -80 c27 -48
28 -66 3 -82 -14 -8 -17 -17 -11 -28 12 -22 -10 -64 -35 -68 -11 -2 -28 -11
-37 -19 -18 -16 -38 -10 -38 11 0 8 -7 19 -15 26 -18 15 -20 66 -2 77 6 4 12
24 12 43 0 28 5 37 30 50 17 8 32 18 33 23 9 19 39 3 60 -33z"/>
<path d="M500 1801 c0 -5 7 -14 15 -21 12 -10 15 -10 15 3 0 8 -7 17 -15 21
-8 3 -15 2 -15 -3z"/>
<path d="M472 1728 c3 -7 13 -15 24 -17 16 -3 17 -1 5 13 -16 19 -34 21 -29 4z"/>
<path d="M959 1649 c-97 -15 -182 -79 -222 -168 -25 -55 -28 -161 -6 -206 14
-29 17 -30 92 -33 42 -2 77 -1 77 1 0 3 -7 18 -15 33 -18 35 -19 45 -2 68 17
23 47 11 47 -20 0 -42 82 -75 97 -38 4 11 -13 34 -56 73 -46 43 -61 63 -61 84
0 36 41 77 75 77 15 0 34 9 44 22 21 25 41 17 41 -17 0 -12 7 -25 14 -28 24
-9 47 -64 40 -92 -9 -37 -48 -31 -52 8 -4 35 -43 61 -77 53 -14 -4 -25 -12
-25 -18 0 -7 28 -39 61 -71 60 -56 61 -59 55 -98 l-6 -40 87 3 c86 3 88 4 102
32 8 17 14 60 14 97 0 110 -58 201 -161 253 -57 28 -102 35 -163 25z"/>
<path d="M492 1178 c-7 -7 -12 -39 -12 -73 0 -34 5 -66 12 -73 17 -17 999 -17
1016 0 16 16 16 130 0 146 -17 17 -999 17 -1016 0z"/>
<path d="M521 838 l-42 -133 24 -288 c19 -216 29 -293 41 -312 29 -45 63 -58
152 -63 l84 -5 0 57 c0 55 0 56 -29 56 -42 0 -61 32 -61 100 0 68 19 100 61
100 29 0 29 0 29 58 0 80 16 100 83 104 50 3 48 4 -52 22 -129 24 -146 37
-137 106 10 76 25 109 52 116 23 6 384 -56 452 -78 41 -12 53 -40 41 -99 -13
-69 -13 -69 34 -69 62 0 77 -20 77 -103 0 -75 -19 -107 -65 -107 -23 0 -25 -3
-25 -49 0 -48 1 -49 35 -55 44 -9 55 -30 55 -102 l0 -56 32 6 c18 3 42 13 55
21 50 33 54 51 80 352 l25 288 -43 133 -43 132 -436 0 -436 0 -43 -132z"/>
<path d="M735 673 c-4 -21 -7 -44 -8 -52 -2 -11 47 -23 203 -52 113 -21 210
-38 216 -39 11 0 30 87 21 96 -2 3 -89 20 -193 39 -104 19 -199 37 -211 40
-19 4 -23 0 -28 -32z"/>
<path d="M842 408 l3 -53 215 0 215 0 0 50 0 50 -218 3 -218 2 3 -52z"/>
<path d="M750 250 l0 -50 220 0 220 0 0 50 0 50 -220 0 -220 0 0 -50z"/>
<path d="M847 144 c-4 -4 -7 -29 -7 -56 l0 -48 218 2 217 3 0 50 0 50 -211 3
c-115 1 -213 -1 -217 -4z"/>
</g>
</svg>
