<?xml version="1.0" standalone="no"?>
<!DOCTYPE svg PUBLIC "-//W3C//DTD SVG 20010904//EN"
 "http://www.w3.org/TR/2001/REC-SVG-20010904/DTD/svg10.dtd">
<svg version="1.0" xmlns="http://www.w3.org/2000/svg"
 width="200.000000pt" height="200.000000pt" viewBox="0 0 200.000000 200.000000"
 preserveAspectRatio="xMidYMid meet">
<metadata>
Created by potrace 1.16, written by Peter Selinger 2001-2019
</metadata>
<g transform="translate(0.000000,200.000000) scale(0.100000,-0.100000)"
fill="#000000" stroke="none">
<path d="M1370 1795 c-182 -51 -309 -217 -310 -402 l0 -52 -429 -3 c-416 -3
-430 -4 -457 -24 -15 -11 -37 -33 -48 -48 -20 -27 -21 -41 -24 -492 -3 -464
-3 -465 20 -505 14 -25 36 -46 64 -59 41 -20 56 -21 635 -18 l594 3 33 23 c47
34 62 70 62 152 0 56 3 70 15 70 8 0 24 9 35 20 18 18 20 33 20 161 0 149 -6
174 -46 189 -22 9 -24 14 -24 83 l0 73 71 18 c131 33 241 131 291 256 31 78
31 222 0 300 -45 113 -131 198 -242 241 -72 28 -188 34 -260 14z m261 -77
c184 -85 263 -302 177 -486 -33 -71 -122 -154 -191 -180 -78 -29 -111 -29
-125 3 -18 39 -67 58 -170 63 l-93 5 -34 40 c-68 80 -97 205 -71 308 28 107
92 191 181 236 75 39 92 42 185 40 68 -2 97 -8 141 -29z m-551 -455 c0 -9 16
-45 35 -80 l35 -63 -383 0 c-402 0 -430 -3 -414 -44 6 -15 53 -16 532 -16
l526 0 24 -25 c23 -22 25 -31 25 -125 l0 -100 -247 0 c-272 0 -282 -2 -320
-59 -20 -29 -23 -47 -23 -125 0 -74 4 -97 20 -124 35 -57 61 -62 330 -62 l240
0 0 -64 c0 -55 -4 -69 -26 -95 l-26 -31 -595 0 c-406 0 -601 3 -615 11 -45 24
-48 52 -48 496 0 257 4 432 10 455 20 70 5 68 487 68 398 0 433 -1 433 -17z
m440 -633 l0 -130 -279 0 -280 0 -20 26 c-17 22 -21 41 -21 101 0 69 2 77 29
104 l29 29 271 0 271 0 0 -130z"/>
<path d="M1457 1643 c-4 -3 -7 -15 -7 -25 0 -10 -18 -36 -40 -57 -35 -33 -40
-43 -40 -83 0 -61 25 -90 99 -117 65 -24 82 -47 61 -86 -27 -50 -93 -39 -108
18 -12 46 -46 45 -50 -1 -3 -28 3 -40 36 -72 22 -21 42 -48 44 -61 2 -18 9
-24 28 -24 21 0 26 5 28 33 2 19 9 32 17 32 7 0 25 14 39 31 20 23 26 42 26
75 0 54 -28 87 -86 103 -54 15 -84 38 -84 66 0 73 108 73 122 0 2 -12 11 -20
23 -20 32 0 32 55 0 94 -15 17 -33 31 -41 31 -8 0 -14 9 -14 19 0 32 -11 51
-29 51 -10 0 -21 -3 -24 -7z"/>
<path d="M1012 658 c-29 -29 -3 -72 40 -66 19 2 23 9 23 38 0 30 -4 35 -25 38
-14 2 -31 -3 -38 -10z"/>
</g>
</svg>
