<?xml version="1.0" standalone="no"?>
<!DOCTYPE svg PUBLIC "-//W3C//DTD SVG 20010904//EN"
 "http://www.w3.org/TR/2001/REC-SVG-20010904/DTD/svg10.dtd">
<svg version="1.0" xmlns="http://www.w3.org/2000/svg"
 width="200.000000pt" height="200.000000pt" viewBox="0 0 200.000000 200.000000"
 preserveAspectRatio="xMidYMid meet">
<metadata>
Created by potrace 1.16, written by Peter Selinger 2001-2019
</metadata>
<g transform="translate(0.000000,200.000000) scale(0.100000,-0.100000)"
fill="#000000" stroke="none">
<path d="M1416 1789 c-61 -15 -153 -68 -192 -112 -20 -22 -50 -69 -68 -106
-28 -59 -31 -75 -31 -156 1 -109 25 -180 86 -249 l41 -46 96 0 c108 0 152 -17
174 -66 11 -23 17 -26 54 -21 107 12 225 101 280 212 27 55 29 69 29 170 0
104 -2 113 -32 171 -41 78 -125 156 -201 185 -64 24 -176 33 -236 18z m118
-115 c3 -9 6 -23 6 -32 0 -9 14 -25 30 -34 32 -18 64 -77 58 -106 -2 -10 -13
-17 -27 -17 -18 0 -26 8 -35 34 -14 44 -55 61 -90 38 -56 -37 -35 -92 44 -119
69 -23 100 -54 107 -104 5 -44 -26 -101 -65 -119 -12 -5 -22 -19 -22 -30 0
-12 -6 -30 -14 -40 -12 -16 -16 -17 -30 -6 -9 7 -16 24 -16 37 0 16 -10 28
-30 39 -54 28 -81 125 -37 133 12 3 22 -8 33 -35 9 -21 21 -41 28 -45 34 -23
96 6 96 44 0 37 -21 57 -76 75 -72 22 -104 59 -104 118 0 47 33 98 70 110 14
4 20 15 20 34 0 15 3 31 7 34 12 13 41 7 47 -9z"/>
<path d="M160 1282 c-24 -11 -39 -28 -47 -52 -15 -45 -18 -897 -3 -952 6 -20
22 -46 37 -58 25 -20 36 -20 647 -20 682 0 648 -3 681 60 8 16 15 55 15 90 l0
60 -262 0 c-245 0 -265 1 -296 20 -56 34 -72 73 -72 173 0 98 11 129 60 171
l32 26 269 0 269 0 0 95 c0 101 -13 145 -47 161 -10 5 -268 11 -573 14 -547 5
-555 5 -555 25 0 20 8 20 423 23 232 1 422 4 422 7 0 3 -13 26 -29 52 -16 27
-35 65 -42 86 l-13 37 -441 0 c-399 0 -443 -2 -475 -18z"/>
<path d="M985 743 c-11 -3 -30 -14 -42 -26 -21 -18 -23 -30 -23 -112 0 -85 2
-93 26 -116 l26 -24 291 0 292 0 0 140 0 140 -275 1 c-151 1 -284 0 -295 -3z
m95 -108 c15 -19 6 -61 -16 -69 -27 -10 -53 3 -60 30 -8 30 11 54 41 54 12 0
28 -7 35 -15z"/>
</g>
</svg>
