<?xml version="1.0" standalone="no"?>
<!DOCTYPE svg PUBLIC "-//W3C//DTD SVG 20010904//EN"
 "http://www.w3.org/TR/2001/REC-SVG-20010904/DTD/svg10.dtd">
<svg version="1.0" xmlns="http://www.w3.org/2000/svg"
 width="200.000000pt" height="200.000000pt" viewBox="0 0 200.000000 200.000000"
 preserveAspectRatio="xMidYMid meet">
<metadata>
Created by potrace 1.16, written by Peter Selinger 2001-2019
</metadata>
<g transform="translate(0.000000,200.000000) scale(0.100000,-0.100000)"
fill="#000000" stroke="none">
<path d="M930 1750 c-94 -32 -150 -113 -150 -217 l0 -43 -45 0 c-80 0 -120
-65 -75 -123 l20 -25 -75 -68 c-57 -51 -84 -84 -108 -133 l-32 -66 -3 -330
c-4 -361 -1 -382 51 -442 59 -67 63 -68 449 -71 385 -4 442 2 498 47 76 61 75
54 75 446 l0 350 -27 58 c-19 41 -51 80 -107 133 l-80 76 21 28 c15 21 18 36
13 59 -9 40 -39 61 -91 61 l-41 0 -6 58 c-9 108 -64 178 -159 207 -63 18 -61
19 -128 -5z m154 -45 c56 -27 91 -85 91 -154 l0 -56 -50 0 c-47 0 -50 1 -53
28 -4 31 -32 47 -83 47 -22 0 -29 5 -29 20 0 17 7 20 39 20 22 0 46 3 55 6 25
10 19 34 -9 34 -18 0 -25 5 -25 20 0 26 -30 26 -37 1 -3 -11 -15 -21 -27 -23
-19 -3 -21 -9 -21 -58 l0 -55 53 -3 c44 -3 52 -6 52 -23 0 -19 -6 -20 -107
-17 l-108 3 -3 47 c-9 138 131 225 262 163z m266 -442 c153 -136 152 -130 148
-554 l-3 -334 -24 -34 c-49 -69 -63 -71 -471 -71 -360 0 -366 0 -410 23 -87
44 -85 33 -88 413 -2 208 1 348 8 372 15 57 56 111 140 186 l75 66 275 0 275
0 75 -67z"/>
<path d="M822 1287 c-88 -32 -142 -110 -142 -204 1 -129 94 -223 222 -223 53
0 138 48 173 98 27 40 30 51 30 122 0 71 -3 82 -30 122 -55 79 -165 116 -253
85z m143 -95 c0 -12 9 -27 19 -35 10 -8 16 -19 12 -25 -5 -8 -21 -6 -56 8 -49
19 -50 19 -60 0 -14 -26 -15 -25 30 -45 48 -21 55 -40 35 -88 -14 -34 -45 -55
-64 -43 -5 3 -11 -1 -15 -9 -9 -25 -36 -18 -36 9 0 16 -7 27 -20 31 -23 7 -27
35 -5 35 9 0 32 -7 53 -15 34 -15 38 -15 49 1 19 27 16 34 -22 49 -48 21 -58
44 -37 86 13 25 25 35 47 37 17 2 34 10 38 18 12 21 32 12 32 -14z"/>
<path d="M1140 940 c-146 -50 -196 -226 -98 -345 43 -51 95 -75 165 -75 72 0
130 25 170 74 57 69 67 150 29 231 -29 63 -72 100 -138 120 -63 18 -61 19
-128 -5z m90 -80 c0 -15 7 -20 25 -20 15 0 25 -6 25 -14 0 -11 -15 -16 -52
-18 -49 -3 -53 -5 -53 -28 0 -23 5 -25 50 -30 l50 -5 3 -52 c3 -48 1 -54 -22
-64 -13 -6 -27 -20 -29 -30 -7 -25 -27 -24 -34 0 -3 11 -15 21 -26 23 -12 2
-23 11 -25 21 -3 14 5 17 52 17 55 0 56 0 56 29 0 29 -2 30 -52 33 l-53 3 0
55 c0 49 2 55 21 58 12 2 24 12 27 23 7 25 37 25 37 -1z"/>
<path d="M725 726 c-77 -29 -145 -125 -145 -207 0 -86 78 -187 161 -209 138
-37 279 69 279 210 0 148 -156 256 -295 206z m44 -78 c6 -7 22 -13 34 -13 40
0 33 -20 -15 -42 -38 -19 -45 -26 -41 -44 4 -15 11 -19 27 -15 66 17 77 18 91
6 7 -6 19 -27 25 -46 10 -29 9 -38 -4 -53 -9 -10 -16 -27 -16 -39 0 -24 -27
-31 -36 -9 -3 9 -16 12 -34 9 -48 -7 -38 23 15 44 39 14 44 20 39 38 -9 30
-11 31 -47 18 -48 -17 -65 -15 -81 11 -27 42 -28 64 -5 86 12 11 19 26 16 34
-10 26 11 35 32 15z"/>
</g>
</svg>
