<?xml version="1.0" standalone="no"?>
<!DOCTYPE svg PUBLIC "-//W3C//DTD SVG 20010904//EN"
 "http://www.w3.org/TR/2001/REC-SVG-20010904/DTD/svg10.dtd">
<svg version="1.0" xmlns="http://www.w3.org/2000/svg"
 width="200.000000pt" height="200.000000pt" viewBox="0 0 200.000000 200.000000"
 preserveAspectRatio="xMidYMid meet">
<metadata>
Created by potrace 1.16, written by Peter Selinger 2001-2019
</metadata>
<g transform="translate(0.000000,200.000000) scale(0.100000,-0.100000)"
fill="#000000" stroke="none">
<path d="M955 1811 c-44 -11 -107 -46 -132 -73 -34 -36 -63 -109 -63 -159 l0
-46 -46 -6 c-60 -6 -98 -42 -98 -91 0 -19 8 -44 18 -55 17 -19 16 -21 -31 -63
-122 -110 -158 -165 -174 -273 -6 -37 -9 -200 -7 -382 3 -303 4 -320 25 -358
24 -46 54 -75 103 -101 32 -17 67 -19 406 -22 236 -2 393 0 430 7 77 14 131
53 163 116 26 49 26 50 29 358 5 466 -3 495 -181 655 -47 42 -48 44 -31 63 10
11 18 36 18 55 0 49 -38 85 -98 91 l-46 6 0 41 c-1 88 -52 171 -128 210 -54
27 -114 38 -157 27z m134 -82 c53 -29 84 -80 89 -145 l4 -54 -43 0 c-40 0 -45
4 -59 33 -13 29 -20 32 -62 35 -40 3 -48 6 -48 23 0 16 7 19 54 19 42 0 55 4
60 17 7 18 -17 43 -41 43 -7 0 -13 7 -13 15 0 29 -31 29 -60 -1 -15 -16 -35
-35 -44 -42 -21 -17 -21 -85 0 -106 15 -15 31 -21 84 -29 14 -3 -23 -5 -82 -6
l-108 -1 0 42 c0 61 34 123 83 153 54 32 133 34 186 4z m232 -275 c9 -11 10
-20 2 -32 -9 -15 -42 -17 -323 -17 -281 0 -314 2 -323 17 -8 12 -7 21 2 32 12
14 53 16 321 16 268 0 309 -2 321 -16z m56 -199 c143 -134 138 -115 138 -545
0 -495 31 -460 -412 -459 -262 0 -292 2 -250 13 65 18 116 61 150 127 24 46
28 63 24 114 -2 33 -8 69 -13 80 -4 11 7 3 26 -18 50 -58 103 -81 180 -81 147
0 254 121 237 266 -19 161 -195 255 -341 184 -110 -54 -163 -187 -120 -301 5
-11 -7 -3 -26 18 -50 58 -103 81 -180 81 -76 0 -130 -23 -177 -77 -118 -135
-56 -347 115 -393 l47 -13 -93 0 c-107 -1 -139 12 -175 69 -22 34 -22 42 -22
395 0 430 -6 405 137 540 l91 85 287 0 287 0 90 -85z m-61 -380 c122 -72 108
-259 -24 -317 -117 -52 -251 36 -252 164 -1 140 153 225 276 153z m-460 -211
c50 -21 72 -40 95 -86 43 -85 12 -192 -71 -237 -157 -87 -327 74 -249 236 41
85 138 123 225 87z"/>
<path d="M845 1321 c-156 -39 -237 -193 -174 -331 49 -109 155 -164 268 -139
173 37 245 242 136 386 -47 60 -159 102 -230 84z m129 -76 c119 -57 127 -244
13 -309 -58 -33 -91 -39 -140 -25 -86 23 -137 88 -137 174 0 139 135 221 264
160z"/>
<path d="M924 1226 c-4 -10 -18 -16 -41 -16 -30 0 -36 -5 -49 -36 -23 -56 -15
-86 29 -107 34 -16 46 -35 31 -50 -3 -3 -28 3 -54 13 -35 14 -50 16 -59 7 -18
-18 -13 -37 12 -48 18 -8 23 -17 20 -33 -6 -29 23 -43 46 -22 9 8 27 16 41 18
18 2 31 16 49 51 21 43 22 49 8 71 -9 12 -29 29 -46 36 -17 7 -31 19 -31 26 0
18 11 18 60 -2 22 -9 47 -14 55 -10 21 8 19 32 -4 48 -10 8 -21 25 -23 38 -4
28 -35 39 -44 16z"/>
<path d="M1190 861 c-14 -15 -32 -30 -40 -33 -11 -3 -15 -19 -15 -57 0 -62 18
-81 77 -81 31 0 38 -4 38 -20 0 -18 -7 -20 -54 -20 -38 0 -56 -4 -60 -15 -6
-16 19 -45 39 -45 8 0 19 -9 25 -20 15 -27 39 -25 50 5 5 14 14 25 19 25 22 0
41 34 41 74 0 55 -22 76 -78 76 -31 0 -42 4 -42 15 0 11 11 15 41 15 76 0 108
41 49 63 -16 6 -30 17 -30 23 0 7 -7 15 -16 18 -20 8 -15 10 -44 -23z"/>
<path d="M714 635 c-3 -8 -3 -18 0 -23 3 -5 -3 -17 -14 -27 -25 -23 -25 -51 0
-93 26 -42 42 -48 89 -29 36 15 40 15 45 0 8 -19 11 -15 -42 -42 -34 -17 -43
-27 -40 -44 2 -18 9 -22 33 -20 16 1 37 -4 46 -13 15 -13 18 -13 32 1 9 8 14
21 11 29 -3 7 2 19 11 26 20 16 19 51 -2 95 -21 43 -53 54 -98 32 -30 -14 -34
-14 -39 0 -4 9 -5 16 -4 17 107 49 106 49 89 75 -5 8 -19 12 -34 9 -16 -3 -28
0 -31 8 -7 19 -45 18 -52 -1z"/>
</g>
</svg>
