<?xml version="1.0" standalone="no"?>
<!DOCTYPE svg PUBLIC "-//W3C//DTD SVG 20010904//EN"
 "http://www.w3.org/TR/2001/REC-SVG-20010904/DTD/svg10.dtd">
<svg version="1.0" xmlns="http://www.w3.org/2000/svg"
 width="200.000000pt" height="200.000000pt" viewBox="0 0 200.000000 200.000000"
 preserveAspectRatio="xMidYMid meet">
<metadata>
Created by potrace 1.16, written by Peter Selinger 2001-2019
</metadata>
<g transform="translate(0.000000,200.000000) scale(0.100000,-0.100000)"
fill="#000000" stroke="none">
<path d="M873 1906 c-125 -24 -189 -74 -200 -154 l-6 -42 332 0 331 0 0 25 c0
37 -23 86 -53 114 -59 54 -267 83 -404 57z"/>
<path d="M630 1657 c-54 -27 -61 -99 -13 -137 25 -19 42 -20 388 -20 l362 0
20 23 c43 47 35 105 -18 133 -38 19 -700 21 -739 1z"/>
<path d="M620 1440 c-14 -11 -41 -20 -60 -20 -49 0 -120 -38 -146 -77 -30 -45
-68 -266 -89 -526 l-7 -78 31 15 c51 27 97 17 133 -28 10 -11 18 -15 18 -8 0
16 59 52 87 52 52 0 76 -27 250 -274 97 -138 181 -263 186 -277 14 -36 1 -77
-35 -111 l-30 -28 38 0 c22 0 66 7 99 15 33 8 93 14 134 15 69 0 79 3 168 51
109 59 155 96 173 138 8 20 11 74 8 164 l-3 135 -39 56 c-40 58 -59 122 -49
166 3 14 32 95 66 180 53 135 61 163 61 220 -1 115 -56 183 -160 196 -27 4
-61 15 -76 25 -24 18 -51 19 -380 19 -335 0 -354 -1 -378 -20z"/>
<path d="M363 715 c-44 -31 -32 -58 138 -311 180 -268 193 -284 226 -284 28 0
63 33 63 59 0 16 -309 491 -344 528 -20 21 -60 25 -83 8z"/>
<path d="M551 711 c-12 -12 -21 -29 -21 -38 1 -10 81 -135 179 -278 172 -253
178 -260 213 -263 28 -2 40 2 52 20 9 12 16 30 16 38 0 14 -322 485 -353 517
-24 24 -64 26 -86 4z"/>
<path d="M322 470 c3 -111 7 -131 30 -175 49 -94 150 -168 246 -181 l52 -7
-161 239 c-88 132 -163 241 -166 244 -3 3 -3 -51 -1 -120z"/>
<path d="M807 120 l-18 -30 48 0 c43 1 46 2 30 15 -10 7 -24 21 -30 30 -11 14
-14 12 -30 -15z"/>
</g>
</svg>
