<?xml version="1.0" standalone="no"?>
<!DOCTYPE svg PUBLIC "-//W3C//DTD SVG 20010904//EN"
 "http://www.w3.org/TR/2001/REC-SVG-20010904/DTD/svg10.dtd">
<svg version="1.0" xmlns="http://www.w3.org/2000/svg"
 width="200.000000pt" height="200.000000pt" viewBox="0 0 200.000000 200.000000"
 preserveAspectRatio="xMidYMid meet">
<metadata>
Created by potrace 1.16, written by Peter Selinger 2001-2019
</metadata>
<g transform="translate(0.000000,200.000000) scale(0.100000,-0.100000)"
fill="#000000" stroke="none">
<path d="M874 1926 c-149 -29 -214 -81 -222 -182 -4 -48 -8 -56 -38 -74 -37
-23 -58 -74 -48 -114 3 -14 20 -38 37 -52 l31 -26 -23 -19 c-13 -11 -35 -19
-48 -19 -49 0 -108 -25 -143 -60 -39 -39 -56 -83 -66 -174 -6 -53 -5 -58 11
-55 14 3 22 22 35 80 25 117 54 148 150 164 54 9 107 39 115 65 6 19 18 20
335 20 317 0 329 -1 335 -20 9 -27 62 -57 116 -65 96 -14 143 -73 143 -175 0
-44 -13 -88 -64 -215 -84 -213 -84 -257 -5 -374 29 -43 30 -50 34 -168 5 -175
0 -184 -154 -274 -86 -51 -94 -53 -165 -55 -41 -1 -93 -6 -115 -13 -22 -6 -59
-11 -83 -11 -40 0 -42 1 -32 20 20 38 -15 57 -38 20 -8 -14 -23 -20 -46 -20
-40 0 -30 -13 -240 298 -130 192 -157 237 -152 258 8 32 43 48 76 36 17 -7 84
-93 198 -256 157 -223 202 -274 202 -231 0 26 -347 510 -375 523 -47 22 -93
11 -126 -31 l-17 -20 -10 20 c-16 28 -65 47 -106 39 l-34 -7 4 38 c18 188 26
295 21 300 -3 3 -12 3 -20 0 -28 -11 -61 -456 -47 -652 8 -120 29 -174 94
-243 66 -71 134 -100 269 -117 181 -22 376 -29 422 -15 22 6 85 15 140 19 99
7 101 8 210 70 157 89 160 93 160 286 l0 151 -42 70 c-62 101 -60 132 19 326
54 134 61 162 62 223 1 101 -29 160 -104 198 -29 15 -68 27 -86 27 -17 0 -42
8 -55 19 l-23 19 31 26 c17 15 34 40 38 56 8 38 -17 91 -55 113 -22 14 -30 26
-32 55 -4 51 -32 51 -36 0 l-3 -38 -310 0 -309 0 0 38 c0 42 28 93 62 116 102
67 422 59 513 -12 28 -23 45 -21 45 3 0 22 -68 62 -135 80 -86 22 -217 27
-301 11z m506 -301 c18 -22 15 -62 -5 -85 -17 -19 -33 -20 -376 -20 l-358 0
-20 27 c-21 26 -21 53 1 81 8 9 96 12 378 12 315 0 369 -2 380 -15z m-764
-1168 c96 -142 174 -267 174 -277 0 -27 -35 -60 -63 -60 -33 0 -46 16 -226
284 -160 238 -178 275 -149 304 7 7 30 12 52 10 l39 -3 173 -258z m-122 -116
c76 -111 135 -205 133 -208 -7 -6 -86 16 -120 34 -49 25 -108 85 -135 137 -22
43 -27 67 -30 156 -2 66 0 101 5 95 6 -5 72 -102 147 -214z m346 -211 c9 -18
8 -20 -15 -20 -23 0 -24 2 -13 20 7 11 14 20 15 20 1 0 7 -9 13 -20z"/>
</g>
</svg>
