<?xml version="1.0" standalone="no"?>
<!DOCTYPE svg PUBLIC "-//W3C//DTD SVG 20010904//EN"
 "http://www.w3.org/TR/2001/REC-SVG-20010904/DTD/svg10.dtd">
<svg version="1.0" xmlns="http://www.w3.org/2000/svg"
 width="200.000000pt" height="200.000000pt" viewBox="0 0 200.000000 200.000000"
 preserveAspectRatio="xMidYMid meet">
<metadata>
Created by potrace 1.16, written by Peter Selinger 2001-2019
</metadata>
<g transform="translate(0.000000,200.000000) scale(0.100000,-0.100000)"
fill="#000000" stroke="none">
<path d="M360 1897 c-24 -12 -25 -16 -28 -132 -1 -66 2 -126 7 -134 5 -8 26
-17 47 -20 37 -6 39 -8 42 -46 6 -68 -16 -121 -79 -190 -102 -113 -94 -55 -97
-671 -3 -534 -2 -541 18 -567 12 -14 38 -31 58 -37 50 -13 1293 -14 1343 0 20
6 45 20 55 31 18 20 19 45 19 568 0 623 8 565 -95 676 -64 68 -83 116 -78 188
3 38 6 42 33 45 58 7 65 23 65 147 0 80 -4 117 -14 131 -14 18 -34 19 -643 21
-493 2 -633 0 -653 -10z m160 -142 l0 -85 -65 0 -65 0 0 85 0 85 65 0 65 0 0
-85z m180 0 l0 -85 -60 0 -60 0 0 85 0 85 60 0 60 0 0 -85z m180 0 l0 -85 -60
0 -60 0 0 85 0 85 60 0 60 0 0 -85z m180 0 l0 -85 -60 0 -60 0 0 85 0 85 60 0
60 0 0 -85z m180 0 l0 -85 -60 0 -60 0 0 85 0 85 60 0 60 0 0 -85z m180 0 l0
-85 -60 0 -60 0 0 85 0 85 60 0 60 0 0 -85z m190 0 l0 -85 -65 0 -65 0 0 85 0
85 65 0 65 0 0 -85z m-98 -213 c6 -88 35 -150 102 -220 30 -32 60 -70 65 -85
16 -42 15 -1049 -1 -1065 -8 -8 -48 -12 -113 -12 l-102 0 40 42 c111 117 124
295 33 434 -51 76 -163 144 -238 144 -16 0 -28 3 -26 8 61 118 63 127 63 212
0 76 -4 93 -33 152 -36 73 -87 124 -161 160 -67 33 -187 37 -261 9 -76 -28
-152 -98 -186 -169 -50 -104 -42 -250 17 -333 10 -15 19 -29 19 -32 0 -2 -20
-7 -44 -9 -101 -12 -198 -85 -248 -186 -30 -60 -33 -75 -33 -152 1 -101 27
-170 92 -238 l40 -42 -102 0 c-65 0 -105 4 -113 12 -16 16 -17 1023 -1 1065 5
15 35 53 65 85 67 70 96 132 102 220 l5 68 507 0 507 0 5 -68z m-397 -286
c109 -50 171 -156 162 -276 -7 -107 -58 -183 -151 -224 -29 -13 -68 -38 -88
-55 l-37 -32 -48 37 c-26 20 -64 43 -83 51 -46 19 -97 68 -122 118 -32 60 -36
169 -10 228 33 74 69 114 135 147 79 39 167 42 242 6z m-262 -555 c139 -60
207 -239 143 -377 -49 -106 -139 -164 -253 -164 -194 0 -330 189 -267 373 21
62 87 135 149 163 65 31 163 33 228 5z m522 -5 c93 -43 165 -154 165 -255 0
-107 -73 -218 -171 -261 -94 -40 -216 -21 -298 48 l-33 27 21 62 c26 78 27
169 1 243 -22 63 -17 78 37 112 58 36 93 46 163 47 48 1 78 -5 115 -23z m-345
-511 l23 -25 -53 0 -53 0 23 25 c13 14 26 25 30 25 4 0 17 -11 30 -25z"/>
<path d="M982 1238 c-7 -7 -12 -20 -12 -29 0 -10 -9 -21 -21 -24 -29 -10 -59
-64 -59 -108 0 -51 52 -107 98 -107 60 0 85 -65 37 -96 -23 -15 -27 -15 -50 0
-14 9 -25 25 -25 35 0 24 -23 43 -44 35 -35 -13 -9 -98 38 -124 14 -7 26 -21
26 -30 0 -10 7 -23 15 -30 18 -15 45 2 45 30 0 9 12 23 26 30 47 25 66 88 44
144 -12 32 -65 66 -102 66 -29 0 -48 23 -48 58 0 22 30 52 52 52 19 0 48 -32
48 -52 0 -22 24 -40 44 -32 36 14 2 114 -43 129 -12 3 -21 14 -21 24 0 16 -18
41 -30 41 -3 0 -11 -5 -18 -12z"/>
<path d="M722 678 c-7 -7 -12 -18 -12 -25 0 -8 -18 -31 -40 -52 -32 -30 -40
-45 -40 -73 0 -43 37 -100 70 -109 85 -24 85 -24 88 -55 3 -35 -18 -64 -47
-64 -21 0 -48 27 -53 55 -4 27 -51 28 -56 2 -6 -30 18 -76 49 -94 16 -10 29
-25 29 -34 0 -23 24 -41 44 -33 9 3 16 17 16 29 0 15 8 26 20 30 34 11 60 54
60 101 0 57 -37 102 -92 110 -46 8 -68 26 -68 58 0 31 22 48 57 44 21 -2 32
-12 44 -38 9 -19 22 -35 28 -34 6 1 16 2 21 3 6 0 10 16 10 35 0 37 -29 81
-60 91 -12 4 -20 15 -20 30 0 12 -7 26 -16 29 -20 8 -18 8 -32 -6z"/>
<path d="M1243 683 c-7 -2 -13 -15 -13 -28 0 -15 -7 -26 -20 -30 -35 -11 -60
-54 -60 -102 0 -38 5 -50 34 -79 23 -23 43 -34 63 -34 56 0 82 -59 43 -95 -30
-27 -71 -11 -82 32 -10 37 -20 46 -42 37 -39 -15 -5 -113 44 -129 12 -4 20
-15 20 -30 0 -12 7 -26 16 -29 20 -8 44 10 44 34 0 9 12 23 26 30 95 51 51
210 -59 210 -30 0 -47 18 -47 50 0 34 17 50 53 50 23 0 31 -7 42 -34 18 -42
31 -52 50 -36 27 22 17 60 -25 102 -22 22 -40 46 -40 52 0 13 -20 37 -29 35
-4 0 -12 -3 -18 -6z"/>
</g>
</svg>
