<?xml version="1.0" standalone="no"?>
<!DOCTYPE svg PUBLIC "-//W3C//DTD SVG 20010904//EN"
 "http://www.w3.org/TR/2001/REC-SVG-20010904/DTD/svg10.dtd">
<svg version="1.0" xmlns="http://www.w3.org/2000/svg"
 width="200.000000pt" height="200.000000pt" viewBox="0 0 200.000000 200.000000"
 preserveAspectRatio="xMidYMid meet">
<metadata>
Created by potrace 1.16, written by Peter Selinger 2001-2019
</metadata>
<g transform="translate(0.000000,200.000000) scale(0.100000,-0.100000)"
fill="#000000" stroke="none">
<path d="M810 1894 c-14 -3 -78 -12 -143 -21 -154 -21 -167 -31 -167 -119 l0
-64 500 0 500 0 0 59 c0 94 -5 97 -205 126 -158 23 -395 32 -485 19z"/>
<path d="M440 1610 l0 -50 560 0 560 0 0 50 0 50 -560 0 -560 0 0 -50z"/>
<path d="M470 1487 c0 -35 -7 -51 -46 -97 -86 -104 -79 -48 -79 -660 0 -601
-3 -575 62 -617 25 -17 69 -18 593 -18 524 0 568 1 593 18 65 42 62 16 62 617
0 612 7 556 -79 660 -39 46 -46 62 -46 97 l0 43 -530 0 -530 0 0 -43z m1047
-124 c80 -97 73 -37 73 -632 0 -483 -2 -536 -17 -553 -15 -17 -46 -18 -574
-18 -494 0 -559 2 -573 16 -14 14 -16 78 -16 552 0 598 -7 538 73 635 l39 47
478 0 478 0 39 -47z"/>
<path d="M840 1271 c-72 -22 -138 -79 -164 -143 -20 -46 -21 -148 -2 -192 19
-47 73 -104 120 -129 57 -30 165 -30 221 0 189 101 184 357 -10 449 -51 24
-115 30 -165 15z m150 -236 l0 -85 -85 0 -85 0 0 85 0 85 85 0 85 0 0 -85z"/>
<path d="M870 1029 l0 -40 38 3 c35 3 37 5 40 41 l3 37 -40 0 -41 0 0 -41z"/>
<path d="M667 743 c-4 -3 -7 -37 -7 -74 0 -52 4 -68 16 -73 9 -3 58 -6 110 -6
94 0 94 0 94 25 0 20 5 25 25 25 20 0 25 -5 25 -26 0 -23 3 -25 38 -22 30 2
38 7 40 26 2 14 10 22 22 22 12 0 20 -8 22 -22 2 -18 10 -24 39 -26 49 -4 69
17 69 74 0 87 11 84 -254 84 -128 0 -236 -3 -239 -7z"/>
<path d="M1172 582 c-23 -20 -42 -43 -42 -51 0 -16 225 -288 250 -301 14 -7
28 -1 64 28 25 20 46 45 46 55 0 25 -238 307 -258 307 -10 0 -36 -17 -60 -38z"/>
<path d="M536 544 c-3 -8 -6 -40 -6 -70 0 -50 2 -55 27 -65 14 -5 65 -8 112
-7 81 3 86 4 89 26 2 14 10 22 22 22 12 0 20 -8 22 -22 2 -19 10 -24 41 -26
34 -3 37 -1 37 22 0 21 5 26 25 26 20 0 25 -5 25 -25 0 -22 4 -25 33 -25 57 0
68 16 65 90 l-3 65 -241 3 c-214 2 -242 1 -248 -14z"/>
<path d="M662 303 l3 -78 108 -3 c102 -3 107 -2 107 18 0 15 7 20 25 20 18 0
25 -5 25 -20 0 -17 7 -20 40 -20 33 0 40 3 40 20 0 13 7 20 20 20 13 0 20 -7
20 -20 0 -17 7 -20 43 -20 55 0 67 13 67 75 0 84 12 80 -260 83 l-241 3 3 -78z"/>
</g>
</svg>
