<?xml version="1.0" standalone="no"?>
<!DOCTYPE svg PUBLIC "-//W3C//DTD SVG 20010904//EN"
 "http://www.w3.org/TR/2001/REC-SVG-20010904/DTD/svg10.dtd">
<svg version="1.0" xmlns="http://www.w3.org/2000/svg"
 width="200.000000pt" height="200.000000pt" viewBox="0 0 200.000000 200.000000"
 preserveAspectRatio="xMidYMid meet">
<metadata>
Created by potrace 1.16, written by Peter Selinger 2001-2019
</metadata>
<g transform="translate(0.000000,200.000000) scale(0.100000,-0.100000)"
fill="#000000" stroke="none">
<path d="M847 1900 c-138 -13 -299 -41 -329 -56 -37 -19 -48 -43 -48 -103 0
-42 -5 -54 -30 -79 -41 -42 -41 -92 -1 -133 16 -16 37 -29 45 -29 35 0 16 -50
-48 -129 -36 -44 -71 -90 -78 -103 -10 -18 -13 -134 -13 -553 0 -585 -3 -560
62 -602 25 -17 69 -18 593 -18 524 0 568 1 593 18 64 42 62 22 65 567 2 337 0
511 -8 546 -8 40 -27 71 -80 138 -70 86 -89 136 -54 136 8 0 29 13 45 29 40
41 40 91 -1 133 -25 24 -30 38 -30 77 0 55 -20 88 -65 106 -42 18 -294 53
-425 59 -58 2 -144 1 -193 -4z m483 -90 c68 -11 128 -26 132 -33 4 -7 8 -29 8
-49 l0 -38 -470 0 -470 0 0 45 c0 55 4 57 169 85 156 26 448 21 631 -10z m196
-205 c4 -8 1 -22 -6 -30 -19 -23 -1021 -23 -1040 0 -7 8 -10 22 -6 30 5 13 70
15 526 15 456 0 521 -2 526 -15z m-86 -120 c0 -13 -56 -15 -440 -15 -384 0
-440 2 -440 15 0 13 56 15 440 15 384 0 440 -2 440 -15z m83 -161 l67 -85 0
-521 c0 -471 -2 -523 -17 -540 -15 -17 -46 -18 -574 -18 -494 0 -559 2 -573
16 -14 14 -16 76 -16 539 l0 524 68 85 67 85 455 0 455 0 68 -85z"/>
<path d="M805 1260 c-105 -41 -177 -147 -177 -257 -1 -72 12 -109 59 -175 l33
-48 -25 0 c-62 0 -110 -57 -103 -123 2 -27 -1 -33 -19 -35 -12 -2 -34 -17 -48
-33 -55 -66 -19 -169 62 -182 l38 -6 1 -61 c1 -52 5 -65 29 -90 l29 -30 219 0
c130 0 226 4 238 10 33 18 52 68 47 127 -6 65 -35 101 -90 109 -37 6 -38 7
-38 50 0 51 10 56 28 16 6 -16 70 -83 142 -150 150 -141 163 -146 230 -86 35
32 40 42 40 79 0 49 -14 67 -187 229 -75 70 -97 86 -123 86 -25 0 -33 5 -41
29 -6 16 -21 37 -35 45 l-24 16 34 45 c44 58 60 106 59 180 -1 104 -61 198
-156 246 -60 31 -157 35 -222 9z m211 -75 c63 -37 97 -92 102 -166 8 -108 -41
-186 -142 -224 -88 -34 -199 4 -254 87 -23 36 -27 51 -27 118 0 68 3 81 29
118 68 99 190 127 292 67z m58 -471 c11 -4 16 -19 16 -45 l0 -39 -59 0 c-51 0
-61 3 -66 20 -4 11 -15 20 -27 20 -11 0 -22 -8 -25 -20 -3 -11 -11 -20 -19
-20 -7 0 -18 9 -24 20 -6 11 -19 20 -30 20 -10 0 -22 -9 -25 -20 -6 -18 -15
-20 -81 -20 l-74 0 0 39 c0 22 5 42 13 44 18 8 382 8 401 1z m248 -201 c126
-126 138 -148 92 -178 -26 -17 -26 -17 -83 36 -164 156 -191 185 -191 203 0
24 28 56 49 56 9 0 69 -53 133 -117z m-327 2 l0 -40 -91 -3 c-85 -3 -92 -1
-97 18 -7 27 -47 27 -54 0 -3 -11 -11 -20 -18 -20 -7 0 -15 9 -18 20 -3 12
-14 20 -27 20 -13 0 -24 -8 -27 -20 -4 -16 -14 -20 -48 -20 -48 0 -62 19 -51
66 l6 24 213 -2 212 -3 0 -40z m120 -175 l0 -55 -40 -3 c-34 -2 -42 1 -50 20
-13 29 -37 30 -50 1 -11 -25 -35 -31 -35 -9 0 38 -53 42 -63 5 -5 -18 -13 -20
-94 -17 l-88 3 -3 44 c-6 75 -16 72 215 69 l208 -3 0 -55z"/>
<path d="M840 1093 c-8 -3 -18 -11 -22 -17 -10 -15 -10 -138 1 -154 5 -9 31
-12 92 -10 l84 3 3 80 c2 66 0 82 -14 92 -18 13 -115 17 -144 6z m100 -93 c0
-27 -3 -30 -30 -30 -27 0 -30 3 -30 30 0 27 3 30 30 30 27 0 30 -3 30 -30z"/>
</g>
</svg>
