<?xml version="1.0" standalone="no"?>
<!DOCTYPE svg PUBLIC "-//W3C//DTD SVG 20010904//EN"
 "http://www.w3.org/TR/2001/REC-SVG-20010904/DTD/svg10.dtd">
<svg version="1.0" xmlns="http://www.w3.org/2000/svg"
 width="200.000000pt" height="200.000000pt" viewBox="0 0 200.000000 200.000000"
 preserveAspectRatio="xMidYMid meet">
<metadata>
Created by potrace 1.16, written by Peter Selinger 2001-2019
</metadata>
<g transform="translate(0.000000,200.000000) scale(0.100000,-0.100000)"
fill="#000000" stroke="none">
<path d="M1042 1988 c-8 -8 -12 -46 -12 -104 0 -99 10 -122 50 -109 18 6 20
14 20 104 0 94 -8 121 -35 121 -6 0 -16 -5 -23 -12z"/>
<path d="M896 1905 c-3 -9 -6 -52 -6 -95 0 -84 12 -107 50 -95 19 6 21 13 18
103 -3 96 -3 97 -29 100 -17 2 -29 -3 -33 -13z"/>
<path d="M1177 1914 c-4 -4 -7 -47 -7 -94 0 -68 4 -91 16 -101 11 -9 20 -10
32 -2 14 8 17 27 17 104 0 93 0 94 -25 97 -14 2 -29 0 -33 -4z"/>
<path d="M990 1701 c-14 -4 -44 -17 -66 -29 -181 -93 -214 -350 -62 -488 35
-32 43 -34 106 -34 37 0 96 -7 132 -14 62 -13 67 -13 111 10 54 27 104 81 133
143 30 65 28 178 -3 243 -29 61 -88 120 -149 149 -50 24 -157 35 -202 20z
m165 -90 c76 -34 122 -98 132 -179 24 -204 -222 -328 -375 -188 -63 57 -88
190 -50 261 57 106 189 154 293 106z"/>
<path d="M1060 1568 c0 -16 -11 -28 -33 -38 -71 -33 -58 -104 24 -139 49 -20
59 -37 37 -59 -15 -15 -63 -16 -89 -2 -16 9 -19 7 -19 -14 0 -19 7 -27 25 -32
18 -4 25 -13 25 -29 0 -36 20 -40 32 -7 7 19 23 33 44 41 38 14 56 52 42 93
-7 19 -24 34 -59 49 -39 18 -49 27 -47 43 3 18 10 21 51 19 40 -1 47 2 47 17
0 10 -9 22 -20 25 -13 4 -20 15 -20 31 0 17 -5 24 -20 24 -14 0 -20 -7 -20
-22z"/>
<path d="M335 1371 c-41 -8 -47 -52 -12 -90 31 -32 57 -83 57 -110 0 -12 -26
-42 -67 -77 -38 -31 -84 -75 -103 -98 -48 -56 -48 -56 -112 -54 -98 2 -98 3
-98 -242 0 -194 1 -208 20 -225 16 -14 30 -17 76 -12 61 6 65 4 119 -67 16
-21 56 -58 89 -83 34 -26 67 -53 74 -61 8 -10 12 -50 12 -112 0 -88 2 -98 23
-118 20 -19 35 -22 103 -22 71 0 83 3 102 23 12 13 22 35 22 48 0 14 6 34 14
44 12 17 31 18 217 19 224 2 239 -2 239 -56 0 -17 10 -39 25 -53 21 -22 33
-25 99 -25 41 0 82 3 91 6 31 12 45 59 45 153 l0 90 69 55 c99 79 145 140 191
250 19 45 22 48 48 42 83 -20 107 -19 137 7 17 13 49 28 72 32 76 12 142 75
97 92 -9 3 -25 1 -36 -6 -11 -7 -30 -16 -43 -21 -22 -8 -23 -7 -18 30 13 95
-88 143 -153 73 -35 -38 -33 -87 6 -123 37 -34 38 -42 4 -38 -39 4 -82 63 -94
128 -15 78 -69 186 -123 246 -26 29 -79 73 -117 100 l-71 48 -25 -26 c-25 -25
-26 -26 -9 -52 16 -24 16 -28 1 -51 -20 -30 -44 -31 -97 -4 -105 53 -267 72
-384 44 -52 -12 -63 -12 -82 1 -30 19 -29 55 2 82 30 26 30 28 4 71 -19 32
-22 33 -65 26 -42 -6 -47 -4 -96 39 -70 61 -172 92 -253 77z m172 -391 c31
-11 53 -45 53 -81 0 -33 -44 -69 -84 -69 -79 0 -106 121 -33 150 29 12 29 12
64 0z m1321 -234 c4 -36 -7 -46 -35 -35 -23 8 -32 47 -16 63 17 17 48 0 51
-28z"/>
</g>
</svg>
