<?xml version="1.0" standalone="no"?>
<!DOCTYPE svg PUBLIC "-//W3C//DTD SVG 20010904//EN"
 "http://www.w3.org/TR/2001/REC-SVG-20010904/DTD/svg10.dtd">
<svg version="1.0" xmlns="http://www.w3.org/2000/svg"
 width="200.000000pt" height="200.000000pt" viewBox="0 0 200.000000 200.000000"
 preserveAspectRatio="xMidYMid meet">
<metadata>
Created by potrace 1.16, written by Peter Selinger 2001-2019
</metadata>
<g transform="translate(0.000000,200.000000) scale(0.100000,-0.100000)"
fill="#000000" stroke="none">
<path d="M473 1880 c-13 -5 -32 -24 -43 -42 -19 -30 -20 -47 -18 -186 l3 -154
33 -29 c18 -16 44 -29 58 -29 24 0 25 -2 22 -55 l-3 -56 -169 -74 c-92 -40
-180 -84 -193 -97 -53 -48 -53 -52 -53 -548 0 -299 4 -468 10 -481 12 -21 50
-25 68 -7 9 9 12 128 12 474 l0 463 23 25 c13 15 89 54 187 96 226 98 210 84
210 180 l0 80 378 -2 377 -3 5 -83 5 -83 222 -96 c243 -104 273 -110 273 -53
0 16 -6 32 -12 37 -7 4 -98 44 -203 89 l-190 81 0 54 c0 46 3 54 20 57 79 12
95 51 95 224 0 147 -13 192 -60 215 -30 15 -1021 18 -1057 3z m1025 -218 l3
-132 -498 2 -498 3 -3 119 c-1 66 0 126 2 133 4 11 98 13 498 11 l493 -3 3
-133z"/>
<path d="M1403 800 c-34 -14 -32 -67 3 -80 14 -6 116 -10 227 -10 221 0 252 7
252 50 0 44 -31 50 -255 49 -113 0 -215 -4 -227 -9z"/>
<path d="M726 478 c-13 -19 -14 -25 -2 -43 13 -19 23 -20 246 -20 223 0 233 1
246 20 12 18 11 24 -2 43 -15 22 -19 22 -244 22 -225 0 -229 0 -244 -22z"/>
<path d="M1392 488 c-7 -7 -12 -21 -12 -33 0 -43 13 -45 251 -45 194 0 230 2
243 16 9 8 16 22 16 29 0 7 -7 21 -16 29 -13 14 -49 16 -243 16 -163 0 -230
-3 -239 -12z"/>
<path d="M721 178 c-6 -15 -5 -30 4 -43 12 -19 25 -20 241 -23 222 -2 230 -2
246 18 14 17 15 26 6 46 l-11 24 -239 0 c-238 0 -239 0 -247 -22z"/>
<path d="M1392 188 c-7 -7 -12 -21 -12 -33 0 -43 13 -45 251 -45 194 0 230 2
243 16 19 18 20 28 6 55 -10 18 -24 19 -243 19 -168 0 -236 -3 -245 -12z"/>
</g>
</svg>
