<?xml version="1.0" standalone="no"?>
<!DOCTYPE svg PUBLIC "-//W3C//DTD SVG 20010904//EN"
 "http://www.w3.org/TR/2001/REC-SVG-20010904/DTD/svg10.dtd">
<svg version="1.0" xmlns="http://www.w3.org/2000/svg"
 width="200.000000pt" height="200.000000pt" viewBox="0 0 200.000000 200.000000"
 preserveAspectRatio="xMidYMid meet">
<metadata>
Created by potrace 1.16, written by Peter Selinger 2001-2019
</metadata>
<g transform="translate(0.000000,200.000000) scale(0.100000,-0.100000)"
fill="#000000" stroke="none">
<path d="M928 1864 c-5 -4 -8 -130 -8 -280 0 -305 -5 -284 74 -298 58 -11 146
-59 188 -103 20 -21 52 -65 70 -98 l34 -60 289 0 290 0 3 32 c4 38 -45 187
-89 275 -125 248 -335 421 -614 508 -73 22 -225 38 -237 24z"/>
<path d="M703 1675 c-214 -58 -407 -221 -503 -426 -96 -207 -95 -468 4 -674
37 -78 89 -153 111 -162 15 -5 277 237 283 263 2 7 -8 34 -21 61 -34 65 -51
159 -43 226 15 120 104 242 213 295 l58 27 3 189 c3 193 -1 217 -37 215 -9 0
-39 -7 -68 -14z"/>
<path d="M884 1200 c-5 -22 -15 -34 -38 -44 -117 -49 -118 -204 -2 -257 23
-10 57 -19 77 -19 24 0 45 -8 63 -25 53 -49 19 -121 -61 -132 -32 -4 -45 0
-70 21 -18 15 -33 36 -35 48 -5 31 -34 46 -53 28 -32 -32 21 -123 86 -150 20
-9 29 -20 29 -35 0 -51 54 -55 65 -5 4 20 18 35 43 48 57 29 85 77 79 135 -7
74 -56 118 -149 131 -93 14 -130 83 -72 137 37 35 108 33 141 -5 13 -15 23
-35 23 -45 0 -24 23 -43 44 -35 23 9 20 62 -4 102 -12 19 -37 41 -59 50 -27
12 -41 25 -47 47 -6 20 -16 31 -32 33 -18 3 -23 -2 -28 -28z"/>
<path d="M1303 868 c-5 -7 -15 -33 -22 -58 -18 -65 -53 -119 -109 -172 -63
-59 -115 -85 -199 -100 -68 -11 -82 -10 -228 28 -18 5 -36 -19 -123 -154 -62
-96 -100 -166 -96 -175 3 -8 36 -29 73 -45 175 -78 414 -83 605 -11 32 11 98
48 146 80 182 122 303 308 341 523 11 64 10 70 -7 83 -25 18 -367 19 -381 1z"/>
</g>
</svg>
