<?xml version="1.0" standalone="no"?>
<!DOCTYPE svg PUBLIC "-//W3C//DTD SVG 20010904//EN"
 "http://www.w3.org/TR/2001/REC-SVG-20010904/DTD/svg10.dtd">
<svg version="1.0" xmlns="http://www.w3.org/2000/svg"
 width="200.000000pt" height="200.000000pt" viewBox="0 0 200.000000 200.000000"
 preserveAspectRatio="xMidYMid meet">
<metadata>
Created by potrace 1.16, written by Peter Selinger 2001-2019
</metadata>
<g transform="translate(0.000000,200.000000) scale(0.100000,-0.100000)"
fill="#000000" stroke="none">
<path d="M825 1794 c-41 -8 -117 -37 -184 -71 -102 -49 -125 -66 -206 -147
-165 -164 -244 -350 -245 -574 0 -322 178 -603 471 -742 168 -79 403 -92 587
-32 109 36 209 92 286 163 77 71 76 85 -18 178 l-75 74 -43 -43 c-105 -106
-211 -151 -367 -158 -184 -8 -296 34 -422 158 -147 145 -200 335 -149 535 64
251 285 424 543 425 l57 0 0 108 c0 135 -6 142 -101 141 -35 0 -95 -7 -134
-15z"/>
<path d="M1212 1754 c-20 -14 -22 -23 -22 -119 l0 -104 43 -19 c108 -49 219
-157 271 -264 63 -129 73 -302 26 -436 l-23 -64 69 -69 c62 -63 72 -70 104
-67 31 3 38 9 59 53 40 84 62 175 68 282 19 343 -156 638 -467 787 -84 40 -96
42 -128 20z"/>
<path d="M901 1425 c-217 -48 -371 -277 -332 -496 64 -355 502 -490 744 -229
66 70 102 142 117 233 39 219 -116 445 -336 492 -83 18 -110 18 -193 0z m141
-132 c10 -9 18 -27 18 -40 0 -21 4 -23 44 -23 67 0 103 -48 72 -95 -16 -24
-22 -25 -114 -25 -102 0 -129 -8 -119 -34 5 -12 21 -16 69 -16 85 0 126 -22
157 -83 17 -35 22 -56 17 -82 -8 -43 -50 -94 -93 -111 -23 -10 -33 -21 -33
-36 0 -12 -7 -30 -17 -40 -33 -37 -103 -11 -103 39 0 20 -5 23 -41 23 -22 0
-49 4 -59 10 -26 14 -34 57 -15 86 15 23 21 24 113 24 102 0 129 8 119 34 -5
12 -21 16 -72 16 -39 0 -78 6 -95 15 -104 54 -102 205 4 257 32 15 46 28 46
42 0 48 64 73 102 39z"/>
</g>
</svg>
