<?xml version="1.0" standalone="no"?>
<!DOCTYPE svg PUBLIC "-//W3C//DTD SVG 20010904//EN"
 "http://www.w3.org/TR/2001/REC-SVG-20010904/DTD/svg10.dtd">
<svg version="1.0" xmlns="http://www.w3.org/2000/svg"
 width="200.000000pt" height="200.000000pt" viewBox="0 0 200.000000 200.000000"
 preserveAspectRatio="xMidYMid meet">
<metadata>
Created by potrace 1.16, written by Peter Selinger 2001-2019
</metadata>
<g transform="translate(0.000000,200.000000) scale(0.100000,-0.100000)"
fill="#000000" stroke="none">
<path d="M892 1929 c-184 -32 -365 -167 -448 -334 -48 -98 -64 -165 -64 -279
0 -154 43 -283 131 -388 l39 -47 -226 -3 c-226 -3 -226 -3 -246 -27 -22 -28
-18 -68 9 -88 13 -10 212 -13 914 -13 786 0 899 2 913 15 40 41 22 97 -35 109
-17 3 -121 6 -231 6 l-200 0 37 43 c45 52 110 184 124 255 16 75 13 206 -5
282 -48 208 -208 378 -422 449 -72 25 -212 34 -290 20z m231 -134 c210 -55
356 -233 374 -455 12 -159 -66 -329 -197 -425 l-48 -35 -252 0 -252 0 -49 36
c-143 105 -221 299 -191 477 33 192 177 351 363 401 71 19 181 20 252 1z"/>
<path d="M970 1677 c-20 -10 -26 -21 -28 -54 -3 -36 -6 -41 -33 -47 -44 -9
-87 -42 -109 -86 -33 -65 -23 -129 28 -184 39 -41 82 -56 165 -56 81 0 101
-11 95 -52 -3 -22 -7 -23 -134 -28 -111 -4 -135 -8 -153 -24 -52 -47 -4 -106
85 -106 l54 0 0 -39 c0 -47 20 -71 60 -71 39 0 60 24 60 70 0 37 2 40 38 49
64 18 122 93 122 159 -1 47 -36 109 -78 137 -32 21 -56 27 -133 33 -88 7 -94
8 -97 30 -7 46 11 52 144 52 111 0 126 2 144 20 11 11 20 29 20 40 0 39 -35
60 -100 60 l-60 0 0 33 c0 58 -42 88 -90 64z"/>
<path d="M203 619 c-51 -9 -92 -39 -119 -82 -17 -28 -19 -51 -19 -194 l0 -161
30 -44 c46 -65 95 -79 265 -76 121 3 139 5 176 27 74 42 84 74 84 258 0 149
-1 162 -22 193 -32 46 -68 71 -119 81 -55 10 -220 10 -276 -2z m287 -138 c13
-25 13 -247 0 -272 -10 -17 -22 -19 -143 -19 -90 0 -137 4 -145 12 -17 17 -17
269 0 286 8 8 55 12 145 12 121 0 133 -2 143 -19z"/>
<path d="M860 621 c-51 -11 -76 -27 -107 -68 l-28 -36 0 -172 0 -172 28 -36
c50 -65 72 -72 247 -72 175 0 197 7 247 72 27 36 28 39 31 189 4 182 -8 224
-78 270 -39 26 -48 28 -173 30 -73 2 -148 0 -167 -5z m284 -143 c12 -17 16
-49 16 -133 0 -157 2 -155 -157 -155 -167 0 -163 -4 -163 149 0 165 -4 161
160 161 122 0 130 -1 144 -22z"/>
<path d="M1517 621 c-117 -25 -157 -120 -144 -338 4 -76 10 -102 31 -137 41
-70 74 -81 251 -81 174 0 209 11 253 78 26 40 27 44 27 196 0 185 -10 215 -83
258 -41 24 -55 27 -171 29 -69 2 -143 -1 -164 -5z m281 -133 c17 -17 17 -269
0 -286 -17 -17 -269 -17 -286 0 -8 8 -12 54 -12 143 0 89 4 135 12 143 17 17
269 17 286 0z"/>
</g>
</svg>
