<?xml version="1.0" standalone="no"?>
<!DOCTYPE svg PUBLIC "-//W3C//DTD SVG 20010904//EN"
 "http://www.w3.org/TR/2001/REC-SVG-20010904/DTD/svg10.dtd">
<svg version="1.0" xmlns="http://www.w3.org/2000/svg"
 width="200.000000pt" height="200.000000pt" viewBox="0 0 200.000000 200.000000"
 preserveAspectRatio="xMidYMid meet">
<metadata>
Created by potrace 1.16, written by Peter Selinger 2001-2019
</metadata>
<g transform="translate(0.000000,200.000000) scale(0.100000,-0.100000)"
fill="#000000" stroke="none">
<path d="M300 1794 c-45 -20 -68 -41 -91 -86 -16 -32 -19 -60 -19 -205 1 -215
16 -257 113 -298 30 -12 93 -15 380 -15 l345 0 57 25 c89 40 179 57 275 53
l85 -3 15 30 c11 22 16 72 18 193 3 159 3 166 -22 215 -15 32 -40 62 -62 77
l-38 25 -510 2 c-439 2 -516 0 -546 -13z"/>
<path d="M1220 1133 c-61 -12 -167 -74 -223 -130 -193 -193 -186 -504 15 -689
100 -92 208 -130 348 -121 147 9 266 71 352 184 60 80 89 158 95 258 13 200
-91 376 -274 463 -73 35 -84 37 -183 39 -58 1 -116 -1 -130 -4z m138 -185 c6
-7 12 -26 14 -43 3 -28 6 -30 53 -33 55 -4 75 -15 75 -43 0 -28 -18 -34 -129
-39 -85 -4 -106 -8 -115 -22 -22 -35 4 -52 85 -58 56 -4 83 -12 107 -28 35
-26 58 -85 48 -125 -9 -39 -54 -86 -89 -95 -27 -7 -33 -14 -37 -43 -4 -26 -10
-35 -28 -37 -31 -5 -52 15 -52 49 0 27 -2 28 -51 31 -59 3 -82 25 -63 55 9 15
28 18 100 20 112 4 130 8 137 32 10 39 -15 55 -94 59 -112 7 -158 52 -146 145
6 48 54 97 94 97 19 0 23 5 23 29 0 47 43 78 68 49z"/>
<path d="M190 977 c0 -116 4 -149 19 -182 42 -93 81 -105 324 -105 l194 0 6
59 c8 77 47 179 96 252 l38 57 -281 4 -281 3 -57 27 -58 27 0 -142z"/>
<path d="M190 477 c1 -187 20 -233 113 -272 30 -12 90 -15 349 -15 l313 0 -38
31 c-74 61 -149 186 -177 296 l-10 41 -218 4 c-211 3 -219 4 -274 30 l-58 27
0 -142z"/>
</g>
</svg>
