<?xml version="1.0" standalone="no"?>
<!DOCTYPE svg PUBLIC "-//W3C//DTD SVG 20010904//EN"
 "http://www.w3.org/TR/2001/REC-SVG-20010904/DTD/svg10.dtd">
<svg version="1.0" xmlns="http://www.w3.org/2000/svg"
 width="200.000000pt" height="200.000000pt" viewBox="0 0 200.000000 200.000000"
 preserveAspectRatio="xMidYMid meet">
<metadata>
Created by potrace 1.16, written by Peter Selinger 2001-2019
</metadata>
<g transform="translate(0.000000,200.000000) scale(0.100000,-0.100000)"
fill="#000000" stroke="none">
<path d="M882 1914 c-73 -27 -142 -100 -191 -203 -24 -51 -41 -94 -38 -98 15
-14 34 10 62 78 56 137 155 209 285 209 146 0 228 -69 307 -257 13 -33 27 -41
37 -24 10 16 -81 186 -120 223 -66 62 -117 83 -214 85 -57 2 -99 -3 -128 -13z"/>
<path d="M553 1573 c-36 -7 -66 -52 -59 -88 13 -62 -9 -60 518 -65 l482 -5 62
-139 c34 -77 69 -147 78 -158 24 -27 80 -28 108 0 37 37 31 60 -60 262 l-87
195 -510 1 c-281 1 -520 -1 -532 -3z m1101 -207 c87 -196 93 -229 39 -234 -39
-4 -36 -8 -117 173 l-62 140 -479 3 c-333 1 -482 6 -492 13 -13 12 -18 61 -6
72 3 4 239 7 523 7 l517 0 77 -174z"/>
<path d="M541 1373 c-35 -68 -302 -679 -315 -722 -45 -154 3 -332 123 -451 76
-77 162 -117 271 -130 110 -13 650 -13 760 0 292 33 480 327 386 603 -14 40
-89 216 -168 391 -128 284 -168 360 -168 314 0 -8 63 -155 141 -328 77 -173
151 -347 165 -387 78 -230 -57 -487 -288 -549 -77 -20 -819 -20 -896 0 -118
32 -213 114 -270 234 -35 74 -37 82 -37 182 l0 105 163 365 c89 201 162 371
162 378 0 18 -18 15 -29 -5z"/>
<path d="M957 1174 c-4 -4 -7 -22 -7 -40 0 -29 -5 -35 -43 -52 -73 -32 -107
-110 -92 -207 8 -60 54 -111 137 -155 94 -49 118 -75 118 -126 0 -54 -20 -74
-70 -74 -43 0 -62 19 -75 73 -7 26 -10 27 -71 27 -72 0 -72 0 -53 -77 14 -55
73 -120 117 -129 27 -5 31 -11 34 -43 3 -36 3 -36 48 -36 44 0 45 1 48 35 3
31 8 37 48 54 87 36 129 131 104 237 -16 65 -60 111 -157 162 -100 52 -124 92
-87 145 29 42 104 18 104 -34 0 -31 20 -44 70 -44 60 0 69 10 59 67 -11 59
-52 112 -100 131 -33 13 -38 19 -41 51 -3 34 -5 36 -43 39 -23 2 -44 0 -48 -4z
m63 -61 c0 -36 2 -39 47 -53 51 -16 79 -47 89 -97 6 -32 6 -33 -29 -33 -29 0
-36 4 -41 25 -10 39 -42 65 -80 65 -48 0 -65 -8 -81 -41 -37 -71 -4 -129 104
-184 89 -44 127 -85 142 -149 20 -92 -25 -185 -97 -201 -52 -12 -54 -14 -54
-50 0 -28 -4 -35 -20 -35 -16 0 -20 7 -20 35 0 36 -2 38 -54 50 -39 8 -81 55
-94 105 l-10 40 39 0 c32 0 39 -4 39 -19 0 -11 12 -33 26 -50 23 -28 32 -31
79 -31 46 0 57 4 74 26 25 32 28 101 7 142 -14 26 -27 36 -145 105 -64 38 -89
69 -97 119 -14 85 26 158 97 179 37 11 39 15 39 51 0 31 3 38 20 38 16 0 20
-7 20 -37z"/>
</g>
</svg>
