<?xml version="1.0" standalone="no"?>
<!DOCTYPE svg PUBLIC "-//W3C//DTD SVG 20010904//EN"
 "http://www.w3.org/TR/2001/REC-SVG-20010904/DTD/svg10.dtd">
<svg version="1.0" xmlns="http://www.w3.org/2000/svg"
 width="200.000000pt" height="200.000000pt" viewBox="0 0 200.000000 200.000000"
 preserveAspectRatio="xMidYMid meet">
<metadata>
Created by potrace 1.16, written by Peter Selinger 2001-2019
</metadata>
<g transform="translate(0.000000,200.000000) scale(0.100000,-0.100000)"
fill="#000000" stroke="none">
<path d="M1094 1915 c-22 -13 -46 -35 -52 -49 -10 -22 -18 -26 -57 -26 -42 0
-51 -5 -99 -50 l-53 -50 -187 0 c-110 0 -195 -4 -207 -10 -18 -10 -19 -24 -19
-280 l0 -269 -146 -3 c-146 -3 -146 -3 -170 -31 l-24 -28 0 -495 c0 -522 2
-541 45 -558 9 -3 412 -6 895 -6 859 0 880 0 890 19 7 13 10 289 10 825 0 718
-2 806 -16 820 -13 13 -46 16 -207 16 l-191 0 -48 47 c-42 42 -53 47 -103 51
-33 3 -55 9 -55 16 0 18 -50 63 -83 75 -44 17 -78 13 -123 -14z m112 -70 c12
-8 24 -28 27 -45 8 -36 37 -50 105 -50 42 0 51 -5 94 -47 38 -37 48 -54 48
-80 l0 -33 -310 0 -310 0 0 32 c0 25 11 43 47 80 43 44 51 48 94 48 62 0 99
14 99 38 0 29 38 72 64 72 12 0 31 -7 42 -15z m-426 -220 l0 -35 -93 0 c-59 0
-97 -4 -105 -12 -9 -9 -12 -68 -12 -205 l0 -193 -35 0 -35 0 0 240 0 240 140
0 140 0 0 -35z m1060 -725 l0 -760 -375 0 -375 0 0 30 0 30 318 0 c271 0 321
2 340 16 l22 15 0 668 c0 505 -3 670 -12 679 -8 8 -46 12 -105 12 l-93 0 0 35
0 35 140 0 140 0 0 -760z m-150 0 l0 -610 -300 0 -300 0 0 340 0 340 44 0 c25
0 56 4 71 10 l25 10 -2 217 -3 218 -240 3 c-217 2 -241 1 -252 -15 -9 -11 -13
-54 -13 -125 l0 -108 -35 0 -35 0 0 165 0 165 520 0 520 0 0 -610z m-540 305
l0 -145 -30 0 c-27 0 -30 3 -30 34 0 19 -9 44 -19 57 -18 23 -27 24 -145 27
l-126 4 0 84 0 84 175 0 175 0 0 -145z m-140 -585 l0 -480 -425 0 -425 0 0
480 0 480 425 0 425 0 0 -480z"/>
<path d="M1432 1418 c-7 -7 -12 -20 -12 -30 0 -13 -8 -18 -31 -18 -41 0 -89
-47 -89 -89 0 -62 44 -111 100 -111 13 0 20 -7 20 -19 0 -17 -8 -20 -51 -23
-96 -6 -96 -70 -1 -76 43 -3 51 -6 54 -24 5 -34 33 -46 57 -24 12 11 21 25 21
33 0 7 11 13 26 13 15 0 38 12 55 29 59 60 27 171 -51 171 -23 0 -30 4 -30 20
0 17 7 20 44 20 51 0 71 18 62 55 -6 22 -11 25 -54 25 -44 0 -49 2 -59 30 -12
32 -39 40 -61 18z m-12 -149 c0 -14 -5 -19 -17 -17 -26 5 -29 38 -4 38 15 0
21 -6 21 -21z m110 -119 c0 -11 -7 -20 -15 -20 -8 0 -15 9 -15 20 0 11 7 20
15 20 8 0 15 -9 15 -20z"/>
<path d="M1178 859 c-21 -12 -23 -40 -6 -57 17 -17 229 -17 246 0 18 18 14 46
-7 58 -25 13 -211 13 -233 -1z"/>
<path d="M1178 719 c-21 -12 -23 -40 -6 -57 9 -9 72 -12 220 -12 l208 0 6 25
c13 52 -1 55 -215 55 -114 0 -203 -5 -213 -11z"/>
<path d="M1188 583 c-37 -9 -33 -67 5 -77 37 -10 364 -7 391 4 19 7 26 17 26
35 0 18 -7 28 -26 35 -25 10 -362 12 -396 3z"/>
<path d="M1188 443 c-37 -9 -33 -67 5 -77 37 -10 364 -7 391 4 19 7 26 17 26
35 0 18 -7 28 -26 35 -25 10 -362 12 -396 3z"/>
<path d="M230 1030 c-6 -12 -9 -78 -8 -172 3 -151 3 -153 28 -165 31 -16 634
-19 674 -3 l26 10 0 163 c0 113 -4 167 -12 175 -9 9 -101 12 -355 12 -331 0
-343 -1 -353 -20z m640 -160 l0 -100 -285 0 -285 0 0 100 0 100 285 0 285 0 0
-100z"/>
<path d="M237 622 c-13 -14 -17 -37 -17 -88 0 -101 5 -105 120 -102 l95 3 3
88 c2 57 -1 94 -9 103 -8 10 -35 14 -94 14 -67 0 -85 -3 -98 -18z m123 -87 c0
-21 -5 -25 -30 -25 -25 0 -30 4 -30 25 0 21 5 25 30 25 25 0 30 -4 30 -25z"/>
<path d="M491 626 c-8 -9 -11 -46 -9 -103 l3 -88 94 -3 c60 -2 98 1 107 9 21
17 19 162 -2 183 -21 22 -176 23 -193 2z m129 -91 c0 -21 -5 -25 -30 -25 -25
0 -30 4 -30 25 0 21 5 25 30 25 25 0 30 -4 30 -25z"/>
<path d="M746 624 c-20 -19 -23 -163 -4 -182 16 -16 180 -16 196 0 7 7 12 43
12 93 0 50 -5 86 -12 93 -19 19 -173 16 -192 -4z m124 -89 c0 -21 -5 -25 -30
-25 -25 0 -30 4 -30 25 0 21 5 25 30 25 25 0 30 -4 30 -25z"/>
<path d="M230 381 c-14 -28 -13 -154 3 -174 10 -15 27 -17 107 -15 l95 3 3 88
c2 57 -1 94 -9 103 -8 10 -36 14 -100 14 -77 0 -90 -2 -99 -19z m130 -86 c0
-21 -5 -25 -30 -25 -25 0 -30 4 -30 25 0 21 5 25 30 25 25 0 30 -4 30 -25z"/>
<path d="M491 386 c-8 -9 -11 -46 -9 -103 l3 -88 94 -3 c60 -2 98 1 107 9 17
14 20 150 4 180 -9 17 -22 19 -99 19 -64 0 -92 -4 -100 -14z m129 -91 c0 -21
-5 -25 -30 -25 -25 0 -30 4 -30 25 0 21 5 25 30 25 25 0 30 -4 30 -25z"/>
<path d="M742 388 c-16 -16 -16 -170 0 -186 16 -16 180 -16 196 0 7 7 12 43
12 93 0 50 -5 86 -12 93 -7 7 -44 12 -98 12 -54 0 -91 -5 -98 -12z m128 -93
c0 -21 -5 -25 -30 -25 -25 0 -30 4 -30 25 0 21 5 25 30 25 25 0 30 -4 30 -25z"/>
</g>
</svg>
