<?xml version="1.0" standalone="no"?>
<!DOCTYPE svg PUBLIC "-//W3C//DTD SVG 20010904//EN"
 "http://www.w3.org/TR/2001/REC-SVG-20010904/DTD/svg10.dtd">
<svg version="1.0" xmlns="http://www.w3.org/2000/svg"
 width="200.000000pt" height="200.000000pt" viewBox="0 0 200.000000 200.000000"
 preserveAspectRatio="xMidYMid meet">
<metadata>
Created by potrace 1.16, written by Peter Selinger 2001-2019
</metadata>
<g transform="translate(0.000000,200.000000) scale(0.100000,-0.100000)"
fill="#000000" stroke="none">
<path d="M726 1793 c5 -10 10 -159 12 -330 l3 -313 71 0 c67 0 70 1 56 18 -35
41 -29 88 16 118 67 43 145 -42 98 -106 l-21 -28 44 -17 c25 -9 56 -30 69 -46
l25 -29 159 0 c162 0 177 -3 165 -37 -4 -10 -44 -13 -155 -13 -133 0 -149 -2
-144 -16 3 -9 6 -20 6 -25 0 -5 61 -9 139 -9 l139 0 35 88 35 87 -208 3 c-169
2 -210 5 -220 17 -10 12 -10 18 0 30 10 13 49 15 236 15 217 0 223 1 229 21 5
13 1 25 -10 32 -22 17 -9 47 20 47 19 0 29 17 74 125 45 111 51 132 51 197 0
83 -18 129 -63 162 -28 20 -42 21 -449 24 -403 3 -420 2 -412 -15z m237 -203
c42 -45 47 -67 16 -78 l-20 -8 20 -18 c31 -28 26 -51 -19 -97 l-40 -42 -40 39
c-40 39 -52 78 -27 87 18 6 37 -3 37 -18 0 -15 27 -28 41 -19 12 7 -8 34 -26
34 -24 0 -65 41 -65 65 0 24 55 92 75 94 6 1 27 -17 48 -39z m412 -65 c0 -19
-8 -20 -162 -23 l-163 -2 0 25 0 25 163 -2 c154 -3 162 -4 162 -23z m144 -103
c20 -38 -2 -42 -236 -42 -190 0 -225 2 -229 15 -4 8 -4 22 0 30 4 13 40 15
230 15 209 0 226 -1 235 -18z m-99 -137 c25 -30 0 -35 -185 -35 -146 0 -184 3
-188 14 -12 31 16 36 189 36 138 0 174 -3 184 -15z"/>
<path d="M896 1541 c-5 -8 43 -35 51 -28 2 2 1 12 -3 21 -6 17 -39 22 -48 7z"/>
<path d="M545 1775 c-22 -21 -25 -33 -25 -90 l0 -65 85 0 85 0 0 65 c0 57 -3
69 -25 90 -16 17 -35 25 -60 25 -25 0 -44 -8 -60 -25z"/>
<path d="M1855 1745 c32 -14 41 -13 30 4 -3 6 -18 11 -33 10 l-27 -1 30 -13z"/>
<path d="M1784 1702 c-14 -9 -44 -67 -44 -85 0 -8 25 -24 57 -36 51 -20 59
-20 69 -7 15 22 34 20 34 -2 0 -11 -18 -63 -41 -117 -37 -89 -39 -99 -25 -113
23 -23 35 -7 86 120 39 96 42 109 31 136 -7 16 -23 34 -37 40 -13 7 -24 16
-24 22 0 6 -21 20 -46 30 -53 23 -46 22 -60 12z"/>
<path d="M1630 1359 c-46 -110 -81 -201 -79 -203 2 -2 30 -16 62 -30 53 -23
58 -24 64 -8 4 9 41 100 84 202 52 127 73 187 65 192 -7 4 -35 16 -63 27 l-51
20 -82 -200z"/>
<path d="M902 1223 c5 -26 38 -29 38 -4 0 15 -6 21 -21 21 -14 0 -19 -5 -17
-17z"/>
<path d="M438 1091 c-21 -4 -47 -16 -59 -27 -44 -40 -49 -64 -49 -249 l0 -175
35 0 35 0 0 48 c0 71 4 73 106 70 l89 -3 3 -199 c2 -138 -1 -203 -9 -212 -6
-8 -27 -14 -45 -14 l-34 0 0 -60 0 -60 220 0 c239 0 264 4 310 55 l25 27 3
351 c3 483 27 451 -343 454 -137 1 -267 -2 -287 -6z m533 -100 c22 -17 24 -27
24 -98 l0 -78 -292 -3 -293 -2 -6 25 c-4 14 -4 51 -2 82 8 94 6 93 298 93 229
0 250 -1 271 -19z m-176 -306 l0 -70 -80 0 -80 0 -3 59 c-5 87 -4 87 85 84
l78 -3 0 -70z m200 52 c4 -13 5 -46 3 -73 l-3 -49 -80 0 -80 0 -3 59 c-4 86
-4 86 82 86 71 0 76 -2 81 -23z m-200 -242 l0 -70 -80 0 -80 0 -3 59 c-5 87
-4 87 85 84 l78 -3 0 -70z m203 21 c2 -27 1 -60 -3 -73 -5 -23 -9 -24 -83 -21
l-77 3 -3 59 c-5 87 -4 87 85 84 l78 -3 3 -49z m-80 -150 c6 -29 -16 -36 -111
-36 -91 0 -108 8 -93 45 5 13 23 15 103 13 86 -3 98 -5 101 -22z"/>
<path d="M467 954 c-4 -4 -7 -27 -7 -51 l0 -43 241 0 240 0 -3 48 -3 47 -231
3 c-127 1 -233 -1 -237 -4z"/>
<path d="M687 704 c-4 -4 -7 -16 -7 -26 0 -14 8 -18 36 -18 31 0 35 3 32 23
-2 15 -11 23 -28 25 -14 2 -29 0 -33 -4z"/>
<path d="M880 685 c0 -21 5 -25 30 -25 25 0 30 4 30 25 0 21 -5 25 -30 25 -25
0 -30 -4 -30 -25z"/>
<path d="M680 495 c0 -22 4 -25 35 -25 31 0 35 3 35 25 0 22 -4 25 -35 25 -31
0 -35 -3 -35 -25z"/>
<path d="M880 495 c0 -21 5 -25 30 -25 25 0 30 4 30 25 0 21 -5 25 -30 25 -25
0 -30 -4 -30 -25z"/>
<path d="M1497 1039 l-26 -60 55 -25 c30 -13 58 -24 63 -24 8 0 64 120 59 125
-4 5 -112 45 -119 45 -3 0 -18 -27 -32 -61z"/>
<path d="M1457 907 c4 -12 6 -31 5 -42 -1 -11 -3 -33 -4 -50 -5 -47 27 -45 52
4 11 23 27 41 35 41 35 0 19 19 -36 43 -60 26 -60 26 -52 4z"/>
<path d="M1130 845 l0 -65 136 0 c117 0 135 2 130 15 -3 8 -1 27 5 42 5 15 8
38 4 50 -5 23 -8 23 -140 23 l-135 0 0 -65z"/>
<path d="M1631 870 c-5 -17 -24 -38 -40 -48 -50 -28 -47 -42 9 -42 l50 0 0 60
c0 33 -2 60 -4 60 -2 0 -9 -14 -15 -30z"/>
<path d="M1130 640 l0 -90 298 0 c177 0 312 4 335 11 28 8 42 19 54 45 16 31
16 37 0 68 -12 26 -26 37 -54 45 -23 7 -158 11 -335 11 l-298 0 0 -90z"/>
<path d="M460 675 l0 -36 43 3 c39 3 42 5 42 33 0 28 -3 30 -42 33 l-43 3 0
-36z"/>
<path d="M132 543 l3 -48 205 0 205 0 3 48 3 47 -211 0 -211 0 3 -47z"/>
<path d="M42 393 l3 -48 205 0 205 0 3 48 3 47 -211 0 -211 0 3 -47z"/>
<path d="M510 415 c0 -18 5 -25 20 -25 15 0 20 7 20 25 0 18 -5 25 -20 25 -15
0 -20 -7 -20 -25z"/>
<path d="M42 243 l3 -48 205 0 205 0 3 48 3 47 -211 0 -211 0 3 -47z"/>
</g>
</svg>
