<?xml version="1.0" standalone="no"?>
<!DOCTYPE svg PUBLIC "-//W3C//DTD SVG 20010904//EN"
 "http://www.w3.org/TR/2001/REC-SVG-20010904/DTD/svg10.dtd">
<svg version="1.0" xmlns="http://www.w3.org/2000/svg"
 width="200.000000pt" height="200.000000pt" viewBox="0 0 200.000000 200.000000"
 preserveAspectRatio="xMidYMid meet">
<metadata>
Created by potrace 1.16, written by Peter Selinger 2001-2019
</metadata>
<g transform="translate(0.000000,200.000000) scale(0.100000,-0.100000)"
fill="#000000" stroke="none">
<path d="M565 1860 c-58 -28 -76 -66 -83 -166 -7 -113 -6 -114 124 -114 l104
0 0 -224 0 -223 -139 -5 c-131 -4 -142 -6 -180 -31 -69 -46 -75 -67 -79 -274
l-4 -183 -92 0 c-84 0 -95 -2 -114 -23 -17 -18 -22 -36 -22 -80 0 -51 -2 -57
-21 -57 -11 0 -29 -5 -40 -10 -17 -10 -19 -23 -19 -165 0 -152 0 -155 24 -170
21 -14 58 -16 250 -13 221 3 226 3 241 26 16 22 19 22 252 22 234 0 237 0 279
25 63 37 84 88 84 203 l0 91 349 3 c335 3 351 4 377 24 48 36 67 69 66 118 -1
77 -60 136 -137 136 l-35 0 0 178 0 177 97 237 c54 131 100 233 102 227 2 -6
-16 -58 -39 -115 -42 -103 -46 -139 -13 -132 20 4 103 200 103 245 0 17 -7 39
-17 48 -11 11 -16 35 -17 76 -2 64 -14 83 -58 94 -22 6 -34 -1 -72 -39 -26
-25 -55 -65 -65 -88 l-18 -43 -7 50 c-5 28 -14 64 -20 80 -17 41 -77 92 -123
104 -24 7 -214 11 -518 11 -460 0 -482 -1 -520 -20z m123 -66 c18 -21 22 -37
22 -95 l0 -69 -85 0 -85 0 0 73 c0 63 3 76 23 94 43 40 87 39 125 -3z m943 5
c50 -35 59 -66 59 -196 0 -113 -1 -122 -37 -210 -35 -86 -39 -91 -63 -87 -14
3 -34 -1 -45 -9 -16 -13 -17 -17 -6 -31 7 -9 22 -16 33 -16 14 0 18 -5 14 -16
-3 -9 -6 -20 -6 -25 0 -5 -102 -9 -243 -9 -245 0 -273 -4 -260 -36 4 -11 50
-14 240 -14 184 0 234 -3 230 -12 -2 -7 -20 -50 -38 -95 l-34 -83 -172 0 c-99
0 -173 4 -173 9 0 5 -3 16 -6 25 -5 14 15 16 163 18 160 3 168 4 168 23 0 19
-8 20 -179 23 -173 2 -180 3 -208 27 -41 34 -88 45 -205 45 l-103 0 0 326 c0
205 -4 332 -10 345 -11 19 -3 19 421 19 420 0 432 -1 460 -21z m281 -54 c0 -5
-5 -11 -11 -13 -6 -2 -11 4 -11 13 0 9 5 15 11 13 6 -2 11 -8 11 -13z m-27
-67 c14 -6 25 -15 25 -20 0 -12 -28 -78 -33 -78 -3 0 -21 7 -41 15 l-36 15 15
36 c8 20 15 38 15 40 0 8 30 4 55 -8z m-61 -133 l36 -15 -15 -38 c-9 -20 -46
-109 -82 -197 -36 -88 -69 -164 -74 -169 -6 -7 -58 6 -77 20 -3 2 154 388 165
407 6 9 5 9 47 -8z m-159 -475 c2 0 -8 -29 -23 -65 -26 -67 -34 -73 -77 -53
-31 14 -31 22 0 92 l25 56 36 -15 c20 -8 38 -15 39 -15z m-651 -12 c60 -27 61
-33 64 -388 4 -347 0 -379 -44 -421 -25 -24 -27 -24 -264 -27 l-238 -3 -4 43
c-6 54 -4 58 36 58 17 0 37 5 44 12 9 9 12 69 12 210 0 228 5 218 -100 218
-87 0 -100 -9 -100 -70 0 -47 -2 -50 -25 -50 l-25 0 0 181 0 181 34 34 34 34
276 0 c186 0 283 -4 300 -12z m676 -188 l0 -100 -280 0 -280 0 0 65 0 65 169
0 169 0 11 -31 c6 -18 11 -43 11 -56 0 -32 28 -41 49 -15 9 11 33 27 54 36 32
13 43 25 65 76 15 33 28 60 29 60 2 0 3 -45 3 -100z m-135 28 c18 -8 22 -14
13 -20 -21 -13 -35 -9 -41 12 -6 23 -6 24 28 8z m286 -207 c35 -35 38 -77 8
-115 l-20 -26 -350 0 -349 0 0 85 0 85 341 0 341 0 29 -29z m-1271 -21 c0 -29
-1 -30 -50 -30 -49 0 -50 1 -50 30 0 29 1 30 50 30 49 0 50 -1 50 -30z m-2
-137 l-3 -48 -215 0 -215 0 -3 48 -3 47 221 0 221 0 -3 -47z m-88 -153 l0 -50
-215 0 -215 0 0 50 0 50 215 0 215 0 0 -50z m88 23 c-2 -17 -10 -29 -20 -31
-14 -3 -18 3 -18 27 0 25 4 31 21 31 16 0 20 -5 17 -27z m-90 -175 l3 -48
-215 0 -216 0 0 50 0 50 213 -2 212 -3 3 -47z"/>
<path d="M924 1625 c-3 -8 -14 -17 -24 -20 -10 -3 -23 -19 -30 -34 -16 -40 -1
-65 56 -90 25 -11 43 -25 39 -31 -10 -16 -33 -11 -49 11 -19 28 -52 21 -48
-11 2 -21 62 -90 78 -90 4 0 22 16 41 36 26 28 33 44 31 68 -2 26 -11 35 -48
54 -52 26 -62 42 -27 42 17 0 28 -7 32 -20 3 -11 15 -20 26 -20 33 0 24 50
-15 88 -38 35 -54 40 -62 17z"/>
<path d="M1082 1538 c3 -23 5 -23 163 -23 158 0 160 0 163 23 l3 22 -166 0
-166 0 3 -22z"/>
<path d="M1092 1441 c-8 -5 -12 -17 -10 -27 3 -18 16 -19 238 -19 232 0 235 0
238 21 2 15 -4 23 -20 28 -35 9 -431 7 -446 -3z"/>
<path d="M1085 1296 c-16 -12 -17 -16 -6 -30 12 -14 38 -16 195 -14 176 3 181
4 184 24 4 30 -17 34 -199 34 -117 0 -160 -3 -174 -14z"/>
<path d="M891 1274 c-12 -15 -21 -37 -21 -49 0 -38 37 -75 76 -75 45 0 74 29
74 75 0 72 -86 104 -129 49z m77 -47 c4 -20 -25 -34 -40 -19 -15 15 -1 44 19
40 10 -2 19 -11 21 -21z"/>
<path d="M473 1006 c-17 -8 -36 -23 -42 -35 -16 -29 -14 -146 3 -160 9 -8 96
-11 297 -9 l284 3 3 80 c3 76 1 82 -23 105 -26 25 -27 25 -258 27 -183 2 -239
0 -264 -11z m495 -98 l3 -48 -250 0 -251 0 0 34 c0 70 -14 67 254 64 l241 -3
3 -47z"/>
<path d="M666 747 c-14 -10 -16 -25 -14 -77 l3 -65 80 0 80 0 3 71 c3 67 1 72
-20 78 -39 10 -113 7 -132 -7z m104 -72 c0 -22 -4 -25 -35 -25 -31 0 -35 3
-35 25 0 22 4 25 35 25 31 0 35 -3 35 -25z"/>
<path d="M868 749 c-14 -8 -18 -23 -18 -67 0 -80 4 -83 91 -80 l74 3 3 71 c3
67 1 72 -20 78 -36 9 -111 7 -130 -5z m102 -74 c0 -21 -5 -25 -30 -25 -25 0
-30 4 -30 25 0 21 5 25 30 25 25 0 30 -4 30 -25z"/>
<path d="M657 554 c-4 -4 -7 -36 -7 -70 0 -74 10 -84 87 -84 73 0 85 13 81 90
l-3 65 -75 3 c-42 1 -79 0 -83 -4z m113 -69 c0 -22 -4 -25 -35 -25 -31 0 -35
3 -35 25 0 22 4 25 35 25 31 0 35 -3 35 -25z"/>
<path d="M856 545 c-12 -33 -6 -113 10 -129 16 -16 88 -21 132 -10 21 6 23 11
20 78 l-3 71 -76 3 c-63 2 -78 0 -83 -13z m114 -60 c0 -21 -5 -25 -30 -25 -25
0 -30 4 -30 25 0 21 5 25 30 25 25 0 30 -4 30 -25z"/>
<path d="M734 355 c-11 -28 7 -35 100 -35 70 0 97 4 106 15 23 27 0 35 -101
35 -78 0 -101 -3 -105 -15z"/>
</g>
</svg>
