<?xml version="1.0" standalone="no"?>
<!DOCTYPE svg PUBLIC "-//W3C//DTD SVG 20010904//EN"
 "http://www.w3.org/TR/2001/REC-SVG-20010904/DTD/svg10.dtd">
<svg version="1.0" xmlns="http://www.w3.org/2000/svg"
 width="200.000000pt" height="200.000000pt" viewBox="0 0 200.000000 200.000000"
 preserveAspectRatio="xMidYMid meet">
<metadata>
Created by potrace 1.16, written by Peter Selinger 2001-2019
</metadata>
<g transform="translate(0.000000,200.000000) scale(0.100000,-0.100000)"
fill="#000000" stroke="none">
<path d="M694 1882 c-29 -23 -44 -54 -44 -91 0 -28 -3 -30 -47 -37 -28 -4 -56
-16 -70 -30 l-23 -23 0 -434 c0 -472 3 -447 -53 -447 -43 0 -141 -56 -190
-109 -75 -80 -92 -127 -92 -246 0 -89 3 -106 28 -157 36 -74 101 -139 175
-175 50 -25 68 -28 152 -28 88 0 101 3 162 33 69 34 135 98 160 153 l13 29
368 0 c314 0 372 2 398 16 32 16 59 66 59 109 0 23 4 25 41 25 31 0 47 6 70
29 l29 29 0 657 0 657 -29 29 -29 29 -529 0 c-485 0 -530 -2 -549 -18z m1070
-48 c14 -14 16 -86 16 -647 0 -348 -4 -638 -8 -645 -5 -7 -25 -15 -45 -19
l-37 -6 0 574 c0 526 -1 577 -18 609 -28 58 -39 59 -524 59 l-438 1 0 33 c0
18 5 38 12 45 9 9 138 12 519 12 448 0 509 -2 523 -16z m-145 -148 c8 -9 10
-190 9 -657 l-3 -644 -369 -3 -369 -2 7 49 c7 56 -8 137 -37 199 -41 89 -153
174 -251 190 l-41 8 -3 423 c-1 305 1 428 9 437 17 21 1031 21 1048 0z m-954
-945 c72 -34 137 -102 159 -168 21 -60 20 -157 0 -217 -22 -64 -100 -147 -166
-177 -78 -35 -184 -33 -260 4 -231 113 -236 442 -7 556 53 27 73 31 138 31 63
0 86 -5 136 -29z"/>
<path d="M742 1447 c-27 -32 1 -38 174 -35 161 3 169 4 169 23 0 19 -8 20
-166 23 -127 2 -169 -1 -177 -11z"/>
<path d="M738 1248 c-14 -37 -5 -38 357 -38 313 0 354 2 359 16 3 9 4 20 0 25
-3 5 -157 9 -359 9 -273 0 -354 -3 -357 -12z"/>
<path d="M752 1061 c-8 -5 -12 -17 -10 -27 3 -18 20 -19 355 -22 325 -2 351
-1 357 15 16 40 -12 43 -358 43 -182 0 -337 -4 -344 -9z"/>
<path d="M744 855 c-4 -8 -4 -22 0 -30 5 -13 53 -15 349 -15 294 0 346 2 357
15 10 12 10 18 0 30 -11 13 -63 15 -357 15 -296 0 -344 -2 -349 -15z"/>
<path d="M1104 655 c-3 -8 -3 -19 1 -25 8 -13 341 -14 349 -1 4 5 3 16 0 25
-5 14 -30 16 -175 16 -139 0 -171 -3 -175 -15z"/>
<path d="M422 684 c-64 -32 -108 -83 -127 -148 -19 -62 -19 -80 0 -143 19 -63
81 -135 137 -158 90 -37 206 -15 272 51 43 43 76 120 76 179 0 179 -196 300
-358 219z m213 -54 c82 -51 113 -169 67 -257 -85 -164 -339 -121 -359 61 -11
96 28 169 112 208 51 24 131 18 180 -12z"/>
<path d="M510 605 c0 -8 -10 -20 -22 -26 -66 -34 -48 -99 40 -143 17 -9 32
-21 32 -27 0 -18 -31 -22 -49 -5 -10 9 -25 16 -34 16 -26 0 -21 -37 8 -64 14
-13 25 -28 25 -35 0 -6 7 -11 16 -11 22 0 94 75 94 98 0 25 -32 58 -80 82 -42
22 -50 37 -24 47 8 3 25 -4 39 -17 19 -18 27 -21 39 -11 17 14 10 47 -13 64
-10 7 -20 20 -24 30 -8 21 -47 23 -47 2z"/>
</g>
</svg>
