<?xml version="1.0" standalone="no"?>
<!DOCTYPE svg PUBLIC "-//W3C//DTD SVG 20010904//EN"
 "http://www.w3.org/TR/2001/REC-SVG-20010904/DTD/svg10.dtd">
<svg version="1.0" xmlns="http://www.w3.org/2000/svg"
 width="200.000000pt" height="200.000000pt" viewBox="0 0 200.000000 200.000000"
 preserveAspectRatio="xMidYMid meet">
<metadata>
Created by potrace 1.16, written by Peter Selinger 2001-2019
</metadata>
<g transform="translate(0.000000,200.000000) scale(0.100000,-0.100000)"
fill="#000000" stroke="none">
<path d="M733 1873 c-28 -5 -53 -39 -53 -70 l0 -22 480 -3 480 -3 32 -33 33
-32 5 -608 5 -607 25 3 c14 2 35 14 48 28 l22 26 -2 639 -3 638 -23 23 -23 23
-502 1 c-276 1 -512 0 -524 -3z"/>
<path d="M573 1720 c-12 -5 -27 -18 -32 -29 -8 -14 -10 -151 -9 -428 l3 -408
51 -6 c124 -15 246 -106 302 -226 24 -52 27 -70 27 -165 l0 -108 351 0 351 0
21 23 22 23 0 641 c0 616 -1 642 -19 664 l-19 24 -514 2 c-284 1 -523 -2 -535
-7z m512 -285 c0 -19 -8 -20 -169 -23 -173 -3 -201 3 -174 35 8 10 50 13 177
11 158 -3 166 -4 166 -23z m369 -184 c4 -5 3 -16 0 -25 -5 -14 -46 -16 -359
-16 -274 0 -354 3 -358 13 -12 36 -3 37 358 37 202 0 356 -4 359 -9z m0 -200
c4 -5 3 -16 0 -25 -6 -15 -43 -16 -358 -14 l-351 3 -3 23 -3 22 355 0 c202 0
357 -4 360 -9z m-4 -196 c6 -8 9 -19 5 -25 -4 -6 -125 -10 -361 -10 -337 0
-354 1 -354 18 0 10 3 22 7 25 3 4 160 7 348 7 288 0 344 -2 355 -15z m4 -201
c3 -9 4 -20 0 -25 -8 -13 -341 -12 -349 1 -4 6 -4 17 -1 25 4 12 36 15 175 15
145 0 170 -2 175 -16z"/>
<path d="M440 791 c-98 -32 -196 -125 -226 -213 -56 -161 19 -342 171 -418 71
-35 188 -40 265 -11 228 86 291 380 118 553 -64 64 -126 91 -223 94 -44 2 -91
0 -105 -5z m196 -105 c124 -58 178 -199 120 -321 -46 -99 -118 -145 -226 -145
-82 0 -134 23 -183 81 -36 41 -67 118 -67 164 0 12 7 44 15 71 42 142 204 214
341 150z"/>
<path d="M455 642 c-77 -37 -115 -96 -115 -179 0 -169 197 -254 326 -141 40
36 69 120 59 171 -11 51 -52 113 -90 137 -49 31 -129 36 -180 12z m102 -39 c4
-10 14 -23 24 -30 23 -17 30 -50 13 -64 -12 -10 -20 -7 -39 11 -14 13 -31 20
-39 17 -26 -10 -18 -25 24 -47 48 -24 80 -57 80 -82 0 -23 -72 -98 -94 -98 -9
0 -16 5 -16 11 0 7 -11 22 -25 35 -29 27 -34 64 -8 64 9 0 24 -7 34 -16 18
-17 49 -13 49 5 0 6 -15 18 -32 27 -50 25 -78 55 -78 83 0 32 8 44 38 60 12 6
22 18 22 26 0 21 39 19 47 -2z"/>
</g>
</svg>
