<?xml version="1.0" standalone="no"?>
<!DOCTYPE svg PUBLIC "-//W3C//DTD SVG 20010904//EN"
 "http://www.w3.org/TR/2001/REC-SVG-20010904/DTD/svg10.dtd">
<svg version="1.0" xmlns="http://www.w3.org/2000/svg"
 width="200.000000pt" height="200.000000pt" viewBox="0 0 200.000000 200.000000"
 preserveAspectRatio="xMidYMid meet">
<metadata>
Created by potrace 1.16, written by Peter Selinger 2001-2019
</metadata>
<g transform="translate(0.000000,200.000000) scale(0.100000,-0.100000)"
fill="#000000" stroke="none">
<path d="M1087 1859 c-52 -12 -172 -83 -223 -132 -38 -35 -50 -56 -80 -134
l-9 -22 -32 20 c-26 17 -33 28 -33 53 0 47 -20 68 -125 130 -140 82 -165 75
-165 -46 0 -99 16 -120 143 -191 119 -66 139 -68 145 -8 4 36 5 36 37 15 23
-15 25 -22 25 -99 0 -226 141 -524 332 -700 117 -108 238 -165 352 -165 57 0
75 5 156 46 169 87 225 179 224 369 0 133 -28 237 -104 390 -123 250 -310 425
-501 470 -71 16 -87 17 -142 4z m171 -50 c36 -12 34 -22 -9 -45 -28 -14 -34
-13 -85 5 -30 12 -66 21 -81 21 -21 0 -23 2 -13 14 6 8 21 17 33 20 31 6 117
-2 155 -15z m-701 -65 c115 -68 113 -65 113 -150 l0 -73 -87 51 c-116 67 -123
75 -123 154 0 35 4 64 9 64 5 0 45 -21 88 -46z m616 3 l37 -16 0 -103 0 -103
-46 4 -46 3 -54 114 c-30 63 -54 117 -54 120 0 12 125 -3 163 -19z m212 -3
c43 -28 195 -174 195 -186 0 -4 -17 -16 -39 -27 l-38 -20 -89 87 c-49 48 -102
96 -118 108 l-29 20 34 22 c19 12 36 22 39 22 3 0 23 -12 45 -26z m-340 -255
c-45 -40 -58 -85 -53 -178 6 -93 33 -172 88 -253 l41 -61 -48 -49 c-26 -26
-50 -48 -54 -48 -10 0 -74 100 -112 176 -53 106 -88 227 -94 329 l-6 90 38
-47 c36 -46 58 -58 69 -39 3 5 -17 38 -45 75 -45 58 -50 70 -45 99 9 49 59
122 103 151 l38 24 57 -119 57 -120 -34 -30z m245 190 c0 -3 -9 -14 -20 -24
-20 -18 -20 -17 -20 19 0 34 1 35 20 24 11 -7 20 -16 20 -19z m89 -67 c3 -1
-22 -29 -54 -62 -32 -32 -62 -57 -67 -54 -4 3 -8 28 -8 57 0 44 4 56 32 84
l32 33 30 -28 c17 -15 33 -28 35 -30z m57 -58 l24 -30 -53 -51 -52 -52 -34 31
-33 30 53 54 c29 30 58 53 63 51 5 -2 20 -17 32 -33z m73 -88 l22 -30 -52 -52
-52 -53 -27 37 -28 37 51 52 c28 29 54 50 57 45 4 -4 17 -20 29 -36z m-284 4
c155 -75 296 -360 245 -494 -12 -33 -24 -33 -98 5 -73 36 -137 104 -186 199
-42 81 -57 134 -57 210 -1 106 15 119 96 80z m344 -101 l23 -41 -48 -49 c-27
-27 -52 -49 -56 -49 -4 0 -17 19 -29 41 l-21 42 48 48 c27 27 51 49 54 49 4 0
17 -18 29 -41z m55 -111 l17 -41 -57 -58 c-32 -32 -60 -56 -63 -53 -3 3 -11
26 -18 52 l-12 47 52 47 c29 26 55 48 58 48 4 0 14 -19 23 -42z m41 -110 l15
-52 -34 -34 c-36 -37 -51 -37 -96 -2 l-25 19 60 61 c33 33 60 60 62 60 1 0 9
-23 18 -52z m28 -120 c3 -24 4 -44 2 -46 -5 -5 -65 27 -65 35 0 9 42 53 50 53
4 0 10 -19 13 -42z m-60 -62 c77 -43 80 -53 52 -161 -22 -85 -52 -125 -120
-159 -51 -26 -64 -28 -131 -24 -61 4 -89 12 -147 42 -71 36 -170 113 -216 169
l-24 29 51 50 50 51 39 -30 c99 -79 186 -94 260 -46 44 28 58 50 69 107 6 35
8 36 28 23 11 -8 51 -31 89 -51z"/>
<path d="M1085 1720 c3 -5 8 -10 11 -10 2 0 4 5 4 10 0 6 -5 10 -11 10 -5 0
-7 -4 -4 -10z"/>
<path d="M1160 1680 c0 -5 5 -10 11 -10 5 0 7 5 4 10 -3 6 -8 10 -11 10 -2 0
-4 -4 -4 -10z"/>
<path d="M1100 1630 c0 -5 5 -10 11 -10 5 0 7 5 4 10 -3 6 -8 10 -11 10 -2 0
-4 -4 -4 -10z"/>
<path d="M336 857 l-177 -102 3 -103 3 -103 327 -190 c180 -104 333 -189 340
-188 7 0 87 44 178 97 l165 97 3 105 3 105 -288 165 c-158 91 -308 177 -334
192 l-46 27 -177 -102z m360 -50 c99 -57 187 -108 198 -114 17 -9 14 -13 -25
-37 l-44 -26 -3 30 c-9 87 -207 118 -286 45 -64 -60 6 -135 126 -135 56 0 55
-5 -9 -40 l-41 -23 -196 113 c-108 62 -196 115 -196 119 1 6 280 170 291 170
4 1 87 -45 185 -102z m-271 -215 l170 -98 3 -72 c2 -40 0 -72 -3 -72 -3 0 -93
50 -200 111 l-195 112 0 74 0 74 28 -16 c15 -8 104 -59 197 -113z m323 85 c4
-30 -17 -37 -38 -12 -7 8 -19 15 -28 15 -13 0 -13 -2 1 -18 10 -10 17 -24 17
-30 0 -15 -38 -24 -80 -20 -25 2 -34 8 -36 25 -5 31 12 38 33 13 17 -19 43
-27 43 -13 0 3 -8 15 -17 26 -17 18 -17 19 1 33 11 7 37 12 60 11 36 -3 41 -6
44 -30z m246 -31 c29 -18 35 -25 25 -32 -8 -5 -77 -46 -154 -91 l-140 -81 -37
21 c-21 12 -38 27 -38 32 0 10 277 175 295 175 6 0 27 -11 49 -24z m99 -69
l37 -23 -150 -87 -150 -88 -40 23 c-22 13 -40 25 -40 28 0 7 283 170 295 170
6 0 27 -10 48 -23z m-423 -127 l40 -20 0 -81 0 -81 -42 25 -43 25 -3 76 c-2
42 0 76 3 76 3 0 24 -9 45 -20z m113 -65 l37 -19 0 -73 c0 -40 -2 -73 -5 -73
-3 0 -23 11 -45 25 l-40 25 0 71 c0 39 3 69 8 67 4 -2 24 -12 45 -23z"/>
<path d="M1483 460 c-53 -11 -92 -31 -123 -65 -22 -23 -25 -36 -25 -95 0 -62
3 -71 29 -99 80 -83 286 -87 371 -7 83 79 43 223 -70 255 -59 16 -135 21 -182
11z m193 -61 c44 -21 70 -63 60 -96 -3 -10 -23 -29 -43 -43 -31 -21 -51 -26
-125 -28 -73 -3 -95 -1 -130 17 -53 25 -71 53 -63 92 17 78 191 112 301 58z
m-247 -185 c3 -16 1 -17 -13 -5 -19 16 -21 34 -3 29 6 -3 14 -13 16 -24z m55
0 c17 -7 22 -34 7 -34 -21 0 -41 13 -41 26 0 15 10 17 34 8z m106 -26 c0 -14
-8 -18 -35 -18 -27 0 -35 4 -35 18 0 14 8 18 35 18 27 0 35 -4 35 -18z"/>
</g>
</svg>
