<?xml version="1.0" standalone="no"?>
<!DOCTYPE svg PUBLIC "-//W3C//DTD SVG 20010904//EN"
 "http://www.w3.org/TR/2001/REC-SVG-20010904/DTD/svg10.dtd">
<svg version="1.0" xmlns="http://www.w3.org/2000/svg"
 width="200.000000pt" height="200.000000pt" viewBox="0 0 200.000000 200.000000"
 preserveAspectRatio="xMidYMid meet">
<metadata>
Created by potrace 1.16, written by Peter Selinger 2001-2019
</metadata>
<g transform="translate(0.000000,200.000000) scale(0.100000,-0.100000)"
fill="#000000" stroke="none">
<path d="M724 1845 c-7 -18 -10 -14 113 -177 86 -115 100 -138 82 -138 -12 0
-23 -8 -26 -20 -4 -15 -14 -20 -38 -20 -18 0 -38 -7 -45 -15 -19 -22 5 -45 46
-45 29 0 34 -4 34 -23 0 -17 -9 -26 -34 -35 -52 -19 -132 -106 -156 -169 -56
-151 0 -317 132 -392 l50 -29 -154 -4 c-133 -4 -162 -8 -220 -30 -94 -35 -200
-98 -286 -169 l-72 -60 2 -187 c3 -219 4 -220 95 -146 32 26 87 61 123 78 99
46 152 46 350 -2 229 -56 261 -62 343 -62 94 0 147 25 257 122 143 125 483
498 515 565 41 85 -4 163 -95 163 -47 0 -52 -3 -253 -164 l-204 -164 -26 26
c-20 19 -39 26 -83 30 l-57 5 32 16 c49 26 117 97 142 149 33 71 37 171 9 246
-27 70 -91 144 -150 172 l-40 19 0 67 c0 62 -2 67 -25 75 l-25 8 71 107 c91
136 90 138 -62 138 l-109 0 -6 28 c-12 49 -20 52 -126 52 -77 0 -100 -3 -104
-15z m189 -116 c10 -40 16 -73 14 -75 -3 -4 -107 133 -107 141 0 3 17 5 38 5
l38 0 17 -71z m151 -79 c-26 -39 -49 -68 -51 -66 -6 5 -33 108 -33 124 0 8 20
12 65 12 l65 0 -46 -70z m42 -329 c51 -23 104 -75 130 -127 14 -28 19 -60 19
-114 0 -64 -4 -82 -27 -122 -35 -58 -88 -103 -147 -123 -166 -56 -341 72 -341
250 1 147 111 255 259 255 43 0 81 -7 107 -19z m677 -352 c18 -29 -2 -65 -96
-175 -189 -219 -405 -436 -497 -499 -42 -29 -47 -30 -149 -29 -91 0 -128 6
-266 43 -262 69 -359 65 -493 -23 -28 -19 -56 -37 -62 -41 -7 -4 -10 36 -10
123 l0 129 83 62 c45 34 114 77 152 96 121 60 157 65 471 65 306 0 314 -1 314
-55 0 -50 -25 -55 -268 -55 -189 0 -223 -2 -228 -15 -4 -8 -1 -22 6 -30 10
-12 50 -15 232 -15 251 0 275 5 305 69 13 27 74 82 227 204 179 143 214 168
239 165 17 -2 34 -10 40 -19z"/>
<path d="M977 1314 c-4 -4 -7 -15 -7 -25 0 -10 -9 -20 -20 -24 -30 -10 -60
-54 -60 -91 0 -66 22 -89 123 -128 31 -13 37 -20 37 -44 0 -36 -20 -54 -56
-50 -24 3 -32 11 -54 58 -4 8 -16 15 -26 15 -14 0 -20 -8 -22 -33 -3 -28 3
-40 35 -71 22 -20 42 -44 46 -54 8 -22 46 -22 54 0 4 10 24 34 45 54 32 30 38
42 38 77 0 53 -34 94 -92 111 -24 7 -49 18 -55 23 -22 18 -15 56 13 75 31 20
50 11 74 -33 22 -38 54 -39 58 -1 4 34 -20 74 -53 89 -13 6 -25 20 -27 32 -3
21 -37 34 -51 20z"/>
</g>
</svg>
