<?xml version="1.0" standalone="no"?>
<!DOCTYPE svg PUBLIC "-//W3C//DTD SVG 20010904//EN"
 "http://www.w3.org/TR/2001/REC-SVG-20010904/DTD/svg10.dtd">
<svg version="1.0" xmlns="http://www.w3.org/2000/svg"
 width="200.000000pt" height="200.000000pt" viewBox="0 0 200.000000 200.000000"
 preserveAspectRatio="xMidYMid meet">
<metadata>
Created by potrace 1.16, written by Peter Selinger 2001-2019
</metadata>
<g transform="translate(0.000000,200.000000) scale(0.100000,-0.100000)"
fill="#000000" stroke="none">
<path d="M277 1994 c-4 -4 -7 -34 -7 -66 l0 -58 -82 0 c-88 0 -113 -11 -137
-57 -8 -15 -11 -194 -11 -601 l0 -579 25 -27 c13 -14 36 -31 50 -36 l25 -10 0
-255 0 -256 26 -24 27 -25 293 0 293 0 28 24 28 24 3 256 3 256 209 0 209 0
-50 -84 -49 -84 -9 -138 c-5 -76 -7 -142 -5 -146 11 -17 37 -5 146 66 l113 73
80 139 c43 77 168 293 277 481 203 351 212 372 186 428 -16 35 -100 87 -142
87 -62 0 -84 -19 -142 -119 -20 -35 -38 -63 -41 -63 -2 0 -4 73 -3 163 1 89 1
226 1 303 l-1 142 -29 31 c-28 30 -32 31 -115 31 l-85 0 -3 63 -3 62 -85 0
-85 0 -3 -63 -3 -62 -377 2 -377 3 -5 60 -5 60 -80 3 c-45 1 -84 0 -88 -4z
m123 -144 l0 -100 -35 0 c-30 0 -35 3 -35 23 0 13 -3 58 -6 100 l-7 77 42 0
41 0 0 -100z m940 0 l0 -100 -40 0 -40 0 0 100 0 100 40 0 40 0 0 -100z
m-1068 -92 l3 -63 78 -3 c50 -2 84 1 93 9 9 7 14 31 14 65 l0 54 370 0 370 0
0 -48 c0 -75 11 -83 105 -80 l80 3 3 63 3 62 71 0 c105 0 108 -4 108 -157 l0
-123 -740 0 -740 0 0 122 c0 153 3 158 106 158 l73 0 3 -62z m1298 -461 l0
-193 -138 -239 -139 -240 -226 -3 -227 -2 0 90 c0 102 -15 145 -56 160 -14 6
-149 10 -300 10 -305 0 -323 -3 -343 -61 -6 -18 -11 -70 -11 -117 0 -84 0 -85
-20 -67 -19 18 -20 31 -20 437 l0 418 740 0 740 0 0 -193z m298 3 c54 -39 55
-63 6 -128 -1 -2 -36 16 -77 40 -68 39 -74 45 -65 63 34 64 73 71 136 25z
m-102 -136 c35 -20 66 -40 69 -45 3 -5 -26 -65 -66 -133 -68 -118 -74 -125
-108 -130 -76 -11 -171 -18 -171 -12 0 6 156 286 186 334 8 12 17 22 20 22 3
0 35 -16 70 -36z m-988 -718 c2 -264 -1 -373 -9 -382 -16 -19 -548 -21 -567
-2 -9 9 -12 105 -12 369 0 197 3 365 6 373 6 15 38 16 293 14 l286 -3 3 -369z
m850 294 c-18 -33 -40 -62 -48 -64 -8 -3 -57 -8 -109 -12 l-93 -7 27 49 c16
27 33 55 40 62 10 11 109 27 188 31 l28 1 -33 -60z m-78 -127 c0 -3 -37 -71
-82 -149 -66 -115 -85 -140 -92 -126 -14 25 -27 31 -50 22 -17 -6 -23 -2 -33
21 -8 19 -19 29 -33 29 -11 0 -20 3 -20 6 0 3 23 45 52 94 l51 89 76 6 c42 4
81 8 86 10 18 6 45 5 45 -2z m-301 -279 c6 -34 22 -45 56 -38 42 7 54 -17 20
-40 -22 -14 -27 -14 -69 10 -37 21 -46 31 -46 53 0 44 31 56 39 15z m-25 -110
c22 -8 20 -21 -4 -34 -18 -9 -20 -8 -20 15 0 27 1 28 24 19z"/>
<path d="M216 1414 c-3 -9 -6 -51 -6 -94 0 -95 5 -100 110 -100 105 0 110 5
110 100 0 114 4 110 -110 110 -80 0 -99 -3 -104 -16z m154 -84 l0 -50 -50 0
-50 0 0 50 0 50 50 0 50 0 0 -50z"/>
<path d="M556 1414 c-3 -9 -6 -51 -6 -94 0 -95 5 -100 110 -100 105 0 110 5
110 100 0 114 4 110 -110 110 -80 0 -99 -3 -104 -16z m162 -86 l3 -48 -55 0
-56 0 0 51 0 50 53 -3 52 -3 3 -47z"/>
<path d="M896 1415 c-3 -9 -6 -52 -6 -95 0 -96 5 -100 112 -100 105 0 110 5
106 115 l-3 90 -101 3 c-86 2 -103 0 -108 -13z m162 -87 l3 -48 -55 0 -56 0 0
51 0 50 53 -3 52 -3 3 -47z"/>
<path d="M1242 1418 c-7 -7 -12 -41 -12 -89 0 -102 7 -109 109 -109 108 0 113
4 109 115 l-3 90 -95 3 c-66 2 -99 -1 -108 -10z m156 -90 l3 -48 -55 0 -56 0
0 51 0 50 53 -3 52 -3 3 -47z"/>
<path d="M228 1149 c-15 -8 -18 -24 -18 -89 0 -114 -4 -110 110 -110 114 0
110 -4 110 110 0 68 -3 81 -19 90 -25 13 -161 13 -183 -1z m142 -99 l0 -50
-50 0 -50 0 0 50 0 50 50 0 50 0 0 -50z"/>
<path d="M568 1149 c-15 -8 -18 -24 -18 -89 0 -114 -4 -110 110 -110 114 0
110 -4 110 110 0 68 -3 81 -19 90 -25 13 -161 13 -183 -1z m150 -96 l-3 -48
-52 -3 -53 -3 0 50 0 51 56 0 55 0 -3 -47z"/>
<path d="M908 1149 c-15 -8 -18 -24 -18 -92 0 -45 4 -88 8 -95 6 -9 35 -12
108 -10 l99 3 3 90 c2 76 0 92 -14 102 -21 16 -161 17 -186 2z m150 -96 l-3
-48 -52 -3 -53 -3 0 50 0 51 56 0 55 0 -3 -47z"/>
<path d="M1246 1144 c-21 -21 -23 -166 -2 -183 9 -8 47 -11 107 -9 l94 3 3 90
c4 111 -1 115 -109 115 -57 0 -82 -4 -93 -16z m152 -91 l-3 -48 -52 -3 -53 -3
0 50 0 51 56 0 55 0 -3 -47z"/>
<path d="M896 865 c-3 -9 -6 -52 -6 -95 0 -96 5 -100 112 -100 105 0 110 5
106 115 l-3 90 -101 3 c-86 2 -103 0 -108 -13z m162 -87 l3 -48 -55 0 -56 0 0
51 0 50 53 -3 52 -3 3 -47z"/>
<path d="M244 767 c-3 -8 -4 -52 -2 -98 l3 -84 234 -3 c164 -2 238 1 247 9 18
15 19 160 2 177 -18 18 -477 17 -484 -1z m436 -87 l0 -40 -195 0 -195 0 0 40
0 40 195 0 195 0 0 -40z"/>
<path d="M247 503 c-4 -3 -7 -15 -7 -25 0 -15 8 -18 59 -18 63 0 81 11 61 35
-13 15 -100 21 -113 8z"/>
<path d="M426 494 c-10 -27 7 -35 65 -32 46 3 54 6 54 23 0 17 -8 20 -56 23
-46 2 -58 0 -63 -14z"/>
<path d="M617 503 c-4 -3 -7 -15 -7 -25 0 -15 8 -18 59 -18 60 0 82 15 58 39
-12 12 -99 15 -110 4z"/>
<path d="M244 375 c-10 -25 6 -35 61 -35 54 0 75 16 52 39 -17 17 -106 14
-113 -4z"/>
<path d="M426 374 c-10 -27 7 -35 65 -32 46 3 54 6 54 23 0 17 -8 20 -56 23
-46 2 -58 0 -63 -14z"/>
<path d="M614 375 c-10 -25 6 -35 61 -35 54 0 75 16 52 39 -17 17 -106 14
-113 -4z"/>
<path d="M244 255 c-10 -25 6 -35 61 -35 52 0 67 10 58 38 -7 18 -112 16 -119
-3z"/>
<path d="M424 255 c-11 -26 10 -36 67 -33 46 3 54 6 54 23 0 17 -8 20 -58 23
-45 2 -59 0 -63 -13z"/>
<path d="M614 255 c-10 -25 6 -35 61 -35 52 0 67 10 58 38 -7 18 -112 16 -119
-3z"/>
<path d="M244 135 c-10 -25 6 -35 55 -35 49 0 73 13 64 36 -7 20 -112 19 -119
-1z"/>
<path d="M426 141 c-3 -5 -3 -17 0 -26 5 -13 18 -15 63 -13 48 3 56 6 56 23 0
17 -8 20 -57 23 -31 2 -59 -1 -62 -7z"/>
<path d="M614 135 c-10 -25 6 -35 55 -35 49 0 73 13 64 36 -7 20 -112 19 -119
-1z"/>
</g>
</svg>
