<?xml version="1.0" standalone="no"?>
<!DOCTYPE svg PUBLIC "-//W3C//DTD SVG 20010904//EN"
 "http://www.w3.org/TR/2001/REC-SVG-20010904/DTD/svg10.dtd">
<svg version="1.0" xmlns="http://www.w3.org/2000/svg"
 width="200.000000pt" height="200.000000pt" viewBox="0 0 200.000000 200.000000"
 preserveAspectRatio="xMidYMid meet">
<metadata>
Created by potrace 1.16, written by Peter Selinger 2001-2019
</metadata>
<g transform="translate(0.000000,200.000000) scale(0.100000,-0.100000)"
fill="#000000" stroke="none">
<path d="M702 1819 c-58 -11 -121 -48 -128 -75 -8 -33 15 -142 41 -194 l24
-47 -67 -43 c-97 -64 -211 -182 -266 -275 -69 -118 -98 -216 -104 -354 -5
-124 5 -192 44 -279 28 -64 128 -170 190 -203 40 -22 44 -27 44 -61 0 -25 8
-46 24 -65 l24 -28 399 -6 c219 -4 411 -10 426 -14 15 -4 56 -2 90 5 163 32
292 145 342 299 24 73 17 215 -14 285 -51 117 -144 204 -260 243 -65 21 -66
23 -90 80 -58 138 -177 279 -310 368 l-71 47 19 26 c27 40 42 94 44 163 3 83
-11 91 -86 54 -71 -34 -109 -29 -158 21 -49 52 -91 66 -157 53z m128 -103 c58
-54 100 -65 167 -43 26 9 49 14 51 12 8 -8 -29 -114 -49 -139 l-21 -27 -141 3
-142 3 -27 55 c-15 30 -30 76 -34 102 l-6 48 43 20 c62 29 100 21 159 -34z
m247 -312 c107 -72 207 -180 261 -281 23 -44 42 -83 42 -87 0 -3 -17 -6 -37
-6 -21 0 -69 -12 -108 -27 -66 -25 -83 -27 -301 -32 -279 -7 -274 -5 -274
-113 l0 -68 -65 0 c-57 0 -69 -3 -90 -25 -21 -20 -25 -34 -25 -84 0 -104 26
-131 125 -131 l55 0 0 -60 0 -60 -64 0 c-49 0 -69 -5 -90 -21 l-26 -21 -34 22
c-58 35 -133 125 -156 188 -94 248 9 571 243 760 129 104 121 101 302 101
l160 1 82 -56z m418 -454 c148 -51 246 -188 247 -344 2 -337 -413 -503 -637
-254 -56 62 -81 117 -95 200 -27 173 73 337 242 398 71 26 169 26 243 0z
m-453 -77 c-16 -21 -34 -48 -41 -60 -11 -22 -17 -23 -145 -23 -147 0 -146 0
-146 64 0 54 8 56 193 56 l169 0 -30 -37z m-86 -174 c-3 -17 -6 -45 -6 -60 l0
-29 -202 2 -203 3 -3 44 c-5 74 -16 71 214 71 l207 0 -7 -31z m3 -193 c6 -24
13 -51 17 -60 5 -14 -8 -16 -124 -16 -109 0 -131 3 -136 16 -8 21 -8 89 1 97
3 4 57 7 118 7 l113 0 11 -44z m104 -192 l49 -54 -286 0 -286 0 0 55 0 55 238
-1 237 0 48 -55z"/>
<path d="M1297 920 c-91 -23 -168 -85 -215 -173 -23 -45 -27 -63 -27 -142 0
-75 4 -98 25 -140 36 -73 105 -138 176 -164 159 -60 339 11 414 164 34 69 35
197 3 267 -30 66 -104 142 -164 167 -57 25 -157 35 -212 21z m168 -67 c140
-47 214 -223 151 -358 -48 -104 -126 -154 -242 -155 -155 0 -261 106 -263 265
-2 182 178 308 354 248z"/>
<path d="M1357 824 c-4 -4 -7 -18 -7 -31 0 -18 -5 -23 -25 -23 -44 0 -65 -32
-65 -99 0 -79 25 -101 111 -101 l59 0 0 -40 0 -40 -54 0 c-49 0 -54 2 -60 26
-5 19 -12 25 -29 22 -17 -2 -23 -11 -25 -35 -4 -38 26 -73 63 -73 20 0 25 -5
25 -24 0 -33 25 -53 45 -36 8 7 15 23 15 36 0 17 6 24 20 24 39 0 60 35 60 98
0 87 -15 102 -101 102 l-69 0 0 40 0 40 55 0 c40 0 55 -4 55 -14 0 -20 25 -37
44 -30 40 15 3 104 -43 104 -14 0 -21 8 -23 28 -3 26 -34 43 -51 26z"/>
</g>
</svg>
