<?xml version="1.0" standalone="no"?>
<!DOCTYPE svg PUBLIC "-//W3C//DTD SVG 20010904//EN"
 "http://www.w3.org/TR/2001/REC-SVG-20010904/DTD/svg10.dtd">
<svg version="1.0" xmlns="http://www.w3.org/2000/svg"
 width="200.000000pt" height="200.000000pt" viewBox="0 0 200.000000 200.000000"
 preserveAspectRatio="xMidYMid meet">
<metadata>
Created by potrace 1.16, written by Peter Selinger 2001-2019
</metadata>
<g transform="translate(0.000000,200.000000) scale(0.100000,-0.100000)"
fill="#000000" stroke="none">
<path d="M223 1800 c-12 -5 -26 -18 -32 -29 -16 -28 -15 -1361 0 -1394 19 -43
46 -47 289 -47 l230 0 0 -40 c0 -29 7 -47 23 -64 l24 -24 384 -4 c431 -5 439
-4 531 61 68 49 112 115 135 203 41 157 -39 328 -189 404 -29 15 -75 27 -113
31 l-64 6 -3 429 -3 430 -28 24 -28 24 -567 -1 c-312 0 -577 -4 -589 -9z
m1155 -481 c2 -420 2 -427 -18 -432 -20 -5 -20 -1 -20 395 0 256 -4 406 -10
419 -10 18 -27 19 -518 19 -382 0 -511 -3 -520 -12 -9 -9 -12 -165 -12 -640 0
-610 1 -628 19 -638 12 -6 124 -10 288 -11 219 -1 259 -3 218 -12 -28 -6 -161
-11 -305 -12 l-255 0 -3 665 c-1 366 0 671 3 678 3 10 122 12 567 10 l563 -3
3 -426z m-98 -62 l0 -404 -40 -32 c-21 -17 -53 -51 -70 -76 l-30 -44 -196 -3
c-192 -3 -196 -3 -215 -27 -13 -16 -19 -39 -19 -75 0 -54 10 -76 45 -94 15 -9
-34 -11 -197 -12 l-218 0 0 585 0 585 470 0 470 0 0 -403z m306 -441 c100 -47
162 -137 171 -250 8 -94 -16 -157 -86 -227 -65 -65 -124 -89 -216 -89 -118 0
-235 83 -271 193 -50 150 11 303 149 371 70 36 179 36 253 2z m-470 -192 c-3
-9 -6 -29 -6 -45 l0 -29 -167 2 -168 3 -3 28 c-7 57 -7 57 179 57 152 0 170
-2 165 -16z m-2 -154 c3 -11 9 -29 12 -40 5 -19 1 -20 -105 -20 l-111 0 0 40
0 40 99 0 c91 0 100 -2 105 -20z m91 -170 l39 -40 -237 0 -237 0 0 40 0 40
198 0 198 0 39 -40z"/>
<path d="M505 1480 c-30 -31 -42 -37 -56 -30 -31 17 -49 12 -49 -13 0 -26 38
-67 61 -67 8 0 41 27 73 59 51 51 57 62 46 75 -19 24 -32 20 -75 -24z"/>
<path d="M614 1505 c-4 -8 -4 -22 0 -30 5 -13 44 -15 298 -13 l293 3 0 25 0
25 -293 3 c-254 2 -293 0 -298 -13z"/>
<path d="M614 1405 c-4 -8 -1 -22 6 -30 11 -13 54 -15 299 -13 l286 3 0 25 0
25 -293 3 c-255 2 -293 0 -298 -13z"/>
<path d="M625 1246 c-11 -8 -16 -19 -12 -30 6 -15 34 -16 299 -14 290 3 293 3
296 24 2 15 -4 23 -20 28 -13 3 -140 6 -284 6 -203 0 -264 -3 -279 -14z"/>
<path d="M504 1213 c-29 -36 -33 -37 -57 -24 -51 27 -65 -18 -18 -63 35 -34
46 -30 115 44 51 54 54 73 15 78 -19 2 -33 -7 -55 -35z"/>
<path d="M614 1145 c-4 -8 -1 -22 6 -30 11 -13 54 -15 299 -13 l286 3 0 25 0
25 -293 3 c-255 2 -293 0 -298 -13z"/>
<path d="M506 951 c-37 -38 -40 -39 -62 -24 -26 16 -44 10 -44 -15 0 -18 48
-72 65 -72 6 0 37 26 68 58 41 41 56 63 51 75 -10 27 -37 20 -78 -22z"/>
<path d="M614 975 c-4 -8 -1 -22 6 -30 10 -13 56 -15 289 -15 152 0 282 4 289
9 8 5 12 17 10 27 -3 18 -19 19 -296 22 -255 2 -293 0 -298 -13z"/>
<path d="M620 885 c-7 -8 -10 -22 -6 -30 5 -13 43 -15 298 -13 l293 3 0 25 0
25 -286 3 c-245 2 -288 0 -299 -13z"/>
<path d="M1410 811 c-122 -26 -220 -142 -220 -261 0 -62 28 -135 70 -182 133
-152 377 -111 455 76 19 45 19 142 0 196 -42 120 -181 197 -305 171z m135 -71
c76 -36 107 -75 125 -154 16 -72 -7 -141 -64 -194 -90 -83 -207 -81 -293 4
-134 134 -40 360 152 363 22 0 58 -8 80 -19z"/>
<path d="M1447 734 c-4 -4 -7 -16 -7 -26 0 -11 -7 -18 -19 -18 -49 0 -80 -99
-45 -148 12 -18 25 -22 70 -22 53 0 54 0 54 -30 0 -28 -2 -30 -39 -30 -31 0
-40 4 -44 21 -7 24 -34 23 -51 -4 -15 -23 12 -71 42 -75 13 -2 27 -14 32 -28
12 -30 50 -33 50 -4 0 11 8 23 18 27 39 14 52 35 52 88 0 71 -15 87 -84 93
-51 4 -56 7 -56 28 0 21 5 24 36 24 25 0 41 -7 53 -22 26 -31 53 -18 49 24 -2
26 -10 36 -35 48 -18 8 -33 24 -35 35 -3 20 -28 32 -41 19z"/>
</g>
</svg>
