<?xml version="1.0" standalone="no"?>
<!DOCTYPE svg PUBLIC "-//W3C//DTD SVG 20010904//EN"
 "http://www.w3.org/TR/2001/REC-SVG-20010904/DTD/svg10.dtd">
<svg version="1.0" xmlns="http://www.w3.org/2000/svg"
 width="200.000000pt" height="200.000000pt" viewBox="0 0 200.000000 200.000000"
 preserveAspectRatio="xMidYMid meet">
<metadata>
Created by potrace 1.16, written by Peter Selinger 2001-2019
</metadata>
<g transform="translate(0.000000,200.000000) scale(0.100000,-0.100000)"
fill="#000000" stroke="none">
<path d="M250 1740 c-20 -20 -20 -33 -20 -669 0 -624 1 -650 19 -672 19 -24
21 -24 250 -27 l231 -3 0 -29 c0 -38 19 -78 39 -84 9 -3 183 -6 386 -8 l370
-3 56 28 c66 32 132 99 162 165 16 36 22 67 22 127 0 71 -4 88 -33 147 -52
106 -143 169 -264 183 l-57 7 -3 408 c-3 385 -4 409 -22 429 -19 21 -23 21
-568 21 -535 0 -548 0 -568 -20z m1118 -435 l2 -411 -30 -11 -30 -11 -2 396
-3 397 -488 3 -487 2 2 -602 3 -603 268 -3 c216 -2 267 -5 267 -16 0 -22 -91
-30 -350 -31 l-245 0 -3 640 c-1 352 0 646 3 653 3 10 118 12 547 10 l543 -3
3 -410z m-768 165 c0 -19 -92 -110 -111 -110 -24 0 -63 50 -49 64 7 7 17 7 32
-3 19 -12 24 -9 57 23 34 34 71 48 71 26z m590 -5 c0 -13 -37 -15 -275 -15
-238 0 -275 2 -275 15 0 13 37 15 275 15 238 0 275 -2 275 -15z m0 -90 c0 -13
-37 -15 -275 -15 -238 0 -275 2 -275 15 0 13 37 15 275 15 238 0 275 -2 275
-15z m-590 -155 c0 -19 -92 -110 -111 -110 -24 0 -63 50 -49 64 7 7 17 7 32
-3 19 -12 24 -9 57 23 34 34 71 48 71 26z m590 -5 c0 -13 -37 -15 -275 -15
-238 0 -275 2 -275 15 0 13 37 15 275 15 238 0 275 -2 275 -15z m0 -90 c0 -13
-37 -15 -275 -15 -238 0 -275 2 -275 15 0 13 37 15 275 15 238 0 275 -2 275
-15z m-595 -155 c8 -14 -84 -110 -106 -110 -24 0 -63 50 -49 64 7 7 17 7 32
-3 19 -12 24 -9 57 23 36 37 55 44 66 26z m595 -5 c0 -13 -37 -15 -275 -15
-238 0 -275 2 -275 15 0 13 37 15 275 15 238 0 275 -2 275 -15z m0 -90 c0 -13
-37 -15 -275 -15 -238 0 -275 2 -275 15 0 13 37 15 275 15 238 0 275 -2 275
-15z m378 -46 c99 -49 152 -128 160 -240 6 -90 -16 -154 -76 -218 -64 -68
-117 -91 -213 -91 -92 0 -159 29 -218 96 -127 144 -82 367 91 453 86 44 170
44 256 0z m-452 -200 c-3 -17 -6 -40 -6 -50 0 -18 -10 -19 -154 -19 -85 0
-161 3 -170 6 -16 6 -23 73 -9 87 3 4 83 7 176 7 l170 0 -7 -31z m5 -141 c6
-24 13 -46 16 -50 2 -5 -48 -8 -111 -8 l-116 0 0 43 c0 24 3 47 7 50 3 4 48 7
99 7 l93 0 12 -42z m84 -148 l50 -50 -240 2 -240 3 -3 39 c-2 24 2 42 10 47 7
5 94 9 193 9 l181 0 49 -50z"/>
<path d="M1383 811 c-121 -31 -203 -145 -190 -266 18 -176 203 -278 358 -197
183 96 182 348 -2 442 -43 22 -121 32 -166 21z m77 -95 c0 -18 7 -25 29 -29
28 -6 42 -29 34 -54 -7 -21 -33 -15 -33 7 0 17 -7 20 -50 20 l-50 0 0 -35 0
-35 54 0 c31 0 58 -5 64 -12 17 -23 24 -59 17 -94 -5 -28 -12 -36 -36 -41 -23
-4 -29 -11 -29 -30 0 -31 -34 -28 -38 3 -2 15 -13 24 -33 28 -24 5 -29 10 -29
36 0 35 25 42 33 9 5 -17 12 -20 49 -17 42 3 43 4 46 40 l3 37 -58 3 c-52 3
-59 6 -71 31 -9 18 -11 42 -7 63 5 28 12 36 36 41 18 3 29 12 29 23 0 20 9 30
27 30 7 0 13 -11 13 -24z"/>
</g>
</svg>
