<?xml version="1.0" standalone="no"?>
<!DOCTYPE svg PUBLIC "-//W3C//DTD SVG 20010904//EN"
 "http://www.w3.org/TR/2001/REC-SVG-20010904/DTD/svg10.dtd">
<svg version="1.0" xmlns="http://www.w3.org/2000/svg"
 width="200.000000pt" height="200.000000pt" viewBox="0 0 200.000000 200.000000"
 preserveAspectRatio="xMidYMid meet">
<metadata>
Created by potrace 1.16, written by Peter Selinger 2001-2019
</metadata>
<g transform="translate(0.000000,200.000000) scale(0.100000,-0.100000)"
fill="#000000" stroke="none">
<path d="M720 1771 c-50 -10 -120 -52 -120 -71 0 -40 22 -127 44 -175 l23 -51
-56 -36 c-130 -84 -242 -211 -300 -340 -85 -189 -84 -413 3 -561 30 -52 113
-130 168 -158 34 -17 38 -23 38 -57 0 -21 6 -47 14 -58 14 -18 34 -19 398 -25
211 -3 392 -9 404 -13 12 -4 47 -3 79 3 221 41 362 232 333 453 -19 148 -140
285 -284 322 -43 11 -47 15 -69 70 -49 121 -163 258 -285 344 -36 25 -68 48
-73 52 -4 4 4 28 19 54 18 32 28 68 32 111 7 95 3 101 -57 70 -29 -14 -67 -25
-91 -25 -34 0 -47 7 -86 45 -25 25 -51 45 -59 45 -7 0 -19 2 -27 4 -7 2 -29 1
-48 -3z m62 -40 c13 -5 39 -25 59 -44 53 -52 116 -59 200 -23 14 6 15 1 8 -43
-8 -52 -21 -84 -47 -113 -13 -16 -34 -18 -158 -18 l-143 0 -25 53 c-14 29 -28
77 -32 105 l-7 52 44 20 c49 22 67 24 101 11z m730 -784 c210 -103 270 -373
123 -553 -46 -56 -102 -92 -178 -116 -102 -32 -204 -17 -299 44 -150 95 -204
299 -123 464 33 67 119 146 188 173 79 32 212 26 289 -12z m-451 -59 c-17 -18
-38 -47 -48 -66 l-18 -33 -135 3 -135 3 -3 49 c-5 80 -14 76 188 76 l181 0
-30 -32z m-92 -170 c-5 -18 -9 -48 -9 -65 l0 -33 -193 0 c-137 0 -196 3 -205
12 -7 7 -12 29 -12 49 0 72 -11 69 220 69 l209 0 -10 -32z m4 -198 c10 -33 17
-62 17 -65 0 -3 -60 -4 -132 -3 l-133 3 -3 49 c-5 77 -7 76 121 76 l114 0 16
-60z m102 -175 l65 -65 -283 0 c-207 0 -286 3 -295 12 -7 7 -12 29 -12 49 0
73 -12 69 236 69 l224 0 65 -65z"/>
<path d="M1267 910 c-79 -24 -156 -97 -192 -182 -20 -48 -19 -152 1 -211 22
-64 91 -139 156 -168 73 -32 173 -32 243 -1 152 69 221 245 154 392 -36 78
-71 114 -141 149 -51 26 -73 31 -127 30 -36 0 -79 -5 -94 -9z m111 -113 c3
-21 9 -27 27 -27 28 0 60 -41 51 -65 -8 -23 -34 -18 -38 8 -2 18 -10 23 -42
25 -22 2 -50 1 -63 -3 -21 -5 -24 -10 -21 -48 l3 -42 65 -3 c78 -3 100 -22
100 -86 0 -51 -23 -86 -56 -86 -20 0 -24 -5 -24 -30 0 -23 -4 -30 -20 -30 -16
0 -20 7 -20 30 0 26 -4 30 -28 30 -36 0 -52 16 -52 52 0 34 27 39 32 6 3 -21
8 -23 63 -23 l60 0 0 50 0 50 -65 3 c-35 2 -70 8 -77 14 -17 13 -17 120 -1
136 7 7 25 12 40 12 23 0 28 4 28 23 0 46 33 49 38 4z"/>
</g>
</svg>
