<?xml version="1.0" standalone="no"?>
<!DOCTYPE svg PUBLIC "-//W3C//DTD SVG 20010904//EN"
 "http://www.w3.org/TR/2001/REC-SVG-20010904/DTD/svg10.dtd">
<svg version="1.0" xmlns="http://www.w3.org/2000/svg"
 width="200.000000pt" height="200.000000pt" viewBox="0 0 200.000000 200.000000"
 preserveAspectRatio="xMidYMid meet">
<metadata>
Created by potrace 1.16, written by Peter Selinger 2001-2019
</metadata>
<g transform="translate(0.000000,200.000000) scale(0.100000,-0.100000)"
fill="#000000" stroke="none">
<path d="M856 1751 l-149 -150 -227 -3 -227 -3 -48 -30 c-36 -22 -57 -45 -77
-84 l-28 -54 2 -613 c3 -601 3 -613 24 -640 11 -15 33 -37 48 -48 27 -21 35
-21 825 -21 l798 0 37 29 c67 50 66 46 66 536 0 354 -3 447 -14 474 -18 44
-76 86 -126 93 l-40 6 0 114 c0 133 -11 167 -66 209 -37 28 -41 29 -179 32
l-142 3 -149 150 c-82 82 -156 149 -164 149 -8 0 -82 -67 -164 -149z m529
-313 l30 -28 -85 -85 -85 -85 -395 0 -395 0 280 280 279 279 171 -166 c93 -92
183 -179 200 -195z m-900 -58 c-153 -154 -166 -160 -233 -120 -68 42 -91 124
-52 188 40 65 65 72 255 72 l170 0 -140 -140z m1132 117 c15 -15 19 -39 21
-137 l4 -120 -143 0 -144 0 78 78 c42 42 77 83 77 90 0 7 -21 36 -47 64 l-48
50 92 -3 c72 -3 96 -8 110 -22z m-600 -337 c714 -5 763 -6 780 -23 15 -14 19
-38 21 -127 l4 -110 -144 0 c-151 0 -190 -10 -245 -58 -28 -25 -63 -82 -63
-104 0 -17 -35 -18 -595 -18 l-595 0 0 245 0 244 38 -22 37 -22 762 -5z m803
-480 l0 -140 -139 0 c-127 0 -141 2 -172 23 -65 43 -86 124 -49 185 38 62 68
72 223 72 l137 0 0 -140z m-450 -57 c0 -23 35 -80 63 -105 55 -48 95 -58 245
-58 l142 0 0 -114 c0 -97 -3 -117 -19 -137 l-19 -24 -782 0 -782 0 -19 24
c-17 21 -19 41 -19 227 l0 204 595 0 c560 0 595 -1 595 -17z"/>
</g>
</svg>
