<?xml version="1.0" standalone="no"?>
<!DOCTYPE svg PUBLIC "-//W3C//DTD SVG 20010904//EN"
 "http://www.w3.org/TR/2001/REC-SVG-20010904/DTD/svg10.dtd">
<svg version="1.0" xmlns="http://www.w3.org/2000/svg"
 width="200.000000pt" height="200.000000pt" viewBox="0 0 200.000000 200.000000"
 preserveAspectRatio="xMidYMid meet">
<metadata>
Created by potrace 1.16, written by Peter Selinger 2001-2019
</metadata>
<g transform="translate(0.000000,200.000000) scale(0.100000,-0.100000)"
fill="#000000" stroke="none">
<path d="M553 1893 c-9 -3 -13 -32 -13 -94 0 -86 -1 -89 -23 -89 -13 0 -34
-11 -46 -24 -19 -21 -26 -48 -43 -183 -18 -142 -23 -160 -44 -176 -13 -10 -24
-25 -24 -32 0 -9 -23 -14 -84 -16 -96 -4 -129 -21 -158 -80 -16 -30 -18 -71
-18 -394 0 -396 1 -404 63 -449 26 -19 45 -21 223 -24 l194 -3 27 -28 c105
-104 367 -195 563 -195 126 0 190 14 290 64 107 53 114 55 149 29 69 -51 225
13 278 115 13 26 13 46 -3 199 -16 157 -19 173 -43 200 -66 73 -211 30 -211
-63 0 -27 -27 -26 -155 6 l-105 26 0 149 0 149 80 0 c176 0 326 96 404 260 42
89 49 215 17 318 -63 208 -278 341 -491 304 -186 -32 -332 -173 -370 -357 -12
-59 -7 -154 10 -201 l10 -24 -130 0 c-84 0 -130 4 -130 10 0 6 -11 21 -24 33
-22 20 -27 41 -45 177 -23 166 -35 197 -81 207 l-30 6 0 82 c0 82 -10 108 -37
98z m1063 -106 c157 -73 255 -255 227 -422 -39 -227 -240 -374 -460 -335 -134
23 -236 102 -296 228 -29 61 -32 75 -32 167 0 92 3 106 32 168 49 102 140 181
253 218 14 4 68 7 120 6 80 -2 105 -7 156 -30z m-989 -139 c9 -12 43 -235 43
-280 0 -16 -12 -18 -110 -18 -109 0 -110 0 -105 23 2 12 12 76 20 142 9 66 18
126 20 133 3 8 25 12 63 12 36 0 64 -5 69 -12z m91 -360 c9 -9 12 -113 12
-409 l0 -396 -37 -6 c-37 -6 -103 -60 -103 -84 0 -10 -24 -13 -95 -13 l-95 0
0 448 c0 335 3 451 12 460 8 8 57 12 153 12 96 0 145 -4 153 -12z m-368 -168
l0 -110 -100 0 -100 0 0 85 c0 80 2 88 26 110 24 22 36 25 100 25 l74 0 0
-110z m724 66 c36 -61 125 -140 191 -167 l55 -23 0 -146 0 -146 -89 0 c-102 1
-132 -13 -164 -77 -34 -68 0 -104 107 -114 54 -5 66 -9 64 -22 -4 -21 -43 -28
-155 -30 l-93 -1 0 249 0 249 -26 31 c-24 29 -30 30 -107 33 l-82 3 -3 103 -3
102 140 0 139 0 26 -44z m-146 -218 c9 -9 12 -79 12 -255 l0 -243 -64 0 c-104
0 -96 -23 -96 261 l0 249 68 0 c40 0 73 -5 80 -12z m-578 -133 l0 -125 -100 0
-100 0 0 125 0 125 100 0 100 0 0 -125z m1460 -150 c12 -15 39 -228 40 -312 0
-51 -35 -97 -95 -124 -41 -19 -120 -25 -129 -10 -9 13 52 431 65 447 16 19
103 19 119 -1z m-1460 -165 l0 -140 -66 0 c-118 0 -133 19 -134 168 l0 112
100 0 100 0 0 -140z m1095 98 c94 -24 171 -43 172 -44 2 0 -6 -65 -17 -144
-11 -79 -20 -147 -20 -151 0 -4 -10 -11 -22 -14 -13 -4 -59 -25 -103 -48 -106
-53 -162 -67 -270 -67 -166 0 -352 54 -489 140 -75 48 -84 73 -40 117 l26 26
166 -9 c301 -16 409 -7 432 36 26 49 -1 86 -70 95 -105 14 -110 16 -110 34 0
10 11 30 25 45 37 40 111 36 320 -16z"/>
<path d="M1437 1734 c-4 -4 -7 -22 -7 -41 0 -31 -2 -33 -35 -33 -86 0 -135
-49 -135 -133 0 -72 60 -127 140 -127 l31 0 -3 -82 -3 -83 -80 -5 c-62 -4 -80
-8 -80 -20 0 -12 18 -16 80 -20 l80 -5 3 -38 c3 -30 7 -37 20 -35 12 2 18 15
20 41 3 36 4 37 44 37 101 0 159 98 110 189 -22 40 -73 71 -119 71 l-33 0 0
80 0 80 73 0 c78 0 103 9 94 34 -5 13 -22 16 -86 16 l-80 0 -3 37 c-3 35 -17
51 -31 37z m-7 -204 l0 -80 -39 0 c-49 0 -80 25 -87 70 -9 54 24 90 82 90 l44
0 0 -80z m137 -152 c17 -16 23 -33 23 -63 0 -51 -22 -75 -79 -82 l-41 -6 0 87
0 86 37 0 c24 0 45 -8 60 -22z"/>
</g>
</svg>
