<?xml version="1.0" standalone="no"?>
<!DOCTYPE svg PUBLIC "-//W3C//DTD SVG 20010904//EN"
 "http://www.w3.org/TR/2001/REC-SVG-20010904/DTD/svg10.dtd">
<svg version="1.0" xmlns="http://www.w3.org/2000/svg"
 width="200.000000pt" height="200.000000pt" viewBox="0 0 200.000000 200.000000"
 preserveAspectRatio="xMidYMid meet">
<metadata>
Created by potrace 1.16, written by Peter Selinger 2001-2019
</metadata>
<g transform="translate(0.000000,200.000000) scale(0.100000,-0.100000)"
fill="#000000" stroke="none">
<path d="M127 1883 c-4 -3 -7 -345 -7 -760 l0 -753 420 0 c254 0 420 4 420 9
0 5 -5 22 -10 37 -19 48 -30 159 -21 212 l8 52 -166 2 c-149 3 -166 5 -169 20
-3 17 10 18 170 18 l174 0 22 53 c13 30 45 81 72 115 l50 62 -243 2 c-221 3
-242 4 -245 21 -3 16 15 17 273 17 271 0 277 0 323 24 49 25 102 41 165 51
l37 6 0 409 0 410 -633 0 c-349 0 -637 -3 -640 -7z m343 -306 c0 -7 -23 -35
-50 -62 l-50 -49 -32 32 c-25 24 -30 34 -20 44 9 9 16 7 32 -7 21 -19 21 -18
58 18 37 38 62 47 62 24z m738 -64 c-3 -17 -25 -18 -303 -18 -278 0 -300 1
-303 18 -3 16 17 17 303 17 286 0 306 -1 303 -17z m-738 -206 c0 -7 -23 -35
-50 -62 l-50 -49 -32 32 c-25 24 -30 34 -20 44 9 9 16 7 32 -7 21 -19 21 -18
58 18 37 38 62 47 62 24z m738 -64 c-3 -17 -25 -18 -303 -18 -278 0 -300 1
-303 18 -3 16 17 17 303 17 286 0 306 -1 303 -17z m-738 -206 c0 -7 -22 -35
-50 -62 l-50 -49 -30 29 c-45 43 -34 80 12 38 18 -16 21 -15 56 20 37 38 62
47 62 24z m0 -270 c0 -7 -22 -35 -50 -62 l-50 -49 -30 29 c-45 43 -34 80 12
38 18 -16 21 -15 56 20 37 38 62 47 62 24z"/>
<path d="M1324 1015 c-120 -26 -218 -95 -286 -199 -132 -204 -76 -481 123
-617 202 -137 482 -93 622 99 138 187 120 430 -43 593 -64 65 -132 103 -222
124 -75 18 -113 18 -194 0z m114 -163 l3 -51 77 -3 c60 -2 77 -6 77 -18 0 -12
-24 -16 -135 -20 -79 -3 -144 -10 -156 -17 -39 -22 -46 -76 -15 -114 17 -22
28 -24 140 -29 120 -5 121 -5 153 -38 28 -28 33 -39 33 -82 0 -42 -5 -54 -32
-81 -26 -27 -41 -33 -87 -37 l-56 -4 0 -54 c0 -40 -4 -54 -14 -54 -18 0 -26
22 -26 70 l0 39 -72 3 c-57 2 -73 6 -73 18 0 12 24 16 135 20 74 3 142 9 152
13 9 5 22 22 29 39 10 26 10 35 -2 57 -23 40 -55 51 -157 51 -107 0 -143 13
-168 62 -20 38 -14 101 13 130 23 27 74 48 113 48 28 0 30 2 30 39 0 85 33 96
38 13z"/>
</g>
</svg>
