<?xml version="1.0" standalone="no"?>
<!DOCTYPE svg PUBLIC "-//W3C//DTD SVG 20010904//EN"
 "http://www.w3.org/TR/2001/REC-SVG-20010904/DTD/svg10.dtd">
<svg version="1.0" xmlns="http://www.w3.org/2000/svg"
 width="200.000000pt" height="200.000000pt" viewBox="0 0 200.000000 200.000000"
 preserveAspectRatio="xMidYMid meet">
<metadata>
Created by potrace 1.16, written by Peter Selinger 2001-2019
</metadata>
<g transform="translate(0.000000,200.000000) scale(0.100000,-0.100000)"
fill="#000000" stroke="none">
<path d="M90 1125 l0 -795 449 0 449 0 22 -34 c53 -88 174 -170 293 -202 250
-66 515 89 591 345 20 67 21 188 2 257 -46 172 -212 333 -371 359 -22 3 -50 8
-62 11 l-23 4 -2 423 -3 422 -672 3 -673 2 0 -795z m1310 350 l0 -404 -37 -6
c-63 -10 -116 -26 -165 -51 -46 -24 -52 -24 -323 -24 -258 0 -276 -1 -273 -17
3 -17 24 -18 246 -21 l242 -2 -47 -58 c-25 -31 -57 -81 -70 -109 l-24 -53
-159 0 c-164 0 -190 -3 -190 -25 0 -22 26 -25 186 -25 100 0 153 -4 149 -10
-14 -23 -5 -189 13 -244 l19 -56 -419 0 -418 0 0 755 0 755 635 0 635 0 0
-405z m40 -626 l0 -49 75 0 c68 0 75 -2 75 -20 0 -19 -7 -20 -135 -20 -131 0
-137 -1 -160 -25 -33 -32 -33 -78 0 -110 22 -23 31 -25 128 -25 92 0 108 -3
138 -23 47 -31 66 -91 45 -141 -19 -45 -68 -76 -123 -76 l-43 0 0 -51 c0 -43
-3 -50 -17 -47 -14 2 -19 15 -21 50 l-3 47 -72 3 c-59 2 -72 6 -75 21 -3 15 8
17 132 17 127 0 136 1 162 23 37 33 37 81 0 114 -24 21 -37 23 -122 23 -111 0
-156 15 -178 59 -46 89 14 181 118 181 l36 0 0 49 c0 30 5 51 13 54 21 8 27
-3 27 -54z"/>
<path d="M408 1553 c-37 -36 -37 -37 -58 -18 -16 14 -23 16 -32 7 -9 -9 -5
-19 17 -42 16 -16 34 -30 40 -30 21 0 98 88 92 104 -9 23 -18 20 -59 -21z"/>
<path d="M602 1513 c3 -17 27 -18 306 -21 297 -2 302 -2 302 18 0 20 -6 20
-306 20 -286 0 -305 -1 -302 -17z"/>
<path d="M411 1286 c-32 -33 -35 -34 -58 -19 -18 12 -27 13 -35 5 -9 -9 -5
-19 17 -42 16 -16 34 -30 40 -30 17 0 95 84 95 103 0 27 -23 20 -59 -17z"/>
<path d="M602 1243 c3 -17 25 -18 303 -18 278 0 300 1 303 18 3 16 -17 17
-303 17 -286 0 -306 -1 -303 -17z"/>
<path d="M410 1015 c-31 -32 -35 -34 -51 -19 -18 16 -49 13 -49 -4 0 -4 13
-21 29 -36 l30 -29 50 43 c29 23 51 50 51 61 0 29 -22 23 -60 -16z"/>
<path d="M410 745 c-31 -32 -35 -34 -51 -19 -18 16 -49 13 -49 -4 0 -4 14 -21
30 -37 l30 -29 50 49 c28 27 50 55 50 62 0 23 -25 14 -60 -22z"/>
</g>
</svg>
