<?xml version="1.0" standalone="no"?>
<!DOCTYPE svg PUBLIC "-//W3C//DTD SVG 20010904//EN"
 "http://www.w3.org/TR/2001/REC-SVG-20010904/DTD/svg10.dtd">
<svg version="1.0" xmlns="http://www.w3.org/2000/svg"
 width="200.000000pt" height="200.000000pt" viewBox="0 0 200.000000 200.000000"
 preserveAspectRatio="xMidYMid meet">
<metadata>
Created by potrace 1.16, written by Peter Selinger 2001-2019
</metadata>
<g transform="translate(0.000000,200.000000) scale(0.100000,-0.100000)"
fill="#000000" stroke="none">
<path d="M1060 1900 c-7 -4 -10 -52 -8 -136 l3 -129 30 -3 c47 -5 154 -41 220
-76 36 -18 92 -63 141 -111 92 -92 141 -179 173 -308 11 -44 23 -82 26 -85 4
-4 60 -7 126 -7 134 0 141 3 132 64 -46 320 -240 584 -527 716 -112 52 -287
93 -316 75z m217 -100 c214 -72 417 -260 500 -462 25 -61 62 -190 63 -215 0
-9 -21 -13 -73 -13 l-74 0 -31 96 c-41 124 -89 201 -177 289 -99 98 -211 159
-347 189 -28 6 -28 8 -28 82 l0 76 43 -7 c23 -4 79 -19 124 -35z"/>
<path d="M773 1880 c-253 -66 -467 -239 -586 -475 -58 -115 -107 -312 -86
-347 6 -10 39 -13 128 -13 66 0 122 3 126 7 3 3 13 37 20 75 33 159 157 333
296 416 57 33 176 77 252 92 l27 5 0 130 0 130 -52 -1 c-29 0 -85 -9 -125 -19z
m117 -115 c0 -73 0 -75 -27 -81 -140 -30 -250 -91 -353 -194 -103 -103 -164
-213 -194 -352 -6 -28 -8 -28 -81 -28 -89 0 -87 -4 -50 124 83 288 310 511
595 585 115 30 110 33 110 -54z"/>
<path d="M876 1514 c-201 -49 -363 -224 -398 -432 -45 -264 138 -534 403 -597
297 -70 597 137 641 443 32 218 -90 448 -286 542 -128 61 -236 74 -360 44z
m210 -55 c133 -24 266 -125 328 -250 107 -213 47 -453 -148 -591 -281 -199
-669 -34 -728 310 -40 236 123 475 362 528 71 16 112 17 186 3z"/>
<path d="M977 1384 c-4 -4 -7 -22 -7 -40 0 -28 -5 -35 -45 -54 -149 -72 -109
-296 57 -317 24 -3 55 -12 70 -20 30 -15 58 -60 58 -93 0 -54 -57 -110 -113
-110 -39 0 -90 41 -102 82 -12 45 -28 63 -49 55 -46 -18 6 -138 75 -174 38
-20 45 -29 49 -61 4 -31 9 -37 30 -37 22 0 25 5 28 38 3 31 8 39 35 51 44 18
95 78 103 121 11 60 -4 106 -50 151 -30 30 -53 44 -81 49 -74 12 -84 15 -110
38 -51 44 -42 131 17 167 74 45 149 7 168 -85 7 -34 46 -48 56 -21 19 50 -38
145 -103 172 -27 12 -32 20 -35 51 -2 29 -8 39 -23 41 -12 2 -24 0 -28 -4z"/>
<path d="M118 954 c-9 -3 -18 -11 -21 -17 -9 -23 13 -140 43 -231 45 -135 109
-235 220 -346 103 -104 192 -164 314 -211 79 -30 236 -62 261 -53 12 5 15 29
15 135 l0 128 -42 11 c-178 43 -270 92 -368 197 -81 87 -133 182 -159 293 -11
45 -23 85 -26 89 -8 7 -213 12 -237 5z m202 -106 c39 -150 87 -235 195 -343
101 -101 208 -160 348 -189 27 -6 27 -8 27 -82 l0 -76 -47 7 c-123 18 -282 94
-394 189 -148 125 -253 308 -284 494 l-7 42 76 0 75 0 11 -42z"/>
<path d="M1655 951 c-15 -6 -23 -25 -33 -77 -42 -230 -243 -437 -477 -490 -38
-9 -76 -18 -82 -20 -10 -2 -13 -38 -13 -134 l0 -130 48 0 c114 1 292 67 427
161 202 139 343 374 378 630 8 59 0 64 -120 66 -59 2 -117 -1 -128 -6z m185
-74 c0 -32 -41 -169 -68 -230 -103 -227 -316 -405 -557 -467 -43 -11 -84 -20
-92 -20 -10 0 -13 19 -13 75 0 73 0 75 28 81 268 59 474 260 542 532 l11 42
74 0 c56 0 75 -3 75 -13z"/>
</g>
</svg>
