<?xml version="1.0" standalone="no"?>
<!DOCTYPE svg PUBLIC "-//W3C//DTD SVG 20010904//EN"
 "http://www.w3.org/TR/2001/REC-SVG-20010904/DTD/svg10.dtd">
<svg version="1.0" xmlns="http://www.w3.org/2000/svg"
 width="200.000000pt" height="200.000000pt" viewBox="0 0 200.000000 200.000000"
 preserveAspectRatio="xMidYMid meet">
<metadata>
Created by potrace 1.16, written by Peter Selinger 2001-2019
</metadata>
<g transform="translate(0.000000,200.000000) scale(0.100000,-0.100000)"
fill="#000000" stroke="none">
<path d="M923 1931 c-24 -4 -46 -10 -49 -14 -10 -10 37 -76 97 -134 l54 -53
303 0 303 0 50 43 c45 38 109 119 109 138 0 4 -23 -1 -50 -12 -71 -27 -207
-25 -416 6 -188 28 -338 38 -401 26z"/>
<path d="M992 1668 c-16 -16 -15 -53 2 -67 9 -8 108 -11 341 -9 317 3 328 4
341 23 12 18 11 24 -2 43 -15 22 -16 22 -343 22 -241 0 -330 -3 -339 -12z"/>
<path d="M935 1433 c-169 -166 -213 -270 -206 -485 l1 -38 293 0 292 0 -33 20
c-41 25 -60 63 -43 84 16 19 41 10 41 -15 0 -28 43 -45 75 -31 27 12 33 43 13
60 -7 5 -31 15 -53 21 -55 14 -74 30 -81 69 -6 29 -2 37 34 71 22 21 42 47 44
57 5 27 32 24 36 -4 2 -12 16 -29 31 -37 30 -15 58 -66 46 -84 -11 -19 -34
-12 -47 17 -23 48 -103 38 -96 -12 2 -16 15 -24 53 -33 55 -14 95 -50 95 -87
0 -28 -35 -74 -64 -86 -13 -6 35 -9 127 -9 149 -1 179 -7 204 -40 9 -11 12
-68 13 -186 l0 -169 46 44 c66 65 114 143 147 240 25 72 30 101 30 185 1 188
-47 291 -207 448 l-111 107 -285 0 -285 0 -110 -107z"/>
<path d="M90 857 l-25 -13 -3 -373 c-2 -338 -1 -376 14 -393 16 -17 52 -18
790 -18 l773 0 15 22 c23 32 24 733 2 764 -14 18 -35 19 -778 21 -602 2 -768
0 -788 -10z m1364 -105 c12 -43 58 -89 99 -100 l32 -8 3 -180 2 -181 -39 -12
c-45 -13 -89 -60 -98 -102 l-5 -29 -584 0 -583 0 -11 38 c-12 45 -43 77 -90
93 -19 7 -38 17 -42 23 -10 14 -10 328 0 342 4 6 19 14 34 17 41 11 86 55 99
98 l12 39 581 -2 580 -3 10 -33z"/>
<path d="M304 708 c-18 -40 -83 -98 -111 -98 -10 0 -13 -29 -13 -142 l0 -143
48 -26 c34 -19 55 -40 73 -73 l24 -46 542 0 c449 0 543 2 543 13 0 28 60 95
99 113 l41 18 0 138 0 138 -37 19 c-44 22 -74 53 -97 99 l-17 32 -538 0 -538
0 -19 -42z m583 -95 c4 -10 19 -30 35 -45 29 -27 37 -63 16 -71 -7 -3 -25 9
-39 25 -20 24 -30 29 -48 23 -39 -12 -23 -46 29 -61 76 -22 92 -73 40 -126
-16 -16 -30 -33 -30 -37 0 -14 -23 -29 -36 -24 -8 3 -14 13 -14 22 0 10 -11
23 -25 29 -38 17 -47 82 -11 82 7 0 18 -11 24 -25 16 -36 72 -31 72 6 0 13
-12 21 -42 30 -57 15 -78 35 -78 75 0 25 7 39 29 55 16 12 32 30 34 40 6 24
35 25 44 2z m-347 -138 c21 -25 1 -35 -76 -35 -65 0 -74 2 -74 18 0 28 8 32
75 32 43 0 66 -5 75 -15z m795 -10 c0 -18 -8 -20 -73 -23 -60 -2 -73 0 -79 14
-9 25 16 34 87 32 57 -3 65 -5 65 -23z"/>
</g>
</svg>
