<?xml version="1.0" standalone="no"?>
<!DOCTYPE svg PUBLIC "-//W3C//DTD SVG 20010904//EN"
 "http://www.w3.org/TR/2001/REC-SVG-20010904/DTD/svg10.dtd">
<svg version="1.0" xmlns="http://www.w3.org/2000/svg"
 width="200.000000pt" height="200.000000pt" viewBox="0 0 200.000000 200.000000"
 preserveAspectRatio="xMidYMid meet">
<metadata>
Created by potrace 1.16, written by Peter Selinger 2001-2019
</metadata>
<g transform="translate(0.000000,200.000000) scale(0.100000,-0.100000)"
fill="#000000" stroke="none">
<path d="M495 1730 l-69 -69 -90 -3 -91 -3 -3 -679 c-2 -537 0 -681 10 -688 7
-4 160 -8 340 -8 l327 0 3 -37 3 -38 415 0 415 0 3 513 2 512 -135 0 -135 0
-2 283 -3 282 -460 3 -460 2 -70 -70z m955 -235 l0 -265 -50 0 -50 0 0 123 0
123 -94 92 -93 92 -339 0 -338 0 49 50 49 50 433 0 433 0 0 -265z m-310 41 c0
-98 -2 -96 101 -96 l69 0 0 -105 0 -105 -192 -2 -193 -3 -3 -453 -2 -452 -320
0 -320 0 0 650 0 650 430 0 430 0 0 -84z m95 -6 l49 -50 -52 0 -52 0 0 50 c0
28 1 50 3 50 1 0 25 -22 52 -50z m485 -815 l0 -475 -380 0 -380 0 0 475 0 475
380 0 380 0 0 -475z"/>
<path d="M567 1510 c-72 -28 -112 -64 -144 -127 -62 -128 -15 -276 107 -338
68 -34 117 -40 182 -21 75 21 128 63 163 127 77 143 -1 325 -158 366 -67 17
-92 16 -150 -7z m150 -35 c36 -11 62 -28 91 -59 85 -92 82 -208 -7 -297 -45
-46 -96 -69 -151 -69 -112 0 -220 108 -220 221 0 108 103 212 216 218 11 1 43
-6 71 -14z"/>
<path d="M637 1434 c-4 -4 -7 -13 -7 -20 0 -7 -11 -24 -25 -38 -46 -46 -20
-119 45 -128 20 -2 25 -9 25 -33 0 -23 -5 -31 -22 -33 -17 -3 -26 3 -33 22 -5
14 -16 26 -25 26 -24 0 -18 -46 9 -67 13 -11 25 -28 28 -39 2 -10 10 -19 18
-19 8 0 16 9 18 19 3 11 15 28 28 39 48 38 25 108 -42 126 -21 5 -30 14 -32
33 -5 43 44 48 63 6 13 -28 29 -28 33 -1 2 14 -6 32 -22 47 -13 14 -26 33 -28
42 -3 19 -20 28 -31 18z"/>
<path d="M407 939 c-9 -6 -15 -14 -12 -20 7 -10 418 -13 428 -2 4 3 2 12 -4
20 -14 16 -383 19 -412 2z"/>
<path d="M396 811 c-16 -26 27 -31 225 -29 173 3 204 5 204 18 0 13 -31 15
-212 18 -119 1 -214 -2 -217 -7z"/>
<path d="M407 689 c-9 -6 -15 -14 -12 -20 7 -10 418 -13 428 -2 4 3 2 12 -4
20 -14 16 -383 19 -412 2z"/>
<path d="M395 559 c-16 -25 19 -29 221 -27 178 3 209 5 209 18 0 13 -31 15
-212 18 -147 2 -214 -1 -218 -9z"/>
<path d="M407 439 c-9 -6 -15 -14 -12 -20 7 -10 418 -13 428 -2 4 3 2 12 -4
20 -14 16 -383 19 -412 2z"/>
<path d="M1017 1153 c-4 -3 -7 -41 -7 -84 0 -61 3 -78 16 -83 24 -9 617 -7
632 3 9 5 12 30 10 87 l-3 79 -321 3 c-176 1 -323 -1 -327 -5z m623 -78 l0
-45 -295 0 -295 0 0 45 0 45 295 0 295 0 0 -45z"/>
<path d="M1012 618 l3 -333 325 0 325 0 3 333 2 332 -330 0 -330 0 2 -332z
m308 157 l0 -135 -135 0 -135 0 0 135 0 135 135 0 135 0 0 -135z m320 0 l0
-135 -140 0 -140 0 0 135 0 135 140 0 140 0 0 -135z m-320 -315 l0 -140 -135
0 -135 0 0 140 0 140 135 0 135 0 0 -140z m156 127 c-26 -19 -18 -71 12 -75
46 -7 67 35 35 70 -17 19 -15 19 47 16 l65 -3 0 -135 0 -135 -65 -3 c-62 -3
-64 -3 -47 16 31 34 15 72 -30 72 -32 0 -46 -37 -27 -67 14 -23 14 -23 -46
-23 l-60 0 0 140 0 140 67 0 c57 0 64 -2 49 -13z"/>
<path d="M1152 878 c-6 -6 -12 -22 -12 -34 0 -17 -8 -24 -30 -29 -43 -9 -56
-39 -30 -65 11 -11 29 -20 40 -20 14 0 20 -7 20 -24 0 -30 22 -49 52 -44 18 2
24 10 26 36 3 26 8 32 26 32 34 0 58 23 54 51 -2 18 -12 26 -40 33 -32 8 -37
14 -40 40 -2 25 -8 32 -28 34 -14 2 -31 -3 -38 -10z m51 -100 c9 -6 9 -8 0 -8
-8 0 -14 -15 -15 -37 l-1 -38 -4 35 c-3 19 -10 38 -16 42 -9 6 -9 8 1 8 7 0
13 15 14 38 l1 37 4 -35 c3 -19 10 -38 16 -42z"/>
<path d="M1408 813 c-10 -2 -21 -16 -24 -30 -11 -41 16 -53 113 -53 69 0 86 3
103 20 23 23 17 48 -17 61 -24 9 -143 11 -175 2z"/>
<path d="M1097 543 c-12 -12 -7 -46 10 -65 15 -17 15 -19 -1 -37 -21 -23 -18
-60 6 -75 13 -8 24 -6 45 10 27 21 28 21 53 2 47 -34 88 9 56 57 -15 23 -15
27 0 50 33 50 -21 91 -66 50 -15 -14 -18 -14 -30 0 -13 15 -61 21 -73 8z m125
-46 c-25 -26 -28 -47 -9 -67 6 -8 3 -7 -8 2 -16 13 -24 14 -40 6 -18 -10 -19
-10 -6 6 12 14 11 20 -10 44 l-24 27 28 -24 28 -25 27 27 c32 33 44 36 14 4z"/>
<path d="M1392 488 c-7 -7 -12 -19 -12 -28 0 -33 22 -40 122 -40 87 0 98 2
108 20 8 14 8 26 0 40 -10 18 -21 20 -108 20 -63 0 -102 -4 -110 -12z"/>
</g>
</svg>
