<?xml version="1.0" standalone="no"?>
<!DOCTYPE svg PUBLIC "-//W3C//DTD SVG 20010904//EN"
 "http://www.w3.org/TR/2001/REC-SVG-20010904/DTD/svg10.dtd">
<svg version="1.0" xmlns="http://www.w3.org/2000/svg"
 width="200.000000pt" height="200.000000pt" viewBox="0 0 200.000000 200.000000"
 preserveAspectRatio="xMidYMid meet">
<metadata>
Created by potrace 1.16, written by Peter Selinger 2001-2019
</metadata>
<g transform="translate(0.000000,200.000000) scale(0.100000,-0.100000)"
fill="#000000" stroke="none">
<path d="M935 1956 c-5 -3 -27 -7 -47 -11 -29 -4 -38 -11 -38 -26 0 -34 30
-81 97 -151 56 -57 62 -67 45 -72 -53 -17 -47 -101 10 -127 l30 -15 -96 -88
c-107 -98 -173 -190 -207 -286 -18 -52 -23 -88 -23 -177 l-1 -112 -318 -3
c-302 -3 -319 -4 -333 -22 -11 -16 -14 -88 -14 -403 0 -370 1 -384 20 -403 20
-20 33 -20 805 -20 772 0 785 0 805 20 19 19 20 34 21 218 l0 197 43 35 c153
127 234 314 223 516 -10 176 -71 292 -232 440 l-96 88 35 18 c41 21 54 56 37
95 -6 14 -20 27 -31 30 -18 5 -11 15 47 77 71 74 105 129 96 154 -6 15 -9 14
-103 -12 -76 -22 -168 -20 -365 9 -156 24 -386 41 -410 31z m370 -72 c172 -26
369 -35 415 -20 19 6 6 -12 -50 -72 l-75 -79 -261 -2 -261 -1 -88 91 c-67 70
-84 93 -74 100 28 17 224 9 394 -17z m350 -249 c0 -20 -7 -20 -315 -22 -173
-2 -321 1 -329 6 -8 5 -11 16 -8 25 6 15 40 16 329 14 315 -3 323 -3 323 -23z
m39 -207 c108 -108 139 -145 164 -198 80 -171 66 -390 -34 -547 -37 -58 -111
-143 -125 -143 -5 0 -9 68 -9 150 0 147 -1 152 -25 175 -23 24 -28 25 -170 25
-122 0 -145 2 -145 15 0 8 6 15 14 15 21 0 66 58 66 85 0 38 -39 74 -95 88
-38 9 -51 17 -53 33 -7 50 73 60 96 12 13 -29 36 -36 47 -17 12 18 -16 69 -46
84 -15 8 -29 25 -31 37 -4 28 -31 31 -36 4 -2 -10 -22 -35 -43 -56 -41 -39
-46 -57 -28 -93 15 -28 25 -35 74 -48 22 -6 46 -16 53 -21 21 -18 13 -45 -17
-58 -35 -14 -71 0 -71 29 0 24 -25 34 -39 17 -17 -20 3 -64 39 -84 68 -39 45
-42 -247 -40 l-278 3 -3 75 c-4 96 12 178 50 260 25 52 57 91 162 196 l131
132 233 1 232 1 134 -132z m-54 -963 l0 -375 -775 0 -775 0 0 375 0 375 775 0
775 0 0 -375z"/>
<path d="M271 751 c-13 -43 -58 -87 -99 -98 -15 -3 -30 -11 -34 -17 -10 -14
-10 -328 0 -342 4 -6 24 -17 44 -23 41 -14 88 -62 88 -91 0 -10 7 -26 16 -34
14 -14 79 -16 567 -16 304 0 562 3 573 6 14 4 24 16 27 33 9 42 54 89 98 102
l39 12 -2 180 -3 180 -30 10 c-41 13 -91 62 -102 100 l-9 32 -580 3 -581 2
-12 -39z m1144 -31 c11 -33 55 -80 96 -101 l39 -19 0 -138 0 -138 -41 -18
c-39 -18 -99 -85 -99 -113 0 -11 -94 -13 -544 -13 l-544 0 -12 30 c-15 37 -63
85 -101 100 l-29 12 0 144 c0 110 3 144 13 144 26 0 88 52 107 90 l20 40 545
0 c535 0 544 0 550 -20z"/>
<path d="M843 611 c-2 -10 -18 -28 -34 -40 -22 -16 -29 -30 -29 -55 0 -40 21
-60 78 -75 30 -9 42 -17 42 -30 0 -37 -56 -42 -72 -6 -19 42 -56 27 -44 -19 3
-12 17 -28 31 -36 14 -7 25 -21 25 -31 0 -9 6 -19 14 -22 13 -5 36 10 36 24 0
4 14 21 30 37 52 53 36 104 -40 126 -52 15 -68 49 -29 61 18 6 28 1 48 -23 14
-16 32 -28 39 -25 21 8 13 44 -16 71 -16 15 -31 35 -35 45 -9 23 -38 22 -44
-2z"/>
<path d="M397 483 c-4 -3 -7 -15 -7 -25 0 -16 9 -18 74 -18 77 0 97 10 76 35
-13 15 -130 22 -143 8z"/>
<path d="M1191 481 c-8 -5 -11 -16 -8 -25 6 -14 19 -16 79 -14 65 3 73 5 73
23 0 18 -8 20 -65 23 -36 1 -71 -2 -79 -7z"/>
</g>
</svg>
