<?xml version="1.0" standalone="no"?>
<!DOCTYPE svg PUBLIC "-//W3C//DTD SVG 20010904//EN"
 "http://www.w3.org/TR/2001/REC-SVG-20010904/DTD/svg10.dtd">
<svg version="1.0" xmlns="http://www.w3.org/2000/svg"
 width="200.000000pt" height="200.000000pt" viewBox="0 0 200.000000 200.000000"
 preserveAspectRatio="xMidYMid meet">
<metadata>
Created by potrace 1.16, written by Peter Selinger 2001-2019
</metadata>
<g transform="translate(0.000000,200.000000) scale(0.100000,-0.100000)"
fill="#000000" stroke="none">
<path d="M520 1735 l-54 -55 350 0 349 0 98 -98 97 -97 0 -123 0 -122 55 0 55
0 -2 273 -3 272 -445 3 -445 2 -55 -55z"/>
<path d="M260 970 l0 -670 330 0 330 0 2 468 3 467 198 3 197 2 0 110 0 109
-87 3 -88 3 -3 88 -3 87 -439 0 -440 0 0 -670z m518 531 c50 -32 92 -82 111
-134 20 -54 13 -148 -15 -205 -125 -251 -494 -163 -494 118 0 80 23 134 80
189 55 54 107 71 197 67 60 -2 79 -8 121 -35z m42 -576 c0 -13 -31 -15 -220
-15 -189 0 -220 2 -220 15 0 13 31 15 220 15 189 0 220 -2 220 -15z m0 -130
c0 -13 -31 -15 -220 -15 -189 0 -220 2 -220 15 0 13 31 15 220 15 189 0 220
-2 220 -15z m-2 -127 c3 -17 -12 -18 -217 -18 -178 0 -221 3 -221 13 0 8 3 17
7 21 4 3 101 5 217 4 192 -3 211 -5 214 -20z m0 -130 c3 -17 -12 -18 -217 -18
-178 0 -221 3 -221 13 0 8 3 17 7 21 4 3 101 5 217 4 192 -3 211 -5 214 -20z
m0 -130 c3 -17 -12 -18 -217 -18 -178 0 -221 3 -221 13 0 8 3 17 7 21 4 3 101
5 217 4 192 -3 211 -5 214 -20z"/>
<path d="M565 1488 c-171 -60 -201 -294 -52 -395 91 -61 195 -53 275 21 24 22
50 56 58 75 20 48 19 127 -1 179 -41 100 -173 157 -280 120z m94 -63 c2 -10
14 -28 28 -38 16 -13 23 -27 21 -43 -4 -29 -19 -33 -33 -7 -20 36 -36 40 -59
17 -21 -21 -6 -49 31 -59 42 -10 63 -34 63 -72 0 -23 -8 -41 -24 -56 -13 -12
-25 -31 -27 -42 -5 -26 -33 -26 -38 0 -2 11 -14 30 -27 42 -26 24 -33 73 -11
73 8 0 19 -12 25 -26 17 -35 56 -30 60 8 3 24 -1 28 -38 38 -67 18 -86 88 -34
129 13 10 24 25 24 33 0 33 32 35 39 3z"/>
<path d="M1180 1555 l0 -55 57 0 57 0 -54 55 c-30 30 -56 55 -57 55 -2 0 -3
-25 -3 -55z"/>
<path d="M960 705 l0 -495 390 0 390 0 0 495 0 495 -390 0 -390 0 0 -495z
m730 370 l0 -85 -340 0 -340 0 0 85 0 85 340 0 340 0 0 -85z m-2 -467 l-3
-343 -335 0 -335 0 -3 343 -2 342 340 0 340 0 -2 -342z"/>
<path d="M1050 1070 l0 -50 303 2 302 3 3 48 3 47 -305 0 -306 0 0 -50z"/>
<path d="M1050 765 l0 -145 140 0 140 0 0 145 0 145 -140 0 -140 0 0 -145z
m168 113 c7 -7 12 -25 12 -40 0 -24 4 -28 29 -28 36 0 55 -22 47 -55 -5 -20
-13 -25 -37 -25 -30 0 -32 -3 -44 -53 -5 -25 -10 -28 -38 -25 -28 3 -33 7 -37
38 -4 31 -9 36 -40 40 -27 4 -36 10 -38 28 -5 32 15 52 49 52 25 0 29 4 29 28
0 31 16 52 40 52 9 0 21 -5 28 -12z"/>
<path d="M1145 771 l-40 -7 40 -4 c22 -3 60 -2 85 1 36 5 38 6 13 7 -17 1 -37
4 -45 6 -7 1 -31 0 -53 -3z"/>
<path d="M1372 768 l3 -143 140 0 140 0 3 143 3 142 -146 0 -146 0 3 -142z
m244 34 c17 -11 22 -35 12 -54 -7 -15 -24 -18 -111 -18 -105 0 -127 7 -127 40
0 33 22 40 120 40 52 0 100 -4 106 -8z"/>
<path d="M1468 763 c23 -2 61 -2 85 0 23 2 4 4 -43 4 -47 0 -66 -2 -42 -4z"/>
<path d="M1050 445 l0 -145 140 0 140 0 0 145 0 145 -140 0 -140 0 0 -145z
m118 79 c21 -15 25 -15 41 0 25 22 58 20 72 -5 9 -18 7 -26 -8 -48 -20 -26
-20 -26 1 -54 16 -21 18 -32 10 -45 -15 -24 -52 -27 -75 -6 -18 16 -20 16 -38
0 -23 -21 -60 -18 -75 6 -8 13 -5 24 11 46 22 30 22 30 2 47 -22 20 -25 45 -7
63 16 16 39 15 66 -4z"/>
<path d="M1156 470 c12 -14 19 -31 16 -39 -3 -9 0 -11 7 -6 7 4 24 -3 39 -16
l27 -24 -24 27 c-12 14 -20 31 -16 37 3 6 -1 11 -11 11 -10 0 -27 8 -38 17
-21 17 -20 17 0 -7z"/>
<path d="M1377 583 c-4 -3 -7 -69 -7 -145 l0 -138 145 0 146 0 -3 143 -3 142
-62 3 -63 3 18 -30 c16 -30 16 -31 -5 -53 -19 -19 -26 -20 -48 -10 -26 12 -35
54 -15 67 6 3 10 10 10 16 0 10 -103 13 -113 2z m252 -121 c7 -14 6 -25 -5
-40 -14 -20 -24 -22 -113 -22 -99 0 -121 7 -121 40 0 33 22 40 127 40 89 0
104 -2 112 -18z m-79 -87 c10 -12 10 -21 2 -40 -19 -40 -82 -29 -82 15 0 37
55 55 80 25z"/>
<path d="M1468 443 c23 -2 61 -2 85 0 23 2 4 4 -43 4 -47 0 -66 -2 -42 -4z"/>
</g>
</svg>
