<?xml version="1.0" standalone="no"?>
<!DOCTYPE svg PUBLIC "-//W3C//DTD SVG 20010904//EN"
 "http://www.w3.org/TR/2001/REC-SVG-20010904/DTD/svg10.dtd">
<svg version="1.0" xmlns="http://www.w3.org/2000/svg"
 width="200.000000pt" height="200.000000pt" viewBox="0 0 200.000000 200.000000"
 preserveAspectRatio="xMidYMid meet">
<metadata>
Created by potrace 1.16, written by Peter Selinger 2001-2019
</metadata>
<g transform="translate(0.000000,200.000000) scale(0.100000,-0.100000)"
fill="#000000" stroke="none">
<path d="M690 1669 c-58 -72 -106 -134 -108 -139 -2 -4 24 -17 57 -28 l61 -21
24 32 c24 30 26 30 63 19 32 -10 43 -9 75 8 43 22 24 33 211 -123 l118 -99
135 -45 c75 -25 139 -41 144 -37 8 9 -642 557 -664 561 -6 1 -58 -56 -116
-128z"/>
<path d="M366 1353 c-36 -103 -66 -191 -66 -195 0 -5 29 -8 64 -8 l64 0 22 65
c22 65 22 65 60 65 30 0 44 6 63 30 14 17 32 30 40 30 7 0 133 -43 279 -95
l266 -95 121 0 c118 0 121 1 137 25 9 14 15 27 13 29 -2 1 -222 76 -489 166
-267 90 -490 165 -496 167 -6 2 -39 -74 -78 -184z"/>
<path d="M877 1489 c-10 -6 -40 -9 -67 -7 -27 1 -50 -1 -50 -7 -1 -9 280 -108
287 -101 3 3 -143 126 -149 126 -2 0 -11 -5 -21 -11z"/>
<path d="M610 1275 c-18 -21 -64 -45 -88 -45 -13 0 -22 -11 -30 -37 -6 -20
-10 -38 -8 -40 2 -2 120 -2 262 -1 l259 3 -175 62 c-96 34 -182 64 -191 68 -9
3 -22 -1 -29 -10z"/>
<path d="M1590 1241 c-72 -22 -138 -79 -164 -143 -20 -46 -21 -148 -2 -192 19
-47 73 -104 120 -129 57 -30 165 -30 221 0 189 101 184 357 -10 449 -51 24
-115 30 -165 15z m150 -241 l0 -80 -85 0 -85 0 0 80 0 80 85 0 85 0 0 -80z"/>
<path d="M1620 1000 l0 -41 38 3 c35 3 37 5 37 38 0 33 -2 35 -37 38 l-38 3 0
-41z"/>
<path d="M102 658 l3 -463 628 -3 627 -2 0 65 0 65 -515 0 c-482 0 -516 1
-521 17 -13 46 -31 67 -62 75 l-32 9 2 237 c3 233 3 237 24 240 26 4 61 39 66
67 3 20 12 20 519 23 l516 2 6 48 c3 26 9 55 12 65 7 16 -27 17 -634 17 l-641
0 2 -462z"/>
<path d="M355 919 c-9 -17 -32 -40 -51 -51 l-34 -20 0 -193 0 -194 27 -13 c15
-7 37 -28 48 -45 l20 -32 164 -1 164 0 -46 43 c-26 24 -58 68 -74 102 -24 51
-28 72 -28 145 1 105 23 159 95 231 27 27 50 52 50 54 0 3 -72 5 -160 5 l-159
0 -16 -31z"/>
<path d="M1060 944 c0 -4 18 -22 40 -41 23 -20 53 -62 72 -101 30 -60 33 -75
33 -152 -1 -77 -4 -91 -35 -148 -18 -35 -52 -79 -74 -98 l-40 -34 90 0 89 0 0
80 c0 94 16 118 84 127 l41 6 0 67 c0 57 3 70 23 88 14 13 36 22 56 22 l32 0
-36 44 c-20 25 -45 67 -55 93 l-18 48 -151 3 c-83 1 -151 -1 -151 -4z"/>
<path d="M760 919 c-182 -82 -229 -320 -92 -462 63 -66 104 -82 207 -82 103 0
145 16 206 82 52 54 71 98 77 174 9 125 -54 234 -163 285 -66 31 -170 33 -235
3z m140 -95 c0 -21 5 -24 40 -24 33 0 40 -3 40 -20 0 -18 -7 -20 -69 -20 -75
0 -95 -12 -89 -52 2 -18 10 -24 38 -26 85 -6 120 -33 120 -89 0 -36 -36 -83
-64 -83 -9 0 -16 -11 -18 -27 -2 -20 -9 -28 -23 -28 -14 0 -21 8 -23 28 -3 24
-7 27 -43 27 -32 0 -39 3 -39 20 0 18 7 20 54 20 79 0 108 13 104 48 -3 25 -7
27 -55 32 -65 7 -103 38 -103 85 0 38 34 85 61 85 14 0 19 7 19 29 0 16 6 31
13 34 18 7 37 -13 37 -39z"/>
<path d="M1417 713 c-4 -3 -7 -37 -7 -74 0 -52 4 -68 16 -73 9 -3 58 -6 110
-6 94 0 94 0 94 25 0 20 5 25 25 25 20 0 25 -5 25 -25 0 -22 4 -25 40 -25 36
0 40 3 40 25 0 33 37 35 42 3 2 -19 10 -24 43 -26 49 -4 65 15 65 76 0 85 10
82 -254 82 -128 0 -236 -3 -239 -7z"/>
<path d="M1292 518 c-17 -17 -16 -123 2 -137 9 -8 48 -11 112 -9 94 3 99 4
102 26 2 14 10 22 22 22 12 0 20 -8 22 -22 2 -19 10 -24 41 -26 34 -3 37 -1
37 22 0 21 5 26 25 26 20 0 25 -5 25 -25 0 -22 4 -25 39 -25 52 0 63 16 59 92
l-3 63 -235 3 c-175 2 -239 -1 -248 -10z"/>
<path d="M1412 273 l3 -78 108 -3 c102 -3 107 -2 107 18 0 15 7 20 25 20 18 0
25 -5 25 -20 0 -17 7 -20 40 -20 33 0 40 3 40 20 0 13 7 20 20 20 13 0 20 -7
20 -20 0 -17 7 -20 43 -20 55 0 67 13 67 75 0 84 12 80 -260 83 l-241 3 3 -78z"/>
</g>
</svg>
