<?xml version="1.0" standalone="no"?>
<!DOCTYPE svg PUBLIC "-//W3C//DTD SVG 20010904//EN"
 "http://www.w3.org/TR/2001/REC-SVG-20010904/DTD/svg10.dtd">
<svg version="1.0" xmlns="http://www.w3.org/2000/svg"
 width="200.000000pt" height="200.000000pt" viewBox="0 0 200.000000 200.000000"
 preserveAspectRatio="xMidYMid meet">
<metadata>
Created by potrace 1.16, written by Peter Selinger 2001-2019
</metadata>
<g transform="translate(0.000000,200.000000) scale(0.100000,-0.100000)"
fill="#000000" stroke="none">
<path d="M714 1769 c-12 -6 -67 -67 -124 -135 -98 -118 -103 -123 -133 -117
-18 3 -34 7 -35 9 -10 7 -62 -20 -74 -39 -8 -12 -41 -97 -73 -189 l-58 -166
-44 -11 c-32 -9 -49 -20 -63 -44 -19 -30 -20 -52 -20 -415 0 -407 3 -437 48
-461 15 -8 279 -11 864 -11 939 0 877 -5 899 69 18 59 4 125 -32 155 -24 21
-29 32 -29 70 0 40 5 51 33 75 27 25 32 36 32 74 0 55 -19 92 -56 107 l-28 12
44 53 c52 64 69 111 69 190 0 90 -27 159 -88 220 -97 99 -241 123 -367 60
l-56 -28 -299 248 c-164 137 -306 254 -315 261 -22 19 -70 25 -95 13z m359
-310 c166 -138 304 -255 305 -260 2 -5 -29 3 -70 18 -63 23 -98 48 -265 185
-105 87 -198 158 -207 158 -9 0 -27 -7 -41 -16 -20 -13 -30 -13 -65 -3 l-42
13 -42 -46 c-39 -44 -42 -46 -69 -34 l-28 12 93 112 c54 66 100 112 110 112
10 0 154 -113 321 -251z m-127 -59 c56 -46 102 -86 100 -87 -2 -2 -72 21 -157
51 -226 80 -212 73 -199 96 9 16 17 19 54 14 25 -4 52 -2 62 4 11 6 23 10 28
9 5 -2 55 -41 112 -87z m-87 -90 c234 -83 440 -157 456 -165 29 -13 26 -14
-53 -14 -81 -1 -91 2 -393 109 -171 61 -316 110 -323 110 -7 0 -22 -13 -34
-30 -19 -25 -30 -30 -63 -30 -44 0 -40 5 -83 -112 -16 -44 -20 -48 -51 -48
l-32 0 48 138 c66 186 69 192 87 192 8 0 207 -68 441 -150z m-84 -105 l210
-74 -284 -1 -283 0 6 25 c16 63 25 75 55 75 22 0 72 29 86 50 0 0 95 -34 210
-75z m962 17 c46 -24 99 -81 119 -128 8 -19 14 -61 14 -94 0 -71 -15 -112 -60
-164 -93 -106 -247 -113 -353 -17 -52 47 -78 106 -78 180 -1 115 66 205 181
242 40 13 133 3 177 -19z m-421 -178 c-3 -9 -6 -22 -6 -30 0 -12 -77 -14 -491
-16 -426 -3 -493 -5 -499 -18 -20 -43 -28 -54 -43 -62 -56 -27 -52 -6 -52
-263 l0 -238 35 -12 c25 -8 38 -20 45 -41 6 -16 14 -35 18 -41 6 -10 117 -13
496 -13 l489 0 4 -30 5 -30 -576 2 -576 3 -3 390 c-1 214 0 396 3 402 3 10
128 13 581 13 521 0 576 -2 570 -16z m-720 -154 c-68 -73 -89 -127 -90 -230
-1 -73 3 -93 27 -145 15 -33 44 -77 65 -97 l36 -38 -131 0 -132 0 -18 30 c-9
17 -30 36 -45 43 l-28 12 0 190 0 190 30 17 c17 10 38 31 48 48 l17 30 134 0
134 0 -47 -50z m375 15 c49 -25 98 -75 126 -128 26 -51 30 -174 6 -228 -29
-65 -76 -114 -139 -145 -49 -24 -63 -26 -139 -22 -75 4 -89 8 -133 38 -98 66
-148 186 -123 293 22 100 112 193 206 216 56 14 142 3 196 -24z m362 -13 c9
-27 35 -69 57 -94 l40 -46 -40 -6 c-52 -8 -83 -52 -77 -111 3 -35 -1 -44 -30
-71 -27 -26 -33 -39 -33 -73 0 -45 13 -78 39 -98 13 -10 -10 -12 -113 -13
l-129 0 25 20 c41 31 86 110 104 180 28 111 -3 224 -88 316 l-41 44 134 0 134
0 18 -48z m491 -208 c11 -4 16 -19 16 -44 0 -43 -10 -50 -73 -50 -34 0 -44 4
-52 22 -14 33 -43 35 -55 4 -12 -33 -28 -33 -40 0 -12 31 -41 29 -55 -4 -9
-20 -17 -22 -85 -22 -41 0 -81 4 -89 9 -8 5 -14 24 -14 41 0 17 6 36 14 41 16
10 408 13 433 3z m-49 -199 l0 -40 -106 -3 c-100 -2 -107 -1 -112 18 -7 27
-47 27 -54 0 -3 -11 -11 -20 -18 -20 -7 0 -15 9 -18 20 -3 12 -14 20 -27 20
-13 0 -24 -8 -27 -20 -4 -16 -14 -20 -48 -20 -44 0 -55 10 -55 49 0 39 16 41
245 39 l220 -3 0 -40z m60 -175 c0 -51 -2 -55 -25 -58 -18 -2 -28 4 -35 20
-13 29 -37 30 -50 1 -11 -25 -35 -31 -35 -9 0 38 -53 42 -63 5 -5 -17 -15 -19
-121 -19 -113 0 -117 1 -127 24 -7 14 -9 40 -5 60 l7 36 227 -2 227 -3 0 -55z"/>
<path d="M1524 1097 c-2 -7 -3 -56 -2 -108 l3 -94 100 0 100 0 0 105 0 105
-98 3 c-75 2 -99 0 -103 -11z m146 -97 l0 -50 -45 0 -45 0 0 50 0 50 45 0 45
0 0 -50z"/>
<path d="M814 841 c-4 -17 -12 -31 -19 -31 -23 0 -65 -60 -65 -91 0 -60 50
-99 127 -99 32 0 34 -2 31 -27 -3 -27 -5 -28 -78 -33 -72 -5 -75 -6 -75 -30 0
-22 5 -25 36 -28 32 -3 38 -7 43 -33 5 -25 10 -30 28 -27 17 2 24 11 26 31 2
15 10 27 17 27 8 0 26 11 42 24 22 19 28 32 28 65 0 59 -36 92 -105 99 -54 5
-71 21 -50 47 9 11 32 15 80 15 51 0 69 4 74 15 10 27 -5 44 -42 47 -29 2 -37
8 -42 28 -4 16 -14 26 -28 28 -18 3 -23 -3 -28 -27z"/>
</g>
</svg>
