<?xml version="1.0" standalone="no"?>
<!DOCTYPE svg PUBLIC "-//W3C//DTD SVG 20010904//EN"
 "http://www.w3.org/TR/2001/REC-SVG-20010904/DTD/svg10.dtd">
<svg version="1.0" xmlns="http://www.w3.org/2000/svg"
 width="200.000000pt" height="200.000000pt" viewBox="0 0 200.000000 200.000000"
 preserveAspectRatio="xMidYMid meet">
<metadata>
Created by potrace 1.16, written by Peter Selinger 2001-2019
</metadata>
<g transform="translate(0.000000,200.000000) scale(0.100000,-0.100000)"
fill="#000000" stroke="none">
<path d="M208 1869 c-17 -9 -18 -44 -18 -498 0 -437 2 -490 16 -495 28 -11
694 -7 715 4 18 10 19 26 19 488 0 283 -4 483 -10 492 -8 13 -61 15 -357 17
-227 2 -354 -1 -365 -8z m662 -494 l0 -435 -310 0 -310 0 0 435 0 435 310 0
310 0 0 -435z"/>
<path d="M322 1738 c-14 -14 -17 -205 -4 -226 7 -9 63 -12 248 -10 l239 3 0
120 0 120 -235 3 c-175 2 -239 -1 -248 -10z m428 -113 l0 -65 -185 0 -185 0 0
65 0 65 185 0 185 0 0 -65z"/>
<path d="M340 1373 c-22 -9 -30 -24 -30 -60 0 -55 8 -63 59 -63 26 0 52 5 59
12 14 14 16 76 4 96 -10 14 -69 24 -92 15z"/>
<path d="M516 1367 c-13 -10 -17 -24 -14 -62 l3 -50 50 -3 c56 -4 75 12 75 60
0 55 -69 88 -114 55z"/>
<path d="M706 1367 c-13 -10 -17 -24 -14 -62 l3 -50 55 0 55 0 3 50 c4 55 -12
75 -58 75 -14 0 -34 -6 -44 -13z"/>
<path d="M322 1178 c-7 -7 -12 -30 -12 -53 0 -52 13 -65 65 -65 52 0 65 13 65
65 0 23 -5 46 -12 53 -16 16 -90 16 -106 0z"/>
<path d="M512 1178 c-7 -7 -12 -30 -12 -53 0 -52 13 -65 67 -65 38 0 45 3 54
27 13 35 3 89 -17 97 -26 10 -79 7 -92 -6z"/>
<path d="M701 1176 c-7 -8 -11 -36 -9 -63 l3 -48 55 0 55 0 3 48 c4 60 -9 77
-58 77 -21 0 -43 -6 -49 -14z"/>
<path d="M1104 1656 c-3 -8 9 -61 27 -119 l32 -106 -46 -44 c-51 -50 -99 -137
-115 -212 -14 -62 -42 -317 -42 -383 0 -33 8 -64 25 -96 21 -40 22 -46 8 -46
-9 0 -26 8 -37 19 -31 27 -81 41 -150 41 -73 0 -123 -21 -188 -79 -25 -22 -54
-41 -63 -41 -9 0 -50 -14 -91 -31 -54 -23 -74 -36 -74 -49 0 -27 118 -353 134
-368 11 -11 27 -8 97 21 72 30 84 38 87 60 l3 26 317 3 317 3 218 94 c133 57
223 101 232 114 19 28 19 87 0 114 -9 13 -33 28 -55 34 l-39 12 24 18 c13 11
34 40 47 67 21 43 23 60 22 182 -1 224 -56 395 -159 496 l-52 50 33 93 c19 52
34 102 34 113 0 27 -24 32 -70 14 -52 -21 -103 -20 -161 1 -44 15 -49 15 -82
0 -43 -21 -98 -21 -152 -2 -51 19 -74 19 -81 1z m387 -76 l76 -5 -26 -70 c-27
-70 -27 -70 -76 -83 -61 -16 -170 -11 -209 8 -28 14 -36 31 -69 135 -7 19 -3
20 66 17 48 -2 80 2 97 11 18 10 30 11 45 3 11 -5 54 -13 96 -16z m-262 -210
c10 -5 53 -13 96 -19 65 -8 89 -6 149 9 84 22 96 17 151 -58 70 -97 105 -233
105 -413 0 -133 -11 -172 -55 -207 -27 -21 -36 -22 -301 -22 l-273 0 -35 35
c-20 20 -38 49 -42 69 -10 55 32 395 57 461 13 36 39 76 68 106 51 53 53 54
80 39z m-306 -752 c33 -26 42 -28 158 -30 l124 -3 0 -40 0 -40 -125 -3 c-100
-2 -127 -6 -137 -18 -28 -37 -7 -44 134 -44 115 0 140 3 167 19 35 21 426 95
473 89 22 -2 28 -8 28 -28 0 -22 -17 -32 -205 -112 l-205 -88 -330 0 -330 0
-38 102 -38 101 43 44 c66 68 101 84 179 80 54 -2 73 -8 102 -29z m487 -53
c-69 -13 -128 -21 -132 -18 -5 2 -8 13 -8 24 0 18 8 19 133 18 l132 -1 -125
-23z m-854 -103 c12 -31 36 -94 53 -140 l31 -83 -36 -15 c-20 -9 -40 -12 -45
-7 -6 7 -99 258 -99 269 0 4 59 31 70 33 3 1 15 -25 26 -57z"/>
<path d="M1260 1299 c-206 -82 -259 -353 -98 -510 64 -62 117 -83 213 -84 68
0 89 4 137 28 110 54 172 154 172 277 0 122 -61 223 -168 277 -72 37 -180 42
-256 12z m210 -60 c182 -82 209 -313 49 -428 -161 -117 -389 1 -389 201 0 69
16 111 60 162 72 81 186 108 280 65z"/>
<path d="M1357 1243 c-4 -3 -7 -18 -7 -32 -1 -21 -10 -30 -43 -46 -52 -25 -75
-63 -62 -101 14 -39 52 -63 119 -74 64 -10 92 -29 83 -54 -19 -48 -117 -45
-142 4 -9 18 -23 30 -36 30 -53 0 -24 -88 40 -116 33 -14 41 -23 43 -48 5 -55
57 -45 58 11 0 16 10 27 34 37 88 37 89 145 0 182 -18 8 -49 14 -68 14 -18 0
-44 8 -56 18 l-23 19 24 16 c13 10 36 17 51 17 35 0 78 -20 78 -35 0 -19 26
-36 44 -29 27 11 20 59 -14 87 -16 14 -39 28 -50 32 -11 3 -20 15 -20 25 0 31
-11 50 -29 50 -10 0 -21 -3 -24 -7z"/>
</g>
</svg>
