<?xml version="1.0" standalone="no"?>
<!DOCTYPE svg PUBLIC "-//W3C//DTD SVG 20010904//EN"
 "http://www.w3.org/TR/2001/REC-SVG-20010904/DTD/svg10.dtd">
<svg version="1.0" xmlns="http://www.w3.org/2000/svg"
 width="200.000000pt" height="200.000000pt" viewBox="0 0 200.000000 200.000000"
 preserveAspectRatio="xMidYMid meet">
<metadata>
Created by potrace 1.16, written by Peter Selinger 2001-2019
</metadata>
<g transform="translate(0.000000,200.000000) scale(0.100000,-0.100000)"
fill="#000000" stroke="none">
<path d="M291 1775 l-166 -165 -3 -654 c-1 -417 1 -663 8 -680 9 -24 14 -26
65 -26 l55 0 0 -55 c0 -43 4 -56 19 -65 27 -14 745 -14 772 0 23 13 25 46 3
54 -9 3 -177 6 -375 6 l-359 0 0 30 0 30 373 2 372 3 0 25 0 25 -432 3 -433 2
0 625 0 625 143 0 c98 0 147 4 155 12 8 8 12 57 12 155 l0 143 470 0 470 0 2
-432 3 -433 25 0 25 0 3 373 2 372 30 0 30 0 0 -359 c0 -198 3 -366 6 -375 8
-22 41 -20 54 3 14 27 14 745 0 772 -9 15 -22 19 -65 19 l-55 0 0 53 c0 29 -5
58 -12 65 -9 9 -139 12 -522 12 l-510 0 -165 -165z m149 -45 l0 -100 -102 0
-103 0 100 100 c55 55 101 100 102 100 2 0 3 -45 3 -100z"/>
<path d="M792 1678 c-7 -7 -12 -26 -12 -44 0 -29 -4 -33 -44 -43 -53 -13 -76
-41 -76 -94 0 -51 35 -87 85 -87 32 0 35 -2 35 -30 0 -29 -2 -30 -43 -30 -50
0 -81 -18 -75 -46 3 -16 13 -20 61 -22 57 -3 57 -3 57 -35 0 -41 13 -60 36
-55 14 2 20 13 22 46 3 37 6 42 28 42 123 0 138 171 16 187 -38 5 -42 8 -42
34 0 27 2 28 56 31 41 2 60 8 68 20 16 26 -5 41 -69 46 l-55 4 0 38 c0 25 -5
40 -16 44 -20 8 -18 8 -32 -6z m-12 -178 c0 -25 -4 -30 -25 -30 -14 0 -28 7
-31 15 -10 25 4 45 31 45 21 0 25 -5 25 -30z m118 -107 c14 -27 3 -43 -29 -43
-24 0 -29 4 -29 23 0 13 3 27 7 30 12 13 42 7 51 -10z"/>
<path d="M370 1093 c-23 -9 -30 -25 -19 -45 9 -16 21 -18 92 -16 72 3 82 5 85
22 3 11 -4 26 -14 33 -18 13 -115 17 -144 6z"/>
<path d="M634 1075 c-4 -8 -4 -22 0 -30 5 -13 47 -15 323 -13 l318 3 0 25 0
25 -318 3 c-276 2 -318 0 -323 -13z"/>
<path d="M350 921 c-7 -15 -6 -24 6 -36 23 -22 152 -18 167 7 21 32 -8 48 -89
48 -62 0 -75 -3 -84 -19z"/>
<path d="M636 925 c-19 -19 -11 -44 18 -50 11 -3 97 -4 190 -3 145 3 170 5
179 20 8 12 7 21 -2 32 -20 23 -362 24 -385 1z"/>
<path d="M1201 922 c-19 -9 -44 -30 -55 -45 -20 -28 -21 -40 -21 -377 0 -337
1 -349 21 -377 43 -58 66 -63 322 -63 260 0 287 5 322 62 19 31 20 50 20 378
0 470 23 440 -342 440 -202 0 -238 -2 -267 -18z m531 -69 c17 -15 18 -39 18
-351 0 -298 -2 -337 -17 -354 -15 -16 -37 -18 -264 -18 -212 0 -250 2 -263 16
-14 13 -16 60 -16 354 0 294 2 341 16 354 13 14 51 16 261 16 215 0 249 -2
265 -17z"/>
<path d="M1262 768 c-16 -16 -16 -150 0 -166 17 -17 399 -17 416 0 7 7 12 41
12 83 0 42 -5 76 -12 83 -17 17 -399 17 -416 0z m358 -78 l0 -30 -155 0 -155
0 0 30 0 30 155 0 155 0 0 -30z"/>
<path d="M1260 515 c-25 -30 -4 -45 63 -45 72 0 100 17 77 45 -17 21 -123 21
-140 0z"/>
<path d="M1541 516 c-6 -7 -9 -21 -5 -30 5 -12 20 -16 69 -16 70 0 98 17 75
45 -16 20 -123 21 -139 1z"/>
<path d="M1265 396 c-16 -12 -18 -18 -9 -33 17 -27 129 -31 143 -5 16 29 -3
45 -61 49 -37 3 -59 0 -73 -11z"/>
<path d="M1553 400 c-25 -10 -30 -29 -11 -48 17 -17 123 -16 137 2 34 41 -56
74 -126 46z"/>
<path d="M1260 265 c-25 -30 -4 -45 63 -45 72 0 100 17 77 45 -17 21 -123 21
-140 0z"/>
<path d="M1541 266 c-6 -7 -9 -21 -5 -30 5 -12 20 -16 69 -16 70 0 98 17 75
45 -16 20 -123 21 -139 1z"/>
<path d="M350 765 c-10 -12 -10 -18 0 -30 10 -12 31 -15 94 -13 79 3 81 4 81
28 0 24 -2 25 -81 28 -63 2 -84 -1 -94 -13z"/>
<path d="M634 765 c-4 -8 -4 -22 0 -30 5 -13 33 -15 198 -13 l193 3 0 25 0 25
-193 3 c-165 2 -193 0 -198 -13z"/>
<path d="M370 623 c-23 -9 -30 -25 -19 -45 9 -16 21 -18 92 -16 72 3 82 5 85
22 3 11 -4 26 -14 33 -18 13 -115 17 -144 6z"/>
<path d="M646 617 c-10 -7 -16 -22 -14 -33 3 -18 13 -19 198 -19 185 0 195 1
198 19 8 39 -22 46 -198 46 -122 0 -171 -4 -184 -13z"/>
</g>
</svg>
