<?xml version="1.0" standalone="no"?>
<!DOCTYPE svg PUBLIC "-//W3C//DTD SVG 20010904//EN"
 "http://www.w3.org/TR/2001/REC-SVG-20010904/DTD/svg10.dtd">
<svg version="1.0" xmlns="http://www.w3.org/2000/svg"
 width="200.000000pt" height="200.000000pt" viewBox="0 0 200.000000 200.000000"
 preserveAspectRatio="xMidYMid meet">
<metadata>
Created by potrace 1.16, written by Peter Selinger 2001-2019
</metadata>
<g transform="translate(0.000000,200.000000) scale(0.100000,-0.100000)"
fill="#000000" stroke="none">
<path d="M591 1784 c-108 -54 -180 -196 -168 -333 10 -119 60 -216 138 -268
l39 -25 -7 -452 -6 -451 38 -34 c34 -30 43 -33 84 -28 35 4 52 12 74 37 l29
33 -7 443 -8 443 56 51 c95 86 135 205 115 335 -12 82 -49 154 -107 208 -78
73 -176 88 -270 41z m194 -57 c46 -26 100 -100 116 -160 37 -137 -19 -295
-123 -348 l-41 -21 7 -458 c6 -414 5 -459 -9 -474 -21 -20 -59 -21 -75 -1 -10
13 -12 109 -6 475 l7 459 -33 14 c-45 20 -92 72 -119 132 -33 71 -33 190 -1
260 27 58 75 112 117 131 46 21 114 17 160 -9z"/>
<path d="M1094 1789 c-17 -19 -19 -41 -22 -221 -4 -242 4 -289 58 -351 22 -24
53 -50 71 -57 l31 -13 -6 -161 c-3 -89 -7 -287 -8 -441 -3 -256 -1 -282 15
-306 34 -51 123 -63 167 -24 39 35 40 55 33 498 l-8 427 46 31 c51 35 85 79
99 130 6 19 10 129 10 245 0 199 -1 213 -21 238 -27 34 -86 37 -115 5 -17 -19
-19 -40 -22 -185 -2 -93 -7 -164 -13 -164 -5 0 -9 67 -9 159 0 145 -2 161 -21
185 -15 19 -30 26 -54 26 -24 0 -39 -7 -54 -26 -19 -24 -21 -40 -21 -185 0
-99 -4 -159 -10 -159 -6 0 -10 60 -10 159 0 145 -2 161 -21 185 -27 34 -86 37
-115 5z m76 -203 c0 -186 7 -206 68 -208 61 -2 66 13 72 199 4 121 8 168 18
171 9 3 12 -34 12 -162 0 -153 2 -168 20 -186 29 -29 72 -30 102 -3 15 13 18
39 20 182 3 149 5 166 21 169 16 3 17 -12 17 -205 0 -260 -12 -296 -112 -337
-20 -9 -39 -19 -41 -23 -2 -5 -1 -208 4 -452 8 -411 8 -446 -8 -463 -23 -26
-65 -20 -79 12 -8 18 -9 143 -3 455 5 237 7 436 4 442 -2 7 -25 22 -50 34 -30
14 -57 37 -73 62 -27 40 -27 43 -30 244 -2 112 -1 210 2 218 3 8 12 15 21 15
13 0 15 -23 15 -164z"/>
</g>
</svg>
