<?xml version="1.0" standalone="no"?>
<!DOCTYPE svg PUBLIC "-//W3C//DTD SVG 20010904//EN"
 "http://www.w3.org/TR/2001/REC-SVG-20010904/DTD/svg10.dtd">
<svg version="1.0" xmlns="http://www.w3.org/2000/svg"
 width="200.000000pt" height="200.000000pt" viewBox="0 0 200.000000 200.000000"
 preserveAspectRatio="xMidYMid meet">
<metadata>
Created by potrace 1.16, written by Peter Selinger 2001-2019
</metadata>
<g transform="translate(0.000000,200.000000) scale(0.100000,-0.100000)"
fill="#000000" stroke="none">
<path d="M876 1785 c-87 -45 -168 -92 -180 -104 -18 -19 -21 -35 -24 -136 l-4
-115 -74 0 c-80 0 -129 -17 -138 -47 -3 -10 -25 -105 -50 -212 l-46 -194 0
-397 c0 -387 1 -398 21 -424 l20 -26 604 0 c373 0 606 4 610 10 9 15 -21 76
-46 94 -13 9 -34 16 -46 16 -30 0 -29 11 3 41 51 47 74 114 74 219 0 83 3 98
20 113 41 35 12 97 -47 97 -23 0 -45 9 -65 25 -16 14 -38 25 -48 25 -9 0 -23
6 -29 14 -7 8 -22 17 -35 20 -14 3 -26 16 -30 29 -3 12 -19 36 -36 52 -27 25
-38 29 -85 29 -60 -1 -65 4 -35 31 22 20 26 55 9 86 -8 16 -7 25 7 40 9 10 21
19 27 19 5 0 44 31 86 69 68 61 152 111 186 111 20 0 45 35 45 62 0 26 -15 44
-54 63 -11 6 -27 23 -34 38 -7 15 -24 35 -38 43 -22 15 -26 15 -50 0 -14 -10
-28 -25 -31 -34 -23 -73 -47 -114 -110 -190 -40 -48 -73 -92 -73 -98 0 -21
-34 -44 -50 -34 -21 13 -74 12 -87 -1 -12 -12 -17 2 -48 136 -30 134 -34 144
-65 160 -16 8 -54 15 -85 15 l-55 0 0 93 0 92 127 65 c98 50 132 72 146 97 22
39 16 93 -11 92 -9 0 -88 -38 -176 -84z m169 23 c-11 -34 -15 -38 -153 -108
l-127 -65 -3 -102 c-3 -102 -3 -103 -28 -103 l-25 0 3 118 3 117 160 82 c88
45 164 82 168 83 5 0 5 -10 2 -22z m-123 -425 c9 -10 30 -81 48 -157 l33 -140
-28 -50 c-16 -27 -29 -66 -30 -85 l-1 -35 -46 3 c-31 1 -58 -4 -84 -18 -48
-26 -65 -26 -114 -1 -22 11 -53 20 -70 20 -17 0 -48 -9 -70 -20 -49 -25 -54
-25 -117 2 -38 17 -53 29 -53 43 0 40 94 421 108 438 13 15 37 17 212 17 175
0 199 -2 212 -17z m518 -2 c0 -12 -29 -35 -36 -28 -11 10 5 37 21 37 8 0 15
-4 15 -9z m40 -46 c0 -16 -27 -32 -37 -21 -7 7 16 36 28 36 5 0 9 -7 9 -15z
m-327 -280 c50 -48 58 -72 29 -99 -16 -13 -24 -14 -51 -5 -18 6 -59 9 -92 7
-77 -6 -78 13 -7 105 39 49 62 47 121 -8z m42 35 c-3 -5 -10 -10 -16 -10 -5 0
-9 5 -9 10 0 6 7 10 16 10 8 0 12 -4 9 -10z m-35 -195 c26 -25 32 -27 58 -16
16 7 41 9 56 5 32 -8 66 -49 66 -80 0 -19 5 -24 25 -24 14 0 35 -11 47 -25 12
-14 29 -23 37 -20 9 2 23 0 31 -5 10 -6 -101 -10 -317 -10 -284 0 -333 2 -333
14 0 18 38 46 61 46 10 0 19 11 22 30 9 41 35 79 72 102 46 29 135 21 175 -17z
m440 -220 c10 -12 10 -18 0 -30 -19 -22 -851 -23 -870 0 -7 8 -10 22 -6 30 8
23 857 23 876 0z m-30 -159 c0 -127 -33 -196 -110 -236 -36 -18 -59 -20 -295
-20 -232 0 -259 2 -293 19 -83 43 -112 102 -112 231 l0 90 405 0 405 0 0 -84z
m-10 -316 c11 -11 20 -24 20 -30 0 -7 -147 -10 -421 -10 -442 0 -429 -1 -391
43 14 16 46 17 394 17 365 0 379 -1 398 -20z"/>
</g>
</svg>
