<?xml version="1.0" standalone="no"?>
<!DOCTYPE svg PUBLIC "-//W3C//DTD SVG 20010904//EN"
 "http://www.w3.org/TR/2001/REC-SVG-20010904/DTD/svg10.dtd">
<svg version="1.0" xmlns="http://www.w3.org/2000/svg"
 width="200.000000pt" height="200.000000pt" viewBox="0 0 200.000000 200.000000"
 preserveAspectRatio="xMidYMid meet">
<metadata>
Created by potrace 1.16, written by Peter Selinger 2001-2019
</metadata>
<g transform="translate(0.000000,200.000000) scale(0.100000,-0.100000)"
fill="#000000" stroke="none">
<path d="M1366 1925 c-127 -49 -204 -189 -177 -324 13 -64 65 -147 109 -173
28 -17 28 -17 24 -101 -4 -73 -2 -85 13 -91 22 -8 37 4 87 76 30 42 47 58 64
58 40 0 129 39 171 75 149 127 114 384 -63 470 -51 25 -174 30 -228 10z m182
-60 c59 -25 111 -82 128 -143 20 -68 12 -125 -25 -184 -36 -57 -86 -88 -158
-97 -45 -7 -61 -14 -80 -37 l-23 -29 0 38 c0 20 -4 37 -8 37 -19 0 -94 75
-113 112 -42 82 -21 195 48 260 59 56 155 74 231 43z"/>
<path d="M1500 1694 l-80 -78 -28 27 c-36 34 -72 36 -72 4 0 -26 77 -107 101
-107 8 0 57 43 109 95 79 79 93 98 84 112 -6 9 -16 19 -22 21 -7 2 -48 -31
-92 -74z"/>
<path d="M750 1712 c-12 -46 -33 -67 -86 -85 -31 -11 -39 -19 -39 -38 0 -19 8
-27 40 -37 53 -17 73 -37 86 -84 17 -65 61 -61 73 6 8 40 29 61 81 78 32 10
40 18 40 37 0 19 -8 27 -39 38 -53 18 -71 35 -85 83 -10 32 -16 40 -36 40 -20
0 -26 -7 -35 -38z m55 -142 l-19 -21 -20 20 c-19 20 -19 21 -1 41 l19 21 20
-20 c19 -20 19 -21 1 -41z"/>
<path d="M601 1397 c-11 -18 -25 -46 -31 -62 l-12 -30 -19 38 c-36 69 -85 37
-54 -36 l15 -36 -32 14 c-38 15 -68 5 -68 -24 0 -11 15 -25 42 -37 52 -23 98
-61 98 -80 0 -7 -9 -18 -20 -24 -22 -12 -65 -82 -74 -122 -5 -24 -10 -26 -39
-21 -19 3 -56 -3 -90 -15 l-58 -19 -21 41 c-14 26 -23 69 -27 121 -5 67 -9 80
-25 83 -27 6 -36 -15 -36 -85 0 -35 -3 -63 -7 -63 -4 0 -17 9 -29 21 -15 14
-29 19 -43 14 -30 -9 -26 -41 9 -67 37 -27 37 -33 5 -34 -42 -3 -55 -12 -55
-39 0 -23 3 -25 51 -25 73 0 132 -19 123 -39 -37 -85 -25 -173 33 -241 l35
-40 -60 0 c-45 0 -61 -4 -66 -15 -10 -27 89 -274 125 -311 61 -63 76 -65 454
-62 327 3 340 4 343 22 9 43 -13 46 -370 46 l-338 0 -35 33 c-24 23 -44 59
-69 127 -20 51 -34 95 -32 97 1 2 379 2 838 1 l836 -3 -37 -99 c-26 -70 -46
-107 -69 -127 -30 -27 -39 -29 -110 -29 -85 0 -117 -13 -110 -46 3 -16 13 -19
77 -22 90 -4 156 16 199 61 39 41 134 286 120 311 -7 12 -24 16 -64 16 -52 0
-55 1 -49 21 4 12 8 62 10 113 3 80 0 96 -21 139 -50 97 -151 177 -226 177
-15 0 -30 4 -33 10 -7 12 16 58 50 99 30 35 30 65 -1 69 -26 4 -64 -39 -95
-106 l-22 -47 -91 0 c-80 0 -97 -3 -139 -27 l-47 -27 -43 24 c-23 12 -59 28
-79 34 l-37 12 21 35 c11 19 38 44 59 55 68 34 43 89 -26 56 l-33 -16 -6 31
c-10 49 -45 97 -87 119 -44 22 -123 29 -140 12 -17 -17 -22 -84 -10 -128 16
-58 48 -92 112 -118 54 -22 69 -47 27 -47 -11 0 -49 -12 -84 -26 -36 -14 -66
-24 -68 -22 -1 1 -14 22 -29 45 -32 50 -88 82 -159 90 l-50 6 5 60 c3 35 16
79 31 109 33 64 34 88 2 88 -17 0 -31 -10 -45 -33z m379 -92 c34 -18 51 -45
60 -97 8 -44 3 -46 -57 -19 -44 20 -57 37 -66 87 -9 48 10 56 63 29z m-253
-225 c40 -24 56 -55 83 -159 l21 -82 -23 -19 c-19 -15 -21 -22 -12 -37 6 -10
20 -18 30 -18 14 0 21 -13 31 -60 7 -33 12 -72 13 -87 0 -25 -4 -28 -33 -28
-29 0 -39 8 -84 69 -70 94 -223 271 -234 271 -5 0 -9 17 -9 39 0 44 33 99 70
118 38 19 110 16 147 -7z m269 -106 c-1 -24 5 -40 16 -47 24 -16 48 8 48 49 0
30 3 34 25 34 22 0 78 -22 94 -36 2 -2 -4 -13 -15 -25 -10 -11 -19 -35 -20
-52 -1 -18 -9 -50 -18 -72 -20 -52 -20 -146 -1 -192 8 -19 15 -37 15 -39 0 -2
-45 -4 -100 -4 l-99 0 -6 38 c-4 20 -18 93 -32 162 -35 172 -36 170 12 197 22
12 50 23 61 23 18 0 21 -6 20 -36z m481 30 c14 -4 23 -15 25 -33 4 -34 47 -44
55 -12 4 15 13 21 34 21 35 0 95 -24 123 -48 24 -21 76 -92 76 -104 0 -22 -65
-2 -149 47 -21 12 -28 12 -52 0 -15 -8 -32 -28 -38 -45 -5 -17 -20 -45 -32
-62 -20 -28 -23 -29 -33 -12 -5 11 -13 46 -17 79 -10 79 -20 85 -124 78 -115
-8 -130 -1 -76 39 69 50 144 69 208 52z m-1021 -110 c18 -9 60 -48 93 -86 50
-59 58 -73 49 -88 -19 -29 -2 -53 32 -47 25 6 33 1 60 -36 l31 -42 -163 -3
c-196 -3 -237 9 -192 59 9 10 14 25 11 34 -9 23 -52 18 -69 -7 l-15 -23 -22
35 c-13 23 -21 52 -21 82 0 39 6 54 32 84 18 20 41 40 52 44 34 14 86 11 122
-6z m954 -106 c26 -133 110 -147 177 -30 14 26 28 48 29 50 1 2 20 -6 43 -17
22 -12 63 -26 91 -32 l50 -11 0 -53 c0 -30 -4 -65 -10 -80 l-10 -25 -282 2
-283 3 -22 45 c-31 60 -27 150 8 195 4 6 49 11 103 10 l94 0 12 -57z"/>
<path d="M1301 468 c-5 -13 -12 -37 -15 -55 -10 -45 -51 -81 -113 -99 -83 -24
-83 -62 1 -83 63 -16 93 -44 111 -106 29 -97 58 -96 90 2 19 60 49 89 111 104
83 21 82 60 -3 84 -66 19 -97 50 -113 113 -16 64 -52 85 -69 40z m101 -188 c5
0 -9 -17 -32 -38 l-40 -39 -37 35 -38 36 35 36 35 36 34 -33 c18 -18 37 -33
43 -33z"/>
</g>
</svg>
