<?xml version="1.0" standalone="no"?>
<!DOCTYPE svg PUBLIC "-//W3C//DTD SVG 20010904//EN"
 "http://www.w3.org/TR/2001/REC-SVG-20010904/DTD/svg10.dtd">
<svg version="1.0" xmlns="http://www.w3.org/2000/svg"
 width="200.000000pt" height="200.000000pt" viewBox="0 0 200.000000 200.000000"
 preserveAspectRatio="xMidYMid meet">
<metadata>
Created by potrace 1.16, written by Peter Selinger 2001-2019
</metadata>
<g transform="translate(0.000000,200.000000) scale(0.100000,-0.100000)"
fill="#000000" stroke="none">
<path d="M757 1843 c-34 -24 -40 -25 -76 -14 -58 17 -96 -2 -126 -62 -7 -15
-24 -24 -55 -29 -56 -9 -90 -45 -90 -93 0 -30 -6 -39 -40 -60 -21 -13 -44 -34
-50 -45 -11 -20 -9 -20 495 -20 345 0 505 3 505 10 0 16 -47 60 -64 60 -19 0
-36 31 -36 65 0 14 -4 35 -10 45 -10 20 -59 40 -96 40 -17 0 -29 10 -43 39
-25 47 -70 69 -107 52 -36 -16 -49 -14 -90 14 -47 32 -70 31 -117 -2z"/>
<path d="M146 1444 c-9 -8 -16 -24 -16 -34 0 -10 7 -26 16 -34 14 -14 88 -16
665 -16 429 0 657 4 670 10 26 14 26 66 0 80 -13 6 -241 10 -670 10 -577 0
-651 -2 -665 -16z"/>
<path d="M235 1278 c3 -13 21 -99 40 -193 20 -93 40 -180 45 -192 11 -27 51
-31 71 -7 41 50 218 142 340 178 151 43 277 58 464 54 l170 -3 17 75 c9 41 17
83 17 93 1 16 -33 17 -584 17 l-585 0 5 -22z"/>
<path d="M939 1049 c-214 -31 -482 -148 -523 -228 -33 -63 -15 -138 42 -173
27 -17 44 -20 87 -15 33 3 57 1 64 -6 7 -7 11 -81 11 -225 l0 -214 29 -29 29
-29 457 0 457 0 29 29 29 29 0 204 0 204 -52 53 c-29 28 -75 63 -103 76 -27
13 -45 24 -39 25 27 1 127 -42 186 -79 97 -61 176 -52 213 25 34 73 8 137 -79
194 -114 74 -265 128 -431 155 -96 16 -313 18 -406 4z m224 -116 c-13 -2 -35
-2 -50 0 -16 2 -5 4 22 4 28 0 40 -2 28 -4z m-188 -12 c-14 -12 -85 -22 -85
-11 0 9 27 16 70 19 14 0 20 -3 15 -8z m380 -1 l30 -8 -35 -1 c-19 0 -42 4
-50 9 -12 8 -11 10 5 9 11 -1 34 -5 50 -9z m-575 -39 c0 -5 -11 -12 -24 -15
-13 -3 -32 -9 -43 -13 -10 -3 -15 -2 -10 3 7 7 46 24 75 33 1 1 2 -3 2 -8z
m769 -13 c37 -13 19 -20 -20 -7 -41 14 -67 35 -29 24 14 -4 36 -12 49 -17z
m-950 -71 c-2 -1 -19 -13 -37 -25 -19 -13 -36 -22 -39 -19 -2 3 12 17 33 31
21 14 40 23 43 21 2 -3 2 -6 0 -8z m1139 -35 c2 -8 -11 -4 -32 10 -20 13 -36
27 -36 31 0 13 63 -26 68 -41z"/>
</g>
</svg>
