<?xml version="1.0" standalone="no"?>
<!DOCTYPE svg PUBLIC "-//W3C//DTD SVG 20010904//EN"
 "http://www.w3.org/TR/2001/REC-SVG-20010904/DTD/svg10.dtd">
<svg version="1.0" xmlns="http://www.w3.org/2000/svg"
 width="200.000000pt" height="200.000000pt" viewBox="0 0 200.000000 200.000000"
 preserveAspectRatio="xMidYMid meet">
<metadata>
Created by potrace 1.16, written by Peter Selinger 2001-2019
</metadata>
<g transform="translate(0.000000,200.000000) scale(0.100000,-0.100000)"
fill="#000000" stroke="none">
<path d="M845 1855 c-355 -65 -627 -335 -702 -693 -30 -149 -5 -365 62 -515
81 -185 257 -362 440 -442 117 -52 209 -70 360 -69 122 1 151 4 228 27 301 92
512 303 604 604 23 78 26 104 26 228 0 111 -5 157 -22 220 -57 213 -192 398
-376 518 -183 117 -406 162 -620 122z m375 -120 c47 -15 99 -34 115 -42 59
-29 155 -98 155 -112 0 -7 -57 -72 -126 -144 l-127 -132 54 -16 54 -16 110
108 c61 60 118 109 126 109 19 0 87 -100 122 -180 46 -103 62 -186 61 -315 0
-83 -6 -140 -18 -184 -75 -274 -282 -482 -557 -557 -99 -27 -291 -25 -392 4
-121 35 -287 127 -287 159 0 8 49 67 110 131 l110 117 -67 3 -67 3 -80 -81
c-45 -44 -89 -80 -98 -80 -19 0 -79 87 -118 174 -50 110 -64 179 -64 321 0
114 3 140 27 215 66 208 208 374 402 473 160 81 381 97 555 42z"/>
<path d="M858 1263 c-28 -4 -28 -5 -28 -79 0 -57 -3 -76 -15 -80 -29 -12 -45
16 -45 77 0 67 0 66 -77 42 l-53 -17 0 -67 c0 -70 -14 -97 -45 -85 -11 4 -15
21 -15 61 0 30 -3 55 -6 55 -18 0 -68 -39 -89 -70 -72 -104 -41 -269 63 -341
l36 -24 390 -3 c215 -2 406 0 424 3 44 8 110 69 134 123 22 49 26 150 8 197
-18 48 -83 115 -112 115 -5 0 -8 -25 -8 -55 0 -40 -4 -57 -15 -61 -31 -12 -45
15 -45 85 l0 67 -53 17 c-77 24 -77 25 -77 -42 0 -61 -16 -89 -45 -77 -11 4
-15 23 -15 79 l0 74 -37 7 c-21 3 -52 6 -70 6 l-32 0 -3 -82 c-3 -81 -4 -83
-28 -83 -24 0 -25 2 -28 83 l-3 82 -42 -1 c-23 -1 -54 -4 -69 -6z m-135 -410
c-13 -2 -35 -2 -50 0 -16 2 -5 4 22 4 28 0 40 -2 28 -4z m200 0 c-13 -2 -35
-2 -50 0 -16 2 -5 4 22 4 28 0 40 -2 28 -4z m200 0 c-13 -2 -35 -2 -50 0 -16
2 -5 4 22 4 28 0 40 -2 28 -4z m200 0 c-13 -2 -35 -2 -50 0 -16 2 -5 4 22 4
28 0 40 -2 28 -4z"/>
</g>
</svg>
