<?xml version="1.0" standalone="no"?>
<!DOCTYPE svg PUBLIC "-//W3C//DTD SVG 20010904//EN"
 "http://www.w3.org/TR/2001/REC-SVG-20010904/DTD/svg10.dtd">
<svg version="1.0" xmlns="http://www.w3.org/2000/svg"
 width="200.000000pt" height="200.000000pt" viewBox="0 0 200.000000 200.000000"
 preserveAspectRatio="xMidYMid meet">
<metadata>
Created by potrace 1.16, written by Peter Selinger 2001-2019
</metadata>
<g transform="translate(0.000000,200.000000) scale(0.100000,-0.100000)"
fill="#000000" stroke="none">
<path d="M1061 1778 c-23 -13 -50 -35 -58 -49 -16 -26 -15 -28 18 -57 19 -17
46 -54 59 -82 20 -43 27 -50 45 -46 15 4 30 -3 50 -24 l29 -30 22 38 c37 61
105 84 112 36 2 -14 -5 -24 -23 -32 -25 -12 -55 -65 -55 -98 0 -15 3 -15 23 3
47 43 109 58 121 28 4 -12 30 -15 146 -15 l141 0 -6 23 c-19 63 -55 87 -130
87 -41 0 -44 2 -50 33 -26 116 -100 169 -194 136 -30 -11 -35 -9 -66 21 -29
28 -82 49 -126 50 -9 0 -35 -10 -58 -22z"/>
<path d="M686 1689 c-14 -17 -26 -35 -26 -42 0 -6 -10 -1 -22 11 -53 49 -131
56 -172 16 -25 -26 -36 -64 -17 -64 4 0 38 -28 76 -62 58 -54 69 -60 86 -50
28 18 46 15 68 -14 19 -24 20 -24 30 -5 6 11 36 32 67 47 l57 28 20 -25 c17
-21 30 -25 106 -30 47 -3 88 -5 90 -3 8 7 -22 100 -41 127 -20 28 -24 29 -76
24 -53 -6 -55 -5 -91 34 -33 34 -43 39 -84 39 -38 0 -49 -5 -71 -31z"/>
<path d="M144 1656 c-3 -8 10 -47 30 -88 19 -40 50 -125 69 -188 l35 -115 78
-3 c42 -2 81 1 85 5 4 4 -5 34 -21 65 -31 60 -31 88 0 88 23 0 54 -42 77 -106
l19 -49 69 0 c86 0 89 7 38 95 -75 127 -195 223 -353 281 -90 32 -118 36 -126
15z"/>
<path d="M840 1418 c-49 -25 -73 -46 -97 -82 -18 -26 -33 -55 -33 -62 0 -12
38 -14 214 -14 l214 0 25 45 25 44 -34 31 c-55 48 -94 63 -174 68 -70 4 -79 2
-140 -30z"/>
<path d="M1610 1402 c-40 -8 -40 -9 -14 -102 26 -89 28 -371 3 -395 -9 -9 -23
-13 -33 -9 -15 6 -16 18 -10 118 9 154 -24 348 -61 362 -7 3 -66 -5 -131 -17
-96 -18 -123 -27 -141 -47 -35 -37 -30 -52 18 -52 36 0 41 -3 54 -33 21 -52
60 -215 99 -416 44 -224 58 -246 135 -206 67 34 221 229 279 352 23 50 27 71
27 153 0 118 -21 182 -78 245 -45 49 -78 60 -147 47z"/>
<path d="M70 1205 c-10 -12 -12 -50 -8 -153 5 -113 11 -152 33 -217 66 -199
206 -340 407 -413 l73 -26 368 -4 c220 -2 400 0 446 7 245 33 450 213 526 461
10 33 19 109 22 192 6 145 1 168 -38 168 -17 0 -18 -6 -13 -73 10 -115 -29
-225 -134 -372 -118 -166 -215 -244 -286 -231 -58 11 -74 40 -102 182 -30 160
-80 384 -98 444 l-13 45 -585 3 c-517 2 -587 0 -598 -13z m315 -407 c21 -84
54 -118 148 -148 44 -14 52 -21 52 -41 0 -46 -88 -31 -173 31 -45 32 -92 117
-92 165 0 37 7 47 34 43 13 -2 22 -16 31 -50z"/>
<path d="M440 302 c0 -73 3 -91 16 -96 9 -3 255 -6 548 -6 400 0 535 3 544 12
7 7 12 44 12 96 0 76 -2 84 -17 79 -115 -36 -124 -37 -543 -37 -419 0 -428 1
-542 37 -16 5 -18 -4 -18 -85z"/>
</g>
</svg>
