<?xml version="1.0" standalone="no"?>
<!DOCTYPE svg PUBLIC "-//W3C//DTD SVG 20010904//EN"
 "http://www.w3.org/TR/2001/REC-SVG-20010904/DTD/svg10.dtd">
<svg version="1.0" xmlns="http://www.w3.org/2000/svg"
 width="200.000000pt" height="200.000000pt" viewBox="0 0 200.000000 200.000000"
 preserveAspectRatio="xMidYMid meet">
<metadata>
Created by potrace 1.16, written by Peter Selinger 2001-2019
</metadata>
<g transform="translate(0.000000,200.000000) scale(0.100000,-0.100000)"
fill="#000000" stroke="none">
<path d="M1075 1785 c-42 -15 -64 -37 -95 -96 -16 -31 -25 -37 -61 -42 -38 -5
-44 -3 -79 34 -32 34 -42 39 -83 39 -38 0 -49 -5 -71 -31 -14 -17 -26 -35 -26
-42 0 -6 -10 -1 -22 11 -29 27 -70 42 -114 42 -43 0 -78 -32 -94 -87 l-12 -40
-43 24 c-48 27 -179 73 -207 73 -30 0 -32 -28 -5 -78 31 -58 68 -160 100 -280
l26 -92 -103 0 c-81 0 -106 -3 -116 -15 -21 -25 -7 -273 20 -360 46 -147 161
-293 287 -365 l62 -35 1 -116 c0 -97 3 -118 16 -123 9 -3 255 -6 548 -6 400 0
535 3 544 12 8 8 12 50 12 123 l1 110 62 35 c148 83 271 261 302 435 18 103
20 279 2 293 -7 6 -32 12 -56 14 -41 3 -45 6 -58 42 -17 50 -58 104 -94 125
-22 12 -29 24 -29 46 0 41 -30 97 -60 112 -14 7 -46 13 -72 13 -44 0 -47 2
-53 33 -26 116 -100 169 -194 136 -29 -10 -34 -8 -71 25 -22 20 -46 36 -54 36
-7 0 -26 2 -42 5 -16 3 -47 -2 -69 -10z m131 -86 c42 -45 64 -50 124 -31 l52
17 23 -27 c13 -15 31 -52 39 -82 19 -64 34 -75 113 -83 47 -5 56 -10 64 -31
20 -52 14 -55 -151 -83 -85 -15 -157 -25 -160 -22 -9 9 18 39 50 55 40 21 52
38 38 55 -20 25 -69 12 -115 -30 -20 -18 -23 -18 -23 -3 0 33 30 86 55 98 35
16 31 52 -6 56 -30 4 -85 -44 -95 -83 -6 -22 -6 -22 -39 13 -28 31 -35 34 -49
23 -22 -18 -21 -24 18 -84 33 -51 53 -97 42 -97 -3 0 -26 15 -50 34 -24 18
-56 36 -71 40 -25 6 -27 10 -21 44 3 22 -1 60 -10 93 -15 51 -15 59 0 87 27
52 55 72 101 72 33 0 47 -6 71 -31z m-396 -80 c38 -42 38 -42 94 -35 64 7 76
-4 76 -72 0 -46 -10 -57 -65 -67 -72 -13 -153 -71 -194 -140 -10 -17 -11 -13
-6 25 10 72 35 112 93 143 54 29 63 46 37 67 -12 10 -25 7 -70 -15 -30 -14
-60 -35 -66 -46 -10 -19 -11 -19 -30 5 -37 47 -87 23 -55 -26 8 -13 18 -50 22
-83 l6 -60 -41 63 c-23 35 -62 85 -87 112 -41 44 -45 52 -39 82 18 82 52 90
119 28 56 -51 82 -52 103 -2 31 76 49 80 103 21z m-455 -82 c85 -45 181 -145
227 -237 l38 -75 -47 -3 c-51 -4 -58 2 -67 57 -9 54 -57 135 -82 139 -31 4
-38 -25 -15 -64 11 -19 27 -56 35 -84 l15 -50 -54 0 -53 0 -12 53 c-12 47 -78
257 -95 300 -7 15 -4 16 21 7 16 -6 56 -25 89 -43z m700 -166 c38 -17 115 -91
115 -110 0 -5 3 -16 6 -25 5 -14 -17 -16 -205 -16 -167 0 -211 3 -211 13 0 7
13 34 29 59 54 85 174 121 266 79z m646 -43 c25 -21 46 -61 63 -118 34 -113
13 -203 -77 -338 -49 -73 -185 -227 -194 -219 -2 3 -24 103 -48 223 -39 192
-76 343 -99 396 -8 17 -7 17 135 44 23 4 28 0 43 -35 26 -67 39 -178 32 -282
-6 -86 -5 -97 10 -103 35 -14 47 17 52 133 4 105 -13 234 -39 283 -6 11 -5 18
4 21 25 11 104 7 118 -5z m-423 -106 c-28 -5 -33 4 -18 35 l13 28 12 -30 c12
-27 12 -30 -7 -33z m592 -179 c0 -104 -4 -128 -29 -200 -62 -180 -195 -307
-381 -365 -73 -22 -85 -23 -460 -23 -376 0 -387 1 -460 23 -137 43 -246 123
-320 235 -57 87 -86 188 -95 325 l-8 112 601 0 601 0 11 -37 c6 -21 31 -139
56 -263 27 -134 52 -232 61 -242 35 -39 86 -15 175 81 134 145 209 282 216
398 3 53 8 73 18 73 11 0 14 -25 14 -117z m-1281 -643 c30 -6 211 -10 411 -10
317 0 417 5 483 26 15 5 17 -3 17 -70 l0 -76 -500 0 -500 0 0 76 c0 67 2 75
18 70 9 -3 41 -10 71 -16z"/>
<path d="M327 844 c-30 -30 24 -160 85 -204 85 -62 173 -77 173 -31 0 20 -8
27 -52 41 -94 30 -127 64 -148 148 -9 34 -18 48 -31 50 -11 2 -23 0 -27 -4z"/>
</g>
</svg>
