<?xml version="1.0" standalone="no"?>
<!DOCTYPE svg PUBLIC "-//W3C//DTD SVG 20010904//EN"
 "http://www.w3.org/TR/2001/REC-SVG-20010904/DTD/svg10.dtd">
<svg version="1.0" xmlns="http://www.w3.org/2000/svg"
 width="200.000000pt" height="200.000000pt" viewBox="0 0 200.000000 200.000000"
 preserveAspectRatio="xMidYMid meet">
<metadata>
Created by potrace 1.16, written by Peter Selinger 2001-2019
</metadata>
<g transform="translate(0.000000,200.000000) scale(0.100000,-0.100000)"
fill="#000000" stroke="none">
<path d="M345 1776 c-61 -28 -120 -91 -134 -143 -16 -57 -13 -202 4 -255 9
-25 36 -69 60 -97 27 -31 47 -66 51 -89 4 -20 -7 -215 -25 -437 -35 -449 -35
-451 29 -508 67 -62 153 -62 220 0 42 37 60 81 60 146 l0 37 58 -29 c114 -58
194 -76 332 -76 138 0 218 18 332 76 l58 29 0 -37 c0 -65 18 -109 60 -146 67
-62 153 -62 221 0 63 57 64 64 29 488 -16 206 -30 395 -30 420 0 54 8 70 64
140 60 73 67 110 64 314 -3 153 -5 175 -20 185 -13 8 -23 8 -35 0 -16 -10 -19
-34 -23 -200 -3 -104 -9 -196 -14 -204 -6 -8 -27 -35 -47 -60 -49 -58 -69
-107 -69 -167 0 -26 14 -221 31 -432 31 -381 31 -384 11 -410 -39 -52 -112
-51 -147 3 -16 23 -15 51 14 408 17 211 31 405 31 431 0 60 -20 109 -69 167
-20 25 -41 52 -47 60 -5 8 -11 100 -14 204 -4 166 -7 190 -22 200 -30 19 -53
-4 -56 -58 -3 -40 -6 -47 -20 -41 -193 81 -415 84 -586 6 l-61 -28 -43 48
c-70 78 -173 99 -267 55z m191 -91 c49 -37 64 -78 64 -174 0 -95 -8 -118 -60
-179 -49 -60 -70 -109 -70 -169 0 -26 14 -221 31 -432 31 -381 31 -384 11
-410 -39 -52 -112 -51 -147 3 -16 23 -15 51 14 408 17 211 31 405 31 431 0 60
-21 109 -70 169 -22 25 -44 58 -50 73 -13 35 -13 176 1 212 37 98 160 133 245
68z m614 -254 c112 -43 209 -144 247 -261 26 -79 23 -208 -5 -280 -45 -112
-130 -197 -242 -242 -78 -31 -222 -31 -300 0 -330 132 -363 577 -56 757 98 58
244 68 356 26z"/>
<path d="M1471 1786 c-8 -9 -11 -58 -9 -151 3 -119 5 -139 21 -149 12 -8 22
-8 35 0 15 10 17 30 20 149 3 142 -3 165 -38 165 -10 0 -23 -6 -29 -14z"/>
<path d="M1591 1786 c-8 -9 -11 -58 -9 -151 3 -119 5 -139 21 -149 12 -8 22
-8 35 0 15 10 17 30 20 149 3 142 -3 165 -38 165 -10 0 -23 -6 -29 -14z"/>
</g>
</svg>
