<?xml version="1.0" standalone="no"?>
<!DOCTYPE svg PUBLIC "-//W3C//DTD SVG 20010904//EN"
 "http://www.w3.org/TR/2001/REC-SVG-20010904/DTD/svg10.dtd">
<svg version="1.0" xmlns="http://www.w3.org/2000/svg"
 width="200.000000pt" height="200.000000pt" viewBox="0 0 200.000000 200.000000"
 preserveAspectRatio="xMidYMid meet">
<metadata>
Created by potrace 1.16, written by Peter Selinger 2001-2019
</metadata>
<g transform="translate(0.000000,200.000000) scale(0.100000,-0.100000)"
fill="#000000" stroke="none">
<path d="M922 1920 c-166 -35 -308 -184 -357 -375 -19 -75 -19 -223 0 -295 32
-120 132 -262 224 -316 29 -17 31 -22 31 -79 0 -33 -7 -187 -16 -343 -15 -265
-15 -286 1 -327 28 -76 95 -115 195 -115 68 0 120 18 156 54 56 56 58 74 37
437 -10 179 -17 332 -15 340 1 8 27 31 57 52 163 113 243 336 201 556 -45 240
-202 399 -408 415 -35 3 -82 1 -106 -4z m180 -140 c66 -24 125 -81 165 -157
44 -83 56 -149 51 -260 -5 -82 -10 -102 -42 -168 -26 -52 -51 -86 -83 -112
-96 -79 -131 -118 -138 -153 -3 -19 2 -181 13 -360 22 -384 25 -370 -68 -370
-93 0 -91 -15 -68 375 22 374 21 383 -42 436 -156 130 -188 178 -210 313 -24
153 38 333 143 417 74 58 187 74 279 39z"/>
</g>
</svg>
