<?xml version="1.0" standalone="no"?>
<!DOCTYPE svg PUBLIC "-//W3C//DTD SVG 20010904//EN"
 "http://www.w3.org/TR/2001/REC-SVG-20010904/DTD/svg10.dtd">
<svg version="1.0" xmlns="http://www.w3.org/2000/svg"
 width="200.000000pt" height="200.000000pt" viewBox="0 0 200.000000 200.000000"
 preserveAspectRatio="xMidYMid meet">
<metadata>
Created by potrace 1.16, written by Peter Selinger 2001-2019
</metadata>
<g transform="translate(0.000000,200.000000) scale(0.100000,-0.100000)"
fill="#000000" stroke="none">
<path d="M855 1723 c-202 -24 -335 -61 -479 -135 -98 -51 -215 -161 -248 -234
-96 -212 140 -669 427 -829 38 -22 70 -47 75 -60 5 -13 23 -39 41 -59 17 -20
30 -38 28 -40 -2 -1 -50 -8 -106 -15 -134 -16 -207 -39 -211 -67 -9 -63 265
-99 691 -91 280 5 424 20 506 53 90 36 21 81 -162 104 l-97 12 35 40 c20 21
41 50 47 63 6 13 40 41 77 62 39 22 102 74 156 128 74 74 99 108 142 190 73
142 116 293 111 393 -3 84 -22 131 -81 204 -68 86 -223 174 -393 223 -166 49
-419 75 -559 58z m420 -59 c365 -63 621 -276 575 -478 -14 -58 -54 -127 -100
-171 l-31 -30 20 45 c91 200 -141 395 -541 455 -382 58 -800 -67 -897 -268
-37 -76 -20 -202 32 -246 31 -25 18 -33 -15 -9 -243 171 -217 420 59 575 117
65 311 124 448 136 120 11 367 6 450 -9z m-78 -215 c238 -26 462 -143 509
-265 78 -204 -209 -385 -637 -401 -258 -10 -502 49 -645 157 -58 44 -104 122
-104 177 0 65 54 144 133 196 113 75 277 124 462 136 165 12 178 12 282 0z
m609 -466 c-58 -165 -188 -328 -329 -412 -69 -41 -199 -86 -287 -100 -165 -27
-391 -3 -535 56 -159 65 -286 185 -393 370 -23 39 -42 74 -42 77 0 3 28 -15
62 -40 154 -115 366 -180 648 -199 297 -21 662 83 823 235 34 32 63 57 65 56
1 -2 -4 -21 -12 -43z m-452 -538 c-27 -41 -95 -85 -167 -107 -58 -17 -88 -20
-191 -16 -114 4 -128 6 -189 36 -57 28 -125 87 -114 98 2 2 39 -6 83 -17 65
-18 107 -22 239 -22 140 0 171 4 250 25 50 14 93 26 98 27 4 0 0 -10 -9 -24z"/>
<path d="M990 1617 c-45 -10 -45 -11 -15 -18 17 -3 45 -7 63 -8 27 -1 33 3 30
16 -4 22 -21 24 -78 10z"/>
<path d="M684 1581 c-112 -29 -194 -63 -194 -81 0 -14 9 -13 71 8 54 19 130
35 224 50 41 6 50 11 50 27 0 29 -25 28 -151 -4z"/>
<path d="M950 1329 c-95 -11 -195 -43 -239 -76 -34 -26 -66 -86 -56 -104 4 -5
0 -11 -7 -14 -109 -38 -129 -49 -143 -75 -24 -47 -6 -76 68 -111 82 -38 172
-57 328 -69 309 -23 563 39 534 129 -5 18 -69 51 -98 51 -6 0 -29 5 -50 11
-65 18 -40 32 146 84 59 16 97 43 97 69 0 22 -55 63 -107 80 -106 34 -303 44
-473 25z m405 -48 c81 -23 125 -43 125 -56 0 -8 -32 -21 -82 -34 -110 -28
-184 -64 -193 -92 -11 -33 31 -64 102 -80 84 -18 91 -23 60 -44 -59 -38 -134
-50 -332 -50 -197 0 -281 10 -397 46 -76 24 -108 50 -89 73 7 8 41 24 76 36
66 22 79 36 69 75 -8 33 11 62 56 85 39 20 131 44 200 53 63 9 364 -1 405 -12z"/>
<path d="M860 1246 c-65 -17 -116 -51 -130 -87 -19 -44 3 -62 24 -20 20 38 57
58 127 67 64 8 85 20 68 40 -14 17 -29 17 -89 0z"/>
<path d="M653 1058 c-49 -24 -11 -63 71 -74 38 -6 48 -4 44 6 -2 8 -20 19 -39
26 -32 12 -32 13 -8 13 25 1 45 22 32 35 -10 10 -76 6 -100 -6z"/>
<path d="M1616 784 c-21 -25 -56 -57 -77 -71 -41 -27 -50 -50 -23 -60 20 -7
139 108 153 149 15 43 -7 35 -53 -18z"/>
<path d="M1365 615 c-60 -23 -87 -55 -46 -55 27 0 109 40 115 56 9 23 -7 22
-69 -1z"/>
</g>
</svg>
