<?xml version="1.0" standalone="no"?>
<!DOCTYPE svg PUBLIC "-//W3C//DTD SVG 20010904//EN"
 "http://www.w3.org/TR/2001/REC-SVG-20010904/DTD/svg10.dtd">
<svg version="1.0" xmlns="http://www.w3.org/2000/svg"
 width="200.000000pt" height="200.000000pt" viewBox="0 0 200.000000 200.000000"
 preserveAspectRatio="xMidYMid meet">
<metadata>
Created by potrace 1.16, written by Peter Selinger 2001-2019
</metadata>
<g transform="translate(0.000000,200.000000) scale(0.100000,-0.100000)"
fill="#000000" stroke="none">
<path d="M860 1574 c-101 -26 -199 -83 -275 -159 -150 -150 -207 -356 -155
-559 28 -112 73 -190 160 -276 115 -115 247 -170 411 -170 89 0 210 28 278 66
148 80 263 229 301 393 17 71 15 202 -5 276 -54 209 -230 381 -437 430 -79 18
-206 18 -278 -1z m226 -43 c223 -43 388 -199 439 -415 85 -358 -225 -697 -592
-648 -204 27 -383 177 -444 371 -28 91 -28 232 0 322 78 248 350 417 597 370z"/>
<path d="M884 1312 c-88 -36 -137 -82 -185 -172 -20 -38 -24 -59 -24 -140 0
-85 3 -101 28 -148 60 -114 153 -174 282 -180 145 -7 254 57 317 186 29 58 33
76 32 143 0 66 -5 87 -33 143 -60 122 -166 187 -304 185 -44 0 -88 -7 -113
-17z m209 -48 c117 -40 193 -158 184 -284 -5 -81 -32 -135 -92 -188 -163 -143
-411 -58 -456 156 -42 207 163 385 364 316z"/>
<path d="M260 1540 c-79 -84 -77 -250 3 -288 l27 -13 0 -282 c0 -162 4 -288
10 -297 7 -12 13 -12 27 -4 16 10 18 36 21 297 l2 287 28 14 c15 8 34 27 42
42 21 38 17 130 -7 185 -41 92 -101 115 -153 59z m98 -70 c23 -47 29 -118 12
-151 -12 -22 -78 -27 -98 -7 -27 27 -11 146 27 191 20 25 33 18 59 -33z"/>
<path d="M1570 1427 c0 -124 7 -145 60 -172 l30 -15 2 -293 c3 -284 4 -292 23
-292 19 0 20 8 25 293 l5 292 32 20 c42 25 55 72 51 185 -3 84 -4 90 -25 93
-28 4 -32 -12 -36 -132 -1 -59 -6 -91 -14 -93 -9 -3 -13 25 -15 109 -3 109 -4
113 -25 116 -23 3 -23 2 -23 -120 l-1 -123 -19 24 c-17 20 -20 38 -20 122 0
99 0 99 -25 99 l-25 0 0 -113z"/>
</g>
</svg>
