<?xml version="1.0" standalone="no"?>
<!DOCTYPE svg PUBLIC "-//W3C//DTD SVG 20010904//EN"
 "http://www.w3.org/TR/2001/REC-SVG-20010904/DTD/svg10.dtd">
<svg version="1.0" xmlns="http://www.w3.org/2000/svg"
 width="200.000000pt" height="200.000000pt" viewBox="0 0 200.000000 200.000000"
 preserveAspectRatio="xMidYMid meet">
<metadata>
Created by potrace 1.16, written by Peter Selinger 2001-2019
</metadata>
<g transform="translate(0.000000,200.000000) scale(0.100000,-0.100000)"
fill="#000000" stroke="none">
<path d="M840 1793 c-8 -3 -50 -26 -93 -50 l-77 -45 -40 16 c-90 36 -136 17
-253 -102 -62 -64 -88 -98 -96 -127 -11 -41 -2 -104 17 -128 8 -9 -3 -37 -40
-99 -27 -47 -52 -104 -55 -126 -7 -53 19 -106 63 -127 39 -18 39 -17 18 -79
-24 -69 -15 -129 26 -171 36 -37 95 -69 113 -62 7 2 30 48 52 102 22 53 47 99
55 102 61 20 73 30 116 99 38 61 51 74 72 74 37 0 212 175 212 213 0 22 11 33
70 68 66 39 100 77 100 112 0 9 42 32 105 58 69 29 105 49 105 60 0 26 -58
108 -92 129 -39 24 -80 25 -138 5 -59 -21 -64 -20 -83 21 -24 50 -101 78 -157
57z m99 -50 c27 -23 123 -250 119 -283 -2 -18 -20 -36 -68 -67 -35 -24 -69
-43 -76 -43 -10 0 -224 294 -224 308 0 4 15 16 33 26 136 80 177 91 216 59z
m-336 -62 c27 -11 287 -373 287 -401 0 -20 -152 -170 -172 -170 -12 0 -336
228 -379 266 -25 23 -31 70 -13 114 15 37 157 179 194 193 23 9 56 8 83 -2z
m619 -31 c22 -22 38 -45 36 -52 -5 -15 -158 -81 -167 -73 -3 3 -17 34 -32 68
l-26 62 46 17 c74 27 98 23 143 -22z m-694 -464 c67 -48 122 -93 122 -99 0 -7
-18 -40 -40 -74 -54 -84 -67 -86 -188 -33 -162 70 -165 72 -176 109 -11 40 -5
60 53 160 l43 72 31 -24 c18 -13 87 -63 155 -111z m-114 -246 c36 -16 66 -31
66 -33 0 -6 -71 -161 -75 -165 -2 -2 -16 3 -33 12 -37 19 -62 57 -62 94 0 26
28 122 35 122 2 0 33 -13 69 -30z"/>
<path d="M1415 1483 c-45 -15 -88 -54 -452 -416 -279 -278 -410 -415 -430
-451 -24 -44 -28 -62 -28 -131 0 -70 4 -87 30 -133 73 -133 245 -187 379 -120
61 30 820 788 854 853 35 66 38 176 5 247 -61 132 -214 197 -358 151z m220
-57 c111 -66 154 -203 100 -321 -25 -56 -784 -815 -840 -840 -158 -72 -336 30
-352 203 -10 110 -9 112 445 564 301 299 416 408 442 416 58 19 153 8 205 -22z"/>
<path d="M1462 1318 c-10 -10 3 -28 60 -85 70 -70 98 -88 98 -60 0 7 -33 45
-73 85 -57 57 -75 70 -85 60z"/>
<path d="M1332 1188 c-10 -10 3 -28 60 -85 70 -70 98 -88 98 -60 0 7 -33 45
-73 85 -57 57 -75 70 -85 60z"/>
<path d="M1200 1060 c-12 -8 -1 -24 60 -85 41 -41 80 -75 87 -75 28 0 10 28
-59 97 -56 55 -77 70 -88 63z"/>
<path d="M1070 930 c-12 -8 -1 -24 60 -85 41 -41 80 -75 87 -75 28 0 10 28
-59 97 -56 55 -77 70 -88 63z"/>
<path d="M940 800 c-12 -8 -1 -24 60 -85 41 -41 80 -75 87 -75 28 0 10 28 -59
97 -56 55 -77 70 -88 63z"/>
<path d="M810 670 c-12 -8 -1 -24 60 -85 41 -41 80 -75 87 -75 28 0 10 28 -59
97 -56 55 -77 70 -88 63z"/>
<path d="M681 537 c-8 -8 7 -30 61 -84 68 -69 98 -87 98 -62 0 13 -117 146
-135 152 -7 3 -18 0 -24 -6z"/>
</g>
</svg>
