<?xml version="1.0" standalone="no"?>
<!DOCTYPE svg PUBLIC "-//W3C//DTD SVG 20010904//EN"
 "http://www.w3.org/TR/2001/REC-SVG-20010904/DTD/svg10.dtd">
<svg version="1.0" xmlns="http://www.w3.org/2000/svg"
 width="200.000000pt" height="200.000000pt" viewBox="0 0 200.000000 200.000000"
 preserveAspectRatio="xMidYMid meet">
<metadata>
Created by potrace 1.16, written by Peter Selinger 2001-2019
</metadata>
<g transform="translate(0.000000,200.000000) scale(0.100000,-0.100000)"
fill="#000000" stroke="none">
<path d="M893 1799 c-89 -10 -174 -39 -278 -92 -63 -32 -102 -63 -180 -142
-86 -86 -108 -114 -148 -195 -66 -132 -89 -227 -89 -370 0 -143 23 -238 88
-368 103 -205 313 -368 537 -417 117 -26 314 -17 422 18 157 52 314 168 411
303 183 257 196 603 33 882 -53 89 -210 240 -297 286 -102 53 -202 85 -302 96
-94 11 -95 11 -197 -1z m293 -39 c43 -11 122 -41 174 -67 80 -40 110 -62 191
-143 82 -81 102 -109 142 -190 63 -126 88 -228 88 -355 0 -132 -22 -228 -81
-350 -78 -160 -189 -273 -345 -350 -123 -61 -221 -85 -355 -85 -217 0 -398 75
-553 227 -383 378 -268 1036 220 1261 159 73 356 93 519 52z"/>
<path d="M960 1660 c0 -6 27 -10 60 -10 33 0 60 4 60 10 0 6 -27 10 -60 10
-33 0 -60 -4 -60 -10z"/>
<path d="M760 1635 c-79 -25 -130 -54 -98 -55 9 0 37 9 62 20 25 10 74 25 108
31 35 7 67 16 73 21 19 17 -73 6 -145 -17z"/>
<path d="M1135 1651 c-3 -6 7 -13 22 -16 15 -4 60 -17 100 -31 82 -28 107 -30
78 -8 -17 12 -84 36 -177 60 -9 3 -19 0 -23 -5z"/>
<path d="M1245 1488 c-3 -13 -4 -203 -3 -423 l3 -400 133 -3 132 -3 -2 423 -3
423 -127 3 c-125 3 -128 2 -133 -20z m245 -408 l0 -400 -110 0 -110 0 0 400 0
400 110 0 110 0 0 -400z"/>
<path d="M706 1476 c-35 -15 -79 -45 -107 -72 -171 -169 -125 -452 91 -557
197 -95 429 14 485 228 41 154 -39 325 -185 394 -81 38 -202 41 -284 7z m279
-28 c167 -86 228 -284 138 -449 -122 -226 -465 -217 -574 14 -54 115 -47 223
22 325 68 102 153 144 284 139 62 -3 91 -9 130 -29z"/>
<path d="M775 1305 c-66 -36 -95 -80 -95 -145 0 -95 70 -164 162 -162 160 3
217 198 86 295 -36 27 -114 33 -153 12z m133 -25 c93 -57 95 -197 3 -245 -43
-21 -107 -19 -148 6 -91 56 -81 192 17 241 46 23 87 23 128 -2z"/>
<path d="M505 812 c-39 -24 -65 -64 -65 -99 0 -22 27 -54 133 -160 141 -142
163 -154 214 -118 33 23 66 82 59 108 -8 31 -255 275 -286 282 -16 3 -36 -2
-55 -13z m192 -135 c73 -73 133 -141 133 -151 0 -26 -64 -86 -92 -86 -33 0
-278 246 -278 279 0 27 60 91 86 91 10 0 78 -60 151 -133z"/>
<path d="M880 722 c-59 -57 -55 -79 29 -165 86 -88 113 -93 172 -29 57 61 54
82 -30 164 -85 83 -110 88 -171 30z m158 -46 c34 -35 62 -71 62 -80 0 -28 -60
-86 -88 -86 -32 0 -152 114 -152 143 0 28 63 87 92 87 17 0 44 -20 86 -64z"/>
<path d="M1338 449 c-21 -11 -38 -24 -38 -29 0 -13 83 23 88 38 5 17 -7 14
-50 -9z"/>
<path d="M1155 388 c-27 -9 -248 -14 -285 -6 -8 2 -17 -1 -20 -7 -3 -6 19 -13
50 -18 94 -13 320 11 320 34 0 11 -26 10 -65 -3z"/>
</g>
</svg>
