<?xml version="1.0" standalone="no"?>
<!DOCTYPE svg PUBLIC "-//W3C//DTD SVG 20010904//EN"
 "http://www.w3.org/TR/2001/REC-SVG-20010904/DTD/svg10.dtd">
<svg version="1.0" xmlns="http://www.w3.org/2000/svg"
 width="200.000000pt" height="200.000000pt" viewBox="0 0 200.000000 200.000000"
 preserveAspectRatio="xMidYMid meet">
<metadata>
Created by potrace 1.16, written by Peter Selinger 2001-2019
</metadata>
<g transform="translate(0.000000,200.000000) scale(0.100000,-0.100000)"
fill="#000000" stroke="none">
<path d="M375 1802 c-42 -20 -105 -83 -105 -106 0 -8 -16 -23 -35 -35 -82 -48
-91 -112 -50 -338 30 -162 75 -302 143 -447 58 -123 96 -180 170 -258 l54 -57
-16 -41 c-20 -50 -20 -74 -1 -94 10 -9 15 -35 15 -73 0 -71 29 -128 80 -154
32 -18 64 -19 413 -19 414 0 409 -1 461 60 14 18 26 40 26 51 0 17 8 19 66 19
59 0 68 3 95 29 16 16 29 38 29 48 0 10 4 68 10 130 7 88 13 116 28 131 20 20
25 55 38 275 6 93 5 110 -10 126 -15 17 -16 31 -8 130 8 103 11 112 35 132 21
16 27 29 27 60 0 37 -26 79 -49 79 -5 0 -19 28 -32 63 -25 69 -32 77 -71 77
-25 0 -26 1 -16 34 10 33 13 34 69 38 43 3 63 9 74 24 21 28 18 57 -8 82 -19
18 -35 22 -86 22 -109 0 -145 -32 -182 -157 l-12 -43 -202 0 c-150 0 -205 -3
-212 -12 -6 -7 -18 -35 -28 -63 -11 -29 -33 -62 -52 -78 -44 -38 -46 -87 -4
-126 25 -24 29 -35 36 -114 8 -103 1 -109 -63 -49 -22 20 -52 46 -68 58 -25
19 -26 23 -16 54 7 18 12 50 12 71 0 32 -7 43 -50 81 l-51 43 23 61 c12 33 19
68 15 77 -3 9 -22 25 -42 34 -19 9 -35 24 -35 32 -1 33 -39 99 -71 122 -27 19
-49 25 -104 27 -38 1 -99 5 -135 8 -50 4 -74 0 -105 -14z m170 -61 c47 -27 63
-68 100 -252 34 -175 61 -265 108 -371 17 -37 22 -58 14 -61 -12 -4 -93 39
-102 53 -3 5 1 37 10 70 9 34 13 71 9 83 -3 12 -28 45 -56 73 l-49 51 22 65
c23 64 23 65 3 98 -27 46 -67 73 -106 72 -23 -1 -41 7 -59 24 -15 14 -46 31
-70 38 l-43 13 28 27 c52 48 126 55 191 17z m136 -4 c36 -24 60 -71 43 -86
-18 -18 -54 -23 -54 -8 0 7 -11 36 -25 63 -14 27 -25 50 -25 52 0 9 33 -2 61
-21z m1038 -17 c-31 -4 -61 -10 -67 -14 -6 -4 -19 -31 -28 -61 -10 -30 -23
-55 -30 -55 -10 0 -8 15 6 56 28 81 32 84 109 83 l66 -2 -56 -7z m-1311 -124
c20 -23 32 -49 36 -82 26 -187 80 -383 136 -494 l31 -61 -31 -62 c-26 -51 -31
-72 -29 -122 1 -35 -3 -71 -11 -85 l-13 -24 -38 42 c-72 82 -175 310 -223 496
-33 124 -61 315 -52 350 12 49 52 76 111 76 48 0 56 -3 83 -34z m398 -21 c4
-8 -1 -33 -10 -55 -27 -68 -22 -88 36 -141 l52 -47 -12 -40 c-25 -83 -13 -113
66 -158 17 -10 32 -21 32 -25 0 -5 -68 -18 -125 -22 -26 -3 -77 115 -115 268
-39 153 -47 215 -29 226 24 15 99 11 105 -6z m-269 -27 c26 -24 29 -61 8 -98
-29 -50 -19 -87 37 -146 l52 -55 -12 -58 c-7 -31 -12 -66 -12 -77 0 -20 38
-63 73 -81 17 -9 17 -11 -6 -26 l-25 -16 -35 77 c-52 115 -85 239 -122 465 -7
43 6 49 42 15z m1171 -50 c6 -17 10 -33 8 -35 -1 -2 -136 -2 -298 -1 l-294 3
13 33 13 32 273 0 273 0 12 -32z m80 -122 c2 -10 -2 -22 -10 -27 -7 -5 -169
-9 -359 -9 -364 0 -379 2 -363 44 6 15 40 16 367 14 345 -3 362 -4 365 -22z
m-61 -153 c-4 -38 -7 -87 -7 -111 l0 -43 -232 3 c-213 3 -338 16 -359 37 -4 3
-9 45 -12 94 l-6 87 311 0 311 0 -6 -67z m-526 -187 c169 -36 285 -144 277
-258 l-3 -43 -435 0 -435 0 1 51 c2 60 20 98 71 148 78 75 199 114 363 115 52
0 125 -6 161 -13z m545 -68 c-3 -24 -8 -96 -12 -161 l-7 -118 -96 3 -96 3 -1
71 c-1 87 -35 167 -92 214 l-37 30 174 0 173 0 -6 -42z m-242 -320 c18 -29 -5
-52 -56 -58 -58 -7 -76 -22 -80 -68 -4 -51 -32 -51 -36 0 -4 47 -31 68 -89 68
-68 0 -81 -24 -86 -165 -3 -106 -21 -85 -27 32 -3 64 -10 107 -18 115 -10 10
-78 14 -270 18 l-257 5 -3 23 c-8 55 -29 52 459 50 418 -3 453 -4 463 -20z
m172 -135 c-8 -137 -18 -153 -92 -153 -40 0 -44 2 -44 25 0 14 7 37 16 50 13
20 14 30 4 62 -7 21 -16 43 -21 49 -5 6 -3 19 6 30 8 10 15 27 15 37 0 14 10
17 61 17 l61 0 -6 -117z m-598 -50 c-3 -64 -4 -68 -28 -71 -23 -2 -38 5 -105
52 -44 31 -107 26 -163 -14 -61 -44 -93 -43 -158 1 -51 36 -52 36 -38 67 l13
32 241 0 241 0 -3 -67z m202 37 c0 -44 42 -84 78 -75 41 10 62 34 62 72 0 31
2 33 34 33 28 0 36 -5 46 -30 7 -17 10 -33 7 -36 -18 -18 -114 -74 -127 -74
-9 0 -40 16 -70 35 -30 19 -62 35 -72 35 -14 0 -18 8 -18 35 0 32 2 35 30 35
27 0 30 -3 30 -30z m-334 -125 c35 -25 59 -35 87 -35 24 0 49 -8 64 -20 54
-42 123 -7 123 61 0 16 3 29 8 29 4 0 29 -16 56 -35 40 -28 59 -35 96 -35 25
0 55 7 66 15 29 22 34 18 34 -20 0 -24 -9 -45 -29 -67 l-29 -33 -366 -3 c-315
-2 -370 -1 -396 13 -35 18 -60 62 -60 104 l0 31 33 -20 c56 -35 118 -26 180
26 39 33 75 30 133 -11z"/>
</g>
</svg>
