<?xml version="1.0" standalone="no"?>
<!DOCTYPE svg PUBLIC "-//W3C//DTD SVG 20010904//EN"
 "http://www.w3.org/TR/2001/REC-SVG-20010904/DTD/svg10.dtd">
<svg version="1.0" xmlns="http://www.w3.org/2000/svg"
 width="200.000000pt" height="200.000000pt" viewBox="0 0 200.000000 200.000000"
 preserveAspectRatio="xMidYMid meet">
<metadata>
Created by potrace 1.16, written by Peter Selinger 2001-2019
</metadata>
<g transform="translate(0.000000,200.000000) scale(0.100000,-0.100000)"
fill="#000000" stroke="none">
<path d="M929 1830 c-228 -22 -474 -162 -603 -344 -100 -140 -145 -270 -153
-441 -17 -364 204 -705 534 -824 118 -43 199 -55 332 -48 273 12 504 146 653
377 97 149 138 282 138 445 0 119 -17 205 -60 309 -142 340 -492 559 -841 526z
m265 -110 c254 -65 457 -272 527 -538 15 -54 21 -110 22 -187 1 -123 -15 -199
-63 -303 -35 -75 -108 -182 -125 -182 -6 0 -23 13 -38 28 l-27 28 40 328 40
327 -18 43 c-25 56 -67 76 -161 76 l-71 0 0 88 c0 129 -33 162 -164 162 -82 0
-114 -26 -86 -70 6 -10 33 -17 87 -20 l78 -5 3 -77 3 -78 -73 0 c-111 0 -173
-47 -166 -126 5 -63 68 -74 76 -13 8 55 21 59 199 59 94 0 173 -4 184 -10 20
-11 26 -65 13 -129 l-6 -31 -110 0 c-121 0 -148 -8 -148 -46 0 -35 32 -44 150
-44 l100 0 -6 -42 c-3 -24 -13 -110 -24 -191 -10 -81 -24 -154 -30 -162 -8 -9
-30 -15 -59 -15 -81 0 -122 -37 -85 -75 15 -15 31 -17 100 -12 l82 5 32 -33
32 -33 -65 -46 c-135 -96 -272 -140 -442 -140 -84 0 -129 5 -189 22 -211 60
-379 200 -479 399 -96 189 -96 457 -1 646 35 69 104 167 118 167 6 0 85 -74
176 -165 137 -138 161 -165 144 -171 -111 -36 -161 -68 -208 -133 -18 -25 -40
-64 -47 -86 -8 -22 -24 -48 -35 -57 -51 -41 -55 -126 -9 -170 14 -13 25 -33
25 -46 0 -63 58 -132 128 -153 24 -7 114 -9 252 -7 207 3 217 4 254 27 46 29
76 75 76 118 0 21 7 37 21 46 52 37 55 145 5 184 -12 10 -35 46 -50 79 -44 98
-148 182 -244 199 -33 5 -64 32 -236 204 l-198 198 65 47 c187 133 407 174
631 116z m-221 -671 c50 -25 103 -73 123 -111 l15 -28 -261 0 c-143 0 -260 4
-260 8 0 20 61 91 96 113 85 52 203 60 287 18z m205 -261 c3 -22 -2 -28 -20
-33 -13 -3 -160 -4 -328 -3 -285 3 -305 4 -308 21 -9 48 -14 47 330 45 l323
-3 3 -27z m-58 -133 c0 -9 -11 -27 -25 -40 l-24 -25 -216 0 c-243 0 -274 7
-275 63 0 16 19 17 270 17 237 0 270 -2 270 -15z"/>
</g>
</svg>
