<?xml version="1.0" standalone="no"?>
<!DOCTYPE svg PUBLIC "-//W3C//DTD SVG 20010904//EN"
 "http://www.w3.org/TR/2001/REC-SVG-20010904/DTD/svg10.dtd">
<svg version="1.0" xmlns="http://www.w3.org/2000/svg"
 width="200.000000pt" height="200.000000pt" viewBox="0 0 200.000000 200.000000"
 preserveAspectRatio="xMidYMid meet">
<metadata>
Created by potrace 1.16, written by Peter Selinger 2001-2019
</metadata>
<g transform="translate(0.000000,200.000000) scale(0.100000,-0.100000)"
fill="#000000" stroke="none">
<path d="M830 1814 c-95 -20 -214 -71 -296 -126 -39 -26 -76 -54 -83 -61 -9
-12 33 -58 217 -238 227 -223 229 -224 299 -247 94 -30 160 -88 205 -180 18
-37 43 -75 55 -85 12 -10 27 -35 32 -55 7 -25 33 -59 80 -106 39 -39 72 -68
75 -65 3 3 46 331 46 353 0 3 -55 7 -122 8 -120 3 -123 4 -126 26 -7 45 11 52
138 52 134 0 130 -3 130 97 0 42 -4 54 -19 63 -11 6 -90 10 -184 10 -178 0
-191 -4 -199 -59 -1 -13 -11 -29 -20 -35 -29 -18 -53 4 -56 52 -3 35 2 47 32
79 34 38 35 38 120 42 l86 3 0 74 c0 71 -1 75 -26 84 -14 6 -49 10 -78 10 -70
0 -97 28 -60 64 20 20 131 22 178 2 54 -23 66 -49 66 -148 l0 -88 73 0 c88 0
133 -20 159 -72 19 -37 19 -38 -16 -330 -20 -161 -39 -311 -42 -333 -5 -39 -3
-42 59 -104 l65 -64 47 64 c297 403 179 974 -251 1219 -174 99 -396 135 -584
94z"/>
<path d="M347 1518 c-79 -96 -143 -241 -167 -374 -18 -101 -8 -288 20 -379 12
-38 43 -110 68 -160 38 -73 66 -109 147 -191 89 -90 111 -106 205 -152 150
-74 206 -87 380 -87 121 0 158 4 223 23 96 27 192 75 276 137 l64 47 -62 62
-61 61 -91 0 c-76 0 -93 3 -103 17 -19 30 4 53 58 56 25 2 46 6 46 10 0 4 -25
32 -55 62 -64 64 -86 62 -96 -9 -7 -54 -35 -91 -89 -118 -42 -22 -56 -23 -265
-23 -209 0 -223 1 -265 22 -49 25 -90 84 -90 129 0 15 -7 32 -16 40 -53 44
-56 130 -6 183 16 17 35 48 42 69 27 85 141 186 228 203 18 3 34 9 37 13 2 4
-85 96 -194 205 l-198 198 -36 -44z"/>
<path d="M761 1068 c-49 -14 -117 -63 -146 -106 -14 -20 -25 -40 -25 -44 0 -5
117 -8 260 -8 l261 0 -15 29 c-25 47 -104 110 -159 126 -57 17 -125 18 -176 3z"/>
<path d="M521 806 c-9 -11 -10 -20 -1 -35 10 -21 18 -21 330 -21 176 0 320 3
320 7 0 4 -12 20 -27 35 l-27 28 -292 0 c-241 0 -294 -2 -303 -14z"/>
<path d="M577 663 c-11 -18 15 -55 49 -69 29 -12 76 -15 241 -12 l205 3 24 29
c14 15 23 33 21 40 -4 13 -533 22 -540 9z"/>
</g>
</svg>
