<?xml version="1.0" standalone="no"?>
<!DOCTYPE svg PUBLIC "-//W3C//DTD SVG 20010904//EN"
 "http://www.w3.org/TR/2001/REC-SVG-20010904/DTD/svg10.dtd">
<svg version="1.0" xmlns="http://www.w3.org/2000/svg"
 width="200.000000pt" height="200.000000pt" viewBox="0 0 200.000000 200.000000"
 preserveAspectRatio="xMidYMid meet">
<metadata>
Created by potrace 1.16, written by Peter Selinger 2001-2019
</metadata>
<g transform="translate(0.000000,200.000000) scale(0.100000,-0.100000)"
fill="#000000" stroke="none">
<path d="M412 1779 c-37 -11 -112 -81 -112 -104 0 -8 -17 -26 -38 -39 -46 -29
-72 -78 -72 -134 0 -69 49 -312 85 -418 40 -121 110 -274 156 -341 18 -26 57
-74 87 -105 l54 -57 -17 -50 c-16 -49 -13 -91 6 -91 5 0 9 -26 9 -57 0 -71 23
-119 69 -151 l35 -23 372 3 c357 3 374 4 401 24 15 11 37 39 48 62 l20 41 63
1 c53 0 67 4 87 25 14 13 25 30 25 37 0 7 5 64 10 127 7 90 13 118 28 135 17
18 22 47 31 184 12 159 10 202 -11 202 -6 0 -7 38 -3 113 7 106 9 113 36 139
35 32 39 78 9 108 -11 11 -24 20 -29 20 -5 0 -19 29 -32 65 -23 65 -23 65 -62
65 -35 0 -38 2 -31 23 21 68 20 67 79 67 47 0 57 3 71 25 15 23 15 27 0 50
-20 30 -51 39 -117 33 -73 -7 -99 -32 -130 -119 l-26 -74 -201 -3 -201 -2 -21
-58 c-13 -33 -34 -67 -52 -83 -41 -33 -42 -83 -2 -117 24 -21 27 -31 32 -113
l5 -89 -25 0 c-17 0 -27 7 -31 20 -3 11 -28 34 -57 52 -49 30 -52 34 -46 65
21 113 24 100 -34 153 l-53 49 23 61 c22 59 22 61 4 81 -11 12 -29 25 -40 29
-14 6 -24 21 -28 44 -9 46 -57 101 -100 116 -18 6 -57 10 -87 9 -30 -1 -76 1
-104 5 -27 3 -65 1 -83 -5z m156 -56 c44 -33 59 -71 87 -213 35 -182 59 -269
102 -369 42 -99 35 -114 -36 -72 -50 30 -52 36 -36 143 7 46 7 47 -44 101 -54
57 -59 76 -36 117 25 43 19 86 -18 127 -26 28 -42 36 -70 37 -21 1 -45 10 -59
23 -32 29 -62 43 -92 43 -14 0 -26 4 -26 8 0 13 53 60 80 71 37 16 117 7 148
-16z m122 2 c29 -15 60 -61 60 -88 0 -12 -26 -22 -67 -27 -4 -1 -12 16 -18 37
-6 21 -20 51 -29 66 -18 27 -18 27 3 27 12 0 35 -7 51 -15z m-279 -122 c36
-22 50 -62 78 -223 24 -136 64 -267 111 -362 l30 -60 -31 -63 c-26 -53 -30
-73 -28 -122 3 -41 -1 -65 -12 -81 l-17 -23 -42 48 c-49 56 -146 249 -189 378
-33 100 -81 342 -81 412 0 38 5 50 34 79 28 28 42 34 76 34 23 0 55 -8 71 -17z
m1278 -114 c6 -18 11 -36 11 -40 0 -5 -133 -9 -295 -9 -231 0 -293 3 -290 13
2 6 9 24 14 40 l11 27 269 0 269 0 11 -31z m21 -258 c0 -26 -3 -76 -6 -110
l-7 -62 -231 4 c-206 4 -331 17 -349 37 -2 3 -7 44 -10 93 l-6 87 304 0 305 0
0 -49z m-495 -195 c169 -45 262 -138 253 -257 l-3 -44 -425 0 -425 0 0 61 c0
50 5 68 28 103 46 69 164 132 287 151 69 11 219 4 285 -14z m455 -393 c-2 -74
-22 -238 -31 -249 -7 -9 -32 -14 -70 -14 -55 0 -59 1 -59 24 0 13 7 29 15 36
19 16 19 51 1 95 -13 31 -13 39 2 75 l17 40 63 0 c34 0 62 -3 62 -7z m-590
-163 l0 -70 -39 0 c-28 0 -49 8 -70 26 -48 40 -93 49 -143 26 -24 -10 -49 -26
-57 -35 -23 -28 -82 -21 -140 16 -43 27 -50 35 -45 57 11 50 11 50 260 50
l234 0 0 -70z m200 38 c0 -39 25 -68 58 -68 37 0 62 27 62 67 0 32 2 33 38 33
32 0 41 -5 50 -25 17 -36 15 -55 -5 -62 -10 -4 -31 -17 -46 -30 -40 -33 -91
-30 -146 7 -24 17 -52 30 -63 30 -14 0 -18 8 -18 40 0 39 1 40 35 40 33 0 35
-2 35 -32z"/>
</g>
</svg>
