<?xml version="1.0" standalone="no"?>
<!DOCTYPE svg PUBLIC "-//W3C//DTD SVG 20010904//EN"
 "http://www.w3.org/TR/2001/REC-SVG-20010904/DTD/svg10.dtd">
<svg version="1.0" xmlns="http://www.w3.org/2000/svg"
 width="200.000000pt" height="200.000000pt" viewBox="0 0 200.000000 200.000000"
 preserveAspectRatio="xMidYMid meet">
<metadata>
Created by potrace 1.16, written by Peter Selinger 2001-2019
</metadata>
<g transform="translate(0.000000,200.000000) scale(0.100000,-0.100000)"
fill="#000000" stroke="none">
<path d="M790 1684 c-237 -42 -457 -158 -581 -307 -194 -232 -195 -510 -3
-748 95 -119 239 -211 425 -273 138 -46 255 -60 426 -53 201 8 363 54 527 149
105 61 243 203 290 298 51 106 70 204 57 301 -20 148 -66 242 -174 356 -139
147 -319 236 -554 278 -106 18 -309 18 -413 -1z m320 -50 l36 -6 -37 -37 c-25
-25 -43 -55 -54 -94 -14 -48 -23 -62 -60 -87 -24 -16 -53 -42 -64 -56 -44 -56
-13 -126 65 -145 35 -9 50 -20 72 -53 34 -50 128 -101 217 -117 33 -6 71 -13
85 -16 20 -4 16 -8 -32 -27 -107 -44 -143 -72 -211 -163 -35 -49 -92 -119
-126 -156 -73 -81 -76 -102 -16 -125 22 -8 63 -32 90 -52 69 -52 101 -67 181
-83 l69 -14 -50 -11 c-265 -57 -531 -34 -725 60 l-65 32 39 4 c21 2 84 -4 140
-13 l103 -16 81 26 c65 21 82 30 82 45 0 31 -41 131 -55 137 -8 2 -41 -8 -74
-22 l-61 -28 -104 27 c-102 25 -107 26 -177 11 -83 -18 -96 -26 -101 -63 -4
-26 -7 -25 -72 43 -149 154 -198 358 -128 541 86 227 354 405 681 453 68 10
223 13 271 5z m229 -55 c79 -12 157 -45 176 -73 21 -29 19 -83 -4 -120 -21
-33 -41 -133 -41 -202 0 -27 -7 -51 -21 -68 -18 -23 -28 -26 -77 -26 -106 0
-218 48 -256 109 -23 36 -76 71 -109 71 -19 0 -41 26 -32 40 3 6 30 28 60 50
46 34 56 47 74 103 24 72 54 105 103 117 47 11 55 11 127 -1z m388 -224 c94
-106 143 -228 143 -355 0 -204 -125 -389 -345 -511 l-60 -33 42 46 c78 86 88
138 27 138 -22 0 -24 3 -18 28 21 84 17 79 82 103 33 12 62 52 62 87 0 11 12
45 26 75 55 121 43 154 -46 132 -62 -16 -210 -43 -210 -38 0 1 13 9 30 18 48
25 63 58 76 175 9 74 19 118 33 141 12 19 21 51 21 72 l0 38 46 -33 c26 -18
67 -55 91 -83z m-89 -373 c-13 -29 -38 -102 -42 -124 -5 -20 -15 -29 -43 -38
-53 -17 -72 -37 -85 -87 -6 -24 -13 -42 -17 -40 -16 8 -98 45 -115 51 -15 5
-16 9 -5 22 24 29 94 71 147 89 44 14 53 20 50 38 -8 57 -150 6 -243 -87 -46
-46 -63 -56 -102 -62 l-48 -7 26 34 c14 19 37 50 52 70 32 43 97 80 194 109
107 32 239 51 231 32z m-268 -317 c19 -10 54 -33 77 -52 41 -34 42 -35 26 -59
-29 -44 -93 -74 -159 -74 -32 0 -75 5 -95 10 -48 13 -135 75 -119 85 20 12
152 -5 202 -27 50 -21 68 -18 68 12 0 43 -126 84 -241 78 -38 -2 -69 -2 -69
-1 0 6 64 34 97 43 57 14 172 6 213 -15z m-720 -90 l98 -25 47 21 c39 17 49
19 56 8 14 -22 12 -24 -40 -41 -46 -14 -58 -14 -163 3 -82 13 -124 16 -153 9
-59 -14 -65 -12 -65 14 0 19 6 26 28 29 61 9 98 6 192 -18z"/>
<path d="M604 1551 c-144 -107 -370 -300 -378 -322 -18 -52 16 -113 71 -124
16 -4 156 -69 313 -145 157 -76 306 -148 332 -161 l48 -23 35 34 c19 19 35 40
35 48 0 7 -65 151 -145 320 -80 168 -145 315 -145 325 0 10 -13 32 -29 48 -39
39 -85 39 -137 0z m94 -43 c19 -19 14 -35 -24 -71 l-36 -33 31 -69 c41 -89 40
-98 -1 -81 -41 16 -79 7 -94 -22 -17 -34 -18 -34 -59 -2 -21 16 -44 30 -51 30
-7 0 -41 -22 -75 -50 -34 -27 -66 -50 -70 -50 -13 0 -40 32 -36 44 4 15 378
316 392 316 6 0 16 -5 23 -12z m92 -211 c26 -57 50 -117 52 -133 2 -25 -1 -29
-22 -32 -57 -6 -71 -14 -87 -46 -9 -19 -13 -41 -10 -50 9 -24 46 -20 58 7 8
19 18 22 64 23 46 0 55 -3 63 -22 8 -17 6 -25 -9 -41 -28 -28 -15 -56 23 -51
27 4 32 1 49 -40 11 -25 16 -49 12 -53 -4 -4 -86 30 -181 76 -170 83 -173 85
-159 106 9 12 13 28 10 35 -8 21 -50 17 -66 -7 -14 -20 -16 -20 -102 23 l-86
43 32 27 32 27 36 -25 c19 -13 45 -24 56 -24 27 0 65 27 65 46 0 16 26 19 35
4 12 -19 65 -11 90 15 31 31 31 53 0 115 -27 53 -32 80 -14 80 6 0 32 -47 59
-103z"/>
<path d="M215 1016 l-50 -43 39 -64 c61 -101 59 -99 145 -99 l76 0 50 -55 50
-55 110 -3 110 -2 20 78 c19 74 19 79 3 91 -10 7 -57 16 -105 20 l-86 6 -53
50 c-51 48 -55 50 -112 50 -56 0 -61 2 -86 35 -15 19 -35 35 -44 35 -10 0 -40
-20 -67 -44z m178 -96 c59 0 63 -1 108 -46 46 -45 47 -46 128 -51 82 -6 87 -9
72 -48 -7 -18 -16 -20 -77 -17 l-69 3 -52 57 -51 57 -80 3 -79 4 -23 39 c-18
32 -19 43 -9 55 10 13 16 10 41 -21 28 -33 33 -35 91 -35z"/>
<path d="M1225 1516 c-64 -29 -95 -84 -95 -172 0 -102 42 -140 157 -138 68 1
101 17 130 61 23 34 24 145 3 188 -33 65 -122 93 -195 61z m120 -71 c21 -20
25 -34 25 -84 0 -78 -13 -91 -90 -91 -72 0 -90 15 -90 75 0 58 16 90 54 109
44 22 73 20 101 -9z"/>
<path d="M1259 1417 c-26 -17 -34 -30 -34 -52 0 -43 28 -43 71 1 29 28 35 40
27 52 -15 24 -27 24 -64 -1z"/>
</g>
</svg>
