<?xml version="1.0" standalone="no"?>
<!DOCTYPE svg PUBLIC "-//W3C//DTD SVG 20010904//EN"
 "http://www.w3.org/TR/2001/REC-SVG-20010904/DTD/svg10.dtd">
<svg version="1.0" xmlns="http://www.w3.org/2000/svg"
 width="200.000000pt" height="200.000000pt" viewBox="0 0 200.000000 200.000000"
 preserveAspectRatio="xMidYMid meet">
<metadata>
Created by potrace 1.16, written by Peter Selinger 2001-2019
</metadata>
<g transform="translate(0.000000,200.000000) scale(0.100000,-0.100000)"
fill="#000000" stroke="none">
<path d="M790 1684 c-310 -56 -556 -217 -666 -436 -102 -203 -79 -407 71 -605
41 -56 148 -153 168 -153 4 0 5 28 1 63 -8 77 -4 81 95 102 70 15 75 14 177
-11 l104 -27 61 28 c33 14 66 24 74 22 14 -6 55 -106 55 -137 0 -15 -17 -24
-81 -45 l-80 -25 -117 17 c-105 15 -125 15 -192 2 l-75 -15 95 -46 c182 -90
351 -124 574 -115 291 12 512 102 692 281 105 105 154 191 180 316 48 234 -81
488 -328 640 l-48 30 20 -37 c27 -51 27 -127 -1 -172 -14 -23 -24 -64 -31
-130 -12 -116 -21 -144 -62 -178 l-31 -26 35 7 c19 3 67 11 105 17 39 6 78 15
88 21 13 6 23 5 34 -3 19 -17 12 -62 -21 -136 -14 -30 -26 -64 -26 -75 0 -35
-29 -75 -62 -87 -57 -22 -62 -26 -74 -76 -14 -55 -12 -65 14 -58 10 2 24 -3
31 -11 32 -38 -92 -174 -182 -201 -62 -18 -97 -19 -162 -1 -63 16 -86 28 -150
76 -27 20 -68 44 -90 52 -58 22 -57 46 3 110 27 29 82 96 122 148 41 52 83
103 95 113 28 24 90 57 150 78 l49 17 -49 7 c-136 18 -255 74 -292 137 -16 27
-31 38 -66 46 -79 20 -110 89 -66 146 11 14 40 40 64 56 37 25 46 39 60 87 32
111 113 160 250 150 88 -6 60 6 -80 33 -124 24 -317 26 -435 4z m-49 -133 c16
-16 29 -38 29 -48 0 -10 65 -157 145 -325 80 -169 145 -312 145 -319 0 -14
-59 -79 -72 -79 -4 0 -153 71 -332 159 -178 87 -340 161 -360 165 -58 11 -94
85 -66 137 9 17 323 276 390 321 39 28 87 23 121 -11z m-478 -511 c32 -38 37
-40 92 -40 56 0 60 -2 109 -48 l51 -49 90 -7 c117 -9 121 -13 99 -102 -9 -38
-22 -74 -28 -81 -8 -9 -36 -10 -116 -2 l-105 10 -50 54 -50 55 -79 2 -80 3
-45 73 c-35 58 -43 77 -34 90 12 20 91 82 103 82 5 0 24 -18 43 -40z"/>
<path d="M475 1368 c-104 -84 -190 -158 -192 -164 -4 -12 23 -44 36 -44 4 0
36 23 70 50 34 28 68 50 75 50 7 0 30 -14 51 -30 41 -32 42 -32 59 2 13 26 72
36 106 18 29 -15 26 4 -12 85 l-31 67 36 35 c21 19 37 40 37 47 0 15 -20 36
-35 36 -6 0 -96 -69 -200 -152z"/>
<path d="M720 1385 c0 -9 11 -38 25 -65 31 -62 31 -84 0 -115 -25 -26 -78 -34
-90 -15 -9 15 -35 12 -35 -4 0 -20 -39 -46 -68 -46 -13 0 -38 11 -56 25 l-32
25 -33 -28 -32 -27 86 -43 c86 -43 88 -43 102 -23 16 24 58 28 66 7 3 -7 -1
-23 -10 -35 -14 -21 -11 -23 159 -106 95 -46 177 -80 181 -76 4 4 -1 28 -12
53 -17 41 -21 44 -50 40 -40 -6 -53 21 -23 50 16 16 18 25 10 42 -8 19 -17 22
-63 22 -46 -1 -56 -4 -64 -23 -12 -26 -49 -31 -57 -8 -8 21 15 74 37 85 10 6
31 10 48 10 28 0 31 3 31 30 0 34 -94 240 -109 240 -6 0 -11 -7 -11 -15z"/>
<path d="M193 989 c-8 -8 -4 -23 15 -55 l27 -44 77 0 76 0 49 -55 48 -56 74
-2 c73 -2 74 -1 81 25 9 31 -6 38 -88 38 -50 0 -56 3 -106 50 -52 50 -53 50
-119 50 -62 0 -67 2 -87 30 -23 33 -30 36 -47 19z"/>
<path d="M1212 1581 c-49 -13 -79 -46 -103 -118 -18 -56 -28 -69 -74 -103 -30
-22 -57 -44 -60 -50 -9 -14 13 -40 32 -40 33 0 86 -35 109 -71 37 -59 152
-109 256 -111 44 -1 54 2 75 26 16 19 23 40 23 69 0 70 20 170 41 203 27 44
25 99 -4 128 -49 49 -215 87 -295 67z m159 -74 c47 -31 63 -70 64 -147 0 -108
-43 -153 -148 -154 -75 -1 -123 17 -142 55 -17 33 -20 125 -4 166 34 91 153
132 230 80z"/>
<path d="M1241 1456 c-34 -19 -50 -54 -51 -107 0 -62 20 -79 93 -79 75 0 87
13 87 96 0 51 -4 68 -20 84 -23 23 -73 26 -109 6z m82 -38 c8 -12 2 -24 -27
-52 -43 -44 -71 -44 -71 -1 0 22 8 35 34 52 37 25 49 25 64 1z"/>
<path d="M1559 984 c-172 -27 -298 -79 -346 -143 -15 -20 -38 -51 -52 -70
l-26 -34 48 7 c39 6 56 16 102 62 92 93 235 144 243 88 3 -18 -6 -24 -49 -39
-53 -17 -124 -60 -148 -89 -11 -13 -10 -17 5 -22 17 -6 99 -43 115 -51 4 -2
11 16 17 40 13 50 32 70 84 86 37 12 48 27 48 62 0 11 9 38 21 60 11 22 19 44
17 48 -2 3 -37 1 -79 -5z"/>
<path d="M1157 680 c-33 -9 -97 -37 -97 -43 0 -1 31 -1 69 1 115 6 241 -35
241 -78 0 -30 -18 -33 -68 -12 -50 22 -182 39 -202 27 -16 -10 73 -72 124 -86
74 -20 138 -16 188 14 25 14 52 37 61 50 15 23 14 25 -26 59 -23 19 -58 43
-77 53 -41 21 -156 29 -213 15z"/>
<path d="M458 593 c-22 -3 -28 -10 -28 -29 0 -26 6 -28 65 -14 29 7 71 4 153
-9 105 -17 117 -17 163 -3 52 17 54 19 40 41 -7 11 -17 9 -56 -8 l-47 -21 -98
25 c-94 24 -131 27 -192 18z"/>
</g>
</svg>
