<?xml version="1.0" standalone="no"?>
<!DOCTYPE svg PUBLIC "-//W3C//DTD SVG 20010904//EN"
 "http://www.w3.org/TR/2001/REC-SVG-20010904/DTD/svg10.dtd">
<svg version="1.0" xmlns="http://www.w3.org/2000/svg"
 width="200.000000pt" height="200.000000pt" viewBox="0 0 200.000000 200.000000"
 preserveAspectRatio="xMidYMid meet">
<metadata>
Created by potrace 1.16, written by Peter Selinger 2001-2019
</metadata>
<g transform="translate(0.000000,200.000000) scale(0.100000,-0.100000)"
fill="#000000" stroke="none">
<path d="M902 1860 c-300 -41 -541 -212 -672 -475 -69 -137 -90 -227 -90 -380
0 -96 5 -143 24 -217 82 -322 334 -564 660 -635 92 -20 261 -20 355 1 330 73
583 323 662 653 18 75 20 108 16 223 -6 155 -21 217 -81 345 -108 227 -317
399 -560 460 -108 27 -227 37 -314 25z m263 -55 c73 -16 221 -71 231 -86 5 -9
-134 -209 -146 -209 -4 0 -17 39 -30 88 -24 93 -44 128 -59 103 -5 -8 3 -56
21 -123 17 -62 27 -121 24 -134 -6 -22 -11 -24 -67 -24 -72 0 -106 -14 -88
-36 6 -8 18 -14 25 -14 10 0 14 -13 14 -45 0 -37 -8 -56 -47 -110 -26 -36 -50
-65 -55 -65 -17 0 -20 31 -5 48 22 25 26 66 6 70 -11 2 -24 -11 -38 -38 -25
-49 -26 -63 -5 -100 17 -27 16 -28 -50 -118 l-67 -91 -57 -5 c-160 -17 -253
-30 -312 -45 l-65 -16 -3 -52 c-5 -95 47 -170 149 -215 16 -7 29 -16 29 -20 0
-15 -116 -167 -127 -168 -18 0 -118 124 -159 196 -194 346 -110 793 194 1038
111 90 250 154 380 176 78 13 233 11 307 -5z m328 -148 l28 -19 -48 -66 c-134
-191 -888 -1229 -902 -1244 -16 -17 -18 -17 -54 8 -23 15 -35 30 -30 37 6 11
690 957 878 1215 50 67 80 100 88 96 6 -4 24 -16 40 -27z m117 -104 c67 -77
135 -196 171 -301 32 -93 33 -103 33 -252 0 -149 -1 -159 -32 -250 -92 -264
-277 -449 -537 -535 -106 -36 -283 -45 -397 -22 -81 17 -234 72 -243 88 -4 5
33 63 80 129 l87 120 74 0 c86 0 204 22 270 50 40 17 69 20 220 20 131 0 176
3 179 13 3 9 45 701 45 747 0 6 6 10 14 10 7 0 19 6 25 14 19 22 -4 30 -97 36
l-82 5 62 87 c35 48 68 88 75 88 6 0 30 -21 53 -47z m-460 -187 c0 -3 -4 -8
-10 -11 -5 -3 -10 -1 -10 4 0 6 5 11 10 11 6 0 10 -2 10 -4z m365 -73 c-7 -89
-35 -587 -35 -620 0 -23 -2 -23 -125 -23 l-125 0 21 39 c15 30 19 54 17 102
l-3 64 -51 14 -52 13 -7 84 -7 84 117 160 116 160 70 0 70 0 -6 -77z m-400
-393 c-4 -7 -65 -1 -65 6 0 3 12 23 27 46 l28 41 7 -43 c4 -23 6 -46 3 -50z
m-331 -42 c-29 -52 -43 -55 -187 -37 -99 13 -98 23 4 37 101 15 192 14 183 0z
m359 -17 c5 -5 -28 -14 -73 -20 -45 -7 -84 -11 -86 -9 -2 2 4 15 13 27 14 21
20 23 77 16 33 -3 65 -10 69 -14z m-568 -57 c149 -24 144 -17 85 -99 -28 -38
-54 -71 -59 -73 -15 -5 -104 44 -129 70 -22 25 -42 76 -42 112 0 14 5 17 23
12 12 -4 67 -13 122 -22z m655 -9 c0 -78 -64 -137 -190 -176 -70 -22 -230 -38
-230 -23 0 5 29 48 65 96 62 84 65 87 112 93 26 3 89 14 138 24 50 10 93 19
98 20 4 0 7 -15 7 -34z"/>
<path d="M694 1253 c-3 -10 -12 -30 -20 -45 -18 -33 -18 -59 1 -84 19 -25 19
-58 -1 -74 -17 -15 -15 -65 3 -65 18 0 53 73 53 109 0 16 -8 38 -17 48 -16 18
-16 21 0 47 22 37 22 81 2 81 -9 0 -18 -8 -21 -17z"/>
<path d="M830 1251 c0 -10 -7 -24 -15 -31 -8 -7 -15 -29 -15 -50 0 -21 7 -43
15 -50 19 -16 19 -44 -1 -60 -9 -8 -14 -25 -12 -43 3 -35 25 -48 34 -20 3 10
12 30 20 45 19 35 18 64 -3 99 -16 27 -16 31 0 58 24 40 22 71 -3 71 -13 0
-20 -7 -20 -19z"/>
</g>
</svg>
