<?xml version="1.0" standalone="no"?>
<!DOCTYPE svg PUBLIC "-//W3C//DTD SVG 20010904//EN"
 "http://www.w3.org/TR/2001/REC-SVG-20010904/DTD/svg10.dtd">
<svg version="1.0" xmlns="http://www.w3.org/2000/svg"
 width="200.000000pt" height="200.000000pt" viewBox="0 0 200.000000 200.000000"
 preserveAspectRatio="xMidYMid meet">
<metadata>
Created by potrace 1.16, written by Peter Selinger 2001-2019
</metadata>
<g transform="translate(0.000000,200.000000) scale(0.100000,-0.100000)"
fill="#000000" stroke="none">
<path d="M848 1860 c-247 -44 -466 -199 -599 -421 -169 -283 -157 -653 31
-929 44 -64 118 -150 130 -150 4 0 38 41 74 92 l66 92 -47 24 c-55 27 -108 74
-129 114 -11 22 -21 168 -11 168 1 0 56 11 122 25 66 14 168 28 227 31 l106 7
72 98 c68 95 70 100 56 121 -9 12 -16 35 -16 50 0 34 38 108 55 108 24 0 25
-32 4 -70 -16 -27 -19 -42 -12 -55 9 -15 19 -5 67 61 51 72 56 83 54 124 -3
38 -6 45 -26 48 -15 2 -22 9 -20 20 3 14 17 18 73 20 55 2 73 7 87 22 15 19
14 28 -18 147 -20 77 -30 131 -25 136 20 20 37 -3 54 -69 10 -38 23 -86 28
-108 l10 -38 76 103 c42 57 80 110 86 116 12 16 -92 66 -196 95 -81 22 -300
33 -379 18z m11 -595 c2 -11 -5 -34 -15 -53 -17 -31 -17 -35 -1 -62 21 -34 21
-78 2 -104 -8 -11 -15 -28 -15 -38 0 -24 -29 -35 -41 -17 -12 18 -2 59 18 81
15 16 14 22 -8 63 l-24 44 29 56 c28 55 48 66 55 30z m-143 1 c3 -8 -4 -32
-15 -53 -19 -39 -19 -40 0 -69 24 -37 24 -61 -1 -99 -11 -16 -20 -38 -20 -48
0 -27 -34 -17 -38 11 -2 13 4 34 12 47 20 30 20 54 1 79 -21 27 -19 58 6 106
21 40 45 52 55 26z"/>
<path d="M1394 1633 c-39 -54 -259 -359 -490 -678 -231 -319 -428 -592 -438
-607 l-17 -27 41 -27 c24 -16 44 -23 49 -18 5 5 85 115 178 244 93 129 311
431 484 670 174 239 323 447 332 461 17 26 17 26 -21 53 -21 14 -40 26 -43 26
-3 0 -37 -44 -75 -97z"/>
<path d="M1512 1543 l-70 -98 97 -5 c79 -4 96 -8 99 -22 2 -11 -5 -18 -20 -20
l-23 -3 -22 -395 c-13 -217 -25 -401 -28 -407 -3 -10 -50 -13 -186 -13 -170 0
-187 -2 -243 -24 -83 -33 -200 -56 -288 -56 l-73 0 -55 -78 c-30 -42 -72 -100
-93 -129 l-37 -52 62 -29 c240 -113 530 -108 773 16 197 99 372 317 435 542
62 220 20 500 -102 690 -41 65 -136 180 -148 180 -4 0 -39 -44 -78 -97z"/>
<path d="M1147 1393 c-4 -3 -7 -11 -7 -17 0 -6 5 -5 12 2 6 6 9 14 7 17 -3 3
-9 2 -12 -2z"/>
<path d="M1372 1348 c-225 -302 -219 -290 -206 -415 l6 -60 57 -14 56 -14 0
-75 c0 -62 -4 -81 -22 -107 -13 -17 -23 -34 -23 -37 0 -3 59 -6 130 -6 96 0
132 3 135 13 7 22 45 749 39 758 -3 5 -34 9 -69 9 l-64 0 -39 -52z"/>
<path d="M1081 946 c-32 -46 -29 -56 20 -56 16 0 19 7 19 50 0 28 -2 50 -5 50
-2 0 -18 -20 -34 -44z"/>
<path d="M725 864 c-11 -1 -66 -8 -123 -14 -56 -7 -104 -16 -107 -20 -4 -7 56
-18 186 -35 44 -5 47 -4 73 29 36 48 36 50 -29 40z"/>
<path d="M997 830 l-18 -30 28 0 c15 1 57 7 93 14 l65 12 -40 11 c-96 26 -109
26 -128 -7z"/>
<path d="M400 762 c0 -64 58 -130 151 -169 25 -11 29 -8 87 72 l61 83 -52 7
c-55 6 -200 33 -229 41 -15 5 -18 -1 -18 -34z"/>
<path d="M1175 784 c-27 -7 -92 -19 -144 -26 l-94 -13 -69 -92 c-37 -51 -68
-98 -68 -104 0 -7 24 -9 78 -4 233 20 372 109 372 238 0 20 -8 20 -75 1z"/>
</g>
</svg>
