<?xml version="1.0" standalone="no"?>
<!DOCTYPE svg PUBLIC "-//W3C//DTD SVG 20010904//EN"
 "http://www.w3.org/TR/2001/REC-SVG-20010904/DTD/svg10.dtd">
<svg version="1.0" xmlns="http://www.w3.org/2000/svg"
 width="200.000000pt" height="200.000000pt" viewBox="0 0 200.000000 200.000000"
 preserveAspectRatio="xMidYMid meet">
<metadata>
Created by potrace 1.16, written by Peter Selinger 2001-2019
</metadata>
<g transform="translate(0.000000,200.000000) scale(0.100000,-0.100000)"
fill="#000000" stroke="none">
<path d="M879 1960 c-95 -12 -182 -37 -278 -81 -418 -193 -641 -636 -546
-1087 72 -343 332 -622 681 -728 82 -26 102 -28 264 -28 162 0 181 2 263 27
282 87 496 270 617 530 233 499 -8 1102 -522 1306 -137 54 -336 79 -479 61z
m311 -80 c187 -42 314 -112 450 -249 164 -166 242 -334 265 -577 9 -84 -7
-216 -36 -312 -12 -37 -23 -69 -24 -71 -7 -7 -395 222 -395 233 0 6 7 65 15
131 20 166 19 217 -4 246 l-18 24 68 118 c66 113 80 149 60 161 -5 4 -44 13
-86 22 -57 12 -79 13 -90 4 -7 -6 -33 -45 -56 -85 -23 -41 -44 -74 -45 -72 -2
2 3 27 11 57 8 30 15 63 15 73 0 21 -134 110 -158 105 -12 -2 -26 -36 -49
-118 l-32 -115 0 91 c-1 60 -5 95 -13 102 -22 17 -155 55 -172 49 -10 -4 -16
-18 -16 -40 l0 -33 -91 -18 c-60 -12 -93 -24 -96 -34 -4 -8 9 -43 27 -77 32
-59 33 -62 20 -113 -12 -54 -24 -70 -35 -52 -4 6 -23 68 -44 138 l-37 127 -87
3 c-101 3 -106 -1 -89 -76 6 -26 9 -48 8 -50 -2 -1 -40 19 -85 44 l-83 47 69
69 c138 140 311 228 513 261 72 12 240 5 320 -13z m-180 -379 l-1 -106 -34 60
c-28 49 -35 70 -35 117 l0 56 35 -11 35 -10 0 -106z m220 81 l23 -18 -59 -223
c-51 -193 -62 -225 -82 -234 -17 -8 -26 -7 -37 4 -13 12 -7 43 46 239 33 124
62 231 64 238 6 17 19 15 45 -6z m-296 -184 c80 -140 87 -156 81 -193 -3 -21
-8 -41 -11 -44 -9 -10 -34 27 -133 199 -95 166 -99 175 -78 182 49 14 53 10
141 -144z m563 138 c3 -2 -23 -52 -57 -109 -56 -96 -64 -106 -93 -109 -28 -3
-36 -11 -60 -58 -28 -55 -62 -98 -71 -89 -3 3 37 79 90 170 133 229 121 212
157 205 17 -3 32 -8 34 -10z m-900 -73 c13 -42 21 -79 19 -81 -6 -5 -61 25
-73 40 -8 11 -33 94 -33 112 0 3 15 6 33 6 32 0 32 -1 54 -77z m-177 -48 c58
-34 186 -108 285 -165 99 -57 221 -128 270 -157 50 -29 260 -150 467 -269
l378 -216 -28 -49 c-57 -103 -34 -104 -238 14 -564 327 -721 418 -1029 595
-187 107 -342 196 -344 198 -5 5 13 47 45 102 l25 42 32 -16 c17 -10 79 -45
137 -79z m448 -181 c-6 -5 -88 47 -88 56 0 5 5 21 10 36 l11 28 35 -58 c19
-32 33 -60 32 -62z m-563 -14 c61 -35 113 -67 116 -73 4 -5 10 -46 14 -91 9
-103 48 -347 74 -457 38 -158 89 -277 131 -299 11 -6 130 -10 305 -10 228 0
292 3 313 14 36 18 73 88 107 198 15 49 29 88 30 88 7 0 281 -162 290 -172 14
-14 -99 -117 -200 -183 -201 -131 -430 -171 -682 -119 -336 69 -615 351 -689
697 -28 131 -15 365 27 474 9 23 11 24 32 11 12 -8 72 -43 132 -78z m1099 27
c17 -13 18 -21 6 -133 -6 -66 -15 -134 -18 -151 l-7 -31 -109 63 -109 64 50
30 c51 31 98 83 127 139 18 35 32 39 60 19z m-686 -267 l164 -94 -49 -21 c-52
-23 -99 -71 -109 -111 -6 -23 -9 -24 -94 -24 l-87 0 -6 43 c-4 23 -13 87 -21
142 -8 55 -17 122 -20 148 l-6 49 33 -19 c17 -11 106 -61 195 -113z m323 -187
c81 -44 98 -72 76 -125 -20 -47 -58 -74 -121 -89 -70 -15 -152 7 -190 52 -56
66 -20 155 72 183 70 22 88 19 163 -21z m225 -129 c35 -20 64 -41 64 -47 0
-24 -39 -149 -64 -202 l-25 -55 -290 0 -291 0 -20 39 c-18 37 -59 166 -75 239
l-7 32 76 0 c75 0 76 0 92 -32 39 -79 126 -128 224 -128 109 0 220 74 236 157
3 18 8 33 11 33 3 0 34 -16 69 -36z"/>
</g>
</svg>
