<?xml version="1.0" standalone="no"?>
<!DOCTYPE svg PUBLIC "-//W3C//DTD SVG 20010904//EN"
 "http://www.w3.org/TR/2001/REC-SVG-20010904/DTD/svg10.dtd">
<svg version="1.0" xmlns="http://www.w3.org/2000/svg"
 width="200.000000pt" height="200.000000pt" viewBox="0 0 200.000000 200.000000"
 preserveAspectRatio="xMidYMid meet">
<metadata>
Created by potrace 1.16, written by Peter Selinger 2001-2019
</metadata>
<g transform="translate(0.000000,200.000000) scale(0.100000,-0.100000)"
fill="#000000" stroke="none">
<path d="M270 1787 c-13 -7 -35 -28 -47 -46 l-23 -35 2 -718 3 -718 33 -32 32
-33 455 -3 c503 -3 496 -4 535 61 19 31 20 55 20 735 0 776 3 742 -63 782 -30
19 -53 20 -477 20 -336 0 -451 -3 -470 -13z m941 -56 l29 -30 -2 -711 -3 -712
-24 -19 c-22 -18 -45 -19 -473 -19 l-449 0 -24 25 -25 24 0 708 c1 541 4 712
13 724 29 37 43 38 490 39 l439 0 29 -29z"/>
<path d="M503 1625 c-31 -13 -63 -59 -63 -90 0 -32 32 -77 65 -91 26 -10 84
-14 237 -14 173 0 208 3 238 18 75 37 73 145 -4 177 -49 21 -426 21 -473 0z
m472 -50 c14 -13 25 -31 25 -40 0 -9 -11 -27 -25 -40 -24 -25 -24 -25 -235
-25 -211 0 -211 0 -235 25 -14 13 -25 31 -25 40 0 9 11 27 25 40 24 25 24 25
235 25 211 0 211 0 235 -25z"/>
<path d="M698 1269 c-13 -17 -49 -44 -81 -60 -147 -75 -230 -245 -207 -425 16
-123 54 -201 135 -272 26 -22 65 -48 88 -57 26 -10 49 -27 59 -45 24 -42 72
-42 96 -1 9 17 36 38 63 51 97 43 178 144 209 258 31 118 1 289 -66 379 -45
60 -65 76 -134 112 -30 16 -65 43 -78 60 -12 17 -31 31 -42 31 -11 0 -30 -14
-42 -31z m69 -43 c13 -21 32 -35 51 -39 41 -8 112 -65 148 -118 68 -102 85
-255 42 -377 -29 -82 -95 -158 -171 -195 -30 -15 -65 -39 -76 -54 l-21 -28
-21 28 c-11 15 -45 39 -74 52 -108 52 -178 154 -195 286 -24 192 63 350 223
409 15 5 36 23 45 40 9 16 19 30 22 30 3 0 15 -15 27 -34z"/>
<path d="M607 1002 c-38 -42 -63 -172 -33 -172 16 0 26 21 26 54 0 13 11 44
25 70 32 60 20 90 -18 48z"/>
<path d="M1718 1764 c-174 -131 -288 -440 -305 -827 -5 -113 -4 -141 8 -148 8
-5 44 -9 82 -9 l67 0 0 -254 c0 -237 1 -255 20 -278 45 -57 125 -61 176 -7
l29 30 0 762 c0 669 -2 762 -15 764 -8 2 -36 -13 -62 -33z m42 -479 l0 -455
-155 0 -155 0 0 59 c0 169 43 412 99 556 36 93 115 219 166 264 20 17 38 31
40 31 3 0 5 -205 5 -455z m0 -749 c0 -217 -2 -246 -17 -265 -27 -32 -73 -37
-106 -11 l-27 21 0 250 0 249 75 0 75 0 0 -244z"/>
</g>
</svg>
