<?xml version="1.0" standalone="no"?>
<!DOCTYPE svg PUBLIC "-//W3C//DTD SVG 20010904//EN"
 "http://www.w3.org/TR/2001/REC-SVG-20010904/DTD/svg10.dtd">
<svg version="1.0" xmlns="http://www.w3.org/2000/svg"
 width="200.000000pt" height="200.000000pt" viewBox="0 0 200.000000 200.000000"
 preserveAspectRatio="xMidYMid meet">
<metadata>
Created by potrace 1.16, written by Peter Selinger 2001-2019
</metadata>
<g transform="translate(0.000000,200.000000) scale(0.100000,-0.100000)"
fill="#000000" stroke="none">
<path d="M440 1881 c-141 -46 -239 -151 -297 -316 -25 -72 -27 -93 -27 -215 0
-200 43 -330 137 -417 54 -49 89 -69 159 -87 l53 -13 5 -345 c5 -361 7 -378
50 -378 38 0 40 18 42 375 l3 348 52 13 c152 39 247 145 289 321 22 92 22 268
0 353 -55 214 -201 357 -373 366 -38 2 -79 0 -93 -5z m147 -96 c60 -18 139
-84 176 -148 100 -171 94 -458 -13 -605 -47 -65 -108 -95 -205 -100 -111 -6
-173 15 -235 78 -58 57 -86 127 -102 256 -31 248 71 465 244 519 57 18 75 18
135 0z"/>
<path d="M1091 1876 c-9 -10 -11 -113 -9 -377 l3 -364 32 -67 c17 -37 52 -88
78 -113 49 -49 146 -101 208 -111 l37 -7 0 -348 0 -349 25 -12 c21 -10 29 -9
43 6 15 15 18 53 22 358 l5 342 39 8 c110 23 224 119 279 236 l32 67 3 356 c3
319 2 358 -13 373 -20 19 -49 21 -63 3 -7 -8 -12 -133 -14 -357 l-3 -345 -28
-57 c-112 -227 -437 -237 -561 -18 l-31 55 -5 351 c-5 368 -7 384 -50 384 -10
0 -23 -6 -29 -14z"/>
<path d="M1452 1878 c-9 -9 -12 -96 -12 -329 0 -175 3 -324 6 -333 9 -23 61
-21 74 3 6 12 10 135 10 329 0 287 -1 310 -18 325 -22 20 -43 22 -60 5z"/>
</g>
</svg>
