<?xml version="1.0" standalone="no"?>
<!DOCTYPE svg PUBLIC "-//W3C//DTD SVG 20010904//EN"
 "http://www.w3.org/TR/2001/REC-SVG-20010904/DTD/svg10.dtd">
<svg version="1.0" xmlns="http://www.w3.org/2000/svg"
 width="200.000000pt" height="200.000000pt" viewBox="0 0 200.000000 200.000000"
 preserveAspectRatio="xMidYMid meet">
<metadata>
Created by potrace 1.16, written by Peter Selinger 2001-2019
</metadata>
<g transform="translate(0.000000,200.000000) scale(0.100000,-0.100000)"
fill="#000000" stroke="none">
<path d="M403 1779 c-159 -61 -240 -287 -131 -363 14 -10 44 -16 80 -16 l58 0
0 -78 c0 -71 2 -81 25 -102 20 -19 37 -24 77 -24 43 0 54 4 75 28 21 25 24 37
22 100 l-2 71 59 5 c102 9 129 40 122 137 -14 191 -205 311 -385 242z m181
-30 c53 -15 138 -100 154 -155 7 -23 12 -60 12 -82 0 -55 -25 -72 -105 -72
-34 0 -66 -5 -72 -11 -7 -7 -9 -38 -6 -88 7 -91 -2 -104 -69 -99 l-43 3 -5 95
-5 95 -70 3 c-111 5 -137 45 -98 157 41 121 178 190 307 154z"/>
<path d="M950 1793 c-59 -24 -109 -95 -110 -154 0 -41 42 -110 80 -130 78 -42
183 -11 220 66 11 23 20 52 20 66 -1 40 -36 104 -70 129 -32 23 -109 36 -140
23z m126 -64 c56 -53 52 -143 -10 -180 -41 -25 -106 -25 -139 1 -30 24 -51 81
-43 114 8 31 44 76 70 87 33 14 96 3 122 -22z"/>
<path d="M1397 1783 c-104 -35 -187 -147 -188 -255 -1 -91 37 -128 131 -128
l50 0 0 -74 c0 -64 3 -79 24 -102 20 -24 31 -28 74 -28 40 0 57 5 77 24 23 21
25 31 25 102 l0 78 49 0 c67 0 97 13 122 52 16 27 19 43 14 83 -24 192 -200
307 -378 248z m220 -59 c59 -36 108 -114 118 -185 6 -44 4 -54 -15 -74 -19
-20 -34 -25 -94 -27 l-71 -3 -5 -95 -5 -95 -43 -3 c-67 -5 -76 8 -69 99 3 50
1 81 -6 88 -6 6 -39 11 -73 11 -84 0 -107 18 -106 85 4 180 215 294 369 199z"/>
<path d="M920 1348 c-56 -39 -75 -73 -74 -134 0 -61 19 -94 74 -131 87 -60
217 0 235 107 9 52 -25 125 -74 157 -46 31 -116 31 -161 1z m154 -49 c43 -37
54 -81 33 -132 -30 -70 -134 -92 -187 -39 -107 107 41 271 154 171z"/>
<path d="M399 962 c-175 -183 -228 -319 -182 -462 18 -56 82 -135 137 -169 18
-11 56 -25 84 -31 51 -11 51 -12 54 -53 4 -58 32 -59 36 -1 3 41 3 41 61 57
102 28 185 110 212 207 28 99 4 205 -74 322 -51 77 -196 228 -218 228 -9 0
-59 -44 -110 -98z m186 -19 c161 -166 222 -325 171 -448 -25 -59 -91 -122
-154 -145 -29 -11 -57 -20 -62 -20 -6 0 -10 22 -10 49 0 46 2 49 29 54 33 7
101 62 101 82 0 23 -22 29 -36 10 -17 -23 -65 -55 -81 -55 -9 0 -13 22 -13 79
0 70 2 80 19 86 30 9 71 45 71 61 0 20 -28 17 -58 -7 l-27 -21 -5 78 c-4 65
-8 79 -22 82 -16 3 -18 -6 -18 -77 0 -45 -4 -81 -9 -81 -4 0 -20 9 -34 20 -30
23 -47 26 -47 6 0 -17 56 -66 76 -66 11 0 14 -17 14 -80 0 -73 -2 -80 -20 -80
-11 0 -37 16 -59 35 -32 29 -40 33 -50 21 -17 -20 47 -83 94 -92 34 -6 35 -7
35 -55 0 -27 -4 -49 -10 -49 -23 0 -110 39 -142 64 -47 35 -88 114 -95 181 -7
69 14 137 72 226 49 76 171 209 191 209 7 0 43 -30 79 -67z"/>
<path d="M1413 998 c-121 -117 -205 -249 -224 -354 -28 -150 86 -317 234 -342
41 -7 42 -9 47 -52 7 -61 34 -63 38 -3 3 37 7 44 30 49 142 30 242 136 259
271 7 67 -23 168 -77 251 -46 72 -206 242 -227 242 -8 0 -44 -28 -80 -62z
m139 -35 c78 -82 140 -165 172 -233 42 -88 43 -180 3 -257 -36 -69 -105 -121
-185 -138 l-33 -7 3 48 c3 44 6 48 36 59 19 6 50 26 69 44 27 26 32 35 22 47
-10 12 -18 8 -50 -21 -22 -19 -48 -35 -59 -35 -18 0 -20 7 -20 80 0 63 3 80
14 80 20 0 76 49 76 66 0 20 -17 17 -47 -6 -14 -11 -30 -20 -34 -20 -5 0 -9
36 -9 80 0 73 -2 80 -20 80 -17 0 -19 -8 -22 -81 l-3 -81 -27 21 c-30 24 -58
27 -58 7 0 -16 41 -52 71 -61 17 -6 19 -16 19 -86 0 -49 -4 -79 -11 -79 -19 0
-54 22 -75 47 -22 25 -44 24 -44 -2 0 -20 68 -75 101 -82 27 -5 29 -8 29 -55
l0 -50 -32 7 c-126 27 -212 135 -212 265 0 74 20 126 82 217 47 68 166 193
185 193 7 0 33 -21 59 -47z"/>
<path d="M920 918 c-56 -39 -75 -73 -74 -134 0 -61 19 -94 74 -131 87 -60 217
0 235 107 9 52 -25 125 -74 157 -46 31 -116 31 -161 1z m158 -52 c33 -30 37
-40 37 -81 0 -41 -4 -51 -37 -81 -43 -39 -91 -45 -139 -17 -55 32 -73 116 -36
163 47 60 119 67 175 16z"/>
<path d="M940 503 c-29 -10 -80 -67 -91 -100 -35 -108 69 -222 182 -199 77 15
137 101 124 177 -8 45 -43 93 -86 114 -27 15 -99 19 -129 8z m127 -53 c63 -38
66 -125 6 -182 -35 -33 -111 -33 -146 0 -57 54 -57 137 0 181 33 27 97 27 140
1z"/>
</g>
</svg>
