<?xml version="1.0" standalone="no"?>
<!DOCTYPE svg PUBLIC "-//W3C//DTD SVG 20010904//EN"
 "http://www.w3.org/TR/2001/REC-SVG-20010904/DTD/svg10.dtd">
<svg version="1.0" xmlns="http://www.w3.org/2000/svg"
 width="200.000000pt" height="200.000000pt" viewBox="0 0 200.000000 200.000000"
 preserveAspectRatio="xMidYMid meet">
<metadata>
Created by potrace 1.16, written by Peter Selinger 2001-2019
</metadata>
<g transform="translate(0.000000,200.000000) scale(0.100000,-0.100000)"
fill="#000000" stroke="none">
<path d="M270 1787 c-13 -7 -35 -28 -47 -46 l-23 -35 2 -718 3 -718 33 -32 32
-33 455 -3 c503 -3 496 -4 535 61 19 31 20 55 20 735 0 776 3 742 -63 782 -30
19 -53 20 -477 20 -336 0 -451 -3 -470 -13z m941 -56 l29 -30 -2 -711 -3 -712
-24 -19 c-22 -18 -45 -19 -473 -19 l-449 0 -24 25 -25 24 0 708 c1 541 4 712
13 724 29 37 43 38 490 39 l439 0 29 -29z"/>
<path d="M503 1625 c-31 -13 -63 -59 -63 -90 0 -32 32 -77 65 -91 26 -10 84
-14 237 -14 173 0 208 3 238 18 75 37 73 145 -4 177 -49 21 -426 21 -473 0z
m472 -50 c14 -13 25 -31 25 -40 0 -9 -11 -27 -25 -40 -24 -25 -24 -25 -235
-25 -211 0 -211 0 -235 25 -14 13 -25 31 -25 40 0 9 11 27 25 40 24 25 24 25
235 25 211 0 211 0 235 -25z"/>
<path d="M503 1310 c-18 -10 -40 -31 -49 -45 -22 -33 -21 -107 1 -141 21 -33
73 -64 108 -64 40 0 99 33 120 68 67 115 -67 251 -180 182z m128 -49 c75 -76
-7 -194 -104 -150 -24 11 -38 31 -51 72 -8 25 20 82 47 95 40 20 77 14 108
-17z"/>
<path d="M853 1315 c-42 -18 -73 -69 -73 -120 0 -132 173 -182 246 -70 20 31
20 109 -1 141 -37 57 -108 77 -172 49z m100 -36 c57 -26 67 -108 17 -151 -41
-38 -83 -37 -121 1 -75 76 7 194 104 150z"/>
<path d="M486 949 c-79 -69 -63 -180 33 -224 35 -15 47 -16 79 -7 152 46 123
262 -35 262 -33 0 -50 -7 -77 -31z m145 -38 c62 -62 24 -151 -64 -151 -70 0
-110 60 -82 126 26 62 97 74 146 25z"/>
<path d="M843 960 c-60 -36 -81 -121 -46 -181 10 -16 37 -39 61 -51 38 -18 49
-19 82 -9 52 15 78 39 94 85 19 54 5 103 -38 144 -43 39 -102 44 -153 12z
m132 -45 c36 -35 37 -95 2 -132 -15 -17 -32 -23 -64 -23 -59 0 -93 33 -93 89
0 78 100 121 155 66z"/>
<path d="M498 614 c-81 -43 -79 -180 2 -228 111 -65 244 60 185 174 -34 66
-120 91 -187 54z m137 -50 c54 -58 15 -154 -62 -154 -47 0 -72 16 -89 56 -12
29 -12 39 0 68 17 41 39 55 89 56 28 0 44 -7 62 -26z"/>
<path d="M824 597 c-31 -28 -37 -41 -41 -83 -5 -59 10 -90 56 -121 88 -59 204
2 204 107 0 76 -57 130 -137 130 -38 0 -52 -6 -82 -33z m138 -18 c11 -6 26
-26 34 -45 12 -29 12 -39 0 -68 -39 -93 -176 -66 -176 34 0 71 76 114 142 79z"/>
<path d="M1718 1764 c-174 -131 -288 -440 -305 -827 -5 -113 -4 -141 8 -148 8
-5 44 -9 82 -9 l67 0 0 -254 c0 -237 1 -255 20 -278 45 -57 125 -61 176 -7
l29 30 0 762 c0 669 -2 762 -15 764 -8 2 -36 -13 -62 -33z m42 -479 l0 -455
-155 0 -155 0 0 59 c0 169 43 412 99 556 36 93 115 219 166 264 20 17 38 31
40 31 3 0 5 -205 5 -455z m0 -749 c0 -217 -2 -246 -17 -265 -27 -32 -73 -37
-106 -11 l-27 21 0 250 0 249 75 0 75 0 0 -244z"/>
</g>
</svg>
