<?xml version="1.0" standalone="no"?>
<!DOCTYPE svg PUBLIC "-//W3C//DTD SVG 20010904//EN"
 "http://www.w3.org/TR/2001/REC-SVG-20010904/DTD/svg10.dtd">
<svg version="1.0" xmlns="http://www.w3.org/2000/svg"
 width="200.000000pt" height="200.000000pt" viewBox="0 0 200.000000 200.000000"
 preserveAspectRatio="xMidYMid meet">
<metadata>
Created by potrace 1.16, written by Peter Selinger 2001-2019
</metadata>
<g transform="translate(0.000000,200.000000) scale(0.100000,-0.100000)"
fill="#000000" stroke="none">
<path d="M830 1964 c-353 -64 -643 -313 -759 -652 -27 -78 -27 -112 -3 -112
14 0 23 15 36 61 71 257 276 489 524 594 141 59 200 70 377 69 144 0 169 -3
248 -27 168 -52 306 -135 417 -254 163 -172 246 -366 257 -600 7 -137 -7 -234
-52 -361 -47 -131 -112 -230 -224 -342 -126 -125 -254 -199 -422 -246 -75 -21
-286 -29 -379 -15 -289 45 -554 241 -685 506 -60 121 -85 218 -92 347 -6 116
-12 134 -38 124 -16 -6 -17 -17 -12 -109 23 -402 282 -744 662 -874 354 -121
739 -30 1006 236 334 335 382 848 116 1246 -60 89 -201 222 -295 279 -209 125
-454 171 -682 130z"/>
<path d="M925 1779 c-130 -13 -240 -51 -350 -120 -36 -22 -65 -46 -65 -53 0
-6 49 -61 110 -121 l110 -109 -58 -29 c-31 -16 -61 -33 -67 -38 -6 -6 -44 25
-105 86 -62 62 -101 94 -111 90 -19 -7 -92 -126 -119 -194 -52 -134 -67 -328
-36 -464 89 -381 444 -640 831 -607 99 8 154 21 230 52 68 29 183 99 190 117
4 10 -25 46 -82 103 l-88 88 72 0 c39 0 83 4 96 9 21 8 30 4 68 -35 24 -24 49
-44 55 -44 29 0 130 199 158 311 20 81 21 250 1 341 -32 155 -97 270 -220 393
-132 132 -267 198 -458 224 -43 6 -79 10 -80 10 -1 -1 -38 -5 -82 -10z m165
-50 c190 -23 345 -109 476 -261 64 -74 108 -158 140 -263 37 -126 38 -292 3
-410 -24 -79 -92 -215 -108 -215 -4 0 -18 11 -31 25 -20 21 -22 28 -12 50 17
38 15 150 -3 168 -8 9 -19 17 -24 19 -5 1 -11 36 -12 75 -2 69 -1 74 26 94 23
19 26 27 22 60 -18 137 -183 277 -382 325 -83 20 -275 23 -349 5 l-50 -12
-103 103 c-57 56 -103 106 -103 110 0 11 79 55 149 83 60 25 186 52 246 54 17
1 69 -4 115 -10z m-611 -383 l74 -75 -42 -46 c-81 -87 -103 -176 -54 -214 24
-20 26 -26 24 -94 -1 -39 -7 -74 -12 -75 -29 -11 -39 -36 -39 -100 0 -80 20
-120 73 -145 31 -15 79 -17 389 -17 l353 0 90 -91 c104 -104 105 -96 -20 -154
-110 -52 -185 -68 -315 -69 -134 0 -205 16 -325 74 -381 184 -527 660 -315
1028 17 28 34 52 38 52 4 0 41 -34 81 -74z m673 9 c186 -39 353 -168 369 -285
l4 -25 -519 -3 c-300 -1 -524 2 -529 7 -11 11 24 92 60 139 49 65 207 148 324
171 70 14 218 12 291 -4z m312 -387 c18 -26 21 -71 6 -99 -10 -18 -26 -19
-470 -19 -444 0 -460 1 -470 19 -15 28 -12 73 6 99 l15 22 449 0 449 0 15 -22z
m61 -230 c0 -47 -5 -62 -23 -80 l-23 -23 -473 -3 -474 -3 -27 24 c-20 17 -28
35 -32 69 -10 85 -58 78 529 76 l523 -3 0 -57z"/>
<path d="M37 1163 c-4 -3 -7 -21 -7 -40 0 -43 35 -48 43 -5 7 36 -16 65 -36
45z"/>
</g>
</svg>
