<?xml version="1.0" standalone="no"?>
<!DOCTYPE svg PUBLIC "-//W3C//DTD SVG 20010904//EN"
 "http://www.w3.org/TR/2001/REC-SVG-20010904/DTD/svg10.dtd">
<svg version="1.0" xmlns="http://www.w3.org/2000/svg"
 width="200.000000pt" height="200.000000pt" viewBox="0 0 200.000000 200.000000"
 preserveAspectRatio="xMidYMid meet">
<metadata>
Created by potrace 1.16, written by Peter Selinger 2001-2019
</metadata>
<g transform="translate(0.000000,200.000000) scale(0.100000,-0.100000)"
fill="#000000" stroke="none">
<path d="M995 1600 c-14 -16 -17 -30 -12 -75 7 -70 40 -128 111 -192 l55 -50
-54 -52 -54 -52 -29 44 c-47 68 -148 128 -241 143 -46 7 -46 7 -26 72 11 35
-25 28 -65 -13 -30 -31 -40 -35 -85 -35 -47 0 -56 4 -94 40 -33 32 -46 38 -56
30 -11 -9 -11 -17 1 -46 16 -38 19 -35 -54 -54 -76 -19 -131 -48 -181 -95 -72
-67 -94 -125 -99 -258 -10 -264 68 -388 283 -453 45 -13 93 -18 190 -17 141 0
220 15 303 57 58 29 135 109 153 159 7 20 17 37 21 37 5 0 25 -15 45 -34 l37
-34 -55 -55 c-70 -68 -109 -144 -109 -209 0 -40 4 -50 25 -64 23 -15 27 -15
50 0 14 9 25 23 25 31 0 13 28 15 178 15 178 0 179 0 190 -24 12 -27 38 -36
70 -25 28 11 37 49 24 102 -10 37 -9 44 10 64 14 15 33 23 53 23 17 0 40 6 50
14 18 13 18 14 -3 25 -35 19 -78 13 -112 -16 -31 -26 -33 -26 -42 -7 -6 10
-35 43 -64 72 l-54 52 60 59 c76 75 104 134 105 221 0 87 -36 161 -112 229
l-56 50 55 53 c31 29 60 62 66 73 10 19 11 19 39 -7 22 -21 39 -28 70 -28 45
0 70 19 51 38 -7 7 -28 12 -48 12 -25 0 -43 7 -58 23 -19 20 -20 27 -10 64 13
54 4 91 -27 105 -19 9 -29 7 -50 -6 -14 -9 -25 -23 -25 -31 0 -13 -28 -15
-180 -15 -144 0 -180 3 -180 13 0 18 -32 47 -52 47 -8 0 -23 -9 -33 -20z m51
-47 c20 -98 67 -160 166 -224 l48 -31 45 27 c96 56 149 120 171 205 14 55 30
54 27 -1 -3 -53 -38 -112 -107 -177 -31 -30 -56 -62 -56 -72 0 -10 27 -44 61
-77 72 -68 99 -116 106 -187 8 -75 -22 -138 -103 -216 -35 -34 -64 -71 -64
-81 0 -10 14 -31 32 -46 84 -73 128 -141 131 -202 2 -50 -15 -54 -25 -6 -16
74 -72 149 -147 197 -62 39 -88 36 -161 -18 -63 -48 -120 -128 -120 -171 0
-28 -10 -53 -21 -53 -16 0 -9 74 11 119 11 23 47 69 80 102 76 74 77 92 10
148 -146 123 -148 294 -4 418 72 62 71 79 -6 153 -66 63 -99 125 -100 183 0
43 17 50 26 10z m384 -38 c0 -4 -7 -19 -15 -36 l-16 -30 -136 3 -137 3 -19 33
-19 32 171 0 c94 0 171 -2 171 -5z m-80 -110 c0 -2 -20 -18 -43 -34 l-44 -30
-39 26 c-21 14 -43 30 -48 34 -6 5 30 9 82 9 51 0 92 -2 92 -5z m-800 -116
c31 -61 46 -69 65 -33 6 10 19 34 29 52 9 19 19 32 21 30 2 -1 -3 -27 -11 -57
-16 -64 -9 -78 44 -83 l37 -4 -40 -7 c-74 -15 -85 -23 -85 -62 0 -35 -23 -105
-35 -105 -3 0 -2 18 1 40 4 21 3 55 0 74 -6 33 -10 35 -64 48 -56 12 -57 13
-19 16 22 2 41 10 44 18 5 13 -8 78 -23 118 -3 9 -3 16 0 16 3 0 19 -27 36
-61z m58 35 c-11 -24 -13 -25 -25 -8 -19 26 -16 34 12 34 23 0 24 -2 13 -26z
m-129 -6 c24 -66 23 -75 -11 -82 -49 -10 -120 -55 -116 -74 3 -14 17 -17 85
-17 106 0 110 -4 96 -97 -6 -41 -6 -77 -2 -82 6 -6 22 -4 42 6 37 18 66 68 74
129 5 36 7 38 54 44 27 4 66 4 87 0 31 -5 41 -3 45 9 8 21 -60 71 -108 80 -39
8 -43 21 -24 74 12 36 17 36 128 -1 70 -24 136 -76 165 -130 18 -33 18 -37 3
-76 -25 -61 -22 -155 6 -216 26 -55 24 -72 -11 -141 -28 -55 -92 -109 -160
-134 -77 -29 -222 -42 -339 -30 -171 17 -278 87 -321 208 -23 64 -33 196 -22
268 24 146 92 221 245 265 77 23 74 23 84 -3z m861 -714 c11 -12 0 -14 -79
-14 -50 0 -91 2 -91 4 0 2 21 18 46 34 l45 31 34 -20 c18 -11 39 -27 45 -35z
m74 -79 c9 -13 16 -29 16 -35 0 -6 -59 -10 -170 -10 -157 0 -169 1 -163 18 17
48 29 52 168 52 130 0 133 -1 149 -25z"/>
<path d="M1191 1219 c-136 -90 -177 -206 -115 -320 28 -51 96 -114 156 -145
27 -14 32 -13 77 11 97 53 171 157 171 238 -1 74 -74 176 -165 228 -27 16 -53
29 -56 29 -4 0 -34 -18 -68 -41z m92 -10 c34 -18 97 -70 97 -80 0 -5 -54 -9
-121 -9 -81 0 -118 3 -114 10 8 12 104 90 112 90 2 0 14 -5 26 -11z m147 -155
c6 -14 10 -27 10 -30 0 -2 -79 -4 -175 -4 -184 0 -186 0 -169 44 5 14 29 16
165 16 l159 0 10 -26z m10 -78 c0 -3 -4 -16 -10 -30 l-10 -26 -159 0 c-136 0
-160 2 -165 16 -17 44 -15 44 169 44 96 0 175 -2 175 -4z m-62 -108 c-3 -7
-29 -30 -60 -51 l-55 -39 -39 25 c-22 13 -50 36 -63 51 l-24 26 122 0 c94 0
122 -3 119 -12z"/>
<path d="M1702 1433 c3 -16 15 -18 93 -18 78 0 90 2 93 18 3 15 -7 17 -93 17
-86 0 -96 -2 -93 -17z"/>
<path d="M1713 1373 c-18 -7 -16 -30 3 -37 9 -3 44 -6 79 -6 71 0 95 6 95 25
0 7 -7 16 -16 19 -18 7 -143 7 -161 -1z"/>
<path d="M1713 663 c-18 -7 -16 -30 3 -37 9 -3 44 -6 79 -6 71 0 95 6 95 25 0
7 -7 16 -16 19 -18 7 -143 7 -161 -1z"/>
<path d="M1707 584 c-4 -4 -7 -13 -7 -21 0 -10 23 -13 96 -13 86 0 95 2 92 18
-3 14 -17 17 -89 20 -47 1 -88 0 -92 -4z"/>
</g>
</svg>
