<?xml version="1.0" standalone="no"?>
<!DOCTYPE svg PUBLIC "-//W3C//DTD SVG 20010904//EN"
 "http://www.w3.org/TR/2001/REC-SVG-20010904/DTD/svg10.dtd">
<svg version="1.0" xmlns="http://www.w3.org/2000/svg"
 width="200.000000pt" height="200.000000pt" viewBox="0 0 200.000000 200.000000"
 preserveAspectRatio="xMidYMid meet">
<metadata>
Created by potrace 1.16, written by Peter Selinger 2001-2019
</metadata>
<g transform="translate(0.000000,200.000000) scale(0.100000,-0.100000)"
fill="#000000" stroke="none">
<path d="M1215 1839 l-91 -29 -54 -185 -55 -185 -113 0 c-72 0 -124 -5 -145
-14 -36 -15 -67 -54 -67 -85 0 -12 -9 -21 -27 -26 -35 -8 -43 -21 -43 -70 0
-46 14 -65 46 -65 20 0 22 -7 33 -142 7 -79 14 -155 17 -169 l5 -26 -148 -5
c-134 -4 -153 -6 -193 -28 -65 -37 -90 -85 -90 -182 0 -76 0 -76 -29 -83 -16
-3 -34 -12 -39 -18 -6 -7 -10 -60 -10 -120 0 -98 2 -108 21 -122 12 -8 29 -15
39 -15 15 0 18 -9 18 -48 0 -38 5 -53 23 -70 23 -21 30 -22 289 -22 309 0 307
0 315 86 5 43 9 51 37 64 17 8 35 25 41 38 8 19 17 22 66 22 53 0 57 -2 69
-29 19 -46 118 -135 175 -157 36 -14 75 -19 140 -19 78 0 97 4 147 28 34 17
77 50 107 82 64 71 91 141 91 238 -1 195 -149 348 -337 349 l-63 1 1 46 c0 25
6 102 12 171 11 112 14 125 32 128 35 7 45 23 45 74 0 45 -2 50 -28 59 -18 6
-34 24 -47 52 -30 63 -66 77 -199 77 -82 0 -107 3 -103 13 2 6 21 68 42 137
21 69 41 132 46 141 4 8 42 26 84 39 43 13 80 30 82 38 9 21 -15 62 -34 61
-10 -1 -59 -14 -108 -30z m124 -444 c16 -8 34 -28 39 -45 l11 -30 -335 0
c-312 0 -334 1 -334 18 1 24 22 50 51 61 13 5 140 10 282 10 208 1 263 -2 286
-14z m41 -243 c0 -31 -17 -221 -26 -289 -3 -24 -10 -43 -15 -43 -6 0 -35 -12
-66 -27 -57 -28 -122 -93 -153 -153 -36 -72 -46 -173 -24 -252 5 -16 -2 -18
-45 -18 -61 0 -77 19 -59 68 17 43 1 83 -39 102 -31 14 -33 18 -33 70 0 30 -5
72 -10 92 -18 65 -87 128 -140 128 -11 0 -20 3 -20 8 0 4 -7 72 -15 152 -8 80
-15 155 -15 168 l0 22 330 0 330 0 0 -28z m-900 -427 c0 -8 -7 -15 -15 -15 -8
0 -15 7 -15 15 0 8 7 15 15 15 8 0 15 -7 15 -15z m133 0 c1 -5 -6 -11 -15 -13
-11 -2 -18 3 -18 13 0 17 30 18 33 0z m130 0 c1 -5 -6 -11 -15 -13 -11 -2 -18
3 -18 13 0 17 30 18 33 0z m760 -26 c20 -5 37 -13 37 -17 0 -9 -293 -302 -301
-302 -11 0 -29 60 -29 98 0 62 23 115 70 162 63 64 136 83 223 59z m-1085 -50
c-2 -6 -8 -10 -13 -10 -5 0 -11 4 -13 10 -2 6 4 11 13 11 9 0 15 -5 13 -11z
m132 -5 c0 -9 -5 -14 -12 -12 -18 6 -21 28 -4 28 9 0 16 -7 16 -16z m138 4
c-3 -7 -11 -13 -18 -13 -7 0 -15 6 -17 13 -3 7 4 12 17 12 13 0 20 -5 18 -12z
m130 0 c-3 -7 -11 -13 -18 -13 -7 0 -15 6 -17 13 -3 7 4 12 17 12 13 0 20 -5
18 -12z m847 -134 c9 -65 -16 -142 -64 -191 -65 -68 -157 -87 -247 -52 l-28
10 155 155 c169 169 170 170 184 78z m-702 -15 c5 -9 7 -28 3 -43 l-6 -26
-358 2 -357 3 -3 28 c-7 58 -11 58 366 55 303 -3 346 -5 355 -19z m5 -142 c7
-58 11 -57 -362 -57 -253 0 -345 3 -354 12 -13 13 -16 60 -5 71 4 4 167 6 362
5 l356 -3 3 -28z"/>
</g>
</svg>
