<?xml version="1.0" standalone="no"?>
<!DOCTYPE svg PUBLIC "-//W3C//DTD SVG 20010904//EN"
 "http://www.w3.org/TR/2001/REC-SVG-20010904/DTD/svg10.dtd">
<svg version="1.0" xmlns="http://www.w3.org/2000/svg"
 width="200.000000pt" height="200.000000pt" viewBox="0 0 200.000000 200.000000"
 preserveAspectRatio="xMidYMid meet">
<metadata>
Created by potrace 1.16, written by Peter Selinger 2001-2019
</metadata>
<g transform="translate(0.000000,200.000000) scale(0.100000,-0.100000)"
fill="#000000" stroke="none">
<path d="M408 1650 c-124 -31 -234 -124 -295 -247 -37 -75 -38 -80 -38 -187 0
-183 -1 -180 364 -548 214 -216 315 -311 339 -319 76 -25 87 -17 355 249 141
141 247 254 247 265 0 54 -35 26 -279 -217 -226 -225 -250 -246 -281 -246 -31
0 -58 23 -327 292 -354 354 -358 359 -358 518 0 93 3 112 26 161 110 233 412
301 597 133 28 -24 56 -44 62 -44 7 0 28 16 47 35 44 45 112 79 188 95 205 42
406 -93 449 -302 13 -65 36 -92 58 -70 18 18 -3 129 -38 200 -15 32 -53 82
-84 112 -95 94 -213 137 -345 127 -83 -6 -139 -26 -218 -78 l-58 -38 -47 34
c-74 53 -145 77 -242 81 -47 2 -102 -1 -122 -6z"/>
<path d="M394 1469 c-105 -24 -188 -155 -166 -259 6 -28 12 -35 32 -35 23 0
25 3 22 40 -4 66 7 104 45 145 36 40 81 60 139 60 32 0 48 17 35 38 -10 17
-60 22 -107 11z"/>
<path d="M697 1270 c-14 -11 -28 -29 -32 -39 -4 -13 -12 -17 -30 -13 -14 2
-39 -1 -56 -8 -51 -22 -59 -51 -59 -222 0 -134 2 -157 20 -185 20 -34 54 -48
95 -41 14 3 25 2 25 -3 0 -4 12 -21 26 -38 21 -26 33 -31 69 -31 36 0 48 5 69
31 24 28 26 38 26 125 l0 94 43 0 c23 0 47 4 53 8 6 4 35 54 63 111 29 57 54
102 55 100 2 -2 27 -59 56 -127 l53 -123 56 3 56 3 45 67 c25 37 47 67 50 68
3 0 23 -30 46 -67 l40 -68 67 -3 67 -3 0 -82 c0 -92 11 -117 59 -137 41 -17
95 2 118 41 14 24 24 29 56 29 29 0 46 7 68 29 l29 29 0 157 0 157 -29 29
c-23 23 -39 29 -70 29 -23 0 -41 5 -41 10 0 6 -11 22 -25 35 -36 37 -97 35
-136 -4 -29 -29 -29 -31 -29 -145 l0 -116 -47 0 -48 0 -50 83 c-68 111 -77
112 -146 2 -75 -119 -81 -118 -148 43 -62 147 -76 172 -96 172 -9 0 -41 -52
-80 -130 -65 -129 -65 -130 -100 -130 l-35 0 0 109 c0 103 -1 111 -26 140 -32
38 -87 43 -127 11z m91 -283 l-3 -232 -30 0 -30 0 -3 230 c-2 205 -1 231 14
242 12 9 22 9 36 2 17 -9 18 -24 16 -242z m936 207 c14 -14 16 -44 14 -221 -3
-183 -5 -207 -20 -217 -13 -8 -23 -8 -35 0 -16 10 -18 34 -21 217 -2 177 0
207 14 221 8 9 19 16 24 16 5 0 16 -7 24 -16z m-1075 -48 c8 -9 11 -61 9 -161
-3 -128 -5 -149 -20 -159 -13 -8 -23 -8 -35 0 -16 10 -18 31 -21 159 -3 152 2
175 38 175 10 0 23 -6 29 -14z m1216 -171 l0 -150 -30 0 -30 0 -3 140 c-1 76
0 145 3 153 3 8 16 12 32 10 l28 -3 0 -150z"/>
</g>
</svg>
