<?xml version="1.0" standalone="no"?>
<!DOCTYPE svg PUBLIC "-//W3C//DTD SVG 20010904//EN"
 "http://www.w3.org/TR/2001/REC-SVG-20010904/DTD/svg10.dtd">
<svg version="1.0" xmlns="http://www.w3.org/2000/svg"
 width="200.000000pt" height="200.000000pt" viewBox="0 0 200.000000 200.000000"
 preserveAspectRatio="xMidYMid meet">
<metadata>
Created by potrace 1.16, written by Peter Selinger 2001-2019
</metadata>
<g transform="translate(0.000000,200.000000) scale(0.100000,-0.100000)"
fill="#000000" stroke="none">
<path d="M373 1852 c-98 -35 -186 -122 -224 -223 -25 -65 -27 -181 -4 -250 34
-102 134 -200 237 -235 68 -22 204 -15 271 14 65 29 148 110 183 179 27 53 29
67 29 163 0 98 -2 109 -31 165 -38 71 -116 148 -182 178 -67 30 -208 34 -279
9z m251 -136 c143 -84 167 -278 49 -392 -168 -164 -444 -30 -420 204 10 93 74
175 164 208 57 22 152 12 207 -20z"/>
<path d="M525 1565 l-49 -45 -26 25 -26 25 -44 -45 -44 -45 66 -67 66 -66 34
28 c18 15 62 54 96 87 l64 59 -37 44 c-20 25 -39 45 -43 45 -4 -1 -29 -21 -57
-45z"/>
<path d="M1135 1538 c-107 -69 -267 -231 -340 -341 -117 -179 -183 -379 -192
-582 l-6 -120 62 -43 c86 -61 216 -119 329 -148 105 -27 241 -35 367 -21 l70
7 43 -80 c24 -44 45 -80 48 -80 6 0 73 35 92 48 10 7 -2 37 -53 130 -37 67
-69 122 -72 122 -3 0 -42 -7 -86 -16 -121 -25 -304 -15 -417 21 -88 28 -184
72 -234 108 -28 20 -29 22 -23 91 24 284 185 577 408 746 44 33 84 60 89 60 4
0 40 -25 79 -56 l71 -56 -51 -61 c-29 -34 -55 -61 -59 -60 -4 1 -37 21 -74 44
-37 23 -68 40 -70 38 -2 -2 -9 -67 -15 -144 -23 -275 -17 -253 -70 -280 -25
-13 -57 -33 -71 -44 l-25 -20 44 -45 44 -44 38 28 c75 54 203 64 287 23 28
-13 36 -23 34 -39 -2 -18 4 -23 35 -28 21 -4 47 -9 58 -12 16 -4 25 5 43 39
48 91 156 131 249 92 19 -8 37 -15 39 -15 6 0 64 89 64 99 0 20 -109 51 -179
51 -83 0 -146 -21 -198 -65 l-40 -34 -63 26 c-35 14 -90 28 -123 31 l-60 5 6
80 c4 44 9 82 11 84 3 3 15 -2 28 -11 12 -9 28 -16 35 -16 6 0 68 68 137 151
l125 151 -156 119 c-85 66 -161 119 -167 119 -7 0 -48 -23 -91 -52z"/>
</g>
</svg>
