<?xml version="1.0" standalone="no"?>
<!DOCTYPE svg PUBLIC "-//W3C//DTD SVG 20010904//EN"
 "http://www.w3.org/TR/2001/REC-SVG-20010904/DTD/svg10.dtd">
<svg version="1.0" xmlns="http://www.w3.org/2000/svg"
 width="200.000000pt" height="200.000000pt" viewBox="0 0 200.000000 200.000000"
 preserveAspectRatio="xMidYMid meet">
<metadata>
Created by potrace 1.16, written by Peter Selinger 2001-2019
</metadata>
<g transform="translate(0.000000,200.000000) scale(0.100000,-0.100000)"
fill="#000000" stroke="none">
<path d="M1274 1747 c-111 -29 -209 -58 -218 -66 -21 -18 -20 -44 2 -64 16
-15 48 -17 246 -17 l228 0 34 34 c34 34 40 58 28 103 -8 28 -63 63 -95 62 -13
0 -115 -24 -225 -52z"/>
<path d="M284 1766 c-6 -16 49 -131 79 -163 15 -17 32 -23 64 -23 49 0 97 -21
107 -45 3 -9 6 -62 6 -117 0 -87 2 -99 16 -94 9 3 18 6 20 6 2 0 4 45 4 100 0
114 -12 150 -60 175 -16 8 -47 15 -69 15 -49 0 -66 17 -106 100 -28 58 -50 75
-61 46z"/>
<path d="M1320 1475 c0 -43 1 -45 29 -45 16 0 43 -3 60 -6 l31 -6 0 51 0 51
-60 0 -60 0 0 -45z"/>
<path d="M1217 1340 c-16 -5 -88 -34 -161 -65 l-133 -56 18 -37 c11 -20 19
-55 19 -79 0 -32 7 -50 29 -75 70 -81 70 -135 0 -216 -22 -24 -29 -43 -29 -73
l0 -40 218 3 c214 3 218 3 273 31 66 32 132 99 162 165 17 36 22 67 22 128 0
73 -3 88 -35 150 -39 76 -103 133 -179 159 -48 16 -158 19 -204 5z m197 -157
c55 -39 81 -93 81 -168 0 -73 -28 -124 -89 -163 -34 -22 -53 -27 -108 -27 -58
0 -72 4 -109 30 -82 58 -112 171 -67 255 24 44 83 94 123 104 49 11 129 -3
169 -31z"/>
<path d="M1255 1131 c-45 -20 -70 -60 -70 -112 0 -42 5 -53 33 -81 28 -28 39
-33 82 -33 43 0 54 5 82 33 28 28 33 39 33 82 0 42 -5 54 -31 81 -33 33 -92
46 -129 30z"/>
<path d="M567 1230 c-41 -36 -77 -50 -126 -50 -52 0 -81 -32 -81 -89 0 -48
-10 -71 -51 -119 -36 -41 -36 -63 0 -104 41 -47 51 -71 51 -118 0 -54 34 -90
85 -90 46 0 94 -21 124 -54 32 -34 70 -34 102 0 31 34 78 54 127 54 50 0 82
32 82 82 0 48 14 84 50 125 37 41 38 72 4 104 -38 35 -54 72 -54 124 0 58 -25
85 -79 85 -51 0 -86 14 -128 50 -19 17 -42 30 -53 30 -11 0 -34 -13 -53 -30z
m241 -122 c7 -7 12 -19 12 -27 0 -21 -340 -361 -360 -361 -20 0 -40 20 -40 39
0 21 340 361 360 361 9 0 21 -5 28 -12z m-220 -34 c31 -36 29 -79 -7 -115 -69
-68 -177 3 -140 93 25 60 103 72 147 22z m193 -193 c20 -20 29 -39 29 -61 0
-43 -47 -90 -90 -90 -43 0 -90 47 -90 90 0 22 9 41 29 61 40 39 82 39 122 0z"/>
<path d="M1525 680 c-16 -11 -59 -29 -94 -40 -55 -17 -92 -20 -285 -20 -202 0
-225 -2 -261 -20 -22 -11 -58 -20 -81 -20 -33 0 -51 -7 -83 -34 -70 -59 -132
-59 -202 0 -42 35 -109 48 -109 22 0 -44 -34 -265 -42 -275 -6 -7 -23 -13 -38
-13 -39 0 -56 -23 -42 -55 l12 -25 701 2 c656 3 703 4 713 21 16 25 -4 51 -42
55 -17 2 -35 9 -40 15 -5 7 -24 98 -41 202 -18 105 -33 193 -34 197 -1 4 -15
-1 -32 -12z"/>
</g>
</svg>
