<?xml version="1.0" standalone="no"?>
<!DOCTYPE svg PUBLIC "-//W3C//DTD SVG 20010904//EN"
 "http://www.w3.org/TR/2001/REC-SVG-20010904/DTD/svg10.dtd">
<svg version="1.0" xmlns="http://www.w3.org/2000/svg"
 width="200.000000pt" height="200.000000pt" viewBox="0 0 200.000000 200.000000"
 preserveAspectRatio="xMidYMid meet">
<metadata>
Created by potrace 1.16, written by Peter Selinger 2001-2019
</metadata>
<g transform="translate(0.000000,200.000000) scale(0.100000,-0.100000)"
fill="#000000" stroke="none">
<path d="M1251 1744 c-122 -31 -226 -64 -242 -75 -41 -29 -57 -89 -38 -142 23
-66 54 -81 170 -85 l100 -4 -3 -44 -3 -45 -65 -23 c-36 -13 -130 -51 -210 -85
-80 -33 -157 -61 -172 -61 -17 0 -40 13 -64 35 -20 19 -43 35 -50 35 -11 0
-14 17 -14 68 -1 106 -40 172 -122 207 -21 8 -50 15 -66 15 -25 0 -32 7 -57
60 -36 75 -52 90 -104 97 -36 5 -44 2 -76 -30 -47 -47 -46 -76 12 -188 56
-109 82 -131 158 -137 l55 -4 0 -79 0 -79 -30 0 c-82 0 -135 -53 -148 -148 -6
-46 -16 -69 -39 -95 -56 -64 -55 -129 3 -198 25 -30 34 -51 34 -77 0 -37 30
-114 48 -126 6 -3 5 -21 -2 -47 -8 -32 -18 -45 -41 -55 -54 -22 -80 -60 -80
-115 0 -42 5 -53 33 -81 l32 -33 730 0 730 0 30 30 c61 62 45 158 -31 192 -42
18 -36 5 -93 201 l-15 53 29 40 c46 64 65 132 65 235 0 84 -2 95 -38 166 -25
52 -54 91 -88 122 -28 25 -55 46 -60 46 -5 0 -9 33 -9 73 l0 72 53 25 c105 50
138 166 74 261 -27 41 -99 79 -147 78 -19 0 -131 -25 -249 -55z m315 -58 c24
-24 34 -43 34 -66 0 -23 -10 -41 -34 -66 l-34 -34 -228 0 c-198 0 -230 2 -246
17 -22 20 -23 46 -2 64 18 15 402 117 448 118 19 1 38 -9 62 -33z m-1221 -126
c40 -83 57 -100 106 -100 87 0 129 -49 129 -150 0 -33 -2 -60 -4 -60 -2 0 -11
-3 -20 -6 -14 -5 -16 3 -16 54 0 33 -3 68 -6 77 -10 24 -58 45 -107 45 -32 0
-49 6 -64 23 -30 32 -85 147 -79 163 11 29 33 12 61 -46z m1095 -171 l0 -51
-31 6 c-17 3 -44 6 -60 6 -28 0 -29 2 -29 45 l0 45 60 0 60 0 0 -51z m-19
-134 c76 -26 140 -83 179 -159 32 -62 35 -77 35 -150 0 -61 -5 -92 -22 -128
-30 -66 -96 -133 -162 -165 -55 -28 -59 -28 -273 -31 l-218 -3 0 40 c0 30 7
49 29 73 70 81 70 135 0 216 -22 25 -29 43 -29 75 0 24 -8 59 -19 79 l-18 37
133 56 c73 31 145 60 161 65 46 14 156 11 204 -5z m-748 -105 c42 -36 77 -50
128 -50 54 0 79 -27 79 -85 0 -52 16 -89 54 -124 34 -32 33 -63 -4 -104 -36
-41 -50 -76 -50 -125 0 -20 -4 -42 -8 -48 -12 -19 -49 -34 -82 -34 -41 0 -90
-22 -119 -54 -32 -34 -70 -34 -102 0 -30 33 -78 54 -124 54 -51 0 -85 36 -85
90 0 47 -10 71 -51 118 -36 41 -36 63 0 104 41 48 51 71 51 119 0 57 29 89 81
89 49 0 85 14 126 50 19 17 42 30 53 30 11 0 34 -13 53 -30z m917 -650 c18
-63 37 -120 42 -127 5 -6 23 -13 40 -15 38 -4 58 -30 42 -55 -10 -17 -56 -18
-714 -18 -658 0 -704 1 -714 18 -15 24 4 51 40 55 41 5 49 15 68 82 16 58 18
60 51 60 23 0 45 -10 74 -34 70 -59 132 -59 202 0 32 27 50 34 83 34 23 0 59
9 81 20 36 18 59 20 261 20 193 0 230 3 285 20 35 11 77 29 94 39 16 11 30 19
31 18 1 -1 16 -54 34 -117z"/>
<path d="M1237 1130 c-47 -15 -94 -57 -117 -105 -41 -85 -11 -193 69 -250 37
-26 51 -30 109 -30 55 0 74 5 108 27 61 39 89 90 89 163 0 113 -69 192 -176
200 -29 3 -67 0 -82 -5z m147 -109 c26 -27 31 -39 31 -81 0 -43 -5 -54 -33
-82 -28 -28 -39 -33 -82 -33 -43 0 -54 5 -82 33 -28 28 -33 39 -33 81 0 52 25
92 70 112 37 16 96 3 129 -30z"/>
<path d="M592 867 c-94 -95 -172 -179 -172 -188 0 -19 20 -39 40 -39 20 0 360
340 360 361 0 19 -20 39 -40 39 -8 0 -93 -78 -188 -173z"/>
<path d="M479 1015 c-32 -18 -52 -63 -43 -99 8 -35 49 -66 86 -66 40 0 88 48
88 89 0 63 -76 107 -131 76z m51 -75 c0 -5 -5 -10 -11 -10 -5 0 -7 5 -4 10 3
6 8 10 11 10 2 0 4 -4 4 -10z"/>
<path d="M659 801 c-20 -20 -29 -39 -29 -61 0 -43 47 -90 90 -90 43 0 90 47
90 90 0 22 -9 41 -29 61 -40 39 -82 39 -122 0z m71 -61 c0 -5 -4 -10 -10 -10
-5 0 -10 5 -10 10 0 6 5 10 10 10 6 0 10 -4 10 -10z"/>
</g>
</svg>
