<?xml version="1.0" standalone="no"?>
<!DOCTYPE svg PUBLIC "-//W3C//DTD SVG 20010904//EN"
 "http://www.w3.org/TR/2001/REC-SVG-20010904/DTD/svg10.dtd">
<svg version="1.0" xmlns="http://www.w3.org/2000/svg"
 width="200.000000pt" height="200.000000pt" viewBox="0 0 200.000000 200.000000"
 preserveAspectRatio="xMidYMid meet">
<metadata>
Created by potrace 1.16, written by Peter Selinger 2001-2019
</metadata>
<g transform="translate(0.000000,200.000000) scale(0.100000,-0.100000)"
fill="#000000" stroke="none">
<path d="M298 1554 c-40 -21 -58 -64 -58 -133 l0 -61 -42 6 c-52 6 -84 -9
-115 -55 -22 -32 -23 -43 -23 -223 0 -201 6 -234 50 -273 16 -15 36 -20 76
-19 l54 0 0 -59 c0 -71 20 -110 68 -133 48 -22 93 -12 131 32 l31 35 0 154 0
155 144 0 145 0 5 -42 c15 -114 37 -327 46 -453 13 -173 29 -205 112 -230 64
-19 89 -19 133 -1 41 18 69 61 86 130 17 74 69 207 162 413 l82 183 67 0 66 0
4 -153 c3 -173 12 -197 76 -224 32 -13 42 -14 77 -2 57 20 85 66 85 140 l0 57
38 -5 c49 -7 96 17 117 57 22 42 22 418 0 460 -21 40 -68 64 -117 57 l-38 -5
0 57 c0 96 -55 157 -133 147 -87 -10 -107 -58 -107 -256 l0 -150 -25 0 c-20 0
-25 5 -25 25 0 34 -33 65 -70 65 -32 0 -74 -35 -85 -71 -5 -16 -16 -19 -66
-19 -56 0 -59 1 -59 25 0 39 -21 73 -51 84 -15 5 -30 7 -33 4 -3 -3 -17 4 -32
16 -31 25 -62 27 -90 6 -10 -8 -31 -15 -45 -15 -15 0 -38 -9 -52 -20 -14 -11
-37 -20 -52 -20 -28 0 -75 -40 -75 -65 0 -13 -21 -15 -145 -15 l-145 0 0 160
c0 178 -8 208 -60 235 -36 19 -77 19 -112 -1z m94 -61 c17 -15 18 -41 18 -414
l0 -399 -26 -17 c-24 -15 -29 -15 -53 -2 l-26 15 -3 398 c-2 361 -1 401 14
418 21 22 52 23 76 1z m1288 -3 c19 -19 20 -33 20 -410 0 -377 -1 -391 -20
-410 -27 -27 -55 -25 -79 6 -20 26 -21 37 -21 410 0 371 1 385 20 404 11 11
29 20 40 20 11 0 29 -9 40 -20z m-1460 -200 c19 -19 20 -33 20 -210 0 -177 -1
-191 -20 -210 -25 -25 -55 -25 -80 0 -19 19 -20 33 -20 210 0 177 1 191 20
210 11 11 29 20 40 20 11 0 29 -9 40 -20z m1632 3 c16 -15 18 -35 18 -211 0
-168 -2 -198 -17 -214 -20 -22 -51 -23 -75 -1 -16 15 -18 35 -18 211 0 168 2
198 17 214 20 22 51 23 75 1z m-812 -72 c0 -16 3 -36 6 -45 10 -25 43 -19 54
9 21 55 30 24 30 -105 0 -118 2 -132 21 -151 27 -27 65 -19 99 22 14 16 35 29
48 29 26 0 33 20 -68 -200 -72 -157 -132 -313 -150 -388 -16 -71 -48 -96 -110
-87 -79 11 -90 30 -101 186 -5 74 -18 211 -29 306 -23 200 -27 383 -7 383 7 0
17 -10 22 -22 6 -13 19 -23 30 -23 16 0 21 8 25 40 6 45 33 56 38 17 8 -55 62
-29 62 30 0 18 5 28 15 28 10 0 15 -10 15 -29z m370 -46 c0 -8 -7 -15 -15 -15
-16 0 -20 12 -8 23 11 12 23 8 23 -8z m-650 -105 c0 -19 -7 -20 -145 -20 -138
0 -145 1 -145 20 0 19 7 20 145 20 138 0 145 -1 145 -20z m760 0 c0 -19 -7
-20 -165 -20 -158 0 -165 1 -165 20 0 19 7 20 165 20 158 0 165 -1 165 -20z"/>
</g>
</svg>
