<?xml version="1.0" standalone="no"?>
<!DOCTYPE svg PUBLIC "-//W3C//DTD SVG 20010904//EN"
 "http://www.w3.org/TR/2001/REC-SVG-20010904/DTD/svg10.dtd">
<svg version="1.0" xmlns="http://www.w3.org/2000/svg"
 width="200.000000pt" height="200.000000pt" viewBox="0 0 200.000000 200.000000"
 preserveAspectRatio="xMidYMid meet">
<metadata>
Created by potrace 1.16, written by Peter Selinger 2001-2019
</metadata>
<g transform="translate(0.000000,200.000000) scale(0.100000,-0.100000)"
fill="#000000" stroke="none">
<path d="M528 1815 c-95 -31 -191 -159 -222 -297 -10 -43 -20 -228 -32 -576
-16 -478 -16 -517 -1 -566 30 -93 118 -173 216 -195 57 -12 1192 7 1206 21 7
6 -203 7 -600 3 l-611 -8 -51 26 c-63 32 -117 94 -139 159 -15 45 -15 86 0
531 9 265 21 516 27 557 20 137 97 268 182 309 82 40 192 22 260 -43 67 -62
107 -228 73 -294 -28 -55 -70 -74 -147 -68 l-67 5 -6 -227 c-3 -125 -9 -310
-12 -411 l-7 -183 89 6 c161 12 155 10 191 74 56 101 148 180 234 203 40 11
56 10 114 -6 83 -22 156 -75 249 -178 l68 -77 99 0 c55 0 99 4 99 9 0 5 -43
12 -96 16 l-96 7 -96 98 c-112 112 -178 150 -278 158 -52 4 -71 0 -118 -21
-67 -31 -153 -115 -197 -192 l-30 -54 -67 -6 c-37 -3 -84 -8 -106 -11 l-38 -5
6 88 c3 48 8 222 12 386 l6 299 47 -7 c58 -7 125 24 158 74 43 64 25 202 -40
297 -60 88 -179 130 -279 99z"/>
<path d="M1190 1215 c0 -90 4 -145 10 -145 6 0 10 55 10 145 0 90 -4 145 -10
145 -6 0 -10 -55 -10 -145z"/>
<path d="M870 1242 c0 -14 169 -176 177 -169 4 4 -31 46 -77 92 -79 80 -100
96 -100 77z"/>
<path d="M1421 1149 c-35 -38 -61 -72 -57 -76 7 -7 146 125 146 139 0 21 -31
-1 -89 -63z"/>
</g>
</svg>
