<?xml version="1.0" standalone="no"?>
<!DOCTYPE svg PUBLIC "-//W3C//DTD SVG 20010904//EN"
 "http://www.w3.org/TR/2001/REC-SVG-20010904/DTD/svg10.dtd">
<svg version="1.0" xmlns="http://www.w3.org/2000/svg"
 width="200.000000pt" height="200.000000pt" viewBox="0 0 200.000000 200.000000"
 preserveAspectRatio="xMidYMid meet">
<metadata>
Created by potrace 1.16, written by Peter Selinger 2001-2019
</metadata>
<g transform="translate(0.000000,200.000000) scale(0.100000,-0.100000)"
fill="#000000" stroke="none">
<path d="M282 1804 c-19 -13 -22 -24 -22 -75 l0 -59 -93 0 c-59 0 -97 -4 -105
-12 -9 -9 -12 -72 -12 -220 l0 -208 26 -10 c14 -6 61 -10 105 -10 l79 0 0 -58
c0 -32 5 -63 12 -70 8 -8 54 -12 140 -12 153 0 148 -4 148 134 l0 96 229 0
c126 0 241 4 255 10 19 7 26 17 26 35 0 18 -7 28 -26 35 -14 6 -129 10 -255
10 l-229 0 0 55 0 55 440 0 440 0 0 -55 0 -55 -44 0 c-66 0 -96 -14 -96 -45 0
-31 30 -45 96 -45 l44 0 0 -103 c0 -67 4 -107 12 -115 17 -17 259 -17 276 0 7
7 12 38 12 70 l0 58 79 0 c44 0 91 4 105 10 l26 10 0 208 c0 148 -3 211 -12
220 -8 8 -46 12 -105 12 l-93 0 0 59 c0 83 -13 91 -150 91 -148 0 -150 -1
-150 -136 l0 -104 -440 0 -440 0 0 104 c0 135 -2 136 -150 136 -79 0 -111 -4
-128 -16z m198 -364 l0 -290 -70 0 -70 0 0 290 0 290 70 0 70 0 0 -290z m1180
0 l0 -290 -70 0 -70 0 0 290 0 290 70 0 70 0 0 -290z m-1400 5 l0 -145 -65 0
-65 0 0 145 0 145 65 0 65 0 0 -145z m1610 0 l0 -145 -65 0 -65 0 0 145 0 145
65 0 65 0 0 -145z"/>
<path d="M1143 1380 c-16 -6 -23 -18 -23 -35 0 -33 40 -50 90 -38 28 6 36 13
38 35 3 22 -2 30 -23 38 -31 12 -52 12 -82 0z"/>
<path d="M272 918 c-7 -7 -12 -38 -12 -70 l0 -58 -79 0 c-44 0 -91 -4 -105
-10 l-26 -10 0 -208 c0 -148 3 -211 12 -220 8 -8 46 -12 105 -12 l93 0 0 -59
c0 -83 13 -91 150 -91 148 0 150 1 150 135 l0 105 246 2 c222 3 248 5 258 21
8 12 8 22 0 35 -10 15 -36 17 -258 20 l-246 2 0 60 0 60 440 0 440 0 0 -60 0
-59 -61 -3 c-69 -3 -94 -22 -73 -55 8 -13 27 -19 73 -21 l61 -3 0 -104 c0
-133 2 -135 150 -135 137 0 150 8 150 91 l0 59 93 0 c59 0 97 4 105 12 9 9 12
72 12 220 l0 208 -26 10 c-14 6 -61 10 -105 10 l-79 0 0 51 c0 88 -2 89 -148
89 -86 0 -132 -4 -140 -12 -8 -8 -12 -48 -12 -115 l0 -103 -440 0 -440 0 0 96
c0 138 5 134 -148 134 -86 0 -132 -4 -140 -12z m208 -358 l0 -290 -70 0 -70 0
0 290 0 290 70 0 70 0 0 -290z m1180 0 l0 -290 -70 0 -70 0 0 290 0 290 70 0
70 0 0 -290z m-1400 -5 l0 -145 -65 0 -65 0 0 145 0 145 65 0 65 0 0 -145z
m1610 0 l0 -145 -65 0 -65 0 0 145 0 145 65 0 65 0 0 -145z"/>
<path d="M1132 488 c-34 -34 -2 -71 59 -66 49 3 71 27 53 56 -14 21 -93 29
-112 10z"/>
</g>
</svg>
