<?xml version="1.0" standalone="no"?>
<!DOCTYPE svg PUBLIC "-//W3C//DTD SVG 20010904//EN"
 "http://www.w3.org/TR/2001/REC-SVG-20010904/DTD/svg10.dtd">
<svg version="1.0" xmlns="http://www.w3.org/2000/svg"
 width="200.000000pt" height="200.000000pt" viewBox="0 0 200.000000 200.000000"
 preserveAspectRatio="xMidYMid meet">
<metadata>
Created by potrace 1.16, written by Peter Selinger 2001-2019
</metadata>
<g transform="translate(0.000000,200.000000) scale(0.100000,-0.100000)"
fill="#000000" stroke="none">
<path d="M521 1944 c-86 -23 -167 -72 -229 -139 -95 -101 -139 -222 -129 -355
7 -100 23 -140 122 -315 95 -167 97 -175 69 -305 -54 -255 59 -531 281 -678
258 -173 605 -139 829 81 157 155 226 387 181 602 -27 125 -24 134 70 300 98
173 114 214 122 310 18 231 -141 446 -369 500 -91 21 -867 21 -947 -1z m982
-133 c166 -82 254 -273 200 -432 -18 -53 -153 -299 -163 -298 -3 0 -24 24 -47
53 l-41 53 23 24 c13 13 45 65 72 114 43 82 48 96 48 155 -1 47 -7 77 -23 106
-27 53 -90 107 -141 122 -26 8 -163 12 -437 12 -397 0 -399 0 -449 -24 -115
-53 -172 -176 -133 -287 16 -45 86 -168 114 -199 l23 -25 -47 -53 -47 -52 -70
121 c-110 194 -125 262 -84 395 18 59 30 77 88 134 54 54 78 70 131 88 63 21
76 22 500 19 l435 -2 48 -24z m-61 -249 c49 -48 46 -103 -11 -200 -58 -97 -70
-102 -159 -63 -180 79 -345 80 -534 5 -67 -28 -91 -33 -106 -25 -28 15 -103
147 -109 191 -4 26 0 48 13 69 36 61 38 61 476 58 l398 -2 32 -33z m-267 -352
c257 -90 412 -366 350 -628 -44 -184 -175 -330 -355 -393 -86 -31 -248 -33
-330 -5 -216 73 -360 254 -377 477 -21 270 162 511 432 570 65 13 213 3 280
-21z"/>
<path d="M905 916 c-89 -41 -133 -101 -142 -191 -14 -138 100 -265 240 -265
58 0 136 39 179 89 161 188 -53 472 -277 367z m179 -135 c26 -27 31 -39 31
-81 0 -43 -5 -54 -33 -82 -28 -28 -39 -33 -82 -33 -43 0 -54 5 -82 33 -28 28
-33 39 -33 81 0 52 25 92 70 112 37 16 96 3 129 -30z"/>
</g>
</svg>
