<?xml version="1.0" standalone="no"?>
<!DOCTYPE svg PUBLIC "-//W3C//DTD SVG 20010904//EN"
 "http://www.w3.org/TR/2001/REC-SVG-20010904/DTD/svg10.dtd">
<svg version="1.0" xmlns="http://www.w3.org/2000/svg"
 width="200.000000pt" height="200.000000pt" viewBox="0 0 200.000000 200.000000"
 preserveAspectRatio="xMidYMid meet">
<metadata>
Created by potrace 1.16, written by Peter Selinger 2001-2019
</metadata>
<g transform="translate(0.000000,200.000000) scale(0.100000,-0.100000)"
fill="#000000" stroke="none">
<path d="M280 1481 c-130 -40 -204 -141 -203 -276 0 -40 7 -86 16 -107 l16
-38 -40 0 c-28 0 -42 -5 -46 -16 -9 -25 24 -44 76 -45 41 0 49 -4 78 -40 45
-56 112 -110 223 -179 52 -32 113 -77 135 -99 43 -45 59 -49 87 -24 11 10 18
12 18 4 0 -20 48 -61 72 -61 16 0 29 -10 42 -34 29 -54 97 -73 145 -40 28 20
51 72 51 114 0 29 2 30 45 30 38 0 48 4 67 30 l22 30 173 0 c104 0 173 -4 173
-10 0 -23 45 -50 86 -50 l41 0 5 -52 c5 -43 11 -57 38 -81 28 -25 39 -28 72
-24 43 6 75 29 89 64 6 15 17 23 33 23 40 0 67 31 73 82 5 41 9 47 36 55 45
12 80 68 73 113 -6 39 -54 90 -85 90 -15 0 -20 10 -24 47 -6 52 -33 83 -73 83
-17 0 -27 8 -34 24 -13 36 -58 66 -99 66 -62 -1 -101 -47 -101 -119 l0 -41
-50 0 c-46 0 -53 -3 -68 -30 l-17 -30 -173 0 -172 0 -10 24 c-5 13 -14 26 -20
28 -6 2 2 27 22 63 30 55 33 67 33 150 0 74 -4 98 -22 131 -92 172 -305 203
-443 65 l-47 -47 -57 53 c-76 71 -173 99 -256 74z m136 -58 c36 -12 65 -33
110 -80 33 -34 65 -63 70 -63 5 0 31 25 57 55 62 71 115 99 187 99 132 0 233
-120 217 -257 -14 -113 -127 -248 -287 -343 -45 -27 -102 -66 -125 -86 -48
-43 -57 -45 -76 -21 -8 9 -54 43 -104 75 -135 87 -190 127 -226 164 -33 34
-33 34 -8 34 33 0 45 10 61 49 l14 34 28 -91 c47 -155 68 -149 110 33 15 66
29 122 31 123 2 2 22 -56 45 -130 23 -73 46 -148 52 -166 8 -25 15 -32 31 -30
16 2 27 24 57 113 l37 110 81 3 c80 3 82 3 82 28 l0 25 -102 -3 -101 -3 -27
-80 -27 -80 -46 145 c-25 80 -49 158 -53 173 -8 34 -32 46 -49 24 -6 -9 -24
-70 -39 -136 -15 -67 -29 -121 -31 -121 -2 0 -16 38 -31 85 -24 73 -31 85 -50
85 -19 0 -26 -11 -44 -65 -21 -63 -23 -65 -56 -65 -31 0 -37 4 -54 43 -26 55
-26 148 -1 202 34 74 118 132 192 134 14 1 48 -6 75 -16z m1275 -323 c18 -10
19 -24 19 -265 0 -246 -1 -255 -20 -265 -28 -15 -59 -3 -71 27 -5 13 -9 124
-9 246 0 185 3 226 16 245 17 24 35 28 65 12z m119 -99 c5 -11 10 -84 10 -166
0 -146 -7 -185 -35 -185 -13 0 -15 29 -15 185 0 156 2 185 15 185 8 0 19 -9
25 -19z m-790 -166 l0 -115 -35 0 -35 0 0 87 c0 81 2 89 27 115 15 15 30 28
35 28 4 0 8 -52 8 -115z m540 -1 l0 -115 -37 3 -38 3 -3 99 c-1 55 0 106 2
113 3 7 21 13 41 13 l35 0 0 -116z m-130 6 l0 -50 -175 0 -175 0 0 50 0 50
175 0 175 0 0 -50z m472 38 c31 -24 22 -88 -13 -88 -16 0 -19 7 -19 50 0 52 5
58 32 38z m-1012 -162 c0 -100 -3 -128 -16 -140 -21 -21 -40 -20 -64 4 -17 17
-20 33 -20 109 l0 90 43 30 c23 17 45 30 50 31 4 0 7 -56 7 -124z m-155 -64
c-11 -12 -40 15 -43 41 -2 17 4 30 20 41 23 17 23 16 26 -30 2 -25 0 -49 -3
-52z"/>
</g>
</svg>
