<?xml version="1.0" standalone="no"?>
<!DOCTYPE svg PUBLIC "-//W3C//DTD SVG 20010904//EN"
 "http://www.w3.org/TR/2001/REC-SVG-20010904/DTD/svg10.dtd">
<svg version="1.0" xmlns="http://www.w3.org/2000/svg"
 width="200.000000pt" height="200.000000pt" viewBox="0 0 200.000000 200.000000"
 preserveAspectRatio="xMidYMid meet">
<metadata>
Created by potrace 1.16, written by Peter Selinger 2001-2019
</metadata>
<g transform="translate(0.000000,200.000000) scale(0.100000,-0.100000)"
fill="#000000" stroke="none">
<path d="M262 1456 c-116 -53 -181 -180 -155 -301 9 -39 10 -40 53 -40 43 0
43 1 59 47 9 25 25 56 35 67 23 25 73 28 102 6 28 -21 31 -19 38 24 12 77 76
112 128 72 24 -19 36 -48 84 -199 3 -9 11 -7 33 9 26 19 39 21 136 17 103 -3
108 -4 131 -31 29 -34 31 -66 4 -100 -18 -23 -29 -26 -92 -29 l-71 -3 -34
-100 c-43 -131 -73 -156 -143 -120 -25 13 -33 28 -51 90 -12 41 -25 75 -28 75
-3 0 -13 -21 -21 -48 -13 -39 -20 -49 -49 -58 l-34 -11 69 -45 c38 -25 87 -61
108 -80 l39 -34 43 40 c23 23 84 66 136 96 119 70 243 191 282 273 70 150 26
305 -106 371 -112 56 -246 18 -327 -94 l-28 -38 -42 49 c-61 71 -118 101 -199
106 -45 2 -78 -1 -100 -11z"/>
<path d="M457 1283 c-3 -5 -17 -62 -32 -128 -16 -66 -31 -124 -35 -128 -4 -4
-17 27 -30 70 -37 127 -61 135 -95 33 l-22 -65 -109 -5 c-101 -5 -109 -7 -109
-25 0 -19 8 -20 126 -23 l127 -3 14 37 15 37 34 -99 c28 -81 38 -99 54 -99 17
0 24 16 48 115 15 63 30 126 33 140 5 19 19 -16 58 -142 28 -92 56 -172 63
-179 22 -22 39 6 74 121 l34 110 76 0 c78 0 106 12 90 38 -5 9 -35 12 -107 10
l-99 -3 -26 -80 c-26 -82 -29 -84 -47 -25 -85 277 -93 300 -112 300 -10 0 -21
-3 -23 -7z"/>
<path d="M1653 1130 c-40 -16 -43 -38 -43 -300 l0 -251 25 -24 c31 -32 74 -33
103 -2 21 23 22 30 22 284 0 235 -2 261 -17 276 -24 21 -63 28 -90 17z"/>
<path d="M1820 837 c0 -171 3 -218 13 -215 29 10 37 54 37 215 0 158 -1 163
-25 190 l-24 28 -1 -218z"/>
<path d="M1503 970 c-22 -9 -23 -14 -23 -133 0 -134 6 -152 52 -145 23 3 23 4
23 143 0 150 -2 155 -52 135z"/>
<path d="M251 951 c-23 -6 -23 -7 19 -44 23 -21 44 -37 46 -34 7 6 -22 81 -32
83 -5 1 -20 -1 -33 -5z"/>
<path d="M1022 917 c-32 -32 -32 -34 -32 -130 0 -94 1 -97 23 -97 47 0 52 12
55 131 2 61 0 115 -5 120 -5 5 -22 -5 -41 -24z"/>
<path d="M1120 830 l0 -80 150 0 150 0 0 80 0 80 -150 0 -150 0 0 -80z"/>
<path d="M1920 835 c0 -41 4 -75 9 -75 15 0 51 51 51 72 0 27 -17 56 -40 68
-19 10 -20 7 -20 -65z"/>
<path d="M853 783 l-73 -47 0 -82 c0 -77 2 -84 26 -103 35 -28 69 -26 99 4 24
23 25 30 25 150 0 69 -1 125 -2 125 -2 0 -36 -22 -75 -47z"/>
<path d="M698 679 c-24 -13 -23 -36 2 -49 18 -10 20 -8 20 25 0 19 -1 35 -2
35 -2 0 -11 -5 -20 -11z"/>
</g>
</svg>
