<?xml version="1.0" standalone="no"?>
<!DOCTYPE svg PUBLIC "-//W3C//DTD SVG 20010904//EN"
 "http://www.w3.org/TR/2001/REC-SVG-20010904/DTD/svg10.dtd">
<svg version="1.0" xmlns="http://www.w3.org/2000/svg"
 width="200.000000pt" height="200.000000pt" viewBox="0 0 200.000000 200.000000"
 preserveAspectRatio="xMidYMid meet">
<metadata>
Created by potrace 1.16, written by Peter Selinger 2001-2019
</metadata>
<g transform="translate(0.000000,200.000000) scale(0.100000,-0.100000)"
fill="#000000" stroke="none">
<path d="M533 1887 c-42 -24 -401 -377 -417 -411 -34 -72 -6 -144 72 -181 l42
-21 -46 -44 c-57 -56 -74 -88 -74 -138 0 -81 76 -142 157 -127 31 6 61 30 171
138 l132 132 332 -332 332 -332 -131 -134 c-105 -107 -133 -141 -138 -170 -16
-82 44 -157 124 -157 54 0 74 11 138 73 l52 50 7 -29 c24 -97 129 -135 210
-75 21 16 118 109 216 208 184 187 201 211 184 277 -9 38 -53 83 -92 96 l-36
12 45 47 c63 65 77 90 77 134 0 69 -39 116 -107 131 -54 12 -100 -17 -231
-147 l-122 -122 -332 333 -333 332 122 122 c155 157 170 187 139 263 -19 44
-69 75 -122 75 -44 0 -92 -29 -149 -89 l-29 -31 -21 42 c-35 73 -114 108 -172
75z m121 -53 c20 -20 26 -37 26 -68 0 -39 -5 -46 -203 -243 -197 -198 -204
-203 -243 -203 -46 0 -88 32 -96 73 -10 53 11 82 205 275 l193 192 46 0 c36 0
51 -6 72 -26z m324 -9 c15 -18 22 -39 22 -68 0 -42 -2 -43 -358 -399 -356
-356 -357 -358 -399 -358 -63 0 -98 34 -98 94 l0 46 350 351 c193 193 359 355
370 360 33 15 88 2 113 -26z m97 -755 l330 -330 -73 -72 -72 -73 -332 332
-333 333 70 70 c38 38 72 70 75 70 3 0 154 -148 335 -330z m748 -90 c34 -27
44 -78 24 -116 -19 -35 -682 -697 -716 -714 -60 -31 -131 20 -131 94 0 40 4
44 358 398 354 354 358 358 398 358 26 0 51 -7 67 -20z m-10 -312 c35 -18 46
-40 47 -87 l0 -45 -198 -198 -197 -198 -46 0 c-62 0 -99 35 -99 94 0 39 5 46
203 243 181 182 206 203 235 203 19 0 43 -5 55 -12z"/>
</g>
</svg>
