<?xml version="1.0" standalone="no"?>
<!DOCTYPE svg PUBLIC "-//W3C//DTD SVG 20010904//EN"
 "http://www.w3.org/TR/2001/REC-SVG-20010904/DTD/svg10.dtd">
<svg version="1.0" xmlns="http://www.w3.org/2000/svg"
 width="200.000000pt" height="200.000000pt" viewBox="0 0 200.000000 200.000000"
 preserveAspectRatio="xMidYMid meet">
<metadata>
Created by potrace 1.16, written by Peter Selinger 2001-2019
</metadata>
<g transform="translate(0.000000,200.000000) scale(0.100000,-0.100000)"
fill="#000000" stroke="none">
<path d="M515 1881 c-16 -10 -115 -104 -218 -208 -172 -173 -189 -193 -194
-231 -5 -38 -2 -45 30 -77 37 -37 70 -44 110 -24 31 16 395 379 413 411 23 44
17 77 -20 114 -39 39 -75 44 -121 15z"/>
<path d="M483 1517 l-373 -372 0 -43 c0 -61 41 -102 102 -102 l43 0 372 373
373 372 0 43 c0 61 -41 102 -101 102 l-43 0 -373 -373z"/>
<path d="M652 1347 l-72 -73 344 -349 344 -350 76 75 75 75 -342 348 c-188
191 -344 348 -347 347 -3 0 -38 -33 -78 -73z"/>
<path d="M1373 627 l-373 -372 0 -43 c0 -61 41 -102 101 -102 l43 0 373 373
373 373 0 43 c0 60 -41 101 -102 101 l-43 0 -372 -373z"/>
<path d="M1745 651 c-16 -10 -115 -104 -218 -208 -172 -173 -189 -193 -194
-231 -5 -38 -2 -45 30 -77 37 -37 70 -44 110 -24 32 16 396 379 414 413 21 40
10 89 -28 120 -36 31 -73 33 -114 7z"/>
</g>
</svg>
