<?xml version="1.0" standalone="no"?>
<!DOCTYPE svg PUBLIC "-//W3C//DTD SVG 20010904//EN"
 "http://www.w3.org/TR/2001/REC-SVG-20010904/DTD/svg10.dtd">
<svg version="1.0" xmlns="http://www.w3.org/2000/svg"
 width="200.000000pt" height="200.000000pt" viewBox="0 0 200.000000 200.000000"
 preserveAspectRatio="xMidYMid meet">
<metadata>
Created by potrace 1.16, written by Peter Selinger 2001-2019
</metadata>
<g transform="translate(0.000000,200.000000) scale(0.100000,-0.100000)"
fill="#000000" stroke="none">
<path d="M965 1688 c-75 -41 -50 -158 35 -158 82 0 112 118 39 155 -33 18 -47
18 -74 3z"/>
<path d="M697 1592 c-10 -10 -17 -24 -17 -30 0 -7 -11 -5 -29 6 -28 16 -31 15
-50 -2 -19 -17 -21 -31 -21 -116 0 -108 -12 -149 -57 -194 -44 -45 -82 -56
-191 -56 -86 0 -101 -3 -117 -20 -20 -22 -14 -64 11 -74 8 -3 73 -9 142 -12
l127 -6 19 36 c24 46 96 113 142 132 l34 14 -6 138 -6 137 24 -25 c108 -109
179 -195 189 -229 9 -31 23 -46 60 -70 l49 -30 49 30 c37 24 51 39 60 70 10
34 81 121 189 229 l24 25 -6 -137 -6 -138 34 -14 c46 -19 118 -86 142 -132
l19 -36 127 6 c69 3 134 9 142 12 25 10 31 52 11 74 -16 17 -31 20 -118 20
-122 0 -173 20 -215 83 -25 37 -27 51 -30 153 -3 97 -6 115 -24 130 -18 17
-21 18 -49 2 -22 -13 -29 -14 -29 -4 0 19 -33 46 -56 46 -11 0 -50 -31 -89
-70 -56 -57 -80 -74 -122 -86 -48 -14 -58 -14 -105 0 -43 12 -67 29 -123 86
-73 73 -99 84 -128 52z"/>
<path d="M374 1450 c-29 -11 -54 -49 -54 -78 0 -32 52 -82 85 -82 16 0 38 12
57 30 25 26 29 36 24 63 -11 55 -64 87 -112 67z"/>
<path d="M1564 1450 c-29 -11 -54 -49 -54 -78 0 -32 52 -82 85 -82 34 0 85 50
85 84 0 52 -68 96 -116 76z"/>
<path d="M673 1221 c-59 -27 -118 -93 -143 -159 -17 -45 -21 -74 -18 -139 1
-45 8 -86 13 -92 6 -6 40 1 95 19 263 89 565 80 831 -25 45 -17 52 172 10 259
-81 166 -255 204 -412 91 l-49 -35 -49 35 c-92 66 -195 83 -278 46z"/>
<path d="M796 855 c-98 -19 -236 -65 -317 -105 -33 -17 -62 -30 -63 -28 -2 2
-17 24 -36 50 l-33 47 -43 -30 -44 -30 82 -120 c45 -65 86 -119 90 -119 13 0
78 44 78 53 0 5 -14 28 -30 52 -17 24 -30 46 -30 48 0 2 39 22 88 45 302 140
661 133 965 -20 l58 -29 -36 -50 c-40 -56 -41 -53 27 -93 l27 -16 75 109 c42
60 79 116 82 124 4 11 -8 24 -35 43 -47 30 -44 32 -92 -43 l-21 -33 -41 24
c-63 37 -189 84 -286 108 -114 27 -351 34 -465 13z"/>
<path d="M846 769 c-57 -8 -175 -38 -225 -57 -23 -8 -22 -11 53 -100 90 -106
298 -297 326 -297 27 0 205 159 310 277 105 118 105 114 -18 147 -148 40 -307
50 -446 30z"/>
<path d="M232 649 c-32 -21 -32 -22 -16 -48 30 -47 65 -91 72 -91 4 1 20 11
36 24 l28 24 -38 55 c-22 31 -41 56 -44 56 -3 1 -20 -9 -38 -20z"/>
<path d="M1698 614 c-21 -29 -38 -56 -38 -61 1 -14 50 -44 60 -38 6 4 26 30
45 58 33 49 34 53 18 65 -43 32 -47 31 -85 -24z"/>
</g>
</svg>
