<?xml version="1.0" standalone="no"?>
<!DOCTYPE svg PUBLIC "-//W3C//DTD SVG 20010904//EN"
 "http://www.w3.org/TR/2001/REC-SVG-20010904/DTD/svg10.dtd">
<svg version="1.0" xmlns="http://www.w3.org/2000/svg"
 width="200.000000pt" height="200.000000pt" viewBox="0 0 200.000000 200.000000"
 preserveAspectRatio="xMidYMid meet">
<metadata>
Created by potrace 1.16, written by Peter Selinger 2001-2019
</metadata>
<g transform="translate(0.000000,200.000000) scale(0.100000,-0.100000)"
fill="#000000" stroke="none">
<path d="M954 1686 c-28 -13 -64 -66 -64 -96 0 -31 34 -80 66 -95 45 -21 83
-13 120 26 50 53 30 145 -38 168 -39 14 -46 13 -84 -3z m89 -68 c19 -25 19
-28 3 -52 -21 -34 -68 -35 -90 -4 -20 29 -20 30 5 62 26 33 55 31 82 -6z"/>
<path d="M690 1595 c-7 -8 -27 -15 -44 -15 -21 0 -40 -8 -54 -23 -19 -21 -22
-35 -22 -117 0 -112 -21 -167 -78 -202 -30 -18 -55 -23 -150 -27 -97 -5 -116
-9 -128 -25 -21 -29 -17 -61 10 -93 24 -28 25 -28 161 -32 134 -3 137 -3 131
-25 -25 -92 -8 -221 29 -221 16 0 20 6 17 30 -9 115 -6 162 16 210 72 158 221
190 374 80 l49 -36 49 36 c100 73 213 85 285 31 89 -68 128 -171 106 -280 -13
-61 -6 -84 22 -73 31 12 45 168 21 231 -4 10 24 14 133 19 132 6 139 8 161 32
25 30 28 63 8 91 -12 16 -31 20 -128 25 -95 4 -120 9 -150 27 -58 36 -78 90
-78 205 0 86 -2 98 -22 117 -12 11 -35 20 -54 20 -17 0 -37 7 -44 15 -7 8 -28
15 -48 15 -30 0 -46 -11 -112 -74 -122 -116 -178 -116 -300 0 -66 63 -82 74
-112 74 -20 0 -41 -7 -48 -15z m136 -104 c72 -69 114 -91 174 -91 60 0 102 22
174 91 40 38 81 69 90 69 30 0 17 -35 -30 -80 -93 -90 -144 -159 -160 -218
-11 -38 -26 -65 -45 -80 l-29 -24 -29 24 c-18 15 -34 43 -46 82 -18 59 -78
139 -169 225 -38 37 -47 71 -20 71 9 0 50 -31 90 -69z m-162 22 c3 -10 6 -78
8 -151 l2 -133 -30 -18 c-17 -10 -47 -37 -67 -61 l-36 -42 -127 1 c-126 2
-169 11 -161 34 2 8 41 14 109 17 95 5 111 9 155 36 74 45 103 110 103 229 0
50 3 95 7 98 12 13 32 7 37 -10z m716 -93 c6 -120 23 -166 76 -207 52 -39 101
-52 196 -53 51 0 90 -4 94 -11 15 -25 -20 -34 -151 -39 l-135 -5 -36 43 c-20
24 -50 52 -67 63 l-31 18 2 133 c3 151 7 170 30 166 14 -3 18 -21 22 -108z
m-520 -132 c27 -50 26 -60 -6 -48 -14 6 -47 10 -74 10 -58 0 -60 3 -60 118 l1
87 60 -65 c33 -36 69 -82 79 -102z m415 -15 c-5 -20 -12 -23 -55 -23 -27 0
-60 -4 -74 -10 -51 -19 -21 45 69 146 l60 68 3 -79 c2 -44 0 -90 -3 -102z"/>
<path d="M349 1431 c-85 -86 26 -225 129 -161 38 24 56 62 47 106 -15 83 -117
114 -176 55z m116 -41 c41 -46 -29 -116 -75 -75 -22 20 -27 64 -8 83 19 19 63
14 83 -8z"/>
<path d="M1505 1436 c-50 -50 -43 -125 15 -164 102 -69 218 72 131 159 -39 39
-109 41 -146 5z m113 -38 c19 -19 14 -63 -8 -83 -46 -41 -116 29 -75 75 20 22
64 27 83 8z"/>
<path d="M825 863 c-93 -13 -295 -81 -347 -117 -12 -9 -26 -16 -30 -16 -4 0
-24 25 -44 55 -20 30 -41 55 -46 55 -12 0 -100 -60 -110 -74 -4 -6 -1 -21 7
-33 21 -31 19 -35 -20 -62 -19 -13 -35 -28 -35 -32 0 -14 84 -138 96 -143 7
-2 29 7 49 21 l38 26 19 -27 c11 -14 25 -26 31 -26 19 1 107 69 107 83 0 7
-16 35 -34 63 l-35 52 79 36 c43 19 123 48 177 63 88 24 116 27 268 27 148 1
182 -2 259 -23 93 -24 252 -86 262 -102 3 -6 -9 -32 -26 -59 -18 -28 -30 -56
-27 -64 6 -16 90 -76 105 -76 6 0 19 12 30 26 l19 27 38 -26 c20 -14 42 -23
49 -21 14 6 96 127 96 142 0 6 -8 16 -17 21 -51 30 -55 37 -39 68 8 16 11 34
8 39 -12 16 -95 74 -108 74 -6 0 -28 -25 -48 -55 -20 -30 -38 -55 -39 -55 -2
0 -34 15 -73 34 -83 41 -210 82 -296 96 -60 9 -299 12 -363 3z m-410 -183 c65
-96 67 -101 49 -114 -10 -8 -22 -12 -27 -9 -10 6 -127 180 -127 189 0 5 24 27
36 34 0 0 31 -45 69 -100z m1275 67 c0 -9 -116 -184 -127 -190 -5 -3 -17 1
-27 8 -17 13 -15 20 49 114 61 89 70 98 86 88 11 -7 19 -15 19 -20z m-1360
-127 c18 -25 19 -34 10 -45 -19 -23 -33 -18 -57 20 -21 32 -21 35 -5 44 25 15
29 14 52 -19z m1391 20 c18 -10 18 -11 -4 -45 -24 -38 -38 -43 -57 -20 -9 11
-8 20 10 45 24 34 24 34 51 20z"/>
<path d="M604 715 c-8 -20 10 -46 99 -147 64 -73 280 -268 296 -268 18 0 248
210 319 291 77 89 94 120 73 133 -16 10 -35 -3 -68 -47 -41 -54 -148 -163
-246 -251 l-77 -68 -37 33 c-128 111 -192 173 -251 244 -86 102 -97 111 -108
80z"/>
</g>
</svg>
