<?xml version="1.0" standalone="no"?>
<!DOCTYPE svg PUBLIC "-//W3C//DTD SVG 20010904//EN"
 "http://www.w3.org/TR/2001/REC-SVG-20010904/DTD/svg10.dtd">
<svg version="1.0" xmlns="http://www.w3.org/2000/svg"
 width="200.000000pt" height="200.000000pt" viewBox="0 0 200.000000 200.000000"
 preserveAspectRatio="xMidYMid meet">
<metadata>
Created by potrace 1.16, written by Peter Selinger 2001-2019
</metadata>
<g transform="translate(0.000000,200.000000) scale(0.100000,-0.100000)"
fill="#000000" stroke="none">
<path d="M915 1707 c-68 -23 -101 -44 -148 -97 -68 -76 -77 -112 -77 -326 0
-161 2 -183 17 -188 11 -5 29 5 54 30 l38 37 50 -26 c64 -35 126 -46 196 -35
194 30 309 220 248 408 -23 71 -96 150 -165 180 -64 27 -158 35 -213 17z m113
-209 c3 -58 3 -58 35 -58 41 0 60 -13 55 -36 -3 -16 -13 -19 -73 -19 l-70 0
-3 74 c-4 89 1 103 30 99 20 -3 23 -10 26 -60z"/>
<path d="M158 1001 l-33 -29 0 -317 0 -317 33 -29 c27 -25 41 -29 87 -29 l55
0 0 214 c0 188 2 215 16 220 40 15 44 -7 44 -226 l0 -210 62 4 c51 4 65 9 85
32 20 23 23 38 23 102 l0 75 118 -8 c64 -4 223 -8 352 -8 129 0 288 4 353 8
l117 8 0 -76 c0 -71 2 -79 29 -106 l29 -29 141 0 141 0 32 29 33 29 0 317 0
317 -33 29 c-27 25 -41 29 -87 29 l-55 0 -2 -292 -3 -293 -25 0 -25 0 -3 293
-2 292 -56 0 c-48 0 -59 -4 -85 -29 -27 -27 -29 -35 -29 -106 l0 -76 -112 8
c-145 10 -558 10 -710 0 l-118 -8 0 76 c0 71 -2 79 -29 106 -26 25 -37 29 -85
29 l-56 0 0 -99 c0 -103 -11 -131 -45 -117 -12 4 -15 26 -15 111 l0 105 -55 0
c-46 0 -60 -4 -87 -29z"/>
</g>
</svg>
