<?xml version="1.0" standalone="no"?>
<!DOCTYPE svg PUBLIC "-//W3C//DTD SVG 20010904//EN"
 "http://www.w3.org/TR/2001/REC-SVG-20010904/DTD/svg10.dtd">
<svg version="1.0" xmlns="http://www.w3.org/2000/svg"
 width="200.000000pt" height="200.000000pt" viewBox="0 0 200.000000 200.000000"
 preserveAspectRatio="xMidYMid meet">
<metadata>
Created by potrace 1.16, written by Peter Selinger 2001-2019
</metadata>
<g transform="translate(0.000000,200.000000) scale(0.100000,-0.100000)"
fill="#000000" stroke="none">
<path d="M927 1710 c-93 -24 -167 -83 -208 -166 -22 -46 -24 -62 -27 -245 -3
-179 -2 -197 14 -203 12 -5 29 4 54 29 l37 36 49 -25 c75 -38 132 -48 200 -35
103 19 181 74 229 160 27 48 30 63 30 139 0 67 -5 96 -23 136 -29 63 -92 126
-154 154 -54 24 -148 33 -201 20z m178 -79 c91 -42 138 -119 139 -226 1 -84
-22 -135 -85 -189 -56 -47 -97 -60 -181 -54 -59 5 -77 11 -123 42 -52 37 -54
37 -79 21 l-26 -17 0 113 c0 63 5 132 11 154 16 61 58 114 114 146 42 24 61
29 120 29 47 0 83 -7 110 -19z"/>
<path d="M977 1554 c-12 -12 -8 -159 5 -172 12 -12 95 -16 122 -6 21 8 21 50
0 58 -9 3 -29 6 -44 6 -28 0 -29 2 -32 58 -3 49 -6 57 -23 60 -12 2 -24 0 -28
-4z"/>
<path d="M158 1001 l-33 -29 0 -317 0 -317 33 -30 34 -29 145 3 c145 3 145 3
169 31 21 25 24 38 24 109 0 69 2 79 16 74 9 -3 115 -12 235 -18 170 -9 268
-9 438 0 120 6 226 15 235 18 14 5 16 -5 16 -76 0 -77 2 -83 29 -111 l29 -29
140 0 c136 0 141 1 171 26 l31 26 0 323 0 323 -31 26 c-30 25 -35 26 -171 26
l-140 0 -29 -29 c-27 -27 -29 -35 -29 -106 l0 -76 -117 8 c-153 10 -566 10
-710 0 l-113 -8 0 76 c0 71 -2 79 -29 106 l-29 29 -141 0 -141 0 -32 -29z
m142 -106 c0 -58 3 -77 15 -81 31 -12 45 15 45 87 l0 69 43 0 c24 0 48 -5 55
-12 17 -17 17 -589 0 -606 -7 -7 -31 -12 -55 -12 l-43 0 0 179 c0 186 -5 210
-44 195 -14 -5 -16 -29 -16 -190 l0 -184 -39 0 c-76 0 -71 -21 -71 309 0 218
3 300 12 309 7 7 31 12 55 12 l43 0 0 -75z m1342 -187 l3 -263 25 0 25 0 3
263 2 262 43 0 c24 0 48 -5 55 -12 17 -17 17 -589 0 -606 -17 -17 -239 -17
-256 0 -17 17 -17 589 0 606 7 7 31 12 55 12 l43 0 2 -262z m-372 62 c80 -5
157 -12 173 -16 l27 -6 0 -92 0 -93 -37 -6 c-118 -20 -443 -29 -631 -18 -108
6 -214 14 -234 18 l-38 6 0 93 c0 111 -15 101 170 113 180 12 403 12 570 1z"/>
</g>
</svg>
