<?xml version="1.0" standalone="no"?>
<!DOCTYPE svg PUBLIC "-//W3C//DTD SVG 20010904//EN"
 "http://www.w3.org/TR/2001/REC-SVG-20010904/DTD/svg10.dtd">
<svg version="1.0" xmlns="http://www.w3.org/2000/svg"
 width="200.000000pt" height="200.000000pt" viewBox="0 0 200.000000 200.000000"
 preserveAspectRatio="xMidYMid meet">
<metadata>
Created by potrace 1.16, written by Peter Selinger 2001-2019
</metadata>
<g transform="translate(0.000000,200.000000) scale(0.100000,-0.100000)"
fill="#000000" stroke="none">
<path d="M1386 1779 c-37 -23 -55 -29 -77 -24 -57 13 -91 -4 -177 -89 -92 -89
-112 -119 -112 -166 0 -43 14 -66 73 -128 l52 -52 -232 -232 -232 -232 -59 56
c-104 100 -157 92 -285 -41 -92 -95 -109 -132 -89 -190 9 -25 7 -32 -10 -48
-45 -41 -60 -109 -37 -170 12 -32 211 -237 251 -259 56 -30 156 -8 193 43 9
11 16 12 40 3 55 -21 91 -5 182 83 92 89 113 119 113 167 0 43 -14 66 -73 128
l-52 52 233 232 232 233 52 -52 c62 -59 85 -73 128 -73 47 0 77 20 167 112 88
90 107 134 84 185 -10 22 -8 29 18 59 34 38 46 87 36 141 -5 30 -29 61 -118
152 -62 62 -126 120 -144 127 -53 23 -104 17 -157 -17z m107 -266 c180 -180
213 -220 203 -251 -4 -10 -29 -40 -56 -67 l-50 -50 -222 223 -223 222 50 50
c40 41 56 50 84 50 32 0 51 -16 214 -177z m-168 -193 c176 -176 217 -222 205
-230 -8 -5 -24 -10 -34 -10 -22 0 -402 372 -412 402 -6 20 3 58 14 58 4 0 106
-99 227 -220z m-603 -598 c195 -194 211 -216 188 -252 -8 -12 -54 30 -232 208
-178 178 -220 224 -208 232 36 23 58 7 252 -188z m-87 -92 l220 -220 -50 -50
c-78 -79 -76 -80 -292 127 -187 180 -218 217 -207 250 7 18 93 113 104 113 3
0 104 -99 225 -220z"/>
</g>
</svg>
