<?xml version="1.0" standalone="no"?>
<!DOCTYPE svg PUBLIC "-//W3C//DTD SVG 20010904//EN"
 "http://www.w3.org/TR/2001/REC-SVG-20010904/DTD/svg10.dtd">
<svg version="1.0" xmlns="http://www.w3.org/2000/svg"
 width="200.000000pt" height="200.000000pt" viewBox="0 0 200.000000 200.000000"
 preserveAspectRatio="xMidYMid meet">
<metadata>
Created by potrace 1.16, written by Peter Selinger 2001-2019
</metadata>
<g transform="translate(0.000000,200.000000) scale(0.100000,-0.100000)"
fill="#000000" stroke="none">
<path d="M1386 1779 c-37 -23 -55 -29 -77 -24 -57 13 -91 -4 -177 -89 -92 -89
-112 -119 -112 -166 0 -43 14 -66 73 -128 l52 -52 -233 -232 -232 -233 -52 52
c-62 59 -85 73 -128 73 -48 0 -78 -21 -167 -113 -87 -91 -107 -134 -85 -182 9
-20 7 -29 -12 -52 -35 -42 -46 -68 -46 -108 0 -61 24 -96 142 -212 91 -88 123
-113 151 -118 54 -10 103 2 141 36 30 26 37 28 62 18 54 -20 90 -3 181 84 92
89 113 119 113 167 0 43 -14 66 -73 128 l-52 52 232 232 232 231 60 -55 c104
-97 147 -92 273 30 99 95 121 139 100 195 -11 28 -9 34 12 57 47 50 58 105 35
167 -14 37 -215 241 -256 259 -53 23 -103 18 -157 -17z m127 -43 c18 -8 76
-58 130 -113 111 -112 124 -143 88 -200 -12 -18 -24 -33 -28 -33 -5 0 -77 69
-162 154 -98 99 -151 158 -146 166 7 11 61 39 78 40 4 0 22 -6 40 -14z m-9
-245 c225 -226 218 -211 135 -296 l-49 -50 -222 222 -223 223 50 50 c81 82 77
84 309 -149z m-179 -171 c176 -176 217 -222 205 -230 -8 -5 -24 -10 -34 -10
-22 0 -402 372 -412 402 -6 20 3 58 14 58 4 0 106 -99 227 -220z m-91 -89 c21
-22 37 -43 35 -48 -2 -4 -107 -109 -232 -233 l-228 -224 -42 42 -42 42 230
230 c126 127 232 230 235 230 3 0 23 -18 44 -39z m-512 -509 c195 -194 211
-216 188 -252 -8 -12 -54 30 -232 208 -178 178 -220 224 -208 232 36 23 58 7
252 -188z m-87 -92 l220 -220 -50 -50 c-40 -41 -56 -50 -84 -50 -32 0 -51 16
-214 177 -165 164 -207 214 -207 243 0 12 98 120 109 120 3 0 105 -99 226
-220z m-176 -174 c90 -90 151 -158 147 -165 -4 -6 -21 -18 -38 -27 -56 -29
-84 -14 -206 110 -91 92 -112 118 -112 142 0 29 33 94 47 94 5 0 77 -69 162
-154z"/>
</g>
</svg>
