<?xml version="1.0" standalone="no"?>
<!DOCTYPE svg PUBLIC "-//W3C//DTD SVG 20010904//EN"
 "http://www.w3.org/TR/2001/REC-SVG-20010904/DTD/svg10.dtd">
<svg version="1.0" xmlns="http://www.w3.org/2000/svg"
 width="200.000000pt" height="200.000000pt" viewBox="0 0 200.000000 200.000000"
 preserveAspectRatio="xMidYMid meet">
<metadata>
Created by potrace 1.16, written by Peter Selinger 2001-2019
</metadata>
<g transform="translate(0.000000,200.000000) scale(0.100000,-0.100000)"
fill="#000000" stroke="none">
<path d="M1435 1933 c-30 -31 -55 -64 -55 -72 0 -24 401 -421 425 -421 26 0
128 102 123 123 -4 22 -407 427 -423 427 -8 0 -39 -26 -70 -57z"/>
<path d="M1689 1921 l-24 -20 85 -85 c46 -47 89 -86 94 -86 15 0 35 34 36 60
0 18 -18 44 -63 88 -67 67 -90 74 -128 43z"/>
<path d="M1159 1883 c-87 -81 -104 -53 257 -414 175 -175 324 -319 329 -319
16 0 125 114 125 130 0 18 -630 650 -648 650 -7 0 -35 -21 -63 -47z"/>
<path d="M1251 1486 l-43 -44 31 -16 c17 -9 60 -44 96 -78 l66 -61 35 34 34
34 -88 88 -88 87 -43 -44z"/>
<path d="M901 1484 c-34 -43 -27 -69 36 -135 l57 -60 55 56 56 56 -57 54 c-46
45 -62 55 -91 55 -26 0 -41 -7 -56 -26z"/>
<path d="M731 1374 c-38 -48 -29 -69 74 -173 l95 -96 0 40 c0 30 8 50 31 79
l32 38 -69 69 c-60 61 -73 69 -106 69 -28 0 -42 -6 -57 -26z"/>
<path d="M1047 1281 c-83 -84 -107 -114 -107 -135 0 -39 15 -61 49 -75 35 -15
69 -1 115 48 40 42 60 41 52 -1 -25 -138 -16 -201 41 -275 35 -46 42 -73 19
-73 -19 0 -63 53 -89 107 -12 24 -24 43 -27 43 -3 0 -68 -63 -144 -139 -95
-95 -137 -144 -133 -155 3 -8 32 -35 64 -60 56 -44 133 -76 185 -76 17 0 86
-63 263 -240 222 -222 242 -240 275 -240 32 0 49 14 188 153 138 138 152 155
152 187 0 32 -17 52 -219 254 l-218 218 -7 71 c-18 199 -107 365 -250 469 -69
50 -87 43 -209 -81z"/>
<path d="M633 1240 c-27 -11 -43 -40 -43 -75 0 -20 20 -48 78 -107 109 -113
135 -123 190 -75 43 40 31 71 -65 168 -89 89 -119 106 -160 89z"/>
<path d="M505 1055 c-41 -40 -34 -75 32 -145 56 -61 98 -90 128 -90 29 0 65
46 65 83 0 29 -11 44 -74 105 -83 80 -110 89 -151 47z"/>
<path d="M920 1021 c0 -48 -66 -111 -117 -111 -13 0 -23 -13 -33 -42 -26 -74
-99 -106 -164 -73 -28 15 -31 15 -63 -17 l-33 -32 87 -88 88 -88 207 207 c186
185 208 211 208 240 0 38 1 38 -36 18 -36 -19 -72 -19 -104 0 -35 20 -40 19
-40 -14z"/>
<path d="M161 883 c-28 -31 -51 -62 -51 -68 0 -17 634 -645 651 -645 16 0 129
111 129 127 0 4 -143 151 -318 326 -221 221 -324 317 -339 317 -13 0 -40 -21
-72 -57z"/>
<path d="M106 601 c-32 -32 -57 -64 -55 -69 9 -26 409 -422 426 -422 25 0 123
100 123 125 0 24 -397 425 -420 425 -9 0 -42 -27 -74 -59z"/>
<path d="M116 348 c-28 -40 -19 -62 52 -131 71 -68 84 -72 126 -42 17 13 13
20 -65 104 -46 50 -87 91 -91 91 -4 0 -14 -10 -22 -22z"/>
</g>
</svg>
