<?xml version="1.0" standalone="no"?>
<!DOCTYPE svg PUBLIC "-//W3C//DTD SVG 20010904//EN"
 "http://www.w3.org/TR/2001/REC-SVG-20010904/DTD/svg10.dtd">
<svg version="1.0" xmlns="http://www.w3.org/2000/svg"
 width="200.000000pt" height="200.000000pt" viewBox="0 0 200.000000 200.000000"
 preserveAspectRatio="xMidYMid meet">
<metadata>
Created by potrace 1.16, written by Peter Selinger 2001-2019
</metadata>
<g transform="translate(0.000000,200.000000) scale(0.100000,-0.100000)"
fill="#000000" stroke="none">
<path d="M333 1650 c-34 -14 -43 -42 -43 -127 l0 -78 -50 3 c-44 4 -53 1 -80
-26 l-30 -30 0 -155 c0 -141 2 -157 21 -181 18 -23 28 -26 80 -26 l59 0 0 -79
c0 -70 3 -83 24 -108 23 -26 29 -28 104 -28 71 0 83 3 106 24 25 24 26 29 26
143 l0 118 304 0 c244 0 312 3 346 15 80 28 186 13 246 -34 l25 -20 49 31 c28
17 69 33 94 35 l46 6 0 128 c0 121 -1 129 -24 156 -21 24 -31 28 -80 28 l-56
0 0 72 c0 123 -27 148 -151 141 -103 -6 -109 -16 -109 -169 l0 -119 -345 0
-345 0 0 119 c0 156 -6 165 -117 168 -43 2 -88 -1 -100 -7z m321 -376 c9 -23
-2 -34 -34 -34 -32 0 -45 13 -36 35 7 20 62 19 70 -1z m211 -9 c0 -15 -8 -21
-29 -23 -33 -4 -51 10 -42 33 9 25 71 16 71 -10z m210 0 c0 -15 -8 -21 -29
-23 -33 -4 -51 10 -42 33 9 25 71 16 71 -10z m-317 -52 c3 -20 -1 -23 -31 -23
-37 0 -54 19 -34 39 20 20 62 9 65 -16z m210 0 c3 -20 -1 -23 -32 -23 -28 0
-36 4 -36 18 0 26 10 33 40 30 17 -2 26 -10 28 -25z m210 0 c3 -20 -1 -23 -32
-23 -28 0 -36 4 -36 18 0 26 10 33 40 30 17 -2 26 -10 28 -25z"/>
<path d="M1216 1065 c-51 -18 -102 -69 -122 -122 -38 -99 7 -247 116 -380 53
-65 183 -181 236 -209 30 -16 32 -16 70 10 128 87 250 219 306 333 36 73 41
91 42 155 0 57 -4 82 -22 115 -68 128 -243 150 -337 42 l-30 -34 -41 42 c-61
60 -136 77 -218 48z m158 -66 c41 -28 56 -51 71 -109 8 -34 16 -45 30 -45 15
0 21 10 27 44 10 59 48 106 102 126 56 21 104 14 146 -22 44 -36 62 -78 61
-138 -1 -130 -115 -294 -294 -423 l-45 -32 -59 43 c-148 110 -268 280 -279
397 -14 143 128 236 240 159z"/>
</g>
</svg>
