<?xml version="1.0" standalone="no"?>
<!DOCTYPE svg PUBLIC "-//W3C//DTD SVG 20010904//EN"
 "http://www.w3.org/TR/2001/REC-SVG-20010904/DTD/svg10.dtd">
<svg version="1.0" xmlns="http://www.w3.org/2000/svg"
 width="200.000000pt" height="200.000000pt" viewBox="0 0 200.000000 200.000000"
 preserveAspectRatio="xMidYMid meet">
<metadata>
Created by potrace 1.16, written by Peter Selinger 2001-2019
</metadata>
<g transform="translate(0.000000,200.000000) scale(0.100000,-0.100000)"
fill="#000000" stroke="none">
<path d="M333 1650 c-34 -14 -43 -42 -43 -127 l0 -78 -50 3 c-44 4 -53 1 -80
-26 l-30 -30 0 -155 c0 -141 2 -157 21 -181 18 -23 28 -26 80 -26 l59 0 0 -79
c0 -70 3 -83 24 -108 23 -26 29 -28 104 -28 71 0 83 3 106 24 25 24 26 29 26
143 l0 118 353 0 c267 0 357 3 370 13 15 10 17 40 19 247 l3 235 75 0 75 0 3
-278 c2 -240 4 -279 18 -284 32 -12 38 14 38 184 l1 168 44 3 c28 2 47 -1 52
-10 5 -7 9 -70 9 -139 0 -99 3 -128 14 -132 29 -11 36 17 36 149 0 126 -1 134
-24 161 -21 24 -31 28 -80 28 l-56 0 0 72 c0 123 -27 148 -151 141 -103 -6
-109 -16 -109 -169 l0 -119 -345 0 -345 0 0 119 c0 156 -6 165 -117 168 -43 2
-88 -1 -100 -7z m162 -415 l0 -360 -75 0 -75 0 -3 350 c-1 192 0 356 3 363 3
9 25 12 77 10 l73 -3 0 -360z m-210 0 l0 -150 -44 -3 c-28 -2 -47 1 -52 10
-10 15 -12 258 -3 283 5 12 17 15 53 13 l46 -3 0 -150z m955 0 l0 -75 -345 0
-345 0 0 75 0 75 345 0 345 0 0 -75z"/>
<path d="M584 1275 c-9 -23 9 -37 42 -33 21 2 29 8 29 23 0 26 -62 35 -71 10z"/>
<path d="M794 1275 c-9 -23 9 -37 42 -33 21 2 29 8 29 23 0 26 -62 35 -71 10z"/>
<path d="M1004 1275 c-9 -23 9 -37 42 -33 21 2 29 8 29 23 0 26 -62 35 -71 10z"/>
<path d="M692 1227 c-19 -23 9 -52 42 -43 21 5 27 12 24 29 -4 26 -48 36 -66
14z"/>
<path d="M904 1226 c-9 -23 3 -46 23 -46 28 0 45 16 41 36 -4 25 -56 32 -64
10z"/>
<path d="M1117 1234 c-14 -14 -7 -43 12 -49 29 -9 52 5 49 29 -3 21 -46 35
-61 20z"/>
<path d="M1216 1065 c-51 -18 -102 -69 -122 -122 -38 -99 7 -247 116 -380 53
-65 183 -181 236 -209 30 -16 32 -16 70 10 128 87 250 219 306 333 36 73 41
91 42 155 0 57 -4 82 -22 115 -68 128 -243 150 -337 42 l-30 -34 -41 42 c-61
60 -136 77 -218 48z m158 -66 c41 -28 56 -51 71 -109 8 -34 16 -45 30 -45 15
0 21 10 27 44 10 59 48 106 102 126 56 21 104 14 146 -22 44 -36 62 -78 61
-138 -1 -130 -115 -294 -294 -423 l-45 -32 -59 43 c-148 110 -268 280 -279
397 -14 143 128 236 240 159z"/>
</g>
</svg>
