<?xml version="1.0" standalone="no"?>
<!DOCTYPE svg PUBLIC "-//W3C//DTD SVG 20010904//EN"
 "http://www.w3.org/TR/2001/REC-SVG-20010904/DTD/svg10.dtd">
<svg version="1.0" xmlns="http://www.w3.org/2000/svg"
 width="200.000000pt" height="200.000000pt" viewBox="0 0 200.000000 200.000000"
 preserveAspectRatio="xMidYMid meet">
<metadata>
Created by potrace 1.16, written by Peter Selinger 2001-2019
</metadata>
<g transform="translate(0.000000,200.000000) scale(0.100000,-0.100000)"
fill="#000000" stroke="none">
<path d="M1223 1676 c-39 -35 -40 -35 -58 -16 -25 27 -77 43 -106 31 -13 -5
-57 -43 -96 -84 -100 -102 -100 -123 -5 -220 l67 -67 -240 -240 -239 -240 -28
27 -27 26 31 31 c17 17 42 55 56 85 21 46 24 63 20 125 -10 156 -124 265 -278
266 -115 0 -223 -75 -265 -183 -22 -57 -17 -164 10 -217 21 -43 81 -107 118
-126 l27 -15 -22 -29 c-30 -41 -28 -84 7 -120 l28 -29 -38 -42 c-32 -36 -36
-46 -32 -77 4 -19 16 -45 28 -58 19 -21 21 -27 11 -49 -37 -81 37 -158 122
-126 24 10 32 8 58 -14 43 -37 88 -34 136 10 l38 34 27 -26 c43 -44 87 -37
146 21 l48 47 28 -37 c57 -74 53 -74 570 -74 528 0 520 -1 569 83 l26 44 -2
339 -3 339 -22 3 c-50 7 -123 -61 -123 -115 0 -16 -8 -25 -26 -29 -43 -11
-139 4 -199 31 l-57 25 -332 -181 c-182 -100 -347 -194 -367 -210 l-36 -28
-44 45 -44 44 240 240 240 240 67 -67 c58 -58 73 -67 103 -67 31 0 46 10 115
80 95 94 104 120 65 178 -26 38 -26 39 -7 60 49 54 54 100 15 146 -22 27 -25
35 -15 51 7 10 12 34 12 53 0 63 -83 107 -142 75 -16 -9 -24 -7 -43 11 -12 11
-38 23 -57 27 -31 4 -41 0 -75 -31z m200 -115 c118 -119 125 -136 80 -183
l-27 -29 -133 133 -133 132 27 28 c47 49 67 40 186 -81z m-109 -110 c189 -189
208 -211 202 -235 -3 -14 -10 -26 -14 -26 -16 0 -454 448 -448 459 21 33 56 6
260 -198z m167 179 c19 -11 27 -59 12 -74 -9 -8 -84 65 -77 76 7 11 41 10 65
-2z m-231 -245 l225 -226 -52 -49 c-28 -28 -60 -50 -69 -50 -24 0 -434 410
-434 433 0 17 85 117 99 117 3 0 107 -101 231 -225z m-824 -46 c84 -40 136
-124 136 -219 1 -74 -25 -132 -79 -180 -57 -50 -98 -63 -183 -58 -57 3 -77 9
-112 34 -71 49 -102 103 -106 184 -2 37 1 84 7 103 16 48 73 111 123 136 58
29 156 29 214 0z m679 -99 l49 -50 -27 -27 -27 -28 -52 52 -52 52 24 26 c13
14 26 25 30 25 3 0 28 -23 55 -50z m-80 -80 l50 -50 -160 -160 -160 -160 -52
52 -53 53 157 157 c87 87 160 158 163 158 3 0 28 -23 55 -50z m895 -130 c0
-23 -7 -33 -30 -45 -37 -19 -40 -19 -40 5 0 22 41 70 60 70 5 0 10 -13 10 -30z
m-332 -90 c75 -29 155 -35 232 -17 36 8 73 17 83 22 16 6 17 -1 17 -93 l0 -99
-47 -18 c-96 -37 -193 -170 -193 -265 l0 -30 -299 0 -298 0 -77 100 c-73 95
-76 100 -55 110 18 10 25 8 48 -13 34 -32 64 -47 93 -47 35 0 308 154 346 196
29 30 33 42 30 72 -3 21 -8 44 -12 53 -5 11 3 20 26 31 43 22 44 22 106 -2z
m-160 -82 c3 -31 -2 -40 -30 -61 -65 -48 -286 -167 -309 -167 -13 1 -37 11
-52 24 l-29 23 34 21 c29 18 35 19 49 6 25 -23 42 -18 35 11 -5 21 -1 28 26
45 32 19 32 19 53 0 30 -28 38 -25 31 10 -5 27 -1 33 26 50 32 19 32 19 55 -2
18 -17 26 -19 35 -10 9 9 9 15 0 24 -20 20 -14 33 21 51 43 21 51 17 55 -25z
m-814 -147 c136 -136 157 -162 151 -181 -4 -12 -7 -37 -7 -55 0 -24 -8 -41
-29 -61 l-30 -28 -224 224 -225 225 78 6 c43 3 87 11 98 17 10 6 21 12 24 12
3 0 77 -71 164 -159z m61 99 l49 -50 -24 -25 -24 -25 -53 52 -53 52 22 23 c12
13 24 23 28 23 3 0 28 -22 55 -50z m-225 -225 c180 -180 222 -227 210 -235 -8
-5 -22 -10 -30 -10 -18 0 -430 410 -430 427 0 17 11 43 19 43 3 0 107 -101
231 -225z m1470 -10 l0 -135 -100 0 -100 0 0 33 c0 46 41 126 86 168 36 34 89
68 107 69 4 0 7 -61 7 -135z m-1535 -55 l129 -130 -29 -30 c-16 -16 -38 -30
-49 -30 -27 0 -246 217 -246 244 0 18 46 76 60 76 3 0 64 -58 135 -130z m585
5 l62 -80 -108 -3 c-59 -1 -114 0 -121 2 -34 13 4 116 55 151 20 14 39 21 43
17 4 -4 35 -43 69 -87z m-669 -158 c-5 -5 -21 -7 -37 -5 -32 3 -52 42 -40 74
6 15 12 12 46 -21 23 -22 36 -43 31 -48z m1581 1 l-32 -33 -478 -3 -478 -3
-34 23 c-72 49 -80 48 506 48 l549 0 -33 -32z"/>
<path d="M187 1220 c-44 -52 -37 -81 40 -161 92 -95 101 -95 201 13 61 67 67
99 25 148 -24 29 -30 31 -67 25 -23 -3 -52 -6 -66 -6 -14 0 -43 3 -66 6 -37 6
-43 4 -67 -25z m103 -25 c7 -8 20 -15 30 -15 10 0 23 7 30 15 15 18 61 20 78
3 25 -25 13 -61 -40 -115 -29 -29 -59 -53 -67 -53 -22 0 -121 101 -121 123 0
51 60 79 90 42z"/>
<path d="M1439 701 c-35 -35 -39 -44 -39 -91 0 -47 4 -56 39 -91 32 -33 45
-39 80 -39 54 0 97 22 121 63 55 90 -11 197 -121 197 -35 0 -48 -6 -80 -39z
m156 -27 c55 -59 15 -154 -64 -154 -47 0 -77 21 -91 64 -9 28 -8 40 4 65 20
38 41 50 89 51 28 0 44 -7 62 -26z"/>
<path d="M1490 650 c-32 -32 -24 -75 18 -91 56 -21 98 54 54 94 -25 22 -48 21
-72 -3z m56 -31 c10 -17 -13 -36 -27 -22 -12 12 -4 33 11 33 5 0 12 -5 16 -11z"/>
</g>
</svg>
