<?xml version="1.0" standalone="no"?>
<!DOCTYPE svg PUBLIC "-//W3C//DTD SVG 20010904//EN"
 "http://www.w3.org/TR/2001/REC-SVG-20010904/DTD/svg10.dtd">
<svg version="1.0" xmlns="http://www.w3.org/2000/svg"
 width="200.000000pt" height="200.000000pt" viewBox="0 0 200.000000 200.000000"
 preserveAspectRatio="xMidYMid meet">
<metadata>
Created by potrace 1.16, written by Peter Selinger 2001-2019
</metadata>
<g transform="translate(0.000000,200.000000) scale(0.100000,-0.100000)"
fill="#000000" stroke="none">
<path d="M1183 1919 c-65 -32 -88 -77 -88 -170 0 -55 5 -83 18 -103 l18 -27
-50 -59 c-27 -33 -62 -80 -78 -104 -15 -25 -30 -45 -33 -46 -3 0 -16 21 -30
46 -13 26 -37 67 -52 91 l-28 44 -83 -3 -82 -3 -3 -82 -3 -82 35 -18 c22 -11
53 -46 85 -94 66 -100 121 -149 164 -149 37 0 64 16 124 73 l42 40 9 -39 c6
-22 16 -66 23 -98 13 -58 12 -60 -11 -75 -14 -9 -52 -37 -85 -62 l-60 -45 -40
23 c-39 22 -47 23 -317 23 -300 0 -300 0 -314 56 -4 15 -31 40 -75 70 -101 67
-159 144 -174 231 -13 78 -72 64 -61 -15 12 -89 97 -203 200 -268 l46 -29 0
-397 0 -396 -30 -30 c-41 -42 -41 -92 -1 -133 l29 -29 807 0 c884 0 849 -2
875 59 14 35 8 69 -19 102 -18 22 -28 24 -124 27 l-105 4 34 56 c19 32 34 61
34 67 0 5 -55 66 -122 136 -68 69 -137 143 -155 163 l-31 37 15 134 c14 128
14 143 -6 312 -12 98 -21 184 -21 190 0 9 10 8 35 -4 38 -18 39 -22 50 -145 4
-45 1 -74 -7 -87 -17 -27 5 -96 38 -117 31 -21 106 -14 143 14 20 15 25 27 23
53 -1 19 -2 87 -1 151 2 249 -58 333 -284 399 -72 21 -76 23 -65 43 7 12 12
55 12 96 1 92 -23 138 -88 169 -53 26 -80 26 -133 0z m125 -65 c12 -8 22 -22
22 -31 0 -23 -108 -13 -126 12 -11 15 -11 20 -1 27 21 13 81 9 105 -8z m-85
-99 c31 -8 34 -17 12 -35 -23 -19 -18 -46 13 -69 l27 -20 -33 -1 c-54 0 -82
36 -82 106 0 54 1 56 18 41 9 -8 29 -19 45 -22z m117 -40 c0 -35 -5 -41 -27
-27 -15 10 -4 62 13 62 9 0 14 -12 14 -35z m16 -160 c12 -18 25 -98 45 -263
16 -130 29 -242 29 -249 0 -14 -37 -5 -125 31 l-60 25 -28 116 -27 116 31 44
c33 46 33 75 0 75 -12 0 -38 -23 -67 -60 -26 -33 -52 -60 -57 -60 -17 0 -57
42 -57 60 0 16 98 146 128 168 10 8 31 10 57 7 22 -4 51 -2 65 4 38 15 48 13
66 -14z m177 -37 c26 -11 47 -24 47 -28 0 -4 -13 -26 -30 -48 l-30 -42 -35 17
c-36 17 -39 24 -49 96 -5 38 -4 39 22 32 15 -4 48 -16 75 -27z m-644 -98 c61
-108 75 -122 99 -98 9 9 17 6 37 -12 14 -13 25 -27 25 -31 0 -17 -70 -61 -87
-55 -21 7 -87 89 -127 159 -16 26 -41 54 -57 63 -24 12 -29 21 -29 49 0 34 1
35 38 35 38 0 38 0 101 -110z m768 -17 c13 -30 17 -73 18 -195 l1 -157 -29 -7
c-15 -3 -31 -3 -34 0 -3 3 -7 65 -9 138 -2 73 -7 147 -13 165 -7 25 -5 36 12
62 12 17 26 31 30 31 4 0 15 -17 24 -37z m-260 -426 c39 -9 41 -12 37 -41 -2
-17 -9 -71 -15 -121 -7 -58 -15 -93 -25 -98 -8 -4 -14 -19 -14 -32 0 -20 5
-25 26 -25 26 0 51 -21 113 -99 l33 -42 -22 -24 -22 -23 -104 74 c-88 64 -105
81 -113 112 -14 51 -28 158 -36 275 l-7 98 53 -22 c30 -12 73 -26 96 -32z
m-207 -5 c0 -16 3 -63 6 -104 l7 -75 -33 -12 c-18 -6 -37 -11 -41 -11 -13 0
-80 120 -73 131 8 14 117 99 127 99 4 0 7 -13 7 -28z m-248 -48 l28 -14 -28
-42 c-27 -41 -27 -44 -32 -241 l-5 -200 -88 -30 c-143 -47 -132 -72 53 -112
69 -15 127 -29 129 -31 2 -2 -72 -4 -165 -4 l-170 0 -12 45 c-18 69 -42 79
-189 84 l-123 3 0 282 0 281 287 -3 c227 -3 292 -6 315 -18z m144 -272 c-7
-15 -19 -53 -26 -84 -6 -32 -15 -58 -19 -58 -5 0 -23 3 -40 6 l-31 6 0 140 c0
112 3 144 16 164 l17 25 49 -86 c46 -81 48 -87 34 -113z m141 6 c7 -33 20 -69
28 -78 9 -10 74 -58 143 -106 172 -118 161 -106 149 -158 -11 -49 -35 -66 -90
-66 -32 0 -36 5 -162 221 -72 122 -131 228 -133 235 -3 11 36 25 48 16 2 -2
10 -30 17 -64z m1 -196 c44 -76 90 -154 102 -175 l22 -37 -151 0 -151 0 9 23
c4 12 23 93 41 179 18 87 36 155 41 153 4 -3 43 -67 87 -143z m448 -151 c-26
-43 -44 -61 -58 -61 -17 0 -19 4 -14 28 3 15 9 47 12 72 5 42 4 46 -25 65
l-30 20 21 23 22 23 54 -55 55 -54 -37 -61z m-653 129 c12 -11 -12 -120 -26
-120 -12 0 -80 17 -107 26 -9 4 2 12 30 23 41 15 45 20 48 54 3 34 6 37 25 31
12 -3 26 -10 30 -14z m-435 -162 l3 -28 -125 0 -126 0 0 30 0 31 123 -3 122
-3 3 -27z m-264 -94 c9 -3 16 -17 16 -30 0 -19 -5 -24 -25 -24 -30 0 -43 24
-25 45 14 17 13 17 34 9z m206 -24 l0 -30 -62 0 -63 0 -1 30 -1 30 63 0 64 0
0 -30z m118 13 c13 -26 4 -43 -23 -43 -13 0 -25 6 -28 13 -6 17 11 47 28 47 8
0 18 -8 23 -17z m198 -13 l-1 -30 -62 0 -63 0 0 30 0 30 64 0 63 0 -1 -30z
m114 15 c18 -21 5 -45 -25 -45 -40 0 -34 54 6 59 4 1 12 -6 19 -14z m200 -15
l0 -30 -65 0 -65 0 0 30 0 30 65 0 65 0 0 -30z m110 15 c17 -20 5 -45 -20 -45
-11 0 -23 7 -26 15 -6 15 11 45 26 45 4 0 13 -7 20 -15z m200 -15 l0 -30 -65
0 -65 0 0 30 0 30 65 0 65 0 0 -30z m104 24 c9 -3 16 -17 16 -30 0 -19 -5 -24
-25 -24 -30 0 -43 24 -25 45 14 17 13 17 34 9z m206 -24 l0 -30 -62 0 -63 0
-1 30 -1 30 63 0 64 0 0 -30z m118 13 c13 -26 4 -43 -23 -43 -13 0 -25 6 -28
13 -6 17 11 47 28 47 8 0 18 -8 23 -17z"/>
</g>
</svg>
