<?xml version="1.0" standalone="no"?>
<!DOCTYPE svg PUBLIC "-//W3C//DTD SVG 20010904//EN"
 "http://www.w3.org/TR/2001/REC-SVG-20010904/DTD/svg10.dtd">
<svg version="1.0" xmlns="http://www.w3.org/2000/svg"
 width="200.000000pt" height="200.000000pt" viewBox="0 0 200.000000 200.000000"
 preserveAspectRatio="xMidYMid meet">
<metadata>
Created by potrace 1.16, written by Peter Selinger 2001-2019
</metadata>
<g transform="translate(0.000000,200.000000) scale(0.100000,-0.100000)"
fill="#000000" stroke="none">
<path d="M872 1816 c-35 -13 -72 -32 -83 -41 -25 -23 -24 -69 1 -111 14 -22
20 -47 19 -77 -2 -38 3 -51 35 -91 21 -25 47 -46 57 -46 11 0 19 -4 19 -10 0
-5 -7 -10 -15 -10 -54 0 -123 -67 -139 -132 -3 -15 -16 -43 -27 -63 l-21 -35
-29 40 c-34 46 -37 64 -10 55 69 -22 127 86 87 163 -35 69 -95 88 -144 47 -40
-34 -171 -63 -208 -46 -40 18 -64 13 -96 -19 -28 -29 -30 -35 -26 -87 4 -48
10 -61 37 -85 38 -34 91 -38 121 -8 16 16 27 18 57 12 37 -8 37 -8 68 -107 17
-55 37 -111 44 -125 23 -44 64 -80 89 -80 31 0 114 63 148 112 15 21 30 38 35
38 13 0 59 -107 65 -153 l6 -43 -103 -23 c-261 -58 -285 -67 -319 -124 -25
-41 -25 -64 5 -224 35 -189 35 -207 0 -243 -15 -16 -43 -34 -61 -40 -52 -18
-56 -64 -6 -77 39 -9 213 13 230 30 11 12 12 27 4 81 -8 47 -8 95 0 159 5 51
8 115 5 144 l-5 51 36 7 c20 3 45 8 55 11 11 4 17 0 17 -10 0 -21 30 -20 143
5 113 25 154 20 155 -19 0 -31 44 -188 61 -220 23 -42 61 -52 204 -52 146 0
175 -9 163 -48 -4 -12 -20 -31 -37 -42 -43 -31 -37 -47 19 -54 100 -12 120 1
157 109 31 90 30 97 -11 129 -21 16 -51 31 -68 32 -17 1 -50 9 -74 18 -24 9
-76 22 -115 29 -71 12 -72 12 -71 42 1 17 10 64 22 105 40 146 37 216 -13 266
-22 22 -24 33 -32 214 -8 166 -12 194 -30 218 -22 31 -100 77 -156 92 -50 14
-63 46 -48 113 18 81 14 160 -10 191 -11 14 -26 26 -34 26 -7 0 -18 7 -25 15
-18 21 -75 18 -148 -9z m90 -146 c16 -38 40 -52 53 -30 9 15 25 2 25 -19 0
-10 -9 -21 -20 -24 -25 -6 -26 -37 -2 -44 11 -2 23 -22 31 -50 12 -39 12 -49
-3 -79 -14 -30 -60 -65 -70 -53 -2 2 -6 23 -9 46 -5 39 -3 44 24 60 29 17 40
53 17 53 -7 0 -32 -10 -56 -22 l-43 -23 -29 35 c-23 29 -28 44 -28 88 1 50 2
54 33 66 18 8 36 19 39 25 12 19 20 12 38 -29z m-287 -222 c-4 -23 0 -45 13
-70 17 -33 18 -38 4 -38 -9 0 -26 10 -39 22 -38 36 -28 118 14 118 10 0 12 -9
8 -32z m64 -46 c1 -7 -3 -10 -9 -7 -5 3 -10 18 -9 33 0 24 1 25 9 7 5 -11 9
-26 9 -33z m408 32 l22 -6 -20 -27 c-43 -58 -43 -150 -1 -288 11 -36 15 -70
11 -88 -4 -16 -7 -56 -8 -87 l-1 -58 -52 0 c-61 0 -98 8 -98 21 0 5 25 6 55 3
38 -5 59 -3 70 6 27 23 -1 40 -65 40 -58 0 -58 0 -64 34 -4 18 -27 75 -52 127
-51 103 -67 196 -44 254 11 28 12 29 22 10 37 -71 132 -51 168 35 13 31 20 34
57 24z m-777 -33 c-16 -32 -12 -51 20 -83 36 -36 37 -38 6 -38 -49 0 -88 94
-54 128 20 20 40 15 28 -7z m179 -24 c1 -5 -3 -5 -9 -2 -5 3 -10 16 -9 28 0
21 1 21 9 2 5 -11 9 -24 9 -28z m-60 6 c0 -25 -1 -26 -9 -8 -12 27 -12 35 0
35 6 0 10 -12 9 -27z m-50 -30 c1 -18 -18 -16 -25 2 -4 8 -3 23 1 33 7 16 8
15 15 -3 5 -11 9 -26 9 -32z m816 14 c22 -35 32 -117 14 -128 -23 -14 -85 -10
-99 6 -15 18 -9 108 10 130 19 23 57 18 75 -8z m-409 -145 c-3 -2 -12 1 -21 8
-20 17 -19 64 3 103 l17 32 3 -69 c2 -37 1 -71 -2 -74z m-229 80 c1 -18 15
-53 33 -79 17 -26 39 -69 48 -96 22 -63 45 -60 53 8 3 28 9 58 13 67 7 16 11
16 38 -7 16 -14 36 -25 44 -25 18 0 18 -4 -1 -39 -18 -36 -124 -133 -139 -128
-23 8 -58 75 -88 171 -34 111 -47 133 -87 138 -25 4 -25 4 9 15 57 19 75 13
77 -25z m667 -203 c7 -91 1 -134 -34 -233 -25 -73 -25 -94 0 -126 21 -27 25
-66 10 -90 -8 -13 -10 -12 -10 3 0 24 -19 21 -30 -5 l-9 -23 0 23 c-1 30 -15
28 -28 -5 -11 -26 -11 -25 -6 11 5 34 4 38 -12 32 -13 -4 -16 -2 -12 9 9 21
-11 29 -31 13 -16 -12 -16 -11 -1 12 8 14 29 32 46 40 l31 15 1 120 c1 66 2
136 3 155 1 19 -5 58 -14 85 l-15 50 52 0 53 0 6 -86z m-509 -331 c27 -58 26
-61 -40 -73 -62 -11 -65 -17 -65 -119 0 -50 -3 -121 -7 -158 -5 -57 -9 -68
-24 -68 -13 0 -20 10 -23 33 -3 17 -17 96 -31 174 -27 152 -26 179 9 212 17
16 104 45 149 50 4 1 19 -23 32 -51z m523 -238 c13 -14 38 -22 97 -29 77 -9
195 -46 195 -61 0 -4 -8 -14 -18 -23 -15 -13 -25 -15 -52 -7 -18 5 -89 9 -156
7 -142 -2 -144 -1 -168 81 l-15 52 50 0 c38 0 55 -5 67 -20z m357 -110 c4 -6
0 -29 -9 -53 -8 -23 -17 -54 -20 -69 -5 -22 -12 -28 -32 -28 -21 0 -23 3 -15
19 6 10 13 35 15 54 4 34 33 86 48 87 4 0 10 -5 13 -10z m-983 -149 c4 -29 4
-29 -61 -36 -35 -4 -72 -9 -80 -12 -9 -3 0 6 19 21 19 14 38 33 43 41 4 9 22
15 41 15 30 0 34 -4 38 -29z"/>
<path d="M1030 1160 c0 -19 45 -50 73 -50 31 0 26 29 -9 49 -44 26 -64 27 -64
1z"/>
<path d="M954 1155 c-7 -18 12 -45 32 -45 17 0 18 32 2 48 -16 16 -27 15 -34
-3z"/>
<path d="M1234 1055 c-7 -29 0 -55 16 -55 13 0 32 49 26 67 -9 22 -35 15 -42
-12z"/>
<path d="M613 745 c-27 -19 -35 -51 -17 -66 8 -7 16 -10 17 -8 1 2 12 19 25
37 32 45 18 67 -25 37z"/>
<path d="M1225 510 c-9 -14 23 -70 40 -70 23 0 26 16 9 49 -15 31 -37 40 -49
21z"/>
<path d="M840 251 c-31 -4 -45 -11 -45 -21 0 -13 24 -15 166 -12 191 4 326 -9
421 -42 37 -13 69 -21 73 -18 27 27 -35 61 -157 86 -78 16 -358 20 -458 7z"/>
</g>
</svg>
