<?xml version="1.0" standalone="no"?>
<!DOCTYPE svg PUBLIC "-//W3C//DTD SVG 20010904//EN"
 "http://www.w3.org/TR/2001/REC-SVG-20010904/DTD/svg10.dtd">
<svg version="1.0" xmlns="http://www.w3.org/2000/svg"
 width="200.000000pt" height="200.000000pt" viewBox="0 0 200.000000 200.000000"
 preserveAspectRatio="xMidYMid meet">
<metadata>
Created by potrace 1.16, written by Peter Selinger 2001-2019
</metadata>
<g transform="translate(0.000000,200.000000) scale(0.100000,-0.100000)"
fill="#000000" stroke="none">
<path d="M540 1645 c-19 -23 -8 -48 31 -70 36 -20 81 -73 179 -208 51 -71 64
-101 100 -228 l21 -77 -26 -73 c-29 -84 -50 -175 -59 -266 -4 -35 -13 -78 -21
-96 -7 -18 -18 -68 -24 -112 -10 -67 -16 -83 -38 -101 -18 -14 -24 -26 -20
-38 6 -14 17 -16 64 -14 l58 3 6 45 c7 54 54 205 75 240 81 137 108 180 113
180 4 0 15 -15 25 -32 11 -18 40 -62 66 -98 38 -51 49 -76 54 -120 4 -30 14
-78 22 -107 9 -31 12 -66 9 -87 -6 -31 -4 -36 17 -41 37 -9 111 -2 115 12 2 6
-7 22 -21 35 -23 22 -25 30 -28 158 -5 156 -14 186 -94 329 -30 53 -54 108
-54 124 0 53 72 281 104 328 72 107 173 228 206 245 59 32 40 96 -25 80 -29
-7 -198 -174 -263 -258 -25 -33 -43 -48 -59 -48 -25 0 -32 25 -9 33 38 15 39
136 1 177 -29 32 -80 44 -113 27 -21 -10 -34 -11 -51 -3 -19 8 -26 6 -37 -9
-12 -16 -18 -17 -39 -7 -33 15 -78 15 -93 0 -9 -9 -19 -5 -44 18 -79 74 -122
91 -148 59z m148 -111 c39 -41 72 -79 72 -85 0 -23 -27 0 -75 63 -27 36 -65
73 -82 82 -18 9 -33 20 -33 26 0 20 44 -12 118 -86z m718 70 c-30 -21 -44 -16
-17 7 13 11 27 17 30 13 3 -3 -3 -12 -13 -20z m-52 -26 c-14 -25 -95 -127
-104 -133 -5 -3 -11 -1 -14 4 -3 4 22 38 55 75 58 63 79 81 63 54z m-531 -82
c18 -16 33 -22 51 -19 20 4 26 1 26 -13 0 -11 9 -32 20 -49 11 -16 20 -38 20
-47 0 -27 -45 -23 -63 6 -9 13 -41 51 -73 85 -52 56 -54 61 -32 61 14 0 37
-11 51 -24z m237 -22 c0 -50 -15 -74 -48 -74 -25 1 -62 20 -62 32 0 3 14 8 30
12 20 3 37 16 48 36 22 39 32 38 32 -6z m-221 -109 c29 -38 41 -64 41 -87 0
-54 -15 -64 -28 -19 -7 22 -28 63 -47 91 -32 48 -37 70 -16 70 5 0 27 -25 50
-55z m375 46 c3 -5 -10 -32 -29 -61 -19 -28 -40 -70 -47 -92 -10 -33 -13 -37
-19 -22 -10 26 -11 94 -1 94 5 0 23 20 42 45 34 46 44 52 54 36z m-190 -76 c7
-26 -8 -65 -24 -65 -5 0 -17 11 -25 24 -13 19 -14 29 -5 45 15 29 46 27 54 -4z
m-24 -90 c29 0 38 5 51 31 l15 31 18 -61 c29 -103 28 -109 -24 -118 -25 -5
-66 -6 -92 -2 -40 5 -48 3 -48 -10 0 -21 35 -29 110 -24 60 3 61 3 55 -21 -3
-13 -8 -36 -11 -51 -5 -24 -12 -28 -48 -33 -23 -4 -51 -4 -62 -2 -77 16 -73
12 -67 55 3 22 0 60 -7 84 -10 36 -9 48 3 72 8 16 18 48 22 72 l7 42 22 -32
c18 -27 28 -33 56 -33z m-97 -432 c15 -3 27 -10 27 -15 0 -5 -20 -41 -45 -79
-24 -38 -51 -95 -60 -128 -8 -33 -24 -79 -35 -103 l-20 -43 6 65 c4 36 14 88
24 115 10 28 21 81 24 119 8 80 12 90 35 81 9 -4 28 -9 44 -12z m267 -15 c38
-62 53 -136 54 -269 1 -91 5 -131 15 -143 12 -14 11 -16 -8 -16 -18 0 -21 6
-21 38 0 20 -5 53 -10 72 -6 19 -15 65 -19 103 -8 58 -16 76 -60 136 -28 38
-51 73 -51 78 0 8 46 28 73 32 4 1 16 -14 27 -31z m-400 -378 c0 -11 -4 -20
-9 -20 -5 0 -7 9 -4 20 3 11 7 20 9 20 2 0 4 -9 4 -20z"/>
<path d="M700 1637 c0 -11 12 -18 38 -22 20 -3 47 -8 60 -11 14 -3 25 1 28 11
9 22 7 23 -64 31 -53 6 -62 4 -62 -9z"/>
<path d="M1745 1620 c-3 -5 5 -16 19 -25 13 -9 29 -30 35 -46 11 -31 28 -38
37 -15 16 41 -69 122 -91 86z"/>
<path d="M1688 1550 c-24 -15 -22 -87 2 -95 10 -3 25 -26 34 -50 l15 -44 -37
-11 c-20 -6 -61 -14 -91 -17 l-54 -6 16 24 c41 57 7 159 -53 159 -15 0 -33 7
-40 15 -17 21 -36 19 -54 -7 -11 -15 -12 -26 -6 -39 6 -10 10 -31 10 -46 0
-16 7 -38 15 -49 8 -10 15 -29 15 -41 0 -19 -5 -23 -29 -23 -20 0 -51 -17
-100 -56 -105 -82 -112 -106 -56 -194 19 -30 38 -62 41 -72 3 -9 13 -19 22
-22 15 -5 17 -18 14 -93 -2 -49 -9 -122 -17 -163 -8 -41 -17 -98 -20 -127 -4
-29 -13 -57 -21 -64 -17 -14 -18 -49 -1 -50 38 -3 94 4 105 14 7 6 11 19 8 30
-8 32 13 136 52 259 20 65 39 117 42 117 3 0 25 -32 50 -72 39 -63 45 -80 47
-132 0 -33 5 -94 10 -135 l8 -74 44 -9 c86 -17 115 12 65 64 -25 26 -26 32
-25 137 2 117 -11 167 -74 291 -23 47 -26 61 -20 112 4 34 15 69 26 83 10 13
19 35 19 48 0 20 9 26 67 43 70 20 113 51 113 82 0 10 -15 63 -33 118 -31 96
-34 100 -62 102 -17 2 -38 -2 -47 -7z m76 -106 c37 -119 36 -124 -48 -152 -55
-18 -71 -20 -77 -10 -10 16 4 24 59 33 79 13 88 49 37 148 -23 46 -25 67 -6
67 5 0 21 -39 35 -86z m-210 0 c12 -31 6 -58 -20 -85 -24 -25 -25 -31 -16 -59
10 -28 9 -31 -6 -28 -14 3 -16 12 -14 51 2 26 -1 54 -8 61 -8 11 -4 21 17 44
33 35 39 37 47 16z m-94 -168 c0 -18 38 -46 62 -46 23 0 48 27 42 45 -4 10 0
15 14 15 14 0 24 -10 32 -35 20 -62 -1 -89 -82 -103 -23 -4 -43 -13 -46 -21
-4 -11 6 -13 45 -9 54 5 53 8 37 -69 -5 -25 -31 -29 -94 -17 -27 6 -31 10 -25
28 17 50 -5 166 -31 166 -22 0 -103 -60 -109 -81 -7 -20 30 -98 53 -115 12 -9
13 -12 2 -19 -8 -5 -15 -4 -17 1 -2 5 -12 25 -23 44 -54 95 -55 98 -34 121 34
38 135 109 155 109 10 0 19 -6 19 -14z m-46 -131 c8 -52 1 -85 -19 -85 -19 0
-44 27 -51 57 -5 20 -1 30 22 49 16 13 32 23 35 24 4 0 10 -20 13 -45z m39
-263 c-55 -169 -74 -243 -80 -304 -6 -64 -7 -68 -31 -68 -20 0 -22 2 -12 15
16 19 39 159 49 305 5 63 10 116 10 116 1 1 18 -3 40 -8 l39 -10 -15 -46z
m190 -37 c18 -43 21 -68 19 -172 -1 -114 0 -124 20 -143 l22 -20 -26 0 c-23 0
-26 5 -33 58 -5 31 -9 89 -10 128 -2 64 -6 75 -41 124 -36 51 -37 53 -19 67
30 21 46 12 68 -42z"/>
<path d="M556 1483 c5 -16 8 -49 9 -75 0 -25 4 -50 8 -54 23 -24 37 79 17 130
-5 14 -17 26 -26 26 -13 0 -15 -5 -8 -27z"/>
<path d="M360 1480 c-7 -13 -7 -26 -1 -38 6 -10 7 -29 4 -41 -4 -14 2 -33 16
-51 11 -16 21 -31 21 -34 0 -2 -18 -7 -40 -11 -58 -10 -200 -129 -200 -168 0
-7 15 -35 33 -62 17 -26 41 -64 52 -84 12 -20 30 -40 41 -45 18 -8 19 -13 7
-120 -6 -61 -16 -131 -22 -156 -5 -25 -10 -60 -11 -79 0 -23 -8 -41 -26 -58
-14 -13 -24 -29 -21 -36 5 -16 96 -27 105 -13 8 12 36 117 56 211 14 61 56
164 67 165 9 0 49 -112 49 -136 0 -37 45 -239 55 -246 17 -13 82 -9 94 6 9 11
6 20 -13 43 -26 31 -28 47 -42 289 -6 110 -6 111 20 137 14 14 26 31 26 36 0
6 18 34 40 63 54 71 53 101 -2 154 -62 59 -112 94 -135 94 -29 0 -34 10 -18
34 21 28 19 85 -4 122 -15 25 -27 32 -66 37 -69 10 -73 9 -85 -13z m140 -91
c0 -9 -8 -27 -18 -39 -16 -19 -21 -21 -41 -11 l-22 12 32 40 c32 41 48 40 49
-2z m-50 -99 c0 -5 -7 -10 -16 -10 -8 0 -12 5 -9 10 3 6 10 10 16 10 5 0 9 -4
9 -10z m-42 -36 c29 -14 35 -14 67 2 19 9 45 14 57 10 29 -7 148 -113 148
-131 0 -7 -18 -35 -39 -62 -21 -28 -41 -58 -42 -68 -2 -10 -10 -20 -16 -23
-15 -4 -17 24 -3 33 17 10 62 106 56 120 -4 13 -119 105 -130 105 -3 0 -5 -21
-3 -47 l2 -48 -52 -3 c-29 -2 -53 -7 -53 -12 0 -14 35 -30 63 -30 22 0 25 -5
29 -40 l4 -41 -51 3 -50 3 -9 50 c-5 28 -9 76 -9 108 0 31 -3 57 -7 57 -5 0
-19 -9 -32 -19 -84 -71 -98 -85 -98 -101 0 -10 16 -41 35 -70 19 -29 35 -56
35 -61 0 -19 -21 -8 -30 15 -5 13 -25 45 -44 71 -20 26 -36 52 -36 59 0 12 64
77 114 114 34 26 52 27 94 6z m-69 -125 c11 -31 15 -117 4 -91 -2 6 -11 12
-19 12 -8 0 -22 16 -31 35 -16 33 -15 36 2 55 25 27 31 25 44 -11z m257 -4
c13 -32 -55 -102 -71 -74 -5 8 11 84 22 102 6 10 43 -11 49 -28z m-186 -225
c0 -6 -15 -50 -34 -98 -33 -85 -64 -195 -73 -259 -3 -21 -11 -33 -20 -33 -11
0 -13 4 -5 13 5 6 13 41 17 77 4 36 14 85 21 110 8 25 14 70 14 100 0 86 7
100 46 100 19 0 34 -5 34 -10z m140 -87 c-1 -49 3 -106 9 -128 6 -22 11 -65
11 -95 0 -31 5 -61 12 -68 9 -9 9 -12 -4 -12 -11 0 -17 13 -21 43 -13 100 -32
178 -72 305 l-14 42 40 0 40 0 -1 -87z"/>
<path d="M1615 1463 c8 -43 18 -58 34 -49 16 10 14 38 -5 64 -24 34 -37 27
-29 -15z"/>
<path d="M636 1424 c-11 -29 -6 -64 8 -64 16 0 31 53 21 70 -9 15 -22 12 -29
-6z"/>
<path d="M1218 1074 c-8 -8 28 -98 41 -102 16 -5 14 44 -4 78 -15 29 -26 36
-37 24z"/>
<path d="M1156 1061 c-8 -13 28 -101 41 -101 16 0 17 27 2 68 -10 30 -34 48
-43 33z"/>
<path d="M680 999 c-22 -42 -23 -90 -3 -96 7 -3 15 11 19 34 4 21 13 47 20 58
18 26 18 45 -1 45 -8 0 -24 -18 -35 -41z"/>
<path d="M752 985 c-7 -15 -10 -31 -7 -36 11 -17 35 -9 37 11 0 11 1 25 2 32
2 23 -21 18 -32 -7z"/>
</g>
</svg>
