<?xml version="1.0" standalone="no"?>
<!DOCTYPE svg PUBLIC "-//W3C//DTD SVG 20010904//EN"
 "http://www.w3.org/TR/2001/REC-SVG-20010904/DTD/svg10.dtd">
<svg version="1.0" xmlns="http://www.w3.org/2000/svg"
 width="200.000000pt" height="200.000000pt" viewBox="0 0 200.000000 200.000000"
 preserveAspectRatio="xMidYMid meet">
<metadata>
Created by potrace 1.16, written by Peter Selinger 2001-2019
</metadata>
<g transform="translate(0.000000,200.000000) scale(0.100000,-0.100000)"
fill="#000000" stroke="none">
<path d="M844 1736 c-271 -62 -482 -256 -566 -521 -25 -78 -35 -259 -19 -351
38 -218 192 -426 391 -528 445 -230 978 19 1085 508 24 109 17 272 -18 378
-48 150 -142 284 -259 372 -144 107 -256 146 -433 152 -80 2 -141 -1 -181 -10z
m336 -47 c131 -36 224 -91 325 -193 70 -71 98 -108 128 -169 104 -213 104
-445 0 -656 -53 -108 -187 -241 -300 -300 -346 -177 -761 -57 -954 276 -59
102 -81 186 -86 323 -6 147 9 225 63 337 89 186 246 317 454 379 103 31 264
33 370 3z"/>
<path d="M570 1390 c-13 -13 -20 -33 -20 -58 0 -37 -1 -38 -33 -34 -22 2 -41
-3 -57 -16 l-25 -20 -3 -246 c-3 -207 -1 -250 13 -275 16 -32 51 -47 85 -38
17 4 20 0 20 -34 0 -50 27 -79 74 -79 25 0 40 7 55 26 19 24 21 40 21 165 l0
139 300 0 300 0 0 -139 c0 -125 2 -141 21 -165 15 -19 30 -26 55 -26 47 0 74
29 74 79 0 34 3 38 20 34 38 -10 71 6 86 42 20 49 20 461 0 510 -15 36 -48 52
-86 42 -17 -4 -20 0 -20 34 0 50 -27 79 -74 79 -25 0 -40 -7 -55 -26 -19 -24
-21 -40 -21 -165 l0 -139 -299 0 -300 0 -3 144 c-3 125 -6 147 -22 165 -25 27
-79 28 -106 1z m78 -32 c9 -9 12 -101 12 -354 0 -188 -3 -349 -6 -358 -7 -18
-49 -22 -60 -5 -9 15 -9 703 0 718 9 15 39 14 54 -1z m757 -358 l0 -365 -24
-3 c-13 -2 -28 2 -32 10 -5 7 -9 168 -9 359 0 363 1 373 45 367 20 -3 20 -10
20 -368z m-870 0 c0 -237 -1 -255 -18 -258 -44 -9 -47 7 -47 257 0 249 3 265
45 259 19 -3 20 -10 20 -258z m985 240 c7 -12 9 -103 8 -251 -3 -201 -5 -233
-19 -242 -9 -6 -24 -7 -33 -4 -14 6 -16 34 -16 255 0 137 3 252 7 255 13 14
43 6 53 -13z m-220 -240 l0 -40 -300 0 -300 0 0 40 0 40 300 0 300 0 0 -40z"/>
</g>
</svg>
