<?xml version="1.0" standalone="no"?>
<!DOCTYPE svg PUBLIC "-//W3C//DTD SVG 20010904//EN"
 "http://www.w3.org/TR/2001/REC-SVG-20010904/DTD/svg10.dtd">
<svg version="1.0" xmlns="http://www.w3.org/2000/svg"
 width="200.000000pt" height="200.000000pt" viewBox="0 0 200.000000 200.000000"
 preserveAspectRatio="xMidYMid meet">
<metadata>
Created by potrace 1.16, written by Peter Selinger 2001-2019
</metadata>
<g transform="translate(0.000000,200.000000) scale(0.100000,-0.100000)"
fill="#000000" stroke="none">
<path d="M550 1772 c-22 -10 -55 -45 -88 -92 -102 -146 -117 -164 -157 -186
-61 -34 -75 -64 -75 -166 0 -48 5 -99 10 -113 6 -15 83 -103 173 -196 89 -94
163 -173 164 -177 3 -9 -145 -114 -163 -116 -7 0 -37 31 -66 69 -64 85 -86 91
-153 45 -64 -44 -72 -71 -41 -125 l25 -43 -60 -42 c-66 -46 -86 -79 -68 -113
7 -12 52 -79 101 -149 114 -161 117 -162 230 -80 27 19 50 33 52 31 1 -2 12
-18 24 -35 12 -17 30 -34 40 -36 25 -7 69 12 110 46 46 40 43 73 -14 153 -25
35 -44 68 -42 74 2 6 46 42 98 80 l95 68 180 -183 c168 -171 186 -186 265
-225 104 -51 182 -62 256 -37 101 33 173 126 160 207 -3 22 -71 171 -151 332
-80 160 -145 295 -145 298 0 9 261 192 276 193 7 0 37 -30 66 -69 66 -88 91
-94 161 -40 54 41 61 75 27 130 l-20 32 61 43 c66 46 86 79 68 113 -7 12 -52
79 -101 149 -64 89 -97 128 -115 133 -20 5 -41 -4 -95 -40 -69 -46 -70 -46
-84 -26 -46 65 -88 69 -153 13 -57 -49 -57 -73 3 -156 25 -35 46 -69 46 -75 0
-5 -41 -39 -91 -75 l-92 -66 -16 32 c-17 34 -92 98 -148 125 -29 15 -34 15
-72 -6 -92 -47 -142 -14 -229 155 -55 107 -79 135 -131 153 -47 15 -80 14
-121 -7z m145 -52 c8 -7 38 -57 65 -110 57 -110 110 -177 154 -195 35 -14 91
-9 121 11 30 22 48 17 108 -27 67 -50 83 -81 68 -135 -9 -32 -7 -49 14 -108
13 -38 23 -71 22 -71 -1 -1 -22 -6 -47 -11 -35 -7 -45 -13 -45 -29 0 -11 5
-19 10 -19 6 1 31 5 57 8 l47 7 26 -51 c15 -29 25 -53 23 -55 -2 -1 -52 -15
-112 -31 -103 -28 -135 -46 -106 -64 7 -4 59 5 119 21 58 16 111 28 116 28 10
0 61 -98 54 -103 -2 -1 -26 -9 -54 -17 -30 -9 -50 -21 -50 -29 0 -16 36 -19
95 -6 34 7 36 5 58 -36 28 -53 28 -54 -3 -62 -17 -4 -25 -13 -25 -27 0 -19 4
-20 40 -14 l40 7 35 -75 c35 -76 44 -137 25 -167 -7 -11 -29 -15 -92 -15 -89
0 -147 20 -249 85 -45 30 -769 771 -769 788 0 5 7 16 17 23 9 8 27 37 39 64
31 64 31 141 2 240 -25 84 -22 95 39 161 32 35 35 36 87 32 30 -3 62 -10 71
-18z m1127 -149 c48 -69 88 -130 88 -136 0 -7 -26 -31 -59 -53 l-58 -41 -92
129 c-50 71 -94 135 -96 142 -6 15 93 89 114 85 8 -1 55 -58 103 -126z m-164
-116 c89 -125 162 -234 162 -240 0 -7 -19 -25 -42 -40 l-42 -28 -18 23 c-46
57 -318 449 -318 459 0 13 71 62 85 58 5 -2 83 -106 173 -232z m-1194 47 c19
-69 20 -101 5 -152 -13 -44 -54 -98 -65 -87 -4 4 -12 54 -18 111 l-10 105 29
40 c15 23 31 41 35 41 4 0 15 -26 24 -58z m-121 -139 c5 -63 13 -99 29 -130
22 -41 579 -626 741 -779 94 -88 187 -137 295 -155 69 -11 72 -13 50 -25 -31
-18 -136 -17 -188 1 -106 37 -153 79 -567 506 -224 232 -413 433 -420 447 -7
15 -12 59 -13 98 0 57 4 76 21 98 36 45 45 34 52 -61z m1181 2 c20 -30 36 -58
36 -62 -1 -9 -250 -184 -265 -187 -15 -2 -48 100 -41 126 4 15 47 52 118 101
62 42 113 77 114 77 1 0 18 -25 38 -55z m-1088 -770 c87 -124 160 -231 162
-239 4 -18 -64 -70 -82 -63 -17 7 -336 453 -336 470 0 15 59 57 80 57 9 0 84
-96 176 -225z m232 162 c23 -23 42 -47 42 -52 0 -8 -166 -133 -190 -143 -4 -1
-24 22 -45 53 -26 37 -35 59 -29 65 23 23 160 119 169 120 6 0 30 -19 53 -43z
m-363 -256 c48 -69 89 -130 91 -136 6 -14 -103 -88 -120 -82 -16 7 -186 244
-186 260 1 15 113 97 121 88 3 -3 45 -62 94 -130z"/>
</g>
</svg>
