<?xml version="1.0" standalone="no"?>
<!DOCTYPE svg PUBLIC "-//W3C//DTD SVG 20010904//EN"
 "http://www.w3.org/TR/2001/REC-SVG-20010904/DTD/svg10.dtd">
<svg version="1.0" xmlns="http://www.w3.org/2000/svg"
 width="200.000000pt" height="200.000000pt" viewBox="0 0 200.000000 200.000000"
 preserveAspectRatio="xMidYMid meet">
<metadata>
Created by potrace 1.16, written by Peter Selinger 2001-2019
</metadata>
<g transform="translate(0.000000,200.000000) scale(0.100000,-0.100000)"
fill="#000000" stroke="none">
<path d="M704 1886 c-47 -21 -102 -81 -113 -123 -6 -21 -11 -63 -11 -94 0 -60
-8 -73 -66 -102 -68 -35 -45 -77 42 -77 64 0 130 24 146 53 6 12 17 55 24 96
8 49 20 81 33 95 l21 20 0 -24 c0 -47 20 -97 50 -126 47 -46 40 -57 -54 -94
-82 -31 -138 -74 -164 -125 -6 -11 -51 -125 -101 -254 -63 -162 -91 -247 -92
-280 l-2 -46 -6 52 c-4 28 -10 55 -14 59 -8 8 -65 -4 -119 -25 l-28 -11 0
-109 c0 -123 0 -123 79 -147 69 -20 81 -11 82 70 1 44 3 53 8 31 l6 -30 93 -3
93 -3 14 33 14 33 3 -65 c3 -62 4 -65 30 -68 25 -3 27 -7 33 -70 21 -203 78
-312 165 -312 11 0 35 16 54 35 20 19 38 35 41 35 10 0 5 -35 -17 -103 -22
-68 -22 -69 -3 -83 19 -14 148 -20 192 -8 32 9 34 27 10 92 l-21 59 18 209
c15 169 22 215 38 242 24 39 22 117 -4 169 -14 28 -14 45 -2 155 8 68 16 137
19 154 l5 31 78 -18 c42 -11 105 -19 139 -19 56 0 63 3 87 31 14 17 26 42 26
55 0 14 -18 85 -40 158 -39 130 -53 246 -30 246 6 0 10 -25 10 -55 0 -42 4
-57 16 -62 24 -9 122 25 134 47 13 24 13 186 0 210 -12 22 -110 56 -134 47
-12 -5 -16 -20 -16 -67 0 -70 -15 -79 -50 -30 -12 17 -31 30 -42 30 -11 0 -37
-13 -58 -30 -21 -16 -41 -30 -44 -30 -3 0 -6 27 -6 60 0 47 -4 62 -16 67 -24
9 -121 -25 -137 -48 -14 -19 -15 -19 -31 7 -24 35 -95 65 -154 64 -26 0 -81 2
-122 5 -53 4 -84 1 -106 -9z m121 -51 c-5 -2 -22 -6 -37 -9 -69 -15 -128 -109
-128 -201 0 -20 -8 -39 -21 -51 -22 -19 -22 -19 -9 6 7 13 14 57 14 97 1 56 6
79 22 100 28 38 80 63 129 62 22 0 36 -2 30 -4z m170 -19 c50 -21 43 -29 -18
-22 -50 7 -54 6 -75 -24 -23 -30 -52 -41 -52 -17 1 19 24 45 56 62 36 19 46
19 89 1z m565 -101 c0 -56 -4 -74 -15 -79 -13 -4 -15 8 -15 79 0 71 2 83 15
79 11 -5 15 -23 15 -79z m-350 0 c0 -60 -3 -75 -15 -75 -12 0 -15 15 -15 75 0
60 3 75 15 75 12 0 15 -15 15 -75z m-150 -3 c0 -35 -23 -68 -60 -87 -39 -20
-69 -19 -107 5 -36 22 -44 50 -14 50 11 0 32 11 48 24 19 16 46 26 74 29 24 2
47 4 52 5 4 1 7 -10 7 -26z m330 -85 c0 -63 8 -106 41 -213 47 -155 45 -164
-30 -164 -48 0 -189 34 -205 50 -11 11 0 70 19 93 13 18 15 18 70 -2 65 -25
94 -26 101 -7 3 8 -8 81 -25 163 l-30 148 21 18 c30 25 38 8 38 -86z m-80
-175 c-4 -1 -64 18 -133 44 -86 31 -127 51 -127 61 0 9 13 30 28 48 28 31 29
31 38 11 10 -24 111 -63 137 -53 12 5 17 19 18 54 1 42 4 35 23 -57 12 -58 19
-106 16 -108z m-321 63 c15 -42 3 -65 -35 -65 -30 0 -59 29 -45 43 6 6 11 21
11 34 0 19 5 23 28 23 23 0 30 -6 41 -35z m-58 -129 c52 -10 101 19 134 81 2
4 95 -28 95 -32 0 -1 -6 -18 -14 -36 -9 -23 -14 -70 -14 -140 1 -58 -2 -111
-6 -117 -5 -8 -59 -12 -175 -12 l-169 0 -6 33 c-3 17 -1 48 4 67 14 48 12 88
-6 135 -8 22 -18 47 -20 55 -4 11 8 20 38 30 l43 15 32 -36 c19 -21 47 -39 64
-43z m-220 -28 c30 -72 21 -101 -89 -279 -56 -92 -102 -175 -102 -186 0 -11 9
-28 20 -38 14 -13 20 -31 20 -62 l0 -43 -40 0 -40 0 0 64 c0 56 10 89 81 273
99 255 119 303 129 303 4 0 14 -15 21 -32z m24 -349 c8 -51 12 -95 10 -97 -2
-2 -20 1 -40 8 -50 16 -65 2 -66 -64 -1 -48 -1 -49 -11 -21 -6 17 -17 37 -24
46 -8 8 -14 18 -14 22 0 10 123 207 127 203 2 -2 10 -46 18 -97z m377 11 l-4
-39 -44 6 c-37 5 -50 1 -84 -21 -22 -14 -47 -40 -55 -56 -15 -29 -19 -31 -63
-28 l-47 3 -7 50 c-4 28 -9 67 -12 88 l-6 37 163 0 163 0 -4 -40z m-17 -123
c43 -43 57 -117 30 -147 -23 -26 -119 -28 -153 -4 -20 14 -23 21 -17 58 9 52
29 91 57 110 32 23 46 20 83 -17z m-367 -124 c-2 -50 -7 -78 -15 -81 -10 -3
-13 17 -13 77 0 66 3 81 15 81 13 0 15 -13 13 -77z m-388 -9 c0 -56 -3 -75
-12 -72 -9 3 -14 30 -16 76 -2 60 0 72 13 72 12 0 15 -14 15 -76z m553 5 c3
-22 12 -48 20 -57 16 -18 29 -108 29 -200 0 -65 -32 -166 -62 -196 -19 -19
-20 -19 -39 -2 -35 32 -62 123 -68 228 -5 81 -3 99 11 113 12 12 16 35 16 86
l0 69 44 0 c43 0 43 0 49 -41z m203 -144 c-3 -22 -11 -102 -17 -178 -9 -101
-16 -140 -26 -144 -8 -3 -16 -3 -19 0 -6 6 -33 265 -34 322 l0 40 51 0 51 0
-6 -40z m-18 -410 c16 -36 17 -35 -28 -35 -42 0 -43 1 -34 38 9 31 47 29 62
-3z"/>
</g>
</svg>
