<?xml version="1.0" standalone="no"?>
<!DOCTYPE svg PUBLIC "-//W3C//DTD SVG 20010904//EN"
 "http://www.w3.org/TR/2001/REC-SVG-20010904/DTD/svg10.dtd">
<svg version="1.0" xmlns="http://www.w3.org/2000/svg"
 width="200.000000pt" height="200.000000pt" viewBox="0 0 200.000000 200.000000"
 preserveAspectRatio="xMidYMid meet">
<metadata>
Created by potrace 1.16, written by Peter Selinger 2001-2019
</metadata>
<g transform="translate(0.000000,200.000000) scale(0.100000,-0.100000)"
fill="#000000" stroke="none">
<path d="M952 1902 c-36 -11 -93 -62 -108 -98 -28 -67 -14 -137 38 -191 17
-17 27 -36 24 -42 -4 -6 -30 -11 -57 -11 -55 0 -141 -37 -158 -67 -5 -10 -57
-144 -115 -297 -84 -221 -106 -291 -108 -335 l-1 -56 -6 60 c-6 60 -6 60 -38
59 -18 -1 -49 -10 -70 -20 l-38 -19 0 -110 0 -110 40 -19 c22 -10 54 -19 70
-20 30 -1 30 0 35 59 4 37 7 50 10 35 5 -23 9 -25 72 -28 62 -3 68 -1 84 23
10 15 26 25 40 25 21 0 23 -5 26 -52 3 -49 5 -53 29 -56 25 -3 26 -6 33 -81 9
-105 31 -188 64 -236 52 -74 106 -83 163 -26 38 39 42 17 13 -71 -31 -93 -24
-100 104 -96 119 4 126 11 95 97 -21 57 -21 67 -11 183 8 90 16 128 28 143 51
58 110 222 110 302 0 51 -22 124 -49 161 -18 26 -21 44 -21 129 l0 99 68 -17
c84 -22 190 -24 218 -4 12 8 27 28 34 44 11 27 7 46 -29 170 -28 97 -41 158
-41 201 0 38 4 59 10 55 6 -3 10 -29 10 -56 0 -62 11 -67 87 -42 l58 20 3 115
3 116 -57 22 c-82 30 -88 27 -92 -48 l-3 -62 -99 0 -100 0 0 54 c0 74 -14 85
-86 62 -30 -9 -60 -25 -66 -35 -11 -17 -13 -16 -37 12 -44 52 -117 76 -179 59z
m120 -91 c28 -25 33 -36 33 -76 0 -40 -5 -51 -33 -76 -24 -22 -42 -29 -72 -29
-30 0 -48 7 -72 29 -28 25 -33 36 -33 76 0 40 5 51 33 76 24 22 42 29 72 29
30 0 48 -7 72 -29z m178 -86 c0 -60 -3 -75 -15 -75 -12 0 -15 14 -15 68 0 38
3 72 7 75 17 18 23 1 23 -68z m360 1 c0 -56 -4 -75 -15 -80 -13 -4 -15 8 -15
74 0 64 3 80 15 80 12 0 15 -15 15 -74z m-170 -107 c0 -52 9 -101 36 -189 19
-65 34 -129 32 -142 -3 -22 -7 -23 -71 -21 -38 0 -71 3 -73 6 -2 2 -2 29 2 60
6 50 9 55 25 47 22 -12 52 14 45 39 -3 9 -14 66 -26 126 -12 61 -24 118 -26
128 -4 13 1 17 25 17 l31 0 0 -71z m-213 -33 c72 -23 92 -15 94 38 1 18 8 -4
19 -54 10 -47 17 -86 16 -87 -1 -1 -29 16 -63 38 -56 35 -69 39 -127 39 -36 0
-68 5 -71 10 -4 6 8 27 27 48 33 37 33 37 38 13 4 -20 17 -29 67 -45z m-197
-44 c0 -10 5 -23 11 -29 7 -7 5 -15 -6 -27 -20 -20 -45 -21 -71 -2 -15 12 -17
17 -6 27 6 7 12 21 12 31 0 13 8 18 30 18 22 0 30 -5 30 -18z m-117 -87 c38
-39 49 -45 85 -45 44 0 96 34 107 70 5 16 16 20 56 20 39 0 60 -7 100 -32 l50
-33 -6 -69 c-3 -39 -7 -72 -10 -74 -2 -2 -20 1 -40 8 -63 21 -65 17 -65 -140
0 -132 1 -143 24 -178 28 -42 50 -118 44 -153 -3 -19 -7 -15 -17 21 -36 126
-124 182 -208 130 -18 -10 -39 -31 -49 -45 -15 -23 -22 -25 -95 -25 l-79 0 -2
167 c-3 146 -5 168 -19 171 -9 2 -24 -4 -32 -13 -20 -20 -27 -19 -60 8 l-28
22 37 98 c33 87 41 100 73 117 59 31 86 26 134 -25z m-234 -276 l29 -21 -74
-123 c-41 -68 -74 -127 -74 -132 0 -5 13 -22 29 -37 l30 -28 -22 -44 c-16 -33
-27 -44 -44 -44 -22 0 -23 4 -23 73 0 63 7 91 57 225 31 83 58 152 60 152 2 0
17 -10 32 -21z m71 -165 c0 -72 -2 -85 -15 -80 -28 10 -45 -5 -45 -42 l0 -35
-25 23 c-14 13 -25 28 -25 32 0 9 102 187 108 188 1 0 2 -39 2 -86z m378 -90
c28 -19 48 -58 57 -110 6 -37 3 -44 -17 -58 -30 -22 -131 -22 -152 0 -30 30
-9 121 37 160 33 28 45 29 75 8z m-728 -145 c0 -60 -3 -80 -12 -77 -27 9 -19
158 8 158 2 0 4 -36 4 -81z m378 -7 c-2 -41 -8 -67 -15 -70 -10 -3 -13 17 -13
78 0 73 2 81 15 70 12 -10 15 -29 13 -78z m162 24 c0 -29 7 -52 21 -70 20 -25
22 -41 23 -169 1 -129 -1 -146 -22 -184 -30 -58 -53 -69 -80 -40 -31 33 -51
99 -64 209 -10 87 -10 99 5 116 13 14 17 38 17 100 l0 82 50 0 50 0 0 -44z
m281 -103 c-8 -15 -10 -15 -11 -2 0 17 10 32 18 25 2 -3 -1 -13 -7 -23z m-79
-59 c-14 -162 -30 -316 -35 -321 -3 -3 -12 -3 -20 0 -10 4 -17 46 -26 154 -7
81 -14 162 -17 178 l-5 30 53 -1 53 -2 -3 -38z m-15 -414 l11 -30 -43 0 -44 0
10 30 c8 21 18 30 33 30 15 0 25 -9 33 -30z"/>
</g>
</svg>
