<?xml version="1.0" standalone="no"?>
<!DOCTYPE svg PUBLIC "-//W3C//DTD SVG 20010904//EN"
 "http://www.w3.org/TR/2001/REC-SVG-20010904/DTD/svg10.dtd">
<svg version="1.0" xmlns="http://www.w3.org/2000/svg"
 width="200.000000pt" height="200.000000pt" viewBox="0 0 200.000000 200.000000"
 preserveAspectRatio="xMidYMid meet">
<metadata>
Created by potrace 1.16, written by Peter Selinger 2001-2019
</metadata>
<g transform="translate(0.000000,200.000000) scale(0.100000,-0.100000)"
fill="#000000" stroke="none">
<path d="M563 1734 c-7 -3 -29 -29 -49 -57 l-37 -52 18 -65 c24 -83 30 -192
14 -233 -6 -18 -25 -49 -41 -70 -17 -22 -26 -42 -21 -50 23 -37 725 -752 763
-777 101 -65 159 -85 248 -85 63 0 85 4 92 15 19 30 10 91 -25 167 l-35 75
-40 -7 c-36 -6 -40 -5 -40 14 0 14 8 23 25 27 31 8 31 9 3 62 -22 41 -24 43
-58 36 -59 -13 -95 -10 -95 6 0 8 20 20 50 29 28 8 52 16 54 17 7 5 -44 103
-54 103 -5 0 -58 -12 -116 -28 -60 -16 -112 -25 -119 -21 -29 18 3 36 106 64
60 16 110 30 112 31 2 2 -8 26 -22 54 l-26 51 -61 -7 c-56 -6 -61 -5 -57 13 2
13 16 22 48 28 25 5 46 10 47 11 1 0 -9 33 -22 71 -21 59 -23 76 -14 108 15
54 -1 85 -68 135 -55 40 -86 50 -98 31 -3 -5 -24 -14 -46 -20 -86 -23 -152 32
-238 199 -28 54 -58 104 -66 111 -17 14 -111 24 -132 14z"/>
<path d="M1653 1662 c-29 -20 -51 -43 -48 -50 2 -7 46 -70 96 -141 l92 -129
59 41 c32 22 58 46 58 52 0 19 -175 260 -191 262 -8 1 -38 -14 -66 -35z"/>
<path d="M1437 1665 c-20 -14 -37 -31 -37 -36 0 -10 272 -402 318 -459 l20
-24 41 28 c22 16 41 34 41 41 0 15 -321 467 -335 472 -6 2 -27 -8 -48 -22z"/>
<path d="M405 1519 l-29 -40 10 -105 c6 -57 14 -107 18 -111 21 -21 76 90 76
153 0 35 -30 144 -40 144 -4 0 -20 -18 -35 -41z"/>
<path d="M296 1429 c-23 -27 -26 -39 -26 -102 1 -40 6 -84 13 -99 7 -14 196
-215 420 -447 415 -428 461 -468 568 -507 59 -20 147 -22 183 -3 l28 16 -73
12 c-109 18 -202 67 -296 155 -162 153 -719 738 -741 779 -16 31 -24 67 -29
130 -3 48 -9 90 -14 92 -4 3 -19 -9 -33 -26z"/>
<path d="M1372 1342 c-70 -48 -114 -86 -118 -100 -7 -26 26 -128 41 -126 18 3
264 179 264 189 0 6 -17 34 -37 62 l-38 53 -112 -78z"/>
<path d="M213 798 c-18 -13 -33 -28 -33 -35 0 -17 319 -463 336 -470 16 -6 84
42 84 59 0 21 -324 468 -340 468 -8 0 -30 -10 -47 -22z"/>
<path d="M540 753 c-114 -82 -109 -73 -65 -138 21 -30 41 -54 45 -53 25 11
190 135 190 143 0 6 -21 31 -47 57 l-48 46 -75 -55z"/>
<path d="M148 596 c-32 -22 -58 -46 -58 -53 0 -16 170 -253 186 -260 17 -6
126 68 120 82 -4 11 -173 253 -185 266 -3 4 -32 -12 -63 -35z"/>
</g>
</svg>
