<?xml version="1.0" standalone="no"?>
<!DOCTYPE svg PUBLIC "-//W3C//DTD SVG 20010904//EN"
 "http://www.w3.org/TR/2001/REC-SVG-20010904/DTD/svg10.dtd">
<svg version="1.0" xmlns="http://www.w3.org/2000/svg"
 width="200.000000pt" height="200.000000pt" viewBox="0 0 200.000000 200.000000"
 preserveAspectRatio="xMidYMid meet">
<metadata>
Created by potrace 1.16, written by Peter Selinger 2001-2019
</metadata>
<g transform="translate(0.000000,200.000000) scale(0.100000,-0.100000)"
fill="#000000" stroke="none">
<path d="M770 1730 c-19 -19 -20 -33 -20 -250 l0 -230 -230 0 c-217 0 -231 -1
-250 -20 -19 -19 -20 -33 -20 -228 0 -164 3 -212 14 -228 13 -18 30 -19 250
-22 l236 -3 0 -228 c0 -180 3 -231 14 -247 13 -18 30 -19 230 -22 206 -3 216
-2 235 17 20 20 21 32 21 251 l0 230 230 0 c217 0 231 1 250 20 19 19 20 33
20 230 0 197 -1 211 -20 230 -19 19 -33 20 -250 20 l-230 0 0 230 c0 217 -1
231 -20 250 -19 19 -33 20 -230 20 -197 0 -211 -1 -230 -20z"/>
</g>
</svg>
