<?xml version="1.0" standalone="no"?>
<!DOCTYPE svg PUBLIC "-//W3C//DTD SVG 20010904//EN"
 "http://www.w3.org/TR/2001/REC-SVG-20010904/DTD/svg10.dtd">
<svg version="1.0" xmlns="http://www.w3.org/2000/svg"
 width="200.000000pt" height="200.000000pt" viewBox="0 0 200.000000 200.000000"
 preserveAspectRatio="xMidYMid meet">
<metadata>
Created by potrace 1.16, written by Peter Selinger 2001-2019
</metadata>
<g transform="translate(0.000000,200.000000) scale(0.100000,-0.100000)"
fill="#000000" stroke="none">
<path d="M959 1935 c-33 -18 -52 -66 -39 -99 5 -13 20 -32 34 -44 26 -20 26
-21 26 -161 0 -134 1 -141 20 -141 19 0 20 7 20 141 0 140 0 141 26 161 35 28
46 60 33 98 -11 29 -53 60 -81 60 -7 -1 -25 -7 -39 -15z"/>
<path d="M644 1840 c-56 -22 -70 -95 -28 -137 23 -23 31 -25 74 -20 44 5 52 3
104 -36 l56 -41 0 -67 c0 -62 1 -67 20 -62 18 5 20 14 20 79 l0 74 -65 47
c-58 44 -64 51 -65 85 0 28 -7 42 -31 62 -32 27 -50 30 -85 16z"/>
<path d="M1335 1718 c-11 -6 -26 -20 -33 -30 -10 -13 -26 -18 -60 -18 -27 0
-57 -7 -70 -16 -20 -14 -22 -24 -22 -98 0 -81 6 -96 36 -96 2 0 4 36 4 80 l0
80 46 0 c38 0 51 -5 74 -30 60 -65 164 -15 145 70 -12 55 -73 85 -120 58z"/>
<path d="M323 1450 c-61 -25 -69 -116 -12 -148 26 -16 29 -22 29 -72 0 -31 5
-61 12 -68 7 -7 44 -12 94 -12 65 0 83 3 88 16 12 31 5 34 -74 34 l-80 0 0 41
c0 33 6 47 30 69 22 21 30 37 30 62 0 57 -64 100 -117 78z"/>
<path d="M903 1436 c-231 -56 -384 -281 -344 -506 35 -196 181 -338 380 -371
286 -47 550 221 501 510 -32 191 -174 335 -364 370 -73 13 -106 13 -173 -3z
m227 -221 l5 -80 78 -3 c73 -3 78 -4 87 -28 15 -37 12 -197 -2 -217 -10 -12
-32 -17 -88 -19 l-75 -3 -5 -80 -5 -80 -125 0 -125 0 -5 80 -5 80 -78 3 c-73
3 -78 4 -87 28 -6 14 -10 61 -10 104 0 43 4 90 10 104 9 24 14 25 87 28 l78 3
3 70 c1 39 5 76 7 83 3 9 35 12 127 10 l123 -3 5 -80z"/>
<path d="M908 1178 l-3 -83 -82 -3 -83 -3 0 -89 0 -89 83 -3 82 -3 3 -82 3
-83 89 0 89 0 3 83 3 82 83 3 82 3 0 89 0 89 -82 3 -83 3 -3 83 -3 82 -89 0
-89 0 -3 -82z"/>
<path d="M1723 1400 c-31 -13 -44 -44 -41 -98 2 -41 -2 -53 -37 -99 l-39 -53
-68 0 c-66 0 -67 -1 -59 -22 6 -18 17 -24 47 -26 78 -7 101 4 152 73 40 55 51
64 79 65 48 0 87 38 87 85 0 63 -59 100 -121 75z"/>
<path d="M104 1076 c-67 -30 -66 -124 2 -152 40 -17 72 -7 102 30 20 26 22 26
156 26 129 0 136 1 136 20 0 19 -7 20 -135 20 l-135 0 -28 29 c-34 37 -59 44
-98 27z"/>
<path d="M1818 1075 c-15 -8 -29 -24 -33 -35 -6 -19 -15 -20 -146 -20 -132 0
-139 -1 -139 -20 0 -19 7 -20 136 -20 134 0 136 0 156 -26 30 -37 62 -47 102
-30 70 29 69 123 0 152 -40 17 -42 17 -76 -1z"/>
<path d="M375 886 c-11 -7 -38 -39 -60 -70 -36 -50 -44 -56 -77 -56 -28 0 -42
-7 -62 -31 -34 -40 -33 -74 3 -110 33 -33 58 -36 101 -14 33 17 45 49 36 98
-5 28 0 41 36 90 l42 57 68 0 c66 0 67 1 59 23 -7 19 -16 22 -67 25 -39 2 -66
-2 -79 -12z"/>
<path d="M1466 834 c-12 -31 -5 -34 74 -34 l80 0 0 -41 c0 -33 -6 -47 -30 -69
-22 -21 -30 -37 -30 -62 0 -97 144 -113 165 -18 8 35 -17 86 -45 95 -17 5 -20
15 -20 64 0 31 -5 62 -12 69 -7 7 -44 12 -94 12 -65 0 -83 -3 -88 -16z"/>
<path d="M810 460 l0 -80 -46 0 c-38 0 -51 5 -74 30 -67 72 -181 1 -138 -86
28 -59 96 -69 141 -20 17 18 36 24 80 28 35 3 62 10 68 19 5 8 9 51 9 95 0 79
-6 94 -36 94 -2 0 -4 -36 -4 -80z"/>
<path d="M1110 445 l0 -75 65 -47 c58 -44 64 -51 65 -85 0 -49 49 -93 94 -84
37 7 76 48 76 79 0 39 -37 87 -67 88 -38 2 -36 2 -58 -5 -15 -4 -37 6 -78 36
l-57 42 0 63 c0 56 -2 63 -20 63 -18 0 -20 -7 -20 -75z"/>
<path d="M980 366 c0 -138 -1 -145 -21 -151 -31 -10 -51 -66 -38 -104 25 -72
126 -75 155 -5 12 29 12 39 0 68 -8 19 -24 37 -35 41 -20 6 -21 13 -21 151 0
137 -1 144 -20 144 -19 0 -20 -7 -20 -144z"/>
</g>
</svg>
