<?xml version="1.0" standalone="no"?>
<!DOCTYPE svg PUBLIC "-//W3C//DTD SVG 20010904//EN"
 "http://www.w3.org/TR/2001/REC-SVG-20010904/DTD/svg10.dtd">
<svg version="1.0" xmlns="http://www.w3.org/2000/svg"
 width="200.000000pt" height="200.000000pt" viewBox="0 0 200.000000 200.000000"
 preserveAspectRatio="xMidYMid meet">
<metadata>
Created by potrace 1.16, written by Peter Selinger 2001-2019
</metadata>
<g transform="translate(0.000000,200.000000) scale(0.100000,-0.100000)"
fill="#000000" stroke="none">
<path d="M1036 1760 c-110 -28 -190 -73 -266 -150 -55 -56 -116 -147 -106
-157 2 -2 15 1 30 7 15 5 61 10 101 10 102 0 171 -27 239 -93 115 -114 143
-272 74 -416 -13 -28 -73 -98 -155 -182 l-133 -135 -25 -173 c-29 -203 -30
-215 -9 -235 13 -14 57 -16 328 -16 287 0 314 1 329 18 10 10 21 53 28 110
l12 92 91 1 c112 0 150 13 190 62 31 39 31 39 34 183 l4 144 49 0 c40 0 55 5
74 25 14 13 25 34 25 45 0 12 -30 85 -66 163 -39 83 -72 170 -80 211 -45 220
-138 357 -295 437 -92 46 -149 59 -279 64 -93 4 -130 1 -194 -15z m615 -509
c33 -33 35 -50 14 -90 -15 -31 -33 -41 -70 -41 -37 0 -55 10 -70 41 -21 40
-19 57 14 90 38 38 74 38 112 0z"/>
<path d="M220 1360 c-70 -24 -141 -97 -160 -164 -16 -58 -7 -143 21 -199 13
-25 106 -128 228 -249 175 -177 211 -208 236 -208 24 0 61 32 238 208 214 212
248 256 262 339 15 92 -51 217 -137 261 -97 48 -239 21 -317 -62 -19 -20 -39
-36 -44 -36 -6 0 -33 22 -62 49 -37 35 -68 54 -105 65 -68 20 -92 20 -160 -4z
m392 -277 l3 -58 58 -3 58 -3 -3 -62 -3 -62 -57 -3 -57 -3 -3 -57 -3 -57 -54
-3 c-64 -4 -71 3 -71 71 l0 47 -49 0 c-61 0 -73 14 -69 77 l3 48 58 3 57 3 0
53 c0 29 3 56 7 59 3 4 32 7 64 7 l58 0 3 -57z"/>
</g>
</svg>
