<?xml version="1.0" standalone="no"?>
<!DOCTYPE svg PUBLIC "-//W3C//DTD SVG 20010904//EN"
 "http://www.w3.org/TR/2001/REC-SVG-20010904/DTD/svg10.dtd">
<svg version="1.0" xmlns="http://www.w3.org/2000/svg"
 width="200.000000pt" height="200.000000pt" viewBox="0 0 200.000000 200.000000"
 preserveAspectRatio="xMidYMid meet">
<metadata>
Created by potrace 1.16, written by Peter Selinger 2001-2019
</metadata>
<g transform="translate(0.000000,200.000000) scale(0.100000,-0.100000)"
fill="#000000" stroke="none">
<path d="M934 1766 c-46 -46 -46 -86 0 -132 25 -24 43 -34 66 -34 44 0 100 56
100 100 0 44 -56 100 -100 100 -23 0 -41 -9 -66 -34z m98 -33 c22 -20 23 -41
1 -65 -20 -22 -41 -23 -65 -1 -22 20 -23 41 -1 65 20 22 41 23 65 1z"/>
<path d="M1225 1722 c-11 -2 -47 -30 -80 -62 -72 -69 -91 -80 -145 -80 -54 0
-84 17 -150 84 -46 48 -60 56 -91 56 -20 0 -42 -7 -49 -15 -7 -8 -25 -15 -41
-15 -54 0 -69 -28 -69 -131 0 -160 -36 -199 -183 -199 -117 0 -147 -15 -147
-76 0 -50 19 -58 167 -69 l135 -10 4 -55 c5 -70 41 -142 114 -234 87 -107 280
-286 310 -286 16 0 150 113 221 187 135 140 196 239 203 333 l4 55 135 10
c148 11 167 19 167 69 0 60 -30 76 -145 76 -148 0 -176 29 -185 192 -6 120
-16 137 -77 138 -18 0 -33 4 -33 8 0 13 -42 29 -65 24z m-385 -115 c121 -114
214 -111 335 12 27 28 55 51 62 51 32 0 17 -27 -59 -108 -46 -48 -90 -102 -97
-120 -7 -17 -29 -40 -48 -52 -33 -20 -36 -20 -65 -3 -16 10 -39 36 -50 58 -11
21 -56 76 -100 122 -72 75 -87 103 -56 103 6 0 41 -29 78 -63z m-147 -79 l6
-112 -42 -46 c-24 -25 -49 -60 -57 -79 l-14 -34 -130 7 c-72 4 -133 9 -135 11
-2 2 -1 11 2 20 5 12 23 15 92 14 105 -1 162 23 203 84 23 35 27 52 30 131 3
104 6 116 25 116 11 0 15 -26 20 -112z m657 6 c4 -88 8 -106 32 -141 41 -61
98 -85 203 -84 69 1 87 -2 92 -14 3 -9 4 -18 2 -20 -2 -2 -63 -7 -135 -11
l-130 -7 -14 34 c-8 19 -33 54 -57 79 l-42 46 6 112 c5 96 8 112 22 110 13 -3
17 -22 21 -104z m-540 -95 c-30 -3 -56 -5 -56 -5 -1 1 -4 33 -8 71 l-7 70 63
-65 62 -65 -54 -6z m444 59 l-6 -65 -47 4 c-25 3 -50 6 -55 7 -5 1 17 30 49
64 32 35 60 61 62 59 2 -3 1 -34 -3 -69z m-373 -123 c23 -9 57 -27 75 -40 18
-14 37 -25 42 -25 6 0 33 15 61 34 89 60 175 60 242 -1 52 -47 72 -104 67
-191 -4 -78 -27 -121 -132 -244 -64 -75 -220 -218 -239 -218 -20 0 -194 167
-262 252 -35 42 -73 99 -86 124 -41 86 -24 200 39 268 52 55 114 68 193 41z"/>
<path d="M927 1234 c-4 -4 -7 -29 -7 -55 l0 -48 -52 -3 -53 -3 -3 -74 c-3 -85
1 -91 65 -91 l42 0 3 -52 3 -53 75 0 75 0 3 53 3 52 42 0 c64 0 68 6 65 91
l-3 74 -52 3 -52 3 -3 52 -3 52 -70 3 c-39 1 -74 0 -78 -4z m105 -96 l3 -53
53 -3 c50 -3 52 -4 52 -33 0 -28 -2 -29 -43 -29 -55 0 -67 -13 -67 -72 0 -47
-1 -48 -30 -48 -29 0 -30 1 -30 48 0 59 -12 72 -67 72 -41 0 -43 1 -43 29 0
29 2 30 53 33 l52 3 3 53 c3 50 4 52 32 52 28 0 29 -2 32 -52z"/>
<path d="M440 1583 c-52 -20 -83 -89 -60 -134 47 -92 173 -73 187 27 4 35 1
46 -23 73 -29 31 -74 46 -104 34z m65 -63 c20 -22 14 -67 -10 -77 -25 -9 -63
6 -70 28 -8 25 19 69 44 69 10 0 26 -9 36 -20z"/>
<path d="M1494 1581 c-65 -28 -84 -113 -35 -162 68 -68 184 -8 167 85 -11 59
-80 99 -132 77z m66 -61 c25 -25 25 -42 0 -65 -46 -41 -105 20 -64 66 22 24
39 24 64 -1z"/>
<path d="M238 1155 c-31 -18 -41 -43 -32 -82 9 -38 173 -481 192 -518 8 -16
52 -69 98 -117 82 -85 101 -120 116 -213 3 -19 11 -20 168 -20 l165 0 3 114
c4 182 -25 249 -153 356 -38 32 -96 82 -127 112 -67 63 -100 78 -140 64 l-29
-10 -63 132 c-82 172 -132 218 -198 182z m74 -62 c30 -32 158 -296 158 -326 0
-40 40 -103 108 -170 49 -49 73 -66 85 -61 9 3 17 11 17 16 0 6 -33 46 -74 88
-93 97 -113 160 -51 160 23 0 149 -105 265 -220 59 -59 80 -122 80 -241 l0
-89 -120 0 -119 0 -12 43 c-18 68 -37 97 -124 187 l-81 85 -79 210 c-106 286
-119 326 -103 337 19 12 22 11 50 -19z"/>
<path d="M1695 1160 c-39 -16 -75 -67 -134 -192 -60 -127 -60 -128 -87 -118
-37 15 -83 -2 -125 -46 -19 -20 -74 -70 -124 -111 -150 -126 -178 -185 -173
-374 l3 -114 164 0 164 0 12 55 c15 75 26 93 116 185 87 90 88 91 192 370 111
296 113 311 57 340 -32 17 -37 17 -65 5z m43 -48 c16 -11 3 -51 -103 -337
l-79 -210 -85 -90 c-81 -85 -112 -133 -125 -197 l-6 -28 -120 0 -120 0 0 89
c0 122 21 182 85 246 121 120 236 215 261 215 60 0 37 -66 -58 -166 -71 -75
-78 -88 -52 -98 11 -4 38 15 85 60 67 66 109 131 109 171 0 30 128 294 158
326 28 30 31 31 50 19z"/>
</g>
</svg>
