<?xml version="1.0" standalone="no"?>
<!DOCTYPE svg PUBLIC "-//W3C//DTD SVG 20010904//EN"
 "http://www.w3.org/TR/2001/REC-SVG-20010904/DTD/svg10.dtd">
<svg version="1.0" xmlns="http://www.w3.org/2000/svg"
 width="200.000000pt" height="200.000000pt" viewBox="0 0 200.000000 200.000000"
 preserveAspectRatio="xMidYMid meet">
<metadata>
Created by potrace 1.16, written by Peter Selinger 2001-2019
</metadata>
<g transform="translate(0.000000,200.000000) scale(0.100000,-0.100000)"
fill="#000000" stroke="none">
<path d="M963 1790 c-45 -18 -56 -80 -22 -124 16 -20 29 -26 59 -26 83 0 112
108 39 145 -32 17 -44 18 -76 5z"/>
<path d="M738 1709 c-37 -21 -21 -57 66 -149 46 -48 87 -98 91 -109 3 -12 12
-21 19 -21 7 0 30 -11 50 -25 l36 -24 36 24 c20 14 43 25 50 25 7 0 16 9 19
21 4 11 45 61 91 109 84 89 99 121 72 148 -22 22 -43 12 -98 -44 -121 -124
-219 -124 -340 0 -57 58 -64 62 -92 45z"/>
<path d="M637 1672 c-13 -14 -16 -38 -15 -107 2 -96 -9 -131 -54 -172 -36 -34
-72 -43 -168 -43 -79 0 -90 -2 -104 -21 -9 -14 -12 -29 -7 -43 8 -19 19 -22
137 -30 83 -6 129 -5 131 1 16 47 75 122 116 148 l48 30 -4 114 c-4 96 -7 117
-23 128 -24 18 -38 16 -57 -5z"/>
<path d="M1305 1676 c-17 -12 -20 -30 -23 -130 -3 -70 0 -116 5 -116 27 0 102
-73 129 -125 l29 -57 120 7 c66 4 126 12 133 17 15 13 16 50 0 66 -8 8 -47 12
-109 12 -83 0 -100 3 -130 23 -68 46 -96 119 -83 218 5 37 3 55 -10 74 -19 28
-34 31 -61 11z"/>
<path d="M410 1560 c-20 -20 -26 -63 -14 -95 9 -23 60 -46 88 -39 57 14 81 82
46 127 -27 34 -89 38 -120 7z"/>
<path d="M1471 1554 c-26 -33 -27 -64 -1 -97 26 -33 63 -41 99 -23 32 17 41
34 41 77 0 67 -97 97 -139 43z"/>
<path d="M729 1380 c-44 -23 -94 -79 -114 -127 -21 -50 -19 -158 4 -208 42
-91 163 -232 296 -345 l85 -72 58 48 c151 126 296 297 327 384 32 90 15 194
-43 260 -83 98 -193 104 -313 19 l-29 -20 -29 20 c-85 61 -176 76 -242 41z
m331 -240 l0 -60 55 0 55 0 0 -55 0 -55 -55 0 -55 0 0 -55 0 -55 -60 0 -60 0
0 55 0 55 -55 0 -55 0 0 55 0 55 55 0 55 0 0 60 0 60 60 0 60 0 0 -60z"/>
<path d="M230 1105 c-7 -9 -9 -26 -5 -47 14 -67 188 -514 215 -553 16 -22 53
-64 84 -92 61 -58 92 -110 102 -172 l7 -41 150 0 150 0 -6 113 c-9 190 -16
202 -235 396 -107 94 -136 110 -170 92 -52 -28 -29 -92 67 -186 62 -60 77 -95
42 -95 -29 0 -155 139 -176 194 -17 43 -17 50 -3 79 15 31 14 35 -42 150 -32
65 -70 131 -86 148 -30 32 -74 39 -94 14z"/>
<path d="M1674 1090 c-16 -16 -54 -83 -84 -148 -55 -115 -56 -119 -42 -149 14
-29 13 -36 -3 -79 -21 -55 -147 -194 -176 -194 -34 0 -20 34 37 90 99 97 124
163 72 191 -34 18 -63 2 -170 -92 -220 -195 -227 -206 -236 -397 l-5 -112 152
0 151 0 0 23 c0 56 32 115 100 186 39 40 81 86 94 104 23 31 197 479 211 545
14 66 -51 86 -101 32z"/>
</g>
</svg>
