<?xml version="1.0" standalone="no"?>
<!DOCTYPE svg PUBLIC "-//W3C//DTD SVG 20010904//EN"
 "http://www.w3.org/TR/2001/REC-SVG-20010904/DTD/svg10.dtd">
<svg version="1.0" xmlns="http://www.w3.org/2000/svg"
 width="200.000000pt" height="200.000000pt" viewBox="0 0 200.000000 200.000000"
 preserveAspectRatio="xMidYMid meet">
<metadata>
Created by potrace 1.16, written by Peter Selinger 2001-2019
</metadata>
<g transform="translate(0.000000,200.000000) scale(0.100000,-0.100000)"
fill="#000000" stroke="none">
<path d="M730 1841 c-78 -25 -148 -89 -171 -157 -18 -51 -18 -176 0 -239 20
-71 73 -172 118 -225 100 -120 293 -267 335 -256 28 7 176 117 239 178 152
147 228 338 198 496 -34 182 -225 265 -395 173 l-56 -30 -55 31 c-43 24 -69
32 -121 34 -37 2 -78 0 -92 -5z m131 -81 c20 -6 57 -28 82 -50 25 -22 50 -40
57 -40 7 0 32 18 57 40 98 86 231 74 290 -27 23 -40 25 -51 21 -132 -4 -78 -9
-98 -45 -173 -47 -99 -121 -180 -246 -272 l-77 -57 -68 48 c-84 60 -190 164
-227 223 -74 117 -98 281 -53 361 41 74 120 104 209 79z"/>
<path d="M972 1568 c-7 -7 -12 -34 -12 -60 l0 -48 -48 0 c-35 0 -54 -5 -66
-19 -32 -36 7 -71 79 -71 34 0 34 0 37 -51 6 -95 70 -96 76 -2 l3 51 51 4 c62
6 86 30 64 62 -10 16 -26 22 -65 24 l-51 3 0 48 c0 49 -12 71 -40 71 -9 0 -21
-5 -28 -12z"/>
<path d="M658 866 c-56 -15 -67 -23 -139 -98 -51 -52 -60 -58 -97 -58 l-41 0
-7 48 c-5 34 -16 56 -40 80 -28 28 -39 32 -84 32 -46 0 -56 -4 -86 -34 l-34
-34 0 -302 0 -302 34 -34 c50 -50 122 -50 172 0 21 21 34 44 34 60 0 25 2 26
54 26 47 0 60 -5 98 -35 24 -19 61 -47 82 -62 l39 -28 226 -3 c294 -5 334 0
410 46 161 98 554 377 572 406 41 67 16 163 -53 207 -65 40 -102 28 -420 -140
l-288 -151 -134 0 c-149 0 -169 8 -148 55 11 23 14 24 151 27 123 3 143 5 168
24 94 70 85 211 -17 261 -46 23 -378 30 -452 9z m-379 -90 c8 -9 11 -92 9
-281 -3 -242 -5 -269 -20 -279 -13 -8 -23 -8 -35 0 -16 10 -18 37 -21 279 -2
276 0 295 38 295 10 0 23 -6 29 -14z m811 -6 c29 -29 26 -74 -6 -99 -24 -19
-40 -21 -157 -21 l-129 0 -40 -40 c-39 -38 -40 -42 -36 -90 10 -101 60 -124
259 -118 l134 4 235 123 c129 68 261 139 293 157 32 19 68 34 79 34 31 0 68
-39 68 -71 0 -32 -13 -43 -220 -184 -80 -54 -196 -134 -259 -177 l-115 -78
-272 0 c-223 0 -274 3 -283 14 -7 8 -37 34 -68 57 -50 39 -61 43 -126 48 l-72
6 -3 141 -3 142 58 7 c69 8 107 30 152 85 62 78 70 80 294 80 184 0 198 -1
217 -20z"/>
</g>
</svg>
