<?xml version="1.0" standalone="no"?>
<!DOCTYPE svg PUBLIC "-//W3C//DTD SVG 20010904//EN"
 "http://www.w3.org/TR/2001/REC-SVG-20010904/DTD/svg10.dtd">
<svg version="1.0" xmlns="http://www.w3.org/2000/svg"
 width="200.000000pt" height="200.000000pt" viewBox="0 0 200.000000 200.000000"
 preserveAspectRatio="xMidYMid meet">
<metadata>
Created by potrace 1.16, written by Peter Selinger 2001-2019
</metadata>
<g transform="translate(0.000000,200.000000) scale(0.100000,-0.100000)"
fill="#000000" stroke="none">
<path d="M615 1854 c-188 -41 -336 -157 -420 -328 -38 -77 -68 -195 -63 -247
l3 -34 310 0 310 0 0 310 0 310 -35 2 c-19 1 -66 -5 -105 -13z m95 -304 l0
-260 -260 0 -260 0 0 43 c0 53 39 163 80 227 84 131 273 248 403 249 l37 1 0
-260z"/>
<path d="M1300 1774 c-66 -29 -110 -86 -110 -144 0 -23 4 -30 20 -30 11 0 23
8 26 18 20 63 36 84 81 104 39 17 52 19 83 9 51 -15 88 -55 97 -104 12 -60 41
-58 60 5 25 86 107 128 179 92 85 -42 99 -119 42 -226 -42 -80 -233 -282 -257
-272 -39 16 -51 16 -57 -1 -7 -18 38 -64 63 -65 21 0 159 127 222 206 108 134
138 217 107 299 -48 125 -208 163 -298 72 l-32 -32 -31 31 c-50 51 -130 66
-195 38z"/>
<path d="M820 1387 l0 -292 -205 -205 c-113 -113 -205 -213 -205 -222 0 -23
99 -101 175 -138 33 -15 96 -36 140 -45 132 -27 287 -3 246 38 -8 8 -43 11
-111 8 -114 -3 -178 11 -282 66 -124 65 -130 45 95 271 l197 198 0 282 c0 321
-11 292 99 267 175 -42 325 -176 391 -350 16 -42 24 -89 27 -160 6 -119 -11
-198 -63 -294 -35 -64 -38 -91 -9 -91 22 0 65 73 99 170 25 72 29 100 30 185
0 115 -17 185 -72 290 -93 180 -306 315 -496 315 l-56 0 0 -293z"/>
<path d="M148 1179 c-33 -19 -11 -164 42 -277 31 -67 104 -166 129 -177 18 -7
441 411 441 436 0 9 -7 20 -16 23 -27 11 -578 6 -596 -5z m354 -221 l-173
-173 -25 30 c-55 66 -114 211 -114 282 l0 33 242 0 243 0 -173 -172z"/>
<path d="M1018 889 c-16 -9 -18 -29 -18 -187 0 -200 8 -230 71 -264 33 -18 34
-20 39 -92 7 -90 37 -142 105 -182 90 -52 197 -39 268 34 59 60 67 92 67 258
0 144 1 147 25 170 52 48 21 134 -48 134 -70 0 -102 -83 -52 -130 24 -23 25
-27 25 -165 0 -126 -2 -145 -22 -185 -32 -63 -77 -90 -148 -90 -101 0 -161 59
-168 164 -4 64 -4 65 27 81 64 33 71 58 71 266 l0 187 -25 6 c-41 10 -77 -3
-73 -28 2 -13 11 -22 26 -24 22 -3 22 -5 22 -158 l0 -156 -30 -30 c-36 -35
-71 -33 -107 8 -22 24 -23 34 -23 179 0 151 0 154 22 157 26 3 37 36 16 49
-18 12 -49 11 -70 -2z m530 -202 c4 -20 -25 -34 -40 -19 -15 15 -1 44 19 40
10 -2 19 -11 21 -21z"/>
</g>
</svg>
