<?xml version="1.0" standalone="no"?>
<!DOCTYPE svg PUBLIC "-//W3C//DTD SVG 20010904//EN"
 "http://www.w3.org/TR/2001/REC-SVG-20010904/DTD/svg10.dtd">
<svg version="1.0" xmlns="http://www.w3.org/2000/svg"
 width="200.000000pt" height="200.000000pt" viewBox="0 0 200.000000 200.000000"
 preserveAspectRatio="xMidYMid meet">
<metadata>
Created by potrace 1.16, written by Peter Selinger 2001-2019
</metadata>
<g transform="translate(0.000000,200.000000) scale(0.100000,-0.100000)"
fill="#000000" stroke="none">
<path d="M615 1854 c-38 -8 -106 -33 -151 -54 -183 -88 -326 -303 -328 -495
l-1 -60 310 0 310 0 0 310 0 310 -35 2 c-19 1 -66 -5 -105 -13z"/>
<path d="M1295 1771 c-46 -20 -92 -70 -101 -107 -5 -20 -1 -29 17 -41 13 -9
58 -50 99 -92 84 -85 138 -176 165 -281 18 -70 30 -90 51 -90 23 0 159 125
223 206 108 134 138 217 107 299 -48 125 -208 163 -298 72 l-32 -32 -31 31
c-52 53 -131 67 -200 35z"/>
<path d="M820 1387 l0 -292 -205 -205 c-113 -113 -205 -213 -205 -222 0 -24
91 -95 175 -135 96 -45 188 -63 289 -56 l81 6 -3 207 c-3 193 -2 208 17 231
16 20 27 24 73 23 67 -2 109 -2 175 0 80 2 95 -18 102 -136 l6 -93 36 60 c58
94 82 182 82 300 0 116 -17 185 -71 290 -93 180 -306 315 -496 315 l-56 0 0
-293z"/>
<path d="M148 1179 c-11 -6 -18 -22 -18 -42 0 -54 28 -164 56 -228 29 -63 103
-167 131 -183 12 -6 62 38 229 205 118 118 214 221 214 230 0 9 -7 20 -16 23
-27 11 -578 6 -596 -5z"/>
<path d="M1018 889 c-16 -9 -18 -29 -18 -187 0 -200 8 -230 71 -264 33 -18 34
-20 39 -92 7 -90 37 -142 105 -182 90 -52 197 -39 268 34 59 60 67 92 67 258
0 144 1 147 25 170 52 48 21 134 -48 134 -70 0 -102 -83 -52 -130 24 -23 25
-27 25 -165 0 -126 -2 -145 -22 -185 -32 -63 -77 -90 -148 -90 -43 0 -65 6
-90 23 -57 38 -74 70 -78 145 -4 67 -4 67 27 78 16 7 39 27 50 45 19 31 21 50
21 220 l0 187 -25 6 c-41 10 -77 -3 -73 -28 2 -13 11 -22 26 -24 22 -3 22 -5
22 -158 l0 -156 -30 -30 c-36 -35 -71 -33 -107 8 -22 24 -23 34 -23 179 0 151
0 154 22 157 26 3 37 36 16 49 -18 12 -49 11 -70 -2z m530 -202 c4 -20 -25
-34 -40 -19 -15 15 -1 44 19 40 10 -2 19 -11 21 -21z"/>
</g>
</svg>
