<?xml version="1.0" standalone="no"?>
<!DOCTYPE svg PUBLIC "-//W3C//DTD SVG 20010904//EN"
 "http://www.w3.org/TR/2001/REC-SVG-20010904/DTD/svg10.dtd">
<svg version="1.0" xmlns="http://www.w3.org/2000/svg"
 width="200.000000pt" height="200.000000pt" viewBox="0 0 200.000000 200.000000"
 preserveAspectRatio="xMidYMid meet">
<metadata>
Created by potrace 1.16, written by Peter Selinger 2001-2019
</metadata>
<g transform="translate(0.000000,200.000000) scale(0.100000,-0.100000)"
fill="#000000" stroke="none">
<path d="M125 1676 c-16 -8 -41 -24 -54 -36 -48 -46 -51 -69 -51 -375 l0 -286
23 3 c21 3 22 6 25 146 l3 142 929 0 930 0 0 -410 c0 -348 -2 -416 -15 -440
-32 -63 8 -60 -915 -60 -923 0 -883 -3 -915 60 -12 23 -15 68 -15 212 0 101
-4 189 -9 197 -5 8 -16 11 -25 8 -14 -6 -16 -32 -16 -199 0 -218 9 -252 77
-298 l37 -25 830 -3 c457 -2 850 0 874 3 50 7 108 53 128 102 21 48 20 1119 0
1166 -16 39 -61 82 -99 96 -19 8 -299 11 -870 11 -683 -1 -848 -3 -872 -14z
m1745 -51 c50 -26 60 -60 60 -195 l0 -120 -930 0 -930 0 0 125 c0 137 8 162
59 190 40 22 1699 22 1741 0z"/>
<path d="M234 1546 c-66 -66 -24 -165 69 -166 101 0 136 139 47 185 -46 24
-78 19 -116 -19z m111 -40 c33 -49 -22 -103 -72 -70 -13 8 -23 25 -23 39 0 53
66 75 95 31z"/>
<path d="M490 1567 c-14 -7 -33 -29 -43 -49 -16 -33 -16 -40 -4 -71 19 -43 52
-67 95 -67 47 0 71 16 88 57 20 46 10 86 -28 118 -32 27 -69 32 -108 12z m84
-53 c41 -40 -4 -105 -57 -85 -33 13 -43 46 -23 76 19 29 57 33 80 9z"/>
<path d="M972 1555 c-38 -32 -48 -72 -28 -118 25 -61 27 -62 398 -65 377 -4
407 0 438 51 30 48 26 83 -14 123 l-34 34 -365 0 -365 0 -30 -25z m762 -41
c23 -22 20 -60 -6 -78 -19 -14 -71 -16 -363 -16 -370 0 -385 2 -385 55 0 55 1
55 385 55 308 0 356 -2 369 -16z"/>
<path d="M1375 1115 c-22 -21 -25 -33 -25 -95 l0 -70 -69 0 c-54 0 -74 -4 -95
-21 -25 -19 -26 -25 -26 -113 0 -128 7 -136 111 -136 l79 0 0 -75 c0 -107 10
-115 139 -115 123 0 131 7 131 117 l0 73 79 0 c104 0 111 8 111 136 0 88 -1
94 -26 113 -21 17 -41 21 -95 21 l-69 0 0 74 c0 69 -2 76 -26 95 -22 18 -41
21 -111 21 -76 0 -86 -2 -108 -25z m195 -104 c0 -115 -3 -111 101 -111 l89 0
0 -85 0 -85 -76 0 c-110 0 -114 -3 -114 -105 l0 -85 -85 0 -85 0 0 85 c0 102
-4 105 -114 105 l-76 0 0 85 0 84 93 3 92 3 3 80 c1 44 4 86 7 93 3 8 29 12
85 12 l80 0 0 -79z"/>
<path d="M193 1054 c-3 -8 -1 -20 4 -25 5 -5 164 -8 399 -7 381 3 389 3 389
23 0 20 -8 20 -393 23 -350 2 -393 1 -399 -14z"/>
<path d="M27 943 c-4 -3 -7 -21 -7 -40 0 -27 4 -33 20 -33 25 0 34 21 26 55
-6 24 -25 33 -39 18z"/>
<path d="M193 935 c-3 -9 -2 -19 2 -23 9 -9 781 -9 790 0 4 4 5 14 2 23 -6 13
-54 15 -397 15 -343 0 -391 -2 -397 -15z"/>
<path d="M207 833 c-10 -3 -17 -12 -15 -21 3 -16 38 -17 398 -17 356 0 395 2
398 16 2 10 -6 19 -20 23 -26 7 -734 6 -761 -1z"/>
<path d="M193 704 c-3 -8 -1 -20 4 -25 5 -5 164 -8 399 -7 381 3 389 3 389 23
0 20 -8 20 -393 23 -350 2 -393 1 -399 -14z"/>
<path d="M193 584 c-3 -9 0 -20 8 -25 18 -11 760 -11 778 0 8 5 11 16 8 25 -6
14 -48 16 -397 16 -349 0 -391 -2 -397 -16z"/>
</g>
</svg>
