<?xml version="1.0" standalone="no"?>
<!DOCTYPE svg PUBLIC "-//W3C//DTD SVG 20010904//EN"
 "http://www.w3.org/TR/2001/REC-SVG-20010904/DTD/svg10.dtd">
<svg version="1.0" xmlns="http://www.w3.org/2000/svg"
 width="200.000000pt" height="200.000000pt" viewBox="0 0 200.000000 200.000000"
 preserveAspectRatio="xMidYMid meet">
<metadata>
Created by potrace 1.16, written by Peter Selinger 2001-2019
</metadata>
<g transform="translate(0.000000,200.000000) scale(0.100000,-0.100000)"
fill="#000000" stroke="none">
<path d="M1560 1852 c-41 -20 -60 -53 -60 -104 0 -37 -1 -38 -37 -38 -51 0
-83 -18 -106 -59 -25 -42 -14 -106 18 -106 17 0 20 7 21 43 1 24 7 49 13 55 7
7 40 14 74 17 l62 5 5 63 c5 65 16 82 55 82 39 0 50 -17 55 -82 l5 -63 62 -5
c69 -6 86 -16 86 -55 0 -39 -17 -49 -86 -55 l-62 -5 -5 -63 c-4 -48 -10 -67
-24 -78 -11 -8 -23 -14 -28 -14 -12 0 -10 -38 2 -45 15 -10 73 27 87 56 7 13
13 40 13 60 0 36 0 36 51 41 89 9 134 85 89 156 -22 36 -54 52 -106 52 -32 0
-34 2 -34 35 0 48 -24 91 -60 110 -37 19 -47 19 -90 -3z"/>
<path d="M355 1629 c-19 -17 -35 -39 -35 -48 0 -18 59 -81 76 -81 16 0 74 64
74 82 0 13 -62 78 -75 78 -2 0 -20 -14 -40 -31z m50 -49 c3 -5 -1 -10 -9 -10
-9 0 -16 5 -16 10 0 6 4 10 9 10 6 0 13 -4 16 -10z"/>
<path d="M1455 1540 c-7 -12 12 -40 28 -40 5 0 15 -7 22 -17 20 -27 47 -9 43
29 -3 31 -6 33 -45 36 -22 2 -44 -2 -48 -8z"/>
<path d="M634 1516 c-63 -15 -112 -45 -157 -96 -45 -49 -62 -82 -75 -146 -33
-154 79 -363 305 -573 128 -117 263 -221 289 -221 31 0 104 56 104 80 0 27
-23 25 -67 -4 l-36 -25 -81 61 c-45 34 -142 122 -217 197 -186 187 -249 296
-249 431 0 227 289 335 451 168 38 -40 69 -110 69 -159 0 -14 7 -32 15 -39 23
-19 45 5 45 50 0 22 12 60 28 91 78 150 272 187 399 75 84 -73 114 -189 78
-291 -13 -35 -12 -42 0 -55 13 -12 17 -12 29 0 23 25 36 80 36 155 0 280 -347
418 -536 213 -23 -24 -46 -53 -53 -64 -11 -19 -12 -19 -24 1 -7 11 -35 43 -63
71 -38 39 -66 56 -114 72 -72 25 -102 26 -176 8z"/>
<path d="M162 1307 c-18 -18 -32 -37 -32 -43 0 -16 64 -74 81 -74 17 0 79 60
79 76 0 16 -64 74 -81 74 -8 0 -29 -15 -47 -33z m58 -47 c0 -5 -4 -10 -10 -10
-5 0 -10 5 -10 10 0 6 5 10 10 10 6 0 10 -4 10 -10z"/>
<path d="M642 1047 c-18 -18 -32 -40 -32 -48 0 -17 60 -79 76 -79 16 0 74 64
74 81 0 17 -60 79 -76 79 -6 0 -24 -15 -42 -33z m48 -47 c0 -5 -4 -10 -10 -10
-5 0 -10 5 -10 10 0 6 5 10 10 10 6 0 10 -4 10 -10z"/>
<path d="M1333 1020 c-38 -15 -43 -41 -43 -219 l0 -171 -55 0 c-46 0 -60 -4
-80 -25 -25 -24 -25 -26 -25 -205 0 -204 7 -231 65 -256 50 -20 560 -20 610 0
64 27 65 33 65 451 l0 377 -29 29 -29 29 -229 -1 c-125 0 -238 -4 -250 -9z
m481 -66 c3 -9 6 -174 6 -368 0 -302 -2 -355 -16 -374 -15 -22 -19 -22 -242
-22 l-227 0 3 377 c1 208 4 384 7 391 3 9 59 12 234 12 199 0 230 -2 235 -16z
m-524 -550 c0 -102 -4 -183 -10 -195 -15 -27 -64 -25 -84 3 -13 18 -16 54 -16
183 0 112 4 165 12 173 7 7 31 12 55 12 l43 0 0 -176z"/>
<path d="M1405 884 c-12 -13 -13 -19 -4 -30 10 -12 45 -14 183 -12 166 3 171
4 174 24 4 30 -18 34 -190 34 -121 0 -149 -3 -163 -16z"/>
<path d="M1407 784 c-4 -4 -7 -16 -7 -26 0 -17 12 -18 181 -18 l180 0 -3 23
c-3 22 -5 22 -174 25 -93 1 -173 -1 -177 -4z"/>
<path d="M1405 674 c-12 -13 -13 -19 -4 -30 10 -12 45 -14 183 -12 166 3 171
4 174 24 4 30 -18 34 -190 34 -121 0 -149 -3 -163 -16z"/>
<path d="M1407 574 c-4 -4 -7 -16 -7 -26 0 -17 12 -18 181 -18 l180 0 -3 23
c-3 22 -5 22 -174 25 -93 1 -173 -1 -177 -4z"/>
<path d="M1397 456 c-12 -31 18 -37 189 -34 161 3 169 4 169 23 0 19 -8 20
-176 23 -147 2 -178 0 -182 -12z"/>
<path d="M1407 364 c-13 -13 -7 -42 9 -48 20 -8 292 -8 322 0 16 5 22 13 20
28 -3 20 -8 21 -174 24 -93 1 -173 -1 -177 -4z"/>
</g>
</svg>
