<?xml version="1.0" standalone="no"?>
<!DOCTYPE svg PUBLIC "-//W3C//DTD SVG 20010904//EN"
 "http://www.w3.org/TR/2001/REC-SVG-20010904/DTD/svg10.dtd">
<svg version="1.0" xmlns="http://www.w3.org/2000/svg"
 width="200.000000pt" height="200.000000pt" viewBox="0 0 200.000000 200.000000"
 preserveAspectRatio="xMidYMid meet">
<metadata>
Created by potrace 1.16, written by Peter Selinger 2001-2019
</metadata>
<g transform="translate(0.000000,200.000000) scale(0.100000,-0.100000)"
fill="#000000" stroke="none">
<path d="M1560 1852 c-41 -20 -60 -53 -60 -104 0 -37 -1 -38 -34 -38 -52 0
-84 -16 -106 -52 -31 -50 -23 -78 25 -93 93 -27 190 -105 229 -182 20 -39 26
-40 62 -10 20 18 28 35 31 74 l5 51 50 4 c88 9 132 86 88 156 -22 36 -54 52
-106 52 -32 0 -34 2 -34 35 0 48 -24 91 -60 110 -37 19 -47 19 -90 -3z"/>
<path d="M355 1629 c-19 -17 -35 -39 -35 -48 0 -18 59 -81 76 -81 16 0 74 64
74 82 0 13 -62 78 -75 78 -2 0 -20 -14 -40 -31z m55 -49 c0 -5 -7 -10 -15 -10
-8 0 -15 5 -15 10 0 6 7 10 15 10 8 0 15 -4 15 -10z"/>
<path d="M607 1506 c-91 -34 -172 -115 -197 -200 -16 -52 -14 -152 3 -202 61
-170 227 -366 472 -554 112 -86 108 -85 154 -55 33 23 39 32 44 72 7 61 49
104 109 112 l43 6 5 161 c4 144 7 164 25 184 38 42 68 50 194 50 l119 0 12 35
c14 44 15 130 1 183 -26 94 -120 187 -214 213 -65 17 -174 8 -230 -21 -44 -22
-104 -78 -134 -126 -12 -18 -13 -18 -30 6 -30 44 -98 105 -138 125 -51 25
-184 31 -238 11z m120 -458 c18 -18 33 -39 33 -47 0 -17 -58 -81 -74 -81 -16
0 -76 62 -76 79 0 17 58 81 74 81 6 0 25 -14 43 -32z"/>
<path d="M670 1000 c0 -5 5 -10 10 -10 6 0 10 5 10 10 0 6 -4 10 -10 10 -5 0
-10 -4 -10 -10z"/>
<path d="M162 1307 c-18 -18 -32 -37 -32 -43 0 -16 64 -74 81 -74 17 0 79 60
79 76 0 16 -64 74 -81 74 -8 0 -29 -15 -47 -33z m58 -47 c0 -5 -4 -10 -10 -10
-5 0 -10 5 -10 10 0 6 5 10 10 10 6 0 10 -4 10 -10z"/>
<path d="M1333 1020 c-38 -15 -43 -41 -43 -219 l0 -171 -55 0 c-46 0 -60 -4
-80 -25 -25 -24 -25 -26 -25 -205 0 -204 7 -231 65 -256 50 -20 560 -20 610 0
64 27 65 33 65 451 l0 377 -29 29 -29 29 -229 -1 c-125 0 -238 -4 -250 -9z
m481 -66 c3 -9 6 -174 6 -368 0 -302 -2 -355 -16 -374 -15 -22 -19 -22 -242
-22 l-227 0 3 377 c1 208 4 384 7 391 3 9 59 12 234 12 199 0 230 -2 235 -16z
m-524 -550 c0 -102 -4 -183 -10 -195 -15 -27 -64 -25 -84 3 -13 18 -16 54 -16
183 0 112 4 165 12 173 7 7 31 12 55 12 l43 0 0 -176z"/>
<path d="M1405 884 c-12 -13 -13 -19 -4 -30 10 -12 45 -14 183 -12 166 3 171
4 174 24 4 30 -18 34 -190 34 -121 0 -149 -3 -163 -16z"/>
<path d="M1407 784 c-4 -4 -7 -16 -7 -26 0 -17 12 -18 181 -18 l180 0 -3 23
c-3 22 -5 22 -174 25 -93 1 -173 -1 -177 -4z"/>
<path d="M1405 674 c-12 -13 -13 -19 -4 -30 10 -12 45 -14 183 -12 166 3 171
4 174 24 4 30 -18 34 -190 34 -121 0 -149 -3 -163 -16z"/>
<path d="M1407 574 c-4 -4 -7 -16 -7 -26 0 -17 12 -18 181 -18 l180 0 -3 23
c-3 22 -5 22 -174 25 -93 1 -173 -1 -177 -4z"/>
<path d="M1397 456 c-12 -31 18 -37 189 -34 161 3 169 4 169 23 0 19 -8 20
-176 23 -147 2 -178 0 -182 -12z"/>
<path d="M1407 364 c-13 -13 -7 -42 9 -48 20 -8 292 -8 322 0 16 5 22 13 20
28 -3 20 -8 21 -174 24 -93 1 -173 -1 -177 -4z"/>
</g>
</svg>
