<?xml version="1.0" standalone="no"?>
<!DOCTYPE svg PUBLIC "-//W3C//DTD SVG 20010904//EN"
 "http://www.w3.org/TR/2001/REC-SVG-20010904/DTD/svg10.dtd">
<svg version="1.0" xmlns="http://www.w3.org/2000/svg"
 width="200.000000pt" height="200.000000pt" viewBox="0 0 200.000000 200.000000"
 preserveAspectRatio="xMidYMid meet">
<metadata>
Created by potrace 1.16, written by Peter Selinger 2001-2019
</metadata>
<g transform="translate(0.000000,200.000000) scale(0.100000,-0.100000)"
fill="#000000" stroke="none">
<path d="M495 1788 c-45 -24 -55 -49 -55 -140 l0 -88 -70 0 c-83 0 -90 -8 -90
-99 0 -75 18 -91 102 -91 l58 0 0 -60 0 -60 -64 0 c-85 0 -96 -11 -96 -95 0
-84 11 -95 96 -95 l64 0 0 -60 0 -60 -63 0 c-83 0 -97 -14 -97 -97 0 -79 15
-93 98 -93 l62 0 0 -60 0 -60 -58 0 c-84 0 -102 -16 -102 -91 0 -91 7 -99 90
-99 l70 0 0 -89 c0 -81 3 -93 24 -118 l24 -28 586 0 586 0 27 28 28 27 3 725
c2 646 1 729 -13 756 -31 59 -30 59 -637 59 -383 -1 -559 -4 -573 -12z m1161
-36 c33 -22 34 -49 34 -759 0 -625 -2 -711 -16 -731 l-15 -22 -577 0 c-345 0
-583 4 -592 10 -11 7 -16 36 -20 112 l-5 103 -75 5 -75 5 0 55 0 55 78 3 77 3
0 94 0 94 -77 3 -78 3 0 60 0 60 78 3 77 3 0 89 0 89 -77 3 -78 3 0 60 0 60
78 3 78 3 -3 92 -3 92 -78 3 -78 3 3 57 3 57 78 3 77 3 0 96 c0 76 4 100 17
115 15 17 47 18 587 18 314 0 576 -4 582 -8z"/>
<path d="M1000 1310 c-17 -17 -20 -33 -20 -120 l0 -100 -104 0 c-77 0 -107 -4
-115 -14 -7 -9 -11 -41 -9 -82 3 -62 6 -70 28 -81 14 -7 62 -13 113 -13 l87 0
0 -95 c0 -82 3 -98 20 -115 25 -25 114 -28 148 -4 20 14 22 23 22 120 l0 104
109 0 c90 0 110 3 115 16 11 28 6 140 -6 152 -8 8 -48 12 -115 12 l-103 0 0
104 c0 97 -2 106 -22 120 -34 24 -123 21 -148 -4z"/>
</g>
</svg>
