<?xml version="1.0" standalone="no"?>
<!DOCTYPE svg PUBLIC "-//W3C//DTD SVG 20010904//EN"
 "http://www.w3.org/TR/2001/REC-SVG-20010904/DTD/svg10.dtd">
<svg version="1.0" xmlns="http://www.w3.org/2000/svg"
 width="200.000000pt" height="200.000000pt" viewBox="0 0 200.000000 200.000000"
 preserveAspectRatio="xMidYMid meet">
<metadata>
Created by potrace 1.16, written by Peter Selinger 2001-2019
</metadata>
<g transform="translate(0.000000,200.000000) scale(0.100000,-0.100000)"
fill="#000000" stroke="none">
<path d="M492 1773 c-27 -11 -42 -62 -42 -143 l0 -80 -58 0 c-83 0 -94 -11
-90 -90 l3 -65 73 -3 72 -3 0 -74 0 -75 -58 0 c-83 0 -94 -11 -90 -90 l3 -65
73 -3 72 -3 0 -79 0 -79 -72 -3 -73 -3 -3 -65 c-4 -79 7 -90 90 -90 l58 0 0
-75 0 -74 -72 -3 -73 -3 -3 -69 c-2 -49 1 -72 10 -77 7 -5 41 -9 75 -9 l61 0
4 -96 c5 -148 -59 -134 625 -134 l574 0 24 25 25 24 0 731 0 731 -25 24 -24
25 -573 -1 c-315 0 -579 -3 -586 -6z m658 -482 c5 -11 10 -63 10 -115 l0 -96
103 0 c67 0 107 -4 115 -12 7 -7 12 -37 12 -68 0 -31 -5 -61 -12 -68 -8 -8
-48 -12 -115 -12 l-103 0 0 -98 c0 -127 -5 -134 -90 -130 l-65 3 -3 112 -3
112 -112 3 -112 3 -3 69 c-2 49 1 72 10 77 7 5 59 9 116 9 l102 0 0 108 c0 60
3 112 7 115 3 4 35 7 69 7 52 0 65 -3 74 -19z"/>
</g>
</svg>
