<?xml version="1.0" standalone="no"?>
<!DOCTYPE svg PUBLIC "-//W3C//DTD SVG 20010904//EN"
 "http://www.w3.org/TR/2001/REC-SVG-20010904/DTD/svg10.dtd">
<svg version="1.0" xmlns="http://www.w3.org/2000/svg"
 width="200.000000pt" height="200.000000pt" viewBox="0 0 200.000000 200.000000"
 preserveAspectRatio="xMidYMid meet">
<metadata>
Created by potrace 1.16, written by Peter Selinger 2001-2019
</metadata>
<g transform="translate(0.000000,200.000000) scale(0.100000,-0.100000)"
fill="#000000" stroke="none">
<path d="M197 1928 c-53 -14 -112 -73 -126 -125 -8 -30 -11 -265 -9 -825 3
-724 4 -785 20 -815 23 -41 72 -78 123 -92 58 -16 1529 -15 1592 1 61 15 116
70 131 131 17 65 17 1529 0 1594 -15 61 -70 116 -131 131 -60 16 -1543 15
-1600 0z m1595 -135 c17 -15 18 -53 18 -791 0 -708 -1 -777 -17 -794 -15 -17
-53 -18 -791 -18 -708 0 -777 1 -794 17 -17 15 -18 53 -18 791 0 708 1 777 17
794 15 17 53 18 791 18 708 0 777 -1 794 -17z"/>
<path d="M652 1515 c-76 -21 -133 -58 -196 -125 -65 -71 -96 -145 -104 -247
-5 -71 -5 -72 -36 -79 -64 -13 -86 -64 -46 -104 15 -15 33 -20 75 -20 46 0 56
-3 66 -22 16 -33 529 -547 562 -564 24 -13 30 -13 55 0 32 17 545 531 561 564
10 19 20 22 66 22 42 0 60 5 75 20 38 38 15 93 -43 104 l-34 6 -5 73 c-7 98
-39 175 -99 241 -87 96 -194 146 -311 146 -55 0 -158 -32 -199 -61 -15 -10
-30 -19 -34 -19 -4 0 -40 16 -81 36 -88 44 -183 54 -272 29z m245 -157 c76
-47 131 -51 183 -13 57 42 112 58 189 53 61 -3 76 -8 127 -43 32 -22 70 -59
85 -83 32 -51 51 -128 43 -172 l-6 -30 -127 0 c-81 0 -135 -5 -151 -13 -14 -7
-38 -34 -55 -60 -16 -25 -33 -47 -36 -47 -3 0 -25 50 -50 111 -69 173 -108
182 -190 44 -27 -44 -53 -88 -59 -99 -11 -17 -14 -16 -51 20 l-40 39 -139 3
-139 3 -6 28 c-14 67 37 188 100 237 72 54 105 65 186 62 67 -3 82 -7 136 -40z
m143 -486 c35 -83 51 -110 73 -120 39 -19 55 -6 123 97 l59 91 75 0 75 0 -223
-222 -222 -223 -222 223 -223 222 76 0 75 0 58 -65 c84 -96 106 -91 181 42 22
39 42 69 45 66 3 -2 25 -52 50 -111z"/>
</g>
</svg>
