<?xml version="1.0" standalone="no"?>
<!DOCTYPE svg PUBLIC "-//W3C//DTD SVG 20010904//EN"
 "http://www.w3.org/TR/2001/REC-SVG-20010904/DTD/svg10.dtd">
<svg version="1.0" xmlns="http://www.w3.org/2000/svg"
 width="200.000000pt" height="200.000000pt" viewBox="0 0 200.000000 200.000000"
 preserveAspectRatio="xMidYMid meet">
<metadata>
Created by potrace 1.16, written by Peter Selinger 2001-2019
</metadata>
<g transform="translate(0.000000,200.000000) scale(0.100000,-0.100000)"
fill="#000000" stroke="none">
<path d="M760 1652 c0 -150 -53 -265 -184 -402 -51 -52 -107 -117 -125 -143
-34 -50 -81 -149 -81 -170 0 -7 16 -21 36 -32 104 -56 159 -198 119 -310 -8
-21 -13 -41 -11 -43 2 -2 43 -9 90 -16 126 -19 156 -53 156 -181 l0 -75 320 0
320 0 0 220 0 220 -40 0 c-202 0 -387 149 -429 348 -41 195 52 393 226 481 56
28 146 51 200 51 l43 0 0 60 0 60 -320 0 -320 0 0 -68z"/>
<path d="M1275 1511 c-64 -17 -107 -42 -160 -92 -104 -98 -138 -229 -96 -367
27 -89 102 -177 189 -219 50 -24 68 -27 152 -27 113 0 161 19 244 95 78 71
111 149 111 259 -1 72 -5 95 -29 148 -33 72 -107 146 -181 181 -51 24 -178 36
-230 22z m205 -101 c61 -30 97 -66 126 -123 31 -61 37 -144 12 -161 -27 -17
-52 4 -60 52 -19 111 -90 176 -193 177 -78 0 -119 -20 -123 -60 -5 -43 -19
-55 -63 -55 -43 0 -69 26 -69 70 0 34 28 73 47 66 8 -4 28 4 45 15 74 53 195
61 278 19z m-333 -222 c6 -7 13 -33 17 -58 15 -100 91 -165 191 -165 78 1 119
20 123 60 5 43 19 55 63 55 43 0 69 -26 69 -70 0 -32 -28 -73 -45 -66 -8 3
-39 -9 -70 -26 -84 -45 -162 -49 -244 -13 -100 45 -171 146 -171 245 0 43 44
68 67 38z"/>
<path d="M340 788 c0 -48 -3 -55 -30 -70 -56 -32 -33 -78 39 -78 32 0 51 -6
68 -21 l22 -22 11 27 c23 62 -4 154 -57 196 -42 33 -53 26 -53 -32z"/>
</g>
</svg>
