<?xml version="1.0" standalone="no"?>
<!DOCTYPE svg PUBLIC "-//W3C//DTD SVG 20010904//EN"
 "http://www.w3.org/TR/2001/REC-SVG-20010904/DTD/svg10.dtd">
<svg version="1.0" xmlns="http://www.w3.org/2000/svg"
 width="200.000000pt" height="200.000000pt" viewBox="0 0 200.000000 200.000000"
 preserveAspectRatio="xMidYMid meet">
<metadata>
Created by potrace 1.16, written by Peter Selinger 2001-2019
</metadata>
<g transform="translate(0.000000,200.000000) scale(0.100000,-0.100000)"
fill="#000000" stroke="none">
<path d="M566 1565 c-85 -35 -145 -89 -188 -172 -52 -101 -61 -210 -24 -303 5
-11 -3 -19 -25 -27 -46 -18 -36 -47 17 -51 40 -3 54 -15 340 -303 164 -164
305 -299 314 -299 9 0 155 139 324 309 258 260 313 310 339 313 41 4 49 33 13
50 -24 10 -26 15 -19 47 5 20 8 69 7 108 -1 63 -6 83 -38 148 -63 127 -168
195 -312 203 -106 6 -173 -14 -253 -74 l-61 -46 -61 46 c-74 56 -138 76 -238
76 -57 0 -91 -7 -135 -25z m283 -54 c24 -13 65 -43 91 -67 26 -24 53 -44 60
-44 7 0 36 22 66 49 130 119 313 122 442 6 90 -81 127 -215 92 -332 l-13 -43
-211 -2 -210 -3 -50 -83 c-27 -46 -52 -79 -56 -75 -5 4 -49 104 -100 221 -51
117 -97 215 -102 218 -17 11 -37 -17 -109 -152 l-72 -134 -128 0 c-147 0 -143
-2 -159 96 -26 159 71 313 230 365 48 16 182 4 229 -20z m99 -476 c50 -115 96
-211 102 -213 18 -6 36 15 94 113 l57 95 175 0 175 0 -20 -27 c-11 -16 -135
-143 -275 -283 l-256 -255 -265 265 c-146 146 -265 268 -265 272 0 5 52 8 115
8 l115 0 23 38 c13 20 45 77 71 125 27 49 52 85 56 80 4 -4 48 -102 98 -218z"/>
</g>
</svg>
