<?xml version="1.0" standalone="no"?>
<!DOCTYPE svg PUBLIC "-//W3C//DTD SVG 20010904//EN"
 "http://www.w3.org/TR/2001/REC-SVG-20010904/DTD/svg10.dtd">
<svg version="1.0" xmlns="http://www.w3.org/2000/svg"
 width="200.000000pt" height="200.000000pt" viewBox="0 0 200.000000 200.000000"
 preserveAspectRatio="xMidYMid meet">
<metadata>
Created by potrace 1.16, written by Peter Selinger 2001-2019
</metadata>
<g transform="translate(0.000000,200.000000) scale(0.100000,-0.100000)"
fill="#000000" stroke="none">
<path d="M860 1685 c-316 -63 -560 -361 -560 -684 0 -322 224 -601 545 -681
154 -38 306 -20 465 57 79 38 108 59 181 132 73 73 94 102 132 181 115 239 96
497 -53 715 -65 95 -205 204 -319 249 -114 44 -264 57 -391 31z m340 -74 c189
-65 340 -217 407 -408 24 -69 28 -93 28 -203 0 -96 -4 -138 -19 -180 -71 -210
-226 -368 -422 -430 -97 -31 -231 -37 -328 -16 -240 54 -436 246 -492 481 -23
102 -15 256 19 353 69 196 232 350 437 412 91 28 276 23 370 -9z"/>
<path d="M887 1334 c-4 -4 -7 -51 -7 -105 0 -79 -3 -98 -16 -103 -9 -3 -58 -6
-110 -6 l-94 0 0 -120 0 -120 99 0 c69 0 102 -4 109 -13 6 -7 13 -56 14 -108
l3 -94 115 0 115 0 3 102 c3 119 -6 111 132 115 l85 3 0 115 0 115 -85 3
c-138 4 -129 -4 -132 115 l-3 102 -111 3 c-60 1 -113 -1 -117 -4z"/>
</g>
</svg>
