<?xml version="1.0" standalone="no"?>
<!DOCTYPE svg PUBLIC "-//W3C//DTD SVG 20010904//EN"
 "http://www.w3.org/TR/2001/REC-SVG-20010904/DTD/svg10.dtd">
<svg version="1.0" xmlns="http://www.w3.org/2000/svg"
 width="200.000000pt" height="200.000000pt" viewBox="0 0 200.000000 200.000000"
 preserveAspectRatio="xMidYMid meet">
<metadata>
Created by potrace 1.16, written by Peter Selinger 2001-2019
</metadata>
<g transform="translate(0.000000,200.000000) scale(0.100000,-0.100000)"
fill="#000000" stroke="none">
<path d="M737 1633 c-4 -3 -7 -86 -7 -184 l0 -179 -182 -2 -183 -3 0 -265 0
-265 182 -3 183 -2 2 -183 3 -182 265 0 265 0 3 182 2 183 183 2 182 3 0 265
0 265 -182 3 -183 2 -2 183 -3 182 -261 3 c-143 1 -263 -1 -267 -5z m475 -228
c2 -143 6 -178 18 -185 8 -5 90 -10 183 -10 l167 0 0 -209 0 -210 -174 -3
c-96 -2 -178 -7 -183 -11 -4 -5 -9 -87 -11 -183 l-3 -174 -209 0 -209 0 -3
174 c-2 96 -7 178 -11 183 -5 4 -87 9 -183 11 l-174 3 0 210 0 209 168 0 c92
0 174 5 182 10 12 7 16 42 18 185 l3 175 209 0 209 0 3 -175z"/>
</g>
</svg>
