<?xml version="1.0" standalone="no"?>
<!DOCTYPE svg PUBLIC "-//W3C//DTD SVG 20010904//EN"
 "http://www.w3.org/TR/2001/REC-SVG-20010904/DTD/svg10.dtd">
<svg version="1.0" xmlns="http://www.w3.org/2000/svg"
 width="200.000000pt" height="200.000000pt" viewBox="0 0 200.000000 200.000000"
 preserveAspectRatio="xMidYMid meet">
<metadata>
Created by potrace 1.16, written by Peter Selinger 2001-2019
</metadata>
<g transform="translate(0.000000,200.000000) scale(0.100000,-0.100000)"
fill="#000000" stroke="none">
<path d="M1021 1634 c-62 -18 -110 -60 -137 -119 -26 -56 -40 -134 -30 -161 6
-14 10 -13 31 10 29 31 72 34 107 7 l24 -19 34 54 c64 99 124 95 174 -13 l30
-63 43 0 c80 0 123 -78 70 -128 -20 -19 -35 -22 -110 -22 -84 0 -87 1 -108 30
l-22 30 -34 -50 c-36 -53 -58 -70 -95 -70 -19 -1 -11 -12 54 -73 42 -40 102
-90 133 -111 l56 -39 57 39 c31 21 102 84 158 139 131 130 169 202 169 315 -1
113 -46 189 -144 240 -54 28 -167 6 -218 -42 l-23 -21 -22 20 c-53 48 -132 67
-197 47z"/>
<path d="M1118 1427 c-7 -8 -33 -46 -58 -85 -24 -40 -48 -72 -52 -72 -5 0 -16
16 -25 35 -25 52 -58 57 -83 10 -8 -16 -23 -25 -43 -27 -38 -4 -56 -30 -38
-52 17 -21 79 -21 102 0 16 15 19 13 38 -24 19 -38 44 -57 60 -47 5 2 32 40
61 84 l52 80 27 -52 26 -52 74 0 c58 0 76 4 84 17 19 29 -8 48 -68 48 l-53 0
-28 66 c-30 70 -54 93 -76 71z"/>
<path d="M840 870 c-20 -3 -42 -10 -50 -15 -15 -8 -202 -126 -209 -132 -2 -1
27 -49 65 -107 l69 -104 75 5 c45 3 119 -1 185 -11 165 -25 165 -25 409 136
116 77 215 144 220 149 5 5 4 15 -5 25 -21 25 -82 12 -205 -47 -60 -28 -140
-62 -179 -75 -68 -24 -73 -24 -195 -13 -69 6 -131 16 -137 21 -29 23 4 29 135
26 l137 -3 3 26 c4 34 -5 40 -123 81 -118 41 -148 47 -195 38z"/>
<path d="M430 729 c-38 -23 -60 -46 -60 -65 0 -24 191 -302 211 -307 26 -7
113 52 117 78 4 29 -187 309 -213 313 -11 1 -36 -7 -55 -19z"/>
</g>
</svg>
