<?xml version="1.0" standalone="no"?>
<!DOCTYPE svg PUBLIC "-//W3C//DTD SVG 20010904//EN"
 "http://www.w3.org/TR/2001/REC-SVG-20010904/DTD/svg10.dtd">
<svg version="1.0" xmlns="http://www.w3.org/2000/svg"
 width="200.000000pt" height="200.000000pt" viewBox="0 0 200.000000 200.000000"
 preserveAspectRatio="xMidYMid meet">
<metadata>
Created by potrace 1.16, written by Peter Selinger 2001-2019
</metadata>
<g transform="translate(0.000000,200.000000) scale(0.100000,-0.100000)"
fill="#000000" stroke="none">
<path d="M635 1567 c-22 -8 -54 -21 -70 -29 -48 -25 -134 -123 -163 -185 -24
-51 -27 -70 -27 -160 l0 -101 53 -105 c64 -126 158 -245 277 -351 97 -85 275
-216 295 -216 37 0 330 236 416 336 245 285 278 525 99 713 -76 80 -135 106
-240 105 -95 -1 -143 -19 -226 -87 l-56 -46 -34 35 c-78 82 -227 123 -324 91z
m433 -444 l3 -52 52 -3 52 -3 0 -65 0 -65 -52 -3 -52 -3 -3 -52 -3 -52 -67 -3
-68 -3 0 55 0 55 -52 3 -53 3 0 65 0 65 53 3 52 3 0 48 c0 26 3 51 7 55 4 4
34 6 68 4 l60 -3 3 -52z"/>
</g>
</svg>
