<?xml version="1.0" standalone="no"?>
<!DOCTYPE svg PUBLIC "-//W3C//DTD SVG 20010904//EN"
 "http://www.w3.org/TR/2001/REC-SVG-20010904/DTD/svg10.dtd">
<svg version="1.0" xmlns="http://www.w3.org/2000/svg"
 width="200.000000pt" height="200.000000pt" viewBox="0 0 200.000000 200.000000"
 preserveAspectRatio="xMidYMid meet">
<metadata>
Created by potrace 1.16, written by Peter Selinger 2001-2019
</metadata>
<g transform="translate(0.000000,200.000000) scale(0.100000,-0.100000)"
fill="#000000" stroke="none">
<path d="M453 1799 c-78 -15 -175 -69 -239 -133 -120 -120 -174 -291 -141
-450 32 -153 29 -150 486 -609 329 -331 421 -417 441 -417 19 0 65 40 197 173
l172 172 -13 30 c-10 24 -24 34 -67 48 -113 35 -159 85 -159 171 0 86 48 132
181 175 32 10 37 17 58 81 36 114 114 167 205 140 67 -20 91 -54 141 -198 3
-7 17 -17 32 -23 26 -10 31 -7 65 31 21 23 53 73 72 110 163 327 -83 710 -457
710 -134 0 -247 -48 -354 -153 l-73 -70 -74 71 c-82 77 -144 114 -233 137 -61
16 -171 18 -240 4z"/>
<path d="M1507 1053 c-2 -4 -15 -39 -27 -78 -29 -88 -59 -117 -151 -144 -107
-33 -105 -64 7 -101 90 -30 110 -51 143 -145 25 -70 32 -80 52 -80 21 0 28 10
52 80 15 44 36 88 46 99 10 10 54 31 97 46 68 24 79 31 79 51 0 20 -11 27 -74
51 -41 15 -85 38 -98 51 -13 13 -36 57 -51 98 -21 57 -33 75 -49 77 -12 2 -23
0 -26 -5z"/>
</g>
</svg>
