<?xml version="1.0" standalone="no"?>
<!DOCTYPE svg PUBLIC "-//W3C//DTD SVG 20010904//EN"
 "http://www.w3.org/TR/2001/REC-SVG-20010904/DTD/svg10.dtd">
<svg version="1.0" xmlns="http://www.w3.org/2000/svg"
 width="200.000000pt" height="200.000000pt" viewBox="0 0 200.000000 200.000000"
 preserveAspectRatio="xMidYMid meet">
<metadata>
Created by potrace 1.16, written by Peter Selinger 2001-2019
</metadata>
<g transform="translate(0.000000,200.000000) scale(0.100000,-0.100000)"
fill="#000000" stroke="none">
<path d="M965 1891 c-135 -24 -210 -150 -160 -273 5 -13 2 -18 -8 -18 -39 0
-24 -83 17 -94 11 -4 36 -25 54 -48 27 -34 32 -48 28 -72 -12 -57 -30 -73 -93
-80 -77 -9 -170 -55 -208 -103 -29 -37 -64 -121 -65 -155 0 -12 -8 -18 -24
-18 -30 0 -36 -27 -36 -165 0 -242 74 -433 226 -581 58 -57 95 -83 184 -127
l112 -56 48 18 c166 63 326 204 399 351 23 47 51 119 62 160 22 83 36 280 25
353 -6 41 -10 47 -31 47 -19 0 -26 7 -31 28 -31 147 -123 231 -272 248 -59 6
-61 8 -76 45 -9 22 -16 47 -16 57 1 20 56 84 88 101 13 7 28 24 33 39 9 22 7
30 -10 44 -18 14 -19 21 -11 43 52 136 -82 282 -235 256z m118 -35 c44 -18 95
-78 103 -122 4 -20 1 -57 -5 -83 -7 -25 -16 -66 -22 -91 -5 -25 -18 -56 -29
-70 -54 -67 -54 -69 -41 -118 17 -65 33 -78 99 -86 140 -16 226 -93 256 -228
l6 -28 -69 0 c-118 0 -241 58 -333 157 l-46 50 -66 -64 c-92 -90 -186 -133
-302 -141 l-85 -5 6 39 c23 126 112 200 265 221 52 8 56 10 78 53 30 59 28 83
-9 125 -34 38 -66 133 -76 221 -8 73 26 129 102 168 37 19 125 21 168 2z
m-261 -306 c3 -16 3 -30 2 -30 -9 0 -34 34 -34 46 0 27 28 14 32 -16z m380 4
c-3 -16 -22 -37 -28 -31 -8 8 11 57 20 54 6 -2 9 -13 8 -23z m-143 -406 c107
-99 207 -138 353 -138 86 0 88 -1 94 -26 12 -49 -3 -266 -25 -349 -52 -197
-180 -359 -352 -450 l-69 -36 0 35 c0 20 -4 36 -10 36 -5 0 -10 -18 -10 -39 0
-25 -5 -41 -15 -45 -13 -5 -15 10 -15 97 l1 102 56 35 c128 81 228 212 252
331 26 125 -43 225 -167 245 -31 5 -53 1 -96 -19 l-56 -26 -56 26 c-43 20 -64
24 -97 19 -108 -17 -172 -93 -171 -203 1 -124 119 -293 263 -378 l51 -30 0
-102 c0 -57 -2 -103 -4 -103 -2 0 -37 15 -77 34 -193 88 -330 248 -390 458
-21 76 -38 311 -25 362 6 26 8 26 95 26 145 0 273 53 370 154 19 20 37 36 39
36 2 0 30 -24 61 -52z m-132 -233 c21 -9 45 -23 54 -31 15 -13 20 -12 54 10
20 14 52 28 69 32 80 14 175 -47 196 -127 32 -119 -76 -304 -242 -414 l-58
-38 -57 38 c-130 86 -219 205 -245 326 -10 49 -9 63 6 103 35 91 136 137 223
101z"/>
<path d="M950 725 c0 -33 -2 -35 -35 -35 l-35 0 0 -55 0 -55 35 0 c33 0 35 -2
35 -35 l0 -35 50 0 50 0 0 34 c0 32 3 35 33 38 31 3 32 4 35 56 l3 52 -35 0
c-34 0 -36 2 -36 35 l0 35 -50 0 -50 0 0 -35z m82 -17 c3 -29 7 -33 36 -36 28
-3 32 -7 32 -32 0 -25 -4 -29 -32 -32 -30 -3 -33 -6 -36 -40 -3 -34 -6 -38
-32 -38 -26 0 -29 4 -32 38 -3 34 -6 37 -35 40 -29 3 -33 7 -33 32 0 25 4 29
33 32 28 3 32 7 35 36 3 28 7 32 32 32 25 0 29 -4 32 -32z"/>
<path d="M609 1470 c-14 -11 -18 -19 -11 -20 19 0 52 19 52 30 0 16 -16 12
-41 -10z"/>
<path d="M1360 1480 c0 -11 33 -30 52 -30 7 0 2 9 -12 20 -28 22 -40 25 -40
10z"/>
<path d="M535 1420 c-15 -16 -15 -20 -3 -20 8 0 23 9 33 20 15 16 15 20 3 20
-8 0 -23 -9 -33 -20z"/>
<path d="M1452 1413 c15 -15 31 -23 35 -19 9 8 -32 46 -50 46 -7 0 1 -12 15
-27z"/>
<path d="M470 1365 c-18 -19 -20 -25 -8 -25 15 0 48 30 48 43 0 14 -17 6 -40
-18z"/>
<path d="M1521 1354 c13 -14 25 -20 27 -14 5 15 -17 40 -36 40 -12 0 -10 -6 9
-26z"/>
<path d="M412 1300 c-24 -38 -6 -42 21 -5 13 18 14 25 5 25 -7 0 -19 -9 -26
-20z"/>
<path d="M1569 1302 c5 -10 17 -24 25 -32 24 -19 21 12 -2 33 -24 22 -35 21
-23 -1z"/>
<path d="M360 1231 c-17 -33 -11 -47 10 -21 11 14 20 28 20 33 0 14 -20 7 -30
-12z"/>
<path d="M1620 1241 c0 -5 9 -19 20 -32 22 -28 28 -6 6 24 -14 18 -26 22 -26
8z"/>
<path d="M317 1153 c-11 -20 -13 -34 -7 -38 6 -3 15 6 20 21 16 41 6 54 -13
17z"/>
<path d="M1675 1139 c19 -35 30 -32 21 6 -4 14 -13 25 -21 25 -14 0 -14 -4 0
-31z"/>
<path d="M282 1070 c-6 -16 -7 -32 -2 -35 4 -3 13 8 18 25 6 16 7 32 2 35 -4
3 -13 -8 -18 -25z"/>
<path d="M1705 1068 c9 -27 22 -44 30 -36 8 7 -16 58 -27 58 -5 0 -6 -10 -3
-22z"/>
<path d="M256 984 c-6 -24 -2 -43 8 -33 11 10 17 59 8 59 -5 0 -13 -12 -16
-26z"/>
<path d="M1734 978 c7 -34 13 -44 21 -36 9 8 -7 68 -17 68 -6 0 -8 -13 -4 -32z"/>
<path d="M266 891 c-4 -6 -4 -22 0 -36 5 -22 3 -25 -19 -25 -19 0 -26 6 -29
23 -2 12 -10 22 -18 22 -8 0 -16 -10 -18 -22 -2 -13 1 -23 7 -23 17 0 13 -17
-6 -24 -10 -4 -20 -1 -25 9 -11 19 -32 19 -48 0 -18 -22 5 -47 36 -39 20 5 24
2 24 -15 0 -14 -6 -21 -20 -21 -24 0 -37 -27 -22 -42 9 -9 16 -7 30 5 16 15
19 15 31 -5 12 -19 11 -23 -9 -38 -29 -22 -21 -53 12 -48 18 2 23 9 23 33 0
23 5 31 23 33 16 3 22 -2 22 -17 0 -27 19 -37 37 -19 13 13 12 17 -3 32 -14
15 -15 19 -3 27 20 12 26 11 33 -6 7 -20 45 -19 52 0 9 24 -15 46 -42 39 -21
-5 -24 -3 -24 19 0 20 4 24 20 20 23 -6 39 22 22 39 -8 8 -15 8 -27 -2 -12
-10 -18 -10 -31 1 -14 11 -13 14 6 29 13 10 21 25 18 36 -3 21 -42 32 -52 15z
m34 -21 c0 -5 -4 -10 -10 -10 -5 0 -10 5 -10 10 0 6 5 10 10 10 6 0 10 -4 10
-10z m-160 -70 c0 -5 -4 -10 -10 -10 -5 0 -10 5 -10 10 0 6 5 10 10 10 6 0 10
-4 10 -10z m144 -12 c9 -12 16 -28 16 -35 0 -20 -38 -53 -60 -53 -23 0 -60 33
-60 55 0 23 37 55 64 55 14 0 32 -10 40 -22z m76 -78 c0 -5 -4 -10 -10 -10 -5
0 -10 5 -10 10 0 6 5 10 10 10 6 0 10 -4 10 -10z m-165 -69 c3 -5 1 -12 -5
-16 -5 -3 -10 1 -10 9 0 18 6 21 15 7z"/>
<path d="M1687 893 c-14 -13 -6 -43 14 -54 19 -10 20 -12 6 -27 -13 -12 -19
-13 -31 -3 -8 7 -20 10 -26 6 -17 -11 -11 -37 10 -42 11 -3 20 -14 20 -25 0
-14 -5 -18 -19 -13 -22 7 -46 -18 -37 -40 7 -20 43 -19 54 1 9 16 11 16 33 0
17 -12 19 -16 7 -16 -22 0 -30 -26 -13 -40 18 -15 35 -5 35 21 0 15 6 20 23
17 17 -2 22 -10 22 -33 0 -24 5 -31 23 -33 32 -5 42 27 14 46 -25 16 -28 32
-10 50 9 9 16 8 30 -5 14 -12 21 -14 30 -5 15 15 2 42 -22 42 -14 0 -20 7 -20
21 0 17 4 20 24 15 28 -7 49 13 40 38 -8 20 -40 21 -52 1 -5 -10 -15 -13 -25
-9 -18 7 -23 24 -7 24 13 0 13 37 0 45 -15 9 -40 -14 -33 -31 4 -10 -3 -14
-22 -14 -23 0 -26 3 -22 21 3 11 3 27 0 35 -5 14 -35 19 -46 7z m33 -23 c0 -5
-4 -10 -10 -10 -5 0 -10 5 -10 10 0 6 5 10 10 10 6 0 10 -4 10 -10z m81 -81
c14 -14 18 -27 14 -42 -16 -52 -78 -62 -104 -16 -13 24 -13 29 2 53 21 32 59
34 88 5z m79 11 c0 -5 -4 -10 -10 -10 -5 0 -10 5 -10 10 0 6 5 10 10 10 6 0
10 -4 10 -10z m-220 -90 c0 -5 -4 -10 -10 -10 -5 0 -10 5 -10 10 0 6 5 10 10
10 6 0 10 -4 10 -10z m160 -76 c0 -8 -5 -12 -10 -9 -6 4 -8 11 -5 16 9 14 15
11 15 -7z"/>
<path d="M275 548 c4 -13 11 -27 16 -32 15 -16 20 0 10 28 -13 32 -35 36 -26
4z"/>
<path d="M1709 544 c-11 -30 -3 -46 11 -24 10 16 13 50 5 50 -3 0 -10 -12 -16
-26z"/>
<path d="M311 460 c6 -16 15 -30 20 -30 12 0 11 17 -1 41 -17 30 -30 22 -19
-11z"/>
<path d="M1676 461 c-9 -16 -12 -32 -7 -35 10 -6 37 52 28 60 -3 3 -13 -8 -21
-25z"/>
<path d="M1533 413 c-18 -7 -16 -40 3 -47 24 -9 6 -27 -22 -20 -20 5 -24 2
-24 -15 0 -12 6 -21 15 -21 8 0 15 -7 15 -15 0 -8 -6 -12 -13 -9 -17 6 -41
-21 -32 -36 9 -15 35 -12 41 5 5 12 9 13 21 4 10 -9 11 -14 2 -20 -14 -8 -5
-39 12 -39 6 0 13 9 16 20 8 29 33 25 33 -4 0 -32 18 -43 37 -23 14 14 13 17
-5 33 -16 13 -19 21 -10 31 8 10 14 11 25 2 10 -9 17 -9 25 -1 13 13 2 32 -18
32 -8 0 -14 7 -14 15 0 9 8 14 22 12 14 -1 23 4 26 16 5 24 -28 35 -43 13 -15
-19 -28 -6 -19 18 9 23 -5 39 -22 25 -7 -6 -11 -15 -8 -20 3 -5 -4 -9 -16 -9
-16 0 -20 4 -15 19 6 20 -13 41 -32 34z m82 -113 c0 -29 -4 -36 -23 -38 -43
-6 -69 37 -40 66 7 7 24 12 38 10 21 -3 25 -8 25 -38z"/>
<path d="M436 401 c-4 -5 -3 -16 0 -25 4 -12 0 -16 -16 -16 -11 0 -19 4 -16 9
3 5 -1 14 -8 20 -17 14 -31 -2 -22 -25 9 -24 -4 -37 -19 -18 -15 22 -48 11
-43 -13 3 -12 12 -17 26 -16 14 2 22 -3 22 -12 0 -8 -6 -15 -14 -15 -20 0 -31
-19 -18 -32 8 -8 16 -7 26 2 23 18 33 -14 11 -36 -14 -15 -15 -19 -2 -32 19
-19 37 -7 37 24 0 29 25 33 33 4 3 -11 10 -20 16 -20 16 0 26 31 13 39 -7 4
-8 11 -1 21 8 13 11 13 20 -2 11 -20 34 -24 44 -8 9 15 -15 42 -32 36 -7 -3
-13 1 -13 9 0 8 7 15 15 15 9 0 15 9 15 21 0 17 -4 20 -24 15 -28 -7 -46 11
-22 20 23 9 20 44 -3 44 -11 0 -22 -4 -25 -9z m18 -83 c16 -26 -4 -53 -40 -53
-23 0 -30 5 -32 23 -2 13 -1 30 2 38 8 20 56 14 70 -8z"/>
</g>
</svg>
