<?xml version="1.0" standalone="no"?>
<!DOCTYPE svg PUBLIC "-//W3C//DTD SVG 20010904//EN"
 "http://www.w3.org/TR/2001/REC-SVG-20010904/DTD/svg10.dtd">
<svg version="1.0" xmlns="http://www.w3.org/2000/svg"
 width="200.000000pt" height="200.000000pt" viewBox="0 0 200.000000 200.000000"
 preserveAspectRatio="xMidYMid meet">
<metadata>
Created by potrace 1.16, written by Peter Selinger 2001-2019
</metadata>
<g transform="translate(0.000000,200.000000) scale(0.100000,-0.100000)"
fill="#000000" stroke="none">
<path d="M874 1771 c-72 -12 -147 -38 -234 -82 -181 -91 -315 -249 -386 -454
-26 -73 -28 -93 -28 -225 -1 -167 12 -228 75 -356 96 -197 280 -348 499 -410
92 -26 309 -26 400 0 268 78 467 275 552 546 19 63 23 96 22 200 0 149 -18
230 -74 347 -98 203 -270 347 -489 413 -81 24 -251 35 -337 21z m281 -70 c223
-54 388 -185 486 -386 204 -420 -24 -902 -481 -1016 -33 -8 -103 -14 -175 -13
-107 1 -130 4 -208 31 -48 17 -113 46 -144 64 -74 43 -208 178 -251 251 -102
172 -127 396 -67 585 36 113 88 196 185 293 68 68 103 94 170 128 161 79 328
101 485 63z"/>
<path d="M830 1320 l0 -150 -150 0 -150 0 0 -170 0 -170 150 0 150 0 0 -150 0
-150 170 0 170 0 0 150 0 150 150 0 150 0 0 170 0 170 -150 0 -150 0 0 150 0
150 -170 0 -170 0 0 -150z m280 -60 l0 -150 150 0 150 0 0 -110 0 -110 -150 0
-150 0 0 -145 0 -145 -110 0 -110 0 0 145 0 145 -150 0 -150 0 0 110 0 110
150 0 150 0 0 150 0 150 110 0 110 0 0 -150z"/>
</g>
</svg>
