<?xml version="1.0" standalone="no"?>
<!DOCTYPE svg PUBLIC "-//W3C//DTD SVG 20010904//EN"
 "http://www.w3.org/TR/2001/REC-SVG-20010904/DTD/svg10.dtd">
<svg version="1.0" xmlns="http://www.w3.org/2000/svg"
 width="200.000000pt" height="200.000000pt" viewBox="0 0 200.000000 200.000000"
 preserveAspectRatio="xMidYMid meet">
<metadata>
Created by potrace 1.16, written by Peter Selinger 2001-2019
</metadata>
<g transform="translate(0.000000,200.000000) scale(0.100000,-0.100000)"
fill="#000000" stroke="none">
<path d="M433 1745 c-275 -60 -429 -371 -310 -627 13 -29 113 -165 222 -303
209 -265 263 -329 308 -360 27 -20 27 -21 16 -81 -12 -67 -2 -129 22 -129 10
0 15 19 19 77 3 43 8 80 11 83 3 3 41 -4 84 -15 93 -24 129 -25 213 -5 119 28
204 86 291 198 31 41 50 55 86 66 61 18 156 80 216 142 115 118 240 355 287
547 35 139 28 149 -110 151 l-67 1 -26 44 c-36 62 -135 153 -197 181 -186 84
-392 39 -531 -115 l-46 -51 -64 65 c-71 73 -154 118 -246 136 -68 13 -101 12
-178 -5z m250 -64 c72 -31 132 -78 178 -138 23 -29 49 -53 58 -53 9 0 37 27
63 59 157 197 421 218 607 47 31 -29 86 -105 79 -110 -2 -1 -46 -8 -98 -14
-53 -6 -136 -23 -185 -37 -222 -65 -365 -172 -443 -335 -45 -92 -84 -229 -102
-354 -11 -70 -16 -84 -56 -133 -24 -29 -53 -72 -64 -94 -24 -46 -32 -44 -96
23 -79 83 -435 543 -462 598 -24 50 -27 66 -27 165 0 98 3 116 27 167 27 58
89 133 142 171 16 11 57 31 90 44 52 20 75 23 151 19 63 -2 105 -10 138 -25z
m1137 -255 c-16 -15 -909 -698 -929 -710 -35 -22 44 276 103 389 40 76 134
171 211 212 138 73 341 120 525 122 90 1 102 -1 90 -13z m50 -30 c0 -2 -9 -35
-21 -72 -59 -192 -162 -384 -264 -492 -127 -135 -236 -174 -487 -176 -102 0
-161 3 -168 10 -8 8 117 109 457 372 428 329 483 370 483 358z m-749 -781
l157 0 -30 -37 c-79 -100 -197 -157 -324 -158 -57 0 -167 21 -182 35 -6 6 31
71 70 122 l40 53 57 -8 c31 -4 126 -7 212 -7z"/>
<path d="M320 1505 c-6 -8 -9 -19 -5 -25 10 -16 42 -12 49 6 12 32 -21 47 -44
19z"/>
<path d="M271 1447 c-21 -26 -41 -100 -41 -151 0 -58 21 -128 49 -166 16 -20
22 -22 35 -11 14 12 13 17 -10 56 -36 62 -41 126 -15 203 20 59 21 82 2 82 -5
0 -14 -6 -20 -13z"/>
</g>
</svg>
