<?xml version="1.0" standalone="no"?>
<!DOCTYPE svg PUBLIC "-//W3C//DTD SVG 20010904//EN"
 "http://www.w3.org/TR/2001/REC-SVG-20010904/DTD/svg10.dtd">
<svg version="1.0" xmlns="http://www.w3.org/2000/svg"
 width="200.000000pt" height="200.000000pt" viewBox="0 0 200.000000 200.000000"
 preserveAspectRatio="xMidYMid meet">
<metadata>
Created by potrace 1.16, written by Peter Selinger 2001-2019
</metadata>
<g transform="translate(0.000000,200.000000) scale(0.100000,-0.100000)"
fill="#000000" stroke="none">
<path d="M730 1690 c-19 -19 -20 -33 -20 -210 l0 -190 -190 0 c-177 0 -191 -1
-210 -20 -19 -19 -20 -33 -20 -270 0 -237 1 -251 20 -270 19 -19 33 -20 210
-20 l190 0 0 -190 c0 -177 1 -191 20 -210 19 -19 33 -20 270 -20 237 0 251 1
270 20 19 19 20 33 20 210 l0 190 190 0 c177 0 191 1 210 20 19 19 20 33 20
270 0 237 -1 251 -20 270 -19 19 -33 20 -210 20 l-190 0 0 190 c0 177 -1 191
-20 210 -19 19 -33 20 -270 20 -237 0 -251 -1 -270 -20z m458 -281 c2 -147 6
-200 15 -208 9 -6 87 -12 208 -13 l194 -3 0 -185 0 -185 -194 -3 c-121 -1
-199 -7 -208 -13 -9 -8 -13 -61 -15 -208 l-3 -196 -185 0 -185 0 -3 194 c-1
121 -7 199 -13 208 -8 9 -61 13 -208 15 l-196 3 0 185 0 185 194 3 c123 1 199
6 208 13 10 9 13 56 13 204 0 105 3 195 7 199 4 3 88 5 187 4 l181 -3 3 -196z"/>
</g>
</svg>
