<?xml version="1.0" standalone="no"?>
<!DOCTYPE svg PUBLIC "-//W3C//DTD SVG 20010904//EN"
 "http://www.w3.org/TR/2001/REC-SVG-20010904/DTD/svg10.dtd">
<svg version="1.0" xmlns="http://www.w3.org/2000/svg"
 width="200.000000pt" height="200.000000pt" viewBox="0 0 200.000000 200.000000"
 preserveAspectRatio="xMidYMid meet">
<metadata>
Created by potrace 1.16, written by Peter Selinger 2001-2019
</metadata>
<g transform="translate(0.000000,200.000000) scale(0.100000,-0.100000)"
fill="#000000" stroke="none">
<path d="M960 1844 c-39 -63 -154 -141 -264 -181 -71 -25 -177 -44 -306 -56
-117 -11 -125 -13 -128 -34 -3 -17 3 -24 25 -29 39 -10 256 13 350 37 108 27
249 98 312 157 l51 48 50 -47 c106 -99 293 -169 510 -190 63 -6 116 -12 117
-13 1 -1 -13 -163 -33 -360 -28 -284 -40 -372 -59 -427 -54 -160 -134 -246
-408 -437 l-177 -124 -194 136 c-209 147 -282 212 -334 299 -63 104 -79 173
-107 459 -14 144 -28 269 -30 276 -6 17 -44 15 -51 -2 -8 -22 44 -524 62 -591
30 -115 98 -229 185 -310 58 -54 451 -335 469 -335 26 0 445 307 500 367 76
81 144 216 164 328 19 100 80 749 73 768 -4 10 -34 16 -108 21 -249 17 -431
79 -542 185 -21 20 -45 48 -53 64 -20 37 -48 34 -74 -9z"/>
<path d="M877 1334 c-4 -4 -7 -51 -7 -105 l0 -98 -102 -3 -103 -3 0 -125 0
-125 102 -3 102 -3 3 -102 3 -102 125 0 125 0 0 55 c0 52 -1 55 -25 55 -20 0
-26 -6 -28 -27 -3 -28 -4 -28 -73 -28 l-69 0 0 93 c0 59 -4 97 -12 105 -8 8
-46 12 -105 12 l-93 0 0 70 0 70 93 0 c59 0 97 4 105 12 8 8 12 46 12 105 l0
93 70 0 70 0 0 -93 c0 -59 4 -97 12 -105 8 -8 46 -12 105 -12 l93 0 0 -70 0
-70 -94 0 c-98 0 -123 -10 -110 -44 6 -14 23 -16 133 -14 l126 3 0 125 0 125
-102 3 -102 3 -3 102 -3 102 -121 3 c-66 1 -123 -1 -127 -4z"/>
</g>
</svg>
