<?xml version="1.0" standalone="no"?>
<!DOCTYPE svg PUBLIC "-//W3C//DTD SVG 20010904//EN"
 "http://www.w3.org/TR/2001/REC-SVG-20010904/DTD/svg10.dtd">
<svg version="1.0" xmlns="http://www.w3.org/2000/svg"
 width="200.000000pt" height="200.000000pt" viewBox="0 0 200.000000 200.000000"
 preserveAspectRatio="xMidYMid meet">
<metadata>
Created by potrace 1.16, written by Peter Selinger 2001-2019
</metadata>
<g transform="translate(0.000000,200.000000) scale(0.100000,-0.100000)"
fill="#000000" stroke="none">
<path d="M473 1825 c-132 -29 -247 -115 -302 -223 -91 -180 -74 -440 44 -690
87 -183 205 -327 400 -487 122 -100 339 -253 370 -261 46 -11 373 225 536 386
124 123 190 212 249 335 225 468 118 864 -254 941 -175 37 -361 -33 -488 -184
l-27 -32 -53 56 c-128 136 -309 197 -475 159z m216 -94 c108 -34 199 -106 253
-200 40 -70 77 -67 123 10 70 119 227 209 367 209 110 0 238 -68 297 -157 90
-136 90 -352 1 -575 -76 -189 -171 -318 -350 -476 -107 -94 -334 -259 -368
-268 -18 -5 -44 7 -110 52 -236 160 -450 361 -540 506 -213 345 -213 711 0
853 97 63 217 80 327 46z"/>
<path d="M969 1274 c-10 -12 -15 -52 -17 -135 l-4 -117 -120 -4 c-105 -3 -121
-5 -134 -22 -17 -24 -17 -28 0 -52 13 -17 29 -19 134 -22 l120 -4 4 -120 c3
-105 5 -121 22 -134 26 -18 32 -18 56 6 18 18 20 33 20 134 l0 114 121 4 c106
3 122 5 135 22 17 24 17 28 0 52 -13 17 -29 19 -135 22 l-121 4 0 106 c0 115
-12 155 -46 160 -11 2 -27 -5 -35 -14z"/>
</g>
</svg>
