<?xml version="1.0" standalone="no"?>
<!DOCTYPE svg PUBLIC "-//W3C//DTD SVG 20010904//EN"
 "http://www.w3.org/TR/2001/REC-SVG-20010904/DTD/svg10.dtd">
<svg version="1.0" xmlns="http://www.w3.org/2000/svg"
 width="200.000000pt" height="200.000000pt" viewBox="0 0 200.000000 200.000000"
 preserveAspectRatio="xMidYMid meet">
<metadata>
Created by potrace 1.16, written by Peter Selinger 2001-2019
</metadata>
<g transform="translate(0.000000,200.000000) scale(0.100000,-0.100000)"
fill="#000000" stroke="none">
<path d="M459 1640 c-120 -21 -237 -111 -292 -227 -30 -63 -32 -76 -32 -173 0
-92 3 -112 26 -160 14 -30 121 -176 238 -325 198 -251 271 -334 296 -335 6 0
21 20 34 45 13 25 41 65 62 89 34 39 39 52 54 142 22 137 50 234 98 334 96
203 300 328 612 375 56 8 106 15 109 15 4 0 -3 19 -16 41 -70 125 -260 209
-406 180 -102 -20 -161 -55 -245 -144 l-77 -82 -69 75 c-117 129 -240 176
-392 150z m-89 -203 c0 -17 -20 -37 -37 -37 -13 0 -18 32 -6 43 11 12 43 7 43
-6z m-60 -57 c0 -6 -9 -38 -21 -72 -25 -74 -20 -124 17 -194 16 -31 22 -50 15
-57 -16 -16 -39 0 -61 44 -40 76 -36 200 7 265 15 24 43 33 43 14z"/>
<path d="M1627 1369 c-250 -29 -441 -104 -549 -216 -83 -86 -151 -245 -182
-425 -8 -46 -14 -84 -12 -85 2 -2 933 711 951 728 11 11 -108 10 -208 -2z"/>
<path d="M1388 971 l-477 -366 37 -7 c63 -12 263 -8 346 7 196 35 332 157 460
414 46 90 120 294 114 310 -2 5 -218 -157 -480 -358z"/>
<path d="M812 508 c-22 -29 -47 -67 -55 -84 -15 -30 -15 -32 6 -41 89 -41 217
-39 325 4 64 26 154 101 181 151 11 21 10 22 -11 17 -38 -10 -197 -10 -305 -2
l-101 8 -40 -53z"/>
</g>
</svg>
