<?xml version="1.0" standalone="no"?>
<!DOCTYPE svg PUBLIC "-//W3C//DTD SVG 20010904//EN"
 "http://www.w3.org/TR/2001/REC-SVG-20010904/DTD/svg10.dtd">
<svg version="1.0" xmlns="http://www.w3.org/2000/svg"
 width="200.000000pt" height="200.000000pt" viewBox="0 0 200.000000 200.000000"
 preserveAspectRatio="xMidYMid meet">
<metadata>
Created by potrace 1.16, written by Peter Selinger 2001-2019
</metadata>
<g transform="translate(0.000000,200.000000) scale(0.100000,-0.100000)"
fill="#000000" stroke="none">
<path d="M589 1657 c-115 -39 -194 -109 -241 -213 -32 -69 -32 -215 0 -294 12
-30 22 -58 22 -62 0 -5 -45 -8 -101 -8 -76 0 -100 -3 -97 -12 3 -9 38 -14 115
-16 108 -3 110 -3 122 -28 6 -15 33 -54 58 -88 56 -73 591 -616 608 -616 20 0
590 583 634 648 158 235 162 455 11 596 -161 150 -416 156 -602 13 l-46 -35
-22 23 c-29 31 -121 79 -189 99 -79 23 -192 20 -272 -7z m243 -8 c65 -14 139
-50 195 -95 23 -19 44 -34 47 -34 3 0 33 20 66 44 268 197 646 65 668 -232 8
-115 -31 -227 -126 -362 -49 -70 -588 -620 -607 -620 -18 0 -536 528 -590 601
-79 107 -83 99 52 99 l118 0 20 -57 c11 -31 25 -58 31 -60 7 -2 17 43 28 124
9 70 18 129 20 130 2 2 9 -25 16 -59 7 -35 18 -66 24 -70 6 -4 30 -8 54 -8 23
0 42 -3 42 -7 0 -32 44 -290 50 -297 12 -12 14 0 59 284 25 166 40 235 44 215
3 -16 11 -64 18 -105 6 -41 17 -78 23 -82 6 -4 29 -8 52 -8 l41 0 18 -87 c10
-49 21 -95 26 -103 12 -24 20 5 39 153 15 120 18 129 28 102 23 -59 25 -60 97
-60 46 0 70 4 73 13 3 9 -14 12 -65 12 l-68 0 -24 66 c-13 36 -27 62 -32 57
-4 -4 -16 -67 -26 -138 -18 -137 -16 -136 -43 -27 l-11 42 -49 0 c-28 0 -50 3
-50 6 0 33 -45 274 -51 274 -12 0 -15 -16 -56 -280 -21 -135 -39 -237 -41
-227 -2 10 -11 64 -20 120 l-17 102 -51 3 -51 3 -22 99 c-32 144 -39 137 -62
-67 -13 -114 -22 -137 -34 -84 -3 16 -12 34 -19 40 -7 6 -70 12 -141 13 l-128
3 -25 65 c-19 50 -25 85 -26 150 -1 77 2 92 32 152 77 157 263 237 454 197z"/>
</g>
</svg>
