<?xml version="1.0" standalone="no"?>
<!DOCTYPE svg PUBLIC "-//W3C//DTD SVG 20010904//EN"
 "http://www.w3.org/TR/2001/REC-SVG-20010904/DTD/svg10.dtd">
<svg version="1.0" xmlns="http://www.w3.org/2000/svg"
 width="200.000000pt" height="200.000000pt" viewBox="0 0 200.000000 200.000000"
 preserveAspectRatio="xMidYMid meet">
<metadata>
Created by potrace 1.16, written by Peter Selinger 2001-2019
</metadata>
<g transform="translate(0.000000,200.000000) scale(0.100000,-0.100000)"
fill="#000000" stroke="none">
<path d="M635 1670 c-96 -20 -194 -82 -245 -152 -17 -23 -40 -74 -52 -112 -19
-64 -20 -78 -10 -147 6 -41 18 -94 27 -117 l17 -42 152 0 c95 0 156 -4 163
-11 12 -12 17 12 28 116 10 90 13 97 43 93 25 -3 29 -9 50 -100 l24 -98 43 0
c49 0 56 -6 70 -70 11 -44 12 -39 39 135 16 99 33 190 37 203 9 22 43 31 53
13 4 -5 16 -70 28 -145 l21 -136 40 0 c23 0 48 -7 58 -16 16 -14 17 -11 24 55
11 112 53 124 90 26 l22 -60 63 -5 c46 -4 66 -10 74 -23 9 -15 7 -21 -8 -33
-23 -16 -137 -19 -166 -4 -20 11 -21 10 -38 -134 -12 -100 -60 -102 -82 -3
-30 134 -27 127 -70 127 -44 0 -70 20 -70 54 0 12 -3 26 -7 30 -4 4 -21 -79
-38 -185 -23 -145 -34 -194 -47 -202 -32 -21 -45 8 -68 158 l-22 145 -43 0
c-27 0 -47 6 -56 17 -12 14 -15 7 -24 -57 -16 -115 -58 -122 -92 -14 l-17 54
-119 0 -119 0 17 -27 c45 -71 144 -178 387 -421 l263 -262 306 307 c321 324
372 386 422 519 31 84 31 239 -1 307 -32 71 -112 150 -184 182 -163 73 -342
53 -486 -56 -51 -39 -54 -40 -75 -25 -118 87 -192 117 -302 122 -44 2 -98 -1
-120 -6z"/>
<path d="M1036 1343 c-3 -15 -21 -131 -41 -258 -20 -126 -37 -234 -39 -240 -2
-5 -7 13 -11 40 -4 28 -13 82 -19 120 l-12 70 -51 3 -52 3 -10 49 c-6 28 -16
73 -22 100 -6 28 -15 50 -20 50 -11 0 -16 -22 -29 -140 -6 -52 -14 -108 -17
-125 l-6 -29 -16 44 -17 45 -253 3 c-200 2 -252 0 -249 -10 4 -10 64 -14 248
-18 l243 -5 21 -60 c12 -33 26 -59 31 -58 5 1 17 59 26 128 9 69 19 128 21
131 3 2 11 -24 18 -58 6 -35 17 -66 23 -70 7 -4 31 -8 53 -8 l41 0 18 -117
c23 -160 28 -184 40 -186 5 -1 28 115 50 258 23 143 44 255 47 250 3 -6 11
-50 18 -100 7 -49 18 -93 24 -97 6 -4 30 -8 53 -8 l41 0 22 -95 c33 -143 40
-139 61 34 6 58 15 116 19 130 6 25 7 24 20 -14 7 -22 18 -43 24 -47 13 -9
108 -10 130 -2 32 12 3 24 -59 24 l-63 0 -24 61 c-12 34 -27 61 -33 60 -5 0
-16 -47 -22 -103 -20 -158 -23 -165 -42 -88 l-17 65 -50 3 -50 3 -22 136 c-22
140 -35 178 -46 126z"/>
</g>
</svg>
