<?xml version="1.0" standalone="no"?>
<!DOCTYPE svg PUBLIC "-//W3C//DTD SVG 20010904//EN"
 "http://www.w3.org/TR/2001/REC-SVG-20010904/DTD/svg10.dtd">
<svg version="1.0" xmlns="http://www.w3.org/2000/svg"
 width="200.000000pt" height="200.000000pt" viewBox="0 0 200.000000 200.000000"
 preserveAspectRatio="xMidYMid meet">
<metadata>
Created by potrace 1.16, written by Peter Selinger 2001-2019
</metadata>
<g transform="translate(0.000000,200.000000) scale(0.100000,-0.100000)"
fill="#000000" stroke="none">
<path d="M53 1646 c-17 -8 -36 -23 -42 -35 -7 -13 -11 -163 -11 -456 l0 -437
29 -29 29 -29 630 0 c680 0 642 3 642 -49 0 -10 14 -45 31 -79 57 -115 168
-183 298 -183 107 0 186 34 255 111 59 65 79 121 80 220 1 72 -3 94 -25 140
-36 76 -77 121 -149 159 l-60 32 0 294 0 294 -24 28 -24 28 -814 2 c-676 2
-818 0 -845 -11z m1655 -48 c7 -7 12 -34 12 -60 l0 -48 -837 2 -838 3 -3 43
c-2 24 2 50 9 58 10 12 133 14 828 14 622 0 820 -3 829 -12z m12 -183 l0 -35
-840 0 -840 0 0 35 0 35 840 0 840 0 0 -35z m0 -235 l0 -160 -60 0 c-104 0
-206 -51 -271 -137 -27 -35 -49 -90 -63 -155 l-6 -28 -622 0 c-564 0 -623 2
-640 17 -17 15 -18 38 -18 320 l0 303 840 0 840 0 0 -160z m65 -229 c145 -64
212 -250 142 -394 -89 -180 -316 -223 -469 -88 -82 71 -113 224 -68 329 24 55
100 135 147 153 82 33 173 33 248 0z"/>
<path d="M180 1050 l0 -60 60 0 60 0 0 60 0 60 -60 0 -60 0 0 -60z m78 3 c-2
-10 -10 -18 -18 -18 -8 0 -16 8 -18 18 -2 12 3 17 18 17 15 0 20 -5 18 -17z"/>
<path d="M400 1050 l0 -60 60 0 60 0 0 60 0 60 -60 0 -60 0 0 -60z m70 0 c0
-11 -7 -20 -15 -20 -8 0 -15 9 -15 20 0 11 7 20 15 20 8 0 15 -9 15 -20z"/>
<path d="M602 1053 l3 -58 58 -3 57 -3 0 61 0 60 -60 0 -61 0 3 -57z m78 -3
c0 -11 -7 -20 -15 -20 -8 0 -15 9 -15 20 0 11 7 20 15 20 8 0 15 -9 15 -20z"/>
<path d="M830 1050 l0 -60 60 0 60 0 0 60 0 60 -60 0 -60 0 0 -60z m78 3 c-5
-25 -28 -28 -28 -4 0 12 6 21 16 21 9 0 14 -7 12 -17z"/>
<path d="M180 800 c0 -19 7 -20 265 -20 258 0 265 1 265 20 0 19 -7 20 -265
20 -258 0 -265 -1 -265 -20z"/>
<path d="M1605 854 c-37 -18 -62 -50 -70 -86 -5 -21 -13 -28 -31 -28 l-24 0 0
-120 0 -120 180 0 180 0 0 120 0 120 -25 0 c-17 0 -25 6 -25 18 0 31 -40 83
-75 98 -44 18 -73 18 -110 -2z m113 -50 c12 -8 22 -18 22 -23 0 -5 3 -16 6
-25 5 -14 -6 -16 -80 -16 -68 0 -86 3 -86 14 0 29 14 49 44 62 33 14 57 11 94
-12z m82 -184 l0 -80 -140 0 -140 0 0 80 0 80 140 0 140 0 0 -80z"/>
</g>
</svg>
