<?xml version="1.0" standalone="no"?>
<!DOCTYPE svg PUBLIC "-//W3C//DTD SVG 20010904//EN"
 "http://www.w3.org/TR/2001/REC-SVG-20010904/DTD/svg10.dtd">
<svg version="1.0" xmlns="http://www.w3.org/2000/svg"
 width="200.000000pt" height="200.000000pt" viewBox="0 0 200.000000 200.000000"
 preserveAspectRatio="xMidYMid meet">
<metadata>
Created by potrace 1.16, written by Peter Selinger 2001-2019
</metadata>
<g transform="translate(0.000000,200.000000) scale(0.100000,-0.100000)"
fill="#000000" stroke="none">
<path d="M667 1729 c-170 -49 -317 -94 -328 -99 -41 -23 -37 -46 125 -609 211
-738 192 -679 224 -695 38 -19 688 -149 711 -141 11 3 24 12 30 19 11 13 261
1230 261 1270 0 50 -14 56 -311 117 -156 32 -285 59 -286 59 -2 0 -3 5 -3 11
0 6 -7 36 -16 66 -18 62 -44 93 -76 92 -13 0 -162 -40 -331 -90z m351 49 c5
-7 17 -36 25 -65 l16 -52 -49 2 c-33 1 -54 -3 -64 -13 -10 -10 -45 -159 -93
-398 -43 -210 -80 -382 -83 -382 -9 0 -223 781 -216 788 7 7 419 129 442 131
6 1 16 -5 22 -11z m-382 -564 c120 -431 122 -435 109 -487 l-12 -52 -11 40
c-81 282 -252 902 -252 911 0 12 15 22 35 23 6 0 65 -195 131 -435z m-57 -107
l142 -508 -16 -82 c-9 -45 -19 -91 -22 -102 -3 -11 -75 222 -175 570 -116 401
-167 594 -161 604 11 17 75 42 84 32 3 -3 70 -235 148 -514z"/>
</g>
</svg>
