<?xml version="1.0" standalone="no"?>
<!DOCTYPE svg PUBLIC "-//W3C//DTD SVG 20010904//EN"
 "http://www.w3.org/TR/2001/REC-SVG-20010904/DTD/svg10.dtd">
<svg version="1.0" xmlns="http://www.w3.org/2000/svg"
 width="200.000000pt" height="200.000000pt" viewBox="0 0 200.000000 200.000000"
 preserveAspectRatio="xMidYMid meet">
<metadata>
Created by potrace 1.16, written by Peter Selinger 2001-2019
</metadata>
<g transform="translate(0.000000,200.000000) scale(0.100000,-0.100000)"
fill="#000000" stroke="none">
<path d="M583 1886 c-235 -68 -389 -118 -402 -130 -14 -13 -21 -31 -20 -55 0
-20 96 -367 212 -771 l212 -735 36 -18 c48 -23 834 -180 865 -173 13 4 30 16
38 29 16 23 316 1493 316 1544 0 66 -6 68 -373 142 -187 38 -343 73 -347 77
-4 5 -17 43 -29 84 -23 83 -54 121 -99 119 -15 -1 -199 -51 -409 -113z m464 4
c12 -36 22 -70 22 -76 1 -7 -21 -11 -60 -10 -54 1 -64 -2 -80 -24 -13 -18 -46
-160 -111 -482 -50 -252 -94 -458 -98 -458 -5 0 -270 935 -270 956 0 13 516
164 550 161 21 -2 28 -12 47 -67z m-637 -104 c0 -3 65 -237 145 -522 80 -284
145 -525 145 -535 0 -24 -21 -121 -25 -117 -5 4 -325 1146 -325 1158 0 5 8 11
18 13 24 7 42 8 42 3z m985 -92 c209 -42 386 -81 393 -87 6 -5 12 -21 12 -36
0 -56 -300 -1505 -314 -1519 -13 -13 -60 -6 -403 62 -213 42 -398 81 -410 86
-16 7 -23 18 -23 38 0 30 297 1508 306 1523 10 17 59 9 439 -67z m-1071 14 c9
-29 88 -310 176 -625 l160 -572 -24 -116 c-13 -64 -25 -118 -28 -120 -8 -8
-410 1410 -406 1434 2 17 13 28 38 37 61 22 68 19 84 -38z"/>
</g>
</svg>
