<?xml version="1.0" standalone="no"?>
<!DOCTYPE svg PUBLIC "-//W3C//DTD SVG 20010904//EN"
 "http://www.w3.org/TR/2001/REC-SVG-20010904/DTD/svg10.dtd">
<svg version="1.0" xmlns="http://www.w3.org/2000/svg"
 width="200.000000pt" height="200.000000pt" viewBox="0 0 200.000000 200.000000"
 preserveAspectRatio="xMidYMid meet">
<metadata>
Created by potrace 1.16, written by Peter Selinger 2001-2019
</metadata>
<g transform="translate(0.000000,200.000000) scale(0.100000,-0.100000)"
fill="#000000" stroke="none">
<path d="M115 1666 c-12 -18 -15 -46 -13 -122 l3 -99 633 -3 632 -2 0 103 c0
77 -4 108 -16 125 l-15 22 -604 0 -605 0 -15 -24z"/>
<path d="M102 1054 c3 -250 4 -266 22 -280 16 -12 95 -14 453 -14 l433 0 0
-39 c0 -55 34 -159 71 -214 43 -65 112 -124 189 -161 61 -29 72 -31 180 -31
108 0 119 2 182 32 163 77 259 223 260 399 1 123 -34 216 -116 302 -92 98
-193 142 -326 142 l-80 0 0 65 0 65 -635 0 -636 0 3 -266z m370 42 c41 -30 42
-94 3 -126 -25 -21 -153 -23 -183 -4 -46 29 -48 98 -4 130 23 16 161 16 184 0z
m1125 -57 c197 -95 240 -362 84 -518 -99 -99 -248 -123 -378 -60 -57 28 -137
117 -157 175 -20 59 -21 168 -1 223 48 136 193 229 335 215 31 -3 82 -18 117
-35z"/>
<path d="M1393 960 c-3 -12 -19 -28 -35 -36 -39 -20 -63 -72 -54 -117 9 -49
53 -83 123 -97 32 -7 64 -17 70 -22 39 -32 -57 -38 -117 -8 l-39 20 -20 -34
c-12 -18 -21 -39 -21 -45 0 -6 20 -21 45 -33 28 -14 45 -29 47 -42 2 -17 11
-22 49 -24 39 -3 47 0 52 17 3 12 22 27 45 36 49 20 77 69 68 120 -8 43 -62
90 -112 99 -50 9 -94 26 -94 37 0 19 52 21 97 4 l46 -18 24 27 c33 39 29 53
-27 81 -27 14 -50 32 -50 40 0 11 -12 15 -46 15 -38 0 -47 -4 -51 -20z"/>
</g>
</svg>
