<?xml version="1.0" standalone="no"?>
<!DOCTYPE svg PUBLIC "-//W3C//DTD SVG 20010904//EN"
 "http://www.w3.org/TR/2001/REC-SVG-20010904/DTD/svg10.dtd">
<svg version="1.0" xmlns="http://www.w3.org/2000/svg"
 width="200.000000pt" height="200.000000pt" viewBox="0 0 200.000000 200.000000"
 preserveAspectRatio="xMidYMid meet">
<metadata>
Created by potrace 1.16, written by Peter Selinger 2001-2019
</metadata>
<g transform="translate(0.000000,200.000000) scale(0.100000,-0.100000)"
fill="#000000" stroke="none">
<path d="M80 1670 c-12 -8 -14 -100 -12 -671 1 -522 4 -664 14 -671 7 -4 421
-8 919 -8 757 0 908 2 918 14 8 10 12 195 13 670 2 567 0 658 -12 666 -20 13
-1820 13 -1840 0z m1770 -185 l0 -115 -850 0 -850 0 0 115 0 115 850 0 850 0
0 -115z m0 -295 l0 -90 -850 0 -850 0 0 90 0 90 850 0 850 0 0 -90z m0 -480
l0 -310 -850 0 -850 0 0 310 0 310 850 0 850 0 0 -310z"/>
</g>
</svg>
