<?xml version="1.0" standalone="no"?>
<!DOCTYPE svg PUBLIC "-//W3C//DTD SVG 20010904//EN"
 "http://www.w3.org/TR/2001/REC-SVG-20010904/DTD/svg10.dtd">
<svg version="1.0" xmlns="http://www.w3.org/2000/svg"
 width="200.000000pt" height="200.000000pt" viewBox="0 0 200.000000 200.000000"
 preserveAspectRatio="xMidYMid meet">
<metadata>
Created by potrace 1.16, written by Peter Selinger 2001-2019
</metadata>
<g transform="translate(0.000000,200.000000) scale(0.100000,-0.100000)"
fill="#000000" stroke="none">
<path d="M146 1725 c-49 -17 -103 -68 -127 -120 -17 -37 -19 -76 -19 -605 0
-525 2 -568 19 -605 23 -51 89 -111 138 -124 54 -15 1633 -15 1688 0 53 15
129 91 144 144 7 27 11 219 11 595 0 515 -2 558 -19 595 -23 51 -89 111 -138
124 -25 7 -306 11 -848 11 -663 -1 -817 -3 -849 -15z m1699 -140 c22 -21 25
-33 25 -90 l0 -65 -870 0 -870 0 0 65 c0 57 3 69 25 90 l24 25 821 0 821 0 24
-25z m25 -320 l0 -35 -870 0 -870 0 0 35 0 35 870 0 870 0 0 -35z m0 -495 l0
-331 -25 -24 -24 -25 -821 0 -821 0 -24 25 -25 24 0 331 0 330 870 0 870 0 0
-330z"/>
<path d="M1205 926 c-168 -73 -190 -300 -38 -396 61 -39 122 -47 187 -27 46
15 55 15 96 1 124 -44 264 39 289 169 31 170 -135 313 -293 253 -39 -15 -46
-15 -79 -1 -44 18 -121 19 -162 1z m99 -148 c-10 -54 -10 -74 -1 -120 8 -37 7
-38 -23 -38 -21 0 -41 9 -61 29 -62 63 -16 169 74 171 17 0 18 -5 11 -42z
m289 2 c38 -42 37 -92 -2 -131 -87 -86 -225 30 -150 125 43 54 105 57 152 6z"/>
<path d="M271 863 c-23 -28 -21 -56 5 -83 12 -13 55 -15 260 -15 l246 0 19 24
c24 30 24 56 -1 81 -19 19 -33 20 -264 20 l-245 0 -20 -27z"/>
<path d="M270 680 c-24 -24 -25 -48 -4 -78 14 -21 22 -22 143 -22 142 0 154 5
154 62 0 50 -21 58 -155 58 -105 0 -120 -2 -138 -20z"/>
</g>
</svg>
