<?xml version="1.0" standalone="no"?>
<!DOCTYPE svg PUBLIC "-//W3C//DTD SVG 20010904//EN"
 "http://www.w3.org/TR/2001/REC-SVG-20010904/DTD/svg10.dtd">
<svg version="1.0" xmlns="http://www.w3.org/2000/svg"
 width="200.000000pt" height="200.000000pt" viewBox="0 0 200.000000 200.000000"
 preserveAspectRatio="xMidYMid meet">
<metadata>
Created by potrace 1.16, written by Peter Selinger 2001-2019
</metadata>
<g transform="translate(0.000000,200.000000) scale(0.100000,-0.100000)"
fill="#000000" stroke="none">
<path d="M20 1720 c-20 -20 -20 -33 -20 -720 0 -687 0 -700 20 -720 20 -20 33
-20 980 -20 947 0 960 0 980 20 20 20 20 33 20 720 0 687 0 700 -20 720 -20
20 -33 20 -980 20 -947 0 -960 0 -980 -20z m1850 -220 l0 -110 -875 0 -875 0
0 110 0 110 875 0 875 0 0 -110z m0 -290 l0 -60 -875 0 -875 0 0 53 c0 30 3
57 7 60 3 4 397 7 875 7 l868 0 0 -60z m0 -505 l0 -315 -875 0 -875 0 0 315 0
315 875 0 875 0 0 -315z"/>
<path d="M261 824 c-26 -33 -26 -45 -2 -75 l19 -24 247 0 247 0 19 24 c24 30
24 56 -1 81 -19 19 -33 20 -264 20 l-245 0 -20 -26z"/>
<path d="M267 642 c-22 -24 -21 -65 1 -85 15 -14 41 -17 135 -17 104 0 119 2
137 20 11 11 20 29 20 40 0 11 -9 29 -20 40 -18 18 -33 20 -138 20 -103 0
-121 -3 -135 -18z"/>
</g>
</svg>
