<?xml version="1.0" standalone="no"?>
<!DOCTYPE svg PUBLIC "-//W3C//DTD SVG 20010904//EN"
 "http://www.w3.org/TR/2001/REC-SVG-20010904/DTD/svg10.dtd">
<svg version="1.0" xmlns="http://www.w3.org/2000/svg"
 width="200.000000pt" height="200.000000pt" viewBox="0 0 200.000000 200.000000"
 preserveAspectRatio="xMidYMid meet">
<metadata>
Created by potrace 1.16, written by Peter Selinger 2001-2019
</metadata>
<g transform="translate(0.000000,200.000000) scale(0.100000,-0.100000)"
fill="#000000" stroke="none">
<path d="M150 1727 c-49 -16 -123 -93 -138 -143 -17 -59 -17 -1109 0 -1168 18
-59 91 -129 150 -144 67 -17 1609 -17 1676 0 59 15 132 85 150 144 17 59 17
1109 0 1168 -16 54 -90 128 -144 144 -56 16 -1642 15 -1694 -1z m1695 -142
c23 -22 25 -32 25 -110 l0 -85 -870 0 -870 0 0 85 c0 78 2 88 25 110 l24 25
821 0 821 0 24 -25z m25 -375 l0 -60 -870 0 -870 0 0 60 0 60 870 0 870 0 0
-60z m0 -480 l0 -291 -26 -24 -27 -25 -817 0 -817 0 -27 25 -26 24 0 291 0
290 870 0 870 0 0 -290z"/>
<path d="M267 832 c-22 -24 -22 -76 0 -93 13 -11 68 -14 258 -14 225 0 244 1
264 19 26 24 27 60 1 86 -19 19 -33 20 -263 20 -224 0 -245 -2 -260 -18z"/>
<path d="M266 645 c-22 -22 -20 -68 3 -89 15 -14 37 -16 142 -14 123 3 123 3
139 30 13 25 13 31 0 55 -16 28 -16 28 -142 31 -105 2 -129 0 -142 -13z"/>
</g>
</svg>
