<?xml version="1.0" standalone="no"?>
<!DOCTYPE svg PUBLIC "-//W3C//DTD SVG 20010904//EN"
 "http://www.w3.org/TR/2001/REC-SVG-20010904/DTD/svg10.dtd">
<svg version="1.0" xmlns="http://www.w3.org/2000/svg"
 width="200.000000pt" height="200.000000pt" viewBox="0 0 200.000000 200.000000"
 preserveAspectRatio="xMidYMid meet">
<metadata>
Created by potrace 1.16, written by Peter Selinger 2001-2019
</metadata>
<g transform="translate(0.000000,200.000000) scale(0.100000,-0.100000)"
fill="#000000" stroke="none">
<path d="M20 1720 c-20 -20 -20 -33 -20 -720 0 -687 0 -700 20 -720 20 -20 33
-20 980 -20 947 0 960 0 980 20 20 20 20 33 20 720 0 687 0 700 -20 720 -20
20 -33 20 -980 20 -947 0 -960 0 -980 -20z m1860 -200 l0 -90 -880 0 -880 0 0
90 0 90 880 0 880 0 0 -90z m0 -255 l0 -35 -880 0 -880 0 0 35 0 35 880 0 880
0 0 -35z m0 -520 l0 -355 -880 0 -880 0 0 355 0 355 880 0 880 0 0 -355z"/>
<path d="M1159 912 c-170 -89 -151 -343 30 -407 55 -19 88 -19 147 1 42 14 49
14 85 0 81 -32 162 -13 229 54 89 88 93 212 12 302 -65 72 -165 98 -247 64
-31 -13 -39 -13 -70 0 -56 23 -125 18 -186 -14z m121 -122 c-7 -40 -6 -123 3
-147 8 -21 5 -23 -28 -23 -62 0 -108 66 -88 127 11 33 69 75 98 71 16 -2 19
-8 15 -28z m277 4 c24 -15 42 -66 35 -101 -13 -69 -114 -98 -165 -48 -88 89
24 218 130 149z"/>
<path d="M300 870 c-20 -20 -26 -56 -12 -76 19 -29 55 -34 272 -34 258 0 279
6 280 72 0 54 -20 58 -282 58 -225 0 -239 -1 -258 -20z"/>
<path d="M297 682 c-22 -24 -21 -65 1 -85 15 -14 41 -17 139 -17 131 0 153 9
153 62 0 49 -25 58 -157 58 -103 0 -122 -3 -136 -18z"/>
</g>
</svg>
