<?xml version="1.0" standalone="no"?>
<!DOCTYPE svg PUBLIC "-//W3C//DTD SVG 20010904//EN"
 "http://www.w3.org/TR/2001/REC-SVG-20010904/DTD/svg10.dtd">
<svg version="1.0" xmlns="http://www.w3.org/2000/svg"
 width="200.000000pt" height="200.000000pt" viewBox="0 0 200.000000 200.000000"
 preserveAspectRatio="xMidYMid meet">
<metadata>
Created by potrace 1.16, written by Peter Selinger 2001-2019
</metadata>
<g transform="translate(0.000000,200.000000) scale(0.100000,-0.100000)"
fill="#000000" stroke="none">
<path d="M382 1760 c-51 -31 -72 -87 -72 -197 l0 -91 -107 -4 c-92 -3 -113 -6
-139 -25 -65 -46 -64 -38 -64 -600 0 -566 -1 -553 69 -600 l34 -23 736 0 c835
0 785 -5 829 80 18 36 22 60 22 136 l0 92 108 4 c91 3 112 6 138 25 65 46 64
38 64 600 0 566 1 553 -69 600 l-34 23 -741 0 c-725 0 -742 0 -774 -20z m1486
-602 l2 -498 -90 0 -90 0 0 342 c0 321 -1 344 -20 383 -13 26 -34 49 -59 63
-39 22 -41 22 -605 22 l-566 0 0 88 c0 49 3 92 7 95 3 4 324 6 712 5 l706 -3
3 -497z m-308 102 l0 -80 -715 0 -715 0 0 80 0 80 715 0 715 0 0 -80z m0 -245
l0 -35 -715 0 -715 0 0 35 0 35 715 0 715 0 0 -35z m-2 -417 l-3 -253 -710 0
-710 0 -3 253 -2 252 715 0 715 0 -2 -252z"/>
<path d="M221 703 c-23 -28 -21 -56 5 -83 12 -12 51 -15 224 -15 182 0 211 2
226 17 22 21 21 64 -1 88 -17 19 -32 20 -226 20 l-208 0 -20 -27z"/>
<path d="M225 556 c-25 -18 -25 -74 0 -92 13 -10 51 -14 122 -14 90 0 106 3
123 20 25 25 25 55 0 80 -17 17 -33 20 -123 20 -71 0 -109 -4 -122 -14z"/>
</g>
</svg>
