<?xml version="1.0" standalone="no"?>
<!DOCTYPE svg PUBLIC "-//W3C//DTD SVG 20010904//EN"
 "http://www.w3.org/TR/2001/REC-SVG-20010904/DTD/svg10.dtd">
<svg version="1.0" xmlns="http://www.w3.org/2000/svg"
 width="200.000000pt" height="200.000000pt" viewBox="0 0 200.000000 200.000000"
 preserveAspectRatio="xMidYMid meet">
<metadata>
Created by potrace 1.16, written by Peter Selinger 2001-2019
</metadata>
<g transform="translate(0.000000,200.000000) scale(0.100000,-0.100000)"
fill="#000000" stroke="none">
<path d="M132 1628 c-17 -17 -17 -1239 0 -1256 17 -17 1719 -17 1736 0 17 17
17 1239 0 1256 -17 17 -1719 17 -1736 0z m1678 -158 l0 -110 -810 0 -810 0 0
110 0 110 810 0 810 0 0 -110z m0 -230 l0 -60 -810 0 -810 0 0 60 0 60 810 0
810 0 0 -60z m0 -470 l0 -350 -810 0 -810 0 0 350 0 350 810 0 810 0 0 -350z"/>
<path d="M1165 906 c-172 -77 -117 -336 71 -336 27 0 62 7 77 15 26 13 32 13
59 -1 22 -11 49 -15 89 -12 98 7 159 74 159 175 -1 127 -127 208 -246 158 -32
-13 -39 -13 -64 0 -36 18 -105 19 -145 1z m114 -55 c11 -7 11 -15 2 -41 -6
-18 -11 -47 -11 -65 0 -18 5 -47 11 -65 13 -37 3 -50 -44 -50 -60 0 -117 54
-117 110 0 35 28 84 58 102 29 19 79 23 101 9z m221 -6 c64 -33 78 -131 27
-182 -51 -51 -149 -37 -182 27 -53 103 52 208 155 155z"/>
<path d="M398 873 c-23 -6 -24 -49 -2 -57 20 -8 398 -8 418 0 22 8 20 41 -3
54 -19 10 -377 13 -413 3z"/>
<path d="M393 703 c-7 -2 -13 -15 -13 -29 0 -30 21 -36 129 -32 68 2 86 6 95
21 20 32 -16 47 -113 46 -47 0 -92 -3 -98 -6z"/>
</g>
</svg>
