<?xml version="1.0" standalone="no"?>
<!DOCTYPE svg PUBLIC "-//W3C//DTD SVG 20010904//EN"
 "http://www.w3.org/TR/2001/REC-SVG-20010904/DTD/svg10.dtd">
<svg version="1.0" xmlns="http://www.w3.org/2000/svg"
 width="200.000000pt" height="200.000000pt" viewBox="0 0 200.000000 200.000000"
 preserveAspectRatio="xMidYMid meet">
<metadata>
Created by potrace 1.16, written by Peter Selinger 2001-2019
</metadata>
<g transform="translate(0.000000,200.000000) scale(0.100000,-0.100000)"
fill="#000000" stroke="none">
<path d="M223 1621 c-26 -12 -52 -35 -70 -62 l-28 -43 0 -516 0 -516 28 -43
c19 -28 43 -49 72 -62 42 -19 71 -19 788 -17 l743 3 41 27 c80 53 78 37 78
614 l0 510 -28 43 c-18 27 -44 50 -70 62 -40 18 -76 19 -777 19 -701 0 -737
-1 -777 -19z m1521 -55 c54 -23 66 -49 66 -148 l0 -88 -810 0 -810 0 0 88 c0
98 11 125 64 148 47 20 1441 20 1490 0z m66 -381 l0 -75 -810 0 -810 0 0 75 0
75 810 0 810 0 0 -75z m0 -413 c0 -308 -1 -311 -66 -338 -49 -21 -1439 -21
-1488 0 -65 27 -66 30 -66 338 l0 278 810 0 810 0 0 -278z"/>
<path d="M354 825 c-4 -8 -4 -22 0 -30 5 -13 36 -15 223 -13 l218 3 0 25 0 25
-218 3 c-187 2 -218 0 -223 -13z"/>
<path d="M354 655 c-15 -38 2 -45 104 -45 76 0 102 4 112 15 10 12 10 18 0 30
-18 22 -208 22 -216 0z"/>
</g>
</svg>
