<?xml version="1.0" standalone="no"?>
<!DOCTYPE svg PUBLIC "-//W3C//DTD SVG 20010904//EN"
 "http://www.w3.org/TR/2001/REC-SVG-20010904/DTD/svg10.dtd">
<svg version="1.0" xmlns="http://www.w3.org/2000/svg"
 width="200.000000pt" height="200.000000pt" viewBox="0 0 200.000000 200.000000"
 preserveAspectRatio="xMidYMid meet">
<metadata>
Created by potrace 1.16, written by Peter Selinger 2001-2019
</metadata>
<g transform="translate(0.000000,200.000000) scale(0.100000,-0.100000)"
fill="#000000" stroke="none">
<path d="M382 1760 c-51 -31 -72 -87 -72 -197 l0 -91 -107 -4 c-92 -3 -113 -6
-139 -25 -65 -46 -64 -38 -64 -600 0 -566 -1 -553 69 -600 l34 -23 741 0 c725
0 742 0 774 20 51 31 72 87 72 197 l0 91 108 4 c91 3 112 6 138 25 65 46 64
38 64 600 0 566 1 553 -69 600 l-34 23 -741 0 c-725 0 -742 0 -774 -20z m1486
-602 l2 -498 -90 0 -90 0 0 342 c0 327 -1 344 -21 385 -14 30 -33 50 -60 63
-37 19 -61 20 -604 20 l-565 0 0 88 c0 49 3 92 7 95 3 4 324 6 712 5 l706 -3
3 -497z m-308 102 l0 -80 -715 0 -715 0 0 80 0 80 715 0 715 0 0 -80z m0 -245
l0 -35 -715 0 -715 0 0 35 0 35 715 0 715 0 0 -35z m-2 -417 l-3 -253 -710 0
-710 0 -3 253 -2 252 715 0 715 0 -2 -252z"/>
<path d="M1082 744 c-21 -14 -22 -22 -22 -138 0 -103 3 -126 17 -137 11 -10
55 -15 146 -17 207 -6 207 -6 207 154 0 157 4 154 -183 154 -113 0 -147 -3
-165 -16z m228 -139 c0 -24 -2 -25 -65 -25 -63 0 -65 1 -65 25 0 24 2 25 65
25 63 0 65 -1 65 -25z"/>
<path d="M282 714 c-18 -12 -22 -24 -20 -52 5 -59 23 -63 251 -60 195 3 199 3
218 27 24 30 24 42 -2 75 l-20 26 -203 0 c-168 0 -205 -3 -224 -16z"/>
<path d="M275 556 c-25 -18 -25 -74 0 -92 13 -10 51 -14 122 -14 90 0 106 3
123 20 24 24 25 48 4 78 -14 20 -23 22 -123 22 -74 0 -113 -4 -126 -14z"/>
</g>
</svg>
