<?xml version="1.0" standalone="no"?>
<!DOCTYPE svg PUBLIC "-//W3C//DTD SVG 20010904//EN"
 "http://www.w3.org/TR/2001/REC-SVG-20010904/DTD/svg10.dtd">
<svg version="1.0" xmlns="http://www.w3.org/2000/svg"
 width="200.000000pt" height="200.000000pt" viewBox="0 0 200.000000 200.000000"
 preserveAspectRatio="xMidYMid meet">
<metadata>
Created by potrace 1.16, written by Peter Selinger 2001-2019
</metadata>
<g transform="translate(0.000000,200.000000) scale(0.100000,-0.100000)"
fill="#000000" stroke="none">
<path d="M465 1668 c-47 -26 -55 -47 -55 -160 l0 -108 -95 0 c-118 0 -160 -15
-180 -64 -22 -51 -22 -900 -1 -951 28 -67 4 -65 726 -65 460 0 658 3 673 11
49 25 57 47 57 162 l0 107 96 0 c65 0 106 5 128 15 62 30 61 17 64 505 4 490
2 508 -51 540 -31 19 -55 20 -687 20 -457 -1 -661 -4 -675 -12z m1326 -58 c18
-10 19 -26 19 -471 l0 -459 -27 -11 c-14 -5 -63 -8 -107 -7 l-81 3 -3 336 -2
336 -31 29 -30 29 -530 3 -529 3 0 99 c0 84 3 101 18 109 24 14 1276 15 1303
1z m-287 -280 c25 -9 26 -12 26 -100 l0 -90 -670 0 -670 0 0 90 c0 74 3 91 18
99 23 14 1261 15 1296 1z m26 -320 l0 -60 -670 0 -670 0 0 60 0 60 670 0 670
0 0 -60z m0 -365 c0 -231 -1 -245 -19 -255 -27 -14 -1275 -14 -1302 0 -18 10
-19 24 -19 255 l0 245 670 0 670 0 0 -245z"/>
<path d="M1092 752 c-9 -6 -12 -36 -10 -113 l3 -104 115 -3 c170 -4 160 -12
160 112 0 85 -3 105 -16 110 -23 9 -237 7 -252 -2z m208 -112 l0 -50 -80 0
-80 0 0 50 0 50 80 0 80 0 0 -50z"/>
<path d="M364 715 c-4 -8 -4 -22 0 -30 4 -13 34 -15 184 -15 147 0 182 3 192
15 10 12 10 18 0 30 -10 12 -45 15 -192 15 -150 0 -180 -2 -184 -15z"/>
<path d="M364 575 c-15 -37 2 -45 96 -45 72 0 92 3 96 15 13 33 -15 45 -103
45 -65 0 -85 -3 -89 -15z"/>
</g>
</svg>
