<?xml version="1.0" standalone="no"?>
<!DOCTYPE svg PUBLIC "-//W3C//DTD SVG 20010904//EN"
 "http://www.w3.org/TR/2001/REC-SVG-20010904/DTD/svg10.dtd">
<svg version="1.0" xmlns="http://www.w3.org/2000/svg"
 width="200.000000pt" height="200.000000pt" viewBox="0 0 200.000000 200.000000"
 preserveAspectRatio="xMidYMid meet">
<metadata>
Created by potrace 1.16, written by Peter Selinger 2001-2019
</metadata>
<g transform="translate(0.000000,200.000000) scale(0.100000,-0.100000)"
fill="#000000" stroke="none">
<path d="M132 1628 c-17 -17 -17 -1239 0 -1256 17 -17 1719 -17 1736 0 17 17
17 1239 0 1256 -17 17 -1719 17 -1736 0z m1678 -173 l0 -125 -810 0 -810 0 0
125 0 125 810 0 810 0 0 -125z m0 -270 l0 -75 -810 0 -810 0 0 75 0 75 810 0
810 0 0 -75z m0 -450 l0 -315 -810 0 -810 0 0 315 0 315 810 0 810 0 0 -315z"/>
<path d="M354 825 c-4 -8 -4 -22 0 -30 5 -13 36 -15 223 -13 l218 3 0 25 0 25
-218 3 c-187 2 -218 0 -223 -13z"/>
<path d="M354 655 c-15 -38 1 -45 110 -45 87 0 105 3 110 16 13 34 -12 44
-116 44 -78 0 -100 -3 -104 -15z"/>
</g>
</svg>
