<?xml version="1.0" standalone="no"?>
<!DOCTYPE svg PUBLIC "-//W3C//DTD SVG 20010904//EN"
 "http://www.w3.org/TR/2001/REC-SVG-20010904/DTD/svg10.dtd">
<svg version="1.0" xmlns="http://www.w3.org/2000/svg"
 width="200.000000pt" height="200.000000pt" viewBox="0 0 200.000000 200.000000"
 preserveAspectRatio="xMidYMid meet">
<metadata>
Created by potrace 1.16, written by Peter Selinger 2001-2019
</metadata>
<g transform="translate(0.000000,200.000000) scale(0.100000,-0.100000)"
fill="#000000" stroke="none">
<path d="M465 1668 c-47 -26 -55 -47 -55 -160 l0 -108 -100 0 c-118 0 -154
-14 -176 -65 -21 -50 -21 -900 0 -950 28 -67 4 -65 726 -65 460 0 658 3 673
11 49 25 57 47 57 162 l0 107 96 0 c65 0 106 5 128 15 62 30 61 17 64 505 4
490 2 508 -51 540 -31 19 -55 20 -687 20 -457 -1 -661 -4 -675 -12z m1326 -58
c18 -10 19 -26 19 -471 l0 -459 -27 -11 c-14 -5 -63 -8 -107 -7 l-81 3 -3 336
-2 336 -31 29 -30 29 -530 3 -529 3 0 99 c0 84 3 101 18 109 24 14 1276 15
1303 1z m-287 -280 c25 -9 26 -12 26 -100 l0 -90 -670 0 -670 0 0 90 c0 74 3
91 18 99 23 14 1261 15 1296 1z m26 -320 l0 -60 -670 0 -670 0 0 60 0 60 670
0 670 0 0 -60z m0 -365 c0 -231 -1 -245 -19 -255 -27 -14 -1275 -14 -1302 0
-18 10 -19 24 -19 255 l0 245 670 0 670 0 0 -245z"/>
<path d="M314 715 c-4 -8 -4 -22 0 -30 5 -13 33 -15 193 -13 l188 3 0 25 0 25
-188 3 c-160 2 -188 0 -193 -13z"/>
<path d="M314 575 c-3 -8 -3 -22 0 -30 5 -13 22 -15 98 -13 92 3 93 3 93 28 0
25 -1 25 -93 28 -76 2 -93 0 -98 -13z"/>
</g>
</svg>
