<?xml version="1.0" standalone="no"?>
<!DOCTYPE svg PUBLIC "-//W3C//DTD SVG 20010904//EN"
 "http://www.w3.org/TR/2001/REC-SVG-20010904/DTD/svg10.dtd">
<svg version="1.0" xmlns="http://www.w3.org/2000/svg"
 width="200.000000pt" height="200.000000pt" viewBox="0 0 200.000000 200.000000"
 preserveAspectRatio="xMidYMid meet">
<metadata>
Created by potrace 1.16, written by Peter Selinger 2001-2019
</metadata>
<g transform="translate(0.000000,200.000000) scale(0.100000,-0.100000)"
fill="#000000" stroke="none">
<path d="M222 1623 c-43 -21 -79 -64 -92 -111 -16 -60 -13 -987 4 -1035 18
-48 41 -74 88 -98 36 -18 71 -19 775 -19 695 0 740 2 778 19 49 22 73 48 91
98 19 56 19 990 0 1046 -18 48 -41 74 -88 98 -36 18 -71 19 -780 19 -664 0
-747 -2 -776 -17z m1559 -81 c27 -30 29 -39 29 -107 l0 -75 -810 0 -810 0 0
74 c0 79 18 118 64 136 11 5 353 8 759 7 l739 -2 29 -33z m29 -302 l0 -60
-810 0 -810 0 0 60 0 60 810 0 810 0 0 -60z m0 -435 l0 -315 -29 -32 -29 -33
-752 0 -752 0 -29 33 -29 32 0 315 0 315 810 0 810 0 0 -315z"/>
<path d="M1185 906 c-65 -28 -114 -120 -101 -189 8 -45 43 -96 85 -124 40 -27
113 -31 165 -9 27 11 36 11 57 0 31 -17 111 -18 152 0 91 37 129 154 81 248
-37 72 -146 108 -227 75 -32 -14 -40 -14 -64 -2 -35 18 -108 19 -148 1z m131
-59 c2 -2 -3 -20 -11 -40 -18 -44 -18 -80 -1 -129 11 -31 11 -38 -1 -42 -69
-27 -155 29 -157 102 -1 72 57 127 127 118 21 -2 41 -6 43 -9z m237 -27 c21
-24 27 -40 27 -76 0 -39 -5 -51 -34 -80 -26 -26 -42 -34 -71 -34 -107 0 -162
122 -87 192 36 34 49 38 97 33 29 -3 48 -12 68 -35z"/>
<path d="M378 873 c-22 -6 -31 -32 -17 -49 10 -12 52 -14 222 -12 190 3 211 5
221 21 9 15 7 21 -8 33 -16 11 -59 14 -210 13 -105 -1 -198 -3 -208 -6z"/>
<path d="M368 699 c-24 -13 -23 -36 1 -49 32 -17 187 -13 205 6 20 19 20 19 0
38 -12 12 -36 16 -102 16 -48 0 -95 -5 -104 -11z"/>
</g>
</svg>
