<?xml version="1.0" standalone="no"?>
<!DOCTYPE svg PUBLIC "-//W3C//DTD SVG 20010904//EN"
 "http://www.w3.org/TR/2001/REC-SVG-20010904/DTD/svg10.dtd">
<svg version="1.0" xmlns="http://www.w3.org/2000/svg"
 width="200.000000pt" height="200.000000pt" viewBox="0 0 200.000000 200.000000"
 preserveAspectRatio="xMidYMid meet">
<metadata>
Created by potrace 1.16, written by Peter Selinger 2001-2019
</metadata>
<g transform="translate(0.000000,200.000000) scale(0.100000,-0.100000)"
fill="#000000" stroke="none">
<path d="M175 1796 c-39 -17 -70 -52 -90 -98 -18 -45 -21 -339 -4 -403 22 -80
96 -125 206 -125 l52 0 3 -348 3 -347 33 -67 c38 -77 92 -130 171 -167 l56
-26 395 0 395 0 62 29 c73 33 144 103 176 174 21 45 22 62 25 400 l3 352 52 0
c110 0 184 45 206 125 6 22 11 114 11 205 0 139 -3 171 -19 205 -21 46 -54 79
-94 94 -45 17 -1603 14 -1642 -3z m1618 -78 c44 -23 46 -34 47 -230 l0 -187
-26 -20 c-21 -16 -41 -21 -90 -21 l-64 0 0 119 c0 66 -3 126 -6 135 -6 14 -72
16 -648 16 -486 0 -645 -3 -654 -12 -8 -8 -12 -53 -12 -135 l0 -123 -65 0
c-57 0 -69 3 -90 25 -25 24 -25 26 -25 209 l0 184 31 26 31 26 774 0 c570 0
781 -3 797 -12z m-215 -750 c-3 -474 -3 -484 -25 -524 -12 -22 -36 -55 -55
-73 -69 -68 -54 -66 -473 -69 -271 -2 -392 0 -423 9 -55 15 -124 77 -154 137
-23 47 -23 47 -26 525 l-3 477 581 0 581 0 -3 -482z"/>
<path d="M932 1067 c-29 -29 -52 -60 -52 -69 0 -24 27 -41 55 -36 l25 5 0 -92
c0 -105 11 -127 55 -107 24 11 25 15 25 105 l0 94 25 -5 c29 -5 55 13 55 38 0
20 -102 120 -122 120 -8 0 -37 -24 -66 -53z"/>
</g>
</svg>
