<?xml version="1.0" standalone="no"?>
<!DOCTYPE svg PUBLIC "-//W3C//DTD SVG 20010904//EN"
 "http://www.w3.org/TR/2001/REC-SVG-20010904/DTD/svg10.dtd">
<svg version="1.0" xmlns="http://www.w3.org/2000/svg"
 width="200.000000pt" height="200.000000pt" viewBox="0 0 200.000000 200.000000"
 preserveAspectRatio="xMidYMid meet">
<metadata>
Created by potrace 1.16, written by Peter Selinger 2001-2019
</metadata>
<g transform="translate(0.000000,200.000000) scale(0.100000,-0.100000)"
fill="#000000" stroke="none">
<path d="M253 1734 c-53 -19 -128 -85 -156 -138 -22 -41 -22 -43 -22 -596 0
-553 0 -555 22 -596 12 -23 43 -60 68 -82 85 -75 55 -72 835 -72 773 0 749 -2
829 66 23 20 53 57 69 82 l27 47 0 555 c0 553 0 555 -22 596 -29 55 -103 119
-160 138 -68 23 -1425 23 -1490 0z m1450 -75 c49 -13 105 -63 128 -114 14 -30
19 -65 19 -137 l0 -98 -850 0 -850 0 0 98 c0 84 3 105 25 148 25 50 70 88 121
104 43 13 1361 12 1407 -1z m147 -489 l0 -50 -850 0 -850 0 0 50 0 50 850 0
850 0 0 -50z m0 -407 c0 -238 -3 -273 -19 -308 -23 -51 -79 -101 -128 -114
-52 -15 -1354 -15 -1406 0 -49 13 -105 63 -128 114 -16 35 -19 70 -19 308 l0
267 850 0 850 0 0 -267z"/>
</g>
</svg>
