<?xml version="1.0" standalone="no"?>
<!DOCTYPE svg PUBLIC "-//W3C//DTD SVG 20010904//EN"
 "http://www.w3.org/TR/2001/REC-SVG-20010904/DTD/svg10.dtd">
<svg version="1.0" xmlns="http://www.w3.org/2000/svg"
 width="200.000000pt" height="200.000000pt" viewBox="0 0 200.000000 200.000000"
 preserveAspectRatio="xMidYMid meet">
<metadata>
Created by potrace 1.16, written by Peter Selinger 2001-2019
</metadata>
<g transform="translate(0.000000,200.000000) scale(0.100000,-0.100000)"
fill="#000000" stroke="none">
<path d="M164 1619 c-17 -5 -39 -18 -50 -30 -18 -20 -19 -43 -19 -589 0 -544
1 -569 19 -589 10 -11 35 -25 55 -31 49 -13 1613 -13 1662 0 20 6 45 20 55 31
18 20 19 45 19 589 0 544 -1 569 -19 589 -10 11 -35 25 -55 31 -46 13 -1623
12 -1667 -1z m1674 -151 l3 -88 -841 0 -840 0 0 83 c0 46 3 87 7 90 3 4 380 6
837 5 l831 -3 3 -87z m2 -188 l0 -30 -840 0 -840 0 0 30 0 30 840 0 840 0 0
-30z m-2 -462 l-3 -373 -835 0 -835 0 -3 373 -2 372 840 0 840 0 -2 -372z"/>
<path d="M1294 777 c-120 -110 40 -288 163 -183 l28 24 28 -24 c37 -31 85 -39
130 -21 48 21 72 60 72 120 0 43 -4 52 -37 83 -31 28 -46 34 -81 34 -41 0 -83
-20 -100 -47 -7 -11 -16 -7 -43 17 -50 44 -111 43 -160 -3z m120 -42 c43 -43
20 -105 -39 -105 -57 0 -85 60 -45 100 24 24 63 26 84 5z m229 -16 c17 -24 18
-30 6 -55 -19 -40 -79 -47 -103 -12 -22 30 -20 54 5 79 27 27 66 21 92 -12z"/>
<path d="M286 765 c-3 -8 -3 -22 0 -30 5 -13 38 -15 214 -15 176 0 209 2 214
15 3 8 3 22 0 30 -5 13 -38 15 -214 15 -176 0 -209 -2 -214 -15z"/>
<path d="M303 620 c-13 -5 -23 -16 -23 -23 0 -34 25 -37 225 -35 175 3 199 5
209 20 23 37 -5 43 -202 45 -103 1 -197 -2 -209 -7z"/>
</g>
</svg>
