<?xml version="1.0" standalone="no"?>
<!DOCTYPE svg PUBLIC "-//W3C//DTD SVG 20010904//EN"
 "http://www.w3.org/TR/2001/REC-SVG-20010904/DTD/svg10.dtd">
<svg version="1.0" xmlns="http://www.w3.org/2000/svg"
 width="200.000000pt" height="200.000000pt" viewBox="0 0 200.000000 200.000000"
 preserveAspectRatio="xMidYMid meet">
<metadata>
Created by potrace 1.16, written by Peter Selinger 2001-2019
</metadata>
<g transform="translate(0.000000,200.000000) scale(0.100000,-0.100000)"
fill="#000000" stroke="none">
<path d="M409 1817 c-66 -44 -69 -61 -69 -359 l0 -268 -122 0 c-106 0 -128 -3
-156 -20 -62 -38 -63 -45 -60 -510 l3 -420 38 -37 37 -38 738 -3 738 -2 35 23
c66 44 69 60 69 360 l0 267 123 0 c140 0 171 12 201 73 15 33 16 78 14 454 -3
400 -4 419 -23 445 -44 60 -16 58 -808 58 l-724 0 -34 -23z m1482 -88 c16 -16
19 -30 17 -72 l-3 -52 -732 -3 -733 -2 0 64 c0 51 4 67 18 75 11 7 259 10 715
11 690 0 697 0 718 -21z m19 -611 c0 -229 7 -218 -142 -218 l-108 0 0 85 c0
99 -14 139 -59 178 l-33 27 -564 0 -564 0 0 55 0 55 735 0 735 0 0 -182z
m-362 -30 c9 -9 12 -115 12 -415 0 -388 -1 -403 -19 -413 -13 -6 -255 -10
-715 -10 -683 0 -696 0 -716 20 -19 19 -20 33 -20 409 0 341 2 392 16 405 14
14 93 16 723 16 536 0 710 -3 719 -12z"/>
<path d="M269 955 c-42 -23 -51 -59 -47 -200 3 -125 3 -127 31 -151 28 -24 32
-24 218 -24 l191 0 29 29 c29 29 29 30 29 155 0 205 -2 206 -252 206 -130 -1
-180 -4 -199 -15z m151 -110 c0 -23 -3 -25 -50 -25 -47 0 -50 2 -50 25 0 23 3
25 50 25 47 0 50 -2 50 -25z m200 0 c0 -23 -3 -25 -50 -25 -47 0 -50 2 -50 25
0 23 3 25 50 25 47 0 50 -2 50 -25z m-200 -145 c0 -29 -1 -30 -50 -30 -49 0
-50 1 -50 30 0 29 1 30 50 30 49 0 50 -1 50 -30z m200 0 c0 -29 -1 -30 -50
-30 -49 0 -50 1 -50 30 0 29 1 30 50 30 49 0 50 -1 50 -30z"/>
<path d="M932 758 c-17 -17 -15 -44 4 -62 13 -14 51 -16 258 -16 175 0 245 3
254 12 15 15 15 51 0 66 -17 17 -499 17 -516 0z"/>
<path d="M206 424 c-19 -18 -20 -28 -6 -55 10 -18 28 -19 623 -19 464 0 616 3
625 12 7 7 12 21 12 33 0 12 -5 26 -12 33 -9 9 -160 12 -619 12 -539 0 -609
-2 -623 -16z"/>
</g>
</svg>
