<?xml version="1.0" standalone="no"?>
<!DOCTYPE svg PUBLIC "-//W3C//DTD SVG 20010904//EN"
 "http://www.w3.org/TR/2001/REC-SVG-20010904/DTD/svg10.dtd">
<svg version="1.0" xmlns="http://www.w3.org/2000/svg"
 width="200.000000pt" height="200.000000pt" viewBox="0 0 200.000000 200.000000"
 preserveAspectRatio="xMidYMid meet">
<metadata>
Created by potrace 1.16, written by Peter Selinger 2001-2019
</metadata>
<g transform="translate(0.000000,200.000000) scale(0.100000,-0.100000)"
fill="#000000" stroke="none">
<path d="M561 1774 l-31 -26 0 -108 c0 -99 2 -111 23 -136 18 -21 35 -28 75
-32 l52 -5 0 -309 c0 -342 2 -356 61 -377 18 -6 54 -11 80 -11 l49 0 0 -40 c0
-26 22 -99 60 -197 33 -85 60 -159 60 -164 0 -4 -15 -9 -32 -11 l-33 -3 0 -75
0 -75 225 0 225 0 0 75 0 75 -37 5 -37 5 60 154 c75 196 76 211 9 373 l-50
121 0 227 0 227 52 5 c40 4 57 11 75 32 21 25 23 37 23 136 l0 108 -31 26 -31
26 -408 0 -408 0 -31 -26z m859 -24 c17 -17 20 -33 20 -112 0 -51 -4 -98 -8
-104 -12 -18 -49 -34 -80 -34 -28 0 -30 2 -34 50 -4 34 -13 59 -28 75 l-23 25
-267 0 -267 0 -23 -25 c-15 -16 -24 -41 -28 -75 -4 -48 -6 -50 -34 -50 -31 0
-68 16 -80 34 -4 6 -8 53 -8 104 0 144 -38 132 440 132 387 0 401 -1 420 -20z
m-620 -535 l0 -405 -28 0 c-15 0 -33 5 -40 12 -9 9 -12 110 -12 395 0 353 1
383 18 392 9 6 27 11 40 11 l22 0 0 -405z m70 0 c0 -398 0 -405 -20 -405 -20
0 -20 7 -20 405 0 398 0 405 20 405 20 0 20 -7 20 -405z m391 395 c18 -10 19
-25 19 -393 0 -285 -3 -386 -12 -395 -17 -17 -148 -16 -148 1 0 6 11 54 25
105 33 123 32 144 -6 176 -36 31 -87 34 -118 9 -11 -10 -41 -70 -65 -133 l-45
-115 -1 378 0 377 166 0 c95 0 174 -4 185 -10z m-141 -530 c11 -11 20 -24 20
-30 0 -5 -18 -78 -40 -162 -37 -143 -40 -181 -11 -164 6 4 11 16 11 27 0 17 7
19 65 19 112 0 145 26 157 120 4 37 68 -119 68 -167 0 -22 -26 -105 -62 -200
l-63 -163 -116 0 c-84 0 -118 3 -122 12 -104 267 -121 318 -121 353 0 39 97
302 130 353 18 28 57 29 84 2z m220 -800 l0 -50 -192 2 -193 3 -3 33 c-6 63
-11 62 198 62 l190 0 0 -50z"/>
<path d="M1096 1547 c-21 -21 -24 -33 -24 -102 0 -69 3 -81 24 -102 31 -31 83
-31 112 0 18 19 21 34 21 104 0 77 -2 84 -26 103 -35 27 -78 26 -107 -3z m88
-23 c9 -8 16 -23 16 -32 0 -14 -10 -17 -50 -17 -54 0 -64 13 -33 47 20 22 46
23 67 2z m-3 -84 c36 -20 14 -90 -28 -90 -23 0 -53 29 -53 51 0 21 26 49 46
49 9 0 24 -5 35 -10z"/>
</g>
</svg>
