<?xml version="1.0" standalone="no"?>
<!DOCTYPE svg PUBLIC "-//W3C//DTD SVG 20010904//EN"
 "http://www.w3.org/TR/2001/REC-SVG-20010904/DTD/svg10.dtd">
<svg version="1.0" xmlns="http://www.w3.org/2000/svg"
 width="200.000000pt" height="200.000000pt" viewBox="0 0 200.000000 200.000000"
 preserveAspectRatio="xMidYMid meet">
<metadata>
Created by potrace 1.16, written by Peter Selinger 2001-2019
</metadata>
<g transform="translate(0.000000,200.000000) scale(0.100000,-0.100000)"
fill="#000000" stroke="none">
<path d="M239 1771 c-16 -16 -29 -39 -29 -50 l0 -21 790 0 790 0 0 21 c0 11
-13 34 -29 50 l-29 29 -732 0 -732 0 -29 -29z"/>
<path d="M210 1565 l0 -65 790 0 790 0 0 65 0 65 -790 0 -790 0 0 -65z"/>
<path d="M210 1224 l0 -216 29 -29 30 -29 735 2 735 3 23 23 c22 22 23 29 26
242 l3 220 -790 0 -791 0 0 -216z m450 -3 c13 -25 13 -157 0 -182 -10 -18 -23
-19 -195 -19 l-185 0 0 103 c0 57 3 107 7 110 3 4 86 7 184 7 166 0 179 -1
189 -19z m680 -156 c25 -31 5 -45 -65 -45 -68 0 -85 11 -71 45 8 21 119 21
136 0z m189 1 c6 -7 9 -21 5 -30 -5 -13 -21 -16 -74 -16 -71 0 -86 9 -68 43
11 22 119 25 137 3z m190 0 c6 -7 9 -21 5 -30 -5 -12 -20 -16 -70 -16 -67 0
-83 11 -70 45 7 20 118 21 135 1z"/>
<path d="M332 1128 l3 -53 135 0 135 0 3 53 3 52 -141 0 -141 0 3 -52z"/>
<path d="M637 870 c-59 -15 -108 -45 -154 -92 -120 -124 -119 -321 2 -443 89
-88 239 -117 350 -67 66 30 138 103 166 166 34 76 32 182 -4 257 -32 65 -99
132 -162 160 -52 23 -146 32 -198 19z m101 -82 c3 -38 4 -38 47 -38 26 0 50
-6 59 -16 20 -19 20 -19 0 -38 -12 -12 -38 -16 -115 -16 -96 0 -99 -1 -105
-24 -3 -13 -1 -34 6 -45 9 -19 20 -21 93 -21 96 0 121 -15 133 -75 13 -73 -24
-135 -83 -135 -31 0 -33 -2 -33 -34 0 -37 -21 -62 -45 -52 -10 3 -15 19 -15
46 l0 40 -49 0 c-55 0 -82 19 -61 45 9 10 39 15 113 17 l102 3 3 43 3 42 -85
0 c-75 0 -88 3 -113 24 -25 22 -28 31 -28 84 0 72 19 99 77 108 35 6 38 9 38
39 0 38 7 47 35 43 15 -2 21 -12 23 -40z"/>
<path d="M1190 799 c-72 -9 -150 -35 -150 -50 0 -6 7 -24 16 -40 8 -17 19 -49
22 -72 7 -41 9 -42 57 -54 75 -17 250 -16 320 3 232 60 189 180 -77 214 -91
11 -95 11 -188 -1z"/>
<path d="M1568 559 c-111 -57 -324 -73 -463 -33 -18 5 -22 -1 -32 -48 -6 -29
-10 -54 -9 -55 12 -14 150 -36 226 -36 108 0 183 15 252 49 56 28 70 51 66
103 l-3 39 -37 -19z"/>
<path d="M1580 385 c-14 -8 -56 -25 -95 -37 -95 -31 -299 -31 -391 -1 l-60 20
-27 -38 -27 -37 27 -20 c137 -94 470 -89 575 10 23 21 28 34 28 72 0 25 -1 46
-2 46 -2 -1 -14 -7 -28 -15z"/>
</g>
</svg>
