<?xml version="1.0" standalone="no"?>
<!DOCTYPE svg PUBLIC "-//W3C//DTD SVG 20010904//EN"
 "http://www.w3.org/TR/2001/REC-SVG-20010904/DTD/svg10.dtd">
<svg version="1.0" xmlns="http://www.w3.org/2000/svg"
 width="200.000000pt" height="200.000000pt" viewBox="0 0 200.000000 200.000000"
 preserveAspectRatio="xMidYMid meet">
<metadata>
Created by potrace 1.16, written by Peter Selinger 2001-2019
</metadata>
<g transform="translate(0.000000,200.000000) scale(0.100000,-0.100000)"
fill="#000000" stroke="none">
<path d="M932 1719 c-102 -17 -216 -95 -268 -185 l-25 -43 -269 -3 c-253 -3
-270 -4 -296 -24 -15 -11 -37 -33 -48 -48 -21 -27 -21 -38 -21 -534 l0 -507
23 -33 c51 -71 -13 -67 972 -67 875 0 885 0 920 21 19 11 45 38 57 60 l23 39
-3 497 c-2 484 -3 497 -23 524 -11 15 -33 37 -48 48 -26 20 -43 21 -296 24
l-269 3 -25 43 c-55 94 -165 167 -277 186 -35 5 -66 9 -69 9 -3 -1 -29 -5 -58
-10z m206 -105 c28 -14 52 -29 52 -32 0 -4 -98 -105 -218 -225 l-219 -219 -17
27 c-30 46 -46 105 -46 174 0 139 100 266 237 301 59 14 151 3 211 -26z m143
-141 c34 -68 35 -206 1 -274 -29 -59 -84 -114 -147 -147 -43 -23 -62 -27 -135
-27 -74 0 -92 4 -139 29 l-54 28 219 219 c120 120 221 219 225 219 3 0 16 -21
30 -47z m-671 -143 l0 -80 -265 0 -265 0 0 57 c0 44 5 62 22 80 21 23 23 23
265 23 l243 0 0 -80z m1289 54 c15 -20 21 -41 21 -80 l0 -54 -265 0 -265 0 0
80 0 80 244 0 245 0 20 -26z m-1240 -242 c11 -21 38 -57 60 -80 l41 -42 -340
0 -340 0 0 80 0 80 280 0 280 0 19 -38z m1261 -42 l0 -80 -340 0 -340 0 41 42
c22 23 49 59 60 80 l19 38 280 0 280 0 0 -80z m0 -424 c0 -145 -3 -272 -6
-281 -18 -45 -11 -45 -914 -45 -903 0 -896 0 -914 45 -3 9 -6 136 -6 281 l0
264 920 0 920 0 0 -264z"/>
<path d="M972 848 c-18 -18 -17 -232 2 -247 9 -8 133 -10 437 -9 l424 3 0 130
0 130 -425 3 c-323 2 -429 -1 -438 -10z m788 -123 l0 -55 -360 0 -360 0 0 55
0 55 360 0 360 0 0 -55z"/>
<path d="M231 719 c-96 -58 -95 -191 2 -263 27 -20 57 -23 152 -16 17 1 48 -1
70 -5 93 -15 186 81 170 177 -6 32 -19 54 -49 85 l-41 41 -137 0 c-116 0 -141
-3 -167 -19z m92 -76 c-4 -16 -8 -39 -8 -53 0 -14 4 -37 8 -52 6 -23 4 -28
-11 -28 -11 0 -31 9 -46 21 -46 36 -32 111 24 132 33 12 41 8 33 -20z m198 -2
c36 -36 37 -73 4 -106 -26 -27 -70 -32 -96 -12 -20 15 -39 51 -39 72 0 24 55
75 80 75 12 0 35 -13 51 -29z"/>
<path d="M972 498 c-6 -6 -12 -20 -12 -29 0 -34 24 -40 145 -37 99 3 120 6
129 21 8 12 8 22 0 35 -9 14 -30 17 -130 20 -84 2 -123 -1 -132 -10z"/>
<path d="M1331 491 c-6 -11 -8 -27 -5 -35 12 -32 89 -34 108 -3 18 28 -4 52
-52 55 -32 2 -43 -1 -51 -17z"/>
<path d="M1531 491 c-6 -11 -8 -27 -5 -35 12 -32 89 -34 108 -3 18 28 -4 52
-52 55 -32 2 -43 -1 -51 -17z"/>
<path d="M1737 496 c-20 -21 -10 -55 18 -62 56 -14 102 17 79 54 -15 23 -77
28 -97 8z"/>
</g>
</svg>
