<?xml version="1.0" standalone="no"?>
<!DOCTYPE svg PUBLIC "-//W3C//DTD SVG 20010904//EN"
 "http://www.w3.org/TR/2001/REC-SVG-20010904/DTD/svg10.dtd">
<svg version="1.0" xmlns="http://www.w3.org/2000/svg"
 width="200.000000pt" height="200.000000pt" viewBox="0 0 200.000000 200.000000"
 preserveAspectRatio="xMidYMid meet">
<metadata>
Created by potrace 1.16, written by Peter Selinger 2001-2019
</metadata>
<g transform="translate(0.000000,200.000000) scale(0.100000,-0.100000)"
fill="#000000" stroke="none">
<path d="M794 1680 c-140 -14 -329 -55 -392 -86 -70 -34 -150 -113 -180 -177
-56 -120 -89 -359 -72 -523 38 -366 143 -493 450 -544 127 -21 405 -44 456
-38 l27 3 -2 85 c-3 108 12 175 52 237 23 36 32 64 37 115 27 268 332 414 559
268 34 -22 73 -57 88 -79 16 -22 32 -40 37 -41 15 0 -2 268 -24 364 -26 115
-58 184 -114 244 -80 86 -174 123 -391 157 -123 19 -408 27 -531 15z m456
-180 c127 -16 241 -40 281 -61 57 -29 97 -82 115 -154 l6 -25 -651 0 -651 0 6
28 c13 53 50 107 96 138 46 31 136 54 288 73 95 12 412 13 510 1z m-564 -680
c58 -23 73 -92 29 -135 -21 -22 -33 -25 -100 -25 -67 0 -79 3 -100 25 -43 42
-29 112 26 134 32 13 111 13 145 1z"/>
<path d="M1460 991 c-128 -39 -209 -144 -210 -268 0 -56 -4 -68 -34 -107 -44
-58 -60 -127 -53 -233 11 -182 106 -264 322 -280 148 -10 283 26 347 94 49 51
68 109 68 206 0 132 -13 172 -79 237 -37 37 -70 60 -97 68 -77 23 -196 34
-257 24 l-58 -9 6 26 c9 37 43 70 86 83 31 9 45 8 78 -6 54 -21 73 -20 105 5
35 28 36 86 2 118 -44 41 -158 62 -226 42z"/>
</g>
</svg>
