<?xml version="1.0" standalone="no"?>
<!DOCTYPE svg PUBLIC "-//W3C//DTD SVG 20010904//EN"
 "http://www.w3.org/TR/2001/REC-SVG-20010904/DTD/svg10.dtd">
<svg version="1.0" xmlns="http://www.w3.org/2000/svg"
 width="200.000000pt" height="200.000000pt" viewBox="0 0 200.000000 200.000000"
 preserveAspectRatio="xMidYMid meet">
<metadata>
Created by potrace 1.16, written by Peter Selinger 2001-2019
</metadata>
<g transform="translate(0.000000,200.000000) scale(0.100000,-0.100000)"
fill="#000000" stroke="none">
<path d="M794 1680 c-140 -14 -329 -55 -392 -86 -70 -34 -150 -113 -180 -177
-56 -120 -89 -359 -72 -523 38 -366 143 -493 450 -544 127 -21 405 -44 456
-38 l27 3 -2 85 c-3 108 12 175 52 237 23 36 32 64 37 115 27 268 332 414 559
268 34 -22 73 -57 88 -79 16 -22 32 -40 37 -41 15 0 -2 268 -24 364 -26 115
-58 184 -114 244 -80 86 -174 123 -391 157 -123 19 -408 27 -531 15z m456
-180 c127 -16 241 -40 281 -61 57 -29 97 -82 115 -154 l6 -25 -651 0 -651 0 6
28 c13 53 50 107 96 138 46 31 136 54 288 73 95 12 412 13 510 1z m-564 -680
c58 -23 73 -92 29 -135 -21 -22 -33 -25 -100 -25 -67 0 -79 3 -100 25 -43 42
-29 112 26 134 32 13 111 13 145 1z"/>
<path d="M1460 991 c-129 -40 -209 -143 -210 -272 0 -48 -4 -70 -16 -79 -8 -8
-27 -34 -42 -59 -25 -43 -27 -54 -27 -161 0 -104 2 -120 26 -165 47 -93 139
-140 294 -152 148 -10 283 26 347 94 50 52 68 108 68 214 0 107 -10 148 -50
199 -21 28 -28 50 -33 106 -7 91 -25 132 -82 193 -71 76 -184 109 -275 82z
m114 -165 c36 -15 76 -60 76 -86 0 -15 -7 -16 -60 -8 -36 6 -84 6 -121 0 l-60
-9 6 26 c9 34 33 61 70 77 38 17 49 17 89 0z"/>
</g>
</svg>
