<?xml version="1.0" standalone="no"?>
<!DOCTYPE svg PUBLIC "-//W3C//DTD SVG 20010904//EN"
 "http://www.w3.org/TR/2001/REC-SVG-20010904/DTD/svg10.dtd">
<svg version="1.0" xmlns="http://www.w3.org/2000/svg"
 width="200.000000pt" height="200.000000pt" viewBox="0 0 200.000000 200.000000"
 preserveAspectRatio="xMidYMid meet">
<metadata>
Created by potrace 1.16, written by Peter Selinger 2001-2019
</metadata>
<g transform="translate(0.000000,200.000000) scale(0.100000,-0.100000)"
fill="#000000" stroke="none">
<path d="M1750 1811 c-19 -10 -78 -28 -130 -40 -254 -57 -310 -98 -310 -229 0
-78 -21 -83 -49 -12 -33 87 -92 148 -160 166 -46 12 -67 11 -159 -2 -116 -17
-171 -13 -220 16 -49 30 -55 27 -50 -32 5 -63 43 -150 87 -201 44 -50 144 -97
217 -104 67 -6 172 15 234 47 21 11 41 20 44 20 8 0 26 -63 26 -91 l0 -29
-199 0 c-110 0 -206 -3 -215 -6 -22 -8 -21 -15 25 -249 22 -114 38 -209 35
-212 -2 -2 -48 10 -102 27 -67 21 -107 29 -128 25 -17 -4 -77 -31 -133 -60
-85 -45 -104 -51 -113 -40 -9 11 -17 12 -31 4 -11 -5 -29 -7 -39 -4 -30 9
-202 -84 -197 -107 12 -43 280 -528 293 -528 29 0 184 92 184 109 0 9 9 22 19
28 11 7 21 23 23 35 5 36 37 33 239 -17 136 -34 194 -45 224 -40 54 8 591 294
628 335 15 17 27 42 27 58 0 70 -76 126 -142 103 -17 -6 -33 -9 -36 -7 -2 3
19 123 48 267 41 209 49 264 38 270 -7 5 -102 9 -210 9 l-198 0 -2 38 c-2 46
1 74 7 81 3 2 18 -7 33 -21 55 -51 132 -54 223 -8 125 64 239 242 239 375 0
52 -12 56 -70 26z m24 -78 c-26 -145 -190 -313 -305 -313 -49 0 -84 16 -100
47 -12 22 -11 27 6 39 26 20 82 34 132 34 23 0 48 3 57 6 22 8 20 31 -3 39
-25 8 -148 -13 -185 -32 l-29 -15 7 33 c16 82 72 116 245 153 68 15 131 31
140 36 33 19 42 12 35 -27z m-944 -87 c36 0 110 4 165 8 90 7 103 6 131 -12
34 -22 90 -89 81 -98 -3 -3 -22 0 -44 6 -55 16 -178 10 -178 -10 0 -12 19 -16
90 -21 91 -6 148 -24 142 -43 -6 -18 -113 -55 -179 -62 -149 -15 -277 73 -319
219 -8 28 -7 29 19 21 15 -5 56 -8 92 -8z m860 -385 c0 -21 -91 -478 -99 -496
-6 -15 -53 -38 -170 -83 -88 -34 -166 -62 -172 -62 -7 0 -9 10 -5 26 9 35 -10
89 -38 107 -12 8 -68 29 -124 46 -69 22 -102 37 -106 49 -3 9 -21 100 -41 202
-20 102 -39 193 -41 203 -5 16 18 17 395 17 241 0 401 -4 401 -9z m-875 -421
c78 -24 331 -105 359 -116 41 -16 38 -102 -5 -125 -22 -11 -43 -7 -233 53 -92
28 -131 37 -139 29 -19 -19 4 -30 174 -82 124 -38 174 -49 204 -45 22 3 99 28
170 57 304 120 367 141 392 130 31 -14 49 -54 37 -82 -10 -23 -563 -325 -612
-335 -15 -3 -107 14 -217 41 -137 33 -202 45 -232 41 l-42 -5 -44 82 c-24 45
-68 126 -96 179 l-52 97 93 47 c51 26 104 50 118 54 28 9 27 9 125 -20z m-276
-279 c61 -114 111 -213 111 -220 0 -20 -16 -12 -28 14 -6 14 -16 25 -22 25
-19 0 -22 -28 -5 -60 19 -37 19 -36 -55 -78 l-55 -31 -129 241 c-101 189 -125
242 -115 250 38 25 112 59 117 53 4 -3 50 -86 102 -182 52 -97 101 -178 107
-181 33 -10 16 37 -67 191 -77 143 -95 187 -75 187 2 0 53 -94 114 -209z"/>
<path d="M1218 1225 c-86 -28 -157 -125 -158 -214 0 -127 83 -223 208 -238
134 -15 255 92 255 227 0 163 -151 274 -305 225z m149 -46 c40 -15 91 -67 104
-107 29 -88 -1 -179 -75 -229 -33 -22 -53 -27 -103 -28 -52 0 -68 4 -105 30
-129 90 -111 277 33 334 33 13 112 13 146 0z"/>
<path d="M1270 1146 c-5 -13 -18 -27 -28 -30 -11 -4 -25 -20 -32 -37 -11 -26
-10 -34 7 -57 18 -25 36 -33 96 -46 22 -5 28 -12 25 -29 -4 -27 -49 -35 -85
-16 -17 9 -26 10 -35 1 -13 -13 3 -38 32 -47 10 -3 20 -16 22 -27 4 -28 26
-35 36 -10 4 11 22 32 40 47 41 34 43 75 6 104 -15 12 -36 21 -48 21 -12 0
-32 7 -44 16 -18 12 -20 19 -11 36 11 20 39 21 97 3 34 -11 28 22 -8 43 -16 9
-30 25 -30 35 0 26 -29 21 -40 -7z"/>
</g>
</svg>
