<?xml version="1.0" standalone="no"?>
<!DOCTYPE svg PUBLIC "-//W3C//DTD SVG 20010904//EN"
 "http://www.w3.org/TR/2001/REC-SVG-20010904/DTD/svg10.dtd">
<svg version="1.0" xmlns="http://www.w3.org/2000/svg"
 width="200.000000pt" height="200.000000pt" viewBox="0 0 200.000000 200.000000"
 preserveAspectRatio="xMidYMid meet">
<metadata>
Created by potrace 1.16, written by Peter Selinger 2001-2019
</metadata>
<g transform="translate(0.000000,200.000000) scale(0.100000,-0.100000)"
fill="#000000" stroke="none">
<path d="M586 1961 c-16 -18 -18 -30 -12 -91 16 -175 104 -279 250 -296 l56
-7 0 -53 0 -53 -37 -6 c-147 -23 -255 -52 -300 -81 -13 -8 -23 -23 -23 -34 0
-11 25 -69 55 -129 l54 -109 -65 -54 c-86 -69 -145 -143 -192 -236 -36 -74
-37 -79 -37 -186 0 -149 31 -240 119 -355 70 -92 66 -91 333 -91 l233 0 41
-45 c54 -58 148 -105 226 -112 124 -11 255 53 323 157 94 146 75 326 -47 447
-36 36 -51 61 -61 98 -29 113 -107 228 -216 317 l-64 53 59 117 c32 65 59 124
59 133 0 8 -10 21 -22 29 -39 25 -174 65 -263 77 l-85 12 0 54 0 53 33 0 c57
0 131 28 175 66 56 48 90 118 104 213 11 71 10 82 -6 106 -17 27 -21 27 -80
21 -96 -10 -155 -35 -213 -92 l-53 -50 -52 51 c-58 55 -120 81 -218 92 -47 4
-58 2 -74 -16z m145 -92 c56 -19 100 -59 125 -113 42 -90 32 -108 -48 -86 -70
20 -126 90 -142 178 -6 37 6 40 65 21z m459 -17 c0 -15 -12 -52 -26 -80 -29
-57 -80 -95 -146 -107 -36 -7 -38 -6 -38 19 0 66 56 145 125 177 60 28 85 25
85 -9z m-49 -512 c46 -12 85 -23 87 -25 2 -2 -17 -44 -42 -94 l-46 -91 -210 0
-210 0 -45 90 c-25 49 -45 91 -45 93 0 7 114 37 176 47 86 13 240 4 335 -20z
m-476 -364 c-62 -64 -117 -151 -140 -224 -14 -42 -16 -75 -12 -155 5 -112 27
-187 77 -268 l30 -49 -29 0 c-73 0 -171 200 -171 349 0 130 98 281 249 383 50
34 49 17 -4 -36z m558 -1 c82 -68 147 -152 176 -227 l9 -24 -87 0 c-79 0 -95
-3 -154 -32 -127 -63 -198 -177 -198 -319 0 -40 3 -78 6 -83 4 -6 -37 -10
-114 -10 l-119 0 -34 40 c-75 87 -113 206 -106 328 7 118 71 224 195 327 l67
55 146 0 146 0 67 -55z m208 -366 c56 -28 92 -63 117 -112 66 -132 17 -286
-111 -351 -176 -90 -377 32 -377 229 0 92 37 160 123 225 54 41 177 45 248 9z"/>
<path d="M1286 594 c-9 -8 -16 -20 -16 -25 0 -5 -20 -9 -44 -9 -76 0 -76 0
-76 -109 0 -62 4 -101 12 -109 7 -7 34 -12 60 -12 45 0 48 -2 48 -25 0 -23 -3
-25 -48 -25 -52 0 -72 -12 -72 -45 0 -33 20 -45 71 -45 39 0 49 -4 54 -20 3
-11 18 -23 32 -26 21 -6 31 -2 48 19 17 22 29 27 66 27 25 0 50 5 57 12 16 16
16 190 0 206 -7 7 -36 12 -65 12 -50 0 -53 1 -53 25 0 24 3 25 53 25 57 0 77
12 77 45 0 32 -20 45 -71 45 -39 0 -49 4 -63 25 -19 29 -47 32 -70 9z m-16
-149 c0 -16 -6 -25 -15 -25 -9 0 -15 9 -15 25 0 16 6 25 15 25 9 0 15 -9 15
-25z m130 -140 c0 -18 -5 -25 -20 -25 -15 0 -20 7 -20 25 0 18 5 25 20 25 15
0 20 -7 20 -25z"/>
</g>
</svg>
