<?xml version="1.0" standalone="no"?>
<!DOCTYPE svg PUBLIC "-//W3C//DTD SVG 20010904//EN"
 "http://www.w3.org/TR/2001/REC-SVG-20010904/DTD/svg10.dtd">
<svg version="1.0" xmlns="http://www.w3.org/2000/svg"
 width="200.000000pt" height="200.000000pt" viewBox="0 0 200.000000 200.000000"
 preserveAspectRatio="xMidYMid meet">
<metadata>
Created by potrace 1.16, written by Peter Selinger 2001-2019
</metadata>
<g transform="translate(0.000000,200.000000) scale(0.100000,-0.100000)"
fill="#000000" stroke="none">
<path d="M602 1818 c-22 -27 -52 -103 -52 -134 0 -33 34 -74 63 -74 9 0 26 9
37 20 28 28 25 84 -9 148 -22 43 -29 51 -39 40z"/>
<path d="M1217 1683 c-5 -4 -16 -27 -27 -50 -22 -50 -32 -52 -109 -23 -29 12
-56 19 -59 16 -2 -3 14 -35 38 -71 l42 -65 133 0 133 0 41 61 c23 34 41 65 41
70 0 14 -24 11 -79 -13 -59 -24 -67 -20 -99 43 -17 33 -41 47 -55 32z"/>
<path d="M590 1459 c0 -65 2 -119 4 -119 2 0 11 -3 20 -6 14 -5 16 9 16 118 0
117 -1 124 -20 125 -19 2 -20 -4 -20 -118z"/>
<path d="M414 1513 c40 -79 95 -115 137 -93 15 8 19 19 17 42 -4 43 -42 68
-112 75 l-58 6 16 -30z"/>
<path d="M711 1526 c-62 -22 -83 -83 -36 -104 14 -7 30 -12 35 -12 18 0 72 54
91 91 l19 39 -37 -1 c-21 0 -53 -6 -72 -13z"/>
<path d="M1074 1435 c-4 -8 -4 -22 0 -30 5 -13 29 -15 163 -13 l158 3 0 25 0
25 -158 3 c-134 2 -158 0 -163 -13z"/>
<path d="M1021 1290 c-175 -210 -221 -366 -131 -450 24 -22 46 -29 137 -42
121 -18 197 -12 293 23 71 26 121 23 135 -8 5 -13 15 -23 22 -23 7 0 44 32 84
71 l71 70 -7 47 c-13 87 -99 236 -198 340 l-31 32 -163 0 -162 0 -50 -60z
m237 -18 c2 -14 16 -28 37 -36 56 -24 87 -96 44 -104 -11 -2 -19 6 -23 23 -9
37 -66 60 -111 45 -82 -27 -42 -110 52 -110 53 0 103 -50 103 -101 0 -24 -61
-89 -83 -89 -8 0 -18 -12 -21 -26 -8 -31 -40 -29 -44 3 -2 12 -13 25 -25 29
-49 15 -88 74 -66 100 13 16 39 2 39 -22 0 -20 41 -44 78 -44 45 0 88 41 72
70 -13 25 -41 40 -75 40 -69 0 -134 63 -120 117 7 31 52 73 77 73 10 0 21 7
23 15 3 8 7 22 10 31 7 22 29 12 33 -14z"/>
<path d="M442 1310 c-57 -14 -108 -55 -136 -111 -34 -68 -34 -120 0 -188 44
-88 132 -130 230 -111 168 34 224 254 93 365 -52 43 -124 61 -187 45z m116
-35 c49 -21 81 -52 103 -100 25 -54 24 -92 -6 -151 -30 -59 -79 -95 -139 -101
-112 -13 -206 70 -206 182 0 130 130 219 248 170z"/>
<path d="M443 1239 c-39 -11 -82 -65 -90 -112 -16 -102 84 -189 181 -157 19 6
49 27 66 46 25 29 30 43 30 89 0 44 -5 59 -27 86 -28 33 -79 60 -110 58 -10 0
-32 -5 -50 -10z m117 -96 c0 -13 -4 -23 -9 -23 -6 0 -4 -12 3 -26 17 -32 10
-61 -18 -76 -11 -6 -26 -18 -32 -27 -10 -13 -17 -10 -48 19 -36 35 -46 63 -25
76 7 4 19 -3 29 -16 17 -23 50 -25 58 -2 2 7 -6 12 -21 12 -31 0 -77 36 -77
61 0 11 16 35 36 55 l37 35 33 -32 c19 -19 34 -43 34 -56z"/>
<path d="M475 1149 c-9 -13 -7 -15 28 -23 26 -6 27 -5 17 14 -12 22 -35 27
-45 9z"/>
<path d="M679 1283 c30 -52 33 -53 139 -53 99 0 101 0 121 29 11 15 18 31 14
35 -3 3 -69 6 -145 6 -129 0 -138 -1 -129 -17z"/>
<path d="M744 1159 c3 -17 6 -35 6 -40 0 -5 20 -9 45 -9 40 0 47 4 65 33 11
17 20 35 20 40 0 4 -32 7 -71 7 l-71 0 6 -31z"/>
<path d="M740 1058 c0 -7 -3 -23 -6 -35 -6 -21 -3 -23 35 -23 26 0 41 5 41 13
0 6 3 22 6 35 6 20 3 22 -35 22 -26 0 -41 -5 -41 -12z"/>
<path d="M672 924 l-33 -34 87 0 c74 0 85 2 80 16 -3 9 -6 24 -6 35 0 16 -7
19 -47 18 -41 0 -53 -5 -81 -35z"/>
<path d="M1640 882 c-31 -37 -85 -88 -120 -115 -36 -26 -87 -69 -115 -96 -80
-77 -98 -84 -285 -97 -91 -7 -169 -8 -174 -4 -5 5 -6 15 -3 23 4 11 36 16 139
21 73 4 149 9 169 12 72 10 194 133 162 165 -8 8 -31 5 -90 -15 -113 -37 -172
-41 -313 -21 -150 21 -258 17 -315 -13 -22 -11 -75 -50 -117 -85 l-77 -65 94
-133 c52 -73 97 -134 100 -137 3 -3 15 4 28 16 20 19 45 24 173 37 237 23 301
39 444 111 200 101 352 271 376 423 10 60 -11 53 -76 -27z"/>
<path d="M356 837 c-10 -7 -17 -22 -14 -33 3 -18 14 -19 164 -22 126 -2 168 1
197 13 42 17 43 18 21 39 -13 13 -44 16 -183 16 -122 0 -172 -4 -185 -13z"/>
<path d="M362 580 c-23 -16 -42 -38 -42 -48 0 -26 241 -356 263 -360 28 -6 97
47 97 72 0 28 -236 360 -258 364 -10 2 -37 -11 -60 -28z"/>
</g>
</svg>
