<?xml version="1.0" standalone="no"?>
<!DOCTYPE svg PUBLIC "-//W3C//DTD SVG 20010904//EN"
 "http://www.w3.org/TR/2001/REC-SVG-20010904/DTD/svg10.dtd">
<svg version="1.0" xmlns="http://www.w3.org/2000/svg"
 width="200.000000pt" height="200.000000pt" viewBox="0 0 200.000000 200.000000"
 preserveAspectRatio="xMidYMid meet">
<metadata>
Created by potrace 1.16, written by Peter Selinger 2001-2019
</metadata>
<g transform="translate(0.000000,200.000000) scale(0.100000,-0.100000)"
fill="#000000" stroke="none">
<path d="M596 1789 c-35 -52 -56 -112 -56 -157 0 -28 8 -43 40 -73 22 -21 40
-47 40 -58 l0 -21 -39 21 c-23 12 -69 22 -110 26 -90 7 -96 -3 -49 -89 51 -92
119 -130 179 -98 16 9 19 7 19 -8 0 -17 -9 -18 -83 -18 -76 1 -88 -2 -132 -29
-106 -66 -145 -199 -91 -310 15 -30 38 -63 50 -73 l23 -18 -23 -28 c-29 -33
-31 -66 -5 -97 17 -22 28 -24 140 -29 l122 -5 -51 -40 c-28 -22 -59 -39 -68
-37 -9 2 -29 6 -43 9 -19 3 -38 -4 -70 -27 -51 -36 -73 -72 -63 -102 7 -23
231 -339 248 -350 6 -4 25 -8 42 -8 58 0 152 92 130 128 -3 5 5 18 17 29 18
17 46 23 146 32 304 28 486 103 652 270 142 143 201 370 90 348 -25 -5 -27 -2
-43 51 -18 62 -91 179 -158 254 -34 39 -41 53 -36 75 4 16 0 40 -8 55 -13 25
-12 30 16 73 35 52 41 102 16 118 -16 11 -64 3 -118 -18 -11 -4 -21 7 -35 37
-17 36 -25 44 -52 46 -44 4 -69 -12 -83 -54 -11 -32 -14 -35 -39 -28 -14 5
-48 8 -76 9 l-50 0 2 -33 c0 -18 14 -53 31 -78 27 -42 29 -48 16 -73 -8 -15
-11 -39 -8 -56 4 -24 0 -35 -19 -53 -16 -15 -27 -20 -32 -13 -4 7 -61 11 -161
11 l-154 0 0 25 c0 22 3 24 19 15 59 -31 127 8 176 103 42 79 33 92 -57 83
-43 -4 -86 -14 -105 -26 -33 -19 -33 -19 -33 1 0 11 16 35 35 53 31 30 35 39
35 86 0 41 -8 67 -36 121 -43 81 -60 86 -98 28z m69 -59 c29 -57 32 -115 8
-142 -35 -39 -93 -5 -93 54 0 27 46 138 56 138 2 0 15 -22 29 -50z m594 -145
c11 -25 25 -45 32 -45 7 0 36 8 65 17 30 9 57 13 61 10 3 -4 -11 -33 -33 -65
l-39 -57 -125 0 -125 0 -39 57 c-22 32 -37 60 -34 63 3 3 31 -4 62 -16 66 -24
78 -19 103 43 21 53 47 50 72 -7z m-740 -106 c27 -5 57 -19 66 -29 24 -27 16
-63 -18 -74 -35 -13 -72 13 -105 72 -27 48 -25 49 57 31z m307 -6 c-13 -33
-51 -82 -73 -94 -26 -14 -69 -5 -77 16 -15 40 25 77 94 88 55 9 62 8 56 -10z
m548 -82 c4 -5 3 -16 0 -25 -5 -14 -28 -16 -154 -16 -150 0 -165 4 -152 38 5
14 297 18 306 3z m76 -172 c75 -98 124 -190 135 -255 6 -39 4 -44 -43 -95 -28
-30 -63 -62 -80 -71 -30 -18 -30 -18 -36 7 -10 38 -46 41 -129 12 -97 -35
-158 -41 -258 -27 -143 21 -181 53 -181 153 0 64 59 184 143 290 l62 77 158 0
158 0 71 -91z m-840 39 c70 -36 103 -86 108 -162 7 -103 -45 -179 -141 -206
-173 -48 -315 155 -211 302 58 82 158 109 244 66z m350 -3 c0 -3 -7 -17 -16
-30 -15 -24 -21 -25 -113 -25 -96 0 -97 0 -119 30 l-23 30 136 0 c74 0 135 -2
135 -5z m-85 -136 c-15 -28 -19 -30 -63 -27 -43 3 -47 5 -50 31 l-3 27 66 0
66 0 -16 -31z m-46 -99 c-9 -26 -16 -30 -46 -30 -28 0 -34 3 -29 16 3 9 6 22
6 30 0 10 12 14 39 14 l40 0 -10 -30z m-15 -96 c15 -40 9 -44 -75 -44 l-82 0
29 29 c23 22 39 29 75 30 34 1 48 -3 53 -15z m853 -24 c-21 -157 -196 -339
-413 -427 -106 -43 -192 -61 -352 -73 -104 -8 -132 -14 -155 -31 -16 -12 -32
-17 -37 -13 -14 17 -170 242 -170 247 0 11 152 129 183 142 60 25 154 28 281
10 138 -20 206 -15 302 21 36 13 70 22 75 19 29 -18 -15 -86 -85 -132 -43 -29
-51 -30 -193 -37 -147 -7 -172 -13 -158 -36 6 -9 44 -11 154 -5 169 8 206 20
273 87 24 24 73 64 110 90 36 26 89 77 118 113 28 36 56 65 62 65 7 0 9 -15 5
-40z m-919 -72 c18 -18 15 -25 -19 -37 -41 -14 -335 -15 -344 -1 -3 6 -3 19 0
30 6 19 15 20 179 20 120 0 176 -4 184 -12z m102 -3 c11 -13 8 -15 -18 -15
-17 0 -32 6 -36 15 -4 11 1 15 18 15 13 0 29 -7 36 -15z m-363 -227 c27 -30
212 -293 219 -311 7 -18 -63 -77 -91 -77 -16 0 -51 42 -137 166 -70 100 -115
171 -111 180 6 17 72 64 89 64 6 0 20 -10 31 -22z"/>
<path d="M1207 1253 c-4 -3 -7 -15 -7 -25 0 -10 -6 -18 -14 -18 -8 0 -28 -12
-45 -26 -23 -19 -31 -34 -31 -58 0 -59 33 -84 132 -101 81 -13 67 -95 -17 -95
-37 0 -64 17 -75 46 -13 33 -40 32 -40 -2 0 -28 49 -84 74 -84 8 0 16 -10 18
-22 2 -13 10 -23 18 -23 8 0 16 10 18 23 2 12 10 22 18 22 7 0 28 13 46 28 64
58 29 135 -70 151 -60 9 -82 25 -82 57 0 28 26 44 74 44 35 0 57 -15 83 -56
10 -16 14 -17 22 -5 16 24 -11 72 -52 94 -23 12 -37 26 -37 38 0 18 -20 26
-33 12z"/>
<path d="M439 1228 c-62 -35 -97 -120 -79 -188 41 -151 245 -178 317 -41 13
24 23 60 23 79 0 51 -36 119 -78 147 -48 33 -130 34 -183 3z m176 -51 c62 -62
55 -158 -15 -205 -94 -64 -231 30 -200 137 21 73 56 100 134 101 41 0 53 -5
81 -33z"/>
<path d="M485 1159 c-25 -25 -28 -32 -19 -56 6 -19 20 -32 44 -39 19 -6 36
-16 38 -23 6 -17 -38 -13 -44 4 -9 21 -44 19 -44 -3 0 -16 53 -72 69 -72 18 0
61 58 61 82 0 30 -10 38 -53 47 -17 4 -32 12 -35 19 -6 18 45 15 52 -3 8 -21
36 -19 36 3 -1 21 -45 72 -62 71 -7 -1 -26 -14 -43 -30z"/>
</g>
</svg>
