<?xml version="1.0" standalone="no"?>
<!DOCTYPE svg PUBLIC "-//W3C//DTD SVG 20010904//EN"
 "http://www.w3.org/TR/2001/REC-SVG-20010904/DTD/svg10.dtd">
<svg version="1.0" xmlns="http://www.w3.org/2000/svg"
 width="200.000000pt" height="200.000000pt" viewBox="0 0 200.000000 200.000000"
 preserveAspectRatio="xMidYMid meet">
<metadata>
Created by potrace 1.16, written by Peter Selinger 2001-2019
</metadata>
<g transform="translate(0.000000,200.000000) scale(0.100000,-0.100000)"
fill="#000000" stroke="none">
<path d="M1116 1904 c-195 -47 -343 -188 -412 -394 -12 -38 -18 -85 -18 -152
l-1 -98 -103 0 c-83 0 -110 -4 -141 -20 -83 -42 -110 -151 -57 -230 l26 -40
-48 0 c-95 0 -162 -63 -162 -152 0 -95 52 -151 149 -162 l62 -7 -21 -26 c-45
-57 -45 -139 0 -196 l20 -25 -56 -4 c-167 -14 -216 -226 -68 -298 38 -19 62
-20 486 -20 245 0 460 3 478 7 19 3 50 23 71 44 59 59 64 130 14 204 l-24 35
45 0 c61 0 106 21 140 65 23 30 28 48 28 91 0 85 -59 146 -153 159 l-50 7 23
42 c13 24 25 52 28 62 3 13 23 25 60 37 160 50 308 211 353 382 19 74 19 213
0 285 -65 246 -294 422 -545 419 -36 0 -91 -7 -124 -15z m225 -298 c45 -19 89
-54 89 -72 0 -19 -14 -18 -31 2 -18 22 -60 42 -114 54 -118 26 -246 -63 -271
-189 l-6 -31 121 0 c74 0 121 -4 121 -10 0 -6 -47 -10 -120 -10 -83 0 -120 -4
-120 -11 0 -63 65 -156 134 -191 76 -39 208 -21 255 36 17 20 31 21 31 2 0
-18 -44 -53 -89 -72 -49 -20 -157 -18 -206 5 -75 35 -123 95 -150 186 -11 37
-15 40 -54 43 -53 4 -53 20 0 24 39 3 43 6 54 43 27 91 75 151 150 186 49 23
157 25 206 5z m-619 -449 c15 -39 46 -96 68 -125 22 -29 40 -55 40 -57 0 -10
-330 -5 -357 6 -89 34 -115 138 -51 207 34 36 53 41 168 41 l105 1 27 -73z
m197 -252 c100 -72 207 -105 341 -105 44 0 80 -2 80 -5 0 -17 -33 -66 -56 -84
-26 -21 -35 -21 -505 -21 l-478 0 -35 34 c-31 29 -36 39 -36 81 0 53 20 94 59
118 22 14 65 17 303 17 l278 0 49 -35z m536 -288 c61 -61 53 -154 -17 -197
-32 -19 -49 -20 -499 -20 l-466 0 -34 23 c-39 26 -62 81 -52 128 3 17 20 46
38 65 l32 34 483 0 482 0 33 -33z m-186 -265 c93 -50 90 -188 -4 -228 -52 -21
-923 -21 -965 1 -97 50 -95 188 4 231 24 10 127 13 481 14 417 0 453 -1 484
-18z"/>
</g>
</svg>
