<?xml version="1.0" standalone="no"?>
<!DOCTYPE svg PUBLIC "-//W3C//DTD SVG 20010904//EN"
 "http://www.w3.org/TR/2001/REC-SVG-20010904/DTD/svg10.dtd">
<svg version="1.0" xmlns="http://www.w3.org/2000/svg"
 width="200.000000pt" height="200.000000pt" viewBox="0 0 200.000000 200.000000"
 preserveAspectRatio="xMidYMid meet">
<metadata>
Created by potrace 1.16, written by Peter Selinger 2001-2019
</metadata>
<g transform="translate(0.000000,200.000000) scale(0.100000,-0.100000)"
fill="#000000" stroke="none">
<path d="M837 1786 c-93 -34 -164 -118 -187 -219 -19 -86 22 -210 89 -269 37
-32 111 -68 142 -68 18 0 19 -8 19 -106 0 -94 -2 -105 -15 -94 -8 7 -15 27
-15 44 0 119 -95 215 -212 216 -61 0 -78 -17 -78 -78 1 -115 99 -212 217 -212
35 0 103 -64 103 -98 0 -21 -4 -22 -87 -22 -84 0 -94 -2 -235 -60 l-147 -60
-37 25 c-54 36 -113 34 -158 -5 -39 -34 -61 -88 -51 -122 14 -50 150 -375 168
-401 47 -69 147 -76 204 -13 22 24 33 46 33 66 0 36 1 37 185 14 71 -9 155
-14 185 -11 52 4 57 3 81 -27 l27 -31 333 -3 c231 -2 341 1 360 9 33 13 61 66
52 99 -10 38 -312 542 -339 568 -40 35 -108 24 -134 -22 -6 -11 -44 -46 -84
-77 l-72 -56 -17 28 c-19 34 -38 42 -134 59 -70 11 -73 13 -73 39 0 18 12 39
38 63 30 29 46 37 89 40 112 10 197 98 198 204 0 73 -15 88 -87 81 -114 -10
-188 -81 -196 -187 -3 -41 -10 -64 -23 -76 -19 -17 -19 -14 -19 94 0 109 1
112 23 112 41 0 122 47 164 94 124 140 82 363 -84 446 -58 30 -168 38 -226 16z
m188 -65 c91 -41 141 -127 133 -231 -5 -75 -42 -131 -113 -175 -110 -68 -261
-20 -321 103 -29 59 -25 146 9 204 30 51 79 95 124 108 48 14 126 10 168 -9z
m-288 -511 c41 -25 63 -59 70 -110 5 -36 3 -40 -15 -40 -39 0 -102 32 -123 62
-12 16 -23 47 -26 68 -6 40 -5 40 28 40 19 0 48 -9 66 -20z m493 -3 c0 -67
-77 -147 -142 -147 -25 0 -28 4 -28 33 0 67 70 137 138 137 27 0 32 -4 32 -23z
m372 -592 c120 -203 158 -274 150 -285 -8 -13 -56 -15 -338 -15 -321 0 -329 0
-332 20 -2 16 271 494 311 543 27 34 49 6 209 -263z m-592 191 c122 -19 146
-44 96 -103 -24 -28 -25 -28 -165 -31 -108 -3 -143 -7 -152 -18 -10 -12 -9
-18 2 -30 11 -11 45 -14 140 -15 108 -1 130 1 165 19 22 11 46 28 54 37 7 9
32 30 54 48 38 29 40 30 25 7 -8 -14 -56 -92 -104 -174 -101 -168 -111 -177
-217 -175 -35 0 -124 8 -198 17 l-135 17 -61 145 c-34 80 -59 148 -55 152 3 4
65 32 136 62 127 54 133 55 225 55 52 1 138 -6 190 -13z m-648 -68 c23 -18
170 -377 170 -413 -1 -49 -55 -79 -107 -59 -9 4 -24 23 -34 43 -30 58 -151
359 -151 374 0 8 9 26 21 41 23 29 73 36 101 14z"/>
<path d="M917 1713 c-4 -3 -7 -17 -7 -30 0 -17 -6 -23 -23 -23 -37 0 -57 -30
-57 -86 0 -27 4 -54 8 -61 11 -18 58 -33 103 -33 37 0 39 -2 39 -30 0 -29 -2
-30 -44 -30 -36 0 -46 4 -51 21 -10 32 -49 21 -53 -14 -4 -35 22 -67 54 -67
17 0 23 -6 26 -27 4 -41 36 -43 51 -4 7 18 19 31 29 31 26 0 48 40 48 90 0 71
-19 90 -91 90 -59 0 -59 0 -59 30 0 29 2 30 44 30 36 0 45 -4 49 -21 7 -24 34
-23 51 4 14 22 -11 71 -40 75 -11 2 -25 15 -31 32 -11 28 -31 38 -46 23z"/>
<path d="M1403 773 c-10 -3 -13 -45 -13 -159 0 -129 3 -156 15 -160 8 -4 22
-1 30 6 12 10 15 41 15 154 0 155 -6 176 -47 159z"/>
<path d="M1386 394 c-9 -25 16 -48 43 -39 16 5 21 13 19 28 -4 28 -52 36 -62
11z"/>
</g>
</svg>
