<?xml version="1.0" standalone="no"?>
<!DOCTYPE svg PUBLIC "-//W3C//DTD SVG 20010904//EN"
 "http://www.w3.org/TR/2001/REC-SVG-20010904/DTD/svg10.dtd">
<svg version="1.0" xmlns="http://www.w3.org/2000/svg"
 width="200.000000pt" height="200.000000pt" viewBox="0 0 200.000000 200.000000"
 preserveAspectRatio="xMidYMid meet">
<metadata>
Created by potrace 1.16, written by Peter Selinger 2001-2019
</metadata>
<g transform="translate(0.000000,200.000000) scale(0.100000,-0.100000)"
fill="#000000" stroke="none">
<path d="M824 1726 c-131 -61 -190 -227 -125 -353 28 -56 101 -119 153 -133
23 -7 49 -14 56 -16 9 -2 12 -35 12 -121 l0 -118 -27 27 c-20 20 -27 39 -29
72 -4 66 -36 121 -88 151 -54 31 -101 40 -138 26 -24 -9 -28 -16 -28 -51 0
-109 88 -199 195 -200 34 0 47 -7 78 -38 26 -27 37 -47 37 -68 l0 -31 -92 1
c-92 1 -95 0 -235 -58 l-142 -58 -31 26 c-63 53 -159 23 -180 -56 -12 -41 -10
-49 51 -198 85 -211 104 -247 139 -265 73 -38 156 1 169 81 5 26 12 38 21 37
149 -20 336 -32 367 -24 20 6 37 9 38 8 16 -41 33 -59 67 -68 25 -6 150 -9
333 -7 289 3 295 3 317 25 43 43 33 69 -135 349 -86 144 -163 264 -172 268
-37 14 -73 6 -97 -22 -12 -15 -56 -53 -96 -85 l-72 -58 -12 26 c-15 33 -49 51
-113 60 -81 11 -85 13 -85 49 0 48 62 106 115 106 60 0 123 36 157 89 24 39
28 55 26 101 -3 52 -4 55 -36 64 -44 12 -102 -6 -149 -47 -43 -38 -63 -82 -63
-140 0 -33 -6 -49 -25 -67 l-25 -23 0 121 c0 121 0 122 23 122 37 0 125 49
157 88 86 104 76 265 -22 359 -77 74 -197 94 -294 49z m134 -84 c2 -14 10 -22
22 -22 23 0 54 -44 46 -65 -8 -23 -25 -18 -36 11 -9 23 -14 25 -57 22 -48 -3
-48 -3 -51 -40 l-3 -38 60 0 c51 0 62 -3 75 -22 33 -47 10 -138 -35 -138 -14
0 -19 -7 -19 -25 0 -18 -5 -25 -20 -25 -14 0 -20 7 -20 23 0 17 -8 25 -32 32
-27 8 -34 16 -36 43 -2 24 1 32 12 32 9 0 16 -9 16 -20 0 -18 7 -20 55 -20
l55 0 0 40 0 40 -51 0 c-76 0 -89 11 -89 73 0 58 12 77 47 77 18 0 23 6 23 26
0 33 33 30 38 -4z m92 -823 c85 -18 106 -66 50 -113 -37 -31 -97 -41 -199 -32
-62 6 -80 4 -90 -8 -19 -23 -1 -27 126 -29 126 -2 143 3 198 53 17 14 52 44
80 66 l49 39 -21 -35 c-158 -268 -200 -334 -219 -347 -12 -7 -38 -16 -57 -20
-42 -6 -357 26 -373 39 -13 9 -129 287 -123 292 6 4 230 97 259 107 31 11 254
2 320 -12z m380 -4 c20 -24 6 -303 -15 -324 -12 -12 -20 -13 -33 -5 -14 9 -18
36 -26 164 -8 143 -8 154 9 167 25 17 50 17 65 -2z m-5 -415 c0 -20 -6 -26
-26 -28 -17 -2 -29 3 -32 12 -11 28 4 47 32 44 20 -2 26 -8 26 -28z"/>
</g>
</svg>
