<?xml version="1.0" standalone="no"?>
<!DOCTYPE svg PUBLIC "-//W3C//DTD SVG 20010904//EN"
 "http://www.w3.org/TR/2001/REC-SVG-20010904/DTD/svg10.dtd">
<svg version="1.0" xmlns="http://www.w3.org/2000/svg"
 width="200.000000pt" height="200.000000pt" viewBox="0 0 200.000000 200.000000"
 preserveAspectRatio="xMidYMid meet">
<metadata>
Created by potrace 1.16, written by Peter Selinger 2001-2019
</metadata>
<g transform="translate(0.000000,200.000000) scale(0.100000,-0.100000)"
fill="#000000" stroke="none">
<path d="M933 1854 c-80 -16 -136 -46 -188 -100 -171 -175 -121 -464 98 -574
33 -16 68 -30 79 -30 15 0 18 -8 18 -53 0 -46 4 -57 30 -82 l30 -29 30 29 c26
25 30 36 30 80 l0 52 43 12 c131 39 225 149 250 295 13 79 -8 175 -54 248 -78
121 -223 181 -366 152z m112 -94 c10 -11 29 -20 43 -20 56 0 81 -61 42 -100
-16 -16 -33 -20 -84 -20 -47 0 -65 -4 -70 -15 -7 -18 19 -45 45 -45 48 0 99
-43 119 -101 19 -55 6 -105 -43 -157 -23 -24 -50 -53 -59 -63 -23 -24 -53 -24
-77 0 -10 10 -35 21 -55 25 -42 8 -62 39 -52 81 8 32 40 45 112 45 51 0 54 1
54 25 0 18 -5 25 -20 25 -43 0 -96 31 -123 72 -46 71 -34 139 34 205 19 18 40
39 47 47 18 22 65 20 87 -4z"/>
<path d="M700 943 c0 -81 39 -149 108 -190 39 -23 45 -24 92 -13 48 12 50 13
50 48 0 96 -88 183 -192 190 l-58 4 0 -39z"/>
<path d="M1161 957 c-24 -12 -54 -36 -68 -53 -22 -29 -23 -37 -16 -95 7 -57
11 -63 36 -72 23 -7 38 -4 75 15 67 34 105 92 110 168 l4 60 -48 0 c-31 0 -65
-9 -93 -23z"/>
<path d="M904 606 c-29 -13 -64 -40 -79 -60 -34 -45 -56 -123 -48 -171 16 -97
-104 -121 -124 -24 -6 32 -13 35 -46 18 -37 -19 -68 -52 -83 -88 -18 -43 -18
-73 0 -116 l15 -35 461 0 461 0 15 35 c20 48 17 83 -9 130 -22 39 -78 85 -102
85 -7 0 -16 -12 -20 -27 -9 -40 -34 -63 -65 -63 -44 0 -58 26 -62 117 -3 71
-7 87 -33 124 -39 56 -120 99 -184 99 -27 0 -67 -10 -97 -24z"/>
</g>
</svg>
