<?xml version="1.0" standalone="no"?>
<!DOCTYPE svg PUBLIC "-//W3C//DTD SVG 20010904//EN"
 "http://www.w3.org/TR/2001/REC-SVG-20010904/DTD/svg10.dtd">
<svg version="1.0" xmlns="http://www.w3.org/2000/svg"
 width="200.000000pt" height="200.000000pt" viewBox="0 0 200.000000 200.000000"
 preserveAspectRatio="xMidYMid meet">
<metadata>
Created by potrace 1.16, written by Peter Selinger 2001-2019
</metadata>
<g transform="translate(0.000000,200.000000) scale(0.100000,-0.100000)"
fill="#000000" stroke="none">
<path d="M852 1900 c-107 -39 -199 -132 -237 -240 -25 -70 -30 -175 -11 -247
22 -88 50 -139 110 -198 54 -54 103 -82 176 -100 37 -10 46 -16 48 -38 l3 -27
-53 25 c-40 19 -70 25 -123 25 -131 0 -171 -45 -162 -180 5 -86 34 -148 97
-211 46 -46 50 -53 37 -68 -8 -9 -24 -35 -35 -57 -19 -37 -26 -42 -66 -48
-110 -17 -216 -147 -216 -267 0 -50 31 -128 64 -164 l33 -35 483 0 482 0 30
33 c43 45 61 93 61 162 1 131 -94 253 -209 271 -40 6 -47 11 -66 48 -11 22
-27 49 -35 58 -13 15 -10 22 40 71 74 74 101 144 95 244 -6 89 -24 118 -80
134 -61 16 -164 7 -216 -20 l-43 -22 3 28 c2 22 10 29 43 39 263 75 378 345
254 592 -35 70 -105 139 -180 178 -48 24 -67 28 -164 31 -90 2 -120 -1 -163
-17z m273 -127 c135 -71 197 -245 134 -378 -29 -61 -87 -121 -142 -146 -52
-23 -156 -25 -219 -3 -153 52 -228 246 -154 398 31 63 81 110 147 138 59 25
177 20 234 -9z m-285 -815 c59 -31 101 -85 107 -140 l5 -43 -43 -12 c-37 -10
-48 -9 -80 8 -21 10 -49 34 -63 52 -28 37 -52 116 -43 140 9 24 64 21 117 -5z
m433 -32 c-2 -63 -42 -123 -101 -153 -64 -32 -85 -21 -96 51 -8 55 -7 59 20
88 44 46 98 68 154 65 23 -2 25 -5 23 -51z m-187 -295 c80 -36 129 -130 117
-223 -9 -69 64 -105 106 -52 12 15 21 33 21 40 0 37 80 -9 103 -59 19 -40 22
-89 7 -118 -10 -18 -26 -19 -440 -19 -414 0 -430 1 -440 19 -14 28 -13 76 4
116 21 49 106 98 106 61 0 -7 9 -25 21 -40 42 -53 115 -17 106 52 -22 166 140
291 289 223z"/>
<path d="M931 1733 c-59 -59 -71 -80 -71 -133 0 -73 38 -123 112 -144 64 -19
56 -40 -17 -44 -70 -4 -95 -21 -95 -67 0 -37 12 -50 57 -59 17 -4 37 -14 44
-22 15 -19 65 -18 81 2 7 9 27 30 44 47 43 43 54 68 54 118 0 73 -50 126 -133
144 -20 4 -27 11 -25 23 3 13 17 18 71 22 73 5 87 15 87 62 0 32 -23 58 -52
58 -11 0 -31 9 -45 20 -38 30 -57 25 -112 -27z"/>
</g>
</svg>
