<?xml version="1.0" standalone="no"?>
<!DOCTYPE svg PUBLIC "-//W3C//DTD SVG 20010904//EN"
 "http://www.w3.org/TR/2001/REC-SVG-20010904/DTD/svg10.dtd">
<svg version="1.0" xmlns="http://www.w3.org/2000/svg"
 width="200.000000pt" height="200.000000pt" viewBox="0 0 200.000000 200.000000"
 preserveAspectRatio="xMidYMid meet">
<metadata>
Created by potrace 1.16, written by Peter Selinger 2001-2019
</metadata>
<g transform="translate(0.000000,200.000000) scale(0.100000,-0.100000)"
fill="#000000" stroke="none">
<path d="M906 1890 c-63 -16 -153 -70 -197 -117 -22 -24 -55 -74 -72 -111 -29
-61 -32 -76 -32 -162 0 -86 3 -102 31 -161 62 -129 153 -202 297 -233 27 -6
27 -7 27 -91 l0 -85 -52 29 c-29 16 -78 34 -108 41 -52 10 -57 14 -95 73 -53
80 -114 119 -195 125 -69 5 -113 -8 -202 -60 l-68 -39 30 -52 c82 -144 144
-191 256 -192 51 0 73 6 137 38 l75 39 58 -13 c62 -14 114 -51 140 -100 30
-59 35 -58 -216 -61 l-230 -3 -32 -33 c-28 -28 -33 -39 -33 -82 0 -40 5 -54
29 -79 17 -17 35 -31 40 -31 28 -1 39 -29 82 -211 25 -106 51 -200 56 -206 8
-10 94 -13 368 -13 274 0 360 3 368 13 6 6 31 100 56 207 44 182 54 209 82
210 5 0 23 14 40 31 24 25 29 39 29 79 0 43 -5 54 -33 82 l-32 33 -230 3
c-251 3 -246 2 -216 61 26 50 78 87 142 100 59 12 60 12 126 -23 86 -45 139
-53 213 -31 70 20 134 81 182 173 l32 62 -62 36 c-81 48 -129 64 -189 64 -91
0 -170 -49 -219 -135 -29 -52 -33 -54 -87 -65 -31 -7 -81 -25 -109 -41 l-53
-29 0 85 0 84 43 11 c138 36 221 103 281 230 28 59 31 74 31 161 0 90 -3 100
-38 172 -67 135 -188 216 -335 223 -42 2 -94 -1 -116 -6z m184 -86 c95 -28
158 -85 203 -182 33 -70 30 -189 -5 -257 -70 -136 -204 -204 -349 -177 -113
21 -212 109 -245 220 -73 242 153 468 396 396z m-532 -698 c31 -17 74 -61 92
-95 11 -21 10 -26 -11 -42 -42 -31 -104 -44 -152 -30 -45 14 -100 60 -123 103
-15 29 -14 31 51 66 28 16 111 15 143 -2z m1035 -2 c55 -28 58 -33 43 -63 -55
-104 -189 -139 -275 -73 -22 18 -22 20 -8 48 16 31 59 74 92 92 30 17 112 14
148 -4z m-99 -446 c8 -13 8 -23 0 -35 -10 -17 -46 -18 -489 -21 -492 -2 -505
-1 -505 37 0 41 5 41 504 39 443 -3 480 -4 490 -20z m-108 -155 c-3 -10 -22
-87 -42 -170 l-36 -153 -308 0 -308 0 -36 153 c-20 83 -39 160 -42 170 -5 16
18 17 386 17 368 0 391 -1 386 -17z"/>
<path d="M960 1721 c0 -10 -19 -37 -41 -60 -39 -39 -41 -44 -36 -87 6 -56 45
-101 96 -110 20 -4 42 -11 49 -17 21 -16 14 -47 -14 -59 -23 -11 -29 -10 -44
10 -13 15 -29 22 -55 22 -35 0 -37 -1 -31 -27 4 -16 22 -43 41 -61 19 -18 35
-41 35 -52 0 -17 7 -20 40 -20 34 0 40 3 40 21 0 13 16 36 38 54 34 30 37 37
37 83 0 42 -5 56 -29 81 -18 18 -45 34 -69 38 -47 10 -67 34 -51 61 16 25 51
27 66 3 9 -15 23 -21 51 -21 38 0 39 1 33 28 -4 15 -22 42 -41 60 -19 18 -35
41 -35 52 0 17 -7 20 -40 20 -32 0 -40 -4 -40 -19z"/>
</g>
</svg>
