<?xml version="1.0" standalone="no"?>
<!DOCTYPE svg PUBLIC "-//W3C//DTD SVG 20010904//EN"
 "http://www.w3.org/TR/2001/REC-SVG-20010904/DTD/svg10.dtd">
<svg version="1.0" xmlns="http://www.w3.org/2000/svg"
 width="200.000000pt" height="200.000000pt" viewBox="0 0 200.000000 200.000000"
 preserveAspectRatio="xMidYMid meet">
<metadata>
Created by potrace 1.16, written by Peter Selinger 2001-2019
</metadata>
<g transform="translate(0.000000,200.000000) scale(0.100000,-0.100000)"
fill="#000000" stroke="none">
<path d="M1162 1848 c-6 -6 -12 -19 -12 -28 0 -12 -15 -19 -52 -26 -67 -12
-76 -26 -60 -104 7 -34 17 -73 22 -86 l10 -24 184 0 185 0 16 58 c37 127 30
149 -52 159 -47 5 -52 8 -55 32 -3 26 -5 26 -88 29 -58 2 -89 -1 -98 -10z"/>
<path d="M1085 1450 c-16 -5 -36 -17 -42 -27 -21 -28 -16 -77 10 -101 22 -21
32 -22 201 -22 175 0 177 0 201 25 32 31 32 66 1 102 l-24 28 -159 2 c-87 1
-171 -2 -188 -7z"/>
<path d="M896 1196 c-33 -50 -76 -137 -76 -155 0 -4 36 -18 80 -30 44 -12 170
-51 280 -87 219 -71 258 -93 291 -169 l18 -41 98 48 c54 26 104 48 111 48 18
0 16 128 -4 203 -18 69 -42 121 -87 189 -33 49 -51 59 -60 34 -3 -7 -25 -23
-49 -35 -41 -19 -61 -21 -247 -21 -180 0 -206 2 -240 19 -20 11 -43 27 -50 35
-20 24 -26 21 -65 -38z"/>
<path d="M657 910 c-48 -12 -60 -18 -309 -158 -151 -84 -208 -121 -208 -134 0
-26 250 -448 265 -448 7 0 37 11 66 24 67 31 178 49 244 41 28 -4 101 -27 164
-52 105 -41 120 -45 187 -41 64 3 85 9 171 54 258 133 590 317 606 335 20 25
23 96 4 120 -26 33 -66 52 -100 45 -49 -10 -289 -135 -310 -163 -10 -13 -36
-32 -56 -42 -73 -38 -95 -36 -292 18 -228 64 -238 68 -245 98 -9 33 10 71 38
78 13 3 99 -16 198 -45 96 -27 189 -50 206 -50 42 0 74 36 74 82 0 64 -15 72
-290 158 -261 82 -342 97 -413 80z"/>
</g>
</svg>
