<?xml version="1.0" standalone="no"?>
<!DOCTYPE svg PUBLIC "-//W3C//DTD SVG 20010904//EN"
 "http://www.w3.org/TR/2001/REC-SVG-20010904/DTD/svg10.dtd">
<svg version="1.0" xmlns="http://www.w3.org/2000/svg"
 width="200.000000pt" height="200.000000pt" viewBox="0 0 200.000000 200.000000"
 preserveAspectRatio="xMidYMid meet">
<metadata>
Created by potrace 1.16, written by Peter Selinger 2001-2019
</metadata>
<g transform="translate(0.000000,200.000000) scale(0.100000,-0.100000)"
fill="#000000" stroke="none">
<path d="M875 1964 c-228 -48 -411 -223 -470 -449 -19 -76 -19 -223 0 -300 51
-202 205 -368 402 -434 34 -12 76 -21 93 -21 l30 0 0 -380 0 -380 70 0 70 0 0
380 0 380 29 0 c41 0 167 46 223 82 l47 30 -40 53 -41 54 -51 -29 c-76 -42
-150 -60 -243 -60 -235 0 -425 166 -466 406 -51 305 236 588 545 536 323 -54
500 -407 347 -689 -16 -31 -30 -60 -30 -64 0 -4 23 -24 51 -44 58 -43 57 -44
109 60 80 161 81 356 4 524 -82 178 -244 306 -436 345 -93 19 -151 19 -243 0z"/>
<path d="M930 1691 c0 -31 -4 -41 -20 -46 -30 -9 -79 -53 -95 -86 -8 -15 -15
-51 -15 -80 0 -104 68 -171 188 -185 53 -6 65 -11 74 -30 16 -35 -5 -54 -59
-54 -38 0 -46 4 -61 30 -16 28 -21 30 -79 30 -61 0 -63 -1 -63 -25 0 -50 50
-124 103 -151 22 -12 27 -21 27 -54 l0 -40 70 0 70 0 0 40 c0 28 4 40 15 40
20 0 83 57 101 91 18 36 18 122 0 157 -19 36 -65 78 -99 91 -16 6 -50 11 -76
11 -62 0 -91 26 -73 66 11 22 17 25 54 22 36 -2 46 -8 63 -35 19 -31 23 -32
83 -33 61 0 62 0 62 28 -1 43 -35 107 -72 136 -19 14 -40 26 -46 26 -7 0 -12
18 -12 45 l0 45 -70 0 -70 0 0 -39z"/>
<path d="M335 772 c-80 -27 -144 -70 -222 -147 -73 -71 -73 -71 -73 -125 l0
-55 81 -77 c108 -104 198 -150 308 -156 54 -3 95 1 134 12 72 21 191 101 256
172 47 51 51 60 51 104 0 44 -4 53 -51 104 -63 69 -183 150 -251 171 -68 20
-171 19 -233 -3z"/>
<path d="M1435 776 c-86 -27 -191 -100 -264 -182 -36 -41 -41 -53 -41 -95 0
-43 5 -52 51 -103 65 -71 184 -151 256 -172 80 -23 191 -15 266 19 68 31 156
97 215 160 38 42 42 51 42 97 0 48 -3 55 -52 106 -66 70 -183 149 -250 169
-62 18 -168 19 -223 1z"/>
</g>
</svg>
