<?xml version="1.0" standalone="no"?>
<!DOCTYPE svg PUBLIC "-//W3C//DTD SVG 20010904//EN"
 "http://www.w3.org/TR/2001/REC-SVG-20010904/DTD/svg10.dtd">
<svg version="1.0" xmlns="http://www.w3.org/2000/svg"
 width="200.000000pt" height="200.000000pt" viewBox="0 0 200.000000 200.000000"
 preserveAspectRatio="xMidYMid meet">
<metadata>
Created by potrace 1.16, written by Peter Selinger 2001-2019
</metadata>
<g transform="translate(0.000000,200.000000) scale(0.100000,-0.100000)"
fill="#000000" stroke="none">
<path d="M770 1801 c-19 -4 -45 -14 -57 -21 -34 -22 -63 -82 -63 -133 l0 -46
-276 -3 -276 -3 -19 -24 c-17 -21 -19 -41 -19 -232 0 -233 7 -267 60 -297 l30
-17 0 -358 c0 -402 1 -407 69 -449 l36 -23 745 0 c705 0 747 1 775 18 17 10
39 31 50 45 19 26 20 45 23 397 l3 370 30 17 c52 30 59 64 59 297 0 191 -2
211 -19 232 l-19 24 -276 3 -276 3 0 45 c0 79 -44 136 -120 153 -50 12 -405
13 -460 2z m454 -137 c3 -9 6 -27 6 -40 l0 -24 -230 0 -230 0 0 33 c0 19 3 37
7 40 3 4 104 7 224 7 188 0 218 -2 223 -16z m584 -356 l-3 -162 -275 -58
c-201 -42 -278 -62 -287 -75 -22 -28 -16 -71 12 -89 23 -15 36 -13 227 26 112
22 211 43 221 46 16 5 17 -16 17 -335 l0 -341 -720 0 -720 0 0 341 c0 319 1
340 18 335 9 -3 108 -24 220 -46 191 -39 204 -41 227 -26 28 18 34 60 12 89
-9 13 -88 33 -287 75 l-275 58 -3 162 -2 162 810 0 810 0 -2 -162z"/>
<path d="M970 1367 c-19 -10 -26 -22 -30 -55 -4 -34 -11 -46 -37 -62 -69 -41
-93 -149 -50 -225 24 -44 92 -85 139 -85 32 0 62 -37 52 -64 -18 -46 -78 -38
-90 12 -14 59 -72 83 -107 44 -38 -42 -4 -147 59 -184 27 -16 34 -26 34 -52 0
-45 21 -69 60 -69 40 0 60 24 60 70 0 26 6 36 30 48 40 21 80 92 80 141 -1 52
-31 116 -67 142 -27 19 -41 24 -110 38 -34 7 -48 40 -28 70 8 13 24 24 35 24
21 0 50 -35 50 -61 0 -43 73 -65 103 -31 38 42 -1 155 -63 187 -24 12 -30 22
-30 48 0 58 -42 88 -90 64z"/>
</g>
</svg>
