<?xml version="1.0" standalone="no"?>
<!DOCTYPE svg PUBLIC "-//W3C//DTD SVG 20010904//EN"
 "http://www.w3.org/TR/2001/REC-SVG-20010904/DTD/svg10.dtd">
<svg version="1.0" xmlns="http://www.w3.org/2000/svg"
 width="200.000000pt" height="200.000000pt" viewBox="0 0 200.000000 200.000000"
 preserveAspectRatio="xMidYMid meet">
<metadata>
Created by potrace 1.16, written by Peter Selinger 2001-2019
</metadata>
<g transform="translate(0.000000,200.000000) scale(0.100000,-0.100000)"
fill="#000000" stroke="none">
<path d="M901 1887 c-30 -15 -46 -40 -38 -60 7 -20 79 -32 106 -17 17 9 22 8
27 -5 5 -12 9 -13 20 -4 25 20 29 0 6 -24 -18 -17 -24 -19 -31 -9 -5 8 -31 15
-65 16 -57 3 -57 3 -51 -23 13 -53 55 -111 92 -126 67 -28 78 -28 90 -2 6 13
21 27 32 30 28 7 37 -10 11 -18 -12 -4 -23 -18 -26 -34 -6 -27 -7 -28 -50 -18
-56 13 -69 2 -117 -96 -53 -108 -54 -115 -17 -128 17 -6 37 -24 46 -40 l15
-30 30 22 c24 17 32 19 45 8 26 -21 12 -43 -29 -44 -40 -2 -58 -12 -40 -23 6
-4 14 -27 17 -52 l7 -45 -26 43 c-19 30 -32 42 -44 39 -9 -3 -60 -17 -113 -33
-86 -24 -98 -30 -98 -50 0 -20 3 -21 41 -13 69 16 109 -9 109 -66 0 -38 -28
-65 -70 -65 -14 0 -32 -4 -40 -10 -12 -8 -12 -10 3 -16 10 -3 63 6 120 22 109
30 155 60 142 92 -18 43 -17 52 3 52 11 0 28 12 37 27 17 26 18 26 26 7 7 -19
12 -20 70 -12 105 14 206 49 223 77 4 5 -3 39 -15 75 l-22 66 -23 -34 c-16
-23 -52 -48 -113 -80 -49 -25 -94 -46 -100 -46 -25 0 -8 17 40 41 l51 25 -20
24 -21 25 -33 -32 c-19 -18 -40 -33 -48 -33 -8 0 27 40 77 88 l93 87 -11 54
c-9 49 -7 72 6 59 3 -3 10 -33 16 -67 l11 -61 -43 -39 c-41 -36 -43 -40 -31
-65 6 -14 19 -26 28 -26 24 0 72 38 90 71 8 16 19 27 24 24 13 -8 23 78 16
133 -18 122 -45 144 -184 146 -80 1 -84 2 -98 28 -9 17 -10 29 -4 33 13 8 13
55 0 55 -5 0 -10 11 -10 24 0 52 -82 83 -139 53z m119 -211 c0 -16 -24 -38
-33 -30 -7 7 14 44 25 44 5 0 8 -6 8 -14z"/>
<path d="M756 1365 c-8 -9 -13 -21 -11 -28 3 -7 -10 -19 -27 -27 -17 -8 -36
-22 -41 -31 -13 -22 0 -69 19 -69 9 0 65 14 125 32 107 31 110 33 104 58 -11
42 -25 52 -71 48 -32 -2 -45 1 -53 14 -14 22 -25 23 -45 3z"/>
<path d="M1356 1224 c-34 -24 -120 -52 -195 -63 -40 -5 -75 -12 -79 -15 -8 -9
17 -330 33 -421 9 -51 14 -152 15 -277 l0 -198 23 -6 c13 -3 41 -4 63 -2 l39
3 7 260 c7 263 13 335 27 319 5 -5 21 -40 36 -79 15 -38 39 -92 53 -120 32
-64 211 -335 221 -335 4 0 23 19 41 42 l33 41 -23 68 c-13 38 -51 124 -85 192
-49 97 -64 138 -70 188 -3 35 -21 114 -38 174 l-32 110 -52 0 c-44 0 -57 5
-80 27 -36 36 -22 48 17 14 32 -26 64 -33 88 -18 9 7 8 19 -5 59 -17 48 -19
51 -37 37z m-86 -304 c21 -42 25 -60 12 -60 -7 0 -52 82 -52 95 0 3 4 5 10 5
5 0 19 -18 30 -40z"/>
<path d="M662 1113 l-123 -26 7 -31 c3 -17 7 -32 9 -34 6 -7 252 21 263 30 19
16 15 66 -7 78 -11 5 -21 10 -23 9 -2 -1 -58 -13 -126 -26z"/>
<path d="M449 1079 c-16 -30 4 -95 32 -104 33 -11 52 13 46 57 -3 22 -11 45
-17 53 -18 22 -48 18 -61 -6z"/>
<path d="M344 1031 c-17 -10 -38 -34 -47 -54 -19 -38 -23 -107 -7 -107 6 0 10
16 10 35 0 48 24 91 60 110 17 9 30 20 30 25 0 14 -11 12 -46 -9z"/>
<path d="M361 956 c-22 -35 -30 -136 -11 -136 6 0 10 22 10 49 0 38 6 56 25
79 29 34 31 42 11 42 -8 0 -24 -15 -35 -34z"/>
<path d="M445 927 c-7 -26 8 -71 26 -83 9 -5 10 -1 4 17 -4 13 -7 39 -7 57 1
37 -15 43 -23 9z"/>
<path d="M391 793 c-126 -63 -68 -249 72 -230 81 11 130 103 93 175 -31 60
-105 85 -165 55z m81 -40 c22 -20 24 -37 3 -29 -22 8 -19 -20 5 -44 26 -26 25
-36 -7 -66 l-26 -24 -24 22 c-26 24 -31 43 -8 34 10 -4 15 1 15 14 0 11 -4 20
-10 20 -5 0 -15 10 -21 22 -10 19 -8 25 15 45 32 27 34 28 58 6z"/>
<path d="M421 714 c0 -11 3 -14 6 -6 3 7 2 16 -1 19 -3 4 -6 -2 -5 -13z"/>
<path d="M714 796 c-48 -21 -74 -61 -74 -115 0 -53 18 -84 60 -106 57 -29 130
-12 164 39 23 37 21 107 -6 141 -21 26 -74 55 -100 55 -7 -1 -27 -7 -44 -14z
m74 -46 c27 -26 28 -34 2 -27 -14 4 -20 0 -20 -12 0 -9 9 -22 20 -29 27 -17
25 -44 -5 -70 l-26 -22 -26 24 c-28 26 -26 49 2 26 13 -11 15 -9 15 13 0 16
-7 26 -20 30 -28 7 -26 50 3 70 29 21 29 21 55 -3z"/>
<path d="M735 721 c-3 -5 -1 -12 5 -16 5 -3 10 1 10 9 0 18 -6 21 -15 7z"/>
<path d="M770 650 c0 -19 3 -21 12 -12 9 9 9 15 0 24 -9 9 -12 7 -12 -12z"/>
<path d="M343 543 c-36 -14 21 -103 66 -103 17 0 21 -6 21 -36 0 -20 -3 -34
-7 -32 -5 2 -20 10 -35 17 -55 28 -78 -14 -34 -62 13 -14 36 -29 50 -33 19 -4
26 -13 26 -31 0 -14 -3 -23 -7 -21 -5 2 -20 10 -35 17 -55 28 -78 -14 -34 -62
13 -14 36 -29 50 -33 17 -4 26 -13 26 -25 0 -17 -9 -19 -110 -19 -67 0 -110
-4 -110 -10 0 -7 270 -10 790 -10 520 0 790 3 790 10 0 6 -25 10 -55 10 -30 0
-55 3 -55 6 0 3 16 37 36 75 33 63 39 99 16 99 -5 0 -26 -40 -46 -90 -21 -49
-42 -90 -48 -90 -12 0 -4 24 33 108 39 86 38 100 -6 65 -37 -30 -46 -47 -18
-36 13 5 15 2 10 -11 -4 -10 -7 -22 -7 -27 0 -5 -8 -9 -17 -10 -17 0 -17 -1 0
-7 16 -7 14 -10 -13 -30 -16 -12 -30 -29 -30 -36 0 -11 -71 -14 -410 -13
l-410 1 0 51 c0 49 1 51 36 64 37 13 76 64 67 87 -8 21 -47 17 -77 -7 l-26
-20 0 38 c0 35 4 39 39 54 44 19 75 58 65 83 -8 21 -32 20 -71 -4 l-33 -20 0
45 c0 25 -4 45 -10 45 -5 0 -10 -6 -10 -14 0 -11 -9 -9 -40 7 -37 21 -40 21
-57 5 -16 -17 -16 -19 3 -45 11 -16 37 -36 57 -46 32 -16 37 -23 37 -54 0 -34
-1 -35 -17 -21 -43 37 -97 29 -86 -12 7 -26 59 -70 84 -70 14 0 19 -7 19 -30
l0 -29 -35 20 c-41 25 -65 19 -65 -15 0 -28 51 -76 81 -76 12 0 19 -7 19 -20
0 -19 -7 -20 -150 -20 l-150 0 0 55 c0 49 2 55 21 55 27 0 92 64 87 87 -4 24
-43 28 -73 9 -33 -22 -35 -21 -35 14 0 24 6 33 28 41 37 14 82 59 82 81 0 27
-27 33 -66 15 l-34 -17 0 35 c0 37 -16 56 -26 30 -6 -14 -9 -14 -23 -2 -20 18
-52 27 -68 20z"/>
<path d="M1143 224 c-7 -3 -9 -12 -6 -20 6 -17 -8 -18 -26 -1 -11 10 -12 8 -6
-11 6 -22 5 -23 -17 -11 -21 11 -22 11 -9 -4 16 -20 8 -22 -18 -5 -20 12 -51
5 -51 -12 0 -6 47 -10 130 -10 72 0 130 2 130 5 0 2 -8 20 -17 40 -15 32 -20
35 -57 34 -23 0 -46 -3 -53 -5z"/>
</g>
</svg>
