<?xml version="1.0" standalone="no"?>
<!DOCTYPE svg PUBLIC "-//W3C//DTD SVG 20010904//EN"
 "http://www.w3.org/TR/2001/REC-SVG-20010904/DTD/svg10.dtd">
<svg version="1.0" xmlns="http://www.w3.org/2000/svg"
 width="200.000000pt" height="200.000000pt" viewBox="0 0 200.000000 200.000000"
 preserveAspectRatio="xMidYMid meet">
<metadata>
Created by potrace 1.16, written by Peter Selinger 2001-2019
</metadata>
<g transform="translate(0.000000,200.000000) scale(0.100000,-0.100000)"
fill="#000000" stroke="none">
<path d="M1335 1790 c-119 -120 -138 -143 -129 -158 8 -12 27 -18 73 -20 l61
-3 0 -194 c0 -182 1 -195 19 -205 25 -13 237 -13 262 0 18 10 19 23 19 205 l0
194 61 3 c46 2 65 8 73 20 9 15 -10 38 -129 158 -77 77 -147 140 -155 140 -8
0 -78 -63 -155 -140z m242 -22 l83 -83 -37 -10 -38 -11 -3 -197 -2 -197 -90 0
-90 0 0 195 c0 182 -1 195 -19 205 -11 5 -30 10 -43 10 -19 0 -8 14 62 85 47
47 87 85 90 85 2 0 42 -37 87 -82z"/>
<path d="M612 1557 c-163 -163 -169 -187 -51 -187 l49 0 0 -184 c0 -101 3
-191 6 -200 9 -24 289 -24 298 0 3 9 6 99 6 200 l0 184 49 0 c119 0 112 24
-52 188 -81 81 -140 132 -152 132 -13 0 -71 -51 -153 -133z m292 -118 c-20 -3
-40 -12 -45 -20 -5 -8 -9 -98 -9 -201 l0 -188 -85 0 -85 0 0 189 c0 210 -3
221 -63 221 -31 0 -30 1 58 90 l90 90 88 -87 88 -88 -37 -6z"/>
<path d="M196 1129 c-37 -20 -38 -22 -32 -61 8 -50 -13 -88 -49 -88 -27 0 -45
-25 -45 -65 0 -37 17 -65 40 -65 11 0 29 -9 40 -20 16 -16 19 -28 14 -63 -6
-42 -5 -44 30 -65 45 -27 51 -27 73 -3 31 34 66 36 101 6 36 -30 55 -28 96 10
22 20 24 28 16 49 -14 39 3 75 40 83 36 7 50 28 50 76 0 38 -13 53 -50 59 -31
4 -54 47 -42 80 13 33 5 46 -39 69 l-40 20 -30 -26 c-38 -31 -60 -32 -97 0
-35 29 -28 29 -76 4z m171 -144 c75 -52 21 -169 -69 -150 -69 16 -80 129 -15
155 33 13 60 12 84 -5z"/>
<path d="M1299 987 c-144 -52 -251 -163 -298 -309 l-13 -38 -277 0 c-206 0
-282 -3 -294 -13 -16 -11 -17 -35 -15 -252 l3 -240 415 -5 c410 -5 416 -5 465
-29 68 -32 196 -40 284 -17 177 45 319 199 352 381 21 113 -14 256 -85 353
-56 76 -96 108 -186 151 -69 33 -83 36 -180 39 -90 2 -114 -1 -171 -21z m189
-179 l3 -47 67 -3 c64 -3 67 -4 67 -28 l0 -25 -130 -3 c-141 -3 -165 -12 -165
-60 0 -51 24 -62 130 -62 84 0 101 -3 131 -23 39 -26 59 -60 59 -100 0 -65
-62 -127 -127 -127 -32 0 -33 -2 -33 -39 0 -41 -20 -67 -45 -57 -10 4 -15 19
-15 51 l0 45 -64 0 c-66 0 -92 13 -80 43 4 13 29 16 136 19 122 3 131 4 149
27 25 31 24 47 -6 76 -22 23 -31 25 -124 25 -92 0 -102 2 -130 25 -86 73 -47
202 67 215 45 5 47 6 50 40 4 52 10 62 34 58 20 -3 23 -10 26 -50z m-505 -301
c3 -34 9 -70 13 -80 6 -16 -10 -17 -262 -15 l-269 3 -3 78 -3 77 259 0 259 0
6 -63z m51 -185 c8 -16 33 -52 56 -80 l40 -52 -335 0 -335 0 0 80 0 80 280 0
279 0 15 -28z"/>
</g>
</svg>
