<?xml version="1.0" standalone="no"?>
<!DOCTYPE svg PUBLIC "-//W3C//DTD SVG 20010904//EN"
 "http://www.w3.org/TR/2001/REC-SVG-20010904/DTD/svg10.dtd">
<svg version="1.0" xmlns="http://www.w3.org/2000/svg"
 width="200.000000pt" height="200.000000pt" viewBox="0 0 200.000000 200.000000"
 preserveAspectRatio="xMidYMid meet">
<metadata>
Created by potrace 1.16, written by Peter Selinger 2001-2019
</metadata>
<g transform="translate(0.000000,200.000000) scale(0.100000,-0.100000)"
fill="#000000" stroke="none">
<path d="M315 1853 c-140 -61 -218 -169 -219 -303 0 -81 15 -133 56 -194 67
-102 170 -151 302 -144 98 6 154 30 219 95 73 73 92 120 92 233 0 83 -4 101
-27 145 -33 64 -90 120 -153 153 -66 34 -208 42 -270 15z m230 -62 c101 -46
156 -125 163 -235 3 -58 0 -82 -15 -117 -48 -109 -140 -169 -257 -169 -117 1
-201 52 -253 154 -30 59 -35 160 -11 217 24 55 87 119 143 145 64 30 170 33
230 5z"/>
<path d="M384 1720 c-39 -25 -58 -69 -51 -115 5 -29 3 -35 -12 -35 -24 0 -43
-23 -35 -44 4 -11 18 -16 46 -16 40 0 40 0 34 -32 -3 -17 -17 -46 -31 -64 -29
-39 -29 -38 -9 -58 12 -13 39 -16 128 -16 118 0 144 9 130 44 -5 13 -22 16
-94 16 l-88 0 14 38 c7 20 13 45 14 54 0 13 11 18 43 20 37 3 42 6 42 28 0 23
-4 25 -50 28 -72 4 -99 48 -55 92 30 30 59 25 100 -20 20 -22 44 -40 52 -40
46 0 12 83 -48 117 -48 28 -90 29 -130 3z"/>
<path d="M1419 1811 l-29 -29 0 -691 0 -691 -95 0 -94 0 -3 508 c-3 546 -2
537 -55 561 -13 6 -69 11 -124 11 -116 0 -151 -13 -168 -61 -7 -22 -11 -190
-11 -525 l0 -494 -95 0 -95 0 0 331 0 331 -30 30 -30 30 -121 -4 c-118 -3
-121 -4 -145 -31 l-24 -28 0 -328 0 -329 -66 -4 c-95 -6 -107 -22 -102 -145 2
-72 7 -96 21 -110 17 -17 65 -18 868 -18 l851 0 20 25 c17 21 19 36 16 117 -4
115 -12 125 -103 131 l-65 4 0 690 0 690 -29 29 c-29 29 -31 29 -146 29 -115
0 -117 0 -146 -29z m259 -723 l2 -688 -115 0 -115 0 0 683 c0 376 3 687 7 691
4 3 54 5 112 4 l106 -3 3 -687z m-548 313 c6 -13 10 -191 10 -510 l0 -491
-120 0 -120 0 0 491 c0 319 4 497 10 510 10 17 22 19 110 19 88 0 100 -2 110
-19z m-556 -347 c14 -5 16 -44 16 -330 l0 -324 -115 0 -115 0 0 318 c0 234 3
321 12 330 13 13 173 17 202 6z m1276 -794 l0 -70 -830 0 -830 0 0 70 0 70
830 0 830 0 0 -70z"/>
</g>
</svg>
