<?xml version="1.0" standalone="no"?>
<!DOCTYPE svg PUBLIC "-//W3C//DTD SVG 20010904//EN"
 "http://www.w3.org/TR/2001/REC-SVG-20010904/DTD/svg10.dtd">
<svg version="1.0" xmlns="http://www.w3.org/2000/svg"
 width="200.000000pt" height="200.000000pt" viewBox="0 0 200.000000 200.000000"
 preserveAspectRatio="xMidYMid meet">
<metadata>
Created by potrace 1.16, written by Peter Selinger 2001-2019
</metadata>
<g transform="translate(0.000000,200.000000) scale(0.100000,-0.100000)"
fill="#000000" stroke="none">
<path d="M1548 1736 c-82 -12 -105 -24 -94 -51 5 -13 17 -16 56 -13 28 1 50 1
49 -2 0 -5 -455 -384 -489 -409 -18 -12 -33 -5 -153 73 -104 67 -142 86 -170
86 -30 0 -69 -25 -264 -168 -161 -119 -229 -175 -231 -190 -8 -52 29 -33 254
132 124 91 233 166 243 166 9 0 66 -32 125 -70 142 -92 163 -103 193 -95 14 3
146 107 293 230 l267 223 -5 -69 -5 -69 26 0 c19 0 28 6 32 23 11 50 24 188
19 202 -7 17 -34 18 -146 1z"/>
<path d="M1450 1164 c-46 -9 -71 -21 -87 -39 -23 -26 -23 -26 -23 -411 l0
-385 24 -24 c37 -37 97 -49 251 -49 164 -1 246 15 276 52 18 23 19 44 19 408
0 383 0 383 -22 409 -45 50 -286 72 -438 39z m356 -62 c16 -9 13 -11 -21 -19
-85 -17 -371 -6 -351 14 22 23 333 27 372 5z m-243 -87 c85 -6 229 5 270 21
15 5 17 -1 17 -59 l0 -66 -37 -11 c-99 -27 -362 -20 -400 11 -13 11 -19 110
-7 121 3 4 19 2 35 -2 17 -5 71 -12 122 -15z m62 -190 c61 0 136 4 168 8 l57
8 0 -60 0 -60 -37 -11 c-99 -27 -362 -20 -400 11 -8 7 -13 33 -13 66 l0 54 58
-8 c31 -4 107 -8 167 -8z m0 -190 c61 0 136 4 168 8 l57 8 0 -60 0 -60 -37
-11 c-99 -27 -362 -20 -400 11 -8 7 -13 33 -13 66 l0 54 58 -8 c31 -4 107 -8
167 -8z m0 -190 c61 0 136 4 168 8 l57 8 0 -60 0 -60 -37 -11 c-99 -27 -362
-20 -400 11 -8 7 -13 33 -13 66 l0 54 58 -8 c31 -4 107 -8 167 -8z"/>
<path d="M829 977 c-31 -7 -68 -21 -83 -30 l-26 -17 0 -310 0 -310 23 -14 c52
-33 102 -41 257 -41 167 1 250 17 270 55 6 11 10 138 10 314 0 333 2 322 -77
346 -58 17 -308 22 -374 7z m351 -65 c22 -8 17 -11 -41 -21 -36 -6 -99 -11
-139 -11 -73 0 -205 18 -197 27 22 22 323 26 377 5z m-180 -86 c80 0 162 5
183 11 l37 11 0 -63 0 -64 -42 -12 c-57 -17 -300 -17 -355 -1 l-43 13 0 64 0
63 38 -11 c20 -6 102 -11 182 -11z m0 -190 c80 0 162 5 183 11 l37 11 0 -63 0
-64 -42 -12 c-57 -17 -300 -17 -355 -1 l-43 13 0 64 0 63 38 -11 c20 -6 102
-11 182 -11z m0 -190 c80 0 162 5 183 11 l37 11 0 -63 0 -64 -42 -12 c-57 -17
-300 -17 -355 -1 l-43 13 0 64 0 63 38 -11 c20 -6 102 -11 182 -11z"/>
<path d="M305 794 c-109 -13 -166 -27 -189 -49 l-26 -24 0 -196 c0 -193 0
-196 24 -220 38 -38 97 -49 261 -49 119 -1 161 3 202 17 81 28 83 33 83 244 0
100 -4 193 -9 206 -13 33 -71 54 -178 67 -87 10 -109 10 -168 4z m251 -76 c4
-5 4 -11 0 -15 -10 -11 -255 -17 -322 -8 -58 7 -71 21 -26 28 43 8 340 3 348
-5z m-270 -88 c85 -10 213 -3 287 15 27 7 27 7 27 -48 0 -33 -5 -59 -13 -66
-38 -31 -301 -38 -399 -11 l-38 11 0 61 c0 58 1 60 23 54 12 -3 63 -11 113
-16z m89 -185 c61 0 136 4 168 8 l57 8 0 -54 c0 -33 -5 -59 -13 -66 -38 -31
-301 -38 -399 -11 l-38 11 0 60 0 60 58 -8 c31 -4 107 -8 167 -8z"/>
</g>
</svg>
