<?xml version="1.0" standalone="no"?>
<!DOCTYPE svg PUBLIC "-//W3C//DTD SVG 20010904//EN"
 "http://www.w3.org/TR/2001/REC-SVG-20010904/DTD/svg10.dtd">
<svg version="1.0" xmlns="http://www.w3.org/2000/svg"
 width="200.000000pt" height="200.000000pt" viewBox="0 0 200.000000 200.000000"
 preserveAspectRatio="xMidYMid meet">
<metadata>
Created by potrace 1.16, written by Peter Selinger 2001-2019
</metadata>
<g transform="translate(0.000000,200.000000) scale(0.100000,-0.100000)"
fill="#000000" stroke="none">
<path d="M95 1646 c-14 -20 -15 -98 -13 -644 l3 -621 23 -23 23 -23 874 -3
875 -2 21 21 c18 18 19 23 6 42 -14 21 -21 22 -231 25 l-216 2 0 111 c0 115
-9 149 -38 149 -36 0 -42 -21 -42 -142 l0 -118 -85 0 -85 0 0 236 c0 240 -5
274 -38 274 -40 0 -42 -16 -42 -267 l0 -243 -85 0 -85 0 0 146 c0 149 -7 184
-38 184 -37 0 -42 -19 -42 -177 l0 -153 -85 0 -85 0 0 236 c0 240 -5 274 -38
274 -40 0 -42 -16 -42 -267 l0 -243 -85 0 -85 0 0 361 c0 229 -4 367 -10 380
-12 21 -40 25 -58 7 -9 -9 -12 -107 -12 -380 l0 -368 -105 0 -105 0 0 603 c0
529 -2 605 -16 625 -20 28 -40 28 -59 -2z"/>
<path d="M1450 1655 c-160 -45 -280 -191 -280 -341 0 -47 18 -69 49 -59 21 6
24 14 36 90 4 22 18 62 33 88 107 198 404 194 510 -7 23 -44 27 -63 27 -136 0
-64 -5 -94 -19 -120 -46 -85 -108 -135 -200 -160 -66 -18 -88 -39 -70 -67 15
-25 56 -27 117 -7 66 22 124 61 176 120 112 128 113 331 0 473 -85 109 -247
162 -379 126z"/>
<path d="M262 1528 c-7 -7 -12 -19 -12 -28 0 -19 650 -670 669 -670 8 0 68 53
133 117 l118 117 235 -234 c129 -129 235 -238 235 -242 0 -5 -17 -8 -38 -8
-57 0 -79 -31 -46 -64 12 -12 37 -16 108 -16 127 0 127 0 124 129 -3 86 -6
106 -21 115 -27 17 -51 -5 -57 -53 l-5 -41 -255 255 c-199 199 -260 255 -280
255 -19 0 -53 -28 -135 -110 -60 -61 -114 -110 -120 -110 -5 0 -143 135 -305
300 -294 299 -317 319 -348 288z"/>
<path d="M1508 1480 c-7 -11 -23 -20 -36 -20 -66 0 -107 -59 -95 -136 10 -59
40 -74 149 -74 87 0 94 -1 94 -20 0 -19 -7 -20 -108 -20 -115 0 -132 -6 -132
-47 0 -27 32 -43 83 -43 20 0 39 -8 50 -20 21 -25 32 -25 55 -2 11 11 36 22
57 25 49 8 74 33 82 80 7 47 -2 82 -29 107 -19 17 -35 20 -120 20 -91 0 -98 1
-98 20 0 19 7 20 94 20 52 0 106 4 121 10 62 24 31 80 -44 80 -35 0 -49 5 -59
20 -7 11 -21 20 -32 20 -11 0 -25 -9 -32 -20z"/>
</g>
</svg>
