<?xml version="1.0" standalone="no"?>
<!DOCTYPE svg PUBLIC "-//W3C//DTD SVG 20010904//EN"
 "http://www.w3.org/TR/2001/REC-SVG-20010904/DTD/svg10.dtd">
<svg version="1.0" xmlns="http://www.w3.org/2000/svg"
 width="200.000000pt" height="200.000000pt" viewBox="0 0 200.000000 200.000000"
 preserveAspectRatio="xMidYMid meet">
<metadata>
Created by potrace 1.16, written by Peter Selinger 2001-2019
</metadata>
<g transform="translate(0.000000,200.000000) scale(0.100000,-0.100000)"
fill="#000000" stroke="none">
<path d="M1450 1695 c-123 -35 -232 -136 -265 -248 -27 -92 -14 -247 22 -247
8 0 71 -54 139 -121 l124 -121 83 3 c69 3 93 9 149 37 219 108 280 379 127
571 -85 109 -247 162 -379 126z m124 -177 c16 -27 -3 -49 -56 -65 -56 -16 -93
-56 -102 -111 -6 -42 -28 -58 -59 -47 -38 15 -24 109 26 170 54 66 163 96 191
53z"/>
<path d="M90 1600 c-7 -13 -10 -218 -8 -641 l3 -621 28 -24 28 -24 872 0 c480
0 877 4 883 8 19 13 23 40 9 59 -12 16 -33 18 -229 21 l-216 3 0 117 0 117
-85 85 -85 85 0 -203 0 -202 -40 0 -40 0 0 243 c0 224 -2 245 -18 260 -10 10
-23 17 -28 17 -5 0 -35 -26 -67 -58 l-57 -58 0 -202 0 -202 -40 0 -40 0 0 165
0 165 -36 0 c-41 0 -68 12 -106 48 l-28 26 0 -202 0 -202 -40 0 -40 0 0 243 0
242 -85 85 -85 85 0 -328 0 -327 -40 0 -40 0 0 368 0 367 -85 85 -85 85 0
-453 0 -452 -60 0 -60 0 0 601 c0 395 -4 607 -10 620 -14 25 -56 25 -70 -1z"/>
<path d="M262 1488 c-7 -7 -12 -19 -12 -28 0 -19 650 -670 669 -670 8 0 68 53
133 117 l118 117 235 -234 c129 -129 235 -238 235 -242 0 -4 -19 -8 -41 -10
-49 -3 -71 -27 -53 -56 9 -14 29 -17 114 -20 67 -2 107 1 116 9 10 8 14 39 14
115 0 93 -2 104 -20 114 -36 19 -60 -3 -60 -58 l0 -47 -263 263 c-169 169
-269 262 -282 262 -13 0 -63 -43 -130 -110 -60 -61 -114 -110 -120 -110 -6 0
-145 135 -310 300 -165 165 -307 300 -315 300 -9 0 -21 -5 -28 -12z"/>
</g>
</svg>
