<?xml version="1.0" standalone="no"?>
<!DOCTYPE svg PUBLIC "-//W3C//DTD SVG 20010904//EN"
 "http://www.w3.org/TR/2001/REC-SVG-20010904/DTD/svg10.dtd">
<svg version="1.0" xmlns="http://www.w3.org/2000/svg"
 width="200.000000pt" height="200.000000pt" viewBox="0 0 200.000000 200.000000"
 preserveAspectRatio="xMidYMid meet">
<metadata>
Created by potrace 1.16, written by Peter Selinger 2001-2019
</metadata>
<g transform="translate(0.000000,200.000000) scale(0.100000,-0.100000)"
fill="#000000" stroke="none">
<path d="M1004 1865 c-3 -8 3 -41 14 -74 l20 -60 -66 -7 c-71 -7 -161 -34
-200 -60 -19 -12 -29 -13 -50 -5 -18 8 -102 10 -242 9 l-215 -3 0 -25 0 -25
211 -3 212 -2 5 -29 c9 -45 31 -44 79 4 52 51 128 78 227 79 68 1 95 -17 42
-29 -32 -7 -44 -24 -30 -46 6 -11 51 -15 211 -19 172 -4 203 -7 203 -20 0 -12
-16 -16 -75 -18 -106 -3 -122 -8 -118 -35 3 -20 10 -22 85 -27 87 -5 99 -10
90 -35 -5 -12 -24 -15 -90 -15 -88 0 -114 -11 -101 -44 5 -13 21 -16 84 -16
56 0 81 -4 90 -15 22 -26 0 -35 -84 -35 -87 0 -115 -12 -103 -44 5 -11 27 -16
89 -18 75 -3 83 -5 83 -23 0 -13 -8 -21 -22 -23 -46 -7 -36 -34 36 -100 126
-114 230 -299 266 -476 9 -44 19 -130 22 -191 l6 -112 -34 -26 c-87 -66 -208
-104 -361 -114 -175 -10 -334 24 -446 97 l-62 40 0 93 c0 213 67 424 182 574
l40 52 101 3 c90 3 102 5 105 22 2 10 -2 22 -10 27 -7 5 -109 9 -225 9 l-213
0 0 159 c0 132 -3 160 -15 165 -8 3 -22 3 -30 0 -13 -5 -15 -38 -15 -210 l0
-204 -169 0 c-147 0 -170 -2 -175 -16 -15 -39 9 -44 190 -44 161 0 176 2 194
20 11 11 20 31 20 45 0 25 1 25 80 25 44 0 80 -2 80 -4 0 -2 -18 -31 -41 -65
-97 -145 -148 -317 -156 -526 l-6 -141 46 -40 c56 -50 135 -89 235 -116 111
-31 353 -31 465 0 98 27 208 84 247 129 28 31 30 39 30 111 0 285 -92 533
-266 722 -49 52 -54 61 -44 80 7 12 9 32 6 45 -4 14 1 40 11 60 13 27 15 42 7
63 -7 20 -6 34 3 52 7 14 11 35 8 48 -3 13 1 33 10 45 22 31 19 72 -7 102 -19
20 -36 26 -86 32 -53 5 -62 9 -56 22 36 88 67 190 61 204 -6 15 -26 17 -192
17 -155 0 -187 -2 -191 -15z m313 -57 c-2 -7 -17 -48 -33 -90 l-29 -78 -57 0
c-31 0 -59 4 -62 9 -3 4 -19 45 -35 90 l-30 81 125 0 c97 0 125 -3 121 -12z"/>
<path d="M1207 914 c-4 -4 -7 -17 -7 -28 0 -12 -13 -33 -29 -47 -33 -29 -47
-80 -37 -133 9 -47 33 -74 81 -90 47 -16 65 -50 49 -93 -18 -52 -74 -37 -74
19 0 34 -25 48 -47 25 -23 -23 -8 -84 28 -118 16 -15 29 -36 29 -47 0 -11 7
-25 15 -32 19 -16 45 3 45 32 0 11 13 32 29 47 56 52 49 180 -11 208 -16 7
-40 19 -55 26 -21 9 -29 21 -31 44 -4 40 13 73 38 73 22 0 31 -12 39 -54 8
-36 35 -46 50 -17 16 28 3 77 -29 109 -16 15 -30 38 -32 52 -3 25 -35 39 -51
24z"/>
</g>
</svg>
