<?xml version="1.0" standalone="no"?>
<!DOCTYPE svg PUBLIC "-//W3C//DTD SVG 20010904//EN"
 "http://www.w3.org/TR/2001/REC-SVG-20010904/DTD/svg10.dtd">
<svg version="1.0" xmlns="http://www.w3.org/2000/svg"
 width="200.000000pt" height="200.000000pt" viewBox="0 0 200.000000 200.000000"
 preserveAspectRatio="xMidYMid meet">
<metadata>
Created by potrace 1.16, written by Peter Selinger 2001-2019
</metadata>
<g transform="translate(0.000000,200.000000) scale(0.100000,-0.100000)"
fill="#000000" stroke="none">
<path d="M1090 1961 c-150 -31 -244 -195 -195 -341 28 -85 109 -160 189 -175
36 -7 36 -7 36 -59 l0 -51 -39 42 c-52 55 -101 69 -183 51 -84 -18 -95 -39
-45 -83 56 -48 102 -68 150 -63 23 3 50 8 59 12 20 9 43 -22 52 -71 l6 -33
-99 0 c-117 0 -139 -12 -147 -75 -6 -47 12 -86 44 -100 32 -14 32 -76 0 -90
-35 -15 -52 -60 -42 -108 14 -64 26 -67 277 -67 l218 0 24 25 c18 18 25 35 25
65 0 22 5 40 10 40 6 0 22 11 35 25 18 17 25 35 25 63 0 42 -30 92 -56 92 -10
0 -14 12 -14 39 0 24 -8 48 -21 65 -20 25 -24 26 -121 26 l-101 0 6 41 c7 56
25 73 61 59 61 -23 126 -6 189 50 49 42 48 66 0 79 -119 30 -166 21 -214 -39
-18 -22 -36 -40 -41 -40 -4 0 -8 22 -8 49 l0 49 39 7 c48 8 124 60 155 106 65
97 62 221 -7 310 -59 77 -173 119 -267 100z m143 -64 c42 -18 101 -85 117
-132 28 -86 -11 -189 -92 -242 -36 -24 -52 -28 -113 -28 -61 0 -77 4 -113 27
-46 31 -86 94 -96 150 -15 83 39 183 118 219 48 22 133 25 179 6z m-209 -536
c17 -18 16 -20 -3 -26 -29 -9 -71 2 -101 25 l-25 20 56 0 c43 0 60 -5 73 -19z
m366 14 c0 -3 -15 -14 -32 -25 -36 -22 -65 -25 -88 -10 -13 9 -12 12 4 25 18
14 116 22 116 10z m-25 -275 l0 -35 -215 0 -215 0 -3 38 -3 37 218 -2 218 -3
0 -35z m65 -130 l0 -40 -215 0 -215 0 0 40 0 40 215 0 215 0 0 -40z m-65 -125
l0 -30 -217 -3 -218 -2 0 35 0 35 218 -2 217 -3 0 -30z"/>
<path d="M1133 1873 c-7 -2 -13 -10 -13 -17 0 -6 -9 -19 -20 -29 -15 -12 -20
-29 -20 -62 0 -41 3 -48 40 -73 47 -32 56 -50 36 -71 -16 -16 -15 -17 -31 34
-2 8 -14 15 -25 15 -16 0 -20 -6 -20 -35 0 -21 8 -43 18 -53 10 -10 21 -26 25
-35 10 -27 31 -20 65 25 49 63 39 119 -29 153 -34 18 -43 69 -12 63 10 -2 19
-12 21 -23 6 -30 19 -40 37 -25 22 18 18 58 -9 84 -12 13 -26 31 -29 40 -7 16
-13 18 -34 9z"/>
<path d="M1176 684 c-43 -24 -133 -29 -251 -14 -94 12 -109 11 -150 -4 -27
-11 -60 -35 -85 -63 -33 -38 -42 -44 -55 -33 -9 8 -30 11 -55 7 -22 -3 -53 0
-69 6 -23 8 -42 7 -91 -8 -99 -30 -98 -24 -45 -286 59 -287 48 -275 208 -227
53 16 71 26 82 48 9 18 26 31 45 35 19 4 36 16 42 30 10 21 12 22 52 9 22 -7
82 -29 131 -48 105 -41 177 -46 240 -17 43 19 142 92 337 248 136 109 168 156
148 218 -12 37 -35 55 -70 55 -12 0 -116 -48 -230 -106 -155 -78 -213 -103
-226 -96 -13 7 -5 14 39 36 106 52 141 121 97 194 -22 36 -48 40 -94 16z m62
-72 c5 -36 -47 -76 -152 -116 -52 -20 -100 -43 -106 -51 -19 -22 -2 -38 35
-31 23 5 48 -1 88 -20 l57 -25 215 111 c118 61 219 108 225 105 5 -3 10 -19
10 -34 0 -34 -30 -63 -229 -220 -188 -149 -225 -171 -293 -177 -45 -4 -66 1
-138 32 -47 20 -113 44 -147 53 l-61 16 -37 122 -38 122 39 45 c22 25 58 55
81 66 39 20 47 20 124 9 90 -13 246 -8 275 9 28 17 49 10 52 -16z m-712 -189
c19 -65 47 -153 60 -196 13 -43 24 -84 24 -91 0 -13 -126 -53 -136 -43 -8 8
-85 388 -82 405 2 12 54 36 90 41 4 1 24 -52 44 -116z m128 -60 c25 -84 46
-157 46 -163 0 -5 -11 -10 -25 -10 -14 0 -25 2 -25 4 0 3 -20 70 -45 149 -25
80 -45 152 -45 160 0 16 30 28 41 18 4 -3 27 -75 53 -158z"/>
<path d="M478 268 c-7 -21 22 -109 38 -115 31 -12 39 14 20 72 -12 40 -22 55
-35 55 -11 0 -21 -6 -23 -12z"/>
</g>
</svg>
