<?xml version="1.0" standalone="no"?>
<!DOCTYPE svg PUBLIC "-//W3C//DTD SVG 20010904//EN"
 "http://www.w3.org/TR/2001/REC-SVG-20010904/DTD/svg10.dtd">
<svg version="1.0" xmlns="http://www.w3.org/2000/svg"
 width="200.000000pt" height="200.000000pt" viewBox="0 0 200.000000 200.000000"
 preserveAspectRatio="xMidYMid meet">
<metadata>
Created by potrace 1.16, written by Peter Selinger 2001-2019
</metadata>
<g transform="translate(0.000000,200.000000) scale(0.100000,-0.100000)"
fill="#000000" stroke="none">
<path d="M1100 1961 c-50 -16 -88 -41 -120 -77 -44 -51 -60 -93 -60 -162 0
-111 73 -207 177 -235 l43 -11 0 -63 c0 -35 -3 -63 -7 -63 -4 0 -26 19 -50 42
-38 38 -48 42 -100 46 -71 4 -138 -17 -138 -44 0 -24 94 -90 141 -97 22 -4 50
-1 70 8 40 17 52 7 69 -63 11 -42 15 -47 41 -47 26 0 29 4 36 44 4 24 15 52
24 62 14 16 19 16 50 3 28 -12 43 -12 77 -3 53 14 139 76 135 97 -4 23 -83 44
-146 39 -46 -3 -58 -9 -95 -45 -24 -23 -46 -42 -50 -42 -4 0 -7 29 -7 65 0 55
3 65 18 65 9 0 35 9 58 19 184 84 190 350 10 443 -43 22 -136 32 -176 19z m87
-77 c3 -9 17 -27 29 -40 26 -25 31 -63 12 -82 -19 -19 -28 -14 -44 24 -14 32
-17 35 -30 22 -20 -20 -10 -38 36 -70 57 -39 66 -102 21 -145 -10 -10 -21 -26
-24 -35 -4 -10 -13 -18 -22 -18 -9 0 -19 8 -22 18 -4 9 -17 27 -30 40 -31 29
-29 85 3 90 17 2 23 -4 27 -27 8 -38 37 -43 37 -6 0 16 -10 30 -27 42 -71 44
-81 96 -31 161 34 44 55 53 65 26z"/>
<path d="M942 1103 l3 -38 220 0 220 0 3 38 3 37 -226 0 -226 0 3 -37z"/>
<path d="M1012 973 l3 -38 220 0 220 0 3 38 3 37 -226 0 -226 0 3 -37z"/>
<path d="M947 874 c-4 -4 -7 -22 -7 -41 l0 -33 223 2 222 3 0 35 0 35 -216 3
c-118 1 -218 -1 -222 -4z"/>
<path d="M1190 615 c-43 -17 -219 -19 -290 -4 -69 15 -126 -6 -172 -64 l-34
-42 40 -134 c23 -74 48 -137 56 -142 8 -4 70 -29 137 -54 108 -43 127 -47 182
-43 70 5 93 19 329 205 178 140 202 164 202 200 0 16 -3 32 -6 36 -4 3 -105
-43 -225 -104 -120 -60 -225 -109 -234 -109 -8 0 -39 11 -68 24 -35 15 -59 21
-68 15 -38 -24 -80 11 -45 37 10 7 61 29 112 49 113 44 156 76 152 114 -4 31
-20 35 -68 16z"/>
<path d="M416 534 c-69 -25 -68 -13 -18 -257 24 -122 50 -228 57 -235 11 -12
27 -10 99 12 101 31 100 30 62 153 -116 372 -104 343 -134 342 -15 0 -45 -7
-66 -15z m121 -328 c16 -55 12 -76 -15 -76 -14 0 -23 14 -36 55 -19 60 -15 78
16 73 15 -2 25 -16 35 -52z"/>
<path d="M589 542 c-15 -6 -10 -30 42 -201 33 -107 61 -196 63 -199 2 -2 14 1
25 8 25 13 28 -2 -42 224 -29 93 -57 171 -62 172 -6 1 -17 -1 -26 -4z"/>
</g>
</svg>
