<?xml version="1.0" standalone="no"?>
<!DOCTYPE svg PUBLIC "-//W3C//DTD SVG 20010904//EN"
 "http://www.w3.org/TR/2001/REC-SVG-20010904/DTD/svg10.dtd">
<svg version="1.0" xmlns="http://www.w3.org/2000/svg"
 width="200.000000pt" height="200.000000pt" viewBox="0 0 200.000000 200.000000"
 preserveAspectRatio="xMidYMid meet">
<metadata>
Created by potrace 1.16, written by Peter Selinger 2001-2019
</metadata>
<g transform="translate(0.000000,200.000000) scale(0.100000,-0.100000)"
fill="#000000" stroke="none">
<path d="M1571 1785 c-67 -92 -118 -171 -115 -176 3 -5 34 -9 70 -9 l64 0 0
-86 0 -86 55 -76 c76 -105 71 -156 -15 -164 l-35 -3 -3 -179 c-2 -165 -1 -182
19 -222 16 -34 26 -44 45 -44 23 0 24 3 24 68 0 84 14 102 83 102 l47 0 0 345
0 345 64 0 c36 0 68 5 71 10 7 11 -222 331 -242 337 -6 2 -66 -71 -132 -162z"/>
<path d="M580 1531 c-212 -65 -286 -324 -137 -479 59 -62 78 -66 155 -39 68
25 183 47 245 47 30 0 37 5 63 53 26 46 29 62 29 137 0 76 -3 91 -30 139 -62
112 -210 177 -325 142z m46 -106 c4 -8 16 -15 29 -15 33 0 73 -35 59 -50 -9
-9 -17 -9 -34 0 -30 16 -33 9 -20 -39 9 -35 15 -41 37 -41 69 0 96 -84 44
-134 -16 -16 -27 -34 -24 -42 8 -21 -28 -30 -42 -11 -7 10 -20 17 -29 17 -26
0 -56 19 -56 35 0 21 15 26 45 15 24 -9 26 -8 19 12 -18 61 -24 68 -49 68 -33
0 -75 42 -75 74 0 14 14 41 30 59 17 19 30 42 30 51 0 20 29 21 36 1z"/>
<path d="M581 1332 c-11 -21 3 -52 24 -52 16 0 18 12 9 48 -8 27 -20 28 -33 4z"/>
<path d="M685 1218 c14 -45 20 -51 35 -33 16 20 3 48 -25 53 -14 3 -16 -1 -10
-20z"/>
<path d="M1341 1390 c-56 -77 -99 -145 -96 -150 3 -6 31 -10 61 -10 l54 0 0
-125 0 -125 36 -55 c32 -48 41 -55 86 -64 27 -6 53 -11 58 -11 6 0 10 77 10
190 l0 190 49 0 c28 0 53 5 56 11 10 15 -175 278 -201 286 -7 2 -57 -59 -113
-137z"/>
<path d="M1125 1151 c-67 -23 -86 -26 -118 -18 -21 5 -39 8 -40 6 -1 -2 -12
-23 -23 -46 -21 -41 -21 -41 -2 -46 13 -4 18 -12 16 -24 -3 -16 -18 -19 -133
-24 -135 -6 -201 -21 -287 -65 -38 -19 -48 -21 -57 -10 -6 7 -9 20 -6 27 3 8
-9 26 -29 41 l-34 27 -50 -53 c-59 -62 -102 -140 -117 -215 -13 -64 -30 -76
-39 -28 -7 39 -29 63 -68 72 -22 6 -33 1 -58 -23 -18 -18 -30 -41 -30 -57 0
-36 41 -75 80 -75 28 0 30 -3 30 -36 0 -31 3 -35 23 -32 17 2 23 11 25 36 5
49 24 34 37 -29 17 -85 54 -148 136 -231 l76 -77 7 -71 c13 -132 28 -150 121
-150 69 0 99 25 109 91 l6 44 79 -3 79 -4 4 115 c4 158 4 157 160 157 l118 0
0 49 c0 82 24 94 174 89 l96 -3 0 58 c0 80 18 97 105 97 36 0 65 3 65 8 0 4
-7 17 -15 29 -11 15 -37 27 -90 38 -73 17 -75 18 -106 68 -17 29 -54 73 -81
99 l-50 46 16 48 c20 60 20 60 -4 84 -25 25 -27 25 -125 -9z m105 -343 c25
-27 27 -68 2 -68 -9 0 -22 10 -27 23 -6 12 -19 22 -30 22 -11 0 -24 -10 -30
-22 -14 -32 -45 -30 -45 2 0 59 87 88 130 43z m-1076 -84 c10 -27 7 -34 -18
-34 -28 0 -40 14 -32 35 7 20 42 19 50 -1z"/>
<path d="M1731 856 c-8 -9 -10 -125 -9 -407 l3 -394 110 0 110 0 3 399 c2 313
-1 401 -10 408 -23 14 -194 10 -207 -6z"/>
<path d="M1462 692 c-9 -7 -12 -78 -10 -323 l3 -314 110 0 110 0 3 309 c2 219
-1 313 -9 322 -13 16 -184 20 -207 6z"/>
<path d="M1185 528 c-3 -8 -4 -117 -3 -243 l3 -230 107 -3 c105 -3 108 -2 113
20 3 13 4 122 3 243 l-3 220 -108 3 c-81 2 -109 -1 -112 -10z"/>
<path d="M914 397 c-2 -7 -3 -87 -2 -177 l3 -165 99 -3 c64 -2 103 1 112 9 11
9 14 46 14 164 0 85 -3 160 -6 169 -5 13 -25 16 -110 16 -76 0 -106 -4 -110
-13z"/>
</g>
</svg>
