<?xml version="1.0" standalone="no"?>
<!DOCTYPE svg PUBLIC "-//W3C//DTD SVG 20010904//EN"
 "http://www.w3.org/TR/2001/REC-SVG-20010904/DTD/svg10.dtd">
<svg version="1.0" xmlns="http://www.w3.org/2000/svg"
 width="200.000000pt" height="200.000000pt" viewBox="0 0 200.000000 200.000000"
 preserveAspectRatio="xMidYMid meet">
<metadata>
Created by potrace 1.16, written by Peter Selinger 2001-2019
</metadata>
<g transform="translate(0.000000,200.000000) scale(0.100000,-0.100000)"
fill="#000000" stroke="none">
<path d="M1592 1818 c-140 -191 -144 -197 -138 -213 4 -11 22 -15 70 -15 l65
0 3 -42 c2 -35 7 -43 23 -43 18 0 20 7 20 65 l0 65 -53 5 -53 5 76 105 c42 58
82 110 88 117 9 9 31 -14 95 -105 l83 -117 -50 -3 c-43 -3 -52 -7 -56 -25 -3
-12 -4 -159 -3 -327 l3 -305 23 -3 22 -3 0 305 0 306 65 0 c49 0 67 4 71 15 7
18 -224 345 -243 345 -7 0 -57 -60 -111 -132z"/>
<path d="M543 1519 c-99 -38 -183 -161 -183 -269 0 -50 23 -124 54 -170 l25
-39 -64 -65 c-70 -69 -120 -158 -133 -236 -9 -54 -27 -62 -36 -17 -7 39 -29
63 -68 72 -22 6 -33 1 -58 -23 -18 -18 -30 -41 -30 -57 0 -36 41 -75 80 -75
28 0 30 -3 30 -36 0 -31 3 -35 23 -32 17 2 23 11 25 36 5 49 24 34 37 -29 17
-85 54 -148 136 -231 l76 -77 7 -71 c13 -132 28 -150 121 -150 71 0 99 24 109
94 6 37 11 46 23 42 8 -3 25 -6 38 -6 22 0 24 -4 27 -62 l3 -63 580 0 580 0 3
402 2 403 -22 5 c-13 3 -72 5 -133 3 l-110 -3 -3 -82 -3 -83 -49 0 c-49 0 -50
1 -50 30 0 33 -38 80 -64 80 -8 0 -38 5 -65 11 -46 9 -53 15 -82 62 -17 29
-54 73 -81 99 l-50 46 17 51 c18 54 11 85 -23 95 -10 4 -56 -7 -103 -22 -81
-28 -86 -28 -142 -14 -52 13 -57 16 -51 36 4 11 6 48 6 82 -2 113 -63 206
-167 256 -74 34 -154 37 -232 7z m188 -41 c94 -28 159 -121 159 -226 0 -73
-15 -114 -60 -165 -26 -30 -39 -37 -69 -37 -20 0 -67 -8 -103 -19 -64 -17 -69
-17 -106 -1 -48 22 -115 97 -130 148 -58 191 115 359 309 300z m479 -365 c0
-5 -8 -30 -17 -56 l-18 -49 30 -21 c48 -33 110 -105 134 -152 18 -35 30 -46
59 -55 20 -5 42 -10 47 -10 6 0 27 -5 48 -11 30 -8 37 -15 37 -34 0 -20 -5
-25 -24 -25 -51 0 -56 -7 -56 -86 l0 -74 -110 0 -109 0 -3 -62 -3 -63 -110 -5
-110 -5 -3 -52 -3 -53 -87 0 c-117 0 -132 -5 -132 -41 0 -29 0 -29 -57 -27
l-58 3 -15 -65 -16 -65 -51 -3 c-59 -3 -53 -13 -74 134 l-11 80 -53 41 c-210
163 -209 454 2 621 36 28 42 30 59 17 19 -13 19 -14 -1 -29 -19 -14 -19 -16
-3 -32 15 -15 19 -16 40 -2 64 42 143 61 268 67 116 6 125 7 125 26 0 14 -8
21 -27 23 -31 4 -32 5 -18 33 13 23 28 24 102 4 54 -14 59 -13 125 10 74 25
93 29 93 18z m690 -653 l0 -360 -85 0 -85 0 0 360 0 360 85 0 85 0 0 -360z
m-1746 264 c10 -27 7 -34 -18 -34 -28 0 -40 14 -32 35 7 20 42 19 50 -1z
m1524 -351 l2 -273 -90 0 -90 0 0 275 0 276 88 -3 87 -3 3 -272z m-228 -78 l0
-195 -85 0 -85 0 0 195 0 195 85 0 85 0 0 -195z m-220 -65 l0 -130 -90 0 -90
0 0 130 0 130 90 0 90 0 0 -130z m-230 -60 l0 -70 -85 0 -85 0 0 70 0 70 85 0
85 0 0 -70z"/>
<path d="M591 1437 c-6 -8 -8 -17 -5 -20 4 -3 -8 -20 -25 -37 -43 -43 -43 -88
0 -124 17 -14 41 -26 55 -26 13 0 24 -6 24 -12 0 -7 3 -23 6 -35 6 -21 4 -22
-24 -17 -18 4 -32 1 -37 -6 -10 -16 24 -50 50 -50 12 0 30 -9 39 -19 20 -22
46 -18 46 7 0 9 12 29 27 44 51 54 28 131 -43 144 -19 3 -34 7 -34 8 0 0 -4
16 -9 34 -10 33 -10 33 20 27 22 -5 31 -3 36 11 8 20 -21 44 -54 44 -12 0 -27
9 -33 20 -13 23 -23 25 -39 7z m22 -124 c7 -35 1 -41 -20 -21 -8 9 -13 24 -10
32 10 25 24 19 30 -11z m101 -89 c13 -12 14 -20 4 -37 -11 -21 -11 -21 -19 -2
-8 22 -11 55 -5 55 3 0 12 -7 20 -16z"/>
<path d="M1140 827 c-14 -7 -31 -25 -39 -41 -11 -25 -11 -30 4 -45 17 -17 20
-15 50 34 13 20 37 12 50 -18 14 -30 39 -28 43 4 6 52 -58 92 -108 66z"/>
<path d="M1397 1418 c-111 -150 -120 -165 -113 -183 4 -11 20 -15 55 -15 l50
0 3 -127 c3 -125 4 -128 26 -131 l23 -3 -3 153 -3 153 -37 3 c-21 2 -38 6 -38
9 0 10 122 173 130 173 7 0 130 -165 130 -175 0 -2 -17 -5 -37 -7 l-38 -3 -3
-194 c-2 -198 2 -227 33 -201 12 10 15 41 15 181 l0 169 39 0 c48 0 71 8 71
24 0 16 -192 278 -207 283 -7 3 -50 -47 -96 -109z"/>
</g>
</svg>
