<?xml version="1.0" standalone="no"?>
<!DOCTYPE svg PUBLIC "-//W3C//DTD SVG 20010904//EN"
 "http://www.w3.org/TR/2001/REC-SVG-20010904/DTD/svg10.dtd">
<svg version="1.0" xmlns="http://www.w3.org/2000/svg"
 width="200.000000pt" height="200.000000pt" viewBox="0 0 200.000000 200.000000"
 preserveAspectRatio="xMidYMid meet">
<metadata>
Created by potrace 1.16, written by Peter Selinger 2001-2019
</metadata>
<g transform="translate(0.000000,200.000000) scale(0.100000,-0.100000)"
fill="#000000" stroke="none">
<path d="M1262 1744 c-18 -12 -22 -25 -22 -64 0 -81 -5 -80 279 -80 227 0 249
2 264 18 24 27 22 97 -3 122 -19 19 -33 20 -258 20 -199 0 -241 -3 -260 -16z"/>
<path d="M671 1557 c-46 -23 -49 -115 -6 -143 19 -12 64 -15 265 -12 274 3
270 2 270 84 0 34 -5 47 -26 63 -25 20 -39 21 -253 21 -159 0 -233 -4 -250
-13z"/>
<path d="M1273 1555 c-32 -13 -33 -17 -33 -69 0 -82 9 -86 202 -86 l158 0 41
30 c25 17 65 34 100 41 50 10 59 15 59 33 -1 60 -28 66 -277 66 -165 -1 -226
-4 -250 -15z"/>
<path d="M1695 1421 c-76 -34 -125 -113 -125 -202 0 -19 12 -59 26 -88 78
-156 300 -155 379 2 27 56 31 99 14 158 -36 119 -179 182 -294 130z m175 -53
c49 -34 72 -71 77 -125 13 -131 -122 -222 -237 -161 -63 34 -92 86 -87 156 6
91 72 152 162 152 38 0 61 -6 85 -22z"/>
<path d="M1783 1351 c-3 -12 -11 -21 -18 -21 -18 0 -45 -34 -45 -57 0 -24 24
-47 63 -62 19 -8 27 -17 25 -29 -3 -13 -13 -17 -46 -15 -45 2 -60 -20 -22 -32
11 -3 20 -15 20 -26 0 -10 5 -19 10 -19 6 0 10 6 10 14 0 8 16 23 36 35 30 18
35 26 32 53 -2 26 -11 36 -43 52 -52 27 -53 51 -2 50 38 -1 53 20 22 32 -8 4
-15 12 -15 19 0 24 -21 28 -27 6z"/>
<path d="M657 1353 c-32 -36 -29 -113 6 -135 7 -4 123 -8 259 -8 244 0 247 0
262 22 23 32 20 94 -4 118 -19 19 -33 20 -263 20 -220 0 -245 -2 -260 -17z"/>
<path d="M1257 1352 c-22 -24 -23 -105 -1 -126 12 -13 40 -16 145 -16 l129 0
5 28 c5 26 18 81 26 112 3 13 -18 15 -142 18 -131 2 -147 1 -162 -16z"/>
<path d="M78 1193 c-15 -2 -39 -18 -53 -34 l-25 -31 0 -330 0 -330 29 -29 c29
-29 31 -29 145 -29 107 0 117 2 143 24 l28 24 0 341 0 341 -27 26 c-24 25 -34
27 -120 29 -51 2 -105 1 -120 -2z m151 -617 c12 -25 11 -31 -6 -55 -26 -33
-65 -39 -92 -12 -25 25 -27 49 -5 79 24 35 84 28 103 -12z"/>
<path d="M690 1170 c-11 -7 -7 -10 18 -10 68 0 180 -49 272 -118 43 -32 48
-34 118 -30 86 4 102 17 102 84 0 34 -5 47 -26 63 -25 20 -39 21 -248 21 -125
0 -227 -4 -236 -10z"/>
<path d="M1270 1167 c-22 -11 -25 -20 -28 -69 -4 -85 3 -88 210 -88 109 0 169
4 174 11 3 6 -7 25 -24 42 -17 18 -38 50 -49 72 l-18 40 -120 3 c-82 1 -128
-2 -145 -11z"/>
<path d="M534 1100 c-131 -8 -124 10 -124 -322 0 -323 -12 -287 126 -365 278
-157 400 -193 534 -159 123 32 621 303 803 438 73 54 127 125 127 165 0 63
-61 113 -137 113 -58 0 -106 -16 -249 -85 -126 -60 -132 -64 -170 -121 -21
-32 -57 -71 -79 -86 -97 -66 -335 -79 -335 -19 0 24 13 28 125 36 119 9 176
28 215 71 38 44 40 86 5 118 -31 29 -70 36 -210 36 -121 0 -132 4 -265 100
-94 67 -204 91 -366 80z"/>
</g>
</svg>
