<?xml version="1.0" standalone="no"?>
<!DOCTYPE svg PUBLIC "-//W3C//DTD SVG 20010904//EN"
 "http://www.w3.org/TR/2001/REC-SVG-20010904/DTD/svg10.dtd">
<svg version="1.0" xmlns="http://www.w3.org/2000/svg"
 width="200.000000pt" height="200.000000pt" viewBox="0 0 200.000000 200.000000"
 preserveAspectRatio="xMidYMid meet">
<metadata>
Created by potrace 1.16, written by Peter Selinger 2001-2019
</metadata>
<g transform="translate(0.000000,200.000000) scale(0.100000,-0.100000)"
fill="#000000" stroke="none">
<path d="M852 1856 c-193 -47 -364 -220 -417 -421 -18 -70 -20 -192 -4 -267
48 -225 240 -409 472 -450 l57 -10 0 -125 0 -125 -22 16 c-13 9 -45 28 -73 41
-48 24 -57 25 -263 25 l-212 0 -11 -27 c-14 -38 -2 -157 23 -215 27 -63 100
-130 169 -154 49 -17 87 -19 434 -19 373 0 381 0 437 23 64 26 130 90 158 155
23 53 35 173 21 210 l-11 27 -212 0 c-228 0 -250 -4 -329 -61 l-29 -20 0 124
0 125 43 7 c214 33 395 184 468 391 27 74 36 212 20 296 -7 35 -31 101 -53
147 -73 153 -229 278 -386 310 -70 14 -213 13 -280 -3z m271 -81 c206 -54 354
-229 373 -444 29 -313 -264 -584 -573 -532 -407 69 -565 565 -269 849 128 123
303 170 469 127z m-322 -1325 c87 -24 141 -90 154 -187 l7 -53 -171 0 c-154 0
-176 2 -213 21 -76 39 -118 104 -118 185 l0 44 153 0 c83 0 168 -5 188 -10z
m739 -30 c0 -80 -50 -156 -125 -191 -34 -16 -66 -19 -207 -19 l-168 0 0 28 c0
76 45 159 103 189 55 28 78 31 240 32 l157 1 0 -40z"/>
<path d="M960 1605 l0 -65 -34 0 c-74 0 -141 -79 -133 -157 10 -94 70 -133
204 -133 74 0 93 -3 106 -18 20 -22 22 -75 4 -90 -8 -7 -68 -13 -143 -14
l-129 -3 0 -40 0 -40 63 -3 62 -3 0 -59 0 -60 40 0 40 0 0 59 0 58 40 7 c78
12 140 97 125 169 -19 86 -70 117 -192 117 -106 0 -133 13 -133 65 0 56 24 65
167 65 l123 0 0 40 0 40 -65 0 -65 0 0 65 0 65 -40 0 -40 0 0 -65z"/>
</g>
</svg>
