<?xml version="1.0" standalone="no"?>
<!DOCTYPE svg PUBLIC "-//W3C//DTD SVG 20010904//EN"
 "http://www.w3.org/TR/2001/REC-SVG-20010904/DTD/svg10.dtd">
<svg version="1.0" xmlns="http://www.w3.org/2000/svg"
 width="200.000000pt" height="200.000000pt" viewBox="0 0 200.000000 200.000000"
 preserveAspectRatio="xMidYMid meet">
<metadata>
Created by potrace 1.16, written by Peter Selinger 2001-2019
</metadata>
<g transform="translate(0.000000,200.000000) scale(0.100000,-0.100000)"
fill="#000000" stroke="none">
<path d="M570 1868 c-24 -13 -25 -18 -24 -103 2 -107 17 -147 81 -216 62 -66
125 -89 243 -89 l90 0 0 -83 0 -84 -71 -12 c-210 -38 -399 -215 -454 -427 -19
-75 -19 -213 0 -289 35 -137 142 -284 258 -353 101 -61 178 -82 303 -82 176 0
293 48 414 169 227 228 228 590 2 819 -82 83 -193 143 -301 163 l-71 12 0 84
0 83 83 0 c46 0 106 7 134 15 64 19 136 82 170 149 22 43 26 65 27 141 1 116
-2 118 -163 111 -133 -6 -195 -29 -255 -96 l-36 -40 -36 40 c-60 67 -122 90
-255 96 -85 4 -120 2 -139 -8z m266 -97 c55 -25 101 -83 115 -147 18 -79 13
-84 -79 -84 -145 0 -231 68 -240 191 l-4 59 83 0 c60 0 96 -6 125 -19z m534
-26 c0 -58 -18 -102 -60 -142 -49 -48 -102 -65 -190 -61 -73 3 -75 4 -78 30
-5 44 17 106 51 145 47 54 97 73 195 73 l82 0 0 -45z m-284 -546 c272 -49 459
-323 403 -591 -28 -134 -139 -282 -256 -342 -198 -100 -420 -67 -579 86 -201
193 -205 504 -9 704 68 70 157 119 249 139 77 17 117 18 192 4z"/>
<path d="M960 1020 c0 -55 -2 -60 -22 -60 -12 0 -41 -9 -64 -21 -77 -37 -105
-136 -59 -206 31 -47 72 -63 165 -63 110 0 135 -12 135 -65 0 -56 -22 -65
-167 -65 l-118 0 0 -40 0 -40 65 0 65 0 0 -65 0 -65 40 0 40 0 0 65 c0 63 1
65 26 65 38 0 91 28 115 61 31 44 34 89 11 142 -29 66 -75 87 -190 87 -73 0
-92 3 -105 18 -20 22 -22 75 -4 90 8 7 68 13 143 14 l129 3 0 40 0 40 -62 3
-63 3 0 59 0 60 -40 0 -40 0 0 -60z"/>
</g>
</svg>
