<?xml version="1.0" standalone="no"?>
<!DOCTYPE svg PUBLIC "-//W3C//DTD SVG 20010904//EN"
 "http://www.w3.org/TR/2001/REC-SVG-20010904/DTD/svg10.dtd">
<svg version="1.0" xmlns="http://www.w3.org/2000/svg"
 width="200.000000pt" height="200.000000pt" viewBox="0 0 200.000000 200.000000"
 preserveAspectRatio="xMidYMid meet">
<metadata>
Created by potrace 1.16, written by Peter Selinger 2001-2019
</metadata>
<g transform="translate(0.000000,200.000000) scale(0.100000,-0.100000)"
fill="#000000" stroke="none">
<path d="M1037 1931 c-54 -11 -117 -59 -152 -116 -26 -42 -30 -58 -30 -119 1
-124 59 -198 188 -240 13 -4 17 -17 17 -61 0 -30 -4 -55 -8 -55 -4 0 -24 16
-45 35 -20 19 -48 37 -62 41 -35 9 -129 -4 -151 -21 -18 -13 -18 -14 6 -40 50
-54 119 -76 187 -61 26 6 34 3 47 -16 9 -13 19 -40 23 -60 5 -33 9 -38 33 -38
24 0 29 5 35 38 3 20 13 47 21 60 13 20 20 22 47 16 44 -10 84 -6 121 11 43
21 99 76 89 86 -15 15 -120 32 -156 25 -19 -4 -51 -22 -72 -41 -20 -19 -41
-35 -46 -35 -5 0 -9 25 -9 55 0 44 4 57 18 61 59 19 98 43 131 80 152 173 -5
441 -232 395z m80 -88 c4 -9 15 -25 25 -35 26 -26 21 -83 -7 -83 -12 0 -21 9
-25 24 -8 34 -30 39 -30 7 0 -18 9 -30 30 -41 16 -8 34 -24 40 -34 16 -30 12
-79 -8 -99 -10 -10 -21 -26 -25 -35 -7 -18 -47 -24 -47 -7 0 5 -9 18 -20 28
-40 37 -33 121 7 96 10 -6 19 -21 21 -33 4 -25 25 -23 30 2 2 10 -12 26 -37
41 -29 19 -42 34 -46 58 -7 35 8 88 24 88 5 0 13 9 16 20 8 24 43 27 52 3z"/>
<path d="M1450 1925 c0 -9 -11 -27 -24 -40 -20 -19 -22 -26 -11 -32 7 -5 20
-21 28 -37 l15 -28 16 30 c8 16 23 32 32 36 14 5 12 9 -10 27 -14 11 -26 27
-26 34 0 8 -4 17 -10 20 -5 3 -10 -1 -10 -10z"/>
<path d="M1606 1684 c-4 -14 -18 -36 -31 -50 l-24 -23 30 -32 c16 -17 29 -41
29 -53 1 -17 5 -13 20 16 11 20 29 43 40 51 21 14 21 15 -10 45 -16 17 -30 37
-30 46 0 26 -18 27 -24 0z"/>
<path d="M1486 1284 c-3 -12 -15 -29 -25 -38 -18 -17 -18 -18 5 -41 13 -13 24
-32 24 -42 0 -12 6 -8 20 15 11 18 26 35 34 38 11 4 9 10 -8 28 -11 12 -26 31
-32 42 -11 18 -11 18 -18 -2z"/>
<path d="M874 1116 c-3 -8 -4 -25 -2 -38 l3 -23 215 0 215 0 0 35 0 35 -213 3
c-178 2 -213 0 -218 -12z"/>
<path d="M944 986 c-3 -8 -4 -25 -2 -38 l3 -23 215 0 215 0 0 35 0 35 -213 3
c-178 2 -213 0 -218 -12z"/>
<path d="M874 856 c-3 -8 -4 -25 -2 -38 l3 -23 215 0 215 0 0 35 0 35 -213 3
c-178 2 -213 0 -218 -12z"/>
<path d="M1125 622 c-31 -18 -150 -22 -315 -12 -85 5 -114 -7 -165 -68 l-28
-34 16 -51 c9 -29 30 -97 47 -153 l30 -100 83 -34 c157 -63 189 -72 245 -68
64 6 114 38 352 230 173 140 209 182 196 231 -14 59 -29 56 -270 -65 l-224
-112 -39 18 c-37 16 -42 16 -78 1 -45 -18 -65 -14 -65 14 0 15 18 27 83 51
156 61 196 92 183 145 -7 29 -11 30 -51 7z"/>
<path d="M353 539 c-33 -11 -63 -25 -66 -33 -8 -20 81 -449 97 -464 11 -11 26
-10 87 9 41 12 80 27 88 35 12 11 6 41 -44 206 -32 106 -62 207 -67 225 -4 17
-14 33 -21 36 -7 2 -40 -4 -74 -14z m111 -334 c18 -59 16 -75 -14 -75 -13 0
-23 14 -34 47 -22 65 -21 83 7 83 19 0 26 -9 41 -55z"/>
<path d="M512 541 c-11 -6 -2 -47 44 -197 31 -104 60 -192 63 -197 4 -4 16 -1
26 7 19 13 18 17 -14 122 -18 60 -44 146 -57 192 -24 79 -34 91 -62 73z"/>
</g>
</svg>
