<?xml version="1.0" standalone="no"?>
<!DOCTYPE svg PUBLIC "-//W3C//DTD SVG 20010904//EN"
 "http://www.w3.org/TR/2001/REC-SVG-20010904/DTD/svg10.dtd">
<svg version="1.0" xmlns="http://www.w3.org/2000/svg"
 width="200.000000pt" height="200.000000pt" viewBox="0 0 200.000000 200.000000"
 preserveAspectRatio="xMidYMid meet">
<metadata>
Created by potrace 1.16, written by Peter Selinger 2001-2019
</metadata>
<g transform="translate(0.000000,200.000000) scale(0.100000,-0.100000)"
fill="#000000" stroke="none">
<path d="M1433 1963 c-7 -2 -13 -16 -13 -29 0 -25 -40 -74 -60 -74 -21 0 -10
-41 14 -50 28 -10 46 -38 46 -69 0 -20 3 -23 32 -25 6 -1 16 17 22 38 8 27 21
45 40 56 41 22 42 35 3 58 -25 14 -37 30 -43 58 -9 38 -19 46 -41 37z"/>
<path d="M1005 1918 c-121 -44 -189 -156 -171 -284 7 -51 24 -88 62 -133 29
-35 111 -81 144 -81 17 0 20 -6 20 -45 0 -53 -9 -57 -34 -14 -33 56 -133 76
-216 43 -53 -21 -51 -41 8 -86 66 -51 117 -64 165 -44 36 14 38 14 51 -7 8
-12 17 -36 21 -54 l6 -31 -101 -4 c-93 -3 -103 -5 -121 -27 -26 -31 -25 -91 2
-125 11 -14 27 -26 35 -26 10 0 14 -12 14 -40 0 -29 -4 -40 -15 -40 -27 0 -55
-38 -55 -74 0 -99 26 -109 291 -104 229 4 239 7 239 84 0 38 3 44 25 50 33 8
45 32 45 88 0 48 -24 86 -55 86 -11 0 -15 11 -15 43 0 73 -13 81 -129 85 -93
4 -101 5 -101 24 0 18 28 88 35 88 1 0 19 -7 39 -15 55 -23 132 3 191 64 25
27 27 33 15 45 -36 33 -148 48 -193 25 -12 -6 -37 -27 -54 -47 l-33 -37 0 46
c0 44 2 47 32 53 82 16 163 95 187 181 15 54 14 82 -5 144 -39 133 -199 215
-329 169z m199 -75 c131 -92 115 -289 -31 -358 -53 -25 -149 -17 -201 17 -45
30 -92 113 -92 162 0 84 50 163 125 198 58 27 145 19 199 -19z m-246 -489 c29
-20 20 -34 -21 -34 -34 0 -92 32 -80 43 12 13 78 7 101 -9z m357 7 c9 -16 -37
-41 -77 -41 -43 0 -48 12 -16 34 25 17 83 21 93 7z m-15 -276 l0 -35 -210 0
-210 0 0 35 0 35 210 0 210 0 0 -35z m68 -122 l3 -33 -215 0 -216 0 0 28 c0
16 3 32 7 36 4 3 99 5 212 4 l206 -3 3 -32z m-68 -128 l0 -35 -210 0 -210 0 0
35 0 35 210 0 210 0 0 -35z"/>
<path d="M1065 1821 c-3 -10 -14 -26 -25 -36 -36 -33 -20 -99 31 -129 30 -18
40 -56 14 -56 -9 0 -15 9 -15 25 0 18 -5 25 -20 25 -43 0 -38 -54 9 -110 l30
-35 30 35 c54 64 50 116 -15 158 -21 14 -34 30 -32 39 5 24 28 28 28 5 0 -30
26 -48 46 -31 20 16 11 51 -24 95 -30 38 -48 43 -57 15z"/>
<path d="M1585 1738 c-2 -7 -10 -31 -17 -53 -10 -30 -22 -44 -50 -58 -47 -23
-48 -42 -4 -61 39 -16 51 -34 61 -89 6 -31 11 -38 29 -35 15 2 22 12 27 38 8
53 27 80 60 87 41 8 39 39 -4 57 -34 14 -53 45 -59 96 -3 27 -35 40 -43 18z
m35 -143 c0 -19 -20 -29 -32 -17 -8 8 -7 16 2 26 14 17 30 12 30 -9z"/>
<path d="M1466 1338 c-3 -7 -8 -26 -13 -43 -5 -16 -22 -36 -39 -45 -37 -21
-37 -39 1 -60 20 -11 33 -29 41 -56 12 -43 46 -56 52 -19 7 42 25 75 42 75 28
0 45 27 30 45 -7 8 -18 15 -25 15 -18 0 -37 26 -44 63 -7 33 -37 50 -45 25z"/>
<path d="M1120 691 c-55 -29 -102 -33 -231 -21 -158 16 -179 11 -244 -54 -48
-48 -54 -51 -73 -38 -17 11 -28 12 -55 3 -26 -9 -41 -9 -61 0 -30 14 -111 -1
-154 -27 -31 -20 -29 -45 18 -274 49 -235 47 -227 71 -241 34 -18 167 26 204
67 17 18 43 36 59 40 15 3 32 17 38 30 l11 23 81 -31 c202 -76 255 -84 332
-49 51 23 434 329 458 366 10 15 21 45 23 66 5 31 1 42 -20 63 -14 14 -36 26
-48 26 -13 0 -116 -47 -230 -105 -188 -95 -239 -113 -239 -85 0 4 10 10 23 14
48 12 118 66 134 103 18 45 5 103 -30 128 -26 18 -24 18 -67 -4z m50 -80 c0
-41 -35 -67 -151 -114 -87 -35 -105 -46 -107 -66 -4 -23 -2 -23 36 -17 30 4
53 0 93 -18 l54 -24 218 112 c182 93 219 109 227 96 16 -25 1 -53 -62 -113
-77 -72 -323 -264 -380 -295 -58 -31 -106 -26 -237 26 -57 23 -120 45 -141 48
l-38 6 -37 124 -37 123 44 51 c64 74 93 85 192 71 113 -16 203 -13 261 7 28
10 53 16 58 14 4 -2 7 -16 7 -31z m-678 -267 c32 -104 58 -196 58 -205 0 -12
-18 -22 -65 -34 -36 -10 -67 -16 -69 -14 -11 11 -87 412 -80 419 11 10 75 29
89 26 5 -2 36 -88 67 -192z m101 23 c26 -89 48 -165 47 -169 0 -5 -11 -8 -23
-8 -22 0 -28 13 -72 161 -41 134 -46 162 -34 170 8 5 19 9 24 9 6 0 32 -73 58
-163z"/>
<path d="M421 253 c1 -49 24 -98 45 -98 15 0 19 7 18 35 -2 53 -20 90 -44 90
-15 0 -20 -6 -19 -27z"/>
</g>
</svg>
