<?xml version="1.0" standalone="no"?>
<!DOCTYPE svg PUBLIC "-//W3C//DTD SVG 20010904//EN"
 "http://www.w3.org/TR/2001/REC-SVG-20010904/DTD/svg10.dtd">
<svg version="1.0" xmlns="http://www.w3.org/2000/svg"
 width="200.000000pt" height="200.000000pt" viewBox="0 0 200.000000 200.000000"
 preserveAspectRatio="xMidYMid meet">
<metadata>
Created by potrace 1.16, written by Peter Selinger 2001-2019
</metadata>
<g transform="translate(0.000000,200.000000) scale(0.100000,-0.100000)"
fill="#000000" stroke="none">
<path d="M951 1794 c-129 -35 -257 -135 -318 -250 -183 -345 62 -754 453 -754
279 0 504 226 505 507 1 178 -86 340 -231 433 -113 72 -281 99 -409 64z m321
-107 c325 -160 325 -614 0 -774 -68 -34 -85 -38 -167 -41 -159 -6 -283 50
-370 169 -174 236 -70 573 207 670 40 14 77 18 154 16 94 -2 105 -4 176 -40z"/>
<path d="M1036 1604 c-9 -8 -16 -26 -16 -39 0 -17 -9 -29 -31 -40 -20 -11 -38
-33 -51 -62 -37 -85 1 -146 122 -193 82 -32 100 -46 100 -79 0 -39 -28 -61
-79 -61 -35 0 -48 6 -72 31 -35 38 -72 37 -77 -2 -4 -33 30 -75 73 -90 25 -9
35 -19 35 -34 0 -12 9 -30 19 -39 27 -25 61 -6 61 34 0 23 5 30 29 35 49 10
91 69 91 127 0 61 -31 94 -138 146 -106 51 -122 72 -83 111 28 28 73 27 109
-4 36 -30 67 -32 82 -6 8 16 5 26 -17 52 -15 17 -42 38 -60 45 -21 9 -33 21
-33 33 0 20 -25 51 -40 51 -5 0 -16 -7 -24 -16z"/>
<path d="M100 921 c-6 -13 -10 -143 -10 -355 0 -291 2 -337 16 -350 13 -13 45
-16 198 -16 128 0 186 4 194 12 7 7 12 34 12 61 l0 49 57 -4 c33 -3 102 -21
158 -42 55 -21 150 -49 210 -63 247 -56 406 -10 741 212 200 133 256 206 223
292 -16 42 -69 83 -106 83 -13 0 -87 -29 -166 -64 -78 -35 -177 -76 -220 -91
l-77 -28 -21 27 c-35 44 -56 50 -214 56 l-151 5 -74 45 -74 45 -143 3 -143 4
0 63 c0 48 -4 64 -16 69 -9 3 -98 6 -199 6 -172 0 -185 -1 -195 -19z m340
-351 l0 -290 -135 0 -135 0 0 290 0 290 135 0 135 0 0 -290z m405 100 l98 -50
136 0 c146 0 174 -7 151 -35 -57 -69 -298 -110 -382 -65 -41 22 -64 18 -73
-11 -8 -25 8 -45 58 -71 44 -22 136 -26 223 -9 65 13 178 55 213 80 15 11 55
27 90 36 79 20 133 41 293 116 71 32 133 59 138 59 15 0 40 -30 40 -49 0 -70
-373 -318 -580 -386 -119 -39 -268 -20 -505 66 -60 22 -138 43 -172 46 l-63 6
0 158 0 159 119 0 118 0 98 -50z"/>
<path d="M304 757 c-3 -8 -4 -45 -2 -83 l3 -69 30 0 30 0 0 80 c0 80 0 80 -28
83 -16 2 -29 -2 -33 -11z"/>
</g>
</svg>
