<?xml version="1.0" standalone="no"?>
<!DOCTYPE svg PUBLIC "-//W3C//DTD SVG 20010904//EN"
 "http://www.w3.org/TR/2001/REC-SVG-20010904/DTD/svg10.dtd">
<svg version="1.0" xmlns="http://www.w3.org/2000/svg"
 width="200.000000pt" height="200.000000pt" viewBox="0 0 200.000000 200.000000"
 preserveAspectRatio="xMidYMid meet">
<metadata>
Created by potrace 1.16, written by Peter Selinger 2001-2019
</metadata>
<g transform="translate(0.000000,200.000000) scale(0.100000,-0.100000)"
fill="#000000" stroke="none">
<path d="M192 1888 c-26 -13 -55 -37 -70 -61 l-27 -41 -3 -730 c-2 -502 0
-743 8 -768 14 -48 55 -97 97 -114 25 -11 104 -14 350 -14 l318 0 -3 132 c-1
73 -5 139 -7 146 -3 9 -47 12 -175 12 -163 0 -170 1 -170 20 0 19 8 20 173 22
l172 3 0 145 0 145 -172 3 c-165 2 -173 3 -173 22 0 19 7 20 180 20 l179 0 16
30 c21 41 81 79 138 86 l48 7 -1 76 c-2 121 -3 119 30 136 17 9 40 13 51 10
11 -4 76 -56 145 -116 l124 -110 0 315 0 316 -165 0 -165 0 0 165 0 165 -427
0 c-414 -1 -429 -2 -471 -22z m705 -249 c62 -30 102 -69 139 -139 27 -50 27
-210 0 -260 -38 -70 -77 -109 -141 -141 -61 -30 -70 -31 -153 -27 -73 3 -96 9
-134 31 -100 58 -153 150 -153 267 0 234 229 373 442 269z m-503 -770 c56 -44
20 -139 -54 -139 -66 0 -97 92 -46 137 34 28 65 29 100 2z m0 -340 c56 -44 20
-139 -54 -139 -66 0 -97 92 -46 137 34 28 65 29 100 2z"/>
<path d="M737 1603 c-4 -3 -7 -16 -7 -29 0 -17 -7 -24 -30 -29 -16 -4 -41 -21
-56 -38 -22 -26 -25 -38 -21 -71 7 -47 44 -86 83 -86 23 0 24 -3 24 -55 l0
-55 -49 0 c-28 0 -53 -5 -57 -12 -11 -17 25 -38 67 -38 33 0 37 -3 43 -30 8
-44 44 -42 48 3 2 26 8 33 30 35 32 4 78 47 79 76 4 65 -19 102 -72 118 -38
11 -39 12 -39 60 l0 48 54 0 c37 0 56 4 59 14 9 23 -15 36 -65 36 -47 0 -48 1
-48 30 0 22 -5 30 -18 30 -10 0 -22 -3 -25 -7z m-7 -153 c0 -41 -3 -50 -18
-50 -44 0 -57 58 -20 84 34 24 38 20 38 -34z m100 -120 c11 -11 20 -27 20 -35
0 -8 -9 -24 -20 -35 -36 -36 -50 -26 -50 35 0 61 14 71 50 35z"/>
<path d="M1140 1752 l0 -132 125 0 c69 0 125 3 125 8 0 4 -56 63 -125 132
l-125 125 0 -133z"/>
<path d="M1118 1125 c-3 -3 -3 -55 0 -115 l5 -110 -52 0 c-68 0 -116 -21 -141
-62 -19 -31 -20 -50 -20 -343 0 -293 1 -312 20 -343 37 -61 48 -62 477 -62
427 0 431 1 477 63 20 27 21 43 24 330 4 427 16 410 -301 417 l-212 5 -123
110 c-119 106 -141 122 -154 110z m478 -328 c6 -17 -333 -606 -353 -614 -47
-18 -29 26 122 288 87 151 166 289 177 307 20 33 45 42 54 19z m-303 -27 c80
-63 37 -190 -65 -190 -28 0 -47 8 -70 29 -28 25 -33 36 -33 76 0 40 5 51 33
76 40 36 96 39 135 9z m353 -378 c55 -46 59 -109 10 -158 -70 -70 -175 -26
-176 73 0 59 44 103 103 103 25 -1 51 -8 63 -18z"/>
<path d="M1196 729 c-42 -33 -29 -82 27 -102 22 -8 67 33 67 62 0 18 -42 61
-60 61 -4 0 -19 -9 -34 -21z"/>
<path d="M1559 356 c-27 -13 -38 -68 -18 -92 15 -19 64 -18 83 2 46 46 -7 119
-65 90z"/>
</g>
</svg>
