<?xml version="1.0" standalone="no"?>
<!DOCTYPE svg PUBLIC "-//W3C//DTD SVG 20010904//EN"
 "http://www.w3.org/TR/2001/REC-SVG-20010904/DTD/svg10.dtd">
<svg version="1.0" xmlns="http://www.w3.org/2000/svg"
 width="200.000000pt" height="200.000000pt" viewBox="0 0 200.000000 200.000000"
 preserveAspectRatio="xMidYMid meet">
<metadata>
Created by potrace 1.16, written by Peter Selinger 2001-2019
</metadata>
<g transform="translate(0.000000,200.000000) scale(0.100000,-0.100000)"
fill="#000000" stroke="none">
<path d="M416 1912 l-69 -26 -59 21 -58 22 0 -865 c0 -945 -3 -905 59 -957 70
-59 169 -56 229 7 45 46 52 74 52 217 0 100 3 131 14 135 7 3 39 -6 70 -20
l57 -25 59 26 60 26 60 -26 60 -26 60 26 60 26 60 -26 60 -26 60 26 60 26 60
-26 60 -27 58 26 c31 14 65 23 74 20 17 -4 18 35 18 730 l0 734 -52 -20 c-67
-25 -71 -25 -146 4 l-62 24 -66 -26 -67 -26 -72 25 -72 26 -68 -25 -69 -26
-71 25 -70 26 -69 -26 -69 -25 -71 26 -71 25 -69 -25z m419 -111 c22 -10 57
-33 78 -50 l36 -32 50 40 c64 50 109 66 191 65 218 -2 357 -227 259 -422 -54
-110 -142 -162 -268 -162 -76 0 -147 28 -196 78 l-29 30 -39 -33 c-61 -52
-104 -69 -188 -73 -61 -3 -86 0 -123 16 l-45 21 -3 -137 -3 -137 -75 0 -75 0
-3 238 -2 237 -35 0 c-18 0 -36 4 -39 8 -9 15 185 262 226 290 81 53 193 63
283 23z m645 -671 c0 -20 -7 -20 -424 -20 -273 0 -427 4 -431 10 -3 6 -3 15 0
20 4 6 158 10 431 10 417 0 424 0 424 -20z m0 -110 c0 -20 -7 -20 -424 -20
-273 0 -427 4 -431 10 -3 6 -3 15 0 20 4 6 158 10 431 10 417 0 424 0 424 -20z
m0 -110 c0 -20 -7 -20 -575 -20 -568 0 -575 0 -575 20 0 20 7 20 575 20 568 0
575 0 575 -20z m-2 -107 c-3 -17 -38 -18 -573 -18 -535 0 -570 1 -573 18 -3
16 29 17 573 17 544 0 576 -1 573 -17z m0 -110 c-3 -17 -38 -18 -573 -18 -535
0 -570 1 -573 18 -3 16 29 17 573 17 544 0 576 -1 573 -17z m0 -110 c-3 -17
-39 -18 -567 -21 -556 -2 -603 0 -585 29 3 5 257 9 580 9 543 0 575 -1 572
-17z"/>
<path d="M649 1781 c-44 -14 -73 -32 -111 -68 l-37 -36 69 -90 c38 -50 66 -95
64 -99 -3 -4 -21 -8 -40 -8 l-34 0 0 -79 0 -79 48 -22 c126 -60 277 -8 338
117 81 165 -28 359 -209 369 -34 2 -74 0 -88 -5z m89 -109 c3 -26 7 -32 28
-32 14 0 24 -6 24 -14 0 -9 -17 -15 -55 -18 -61 -5 -79 -16 -69 -41 4 -12 18
-17 46 -17 28 0 46 -7 63 -25 32 -32 31 -51 -4 -84 -16 -15 -31 -40 -33 -57
-2 -18 -10 -30 -20 -32 -15 -3 -18 4 -18 32 0 34 -2 36 -34 36 -19 0 -37 4
-40 9 -11 16 20 30 74 33 47 3 55 6 55 23 0 16 -9 21 -49 27 -52 7 -70 19 -80
54 -8 26 28 74 55 74 15 0 19 7 19 36 0 28 3 35 18 32 11 -2 18 -14 20 -36z"/>
<path d="M1107 1776 c-47 -17 -113 -62 -121 -83 -4 -8 1 -35 9 -59 20 -58 19
-148 -1 -208 l-16 -47 28 -31 c55 -58 165 -89 241 -69 162 44 241 217 168 367
-56 114 -192 171 -308 130z m207 -88 c-1 -7 -52 -85 -114 -171 -79 -109 -120
-157 -133 -157 -28 0 -22 10 110 190 106 146 140 179 137 138z m-172 -5 c26
-23 25 -96 -2 -123 -27 -27 -55 -25 -79 6 -57 72 15 177 81 117z m172 -185 c9
-12 16 -38 16 -58 0 -48 -24 -80 -60 -80 -50 0 -77 68 -49 123 23 43 68 50 93
15z"/>
<path d="M1084 1656 c-9 -22 0 -69 13 -73 19 -7 34 32 23 61 -10 29 -28 34
-36 12z"/>
<path d="M1254 1465 c-7 -30 2 -75 16 -75 6 0 15 11 20 25 10 27 -2 75 -20 75
-5 0 -12 -11 -16 -25z"/>
<path d="M431 1577 c-22 -30 -41 -57 -41 -60 0 -4 11 -7 25 -7 l25 0 0 -235 0
-235 40 0 40 0 0 235 0 235 25 0 c14 0 25 3 25 7 0 11 -80 113 -89 113 -5 0
-27 -24 -50 -53z"/>
<path d="M770 404 c-58 -26 -61 -26 -152 14 -5 2 -8 -47 -8 -110 0 -120 -16
-176 -62 -225 l-21 -23 545 0 c380 0 555 3 579 11 43 15 88 55 105 96 12 29
21 253 10 253 -2 0 -24 -9 -49 -20 l-46 -21 -60 25 -59 25 -61 -24 -61 -25
-59 25 -59 24 -61 -24 -61 -25 -59 25 -59 24 -61 -24 -61 -25 -60 25 c-33 14
-61 25 -62 24 -2 0 -28 -11 -58 -25z"/>
</g>
</svg>
