<?xml version="1.0" standalone="no"?>
<!DOCTYPE svg PUBLIC "-//W3C//DTD SVG 20010904//EN"
 "http://www.w3.org/TR/2001/REC-SVG-20010904/DTD/svg10.dtd">
<svg version="1.0" xmlns="http://www.w3.org/2000/svg"
 width="200.000000pt" height="200.000000pt" viewBox="0 0 200.000000 200.000000"
 preserveAspectRatio="xMidYMid meet">
<metadata>
Created by potrace 1.16, written by Peter Selinger 2001-2019
</metadata>
<g transform="translate(0.000000,200.000000) scale(0.100000,-0.100000)"
fill="#000000" stroke="none">
<path d="M540 1890 c-19 -19 -20 -33 -20 -469 l0 -449 -184 -4 c-168 -3 -187
-5 -213 -24 -61 -45 -63 -56 -63 -417 0 -363 3 -381 62 -417 32 -20 48 -20
825 -20 l792 0 20 26 c20 26 21 39 21 308 l0 281 41 118 c26 74 47 117 56 117
28 0 24 -33 -17 -151 -32 -90 -40 -123 -31 -132 17 -17 24 -3 70 130 45 133
46 167 5 185 -21 10 -23 16 -18 44 3 17 1 41 -5 52 -8 15 -7 31 4 62 19 54 19
63 -2 89 -19 24 -45 29 -80 17 l-23 -7 0 163 0 163 -177 177 -178 178 -432 0
c-420 0 -434 -1 -453 -20z m852 -176 c3 -140 5 -157 22 -170 15 -11 57 -14
173 -14 l153 0 0 -198 c0 -189 -1 -200 -21 -218 -31 -28 -32 -31 -156 -383
l-114 -326 7 -111 c6 -112 13 -140 32 -133 6 2 44 42 85 87 70 79 76 91 118
209 l44 124 3 -213 c1 -117 0 -218 -2 -225 -4 -10 -109 -13 -505 -13 l-500 0
15 35 c11 28 14 99 14 362 0 293 -2 332 -18 362 -25 50 -58 70 -129 77 l-63 7
0 429 c0 277 4 436 10 449 10 18 26 19 420 19 l409 0 3 -156z m133 44 c44 -46
102 -107 130 -135 l49 -53 -137 0 -137 0 0 135 c0 74 3 135 8 135 4 0 43 -37
87 -82z m319 -554 c23 -9 18 -59 -9 -92 -1 -1 -14 2 -28 7 -24 9 -26 13 -16
38 9 25 27 53 34 53 2 0 10 -3 19 -6z m-24 -128 c15 -7 26 -21 28 -36 2 -21
-47 -173 -109 -337 l-8 -22 -63 21 c-35 11 -64 22 -65 22 -7 5 118 341 133
357 18 20 33 19 84 -5z m-1124 -179 l24 -28 0 -335 c0 -351 -3 -382 -45 -398
-22 -8 -508 -8 -530 0 -41 16 -45 47 -45 394 0 207 4 338 10 350 25 46 49 50
313 47 l249 -2 24 -28z m1021 -251 c2 -2 -96 -279 -101 -283 -2 -3 -104 35
-118 43 -6 4 36 134 83 261 l8 22 63 -21 c35 -11 64 -21 65 -22z m-152 -306
l27 -10 -43 -51 c-49 -58 -57 -53 -58 35 -1 46 0 48 24 42 13 -3 36 -11 50
-16z"/>
<path d="M1075 1469 c-16 -25 20 -29 236 -27 191 3 224 5 224 18 0 13 -33 15
-227 18 -157 2 -229 -1 -233 -9z"/>
<path d="M766 1454 c-46 -45 -22 -144 34 -144 31 0 60 39 60 82 0 63 -56 100
-94 62z m49 -65 c0 -24 -5 -34 -15 -34 -16 0 -25 37 -16 62 10 26 31 8 31 -28z"/>
<path d="M882 1333 c-132 -185 -135 -190 -122 -198 7 -4 18 -1 25 6 30 30 225
305 225 317 0 36 -39 -2 -128 -125z"/>
<path d="M1075 1309 c-16 -25 20 -29 236 -27 191 3 224 5 224 18 0 13 -33 15
-227 18 -157 2 -229 -1 -233 -9z"/>
<path d="M933 1282 c-23 -15 -34 -63 -22 -99 17 -52 55 -67 89 -33 27 27 28
100 2 123 -20 18 -49 22 -69 9z m57 -67 c0 -6 -7 -20 -15 -31 -13 -16 -16 -17
-25 -4 -13 21 -12 54 2 68 10 10 15 9 25 -5 7 -9 13 -22 13 -28z"/>
<path d="M1075 1149 c-16 -25 20 -29 236 -27 191 3 224 5 224 18 0 13 -33 15
-227 18 -157 2 -229 -1 -233 -9z"/>
<path d="M877 994 c-4 -4 -7 -20 -7 -36 0 -18 -5 -28 -15 -28 -23 0 -55 -37
-55 -65 0 -34 32 -59 83 -65 34 -4 42 -9 42 -25 0 -17 -8 -21 -60 -25 -44 -4
-60 -9 -60 -20 0 -10 12 -16 32 -18 28 -3 32 -7 35 -35 4 -47 32 -43 36 6 2
22 8 37 16 37 8 0 18 6 24 13 38 47 11 97 -59 106 -35 5 -44 10 -44 26 0 17 8
21 55 25 40 4 55 9 55 20 0 8 -10 16 -22 18 -16 2 -23 11 -25 34 -3 31 -17 45
-31 32z"/>
<path d="M1075 989 c-16 -25 20 -29 236 -27 191 3 224 5 224 18 0 13 -33 15
-227 18 -157 2 -229 -1 -233 -9z"/>
<path d="M1075 829 c-16 -25 20 -29 236 -27 191 3 224 5 224 18 0 13 -33 15
-227 18 -157 2 -229 -1 -233 -9z"/>
<path d="M1075 670 c-16 -26 14 -30 206 -30 192 0 199 1 199 20 0 19 -7 20
-199 20 -123 0 -202 -4 -206 -10z"/>
<path d="M160 873 c-18 -23 -21 -37 -17 -77 7 -76 7 -76 269 -76 219 0 229 1
249 21 18 18 21 30 17 77 -3 38 -11 59 -23 68 -15 11 -71 14 -246 14 l-228 0
-21 -27z m475 -63 l0 -45 -225 0 -225 0 -3 33 c-6 65 -15 63 230 60 l223 -3 0
-45z"/>
<path d="M137 672 c-25 -27 -23 -106 3 -132 27 -27 110 -28 133 -2 24 26 23
113 -1 135 -26 24 -113 23 -135 -1z m113 -67 l0 -45 -45 0 -45 0 0 45 0 45 45
0 45 0 0 -45z"/>
<path d="M342 678 c-20 -20 -15 -122 6 -141 24 -22 105 -23 126 -1 31 30 33
107 5 141 -14 17 -120 18 -137 1z m116 -70 l-3 -43 -45 0 -45 0 -3 43 -3 42
51 0 51 0 -3 -42z"/>
<path d="M547 672 c-24 -26 -23 -113 1 -135 24 -22 100 -22 130 -1 29 20 32
112 4 137 -26 24 -113 23 -135 -1z m113 -67 l0 -45 -45 0 -45 0 0 45 0 45 45
0 45 0 0 -45z"/>
<path d="M137 492 c-24 -26 -23 -113 1 -135 26 -24 113 -23 135 1 24 26 23
113 -1 135 -26 24 -113 23 -135 -1z m113 -67 l0 -45 -45 0 -45 0 0 45 0 45 45
0 45 0 0 -45z"/>
<path d="M344 496 c-27 -20 -27 -122 1 -142 25 -18 106 -18 131 0 28 21 28
121 0 142 -25 18 -107 18 -132 0z m111 -71 l0 -40 -45 0 c-42 0 -45 2 -48 28
-6 49 3 58 50 55 43 -3 43 -3 43 -43z"/>
<path d="M542 498 c-8 -8 -12 -59 -12 -164 0 -176 2 -179 85 -179 83 0 85 4
85 172 0 80 -5 153 -10 164 -9 16 -22 19 -73 19 -36 0 -68 -5 -75 -12z m118
-168 l0 -140 -45 0 -45 0 0 140 0 140 45 0 45 0 0 -140z"/>
<path d="M140 310 c-25 -25 -28 -110 -5 -134 33 -32 125 -28 147 7 4 7 8 33 8
60 0 63 -23 87 -85 87 -32 0 -51 -6 -65 -20z m108 -67 l-3 -48 -40 0 -40 0 -3
48 -3 47 46 0 46 0 -3 -47z"/>
<path d="M344 309 c-14 -15 -19 -35 -18 -70 1 -66 19 -84 84 -84 61 0 80 17
87 76 4 35 0 50 -17 72 -18 23 -29 27 -69 27 -36 0 -53 -5 -67 -21z m111 -69
l0 -45 -45 0 c-44 0 -45 1 -48 33 -5 54 2 64 50 60 l43 -3 0 -45z"/>
</g>
</svg>
