<?xml version="1.0" standalone="no"?>
<!DOCTYPE svg PUBLIC "-//W3C//DTD SVG 20010904//EN"
 "http://www.w3.org/TR/2001/REC-SVG-20010904/DTD/svg10.dtd">
<svg version="1.0" xmlns="http://www.w3.org/2000/svg"
 width="200.000000pt" height="200.000000pt" viewBox="0 0 200.000000 200.000000"
 preserveAspectRatio="xMidYMid meet">
<metadata>
Created by potrace 1.16, written by Peter Selinger 2001-2019
</metadata>
<g transform="translate(0.000000,200.000000) scale(0.100000,-0.100000)"
fill="#000000" stroke="none">
<path d="M557 1923 c-4 -3 -7 -222 -7 -485 l0 -478 55 0 c67 0 109 -20 135
-63 19 -30 20 -53 20 -403 0 -310 -2 -373 -15 -390 -8 -10 -15 -22 -15 -26 0
-5 238 -8 529 -8 436 0 531 2 540 14 8 9 11 83 9 246 l-3 233 -50 -138 c-48
-136 -51 -141 -129 -227 -47 -53 -86 -88 -95 -86 -13 3 -18 27 -25 128 l-8
125 121 348 c131 376 141 401 171 417 19 10 20 21 20 220 l0 210 -168 0 c-151
0 -171 2 -185 18 -14 16 -17 44 -17 185 l0 167 -438 0 c-241 0 -442 -3 -445
-7z m1033 -433 c0 -19 -7 -20 -244 -20 -236 0 -267 4 -251 30 4 6 98 10 251
10 237 0 244 -1 244 -20z m-740 -10 c14 -14 20 -33 20 -65 0 -112 -120 -114
-123 -1 -2 72 58 111 103 66z m180 6 c0 -7 -54 -88 -120 -180 -109 -150 -150
-192 -150 -152 0 7 54 88 121 180 109 150 149 191 149 152z m560 -166 c0 -19
-7 -20 -244 -20 -236 0 -267 4 -251 30 4 6 98 10 251 10 237 0 244 -1 244 -20z
m-564 -35 c35 -54 10 -145 -41 -145 -40 0 -65 33 -65 85 0 77 69 116 106 60z
m564 -135 c0 -19 -7 -20 -244 -20 -236 0 -267 4 -251 30 4 6 98 10 251 10 237
0 244 -1 244 -20z m-670 -191 c4 -28 10 -35 33 -37 46 -6 34 -32 -15 -32 -67
0 -90 -9 -86 -34 2 -17 12 -22 52 -27 54 -6 76 -26 76 -70 0 -18 -9 -35 -27
-49 -17 -13 -30 -35 -33 -53 -7 -46 -34 -42 -38 6 -3 35 -5 37 -38 37 -24 0
-34 5 -34 15 0 11 11 15 43 15 66 0 89 9 85 34 -2 17 -12 22 -49 26 -26 3 -54
12 -63 19 -35 29 -9 111 36 111 14 0 18 8 18 33 0 59 32 64 40 6z m670 21 c0
-19 -7 -20 -244 -20 -236 0 -267 4 -251 30 4 6 98 10 251 10 237 0 244 -1 244
-20z m0 -170 c0 -19 -7 -20 -244 -20 -236 0 -267 4 -251 30 4 6 98 10 251 10
237 0 244 -1 244 -20z m-60 -170 c0 -19 -7 -20 -214 -20 -207 0 -237 4 -221
30 4 6 88 10 221 10 207 0 214 -1 214 -20z"/>
<path d="M791 1441 c-13 -24 3 -75 22 -68 15 5 16 79 0 84 -6 2 -16 -5 -22
-16z"/>
<path d="M964 1256 c-9 -22 0 -69 13 -73 20 -7 37 36 24 63 -12 27 -29 31 -37
10z"/>
<path d="M1480 1752 l0 -152 145 0 c80 0 145 3 145 8 0 4 -65 72 -145 152
l-145 145 0 -153z"/>
<path d="M1869 1180 c-14 -45 -13 -46 22 -55 23 -6 26 -2 37 31 13 42 3 64
-29 64 -13 0 -22 -12 -30 -40z"/>
<path d="M1795 1076 c-9 -13 -42 -101 -75 -195 l-60 -172 28 -10 c64 -25 105
-39 109 -36 13 13 123 347 123 374 0 29 -5 36 -35 49 -49 20 -72 18 -90 -10z"/>
<path d="M104 902 c-43 -34 -44 -47 -44 -402 0 -372 3 -394 56 -419 17 -7 112
-11 285 -11 l261 0 29 29 29 29 0 367 0 367 -29 29 -29 29 -269 0 c-239 0
-270 -2 -289 -18z m560 -34 c9 -12 16 -43 16 -68 0 -25 -7 -56 -16 -68 -15
-22 -18 -22 -274 -22 -296 0 -280 -5 -280 91 0 91 -7 89 286 89 250 0 253 0
268 -22z m-414 -213 c7 -9 15 -38 18 -65 4 -42 1 -52 -21 -74 -33 -33 -102
-36 -138 -7 -20 16 -24 29 -24 74 0 75 13 87 90 87 44 0 66 -5 75 -15z m218 3
c7 -7 12 -39 12 -74 0 -54 -3 -65 -22 -78 -32 -23 -100 -20 -132 5 -22 17 -26
28 -26 71 0 72 17 88 95 88 34 0 66 -5 73 -12z m216 -4 c20 -20 21 -113 2
-140 -12 -15 -27 -19 -76 -19 -75 0 -90 15 -90 91 0 70 15 84 90 84 40 0 64
-5 74 -16z m-438 -188 c15 -12 19 -27 19 -76 0 -75 -15 -90 -90 -90 -75 0 -90
15 -90 90 0 75 15 90 90 90 28 0 60 -6 71 -14z m216 -3 c13 -12 18 -31 18 -74
0 -76 -13 -89 -90 -89 -49 0 -61 4 -74 22 -23 33 -21 113 4 138 26 26 114 28
142 3z m219 7 c18 -10 19 -23 19 -175 0 -158 -1 -164 -22 -179 -29 -20 -107
-20 -136 0 -21 15 -22 21 -22 174 0 187 1 190 86 190 31 0 64 -5 75 -10z
m-427 -212 c9 -12 16 -42 16 -66 0 -60 -33 -92 -93 -92 -68 0 -92 24 -92 93 0
75 13 87 91 87 54 0 65 -3 78 -22z m214 10 c7 -7 12 -39 12 -74 0 -54 -3 -65
-22 -78 -32 -23 -100 -20 -132 5 -22 17 -26 28 -26 71 0 72 17 88 95 88 34 0
66 -5 73 -12z"/>
<path d="M154 836 c-3 -8 -4 -31 -2 -52 l3 -39 240 0 240 0 0 50 0 50 -238 3
c-197 2 -238 0 -243 -12z"/>
<path d="M138 629 c-11 -6 -18 -22 -18 -42 0 -49 11 -59 61 -55 43 3 44 4 47
43 3 29 -1 43 -14 52 -21 15 -52 16 -76 2z"/>
<path d="M352 631 c-9 -5 -12 -24 -10 -52 l3 -44 48 -3 47 -3 0 49 c0 36 -4
52 -16 56 -22 8 -57 7 -72 -3z"/>
<path d="M572 631 c-9 -5 -12 -24 -10 -52 l3 -44 45 0 45 0 3 44 c4 48 -6 61
-48 61 -14 0 -31 -4 -38 -9z"/>
<path d="M127 434 c-4 -4 -7 -25 -7 -46 0 -31 5 -41 25 -50 18 -8 35 -9 53 -2
24 8 27 15 27 54 l0 45 -45 3 c-25 2 -49 0 -53 -4z"/>
<path d="M347 433 c-4 -3 -7 -26 -7 -49 0 -38 3 -44 25 -50 14 -3 36 -3 50 0
22 6 25 11 25 56 l0 50 -43 0 c-24 0 -47 -3 -50 -7z"/>
<path d="M560 290 l0 -150 50 0 50 0 0 150 0 150 -50 0 -50 0 0 -150z"/>
<path d="M138 239 c-11 -6 -18 -22 -18 -42 0 -49 11 -59 61 -55 43 3 44 4 47
43 3 29 -1 43 -14 52 -21 15 -52 16 -76 2z"/>
<path d="M352 241 c-9 -5 -12 -24 -10 -52 l3 -44 48 -3 47 -3 0 49 c0 36 -4
52 -16 56 -22 8 -57 7 -72 -3z"/>
<path d="M1598 533 c-26 -76 -49 -144 -50 -151 -2 -8 22 -23 62 -37 35 -13 65
-23 66 -22 4 5 104 288 104 295 0 7 -66 33 -125 50 -5 1 -31 -60 -57 -135z"/>
<path d="M1541 279 c1 -24 4 -57 8 -73 l6 -30 49 55 48 54 -29 12 c-17 6 -42
15 -57 19 -25 6 -26 5 -25 -37z"/>
</g>
</svg>
