<?xml version="1.0" standalone="no"?>
<!DOCTYPE svg PUBLIC "-//W3C//DTD SVG 20010904//EN"
 "http://www.w3.org/TR/2001/REC-SVG-20010904/DTD/svg10.dtd">
<svg version="1.0" xmlns="http://www.w3.org/2000/svg"
 width="200.000000pt" height="200.000000pt" viewBox="0 0 200.000000 200.000000"
 preserveAspectRatio="xMidYMid meet">
<metadata>
Created by potrace 1.16, written by Peter Selinger 2001-2019
</metadata>
<g transform="translate(0.000000,200.000000) scale(0.100000,-0.100000)"
fill="#000000" stroke="none">
<path d="M227 1933 c-12 -11 -8 -1684 4 -1726 6 -21 26 -56 46 -78 63 -69 60
-69 720 -69 393 0 598 4 628 11 65 16 121 69 140 131 20 67 21 276 2 284 -7 2
-38 -6 -68 -20 -50 -22 -57 -23 -82 -10 l-27 15 0 734 c0 404 -3 735 -7 735
-4 0 -38 -12 -75 -26 l-67 -27 -65 27 -66 26 -68 -25 -68 -26 -67 26 -67 25
-66 -26 -65 -27 -67 27 -67 26 -67 -26 -66 -27 -67 27 -67 27 -67 -26 -67 -26
-68 25 c-78 30 -71 28 -79 19z m349 -59 l65 -27 67 27 67 26 67 -26 66 -27 65
26 66 26 68 -25 69 -25 67 25 68 25 65 -25 65 -26 55 21 c31 11 58 21 60 21 2
0 4 -315 4 -700 l0 -700 -22 -1 c-13 0 -45 -10 -73 -23 l-50 -23 -58 25 -58
25 -57 -25 -58 -25 -57 25 -58 25 -57 -25 -58 -25 -57 25 -58 25 -59 -25 -59
-26 -51 24 c-82 38 -80 41 -80 -104 0 -113 -3 -133 -22 -172 -26 -51 -89 -90
-146 -90 -45 0 -105 33 -134 72 l-23 33 -3 844 c-2 803 -1 843 15 836 97 -39
94 -39 158 -12 33 14 63 26 67 26 4 1 37 -11 74 -25z m324 -1448 l52 -24 59
25 59 26 57 -26 56 -25 59 25 58 26 57 -26 56 -25 59 25 58 26 57 -26 56 -25
44 19 c25 10 47 19 49 19 2 0 4 -48 4 -107 0 -127 -19 -172 -85 -210 l-40 -23
-534 0 -534 0 20 23 c45 48 56 88 61 205 3 78 8 112 16 108 6 -2 27 -11 46
-19 33 -14 38 -13 85 8 64 30 63 30 125 1z"/>
<path d="M622 1775 c-18 -8 -46 -24 -63 -35 -29 -21 -197 -239 -202 -262 -1
-7 13 -15 33 -18 l35 -5 3 -227 2 -228 69 0 c54 0 70 4 75 16 3 9 6 67 6 130
0 63 2 114 4 114 2 0 20 -7 39 -15 21 -8 67 -15 105 -15 56 0 80 5 129 30 33
17 68 39 78 50 17 19 18 19 58 -15 78 -67 201 -86 292 -46 76 34 111 66 144
132 95 190 -36 409 -244 409 -78 0 -142 -22 -193 -65 -39 -34 -40 -34 -57 -15
-10 11 -45 33 -78 50 -50 25 -72 30 -131 30 -39 -1 -86 -7 -104 -15z m217 -45
c85 -44 135 -125 135 -220 0 -97 -50 -176 -139 -223 -57 -29 -155 -29 -212 1
l-43 22 0 75 0 75 35 0 c19 0 35 5 35 11 0 6 -29 48 -64 94 -61 77 -64 83 -50
103 18 26 94 72 137 83 45 11 123 1 166 -21z m452 0 c87 -45 149 -162 134
-253 -29 -173 -213 -265 -364 -182 -29 16 -60 40 -68 52 -14 20 -13 27 1 63
20 50 21 144 1 199 -8 23 -12 47 -9 55 10 25 87 74 139 87 42 11 123 0 166
-21z m-742 -177 c23 -29 41 -55 41 -58 0 -3 -11 -5 -25 -5 l-25 0 0 -225 0
-225 -40 0 -40 0 0 224 0 225 -26 3 -25 3 43 57 c24 31 46 56 49 55 4 -1 25
-25 48 -54z"/>
<path d="M717 1684 c-4 -4 -7 -20 -7 -35 0 -19 -6 -30 -20 -34 -29 -9 -50 -33
-50 -59 0 -39 24 -59 76 -65 40 -5 49 -10 49 -26 0 -17 -8 -21 -60 -25 -44 -4
-60 -9 -60 -20 0 -10 12 -16 32 -18 28 -3 32 -7 35 -35 4 -42 32 -44 36 -2 2
17 14 39 29 51 29 23 34 67 10 92 -9 8 -36 18 -59 21 -34 5 -43 10 -43 26 0
17 8 21 55 25 40 4 55 9 55 20 0 8 -10 16 -22 18 -16 2 -23 11 -25 34 -3 31
-17 45 -31 32z"/>
<path d="M1060 1660 c-24 -24 -27 -86 -4 -118 36 -51 111 -1 100 67 -10 65
-57 90 -96 51z m55 -61 c0 -24 -5 -35 -17 -37 -14 -3 -18 4 -18 31 0 18 3 37
7 41 15 14 28 -2 28 -35z"/>
<path d="M1227 1608 c-144 -196 -178 -248 -172 -258 3 -5 10 -10 15 -10 15 0
242 319 235 330 -12 20 -25 9 -78 -62z"/>
<path d="M1226 1484 c-46 -45 -22 -144 34 -144 11 0 29 10 40 23 18 18 21 31
17 66 -7 64 -54 92 -91 55z m49 -65 c0 -24 -5 -34 -15 -34 -16 0 -25 37 -16
62 10 26 31 8 31 -28z"/>
<path d="M640 1126 c0 -8 7 -17 16 -20 20 -8 768 -8 788 0 9 3 16 12 16 20 0
12 -66 14 -410 14 -344 0 -410 -2 -410 -14z"/>
<path d="M645 1030 c-3 -5 -3 -14 0 -20 4 -6 152 -10 411 -10 381 0 405 1 402
18 -3 16 -32 17 -405 20 -263 1 -404 -1 -408 -8z"/>
<path d="M357 923 c-4 -3 -2 -12 4 -20 9 -10 110 -13 539 -13 291 0 535 3 544
6 9 3 16 12 16 20 0 12 -86 14 -548 14 -302 0 -552 -3 -555 -7z"/>
<path d="M355 820 c-3 -5 -3 -14 0 -20 4 -6 200 -10 556 -10 519 0 550 1 547
18 -3 16 -38 17 -550 20 -360 1 -549 -1 -553 -8z"/>
<path d="M354 709 c-3 -6 0 -15 7 -20 8 -5 256 -8 554 -6 505 2 540 3 543 20
3 16 -28 17 -547 17 -393 0 -552 -3 -557 -11z"/>
<path d="M355 610 c-3 -5 -3 -14 0 -20 4 -6 200 -10 556 -10 519 0 550 1 547
18 -3 16 -38 17 -550 20 -360 1 -549 -1 -553 -8z"/>
</g>
</svg>
