<?xml version="1.0" standalone="no"?>
<!DOCTYPE svg PUBLIC "-//W3C//DTD SVG 20010904//EN"
 "http://www.w3.org/TR/2001/REC-SVG-20010904/DTD/svg10.dtd">
<svg version="1.0" xmlns="http://www.w3.org/2000/svg"
 width="200.000000pt" height="200.000000pt" viewBox="0 0 200.000000 200.000000"
 preserveAspectRatio="xMidYMid meet">
<metadata>
Created by potrace 1.16, written by Peter Selinger 2001-2019
</metadata>
<g transform="translate(0.000000,200.000000) scale(0.100000,-0.100000)"
fill="#000000" stroke="none">
<path d="M244 1930 c-57 -23 -54 22 -54 -933 l0 -879 29 -29 29 -29 655 0 655
0 31 26 c24 19 31 34 31 60 0 30 -3 34 -25 34 -18 0 -28 -7 -35 -25 l-10 -25
-647 2 -648 3 0 865 0 865 650 0 650 0 5 -355 c3 -195 7 -356 8 -357 1 -2 11
-3 22 -3 38 0 41 27 38 378 -3 306 -5 341 -21 365 -10 16 -29 32 -43 37 -32
12 -1291 12 -1320 0z"/>
<path d="M435 1711 c-49 -21 -60 -48 -60 -145 0 -109 14 -139 72 -155 50 -14
865 -15 914 -1 64 18 74 39 74 151 0 94 -1 100 -28 126 l-27 28 -463 2 c-254
1 -471 -2 -482 -6z m930 -151 l0 -85 -460 0 -460 0 -3 74 c-2 41 -1 80 2 88 5
11 86 13 463 11 l458 -3 0 -85z"/>
<path d="M384 1265 c-4 -8 -4 -22 0 -30 8 -23 1027 -23 1046 0 10 12 10 18 0
30 -11 13 -82 15 -527 15 -447 0 -514 -2 -519 -15z"/>
<path d="M1273 1111 c-165 -42 -306 -200 -335 -374 -22 -135 31 -293 132 -394
264 -262 708 -116 772 254 33 192 -76 396 -257 483 -64 31 -80 34 -175 36 -58
2 -119 -1 -137 -5z m289 -89 c155 -76 248 -257 218 -420 -30 -167 -157 -292
-328 -324 -163 -30 -340 62 -416 218 -25 50 -30 74 -34 154 -3 80 0 104 18
153 41 108 135 200 245 240 38 13 72 17 141 14 79 -2 100 -7 156 -35z"/>
<path d="M1372 928 c-7 -7 -12 -19 -12 -28 0 -11 -15 -21 -40 -29 -71 -21
-103 -114 -64 -180 24 -41 48 -52 127 -58 76 -6 97 -18 97 -59 0 -39 -26 -54
-90 -54 -59 0 -90 15 -90 44 0 8 -7 19 -16 26 -12 11 -18 11 -31 -2 -33 -34
11 -110 73 -127 19 -5 30 -16 34 -32 8 -34 52 -34 60 0 4 17 15 27 37 33 70
18 104 107 68 178 -21 41 -49 53 -135 59 -70 6 -75 8 -84 33 -7 18 -6 35 2 53
11 23 16 25 82 25 l71 0 14 -34 c18 -42 31 -52 50 -36 38 32 -2 112 -65 131
-25 8 -40 18 -40 29 0 16 -18 40 -30 40 -3 0 -11 -5 -18 -12z"/>
<path d="M384 1075 c-4 -8 -4 -22 0 -30 8 -23 627 -23 646 0 10 12 10 18 0 30
-11 13 -60 15 -327 15 -270 0 -314 -2 -319 -15z"/>
<path d="M390 892 c-21 -17 -21 -19 -5 -35 15 -16 42 -17 262 -15 225 3 247 5
257 21 9 15 7 21 -8 33 -16 11 -65 14 -252 14 -209 0 -234 -2 -254 -18z"/>
<path d="M386 705 c-19 -19 -11 -41 17 -49 12 -3 115 -6 228 -6 163 0 209 3
225 14 15 12 17 18 8 33 -10 16 -32 18 -237 21 -192 2 -227 0 -241 -13z"/>
<path d="M384 515 c-4 -8 -4 -22 0 -30 5 -13 39 -15 253 -13 l248 3 0 25 0 25
-248 3 c-214 2 -248 0 -253 -13z"/>
<path d="M384 325 c-4 -8 -4 -22 0 -30 5 -13 47 -15 299 -15 309 0 327 3 311
44 -5 14 -38 16 -305 16 -257 0 -300 -2 -305 -15z"/>
</g>
</svg>
