<?xml version="1.0" standalone="no"?>
<!DOCTYPE svg PUBLIC "-//W3C//DTD SVG 20010904//EN"
 "http://www.w3.org/TR/2001/REC-SVG-20010904/DTD/svg10.dtd">
<svg version="1.0" xmlns="http://www.w3.org/2000/svg"
 width="200.000000pt" height="200.000000pt" viewBox="0 0 200.000000 200.000000"
 preserveAspectRatio="xMidYMid meet">
<metadata>
Created by potrace 1.16, written by Peter Selinger 2001-2019
</metadata>
<g transform="translate(0.000000,200.000000) scale(0.100000,-0.100000)"
fill="#000000" stroke="none">
<path d="M506 1725 c-33 -33 -46 -133 -25 -196 18 -55 42 -69 115 -69 73 0 71
-2 54 91 -15 77 -56 156 -90 174 -36 18 -35 18 -54 0z"/>
<path d="M620 1737 c0 -3 12 -25 26 -51 39 -69 54 -140 54 -252 l0 -100 34
-33 c19 -18 46 -60 61 -93 32 -72 36 -169 10 -236 l-18 -43 34 -35 34 -35 3
-227 c2 -125 0 -241 -3 -259 -3 -18 -17 -46 -30 -62 -23 -27 -24 -29 -6 -34
49 -12 75 47 69 161 l-3 77 343 3 342 2 0 463 c0 254 -5 495 -10 535 -11 84
-41 160 -77 194 l-25 23 -419 3 c-230 1 -419 1 -419 -1z m775 -257 c0 -13 -37
-15 -262 -18 -216 -2 -263 0 -263 11 0 8 3 17 7 20 4 4 122 6 262 5 220 -3
256 -5 256 -18z m0 -190 c0 -13 -37 -15 -262 -18 -216 -2 -263 0 -263 11 0 8
3 17 7 20 4 4 122 6 262 5 220 -3 256 -5 256 -18z m0 -190 c0 -13 -37 -15
-262 -18 -216 -2 -263 0 -263 11 0 8 3 17 7 20 4 4 122 6 262 5 220 -3 256 -5
256 -18z m0 -190 c0 -13 -37 -15 -262 -18 -216 -2 -263 0 -263 11 0 8 3 17 7
20 4 4 122 6 262 5 220 -3 256 -5 256 -18z m3 -192 c3 -17 -15 -18 -262 -18
-215 0 -266 3 -266 13 0 8 3 17 7 20 4 4 122 6 262 5 234 -3 256 -4 259 -20z"/>
<path d="M387 1326 c-63 -31 -88 -55 -123 -119 -25 -44 -29 -63 -29 -127 0
-64 4 -83 30 -128 54 -98 132 -145 240 -145 81 0 148 28 202 85 125 130 85
351 -79 432 -71 35 -171 36 -241 2z m234 -27 c43 -22 96 -80 116 -128 20 -47
19 -137 -2 -186 -20 -50 -68 -100 -120 -128 -51 -27 -164 -29 -211 -4 -92 48
-144 131 -144 228 0 107 76 207 177 235 57 16 134 9 184 -17z"/>
<path d="M447 1274 c-109 -34 -171 -150 -136 -255 47 -139 212 -189 323 -97
49 40 76 96 76 155 -1 141 -130 238 -263 197z m88 -106 c28 -27 22 -50 -11
-42 -31 8 -32 -11 -1 -27 43 -23 48 -54 15 -99 -23 -31 -48 -40 -48 -16 0 7
-9 16 -21 19 -30 8 -18 33 14 29 40 -4 40 13 1 43 -27 21 -33 31 -28 48 4 12
13 26 20 30 8 4 14 15 14 22 0 21 19 18 45 -7z"/>
<path d="M216 858 c-21 -30 -20 -41 8 -67 58 -55 225 -88 357 -71 86 10 182
41 210 66 24 22 24 56 1 77 -26 24 -34 22 -71 -17 -54 -56 -122 -81 -216 -80
-90 0 -144 20 -213 80 -47 40 -56 41 -76 12z"/>
<path d="M200 704 c0 -36 5 -50 27 -70 73 -67 313 -92 459 -46 99 30 124 52
124 108 0 24 -1 44 -3 44 -2 0 -21 -9 -43 -19 -72 -35 -127 -45 -254 -45 -131
-1 -209 15 -277 54 l-33 19 0 -45z"/>
<path d="M200 554 c0 -36 5 -50 27 -70 73 -67 313 -92 459 -46 99 30 124 52
124 108 0 24 -1 44 -3 44 -2 0 -21 -9 -43 -19 -72 -35 -127 -45 -254 -45 -131
-1 -209 15 -277 54 l-33 19 0 -45z"/>
<path d="M934 443 c6 -35 -2 -92 -19 -151 l-7 -22 422 2 423 3 19 25 c20 28
34 114 24 154 l-6 26 -431 0 -431 0 6 -37z"/>
<path d="M200 404 c0 -36 5 -50 27 -70 73 -67 313 -92 459 -46 99 30 124 52
124 108 0 24 -1 44 -3 44 -2 0 -21 -9 -43 -19 -72 -35 -127 -45 -254 -45 -131
-1 -209 15 -277 54 l-33 19 0 -45z"/>
</g>
</svg>
