<?xml version="1.0" standalone="no"?>
<!DOCTYPE svg PUBLIC "-//W3C//DTD SVG 20010904//EN"
 "http://www.w3.org/TR/2001/REC-SVG-20010904/DTD/svg10.dtd">
<svg version="1.0" xmlns="http://www.w3.org/2000/svg"
 width="200.000000pt" height="200.000000pt" viewBox="0 0 200.000000 200.000000"
 preserveAspectRatio="xMidYMid meet">
<metadata>
Created by potrace 1.16, written by Peter Selinger 2001-2019
</metadata>
<g transform="translate(0.000000,200.000000) scale(0.100000,-0.100000)"
fill="#000000" stroke="none">
<path d="M517 1729 c-55 -32 -75 -185 -36 -267 25 -52 48 -62 135 -62 l64 0 0
-30 0 -30 -37 16 c-25 11 -65 17 -113 17 -62 0 -84 -4 -128 -27 -140 -71 -201
-214 -156 -365 l15 -52 -30 -35 -31 -35 0 -241 0 -241 38 -36 c53 -50 124 -72
257 -78 91 -5 125 -2 193 15 73 19 85 19 109 7 23 -12 106 -15 479 -15 l450 0
26 27 c34 35 52 109 45 175 -9 74 -15 78 -123 78 l-93 0 -3 488 c-3 462 -5
490 -24 549 -12 33 -31 75 -43 92 -44 62 -36 61 -528 61 -300 -1 -454 -4 -466
-11z m88 -63 c32 -34 58 -104 69 -183 l6 -43 -70 0 c-64 0 -71 2 -87 27 -28
42 -30 159 -4 201 26 41 46 40 86 -2z m864 -1 c63 -72 65 -88 69 -627 l3 -488
-310 0 c-170 0 -316 -3 -325 -6 -13 -5 -15 -18 -10 -73 9 -101 -24 -175 -70
-158 -13 5 -12 10 9 33 l25 27 0 248 0 247 -31 31 -31 31 16 40 c38 96 12 227
-63 312 -28 33 -31 42 -31 104 0 102 -18 192 -50 257 l-28 57 398 0 398 0 31
-35z m-834 -349 c50 -21 106 -77 131 -131 48 -102 22 -231 -61 -304 -54 -47
-100 -64 -175 -65 -258 -1 -358 341 -139 480 71 44 166 52 244 20z m-305 -461
c53 -54 112 -78 200 -79 88 0 145 21 209 79 40 37 42 37 61 20 47 -42 10 -92
-89 -123 -78 -23 -284 -24 -362 0 -58 18 -109 56 -109 82 0 15 37 56 50 56 3
0 21 -16 40 -35z m-28 -122 c128 -59 355 -56 478 7 l41 21 -3 -48 c-3 -41 -7
-50 -37 -70 -57 -38 -108 -48 -251 -48 -143 0 -194 10 -251 48 -30 20 -34 29
-37 71 -2 26 0 46 5 44 4 -2 29 -14 55 -25z m68 -169 c49 -12 94 -15 190 -12
122 5 134 7 243 53 16 7 18 3 15 -41 -3 -46 -6 -50 -45 -72 -131 -72 -409 -64
-503 14 -25 22 -30 33 -30 70 l0 43 33 -19 c18 -11 61 -27 97 -36z m1388 -116
c2 -32 -4 -63 -17 -93 l-20 -45 -404 0 -405 0 15 51 c8 28 13 70 11 95 l-3 44
410 -2 410 -3 3 -47z m-1457 -2 c67 -31 200 -49 288 -41 74 7 197 40 206 55
14 23 25 7 25 -34 0 -36 -5 -48 -27 -65 -49 -39 -128 -56 -263 -56 -199 0
-290 39 -290 125 0 22 2 40 4 40 2 0 28 -11 57 -24z"/>
<path d="M882 1453 c3 -17 22 -18 248 -18 211 0 245 2 245 15 0 13 -35 15
-248 18 -233 2 -248 1 -245 -15z"/>
<path d="M882 1273 c3 -17 22 -18 248 -18 211 0 245 2 245 15 0 13 -35 15
-248 18 -233 2 -248 1 -245 -15z"/>
<path d="M882 1093 c3 -17 22 -18 248 -18 211 0 245 2 245 15 0 13 -35 15
-248 18 -233 2 -248 1 -245 -15z"/>
<path d="M880 910 c0 -20 4 -20 248 -18 212 3 247 5 247 18 0 13 -35 15 -247
18 -244 2 -248 2 -248 -18z"/>
<path d="M880 730 c0 -20 4 -20 248 -18 212 3 247 5 247 18 0 13 -35 15 -247
18 -244 2 -248 2 -248 -18z"/>
<path d="M440 1294 c-86 -37 -140 -120 -140 -216 0 -79 24 -133 79 -180 153
-131 387 -23 384 177 -1 100 -50 176 -138 216 -49 23 -137 24 -185 3z m195
-54 c42 -26 82 -90 91 -147 9 -60 -30 -142 -85 -179 -48 -31 -121 -42 -172
-25 -43 14 -97 65 -115 107 -18 43 -18 128 0 162 20 37 75 87 111 101 43 16
129 6 170 -19z"/>
<path d="M503 1150 c-13 -15 -23 -35 -23 -43 0 -16 31 -47 48 -47 7 0 12 -7
12 -16 0 -12 -6 -15 -24 -10 -35 9 -42 -10 -14 -39 25 -27 48 -32 48 -11 0 7
7 19 15 26 26 21 18 59 -15 78 -38 22 -38 32 0 32 35 0 38 12 10 40 -26 26
-30 25 -57 -10z"/>
</g>
</svg>
