<?xml version="1.0" standalone="no"?>
<!DOCTYPE svg PUBLIC "-//W3C//DTD SVG 20010904//EN"
 "http://www.w3.org/TR/2001/REC-SVG-20010904/DTD/svg10.dtd">
<svg version="1.0" xmlns="http://www.w3.org/2000/svg"
 width="200.000000pt" height="200.000000pt" viewBox="0 0 200.000000 200.000000"
 preserveAspectRatio="xMidYMid meet">
<metadata>
Created by potrace 1.16, written by Peter Selinger 2001-2019
</metadata>
<g transform="translate(0.000000,200.000000) scale(0.100000,-0.100000)"
fill="#000000" stroke="none">
<path d="M262 1790 c-18 -11 -41 -34 -52 -52 -20 -32 -20 -48 -18 -750 l3
-718 38 -37 37 -38 371 -3 371 -3 -50 57 c-28 31 -67 88 -87 125 l-36 69 -183
0 c-164 0 -185 2 -199 18 -22 24 -22 65 1 85 15 14 47 17 186 19 l169 3 0 60
0 60 -169 3 c-184 3 -204 9 -204 62 0 55 19 60 218 60 l182 0 29 58 c16 31 45
77 65 102 l36 45 -218 5 c-207 5 -218 6 -250 28 -56 41 -62 63 -62 244 0 182
8 209 72 248 31 19 51 20 324 20 285 0 292 0 324 -22 60 -41 70 -75 70 -231
l0 -138 38 8 c20 4 76 7 125 7 l87 0 0 256 c0 285 -3 302 -70 348 l-33 22
-541 0 c-522 0 -542 -1 -574 -20z"/>
<path d="M573 1433 c-10 -3 -13 -41 -13 -138 0 -123 2 -135 19 -145 23 -12
490 -14 509 -2 9 7 12 43 10 148 l-3 139 -255 2 c-140 1 -261 -1 -267 -4z"/>
<path d="M1244 1041 c-119 -41 -213 -124 -267 -239 -30 -63 -32 -74 -32 -177
0 -103 2 -114 32 -177 77 -162 224 -258 398 -258 329 0 535 345 384 643 -46
88 -162 182 -264 212 -69 20 -186 18 -251 -4z m48 -248 c38 -34 11 -103 -40
-103 -54 0 -81 62 -45 102 20 22 61 23 85 1z m248 -3 c38 -38 27 -57 -122
-207 -149 -149 -170 -162 -210 -126 -40 36 -26 61 125 211 150 149 169 160
207 122z m2 -247 c38 -34 11 -103 -40 -103 -54 0 -81 62 -45 102 20 22 61 23
85 1z"/>
</g>
</svg>
