<?xml version="1.0" standalone="no"?>
<!DOCTYPE svg PUBLIC "-//W3C//DTD SVG 20010904//EN"
 "http://www.w3.org/TR/2001/REC-SVG-20010904/DTD/svg10.dtd">
<svg version="1.0" xmlns="http://www.w3.org/2000/svg"
 width="200.000000pt" height="200.000000pt" viewBox="0 0 200.000000 200.000000"
 preserveAspectRatio="xMidYMid meet">
<metadata>
Created by potrace 1.16, written by Peter Selinger 2001-2019
</metadata>
<g transform="translate(0.000000,200.000000) scale(0.100000,-0.100000)"
fill="#000000" stroke="none">
<path d="M360 1874 c-59 -10 -71 -16 -106 -46 -67 -59 -64 -23 -64 -828 0
-591 3 -737 14 -763 16 -39 76 -94 114 -104 36 -11 807 -10 855 0 45 10 105
60 123 104 8 18 14 55 14 82 l0 50 171 3 c167 3 171 4 191 27 22 28 18 68 -9
89 -13 9 -100 12 -353 12 -314 0 -338 -1 -353 -18 -21 -23 -22 -62 -3 -88 12
-16 29 -19 126 -22 l112 -4 -5 -46 c-3 -28 -12 -51 -23 -59 -14 -10 -103 -13
-416 -13 -385 0 -399 1 -418 20 -20 20 -20 33 -20 730 0 697 0 710 20 730 19
19 33 20 418 20 303 0 402 -3 414 -12 9 -7 22 -32 28 -56 13 -49 43 -68 85
-52 74 28 28 175 -71 225 -37 19 -60 20 -429 21 -214 1 -401 0 -415 -2z"/>
<path d="M456 1544 c-20 -20 -20 -68 0 -88 13 -13 43 -16 168 -16 135 0 155 2
169 18 22 24 21 65 -1 85 -27 24 -312 25 -336 1z"/>
<path d="M1280 1489 c-120 -24 -238 -117 -297 -236 -31 -63 -37 -87 -41 -159
-10 -197 87 -357 263 -434 77 -34 212 -39 303 -11 258 78 377 376 250 624 -81
161 -286 254 -478 216z m214 -139 c207 -78 258 -371 89 -519 -156 -138 -398
-90 -490 97 -24 48 -28 69 -28 137 0 72 4 87 35 143 18 35 50 77 69 93 83 68
218 88 325 49z"/>
<path d="M1485 1250 c-11 -5 -84 -73 -162 -152 -150 -151 -161 -170 -123 -208
41 -41 63 -29 209 115 159 156 172 175 151 212 -18 31 -47 43 -75 33z"/>
<path d="M1207 1232 c-38 -42 -11 -105 43 -105 38 0 60 23 60 63 0 53 -69 80
-103 42z"/>
<path d="M1457 982 c-38 -42 -11 -105 43 -105 38 0 60 23 60 63 0 53 -69 80
-103 42z"/>
<path d="M456 1294 c-20 -20 -20 -68 0 -88 13 -13 43 -16 168 -16 135 0 155 2
169 18 22 24 21 65 -1 85 -27 24 -312 25 -336 1z"/>
<path d="M456 1044 c-20 -20 -20 -68 0 -88 13 -13 43 -16 168 -16 135 0 155 2
169 18 22 24 21 65 -1 85 -27 24 -312 25 -336 1z"/>
<path d="M456 794 c-23 -23 -23 -315 0 -338 13 -13 43 -16 168 -16 135 0 155
2 169 18 14 16 17 43 17 169 0 133 -2 152 -18 166 -27 24 -312 25 -336 1z
m234 -169 l0 -65 -65 0 -65 0 0 65 0 65 65 0 65 0 0 -65z"/>
</g>
</svg>
