<?xml version="1.0" standalone="no"?>
<!DOCTYPE svg PUBLIC "-//W3C//DTD SVG 20010904//EN"
 "http://www.w3.org/TR/2001/REC-SVG-20010904/DTD/svg10.dtd">
<svg version="1.0" xmlns="http://www.w3.org/2000/svg"
 width="200.000000pt" height="200.000000pt" viewBox="0 0 200.000000 200.000000"
 preserveAspectRatio="xMidYMid meet">
<metadata>
Created by potrace 1.16, written by Peter Selinger 2001-2019
</metadata>
<g transform="translate(0.000000,200.000000) scale(0.100000,-0.100000)"
fill="#000000" stroke="none">
<path d="M612 1800 c-12 -12 -22 -31 -22 -44 0 -21 -6 -24 -52 -28 -86 -9 -88
-15 -88 -244 l0 -194 -67 5 c-81 7 -113 -6 -126 -52 -13 -45 -2 -78 44 -128
l41 -44 -18 -56 c-15 -48 -23 -59 -57 -77 -89 -45 -180 -171 -212 -293 -40
-155 4 -320 103 -389 88 -61 185 -72 626 -75 310 -2 306 -3 306 81 0 44 2 48
24 48 13 0 29 6 36 14 9 12 52 15 205 18 223 3 225 4 233 87 4 48 6 51 33 51
18 0 35 9 48 26 19 24 21 40 21 180 0 146 1 154 20 154 48 0 129 42 173 89 97
104 98 255 3 368 -33 39 -119 83 -163 83 l-33 0 -1 93 0 92 -102 125 -103 125
-425 3 c-416 2 -425 2 -447 -18z m828 -155 l5 -120 98 -3 97 -3 0 -68 0 -68
-38 -11 c-52 -16 -112 -63 -142 -111 l-25 -40 -328 -1 c-207 0 -335 -4 -348
-10 -15 -9 -19 -7 -19 7 0 31 -40 85 -70 96 l-30 11 0 217 c0 118 3 219 7 222
4 4 182 6 397 5 l391 -3 5 -120z m106 13 c74 -93 74 -88 5 -88 l-61 0 0 75 c0
41 1 75 3 75 2 0 26 -28 53 -62z m-956 -157 c0 -94 -3 -172 -7 -174 -5 -2 -25
-7 -45 -11 l-38 -7 0 174 c0 95 3 177 7 180 3 4 24 7 45 7 l38 0 0 -169z
m1178 -187 c176 -73 181 -319 8 -400 -28 -13 -69 -24 -91 -24 -55 0 -137 40
-170 83 -72 96 -63 218 22 299 59 56 156 74 231 42z m-1112 -52 c19 -13 34
-50 28 -69 -4 -10 -23 -35 -42 -55 l-36 -38 -109 0 -109 0 -44 45 c-74 76 -58
107 50 99 49 -4 85 -1 116 9 49 16 128 21 146 9z m432 -102 l327 0 0 -42 0
-43 -165 -5 c-151 -5 -165 -7 -168 -24 -2 -10 2 -22 10 -27 7 -5 86 -9 175 -9
l161 0 21 -34 c39 -63 94 -104 174 -130 16 -5 17 -19 15 -158 l-3 -153 -272
-3 -273 -2 0 29 c0 40 -32 61 -91 61 -46 0 -47 1 -54 36 -3 20 -5 37 -3 38 12
10 135 26 199 26 90 0 109 5 109 31 0 13 -10 20 -35 25 -27 5 -35 11 -35 28 0
11 -3 31 -6 44 -6 19 -3 22 24 22 32 0 48 20 29 39 -7 7 -83 11 -235 11 -212
0 -225 1 -262 22 -37 22 -43 32 -65 116 -5 17 2 32 29 62 20 22 36 47 36 56 0
14 1 14 16 0 13 -14 58 -16 342 -16z m-472 -150 l-1 -30 -119 0 c-91 0 -117 3
-108 12 7 7 8 17 1 30 -9 17 -3 18 109 18 l119 0 -1 -30z m83 -109 c20 -11 43
-27 51 -36 11 -13 10 -18 -5 -29 -29 -21 -21 -110 13 -149 13 -15 25 -17 69
-11 50 6 53 5 63 -21 5 -14 10 -28 10 -31 0 -2 -38 -4 -85 -4 l-84 0 -13 43
c-19 62 -83 122 -154 143 -32 9 -72 14 -91 11 -128 -21 -214 -134 -200 -259 7
-59 27 -97 74 -143 77 -75 206 -80 296 -11 51 39 67 36 67 -10 0 -25 -4 -34
-17 -34 -32 0 -53 -31 -53 -77 l0 -43 -147 0 c-200 0 -277 22 -341 94 -72 82
-79 248 -18 382 28 62 114 157 166 185 30 15 59 18 198 19 142 0 168 -3 201
-19z m426 -77 c3 -20 5 -37 3 -39 -2 -1 -73 -15 -158 -30 -85 -15 -160 -30
-167 -32 -11 -4 -31 62 -22 72 4 3 65 15 330 64 4 0 10 -15 14 -35z m-547 -78
c36 -19 78 -65 91 -99 9 -23 7 -31 -9 -47 -15 -15 -20 -33 -20 -74 0 -48 -3
-57 -31 -80 -84 -71 -223 -36 -270 68 -23 50 -24 85 -4 133 32 76 85 113 163
113 29 0 65 -6 80 -14z m462 -221 l0 -35 -175 0 -175 0 0 35 0 35 175 0 175 0
0 -35z m490 -85 l0 -40 -185 0 -185 0 0 24 c0 13 -3 31 -6 40 -5 14 15 16 185
16 l191 0 0 -40z m-420 -45 l0 -35 -170 0 -170 0 0 35 0 35 170 0 170 0 0 -35z
m-70 -125 l0 -40 -175 0 -175 0 0 40 0 40 175 0 175 0 0 -40z"/>
<path d="M828 1602 c-72 -72 -62 -110 41 -156 66 -29 73 -39 40 -56 -30 -16
-68 -4 -79 25 -11 28 -37 33 -46 10 -7 -18 14 -75 28 -75 5 0 22 -14 38 -32
l29 -32 51 52 c60 61 64 89 19 126 -17 14 -35 26 -41 26 -17 0 -78 32 -78 41
0 15 41 31 66 25 14 -4 29 -18 34 -31 11 -28 37 -33 46 -10 7 17 -14 75 -26
75 -5 0 -21 14 -37 30 -15 17 -30 30 -33 30 -3 0 -26 -22 -52 -48z"/>
<path d="M1023 1515 c-11 -29 12 -36 118 -33 96 3 104 4 104 23 0 19 -8 20
-108 23 -91 2 -108 0 -114 -13z"/>
<path d="M1030 1405 c-10 -12 -10 -18 0 -30 11 -13 39 -15 168 -13 136 3 156
5 166 21 19 30 -11 37 -170 37 -123 0 -154 -3 -164 -15z"/>
<path d="M1582 1244 c-30 -21 -30 -69 2 -89 59 -39 122 49 64 89 -12 9 -27 16
-33 16 -6 0 -21 -7 -33 -16z"/>
<path d="M1661 1126 c-65 -65 -92 -99 -88 -110 4 -9 15 -16 25 -16 23 0 205
185 200 202 -12 35 -46 16 -137 -76z"/>
<path d="M1717 1062 c-35 -38 -13 -92 36 -92 40 0 57 15 57 50 0 52 -60 78
-93 42z"/>
<path d="M753 1063 c-19 -7 -16 -31 6 -43 30 -16 243 -13 266 4 16 12 17 16 6
30 -11 13 -35 16 -140 15 -69 0 -132 -3 -138 -6z"/>
<path d="M1273 905 c-11 -29 12 -36 118 -33 96 3 104 4 104 23 0 19 -8 20
-108 23 -91 2 -108 0 -114 -13z"/>
<path d="M480 727 c0 -8 -11 -19 -25 -25 -14 -7 -30 -23 -37 -37 -18 -40 3
-72 68 -101 48 -21 54 -27 43 -40 -17 -21 -52 -14 -64 14 -11 24 -43 30 -51 9
-8 -23 14 -67 41 -79 14 -6 25 -17 25 -25 0 -25 32 -13 71 28 60 63 52 92 -39
138 -44 22 -51 43 -17 50 12 2 28 -8 41 -24 14 -18 28 -26 38 -22 27 11 18 45
-23 87 -39 40 -71 52 -71 27z"/>
</g>
</svg>
