<?xml version="1.0" standalone="no"?>
<!DOCTYPE svg PUBLIC "-//W3C//DTD SVG 20010904//EN"
 "http://www.w3.org/TR/2001/REC-SVG-20010904/DTD/svg10.dtd">
<svg version="1.0" xmlns="http://www.w3.org/2000/svg"
 width="200.000000pt" height="200.000000pt" viewBox="0 0 200.000000 200.000000"
 preserveAspectRatio="xMidYMid meet">
<metadata>
Created by potrace 1.16, written by Peter Selinger 2001-2019
</metadata>
<g transform="translate(0.000000,200.000000) scale(0.100000,-0.100000)"
fill="#000000" stroke="none">
<path d="M633 1810 c-12 -5 -25 -19 -28 -32 -3 -13 -4 -111 -3 -218 l3 -194
32 -7 c52 -10 84 -38 106 -90 l21 -49 326 0 327 0 12 26 c35 77 117 144 201
164 l50 12 0 44 0 44 -113 0 c-151 0 -147 -5 -147 173 l0 137 -382 -1 c-211 0
-393 -4 -405 -9z m267 -165 c0 -8 14 -22 30 -30 34 -18 56 -55 47 -79 -9 -24
-41 -19 -52 7 -8 17 -18 22 -50 22 -62 0 -58 -27 7 -55 65 -27 98 -56 98 -85
0 -27 -33 -72 -59 -80 -10 -3 -21 -15 -24 -25 -7 -25 -37 -26 -44 -1 -2 10
-15 23 -28 29 -29 13 -57 64 -49 86 9 23 41 20 49 -4 13 -41 85 -52 99 -14 4
11 -7 20 -42 35 -80 34 -89 40 -101 65 -6 13 -8 32 -4 41 8 25 44 63 59 63 6
0 14 9 17 20 6 23 47 28 47 5z m355 -130 c0 -19 -8 -20 -109 -23 -111 -3 -134
3 -123 33 6 13 24 15 119 13 105 -3 113 -4 113 -23z m109 -91 c24 -9 20 -43
-6 -49 -13 -3 -90 -4 -172 -3 -130 3 -150 5 -160 21 -8 14 -8 20 4 27 16 11
308 14 334 4z"/>
<path d="M1472 1688 l3 -123 103 -3 104 -3 -102 126 c-56 69 -104 125 -106
125 -3 0 -3 -55 -2 -122z"/>
<path d="M476 1704 c-13 -13 -16 -45 -16 -190 0 -190 -2 -184 59 -163 l31 11
0 179 0 179 -29 0 c-16 0 -37 -7 -45 -16z"/>
<path d="M1645 1361 c-152 -39 -237 -218 -169 -353 23 -46 72 -96 119 -121 56
-30 164 -30 220 0 76 41 130 115 141 196 14 98 -57 225 -145 260 -49 20 -127
28 -166 18z m29 -117 c21 -20 20 -58 0 -79 -25 -24 -75 -16 -93 16 -13 24 -13
29 2 53 20 30 66 35 91 10z m143 -30 c4 -11 -24 -46 -93 -115 -54 -54 -104
-99 -112 -99 -7 0 -15 7 -19 16 -4 11 24 46 93 115 54 54 104 99 112 99 7 0
15 -7 19 -16z m-3 -150 c19 -18 21 -65 4 -82 -7 -7 -26 -12 -43 -12 -37 0 -55
16 -55 49 0 51 60 80 94 45z"/>
<path d="M500 1289 c-43 -15 -72 -17 -131 -13 -62 5 -79 3 -92 -11 -27 -26
-21 -80 11 -116 l28 -31 164 1 165 1 28 30 c38 42 37 91 -2 131 -35 35 -85 37
-171 8z"/>
<path d="M750 1162 c0 -5 -15 -26 -34 -49 -33 -38 -34 -42 -24 -81 8 -33 21
-49 59 -77 l49 -35 208 0 c114 0 214 -5 222 -10 20 -13 2 -44 -29 -48 -22 -4
-25 -12 -15 -61 5 -24 12 -31 29 -31 32 0 51 -25 35 -45 -9 -11 -35 -15 -104
-15 -82 -1 -170 -11 -181 -22 -2 -2 1 -23 7 -46 10 -41 11 -42 52 -42 53 0 66
-13 66 -67 l0 -43 283 0 c207 0 286 3 295 12 8 8 12 58 12 160 0 147 0 148
-22 148 -13 0 -48 12 -78 27 -49 23 -67 26 -169 27 -97 1 -115 4 -125 19 -17
27 8 37 97 37 l77 0 -25 50 -25 50 -165 0 c-155 0 -165 1 -165 19 0 28 18 31
176 31 l144 0 0 50 0 50 -325 0 c-179 0 -325 -4 -325 -8z m280 -107 c24 -29 0
-35 -146 -35 -133 0 -144 1 -144 18 0 10 3 22 7 25 3 4 66 7 138 7 104 0 135
-3 145 -15z"/>
<path d="M351 1056 c-7 -8 -11 -23 -9 -33 2 -10 -2 -23 -10 -28 -7 -6 -10 -18
-6 -28 6 -16 22 -17 163 -15 153 3 156 3 159 26 2 12 -1 22 -7 22 -5 0 -11 15
-13 33 l-3 32 -131 3 c-106 2 -133 0 -143 -12z"/>
<path d="M235 898 c-85 -57 -154 -159 -180 -270 -27 -114 -11 -242 38 -316 65
-96 177 -126 470 -123 l67 1 0 58 c0 62 14 86 55 94 14 2 21 12 23 36 5 46
-19 51 -68 12 -47 -37 -87 -50 -158 -50 -96 0 -173 52 -212 142 -39 92 -19
190 56 262 122 119 342 61 387 -101 l11 -43 99 0 100 0 -6 36 c-3 20 -8 38
-10 41 -3 2 -35 -2 -72 -9 -65 -12 -68 -11 -86 10 -18 23 -34 95 -27 128 2 11
19 26 37 35 l35 16 -50 36 c-43 31 -51 34 -65 21 -23 -21 -361 -21 -382 1 -13
12 -21 10 -62 -17z"/>
<path d="M926 820 c-82 -16 -150 -31 -152 -33 -2 -2 -1 -18 2 -35 8 -39 5 -39
199 -3 l150 27 0 35 c0 45 -11 45 -199 9z"/>
<path d="M425 745 c-78 -28 -135 -123 -120 -198 31 -142 188 -203 299 -116 22
18 26 28 26 77 0 43 5 61 21 78 l21 23 -22 46 c-38 79 -142 121 -225 90z m82
-24 c2 -10 16 -24 29 -30 28 -12 49 -52 41 -75 -8 -20 -47 -21 -47 -2 0 22
-28 39 -55 32 -37 -9 -31 -25 21 -47 55 -25 84 -52 84 -79 0 -28 -85 -114
-105 -106 -8 3 -15 12 -15 21 0 8 -4 15 -10 15 -19 0 -50 40 -50 64 0 37 20
43 45 13 13 -17 30 -27 48 -27 46 0 31 27 -30 57 -52 25 -58 32 -61 62 -3 28
3 40 40 77 48 49 58 52 65 25z"/>
<path d="M682 513 l3 -38 178 -3 177 -2 0 40 0 40 -181 0 -180 0 3 -37z"/>
<path d="M1170 395 l0 -45 190 0 190 0 16 25 c8 13 14 32 12 42 -3 17 -20 18
-206 21 l-202 2 0 -45z"/>
<path d="M760 380 l0 -40 178 2 177 3 3 38 3 37 -180 0 -181 0 0 -40z"/>
<path d="M687 283 c-4 -3 -7 -21 -7 -40 l0 -33 180 0 180 0 0 40 0 40 -173 0
c-96 0 -177 -3 -180 -7z"/>
</g>
</svg>
