<?xml version="1.0" standalone="no"?>
<!DOCTYPE svg PUBLIC "-//W3C//DTD SVG 20010904//EN"
 "http://www.w3.org/TR/2001/REC-SVG-20010904/DTD/svg10.dtd">
<svg version="1.0" xmlns="http://www.w3.org/2000/svg"
 width="200.000000pt" height="200.000000pt" viewBox="0 0 200.000000 200.000000"
 preserveAspectRatio="xMidYMid meet">
<metadata>
Created by potrace 1.16, written by Peter Selinger 2001-2019
</metadata>
<g transform="translate(0.000000,200.000000) scale(0.100000,-0.100000)"
fill="#000000" stroke="none">
<path d="M273 1720 c-64 -29 -83 -67 -83 -168 0 -123 34 -186 125 -235 38 -21
52 -22 340 -22 165 0 313 4 329 8 16 4 54 32 85 61 31 29 66 58 78 65 14 7
107 11 280 11 249 0 260 1 303 23 107 54 107 200 0 255 l-44 22 -686 0 c-654
0 -687 -1 -727 -20z m198 -139 c32 -33 37 -67 14 -110 -16 -33 -33 -41 -81
-41 -81 0 -116 102 -53 154 41 35 83 34 120 -3z m220 0 c60 -61 24 -151 -61
-151 -54 0 -90 34 -90 85 0 48 45 95 90 95 22 0 41 -9 61 -29z m218 3 c63 -52
28 -154 -53 -154 -48 0 -65 8 -81 41 -19 36 -19 69 1 97 33 47 89 54 133 16z"/>
<path d="M365 1546 c-33 -50 20 -104 70 -72 27 18 34 63 13 84 -21 21 -66 14
-83 -12z"/>
<path d="M592 1558 c-18 -18 -15 -63 8 -83 42 -38 102 14 76 66 -13 27 -63 38
-84 17z"/>
<path d="M818 1559 c-28 -16 -23 -65 7 -85 51 -33 104 21 71 71 -17 26 -48 32
-78 14z"/>
<path d="M1771 1441 l-34 -26 -286 -6 c-157 -3 -287 -7 -289 -7 -2 -1 -29 -27
-61 -57 -90 -86 -86 -85 -432 -85 -204 0 -315 4 -341 12 -22 6 -62 32 -89 56
l-49 44 0 -499 c0 -567 -2 -549 80 -590 l44 -23 686 0 686 0 44 23 c84 42 81
18 78 639 l-3 546 -34 -27z m-483 -307 c64 -73 -20 -184 -107 -140 -35 19 -51
44 -51 81 0 84 102 122 158 59z m-421 5 c18 -12 42 -38 53 -60 18 -35 20 -59
20 -307 0 -263 -1 -270 -23 -303 -12 -19 -42 -44 -67 -56 -39 -21 -59 -23
-182 -23 -94 0 -149 4 -171 14 -43 17 -95 78 -102 118 -3 18 -5 146 -3 285 3
280 3 280 78 331 31 21 43 22 198 22 150 0 168 -2 199 -21z m593 -61 c0 -17
-151 -168 -167 -168 -27 0 -10 28 64 102 74 74 103 93 103 66z m94 -72 c58
-24 72 -100 26 -146 -30 -30 -100 -27 -129 4 -42 45 -24 123 34 147 28 11 31
11 69 -5z m-244 -301 c0 -12 -17 -15 -90 -15 -73 0 -90 3 -90 15 0 12 17 15
90 15 73 0 90 -3 90 -15z m298 -147 c-7 -19 -469 -19 -475 0 -4 9 48 12 237
12 189 0 241 -3 238 -12z m-153 -148 c0 -13 -25 -15 -154 -18 -149 -2 -182 3
-166 27 4 8 56 11 163 9 132 -3 157 -5 157 -18z"/>
<path d="M1186 1114 c-33 -32 -10 -94 35 -94 23 0 59 34 59 55 0 21 -36 55
-59 55 -11 0 -27 -7 -35 -16z"/>
<path d="M493 1110 c-62 -37 -64 -51 -61 -346 l3 -266 37 -34 38 -34 152 0
c136 0 157 2 186 20 57 35 62 62 62 327 -1 347 -5 353 -247 353 -119 0 -142
-3 -170 -20z m328 -105 c36 -19 53 -58 44 -102 -10 -56 -31 -63 -200 -63 -147
0 -152 1 -174 24 -42 45 -24 123 34 147 11 4 75 8 143 8 92 1 130 -3 153 -14z
m-232 -216 c31 -11 61 -52 61 -84 0 -56 -70 -106 -121 -86 -80 30 -82 140 -4
172 27 11 28 11 64 -2z m238 -9 c83 -50 28 -186 -68 -165 -81 18 -93 144 -15
175 33 13 48 12 83 -10z"/>
<path d="M517 962 c-21 -23 -21 -41 -1 -70 14 -21 22 -22 149 -22 108 0 137 3
149 16 23 22 20 71 -3 84 -11 5 -78 10 -149 10 -112 0 -131 -2 -145 -18z"/>
<path d="M520 740 c-24 -24 -25 -38 -4 -68 18 -27 55 -29 77 -4 22 24 21 55
-1 75 -25 22 -48 21 -72 -3z"/>
<path d="M740 740 c-11 -11 -20 -27 -20 -35 0 -21 36 -55 59 -55 45 0 68 62
35 94 -21 22 -50 20 -74 -4z"/>
<path d="M1475 960 c-41 -46 29 -116 75 -75 24 22 26 58 4 79 -21 22 -57 20
-79 -4z"/>
</g>
</svg>
