<?xml version="1.0" standalone="no"?>
<!DOCTYPE svg PUBLIC "-//W3C//DTD SVG 20010904//EN"
 "http://www.w3.org/TR/2001/REC-SVG-20010904/DTD/svg10.dtd">
<svg version="1.0" xmlns="http://www.w3.org/2000/svg"
 width="200.000000pt" height="200.000000pt" viewBox="0 0 200.000000 200.000000"
 preserveAspectRatio="xMidYMid meet">
<metadata>
Created by potrace 1.16, written by Peter Selinger 2001-2019
</metadata>
<g transform="translate(0.000000,200.000000) scale(0.100000,-0.100000)"
fill="#000000" stroke="none">
<path d="M780 1833 c-23 -8 -70 -55 -86 -85 -38 -72 3 -184 79 -219 75 -34
138 -19 194 44 71 81 48 203 -48 252 -27 15 -109 19 -139 8z m127 -75 c9 -7
22 -28 30 -45 11 -28 11 -38 -1 -67 -29 -70 -102 -87 -158 -37 -27 24 -33 36
-33 71 0 35 6 47 34 72 29 26 40 29 73 25 21 -3 46 -11 55 -19z"/>
<path d="M814 1732 c-23 -15 -34 -50 -25 -75 17 -44 69 -50 100 -11 38 49 -24
120 -75 86z"/>
<path d="M1159 1817 c-80 -54 -102 -142 -54 -223 27 -46 90 -84 140 -84 16 0
48 9 72 21 156 75 101 309 -72 309 -38 0 -61 -6 -86 -23z m144 -57 c55 -43 56
-116 1 -159 -60 -47 -155 -5 -157 71 -2 86 91 139 156 88z"/>
<path d="M1214 1732 c-23 -15 -34 -50 -24 -76 17 -47 93 -46 111 1 15 39 -14
83 -56 83 -11 0 -25 -4 -31 -8z"/>
<path d="M938 1509 c-10 -5 -18 -16 -18 -23 0 -18 419 -898 436 -916 27 -27
39 4 38 98 -1 75 -6 102 -41 197 -67 183 -148 321 -265 455 -22 25 -58 80 -79
123 -22 42 -43 77 -47 77 -4 0 -15 -5 -24 -11z"/>
<path d="M1124 1512 c-6 -4 -23 -33 -37 -65 -21 -46 -24 -63 -16 -79 6 -10 18
-18 27 -16 17 3 83 127 75 140 -8 14 -39 27 -49 20z"/>
<path d="M930 1229 c-57 -72 -52 -89 26 -89 42 0 74 15 74 35 0 23 -39 105
-49 105 -6 0 -29 -23 -51 -51z"/>
<path d="M345 1098 c-29 -16 -35 -28 -35 -70 0 -32 3 -38 21 -38 30 0 89 62
89 94 0 22 -4 26 -27 26 -16 0 -37 -6 -48 -12z"/>
<path d="M487 1103 c-4 -3 -7 -15 -7 -26 0 -57 -91 -147 -149 -147 -21 0 -21
-3 -21 -225 l0 -224 43 -12 c53 -14 111 -73 124 -126 l9 -38 282 -3 c201 -2
282 1 282 9 0 6 -12 28 -27 49 -22 31 -37 40 -79 49 -105 24 -168 73 -214 165
-25 49 -30 71 -30 132 0 62 5 81 33 135 37 72 91 119 169 146 37 13 57 28 76
55 44 68 43 68 -236 68 -137 0 -252 -3 -255 -7z"/>
<path d="M1312 1102 c-9 -6 -4 -26 23 -84 89 -194 122 -353 91 -443 -33 -98
-71 -110 -106 -35 -13 28 -26 50 -30 50 -4 0 -21 -22 -37 -49 -32 -51 -99
-104 -158 -124 l-34 -12 40 -52 40 -53 185 0 c139 0 186 3 188 13 3 6 7 25 11
41 9 42 73 102 123 115 l42 12 0 223 0 223 -40 7 c-56 9 -115 69 -127 128 l-9
43 -94 3 c-52 1 -101 -2 -108 -6z"/>
<path d="M1580 1084 c0 -32 59 -94 89 -94 18 0 21 6 21 38 0 20 -4 42 -8 48
-11 18 -48 34 -76 34 -21 0 -26 -5 -26 -26z"/>
<path d="M1031 1054 c-30 -50 -27 -60 23 -73 60 -15 66 -14 66 7 -1 30 -38
102 -54 102 -7 0 -23 -16 -35 -36z"/>
<path d="M972 911 l-23 -40 77 -53 c114 -78 129 -92 118 -110 -5 -9 -45 -46
-89 -83 -44 -37 -81 -71 -83 -76 -2 -4 9 -25 23 -47 26 -39 27 -40 63 -30 57
16 86 34 122 74 38 44 60 92 60 133 0 16 -21 73 -47 126 -50 104 -76 127 -160
141 -37 6 -39 4 -61 -35z"/>
<path d="M875 911 c-76 -47 -115 -117 -115 -206 0 -68 17 -110 64 -163 35 -38
91 -71 102 -59 4 3 -3 19 -15 36 -12 16 -19 35 -15 43 3 7 43 44 89 82 l84 70
-32 23 c-18 13 -60 42 -94 65 -35 22 -63 47 -63 55 0 8 7 27 15 43 18 35 18
35 -20 11z"/>
<path d="M310 383 c0 -53 18 -73 68 -80 38 -5 42 -4 42 16 0 26 -56 87 -87 96
-21 6 -23 3 -23 -32z"/>
<path d="M1645 406 c-35 -15 -65 -55 -65 -87 0 -19 4 -21 36 -16 52 9 74 32
74 79 0 42 -2 43 -45 24z"/>
</g>
</svg>
