<?xml version="1.0" standalone="no"?>
<!DOCTYPE svg PUBLIC "-//W3C//DTD SVG 20010904//EN"
 "http://www.w3.org/TR/2001/REC-SVG-20010904/DTD/svg10.dtd">
<svg version="1.0" xmlns="http://www.w3.org/2000/svg"
 width="200.000000pt" height="200.000000pt" viewBox="0 0 200.000000 200.000000"
 preserveAspectRatio="xMidYMid meet">
<metadata>
Created by potrace 1.16, written by Peter Selinger 2001-2019
</metadata>
<g transform="translate(0.000000,200.000000) scale(0.100000,-0.100000)"
fill="#000000" stroke="none">
<path d="M180 1818 c-72 -37 -80 -63 -80 -260 0 -199 -8 -188 134 -188 l96 0
2 -557 3 -558 72 -49 72 -49 56 36 c30 21 58 37 62 37 5 0 32 -16 62 -35 l55
-35 45 27 c25 14 53 31 62 36 12 8 31 1 75 -26 l58 -37 35 22 c95 56 81 55
145 14 l57 -37 58 36 c32 19 61 35 65 35 3 0 31 -16 61 -36 l55 -37 75 49 c73
48 75 50 75 90 0 40 1 42 38 48 102 17 199 92 249 194 24 49 28 69 28 142 0
72 -4 94 -28 145 -15 33 -45 77 -65 99 -40 42 -133 91 -191 101 l-36 6 3 353
c2 352 2 352 -20 386 -13 18 -39 41 -58 51 -33 18 -70 19 -655 19 l-621 0 -44
-22z m125 -63 c24 -23 25 -28 25 -175 l0 -150 -91 0 -90 0 3 151 3 151 28 24
c38 32 90 32 122 -1z m1192 1 l28 -24 3 -350 3 -350 -51 -11 c-60 -13 -95 -30
-140 -67 l-32 -27 -182 2 c-160 2 -185 0 -200 -14 -13 -13 -14 -20 -5 -31 9
-11 47 -14 175 -14 l163 0 -18 -42 c-10 -24 -21 -55 -25 -70 l-6 -28 -313 0
c-329 0 -359 -4 -344 -44 6 -14 39 -16 330 -16 l323 0 13 -57 c7 -32 15 -64
18 -70 4 -10 -65 -13 -324 -13 -345 0 -375 -4 -360 -44 6 -14 41 -16 365 -16
l359 0 43 -40 c51 -47 115 -80 170 -87 35 -5 40 -9 40 -32 0 -20 -10 -32 -44
-53 -24 -16 -48 -28 -54 -28 -7 0 -36 16 -66 35 l-54 34 -60 -38 -60 -39 -58
39 -58 38 -35 -21 c-20 -12 -47 -29 -61 -39 -24 -16 -26 -16 -75 15 -27 18
-55 35 -61 39 -6 3 -36 -11 -68 -33 l-58 -38 -60 39 c-33 21 -66 36 -72 32 -6
-3 -30 -19 -53 -35 -51 -34 -59 -35 -106 -3 l-37 26 0 715 c0 601 -2 720 -14
749 l-15 35 554 0 554 0 28 -24z m178 -810 c102 -48 166 -148 167 -259 0 -118
-56 -210 -158 -262 -149 -76 -328 -10 -397 144 -28 63 -28 169 0 232 64 143
248 212 388 145z"/>
<path d="M627 1504 c-4 -4 -7 -20 -7 -35 0 -19 -6 -30 -20 -34 -39 -12 -70
-63 -70 -115 0 -64 25 -92 110 -123 73 -27 93 -55 72 -101 -24 -54 -109 -45
-128 14 -15 46 -48 49 -52 4 -3 -34 34 -88 68 -99 14 -4 20 -15 20 -34 0 -37
24 -59 45 -41 8 7 15 25 15 41 0 19 6 30 20 34 39 12 70 63 70 114 0 62 -28
94 -104 116 -58 17 -86 43 -86 80 0 29 40 65 71 65 30 0 69 -38 69 -67 0 -21
24 -38 41 -27 5 3 9 20 9 39 0 36 -37 90 -70 100 -12 4 -20 17 -22 38 -2 23
-9 33 -23 35 -12 2 -24 0 -28 -4z"/>
<path d="M920 1475 c-10 -12 -10 -18 0 -30 10 -13 49 -15 235 -15 186 0 225 2
235 15 10 12 10 18 0 30 -10 13 -49 15 -235 15 -186 0 -225 -2 -235 -15z"/>
<path d="M925 1314 c-12 -12 -13 -19 -4 -30 9 -11 57 -14 239 -14 206 0 228 2
234 17 15 37 -17 43 -240 43 -182 0 -215 -2 -229 -16z"/>
<path d="M925 1114 c-12 -12 -13 -19 -4 -30 9 -11 57 -14 239 -14 206 0 228 2
234 17 15 37 -17 43 -240 43 -182 0 -215 -2 -229 -16z"/>
<path d="M1541 702 c-95 -143 -108 -176 -68 -170 16 2 47 40 114 142 50 77 89
145 86 153 -14 36 -44 8 -132 -125z"/>
<path d="M1406 804 c-19 -18 -19 -20 -6 -45 13 -23 52 -25 70 -4 10 12 10 21
2 40 -13 29 -43 33 -66 9z"/>
<path d="M1640 615 c-7 -9 -10 -25 -6 -40 6 -22 11 -26 39 -23 25 2 33 8 35
26 7 44 -41 70 -68 37z"/>
</g>
</svg>
