<?xml version="1.0" standalone="no"?>
<!DOCTYPE svg PUBLIC "-//W3C//DTD SVG 20010904//EN"
 "http://www.w3.org/TR/2001/REC-SVG-20010904/DTD/svg10.dtd">
<svg version="1.0" xmlns="http://www.w3.org/2000/svg"
 width="200.000000pt" height="200.000000pt" viewBox="0 0 200.000000 200.000000"
 preserveAspectRatio="xMidYMid meet">
<metadata>
Created by potrace 1.16, written by Peter Selinger 2001-2019
</metadata>
<g transform="translate(0.000000,200.000000) scale(0.100000,-0.100000)"
fill="#000000" stroke="none">
<path d="M237 1708 l-137 -141 0 -689 c0 -675 0 -688 20 -708 20 -20 33 -20
635 -20 723 0 655 -13 655 125 l0 85 33 0 c51 0 153 28 209 56 75 38 160 123
197 198 89 180 55 388 -86 529 -86 86 -205 137 -319 137 l-34 0 0 265 c0 252
-1 266 -20 285 -19 19 -33 20 -517 20 l-498 0 -138 -142z m1113 -177 l0 -259
-37 -13 c-173 -55 -293 -193 -323 -368 -36 -215 95 -432 304 -502 l51 -18 3
-80 3 -81 -601 0 -600 0 0 660 0 660 117 0 c155 0 153 -2 153 147 l0 113 465
0 465 0 0 -259z m-980 149 l0 -90 -86 0 -86 0 83 90 c45 50 83 90 85 90 2 0 4
-40 4 -90z m1248 -499 c201 -103 282 -344 181 -542 -39 -79 -107 -144 -189
-183 -60 -29 -73 -31 -170 -31 -93 0 -111 3 -163 27 -80 38 -160 117 -200 197
-30 61 -32 72 -32 171 0 93 3 112 27 162 27 58 89 133 141 170 17 12 55 32 86
45 49 21 69 23 156 20 90 -3 107 -7 163 -36z"/>
<path d="M507 1393 c-4 -3 -7 -19 -7 -34 0 -18 -6 -30 -18 -33 -33 -11 -63
-53 -69 -94 -7 -54 18 -95 71 -117 108 -45 106 -43 106 -75 0 -42 -34 -74 -68
-65 -37 9 -49 21 -56 55 -4 22 -11 30 -26 30 -48 0 -29 -89 26 -122 23 -13 34
-27 34 -43 0 -32 25 -51 45 -35 8 7 15 22 15 34 0 12 15 33 34 48 44 36 62 85
46 133 -13 41 -39 61 -95 76 -52 14 -75 35 -75 70 0 35 24 59 59 59 30 0 61
-27 61 -52 0 -9 7 -21 16 -28 12 -11 18 -10 31 3 14 14 15 20 2 54 -9 22 -28
46 -47 58 -17 11 -31 28 -32 37 0 29 -12 48 -29 48 -10 0 -21 -3 -24 -7z"/>
<path d="M333 713 c-18 -7 -16 -40 3 -47 20 -8 518 -8 538 0 21 8 21 40 0 48
-19 7 -523 7 -541 -1z"/>
<path d="M338 489 c-22 -12 -23 -35 -2 -43 20 -8 598 -8 618 0 24 9 19 41 -6
48 -40 10 -592 6 -610 -5z"/>
<path d="M1271 1046 c-90 -50 -50 -186 55 -186 16 0 39 13 61 35 32 32 35 40
30 73 -12 71 -86 111 -146 78z m84 -86 c0 -32 -3 -35 -32 -38 -39 -4 -60 25
-43 59 9 15 19 19 43 17 29 -3 32 -6 32 -38z"/>
<path d="M1418 833 c-87 -87 -158 -166 -158 -176 0 -11 8 -17 23 -17 28 0 342
311 335 332 -13 38 -47 15 -200 -139z"/>
<path d="M1500 753 c-28 -25 -33 -36 -33 -73 0 -37 5 -48 33 -73 28 -25 38
-28 74 -24 54 7 86 44 86 97 0 53 -32 90 -86 97 -36 4 -46 1 -74 -24z m104
-55 c14 -23 -3 -52 -33 -56 -42 -6 -67 38 -39 66 17 17 58 11 72 -10z"/>
</g>
</svg>
