<?xml version="1.0" standalone="no"?>
<!DOCTYPE svg PUBLIC "-//W3C//DTD SVG 20010904//EN"
 "http://www.w3.org/TR/2001/REC-SVG-20010904/DTD/svg10.dtd">
<svg version="1.0" xmlns="http://www.w3.org/2000/svg"
 width="200.000000pt" height="200.000000pt" viewBox="0 0 200.000000 200.000000"
 preserveAspectRatio="xMidYMid meet">
<metadata>
Created by potrace 1.16, written by Peter Selinger 2001-2019
</metadata>
<g transform="translate(0.000000,200.000000) scale(0.100000,-0.100000)"
fill="#000000" stroke="none">
<path d="M336 1808 c5 -13 11 -371 14 -797 l5 -775 46 -32 45 -33 60 39 c32
22 64 40 69 40 6 0 34 -16 62 -35 29 -19 57 -35 63 -35 6 0 34 16 63 35 28 19
56 35 62 35 5 0 37 -18 69 -39 l59 -40 58 40 c32 21 62 39 66 39 4 0 35 -18
68 -39 l60 -38 57 38 c31 22 63 39 70 39 7 -1 38 -18 68 -39 l54 -38 53 35
c43 28 53 40 53 63 0 24 -4 29 -25 29 -48 0 -135 41 -189 91 l-54 49 -383 2
c-376 3 -384 3 -384 23 0 20 8 20 365 25 318 4 364 7 361 20 -3 8 -11 43 -20
78 l-15 62 -342 0 c-306 0 -343 2 -348 16 -16 42 0 44 356 46 l340 3 18 58
c10 32 23 64 30 72 10 13 -12 15 -171 17 -171 3 -184 4 -187 22 -2 10 2 23 10
27 7 5 100 9 206 8 l193 -1 34 27 c41 30 133 75 157 75 50 0 48 -13 48 365 0
237 -4 363 -11 385 -22 60 -17 60 -650 60 l-571 0 8 -22z m322 -308 c2 -28 9
-38 32 -48 37 -17 63 -57 64 -101 1 -30 -3 -37 -21 -39 -17 -3 -24 3 -29 25
-23 97 -144 96 -144 -1 0 -41 19 -58 96 -82 67 -21 95 -50 101 -107 6 -54 -15
-100 -60 -127 -23 -14 -33 -29 -37 -52 -4 -27 -9 -33 -30 -33 -21 0 -26 6 -30
33 -4 23 -14 38 -37 52 -38 23 -65 71 -61 108 5 41 40 36 54 -7 13 -41 38 -61
76 -61 36 0 68 32 68 69 0 36 -18 56 -67 71 -71 23 -104 43 -118 71 -34 64 -4
160 55 182 24 9 30 17 30 43 0 37 7 46 35 42 15 -2 21 -12 23 -38z m757 -15
c0 -19 -8 -20 -244 -23 -145 -1 -249 2 -254 7 -5 5 -7 17 -4 26 6 13 36 15
254 13 240 -3 248 -4 248 -23z m1 -160 c4 -8 1 -22 -6 -30 -18 -22 -472 -22
-490 0 -7 8 -10 22 -6 30 8 23 494 23 502 0z m-1 -225 l0 -25 -248 -3 c-214
-2 -248 0 -253 13 -4 8 -4 22 0 30 5 13 39 15 253 13 l248 -3 0 -25z"/>
<path d="M129 1794 c-23 -25 -24 -30 -24 -182 l0 -157 93 -3 92 -3 0 161 c0
158 -1 161 -25 185 -35 36 -102 35 -136 -1z"/>
<path d="M1515 961 c-58 -15 -110 -46 -152 -90 -144 -150 -92 -404 102 -493
38 -17 68 -23 125 -22 66 0 83 4 138 34 105 56 153 133 160 256 4 72 1 89 -20
136 -52 113 -139 175 -258 183 -36 2 -78 1 -95 -4z m193 -155 c2 -10 -36 -78
-93 -163 -79 -118 -100 -144 -117 -141 -12 2 -23 8 -25 14 -2 6 42 80 97 163
73 111 105 151 118 149 9 -2 18 -11 20 -22z m-213 -20 c21 -31 5 -66 -28 -66
-62 0 -62 88 0 90 7 0 20 -11 28 -24z m255 -206 c17 -33 -4 -62 -43 -58 -25 2
-33 8 -35 26 -6 37 5 52 37 52 20 0 34 -7 41 -20z"/>
</g>
</svg>
