<?xml version="1.0" standalone="no"?>
<!DOCTYPE svg PUBLIC "-//W3C//DTD SVG 20010904//EN"
 "http://www.w3.org/TR/2001/REC-SVG-20010904/DTD/svg10.dtd">
<svg version="1.0" xmlns="http://www.w3.org/2000/svg"
 width="200.000000pt" height="200.000000pt" viewBox="0 0 200.000000 200.000000"
 preserveAspectRatio="xMidYMid meet">
<metadata>
Created by potrace 1.16, written by Peter Selinger 2001-2019
</metadata>
<g transform="translate(0.000000,200.000000) scale(0.100000,-0.100000)"
fill="#000000" stroke="none">
<path d="M400 1704 c0 -63 -5 -124 -10 -135 -10 -17 -22 -19 -135 -19 l-125 0
0 -685 0 -685 618 2 617 3 3 81 3 81 -43 12 c-228 68 -379 305 -338 532 32
179 164 327 338 379 l42 13 0 269 0 268 -485 0 -485 0 0 -116z m124 -290 c9
-4 16 -18 16 -34 0 -21 9 -34 39 -53 59 -39 80 -133 28 -125 -13 2 -23 14 -28
31 -11 42 -28 57 -62 57 -39 0 -67 -25 -67 -60 0 -35 26 -58 86 -76 60 -18 81
-37 95 -86 13 -49 -11 -103 -58 -133 -22 -14 -33 -29 -35 -50 -2 -22 -8 -30
-23 -30 -15 0 -21 8 -23 32 -2 20 -10 34 -21 38 -33 10 -73 62 -74 97 -2 29 1
33 22 33 19 0 26 -7 33 -30 15 -56 64 -72 105 -33 23 21 28 43 17 72 -3 8 -37
27 -75 42 -39 14 -76 36 -84 48 -40 60 -22 141 40 177 26 16 35 28 35 48 0 38
7 45 34 35z m356 -719 c10 -12 10 -18 0 -30 -10 -13 -54 -15 -280 -15 -148 0
-275 3 -284 6 -19 7 -21 40 -3 47 6 3 134 6 283 6 230 1 273 -1 284 -14z m85
-240 c0 -20 -8 -20 -324 -23 -195 -1 -329 2 -334 7 -5 5 -7 17 -4 25 6 15 43
16 334 14 320 -3 328 -3 328 -23z"/>
<path d="M251 1694 l-83 -95 88 3 89 3 3 93 c1 50 -1 92 -5 91 -4 0 -46 -43
-92 -95z"/>
<path d="M1322 1211 c-73 -27 -112 -53 -163 -108 -57 -62 -83 -105 -103 -172
-80 -274 140 -548 424 -528 41 3 101 15 132 27 67 25 151 97 196 168 80 125
82 298 6 428 -36 61 -126 141 -191 171 -80 36 -223 43 -301 14z m79 -180 c66
-66 20 -171 -74 -171 -38 0 -49 5 -71 31 -59 69 -15 169 74 169 33 0 48 -6 71
-29z m237 -60 c6 -17 -332 -355 -349 -349 -39 13 -17 45 142 205 161 160 194
184 207 144z m16 -232 c58 -69 15 -169 -73 -169 -28 0 -48 7 -68 24 -24 21
-28 32 -28 76 0 44 4 55 28 76 20 17 40 24 72 24 36 0 47 -5 69 -31z"/>
<path d="M1300 990 c-11 -11 -20 -23 -20 -28 0 -18 33 -52 50 -52 17 0 50 34
50 52 0 11 -38 48 -50 48 -5 0 -19 -9 -30 -20z"/>
<path d="M1552 708 c-21 -21 -15 -68 11 -77 46 -18 84 33 51 70 -20 22 -44 25
-62 7z"/>
</g>
</svg>
