<?xml version="1.0" standalone="no"?>
<!DOCTYPE svg PUBLIC "-//W3C//DTD SVG 20010904//EN"
 "http://www.w3.org/TR/2001/REC-SVG-20010904/DTD/svg10.dtd">
<svg version="1.0" xmlns="http://www.w3.org/2000/svg"
 width="200.000000pt" height="200.000000pt" viewBox="0 0 200.000000 200.000000"
 preserveAspectRatio="xMidYMid meet">
<metadata>
Created by potrace 1.16, written by Peter Selinger 2001-2019
</metadata>
<g transform="translate(0.000000,200.000000) scale(0.100000,-0.100000)"
fill="#000000" stroke="none">
<path d="M205 1818 c-3 -7 -4 -380 -3 -828 l3 -815 627 -3 628 -2 5 22 c3 13
4 113 3 223 l-3 200 -187 3 -188 2 0 310 c0 297 1 311 20 330 12 12 33 20 55
20 28 0 35 4 35 20 0 27 35 60 64 60 31 0 76 -36 76 -61 0 -32 52 -22 60 11 3
15 18 31 37 40 32 15 33 15 33 92 l0 77 -157 3 -158 3 -3 153 -3 152 -470 0
c-366 0 -471 -3 -474 -12z m605 -149 c59 -26 115 -82 148 -144 36 -69 37 -179
3 -245 -40 -76 -71 -108 -134 -140 -51 -26 -72 -30 -137 -30 -121 0 -203 51
-262 163 -33 60 -33 194 0 254 59 112 142 163 261 163 55 0 89 -6 121 -21z
m-350 -664 c5 -14 16 -25 23 -25 17 0 43 -28 52 -58 5 -16 2 -24 -11 -29 -11
-4 -20 -1 -22 6 -10 30 -44 52 -74 49 -68 -7 -61 -69 8 -79 54 -7 79 -23 94
-59 10 -25 10 -34 -4 -55 -9 -13 -30 -32 -46 -40 -17 -9 -30 -22 -30 -30 0
-22 -31 -18 -37 4 -2 10 -15 23 -28 29 -30 14 -59 57 -51 77 9 24 30 17 48
-15 18 -32 52 -39 89 -20 45 24 11 70 -51 70 -37 0 -90 47 -90 80 0 25 51 80
74 80 9 0 16 8 16 20 0 28 29 25 40 -5z m565 -135 c0 -13 -31 -15 -215 -15
-197 0 -215 1 -218 18 -3 16 10 17 215 15 186 -3 218 -5 218 -18z m0 -180 c0
-13 -32 -15 -217 -18 -178 -2 -218 0 -218 11 0 8 3 17 7 21 4 3 102 5 217 4
180 -3 211 -5 211 -18z m243 -187 c-3 -17 -33 -18 -463 -18 -430 0 -460 1
-463 18 -3 16 24 17 463 17 439 0 466 -1 463 -17z m0 -185 c3 -17 -24 -18
-457 -18 -296 0 -462 4 -466 10 -17 28 18 30 463 28 426 -3 457 -4 460 -20z"/>
<path d="M603 1634 c-24 -9 -62 -35 -86 -58 -161 -156 -48 -426 179 -426 140
0 246 107 246 250 0 96 -50 177 -137 222 -52 27 -147 33 -202 12z m41 -100
c33 -32 4 -104 -42 -104 -32 0 -62 29 -62 60 0 36 24 60 60 60 16 0 36 -7 44
-16z m206 3 c0 -7 -65 -77 -144 -156 -131 -131 -166 -156 -166 -118 0 6 62 74
137 149 125 126 173 160 173 125z m-25 -192 c29 -28 31 -42 9 -73 -18 -26 -75
-30 -94 -7 -20 24 -15 67 10 87 30 24 46 23 75 -7z"/>
<path d="M1190 1680 l0 -120 122 0 123 0 -120 120 c-66 66 -121 120 -122 120
-2 0 -3 -54 -3 -120z"/>
<path d="M1252 1308 c-17 -17 -15 -93 3 -108 12 -10 18 -10 30 0 27 23 15 120
-15 120 -3 0 -11 -5 -18 -12z"/>
<path d="M1453 1313 c-19 -7 -17 -109 2 -117 35 -13 59 59 35 105 -11 19 -16
21 -37 12z"/>
<path d="M1652 1308 c-17 -17 -15 -93 2 -107 33 -27 61 52 36 100 -12 22 -21
24 -38 7z"/>
<path d="M1142 1228 c-6 -6 -12 -34 -12 -60 l0 -48 335 0 335 0 0 54 c0 40 -4
55 -16 60 -30 12 -42 6 -47 -24 -8 -38 -47 -64 -85 -55 -27 5 -42 23 -56 68
-3 10 -15 17 -29 17 -19 0 -26 -7 -30 -30 -8 -39 -47 -64 -88 -55 -25 6 -35
16 -47 46 -20 51 -44 51 -69 2 -24 -51 -63 -65 -100 -37 -15 12 -30 32 -33 45
-6 27 -38 37 -58 17z"/>
<path d="M1137 1073 c-4 -3 -7 -98 -7 -210 l0 -203 335 0 335 0 0 210 0 210
-328 0 c-181 0 -332 -3 -335 -7z m201 -120 l3 -73 -71 0 -70 0 0 68 c0 38 3
72 7 76 4 4 34 6 68 4 l60 -3 3 -72z m197 2 l0 -70 -70 0 -70 0 -3 58 c-4 79
6 89 82 85 l61 -3 0 -70z m194 61 c7 -9 11 -38 9 -73 l-3 -58 -70 0 -70 0 -3
59 c-2 32 -1 65 2 72 7 20 119 19 135 0z m-389 -256 l0 -70 -70 0 -70 0 0 70
0 70 70 0 70 0 0 -70z m198 3 l-3 -68 -70 0 -70 0 -3 54 c-5 79 -3 81 78 81
l71 0 -3 -67z m197 -3 l0 -65 -70 0 -70 0 -3 68 -3 68 73 -3 73 -3 0 -65z"/>
<path d="M1240 955 c0 -32 2 -35 30 -35 28 0 30 3 30 35 0 32 -2 35 -30 35
-28 0 -30 -3 -30 -35z"/>
<path d="M1440 956 c0 -33 2 -36 31 -36 28 0 30 2 27 33 -2 27 -8 33 -30 35
-26 3 -28 1 -28 -32z"/>
<path d="M1637 983 c-4 -3 -7 -19 -7 -35 0 -24 4 -28 30 -28 28 0 30 3 30 35
0 30 -3 35 -23 35 -13 0 -27 -3 -30 -7z"/>
<path d="M1240 760 c0 -27 3 -30 30 -30 27 0 30 3 30 30 0 27 -3 30 -30 30
-27 0 -30 -3 -30 -30z"/>
<path d="M1440 760 c0 -27 3 -30 30 -30 27 0 30 3 30 30 0 27 -3 30 -30 30
-27 0 -30 -3 -30 -30z"/>
<path d="M1630 760 c0 -27 3 -30 30 -30 27 0 30 3 30 30 0 27 -3 30 -30 30
-27 0 -30 -3 -30 -30z"/>
</g>
</svg>
