<?xml version="1.0" standalone="no"?>
<!DOCTYPE svg PUBLIC "-//W3C//DTD SVG 20010904//EN"
 "http://www.w3.org/TR/2001/REC-SVG-20010904/DTD/svg10.dtd">
<svg version="1.0" xmlns="http://www.w3.org/2000/svg"
 width="200.000000pt" height="200.000000pt" viewBox="0 0 200.000000 200.000000"
 preserveAspectRatio="xMidYMid meet">
<metadata>
Created by potrace 1.16, written by Peter Selinger 2001-2019
</metadata>
<g transform="translate(0.000000,200.000000) scale(0.100000,-0.100000)"
fill="#000000" stroke="none">
<path d="M245 1833 c-11 -3 -28 -12 -37 -21 -17 -14 -18 -66 -18 -812 l0 -797
21 -19 c20 -18 45 -19 620 -19 l598 0 23 23 c22 22 23 29 26 232 l3 210 162 2
162 3 3 299 c2 213 -1 303 -9 312 -6 8 -29 17 -50 20 -28 5 -39 12 -39 24 0
24 -32 50 -63 50 -29 0 -67 -31 -67 -55 0 -10 -10 -15 -30 -15 -22 0 -30 5
-30 18 0 11 -9 27 -20 37 -17 15 -20 31 -20 104 l0 87 -163 162 -163 162 -445
-1 c-244 -1 -453 -4 -464 -6z m885 -181 c0 -94 4 -142 12 -150 8 -8 56 -12
150 -12 l138 0 0 -73 c0 -61 -3 -77 -20 -92 -11 -10 -20 -26 -20 -37 0 -13 -8
-18 -30 -18 -21 0 -30 5 -30 17 0 26 -30 53 -59 53 -34 0 -71 -26 -71 -49 0
-14 -10 -20 -39 -25 -21 -3 -44 -12 -50 -20 -8 -9 -11 -99 -9 -312 l3 -299
163 -3 162 -2 0 -210 0 -210 -597 2 -598 3 -3 775 c-1 426 0 781 3 788 3 9
103 12 450 12 l445 0 0 -138z m270 -109 c0 -1 -52 -3 -115 -3 l-115 0 0 111 0
111 115 -108 c63 -59 115 -109 115 -111z m-115 -298 c0 -44 -3 -50 -22 -53
-21 -3 -23 1 -23 46 0 53 6 64 30 60 11 -3 15 -16 15 -53z m190 0 c0 -44 -3
-50 -22 -53 -21 -3 -23 1 -23 46 0 53 6 64 30 60 11 -3 15 -16 15 -53z m193
-3 c3 -51 2 -53 -20 -50 -19 2 -24 10 -26 42 -4 49 3 68 25 64 14 -2 19 -15
21 -56z m-468 -40 c0 -26 34 -54 65 -54 31 0 65 28 65 54 0 13 8 18 30 18 22
0 30 -5 30 -18 0 -26 34 -54 65 -54 31 0 65 28 65 54 0 13 8 18 30 18 22 0 30
-5 30 -18 0 -63 114 -73 127 -12 4 25 10 30 34 30 28 0 29 -2 29 -50 l0 -50
-315 0 -315 0 0 50 c0 49 1 50 30 50 22 0 30 -5 30 -18z m570 -332 l0 -200
-315 0 -315 0 0 200 0 200 315 0 315 0 0 -200z"/>
<path d="M584 1636 c-105 -49 -156 -127 -162 -246 -4 -69 -1 -80 30 -139 54
-105 152 -159 269 -148 147 13 254 130 254 277 0 203 -210 340 -391 256z m223
-44 c55 -29 99 -82 118 -144 19 -64 19 -72 0 -136 -32 -106 -115 -166 -231
-167 -61 0 -77 4 -120 30 -105 65 -144 199 -90 309 28 57 76 101 135 123 48
18 137 10 188 -15z"/>
<path d="M573 1540 c-26 -11 -43 -40 -43 -72 0 -82 118 -104 150 -29 26 63
-43 128 -107 101z m61 -46 c9 -8 16 -19 16 -24 0 -9 -28 -40 -36 -40 -3 0 -14
5 -25 10 -24 13 -25 46 -1 59 23 14 28 14 46 -5z"/>
<path d="M683 1398 c-73 -73 -133 -138 -133 -144 0 -38 34 -15 160 111 125
125 154 165 117 165 -6 0 -70 -59 -144 -132z"/>
<path d="M736 1349 c-50 -39 -26 -122 39 -135 74 -14 118 88 59 135 -15 12
-37 21 -49 21 -12 0 -34 -9 -49 -21z m72 -31 c30 -30 -4 -77 -41 -57 -29 17
-15 69 18 69 6 0 16 -5 23 -12z"/>
<path d="M433 1011 c-3 -11 -18 -25 -33 -31 -16 -6 -34 -25 -41 -41 -10 -26
-9 -34 8 -57 12 -16 38 -32 64 -40 78 -23 92 -38 64 -66 -27 -27 -70 -20 -98
15 -18 24 -26 28 -34 17 -16 -19 2 -56 36 -76 17 -9 32 -25 35 -34 2 -10 9
-18 16 -18 7 0 14 8 16 18 3 9 18 25 35 34 37 22 53 56 41 88 -11 28 -34 42
-98 59 -47 13 -61 33 -38 56 29 28 104 10 104 -26 0 -5 9 -9 20 -9 11 0 20 6
20 14 0 20 -37 64 -60 71 -11 4 -20 15 -20 26 0 25 -30 25 -37 0z"/>
<path d="M607 893 c-4 -3 -7 -12 -7 -20 0 -10 41 -13 203 -13 112 0 206 3 210
6 3 3 3 12 0 20 -4 11 -42 14 -202 14 -109 0 -201 -3 -204 -7z"/>
<path d="M602 703 c3 -16 22 -18 202 -21 149 -2 201 1 207 10 4 7 5 16 3 20
-3 4 -97 8 -210 8 -190 0 -205 -1 -202 -17z"/>
<path d="M367 543 c-4 -3 -7 -12 -7 -20 0 -11 77 -13 443 -11 385 3 442 5 442
18 0 13 -56 15 -436 18 -239 1 -439 -1 -442 -5z"/>
<path d="M362 353 c3 -17 31 -18 443 -18 384 0 440 2 440 15 0 13 -57 15 -443
18 -419 2 -443 1 -440 -15z"/>
<path d="M1212 1021 c-9 -5 -12 -27 -10 -72 l3 -64 53 -3 c70 -4 82 7 82 74 0
42 -4 55 -19 64 -23 12 -91 13 -109 1z m88 -66 c0 -21 -5 -25 -30 -25 -25 0
-30 4 -30 25 0 21 5 25 30 25 25 0 30 -4 30 -25z"/>
<path d="M1396 1014 c-19 -19 -21 -93 -3 -118 10 -13 24 -17 67 -14 l55 3 3
64 c2 45 -1 67 -10 72 -22 15 -96 10 -112 -7z m84 -59 c0 -20 -5 -25 -25 -25
-20 0 -25 5 -25 25 0 20 5 25 25 25 20 0 25 -5 25 -25z"/>
<path d="M1588 1019 c-14 -7 -18 -23 -18 -63 0 -67 12 -78 82 -74 l53 3 3 64
c2 45 -1 67 -10 72 -18 12 -89 10 -110 -2z m82 -64 c0 -21 -5 -25 -30 -25 -25
0 -30 4 -30 25 0 21 5 25 30 25 25 0 30 -4 30 -25z"/>
<path d="M1202 773 l3 -68 62 -3 c58 -3 63 -1 68 21 4 13 5 43 3 68 l-3 44
-68 3 -68 3 3 -68z m96 0 c-2 -22 -9 -29 -30 -31 -25 -3 -28 0 -28 27 0 28 3
31 31 31 27 0 30 -3 27 -27z"/>
<path d="M1386 824 c-8 -20 -8 -72 0 -101 6 -21 12 -23 70 -23 l64 0 0 70 0
70 -64 0 c-49 0 -65 -4 -70 -16z m94 -54 c0 -25 -4 -30 -25 -30 -21 0 -25 5
-25 30 0 25 4 30 25 30 21 0 25 -5 25 -30z"/>
<path d="M1574 826 c-3 -7 -4 -38 -2 -67 l3 -54 65 0 65 0 3 68 3 67 -66 0
c-46 0 -67 -4 -71 -14z m96 -57 c0 -27 -3 -30 -27 -27 -22 2 -29 9 -31 31 -3
24 0 27 27 27 28 0 31 -3 31 -31z"/>
</g>
</svg>
