<?xml version="1.0" standalone="no"?>
<!DOCTYPE svg PUBLIC "-//W3C//DTD SVG 20010904//EN"
 "http://www.w3.org/TR/2001/REC-SVG-20010904/DTD/svg10.dtd">
<svg version="1.0" xmlns="http://www.w3.org/2000/svg"
 width="200.000000pt" height="200.000000pt" viewBox="0 0 200.000000 200.000000"
 preserveAspectRatio="xMidYMid meet">
<metadata>
Created by potrace 1.16, written by Peter Selinger 2001-2019
</metadata>
<g transform="translate(0.000000,200.000000) scale(0.100000,-0.100000)"
fill="#000000" stroke="none">
<path d="M350 1000 l0 -920 650 0 650 0 0 793 0 792 -128 128 -127 127 -523 0
-522 0 0 -920z m668 673 c2 -22 9 -33 25 -37 53 -14 115 -103 100 -143 -9 -24
-31 -13 -38 20 -4 17 -19 44 -33 60 -21 22 -34 27 -72 27 -63 0 -103 -39 -103
-100 0 -56 24 -84 113 -135 110 -62 135 -100 131 -197 -1 -34 -46 -87 -87
-104 -24 -10 -33 -21 -36 -41 -4 -41 -38 -44 -38 -5 0 26 -7 33 -42 51 -47 22
-67 48 -78 98 -10 42 14 68 29 32 5 -13 14 -36 20 -52 6 -15 26 -34 45 -44 30
-14 41 -15 76 -4 49 15 73 48 72 102 -1 51 -32 87 -112 130 -99 54 -131 93
-132 163 -1 59 27 106 79 131 33 16 42 25 43 46 0 50 33 52 38 2z m332 -828
c0 -13 -46 -15 -350 -15 -304 0 -350 2 -350 15 0 13 46 15 350 15 304 0 350
-2 350 -15z m-411 -179 c38 -46 -25 -111 -69 -71 -22 20 -26 55 -8 73 17 17
63 15 77 -2z m228 -12 c2 -5 -65 -83 -148 -174 -135 -148 -184 -189 -184 -154
0 18 305 346 318 341 6 -2 12 -7 14 -13z m-24 -285 c5 -9 7 -28 3 -42 -7 -30
-49 -46 -75 -30 -20 13 -26 60 -10 79 16 19 69 14 82 -7z"/>
</g>
</svg>
