<?xml version="1.0" standalone="no"?>
<!DOCTYPE svg PUBLIC "-//W3C//DTD SVG 20010904//EN"
 "http://www.w3.org/TR/2001/REC-SVG-20010904/DTD/svg10.dtd">
<svg version="1.0" xmlns="http://www.w3.org/2000/svg"
 width="200.000000pt" height="200.000000pt" viewBox="0 0 200.000000 200.000000"
 preserveAspectRatio="xMidYMid meet">
<metadata>
Created by potrace 1.16, written by Peter Selinger 2001-2019
</metadata>
<g transform="translate(0.000000,200.000000) scale(0.100000,-0.100000)"
fill="#000000" stroke="none">
<path d="M742 1913 c-18 -9 -39 -28 -47 -43 -11 -21 -24 -29 -55 -33 -51 -7
-85 -29 -110 -70 -28 -45 -25 -76 20 -236 22 -78 40 -147 40 -154 0 -8 -12
-24 -26 -38 -31 -28 -54 -77 -54 -115 0 -19 -19 -47 -69 -99 -174 -183 -272
-442 -242 -640 40 -270 289 -448 568 -405 58 9 109 10 175 4 132 -12 204 -9
274 14 52 16 65 17 85 6 13 -7 53 -18 90 -25 192 -34 376 101 408 301 27 169
-60 318 -226 386 -53 21 -56 24 -87 97 -44 99 -111 199 -185 272 -51 49 -61
65 -61 93 0 40 -13 67 -53 109 l-30 32 41 149 c23 82 42 164 42 183 0 67 -56
126 -128 136 -29 4 -42 12 -55 34 -25 44 -71 59 -184 59 -70 0 -107 -5 -131
-17z m190 -188 c-17 -87 -9 -120 33 -131 39 -10 72 18 82 68 7 34 13 44 32 46
13 2 27 0 31 -5 4 -4 -11 -75 -34 -158 l-42 -150 -156 -3 -157 -3 -16 53 c-50
176 -71 258 -67 263 3 3 18 5 34 5 21 0 28 -5 28 -20 0 -11 6 -36 14 -55 18
-43 55 -55 92 -30 25 16 26 21 21 69 -4 28 -9 68 -13 89 l-7 37 70 0 70 0 -15
-75z m172 -481 c19 -19 20 -25 3 -47 -11 -16 -34 -17 -237 -15 l-225 3 -3 23
c-7 49 4 52 234 52 180 0 215 -2 228 -16z m-491 -179 c55 -23 470 -22 527 1
41 17 41 17 72 -12 55 -53 168 -228 168 -262 0 -4 -19 -13 -42 -19 -101 -27
-203 -132 -235 -242 -24 -83 -14 -186 25 -261 l31 -60 -26 -6 c-14 -4 -64 -3
-112 1 -47 5 -113 8 -146 7 -33 -1 -112 -2 -175 -4 -107 -3 -119 -1 -171 23
-79 37 -133 90 -171 167 -31 63 -33 73 -32 172 0 122 24 203 94 321 43 73 135
189 149 189 5 0 25 -7 44 -15z m968 -440 c151 -106 113 -362 -60 -414 -160
-48 -305 56 -305 219 0 75 22 126 76 176 46 43 80 54 170 51 67 -2 82 -6 119
-32z"/>
<path d="M1306 575 c-37 -37 -5 -111 45 -103 12 2 31 16 43 31 19 26 19 30 5
55 -18 33 -68 42 -93 17z"/>
<path d="M1409 483 c-44 -42 -82 -87 -85 -100 -9 -36 20 -73 58 -73 26 0 45
14 110 78 85 85 96 114 58 152 -34 34 -58 25 -141 -57z"/>
<path d="M1508 379 c-25 -14 -24 -71 1 -93 26 -23 60 -17 84 15 17 24 18 30 6
55 -15 32 -59 43 -91 23z"/>
</g>
</svg>
