<?xml version="1.0" standalone="no"?>
<!DOCTYPE svg PUBLIC "-//W3C//DTD SVG 20010904//EN"
 "http://www.w3.org/TR/2001/REC-SVG-20010904/DTD/svg10.dtd">
<svg version="1.0" xmlns="http://www.w3.org/2000/svg"
 width="200.000000pt" height="200.000000pt" viewBox="0 0 200.000000 200.000000"
 preserveAspectRatio="xMidYMid meet">
<metadata>
Created by potrace 1.16, written by Peter Selinger 2001-2019
</metadata>
<g transform="translate(0.000000,200.000000) scale(0.100000,-0.100000)"
fill="#000000" stroke="none">
<path d="M112 1888 c-16 -16 -17 -1554 -2 -1610 15 -53 68 -119 120 -148 l45
-25 600 0 600 0 48 24 c112 56 200 174 214 288 9 80 4 83 -148 83 l-129 0 0
130 0 130 208 0 c148 0 211 3 220 12 17 17 17 559 0 576 -9 9 -72 12 -220 12
l-208 0 0 258 c0 187 -3 261 -12 270 -17 17 -1319 17 -1336 0z m1268 -298 l0
-230 -208 0 c-148 0 -211 -3 -220 -12 -17 -17 -17 -559 0 -576 9 -9 72 -12
220 -12 l208 0 0 -130 0 -130 -418 0 c-312 0 -421 -3 -430 -12 -7 -7 -12 -43
-12 -90 0 -93 -14 -132 -63 -175 -64 -56 -150 -56 -214 0 -66 58 -63 20 -63
847 l0 750 600 0 600 0 0 -230z m440 -530 l0 -220 -400 0 -400 0 0 220 0 220
400 0 400 0 0 -220z m-170 -671 c-26 -90 -112 -177 -197 -198 -26 -7 -204 -11
-477 -11 l-435 0 27 52 c19 37 28 71 30 120 l4 68 528 0 529 0 -9 -31z"/>
<path d="M440 1678 c0 -15 -11 -29 -30 -40 -37 -21 -70 -74 -70 -113 0 -68 69
-145 131 -145 34 0 69 -31 69 -60 0 -26 -34 -60 -60 -60 -21 0 -60 33 -60 50
0 6 -18 10 -40 10 -31 0 -40 -4 -40 -17 0 -29 38 -83 70 -101 19 -11 30 -25
30 -39 0 -20 5 -23 40 -23 36 0 40 3 40 24 0 16 7 27 20 31 29 9 68 61 76 100
12 67 -38 147 -102 160 -13 3 -35 7 -49 10 -30 6 -49 39 -41 71 13 50 86 56
108 9 9 -20 18 -25 51 -25 38 0 39 1 32 28 -9 40 -33 72 -66 90 -18 11 -29 25
-29 40 0 19 -5 22 -40 22 -35 0 -40 -3 -40 -22z"/>
<path d="M760 1660 l0 -40 210 0 210 0 0 40 0 40 -210 0 -210 0 0 -40z"/>
<path d="M760 1520 l0 -40 130 0 130 0 0 40 0 40 -130 0 -130 0 0 -40z"/>
<path d="M300 960 l0 -40 150 0 150 0 0 40 0 40 -150 0 -150 0 0 -40z"/>
<path d="M300 800 l0 -40 240 0 240 0 0 40 0 40 -240 0 -240 0 0 -40z"/>
<path d="M300 640 l0 -40 460 0 460 0 0 40 0 40 -460 0 -460 0 0 -40z"/>
<path d="M1352 1180 c-66 -41 -88 -113 -54 -180 63 -125 241 -93 258 47 14
108 -111 189 -204 133z m108 -80 c11 -11 20 -29 20 -40 0 -11 -9 -29 -20 -40
-11 -11 -29 -20 -40 -20 -11 0 -29 9 -40 20 -11 11 -20 29 -20 40 0 11 9 29
20 40 11 11 29 20 40 20 11 0 29 -9 40 -20z"/>
</g>
</svg>
