<?xml version="1.0" standalone="no"?>
<!DOCTYPE svg PUBLIC "-//W3C//DTD SVG 20010904//EN"
 "http://www.w3.org/TR/2001/REC-SVG-20010904/DTD/svg10.dtd">
<svg version="1.0" xmlns="http://www.w3.org/2000/svg"
 width="200.000000pt" height="200.000000pt" viewBox="0 0 200.000000 200.000000"
 preserveAspectRatio="xMidYMid meet">
<metadata>
Created by potrace 1.16, written by Peter Selinger 2001-2019
</metadata>
<g transform="translate(0.000000,200.000000) scale(0.100000,-0.100000)"
fill="#000000" stroke="none">
<path d="M700 1853 c1 -10 7 -47 15 -83 28 -126 17 -160 -49 -160 -32 0 -52
29 -67 99 l-11 53 -40 -5 c-22 -3 -45 -10 -51 -16 -7 -7 2 -55 29 -152 l40
-141 233 0 c188 0 235 2 241 13 17 34 72 259 67 273 -6 16 -69 32 -86 22 -5
-3 -14 -30 -21 -58 -6 -29 -18 -60 -27 -70 -35 -39 -103 -10 -103 43 0 13 9
61 19 106 10 45 16 85 13 88 -3 3 -50 5 -104 5 -87 0 -98 -2 -98 -17z"/>
<path d="M529 1291 c-53 -53 -33 -140 39 -170 20 -9 96 -11 251 -9 l223 3 29
33 c41 45 41 102 0 143 l-29 29 -242 0 -242 0 -29 -29z"/>
<path d="M381 1055 c-102 -117 -169 -267 -192 -431 -21 -146 23 -276 126 -373
100 -95 222 -133 355 -112 55 9 125 11 237 6 138 -6 166 -5 216 11 32 10 56
20 54 23 -1 3 -18 36 -36 73 -56 115 -52 258 10 379 28 56 103 135 159 167 25
14 47 27 48 28 9 6 -83 164 -122 211 l-43 52 -28 -29 c-15 -16 -48 -38 -71
-50 -40 -18 -63 -20 -285 -20 -272 0 -303 5 -361 61 l-38 36 -29 -32z"/>
<path d="M1443 716 c-134 -44 -215 -151 -215 -286 0 -90 29 -157 93 -214 58
-52 121 -76 199 -76 78 0 141 24 199 76 124 111 130 305 13 422 -72 71 -202
107 -289 78z m19 -143 c27 -24 23 -69 -8 -89 -55 -37 -117 25 -80 80 19 30 60
35 88 9z m163 -38 c14 -13 25 -32 25 -41 0 -9 -37 -54 -82 -100 -86 -88 -118
-103 -152 -68 -35 34 -20 66 68 152 46 45 91 82 100 82 9 0 28 -11 41 -25z
m37 -162 c24 -21 23 -58 -2 -83 -25 -25 -55 -25 -80 0 -55 55 24 136 82 83z"/>
</g>
</svg>
