<?xml version="1.0" standalone="no"?>
<!DOCTYPE svg PUBLIC "-//W3C//DTD SVG 20010904//EN"
 "http://www.w3.org/TR/2001/REC-SVG-20010904/DTD/svg10.dtd">
<svg version="1.0" xmlns="http://www.w3.org/2000/svg"
 width="200.000000pt" height="200.000000pt" viewBox="0 0 200.000000 200.000000"
 preserveAspectRatio="xMidYMid meet">
<metadata>
Created by potrace 1.16, written by Peter Selinger 2001-2019
</metadata>
<g transform="translate(0.000000,200.000000) scale(0.100000,-0.100000)"
fill="#000000" stroke="none">
<path d="M1255 1945 c-37 -20 -62 -51 -70 -87 -6 -27 -9 -28 -70 -28 -92 0
-115 -11 -115 -55 l0 -35 193 -2 c184 -3 192 -4 192 -23 0 -19 -8 -20 -207
-23 l-208 -2 0 -58 c0 -32 5 -63 12 -70 8 -8 48 -12 116 -12 92 0 108 3 135
23 23 16 46 22 82 22 37 0 58 -6 79 -22 26 -21 40 -23 135 -23 70 0 111 4 119
12 7 7 12 38 12 70 l0 57 -72 3 c-67 3 -73 5 -76 26 -3 21 0 22 58 22 l61 0
-3 32 c-4 42 -35 58 -115 58 -61 0 -62 0 -72 33 -26 78 -118 118 -186 82z m83
-51 c34 -10 57 -59 42 -94 -16 -40 -64 -58 -99 -39 -35 20 -49 61 -31 95 20
36 49 48 88 38z m147 -179 c0 -13 -8 -21 -24 -23 -28 -4 -46 11 -37 33 9 25
61 16 61 -10z"/>
<path d="M1300 1825 c0 -8 7 -15 15 -15 8 0 15 7 15 15 0 8 -7 15 -15 15 -8 0
-15 -7 -15 -15z"/>
<path d="M766 1699 l-26 -20 0 -215 0 -214 35 0 35 0 2 193 3 192 48 3 47 3 0
40 0 39 -59 0 c-44 0 -65 -5 -85 -21z"/>
<path d="M1714 1707 c-3 -9 -4 -26 -2 -39 3 -20 10 -24 53 -28 l50 -5 3 -604
c1 -438 -1 -608 -9 -617 -9 -11 -66 -14 -280 -14 l-269 0 0 -35 0 -35 293 0
c160 0 297 4 303 8 33 21 34 50 34 690 0 744 9 683 -104 690 -53 3 -67 1 -72
-11z"/>
<path d="M860 1409 c0 -178 0 -181 26 -214 14 -18 33 -37 42 -42 9 -4 121 -10
247 -13 l230 -5 0 -25 0 -25 -207 -3 -208 -2 0 -30 0 -30 350 0 350 0 0 -25 0
-25 -362 -2 -363 -3 0 -25 c0 -23 5 -25 50 -30 42 -4 50 -8 53 -28 3 -18 -2
-23 -28 -29 -26 -5 -31 -9 -26 -27 3 -12 6 -24 6 -28 0 -4 73 -9 163 -10 154
-3 162 -4 162 -23 0 -19 -8 -20 -118 -25 l-118 -5 28 -27 29 -28 259 -2 260
-3 3 -22 3 -23 -239 0 c-131 0 -242 -3 -245 -7 -4 -3 -3 -11 2 -17 10 -13 37
-90 45 -129 l6 -27 250 0 250 0 0 570 0 570 -25 0 c-18 0 -25 -5 -25 -19 0
-11 -14 -31 -31 -45 -29 -25 -36 -26 -157 -26 -116 0 -128 2 -149 22 -15 14
-36 22 -58 22 -22 0 -43 -8 -58 -22 -21 -20 -33 -22 -150 -22 -142 0 -168 8
-186 61 -7 22 -16 29 -35 29 l-26 0 0 -181z m720 12 c0 -5 12 -23 26 -40 31
-38 37 -88 11 -105 -21 -13 -37 5 -37 42 0 26 -34 31 -44 6 -9 -23 9 -49 49
-73 19 -11 40 -33 46 -48 13 -35 4 -88 -19 -105 -9 -7 -22 -22 -28 -33 -15
-28 -41 -30 -49 -5 -4 11 -18 32 -31 45 -33 33 -31 88 4 93 18 3 22 -1 22 -21
0 -27 23 -52 40 -42 24 15 10 55 -30 80 -21 13 -44 33 -50 44 -17 33 -12 86
11 107 12 10 25 29 30 42 8 21 49 32 49 13z m-410 -80 c0 -26 -18 -31 -120
-31 -102 0 -120 5 -120 31 0 18 9 19 120 19 111 0 120 -1 120 -19z m118 -3 c2
-12 -5 -19 -22 -24 -40 -10 -76 3 -76 27 0 18 5 20 47 17 36 -2 49 -7 51 -20z
m-223 -113 c0 -17 -8 -20 -59 -23 -62 -3 -83 6 -72 33 5 13 18 15 68 13 55 -3
63 -5 63 -23z m345 0 l0 -25 -165 0 -165 0 0 25 0 25 165 0 165 0 0 -25z m278
-342 l3 -23 -305 0 c-295 0 -306 1 -306 19 0 11 6 22 13 24 6 3 143 5 302 4
l290 -2 3 -22z m0 -115 c-3 -23 -5 -23 -163 -23 -158 0 -160 0 -163 23 l-3 22
166 0 166 0 -3 -22z"/>
<path d="M675 1170 c-18 -20 -18 -27 1 -152 l6 -38 74 0 c41 0 74 2 74 4 0 3
5 39 11 81 9 65 8 80 -6 101 -14 21 -23 24 -79 24 -50 0 -67 -4 -81 -20z"/>
<path d="M587 1088 c-16 -22 -17 -33 -7 -67 14 -54 40 -56 39 -3 -1 20 -4 51
-8 67 l-7 30 -17 -27z"/>
<path d="M897 1073 c-11 -63 -8 -93 8 -93 8 0 17 15 22 38 8 44 6 62 -11 80
-11 11 -14 7 -19 -25z"/>
<path d="M606 914 c-9 -8 -16 -28 -16 -44 0 -20 -6 -29 -21 -33 -16 -4 -20
-12 -17 -34 l3 -28 194 -3 c204 -3 210 -1 211 41 0 11 -9 21 -20 24 -14 4 -20
14 -20 33 0 54 -18 60 -165 60 -108 0 -137 -3 -149 -16z"/>
<path d="M225 791 c-141 -63 -141 -268 -1 -332 113 -51 236 15 260 140 19 101
-76 211 -184 211 -19 0 -53 -9 -75 -19z m49 -57 c23 -9 20 -51 -5 -64 -37 -20
-67 28 -37 58 14 14 20 14 42 6z m103 -50 c7 -20 -103 -134 -130 -134 -40 0
-30 31 29 91 59 59 89 73 101 43z m-9 -106 c17 -17 15 -43 -4 -59 -31 -26 -70
25 -44 56 15 18 32 19 48 3z"/>
<path d="M510 748 c0 -3 7 -23 16 -44 11 -27 15 -56 11 -95 -5 -63 -23 -102
-69 -155 l-31 -36 32 4 c29 3 35 9 56 62 31 76 75 121 144 147 172 65 345 -68
328 -252 -11 -126 -100 -210 -229 -217 -84 -5 -118 -30 -118 -87 l0 -35 93 0
c193 0 291 33 376 125 98 108 116 267 44 409 -28 55 -97 132 -141 158 -26 16
-31 16 -42 3 -10 -12 -49 -15 -223 -15 -182 0 -213 2 -229 17 -10 9 -18 14
-18 11z"/>
<path d="M653 565 c-30 -18 -49 -41 -69 -81 -24 -49 -26 -59 -16 -92 7 -20 13
-48 14 -62 3 -21 9 -26 43 -30 51 -7 61 -14 70 -47 8 -35 21 -43 68 -43 113 0
208 126 178 238 -14 51 -64 110 -108 128 -53 23 -132 18 -180 -11z m124 -22
c3 -10 14 -27 24 -38 17 -19 23 -37 20 -62 -2 -21 -42 -15 -48 7 -3 11 -12 20
-19 20 -8 0 -14 -9 -14 -20 0 -13 7 -20 19 -20 59 0 90 -93 43 -130 -12 -10
-22 -25 -22 -34 0 -10 -9 -16 -25 -16 -18 0 -25 5 -25 19 0 10 -7 21 -15 25
-8 3 -20 18 -26 32 -8 22 -6 31 6 43 15 15 18 14 39 -12 22 -27 36 -27 36 -1
0 8 -11 16 -24 20 -57 14 -78 83 -39 127 11 12 23 30 26 40 4 9 13 17 22 17 9
0 18 -8 22 -17z"/>
<path d="M110 335 l0 -35 205 0 205 0 0 35 0 35 -205 0 -205 0 0 -35z"/>
<path d="M237 243 c-4 -3 -7 -21 -7 -40 l0 -33 205 0 205 0 0 40 0 40 -198 0
c-109 0 -202 -3 -205 -7z"/>
<path d="M180 85 l0 -35 205 0 205 0 0 35 0 35 -205 0 -205 0 0 -35z"/>
</g>
</svg>
