<?xml version="1.0" standalone="no"?>
<!DOCTYPE svg PUBLIC "-//W3C//DTD SVG 20010904//EN"
 "http://www.w3.org/TR/2001/REC-SVG-20010904/DTD/svg10.dtd">
<svg version="1.0" xmlns="http://www.w3.org/2000/svg"
 width="200.000000pt" height="200.000000pt" viewBox="0 0 200.000000 200.000000"
 preserveAspectRatio="xMidYMid meet">
<metadata>
Created by potrace 1.16, written by Peter Selinger 2001-2019
</metadata>
<g transform="translate(0.000000,200.000000) scale(0.100000,-0.100000)"
fill="#000000" stroke="none">
<path d="M1254 1951 c-42 -19 -84 -67 -84 -95 0 -13 -12 -16 -62 -16 -81 0
-110 -15 -121 -61 l-8 -36 -96 -5 c-86 -5 -97 -8 -121 -32 l-27 -26 -3 -230
c-2 -178 -6 -230 -16 -230 -15 0 -56 -42 -56 -58 0 -7 -7 -12 -16 -12 -8 0
-29 -14 -46 -30 -27 -28 -30 -35 -24 -71 4 -23 13 -54 21 -69 13 -25 13 -32 0
-57 -8 -15 -15 -33 -15 -39 0 -6 -7 -17 -15 -24 -8 -7 -15 -23 -15 -37 0 -35
-27 -40 -58 -10 -48 44 -92 61 -163 62 -56 0 -73 -4 -115 -30 -125 -78 -150
-245 -52 -351 l41 -44 -32 0 c-60 0 -71 -13 -71 -85 0 -55 3 -66 22 -79 12 -9
37 -16 55 -16 31 0 33 -2 33 -34 0 -26 -5 -36 -20 -41 -38 -12 -39 -134 0
-155 25 -13 447 -13 455 0 3 6 51 10 108 10 137 0 219 14 294 51 74 35 132 98
164 175 l23 54 302 0 302 0 31 26 31 26 0 647 c0 719 4 681 -68 701 -20 5 -70
10 -109 10 l-73 0 0 29 c0 46 -39 71 -114 71 l-61 1 -18 39 c-34 73 -128 107
-203 71z m137 -70 c17 -17 29 -40 29 -55 0 -35 26 -46 109 -46 64 0 71 -2 71
-20 0 -16 -7 -20 -32 -20 -42 0 -61 -12 -56 -36 3 -16 14 -20 61 -22 l58 -3
-3 -52 -3 -52 -90 -3 c-81 -3 -94 0 -138 24 -58 31 -121 29 -168 -5 -26 -19
-40 -21 -122 -19 l-92 3 -3 52 -3 53 188 2 c186 3 188 3 191 25 2 17 -3 24
-21 28 l-25 7 24 23 c27 27 30 46 13 78 -16 29 -28 37 -61 37 -64 0 -91 -80
-42 -119 l27 -21 -132 0 c-124 0 -131 1 -131 20 0 18 7 20 63 20 89 0 105 7
112 44 18 84 116 116 176 57z m-57 -60 c3 -5 -1 -14 -8 -20 -16 -13 -32 2 -21
19 8 12 22 13 29 1z m-374 -161 c0 -17 -7 -20 -49 -20 -86 0 -81 14 -81 -216
0 -197 -1 -204 -20 -204 -19 0 -20 7 -20 224 0 170 3 226 13 229 6 3 45 6 85
6 66 1 72 -1 72 -19z m878 8 c9 -9 12 -165 12 -640 0 -610 -1 -628 -19 -638
-12 -6 -128 -10 -305 -10 -279 0 -286 0 -286 20 0 19 7 20 266 20 164 0 273 4
285 10 18 10 19 28 19 598 0 444 -3 591 -12 600 -7 7 -36 12 -65 12 -46 0 -53
3 -53 20 0 18 7 20 73 20 43 0 78 -5 85 -12z m-878 -102 c0 -34 41 -46 153
-46 96 0 111 2 138 22 40 30 96 30 133 0 26 -20 40 -22 142 -22 101 0 116 2
134 20 11 11 20 25 20 30 0 6 18 10 40 10 l40 0 0 -550 0 -550 -262 2 -262 3
-8 38 c-4 20 -17 55 -28 77 l-20 40 235 0 c144 0 244 4 256 10 23 13 25 36 3
44 -9 3 -134 6 -278 6 l-262 0 -29 30 -29 30 138 0 c137 0 137 0 134 23 -3 22
-5 22 -175 25 -140 2 -173 5 -173 16 0 8 -3 21 -6 30 -5 13 2 16 41 16 42 0
46 2 43 23 -3 19 -10 22 -60 25 -59 3 -83 18 -72 46 5 14 46 16 373 18 358 3
366 3 366 23 0 20 -8 20 -351 23 l-352 2 -4 30 -5 30 218 0 c189 0 218 2 223
16 3 9 3 20 0 25 -3 6 -102 9 -238 9 -128 -1 -244 2 -258 5 -15 4 -29 16 -32
28 -3 12 -6 109 -6 215 l0 192 40 0 c28 0 40 -4 40 -14z m-126 -441 c0 -22 -4
-66 -8 -97 l-7 -58 -45 0 c-24 0 -44 4 -44 9 0 5 -5 44 -11 86 -14 103 -12
107 58 103 l58 -3 -1 -40z m-169 -62 c3 -21 8 -50 10 -65 6 -40 -18 -36 -33 5
-13 37 -16 80 -5 90 14 15 22 5 28 -30z m253 7 c5 -34 -18 -100 -35 -100 -10
0 -13 8 -9 28 2 15 7 44 11 65 7 42 28 46 33 7z m-8 -196 c0 -27 5 -37 20 -41
57 -15 2 -23 -155 -23 -157 0 -212 8 -155 23 15 4 20 14 20 41 l0 36 135 0
135 0 0 -36z m-472 -83 c102 -72 93 -234 -16 -298 -36 -21 -52 -25 -103 -21
-38 3 -69 11 -86 24 -109 81 -103 234 11 306 44 27 148 22 194 -11z m563 -51
c138 -71 220 -266 174 -414 -22 -71 -88 -147 -159 -184 -47 -25 -62 -27 -198
-30 -135 -4 -148 -2 -148 13 0 37 44 62 120 67 84 6 135 36 185 107 26 37 30
53 33 119 3 71 0 81 -28 130 -72 124 -224 157 -343 74 -42 -28 -97 -113 -97
-149 0 -20 -5 -23 -37 -23 l-37 0 31 33 c58 61 81 141 62 212 -17 62 -7 65
213 65 170 0 193 -2 229 -20z m-148 -144 c39 -16 82 -61 96 -99 29 -76 -2
-175 -68 -221 -64 -45 -161 -48 -161 -6 0 31 -36 60 -74 60 -38 0 -41 4 -51
85 -10 77 19 132 90 176 36 23 121 25 168 5z m-303 -231 l0 -35 -200 0 -200 0
0 35 0 35 200 0 200 0 0 -35z m110 -125 l0 -30 -195 0 -195 0 0 30 0 30 195 0
195 0 0 -30z m-40 -120 l0 -30 -200 0 -200 0 0 30 0 30 200 0 200 0 0 -30z"/>
<path d="M1434 1726 c-16 -12 -16 -16 -4 -30 17 -21 54 -17 58 6 5 25 -31 41
-54 24z"/>
<path d="M1533 1413 c-4 -10 -17 -31 -30 -46 -24 -30 -30 -75 -13 -107 6 -10
28 -29 50 -41 33 -19 40 -28 38 -49 -4 -37 -42 -35 -46 3 -3 23 -8 28 -25 25
-32 -4 -34 -48 -4 -84 13 -16 26 -37 30 -46 3 -10 13 -18 22 -18 9 0 19 8 22
18 4 9 17 27 30 39 17 16 23 33 23 63 0 42 -14 62 -74 103 -32 22 -33 62 -1
62 14 0 21 -8 23 -27 3 -26 25 -43 43 -32 19 11 10 74 -14 97 -13 12 -26 30
-30 40 -3 9 -13 17 -22 17 -9 0 -19 -8 -22 -17z"/>
<path d="M955 1356 c-16 -12 -17 -16 -6 -30 11 -13 33 -16 106 -16 52 0 100 3
109 6 24 9 19 41 -6 48 -45 12 -184 6 -203 -8z"/>
<path d="M1212 1361 c-27 -16 -9 -46 29 -49 47 -4 73 23 44 44 -21 16 -53 18
-73 5z"/>
<path d="M955 1244 c-26 -26 -1 -44 62 -44 41 0 55 4 60 16 15 39 -88 62 -122
28z"/>
<path d="M1102 1251 c-8 -5 -12 -17 -10 -27 3 -17 16 -19 154 -22 130 -2 153
0 165 14 11 14 11 18 -6 30 -21 16 -280 20 -303 5z"/>
<path d="M1093 904 c-3 -8 -1 -20 4 -25 5 -5 126 -8 299 -7 281 3 289 4 289
23 0 19 -8 20 -293 23 -259 2 -293 0 -299 -14z"/>
<path d="M1363 795 c-11 -31 13 -36 168 -33 146 3 154 4 154 23 0 19 -8 20
-158 23 -136 2 -158 0 -164 -13z"/>
<path d="M247 762 c-33 -37 -15 -87 37 -106 18 -6 18 -7 -3 -29 -29 -31 -28
-59 2 -55 15 2 28 -6 42 -27 26 -38 66 -44 94 -16 12 12 21 29 21 39 0 27 -29
62 -51 62 -24 0 -24 12 1 35 11 10 20 27 20 38 0 16 -5 18 -30 15 -23 -4 -30
-1 -30 12 0 44 -72 66 -103 32z m53 -42 c0 -5 -4 -10 -10 -10 -5 0 -10 5 -10
10 0 6 5 10 10 10 6 0 10 -4 10 -10z m90 -144 c0 -3 -4 -8 -10 -11 -5 -3 -10
-1 -10 4 0 6 5 11 10 11 6 0 10 -2 10 -4z"/>
<path d="M753 563 c-3 -10 -14 -26 -25 -36 -22 -22 -24 -80 -2 -101 8 -9 26
-19 40 -22 13 -3 24 -12 24 -19 0 -23 -19 -26 -30 -5 -6 11 -20 20 -30 20 -27
0 -28 -53 -2 -72 10 -7 21 -21 25 -30 8 -23 36 -23 44 -1 4 9 15 25 25 35 22
22 24 81 2 99 -14 11 -14 13 0 21 22 12 20 53 -2 75 -11 10 -22 26 -25 36 -4
9 -13 17 -22 17 -9 0 -18 -8 -22 -17z m41 -89 c8 -21 3 -26 -18 -18 -20 8 -21
34 -2 34 8 0 17 -7 20 -16z"/>
</g>
</svg>
