<?xml version="1.0" standalone="no"?>
<!DOCTYPE svg PUBLIC "-//W3C//DTD SVG 20010904//EN"
 "http://www.w3.org/TR/2001/REC-SVG-20010904/DTD/svg10.dtd">
<svg version="1.0" xmlns="http://www.w3.org/2000/svg"
 width="200.000000pt" height="200.000000pt" viewBox="0 0 200.000000 200.000000"
 preserveAspectRatio="xMidYMid meet">
<metadata>
Created by potrace 1.16, written by Peter Selinger 2001-2019
</metadata>
<g transform="translate(0.000000,200.000000) scale(0.100000,-0.100000)"
fill="#000000" stroke="none">
<path d="M120 1871 c-14 -27 -14 -1715 0 -1742 10 -19 31 -19 875 -19 772 0
865 2 879 16 14 14 16 88 16 663 l0 647 -192 225 -193 224 -687 3 c-671 2
-687 2 -698 -17z m1509 -268 l171 -198 0 -602 0 -603 -800 0 -800 0 0 800 0
800 629 0 629 0 171 -197z"/>
<path d="M977 983 c-192 -192 -353 -356 -358 -366 -13 -23 13 -67 38 -67 17 0
705 677 724 713 13 23 -13 67 -38 67 -10 0 -174 -156 -366 -347z"/>
<path d="M670 1251 c-17 -34 4 -63 43 -59 29 3 32 6 32 38 0 32 -3 35 -32 38
-24 2 -34 -2 -43 -17z"/>
<path d="M1254 676 c-3 -8 -4 -25 -2 -38 2 -18 10 -24 35 -26 39 -4 60 25 43
58 -13 24 -68 28 -76 6z"/>
</g>
</svg>
