<?xml version="1.0" standalone="no"?>
<!DOCTYPE svg PUBLIC "-//W3C//DTD SVG 20010904//EN"
 "http://www.w3.org/TR/2001/REC-SVG-20010904/DTD/svg10.dtd">
<svg version="1.0" xmlns="http://www.w3.org/2000/svg"
 width="200.000000pt" height="200.000000pt" viewBox="0 0 200.000000 200.000000"
 preserveAspectRatio="xMidYMid meet">
<metadata>
Created by potrace 1.16, written by Peter Selinger 2001-2019
</metadata>
<g transform="translate(0.000000,200.000000) scale(0.100000,-0.100000)"
fill="#000000" stroke="none">
<path d="M651 1978 c-36 -24 -45 -36 -61 -80 -9 -28 -10 -28 -105 -28 -107 0
-135 -14 -135 -70 0 -25 -6 -32 -37 -45 -48 -20 -53 -29 -53 -92 0 -55 14 -79
53 -88 12 -3 203 -4 425 -3 460 3 432 -3 432 92 0 62 -9 77 -52 92 -27 9 -34
17 -39 48 -3 20 -11 42 -18 49 -7 7 -54 14 -114 17 l-101 5 -9 32 c-23 80
-120 117 -186 71z m101 -45 c38 -34 15 -93 -37 -93 -51 0 -73 53 -38 92 20 22
51 23 75 1z"/>
<path d="M121 1770 c-46 -11 -82 -40 -103 -81 -17 -31 -18 -90 -18 -798 0
-744 1 -766 20 -806 13 -26 34 -49 59 -63 39 -22 41 -22 533 -20 l493 3 3 48
c2 27 -2 55 -9 63 -10 12 -84 14 -456 14 -455 0 -471 1 -500 39 -9 12 -12 182
-13 720 l0 703 34 32 c28 26 34 40 39 88 7 70 -2 77 -82 58z"/>
<path d="M1233 1774 c-8 -4 -10 -23 -6 -62 5 -47 12 -62 40 -88 l33 -31 0
-220 c0 -250 -1 -246 77 -241 l48 3 0 272 c0 260 -1 273 -21 300 -12 15 -34
35 -50 45 -31 17 -101 30 -121 22z"/>
<path d="M405 1365 c-37 -41 -73 -75 -79 -75 -7 0 -23 11 -36 25 -25 26 -54
33 -66 14 -7 -12 84 -109 103 -109 14 0 149 137 173 176 13 22 13 26 0 34 -8
5 -18 10 -22 10 -3 0 -36 -34 -73 -75z"/>
<path d="M658 1419 c-24 -13 -23 -46 1 -59 25 -13 490 -14 525 0 16 6 26 17
26 30 0 13 -10 24 -26 30 -34 13 -504 12 -526 -1z"/>
<path d="M653 1293 c-7 -2 -13 -15 -13 -29 0 -33 16 -35 225 -32 l180 3 0 30
0 30 -190 2 c-104 1 -196 -1 -202 -4z"/>
<path d="M1213 1026 l-28 -24 0 -477 0 -477 28 -24 28 -24 350 0 351 0 29 29
29 29 0 472 0 471 -25 24 -24 25 -355 0 -355 0 -28 -24z m697 -65 c17 -32 13
-167 -6 -185 -13 -14 -56 -16 -313 -16 -218 0 -300 3 -309 12 -7 7 -12 44 -12
98 0 54 5 91 12 98 9 9 93 12 315 12 289 0 303 -1 313 -19z m-485 -341 l0 -75
-75 0 -75 0 -3 64 c-4 92 -4 92 80 89 l73 -3 0 -75z m245 61 c13 -25 13 -97 0
-122 -9 -16 -22 -19 -79 -19 -54 0 -70 4 -75 16 -11 28 -6 120 6 132 7 7 39
12 75 12 51 0 64 -3 73 -19z m238 7 c7 -7 12 -37 12 -68 0 -31 -5 -61 -12 -68
-7 -7 -39 -12 -73 -12 -34 0 -66 5 -73 12 -16 16 -16 120 0 136 7 7 39 12 73
12 34 0 66 -5 73 -12z m-483 -298 l0 -75 -75 0 -75 0 -3 64 c-4 92 -4 92 80
89 l73 -3 0 -75z m245 61 c14 -27 13 -104 -3 -125 -10 -14 -25 -16 -82 -14
l-70 3 -3 63 c-4 83 4 92 84 92 52 0 65 -3 74 -19z m238 7 c13 -13 18 -331 6
-362 -9 -23 -149 -23 -158 0 -12 31 -7 349 6 362 7 7 39 12 73 12 34 0 66 -5
73 -12z m-483 -298 l0 -75 -75 0 -75 0 -3 64 c-4 92 -4 92 80 89 l73 -3 0 -75z
m245 61 c14 -27 13 -104 -3 -125 -10 -14 -25 -16 -82 -14 l-70 3 -3 63 c-4 83
4 92 84 92 52 0 65 -3 74 -19z"/>
<path d="M401 904 l-72 -77 -40 33 c-38 30 -42 31 -57 16 -16 -16 -13 -20 35
-66 28 -28 56 -50 62 -50 16 0 176 180 176 198 0 38 -35 20 -104 -54z"/>
<path d="M653 963 c-18 -7 -16 -50 3 -57 9 -3 110 -6 224 -6 201 0 210 1 220
21 9 15 8 24 -1 35 -9 11 -51 14 -223 13 -116 0 -217 -3 -223 -6z"/>
<path d="M643 824 c-3 -9 -2 -24 4 -33 9 -14 37 -16 184 -19 208 -3 221 -1
217 36 l-3 27 -198 3 c-176 2 -198 1 -204 -14z"/>
<path d="M400 449 l-73 -80 -31 30 c-35 34 -61 39 -70 15 -7 -18 79 -104 104
-104 9 0 47 35 85 77 95 105 99 111 85 128 -7 8 -16 15 -20 15 -4 0 -40 -36
-80 -81z"/>
<path d="M658 510 c-24 -14 -23 -47 1 -60 12 -6 101 -10 220 -10 168 0 202 2
215 16 18 18 19 23 6 44 -8 12 -45 15 -217 18 -132 1 -214 -2 -225 -8z"/>
<path d="M650 375 c-6 -8 -10 -22 -8 -32 3 -17 19 -18 203 -18 l200 0 3 24 c2
13 -2 28 -10 32 -7 5 -95 9 -194 9 -147 0 -184 -3 -194 -15z"/>
</g>
</svg>
