<?xml version="1.0" standalone="no"?>
<!DOCTYPE svg PUBLIC "-//W3C//DTD SVG 20010904//EN"
 "http://www.w3.org/TR/2001/REC-SVG-20010904/DTD/svg10.dtd">
<svg version="1.0" xmlns="http://www.w3.org/2000/svg"
 width="200.000000pt" height="200.000000pt" viewBox="0 0 200.000000 200.000000"
 preserveAspectRatio="xMidYMid meet">
<metadata>
Created by potrace 1.16, written by Peter Selinger 2001-2019
</metadata>
<g transform="translate(0.000000,200.000000) scale(0.100000,-0.100000)"
fill="#000000" stroke="none">
<path d="M643 1785 c-63 -38 -83 -88 -83 -208 l0 -96 -230 -3 c-192 -2 -232
-6 -240 -18 -13 -20 -13 -900 0 -920 8 -12 48 -16 240 -18 l230 -3 0 -30 0
-29 -75 0 c-72 0 -75 -1 -81 -26 -8 -33 3 -120 21 -154 23 -44 71 -78 129 -90
36 -7 211 -10 547 -8 494 3 494 3 530 26 70 43 69 35 69 662 l0 559 108 3 107
3 3 137 c3 155 -5 184 -61 218 -31 19 -54 20 -602 20 l-570 0 -42 -25z m1026
-42 c-12 -13 -15 -147 -19 -740 l-5 -725 -24 -19 c-31 -26 -95 -25 -121 1 -24
24 -29 45 -32 130 l-3 65 -427 3 -428 2 0 29 0 29 88 4 c56 2 95 8 105 17 15
12 17 57 17 461 0 404 -2 449 -17 461 -10 9 -49 15 -105 17 l-88 4 0 94 c0 65
5 104 15 124 31 60 23 59 564 60 458 0 492 -1 480 -17z m185 -16 c18 -24 22
-46 24 -138 l4 -109 -91 0 -91 0 0 115 c0 110 1 117 25 141 36 36 99 31 129
-9z m-1084 -727 l0 -430 -319 0 -319 0 -6 31 c-3 17 -6 211 -6 430 l0 399 325
0 325 0 0 -430z m650 -637 c1 -27 7 -65 14 -85 l14 -38 -458 0 c-454 0 -458 0
-485 22 -32 25 -55 74 -55 118 l0 30 485 0 485 0 0 -47z"/>
<path d="M1043 1530 c-39 -24 -53 -48 -53 -95 0 -50 23 -89 64 -109 43 -20 57
-20 99 0 41 19 67 60 67 104 0 94 -97 149 -177 100z m109 -47 c27 -24 24 -87
-4 -107 -32 -23 -65 -20 -93 9 -30 30 -31 54 -4 89 24 31 72 35 101 9z"/>
<path d="M1206 1331 c-113 -113 -157 -164 -153 -175 4 -9 12 -16 20 -16 7 0
84 72 171 160 136 136 157 162 146 175 -7 8 -15 15 -19 15 -3 0 -78 -72 -165
-159z"/>
<path d="M1272 1294 c-28 -19 -52 -65 -52 -99 0 -94 117 -150 188 -90 91 76
47 205 -70 205 -24 0 -54 -7 -66 -16z m121 -56 c39 -45 6 -108 -57 -108 -25 0
-39 7 -50 22 -54 76 46 156 107 86z"/>
<path d="M877 946 c-13 -33 13 -36 353 -36 184 0 341 4 349 9 8 5 11 16 8 25
-6 14 -45 16 -356 16 -287 0 -350 -2 -354 -14z"/>
<path d="M882 838 c-8 -8 -9 -15 -1 -25 9 -10 82 -13 356 -13 306 0 344 2 350
16 3 9 0 20 -8 25 -22 14 -683 11 -697 -3z"/>
<path d="M880 711 c0 -10 7 -22 16 -25 9 -3 161 -6 338 -6 254 0 326 3 341 13
45 33 10 37 -346 37 -336 0 -349 -1 -349 -19z"/>
<path d="M152 1368 c-16 -16 -16 -190 0 -206 17 -17 579 -17 596 0 15 15 16
171 2 199 -10 18 -24 19 -298 19 -211 0 -291 -3 -300 -12z m558 -103 l0 -65
-260 0 -260 0 0 65 0 65 260 0 260 0 0 -65z"/>
<path d="M144 1057 c-3 -8 -4 -36 -2 -63 l3 -49 60 0 60 0 0 60 0 60 -58 3
c-42 2 -59 -1 -63 -11z m76 -52 c0 -8 -7 -15 -15 -15 -8 0 -15 7 -15 15 0 8 7
15 15 15 8 0 15 -7 15 -15z"/>
<path d="M306 1055 c-9 -24 -7 -88 3 -103 5 -9 25 -12 62 -10 l54 3 0 60 0 60
-56 3 c-45 2 -58 0 -63 -13z m84 -50 c0 -8 -9 -15 -20 -15 -11 0 -20 7 -20 15
0 8 9 15 20 15 11 0 20 -7 20 -15z"/>
<path d="M474 1057 c-3 -8 -4 -36 -2 -63 l3 -49 55 0 55 0 0 60 0 60 -53 3
c-38 2 -54 -1 -58 -11z m76 -52 c0 -8 -9 -15 -20 -15 -11 0 -20 7 -20 15 0 8
9 15 20 15 11 0 20 -7 20 -15z"/>
<path d="M634 1056 c-3 -7 -4 -35 -2 -62 l3 -49 54 -3 c62 -4 71 4 71 60 0 62
-6 68 -66 68 -37 0 -56 -4 -60 -14z m76 -51 c0 -8 -7 -15 -15 -15 -8 0 -15 7
-15 15 0 8 7 15 15 15 8 0 15 -7 15 -15z"/>
<path d="M151 896 c-7 -8 -11 -35 -9 -63 l3 -48 60 0 60 0 0 60 0 60 -51 3
c-35 2 -54 -2 -63 -12z m69 -51 c0 -8 -7 -15 -15 -15 -8 0 -15 7 -15 15 0 8 7
15 15 15 8 0 15 -7 15 -15z"/>
<path d="M312 898 c-14 -14 -16 -86 -3 -106 5 -9 25 -12 62 -10 l54 3 0 60 0
60 -50 3 c-30 2 -55 -2 -63 -10z m78 -53 c0 -8 -9 -15 -20 -15 -11 0 -20 7
-20 15 0 8 9 15 20 15 11 0 20 -7 20 -15z"/>
<path d="M477 904 c-4 -4 -7 -34 -7 -66 l0 -58 60 0 61 0 -3 63 -3 62 -50 3
c-28 2 -54 0 -58 -4z m73 -59 c0 -8 -9 -15 -20 -15 -11 0 -20 7 -20 15 0 8 9
15 20 15 11 0 20 -7 20 -15z"/>
<path d="M634 897 c-2 -7 -3 -71 -2 -143 l3 -129 54 -3 c37 -2 57 1 62 10 14
21 11 252 -3 266 -17 17 -107 16 -114 -1z m76 -132 c0 -78 -3 -95 -15 -95 -12
0 -15 17 -15 95 0 78 3 95 15 95 12 0 15 -17 15 -95z"/>
<path d="M156 737 c-13 -10 -17 -24 -14 -62 l3 -50 60 0 60 0 3 56 c3 52 1 57
-20 63 -37 9 -73 7 -92 -7z m64 -52 c0 -8 -7 -15 -15 -15 -8 0 -15 7 -15 15 0
8 7 15 15 15 8 0 15 -7 15 -15z"/>
<path d="M318 739 c-13 -7 -18 -22 -18 -52 0 -61 8 -69 71 -65 l54 3 3 54 c2
37 -1 57 -10 62 -18 12 -79 11 -100 -2z m70 -56 c2 -8 -5 -13 -17 -13 -12 0
-21 6 -21 16 0 18 31 15 38 -3z"/>
<path d="M483 743 c-9 -3 -13 -26 -13 -64 l0 -59 60 0 60 0 0 59 c0 44 -4 60
-16 65 -18 7 -73 7 -91 -1z m65 -60 c2 -8 -5 -13 -17 -13 -12 0 -21 6 -21 16
0 18 31 15 38 -3z"/>
</g>
</svg>
