<?xml version="1.0" standalone="no"?>
<!DOCTYPE svg PUBLIC "-//W3C//DTD SVG 20010904//EN"
 "http://www.w3.org/TR/2001/REC-SVG-20010904/DTD/svg10.dtd">
<svg version="1.0" xmlns="http://www.w3.org/2000/svg"
 width="200.000000pt" height="200.000000pt" viewBox="0 0 200.000000 200.000000"
 preserveAspectRatio="xMidYMid meet">
<metadata>
Created by potrace 1.16, written by Peter Selinger 2001-2019
</metadata>
<g transform="translate(0.000000,200.000000) scale(0.100000,-0.100000)"
fill="#000000" stroke="none">
<path d="M365 1788 c-3 -7 -4 -366 -3 -798 l3 -785 635 0 635 0 3 630 2 630
-167 167 -168 168 -468 0 c-365 0 -469 -3 -472 -12z m917 -185 l3 -158 158 -3
157 -3 0 -599 0 -600 -600 0 -600 0 0 760 0 760 440 0 439 0 3 -157z m168 2
l125 -125 -128 0 -127 0 0 125 c0 69 1 125 3 125 1 0 58 -56 127 -125z"/>
<path d="M663 1640 c-3 -10 -14 -22 -24 -25 -28 -9 -59 -54 -59 -87 0 -43 48
-88 94 -88 59 0 86 -48 48 -83 -20 -18 -59 -22 -80 -8 -7 4 -16 21 -21 37 -9
35 -35 39 -39 6 -4 -29 21 -69 53 -84 13 -6 26 -19 28 -29 7 -25 27 -24 34 1
3 10 14 22 24 25 28 9 59 54 59 87 0 43 -48 88 -94 88 -57 0 -86 48 -50 84 17
17 61 21 82 7 7 -4 16 -21 21 -37 9 -35 35 -39 39 -6 4 29 -21 69 -53 84 -13
6 -26 19 -28 29 -7 25 -27 24 -34 -1z"/>
<path d="M920 1540 c-11 -11 -20 -29 -20 -40 0 -11 9 -29 20 -40 11 -11 29
-20 40 -20 11 0 29 9 40 20 11 11 20 29 20 40 0 11 -9 29 -20 40 -11 11 -29
20 -40 20 -11 0 -29 -9 -40 -20z m56 -31 c10 -17 -13 -36 -27 -22 -12 12 -4
33 11 33 5 0 12 -5 16 -11z"/>
<path d="M1027 1432 c-110 -111 -133 -142 -105 -142 17 0 248 231 248 247 0
30 -32 6 -143 -105z"/>
<path d="M1080 1380 c-11 -11 -20 -29 -20 -40 0 -11 9 -29 20 -40 11 -11 29
-20 40 -20 11 0 29 9 40 20 11 11 20 29 20 40 0 11 -9 29 -20 40 -11 11 -29
20 -40 20 -11 0 -29 -9 -40 -20z m56 -31 c10 -17 -13 -36 -27 -22 -12 12 -4
33 11 33 5 0 12 -5 16 -11z"/>
<path d="M585 1089 c-4 -6 -3 -15 2 -20 5 -5 178 -8 419 -7 356 3 409 5 409
18 0 13 -54 15 -412 18 -291 1 -414 -1 -418 -9z"/>
<path d="M585 889 c-4 -6 -3 -15 2 -20 5 -5 178 -8 419 -7 356 3 409 5 409 18
0 13 -54 15 -412 18 -291 1 -414 -1 -418 -9z"/>
<path d="M585 689 c-16 -25 19 -29 221 -27 178 3 209 5 209 18 0 13 -31 15
-212 18 -147 2 -214 -1 -218 -9z"/>
<path d="M1125 689 c-15 -24 17 -29 151 -27 116 3 139 6 139 18 0 12 -24 15
-142 18 -96 2 -144 -1 -148 -9z"/>
<path d="M1184 567 c-2 -7 -3 -60 -2 -118 l3 -104 115 0 115 0 0 115 0 115
-113 3 c-87 2 -114 0 -118 -11z m196 -107 l0 -80 -80 0 -80 0 0 80 0 80 80 0
80 0 0 -80z"/>
<path d="M585 529 c-16 -24 18 -29 181 -27 142 3 169 5 169 18 0 13 -27 15
-172 18 -118 2 -174 -1 -178 -9z"/>
<path d="M585 429 c-15 -23 15 -30 121 -27 89 2 109 6 109 18 0 12 -20 16
-112 18 -74 2 -114 -1 -118 -9z"/>
</g>
</svg>
