<?xml version="1.0" standalone="no"?>
<!DOCTYPE svg PUBLIC "-//W3C//DTD SVG 20010904//EN"
 "http://www.w3.org/TR/2001/REC-SVG-20010904/DTD/svg10.dtd">
<svg version="1.0" xmlns="http://www.w3.org/2000/svg"
 width="200.000000pt" height="200.000000pt" viewBox="0 0 200.000000 200.000000"
 preserveAspectRatio="xMidYMid meet">
<metadata>
Created by potrace 1.16, written by Peter Selinger 2001-2019
</metadata>
<g transform="translate(0.000000,200.000000) scale(0.100000,-0.100000)"
fill="#000000" stroke="none">
<path d="M878 1870 c-201 -32 -346 -102 -488 -236 -122 -115 -197 -237 -247
-401 -24 -79 -27 -103 -27 -243 0 -140 3 -164 27 -243 50 -162 124 -284 243
-398 117 -111 236 -179 389 -221 117 -31 326 -32 443 0 494 133 778 639 630
1122 -48 156 -164 328 -291 430 -81 65 -241 145 -342 170 -92 24 -254 33 -337
20z m301 -106 c192 -43 376 -172 484 -340 90 -140 127 -266 127 -434 0 -362
-225 -661 -575 -765 -120 -36 -298 -39 -418 -7 -230 62 -441 244 -530 457 -48
114 -61 181 -60 315 0 142 20 235 73 341 172 343 529 515 899 433z"/>
<path d="M982 1447 c-6 -7 -12 -30 -14 -51 -3 -37 -5 -39 -49 -50 -108 -28
-180 -127 -162 -225 9 -52 68 -105 147 -131 l66 -22 0 -139 0 -139 -27 7 c-37
9 -101 38 -137 62 -22 15 -34 17 -48 10 -56 -30 17 -98 152 -140 54 -16 55
-17 60 -60 5 -41 7 -44 35 -44 28 0 30 3 35 44 5 43 6 44 52 56 57 14 117 54
140 92 61 103 6 223 -129 285 l-63 28 0 126 0 126 28 -6 c15 -4 49 -20 75 -36
57 -35 73 -37 87 -9 17 31 -43 83 -123 108 -61 18 -62 19 -65 57 -4 41 -17 64
-37 64 -7 0 -17 -6 -23 -13z m-12 -282 c0 -72 -4 -115 -10 -115 -21 0 -85 31
-107 52 -47 44 -14 131 62 164 55 24 55 24 55 -101z m190 -298 c29 -47 26 -97
-7 -129 -28 -27 -72 -48 -99 -48 -11 0 -14 24 -14 130 l0 130 50 -25 c29 -15
59 -39 70 -58z"/>
</g>
</svg>
