<?xml version="1.0" standalone="no"?>
<!DOCTYPE svg PUBLIC "-//W3C//DTD SVG 20010904//EN"
 "http://www.w3.org/TR/2001/REC-SVG-20010904/DTD/svg10.dtd">
<svg version="1.0" xmlns="http://www.w3.org/2000/svg"
 width="200.000000pt" height="200.000000pt" viewBox="0 0 200.000000 200.000000"
 preserveAspectRatio="xMidYMid meet">
<metadata>
Created by potrace 1.16, written by Peter Selinger 2001-2019
</metadata>
<g transform="translate(0.000000,200.000000) scale(0.100000,-0.100000)"
fill="#000000" stroke="none">
<path d="M922 1935 c-18 -8 -46 -24 -62 -35 -24 -17 -44 -20 -132 -20 -175 0
-191 -22 -132 -186 l39 -109 365 0 365 0 39 109 c59 165 44 186 -135 186 -91
0 -110 3 -132 20 -62 49 -150 63 -215 35z"/>
<path d="M534 1337 c-233 -244 -377 -516 -405 -764 -19 -170 21 -306 123 -409
27 -29 76 -65 107 -80 l56 -29 585 0 585 0 55 28 c99 51 173 138 211 248 28
80 29 228 4 339 -52 224 -187 456 -388 667 l-99 103 -368 0 -368 0 -98 -103z
m536 -211 l0 -54 56 -27 c59 -29 99 -77 110 -133 l7 -32 -59 0 c-55 1 -60 3
-79 33 -13 20 -35 37 -61 46 -81 28 -169 -27 -145 -92 11 -29 37 -40 156 -67
146 -34 195 -81 195 -187 0 -83 -51 -148 -136 -178 -39 -13 -39 -14 -42 -69
l-3 -56 -69 0 -69 0 -3 56 c-3 55 -3 56 -42 69 -75 26 -122 75 -133 138 l-6
37 62 0 c56 0 62 -2 71 -24 36 -95 240 -78 240 20 0 36 -36 56 -151 86 -126
31 -164 54 -190 112 -24 52 -24 100 0 151 22 49 43 68 104 95 l47 21 0 54 0
55 70 0 70 0 0 -54z"/>
</g>
</svg>
