<?xml version="1.0" standalone="no"?>
<!DOCTYPE svg PUBLIC "-//W3C//DTD SVG 20010904//EN"
 "http://www.w3.org/TR/2001/REC-SVG-20010904/DTD/svg10.dtd">
<svg version="1.0" xmlns="http://www.w3.org/2000/svg"
 width="200.000000pt" height="200.000000pt" viewBox="0 0 200.000000 200.000000"
 preserveAspectRatio="xMidYMid meet">
<metadata>
Created by potrace 1.16, written by Peter Selinger 2001-2019
</metadata>
<g transform="translate(0.000000,200.000000) scale(0.100000,-0.100000)"
fill="#000000" stroke="none">
<path d="M725 1886 c-112 -35 -115 -44 -115 -297 0 -182 -2 -201 -16 -195 -94
36 -244 34 -314 -5 -25 -13 -50 -35 -57 -49 -18 -36 -18 -634 0 -670 19 -37
88 -71 157 -77 l60 -6 0 -82 c0 -54 4 -86 13 -92 15 -13 537 -300 560 -309 12
-4 114 79 369 304 194 170 365 321 381 335 l27 26 0 215 c0 159 -3 218 -12
227 -7 6 -80 37 -163 68 l-150 57 -5 146 c-5 137 -7 148 -29 172 -13 14 -44
32 -69 40 -59 21 -196 21 -252 1 -23 -8 -44 -15 -46 -15 -2 0 -4 30 -4 66 0
59 -3 69 -28 94 -54 53 -209 77 -307 46z m243 -57 c57 -24 55 -55 -3 -84 -60
-30 -204 -28 -263 3 -133 70 116 146 266 81z m-254 -134 c63 -19 191 -19 246
0 23 8 44 15 46 15 2 0 4 -17 4 -38 0 -64 -53 -92 -175 -92 -122 0 -175 28
-175 92 0 21 1 38 3 38 1 0 24 -7 51 -15z m652 -51 c47 -23 51 -48 12 -77 -35
-26 -176 -36 -243 -17 -55 15 -84 44 -69 68 31 51 216 67 300 26z m-526 -108
c65 0 107 5 133 16 l37 17 0 -55 0 -55 -47 -22 c-66 -29 -188 -29 -255 1 l-48
21 0 55 0 56 43 -18 c30 -12 69 -17 137 -16z m395 -40 c71 0 111 5 138 16 l37
17 0 -86 c0 -64 -3 -84 -12 -81 -7 3 -53 20 -102 38 -87 33 -88 33 -121 16
-32 -18 -35 -18 -72 0 -35 18 -38 23 -41 66 l-3 47 38 -16 c27 -13 66 -17 138
-17z m-400 -121 c86 0 117 4 143 18 l32 18 0 -46 c0 -45 -1 -47 -47 -68 -36
-16 -68 -21 -128 -21 -60 0 -92 5 -127 21 -47 21 -48 23 -48 68 l0 46 33 -18
c25 -14 56 -18 142 -18z m-266 -25 c56 -28 55 -55 -1 -80 -87 -37 -221 -33
-278 9 -36 26 -36 47 -1 66 78 40 207 43 280 5z m515 24 c13 -5 14 -9 5 -20
-16 -20 -29 -17 -29 6 0 22 1 23 24 14z m191 -13 l39 -18 -33 -11 c-40 -14
-141 -16 -141 -3 0 12 61 51 80 50 8 0 33 -8 55 -18z m195 -75 l85 -33 5 -50
c3 -27 13 -62 23 -77 18 -27 18 -27 -5 -46 -13 -10 -43 -34 -68 -54 l-45 -35
-100 53 c-55 29 -157 84 -227 120 -71 37 -128 71 -128 74 0 4 16 18 35 31 33
22 38 23 99 11 70 -13 157 -2 192 25 27 20 38 18 134 -19z m-653 -54 l93 -4
-76 -55 c-81 -58 -99 -61 -151 -27 -19 12 -23 23 -23 69 l0 56 33 -18 c21 -11
64 -18 124 -21z m-357 -29 c52 2 98 11 118 21 l33 17 -3 -47 c-3 -43 -7 -50
-38 -69 -29 -16 -52 -20 -135 -20 -83 0 -106 4 -135 20 -31 19 -35 26 -38 67
l-3 45 58 -19 c46 -16 76 -19 143 -15z m1203 10 c26 -9 47 -20 47 -24 0 -7
-65 -59 -75 -59 -8 0 -35 65 -35 85 0 19 4 19 63 -2z m-451 -139 l238 -126 0
-208 0 -209 -45 -42 c-93 -87 -85 -100 -85 145 l0 214 -246 132 c-135 73 -243
134 -242 136 21 20 116 83 127 84 8 0 121 -57 253 -126z m528 -12 l0 -88 -100
-74 c-62 -46 -100 -81 -100 -92 0 -31 28 -20 110 42 43 33 81 60 84 60 3 0 6
-9 6 -19 0 -11 -26 -41 -60 -71 -33 -29 -60 -56 -60 -61 0 -25 34 -18 75 16
28 23 45 31 45 22 0 -12 -201 -199 -237 -221 -10 -6 -13 23 -13 133 l0 139
108 84 c59 46 107 90 107 98 0 31 -34 17 -120 -50 -78 -60 -90 -67 -93 -49 -2
12 6 27 20 38 13 10 68 55 123 99 55 45 101 81 103 82 1 0 2 -40 2 -88z
m-1056 32 c21 -8 20 -17 -4 -32 -18 -11 -20 -10 -20 13 0 27 1 28 24 19z
m-378 -21 c53 -22 205 -22 258 0 21 10 40 17 42 17 2 0 4 -17 4 -38 0 -35 -5
-42 -53 -75 -49 -34 -59 -37 -124 -37 -127 0 -173 27 -173 102 0 26 2 48 4 48
2 0 21 -7 42 -17z m517 -9 c18 -9 123 -66 234 -126 l203 -110 -56 -45 -56 -45
-50 16 c-72 23 -108 20 -173 -14 l-56 -30 -100 51 -100 50 7 32 c10 39 10 81
1 127 -7 34 -5 36 45 72 29 20 57 37 61 38 4 0 22 -7 40 -16z m-183 -159 c0
-66 -10 -73 -70 -45 -28 13 -49 27 -48 31 2 5 25 24 53 43 55 40 65 36 65 -29z
m-256 -11 l56 -7 0 -47 0 -47 -52 8 c-99 14 -128 34 -128 90 l0 38 34 -14 c19
-8 60 -18 90 -21z m369 -176 l247 -122 0 -73 0 -73 -150 75 c-156 78 -184 87
-178 58 2 -12 61 -47 166 -101 144 -73 162 -85 162 -108 0 -24 -10 -19 -252
103 l-253 128 -3 78 c-2 42 0 77 4 77 4 0 72 -34 152 -76 79 -41 151 -73 158
-70 36 14 4 39 -151 117 -91 46 -165 90 -165 97 0 6 3 12 8 12 4 0 118 -55
255 -122z m-369 36 l56 -7 0 -60 0 -59 -47 7 c-27 4 -67 15 -90 25 l-43 19 0
55 0 55 34 -14 c19 -8 60 -18 90 -21z m896 17 c0 -6 -32 -36 -70 -68 -65 -53
-82 -81 -54 -90 6 -2 37 17 68 42 52 43 56 45 56 23 0 -18 -27 -46 -110 -113
-60 -50 -114 -91 -120 -93 -6 -2 -10 21 -10 61 l0 64 116 92 c65 50 119 91
120 91 2 0 4 -4 4 -9z m-192 -60 c10 -6 3 -17 -28 -41 l-42 -33 -51 25 -51 25
29 16 c32 17 121 22 143 8z m191 -228 l0 -108 -81 -70 c-44 -38 -95 -83 -114
-98 l-34 -28 0 63 0 63 85 68 c79 63 98 88 76 101 -9 6 -124 -75 -136 -95 -10
-16 -25 -10 -25 10 0 12 41 52 111 110 61 50 113 91 115 91 2 0 4 -48 3 -107z
m-529 -58 c227 -113 250 -127 250 -150 0 -25 -1 -25 -110 30 -61 31 -115 53
-120 50 -27 -17 -1 -39 110 -95 96 -48 120 -64 120 -81 0 -21 -1 -21 -42 4
-24 13 -139 77 -255 141 l-213 117 0 55 c0 30 2 54 5 54 3 0 118 -56 255 -125z"/>
</g>
</svg>
