<?xml version="1.0" standalone="no"?>
<!DOCTYPE svg PUBLIC "-//W3C//DTD SVG 20010904//EN"
 "http://www.w3.org/TR/2001/REC-SVG-20010904/DTD/svg10.dtd">
<svg version="1.0" xmlns="http://www.w3.org/2000/svg"
 width="200.000000pt" height="200.000000pt" viewBox="0 0 200.000000 200.000000"
 preserveAspectRatio="xMidYMid meet">
<metadata>
Created by potrace 1.16, written by Peter Selinger 2001-2019
</metadata>
<g transform="translate(0.000000,200.000000) scale(0.100000,-0.100000)"
fill="#000000" stroke="none">
<path d="M1020 1809 c-143 -17 -320 -86 -341 -133 -13 -27 1 -177 27 -304 16
-80 77 -276 93 -301 8 -13 31 -10 156 17 98 21 153 28 168 23 29 -11 52 -39
64 -76 9 -28 14 -30 61 -33 32 -2 52 1 52 7 0 6 -8 53 -17 103 -21 110 -24
523 -6 623 7 36 8 64 2 69 -12 13 -168 16 -259 5z"/>
<path d="M1307 1665 c-10 -25 -8 -318 3 -425 19 -180 31 -240 50 -240 14 0 20
19 34 103 27 167 66 325 106 440 l38 108 -26 11 c-15 6 -66 13 -113 16 -74 4
-87 2 -92 -13z"/>
<path d="M1510 1466 c-12 -33 -37 -131 -60 -233 -23 -105 -10 -108 48 -13 24
39 68 97 98 129 30 32 54 64 54 69 0 12 -71 56 -107 67 -19 5 -25 1 -33 -19z"/>
<path d="M955 1053 c-71 -14 -144 -31 -161 -39 -17 -8 -68 -58 -113 -111 -70
-82 -81 -100 -76 -122 28 -108 32 -290 11 -429 -6 -45 -10 -85 -7 -87 2 -3 17
-5 32 -5 19 0 34 -9 49 -30 29 -41 76 -52 210 -48 97 3 114 5 111 18 -16 53
-12 111 9 145 21 34 21 37 6 54 -9 10 -22 35 -27 56 -10 34 -12 36 -28 21 -57
-52 -201 -63 -201 -15 0 4 31 9 70 11 77 4 112 23 143 76 18 30 18 34 -7 168
-29 155 -31 177 -14 172 7 -3 25 -56 40 -119 20 -81 34 -119 49 -131 30 -26
82 -23 115 6 l28 23 -22 189 c-19 167 -24 191 -43 207 -25 20 -11 21 -174 -10z"/>
<path d="M1205 913 c3 -27 8 -63 11 -80 l5 -33 138 0 c158 0 171 6 171 78 0
32 -6 45 -26 61 -24 19 -40 21 -166 21 l-139 0 6 -47z"/>
<path d="M354 828 c45 -153 52 -344 21 -508 -28 -147 -34 -135 66 -138 61 -2
89 1 96 10 17 21 44 185 50 303 6 113 -14 269 -40 324 -12 25 -16 26 -106 29
-93 3 -94 3 -87 -20z"/>
<path d="M1227 717 c4 -29 0 -54 -11 -75 -9 -17 -13 -33 -8 -35 4 -3 60 -8
124 -12 116 -7 117 -7 142 19 35 34 35 88 1 121 -23 24 -30 25 -138 25 l-115
0 5 -43z"/>
<path d="M1074 561 c-11 -5 -26 -23 -33 -40 -16 -38 0 -96 32 -112 28 -16 335
-31 359 -18 33 18 51 56 44 94 -10 51 -36 63 -156 70 -58 3 -132 8 -165 10
-33 2 -69 0 -81 -4z"/>
<path d="M1064 335 c-33 -33 -33 -93 -1 -124 23 -21 31 -21 178 -19 l154 3 18
38 c23 45 13 86 -24 103 -13 7 -86 14 -163 17 -136 5 -139 5 -162 -18z"/>
</g>
</svg>
