<?xml version="1.0" standalone="no"?>
<!DOCTYPE svg PUBLIC "-//W3C//DTD SVG 20010904//EN"
 "http://www.w3.org/TR/2001/REC-SVG-20010904/DTD/svg10.dtd">
<svg version="1.0" xmlns="http://www.w3.org/2000/svg"
 width="200.000000pt" height="200.000000pt" viewBox="0 0 200.000000 200.000000"
 preserveAspectRatio="xMidYMid meet">
<metadata>
Created by potrace 1.16, written by Peter Selinger 2001-2019
</metadata>
<g transform="translate(0.000000,200.000000) scale(0.100000,-0.100000)"
fill="#000000" stroke="none">
<path d="M835 1796 c-165 -38 -307 -118 -422 -240 -87 -91 -142 -182 -185
-306 -31 -91 -33 -101 -33 -250 0 -149 2 -159 33 -250 46 -134 101 -221 201
-321 100 -100 187 -155 321 -201 91 -31 101 -33 250 -33 149 0 159 2 250 33
134 46 221 101 321 201 100 100 155 187 201 321 31 91 33 101 33 250 0 149 -2
159 -33 250 -46 134 -101 221 -201 321 -101 101 -188 155 -321 200 -84 28
-110 32 -225 35 -86 3 -151 -1 -190 -10z m264 -117 c314 -50 538 -281 583
-600 36 -253 -102 -534 -328 -667 -223 -131 -485 -131 -708 0 -278 164 -404
522 -290 825 115 306 429 493 743 442z"/>
<path d="M960 1420 c-15 -15 -20 -33 -20 -69 0 -40 -4 -51 -19 -56 -31 -10
-89 -81 -100 -123 -30 -111 58 -232 170 -232 59 0 90 -69 49 -110 -17 -17 -33
-20 -105 -20 -72 0 -88 -3 -105 -20 -45 -45 -9 -100 65 -100 l45 0 0 -45 c0
-32 6 -51 20 -65 46 -46 100 -9 100 70 0 28 4 50 10 50 16 0 80 62 97 94 20
39 20 123 0 161 -32 63 -96 105 -158 105 -36 0 -69 31 -69 65 0 49 31 65 125
65 72 0 88 3 105 20 45 45 9 100 -65 100 l-45 0 0 45 c0 50 -25 85 -60 85 -11
0 -29 -9 -40 -20z"/>
</g>
</svg>
