<?xml version="1.0" standalone="no"?>
<!DOCTYPE svg PUBLIC "-//W3C//DTD SVG 20010904//EN"
 "http://www.w3.org/TR/2001/REC-SVG-20010904/DTD/svg10.dtd">
<svg version="1.0" xmlns="http://www.w3.org/2000/svg"
 width="200.000000pt" height="200.000000pt" viewBox="0 0 200.000000 200.000000"
 preserveAspectRatio="xMidYMid meet">
<metadata>
Created by potrace 1.16, written by Peter Selinger 2001-2019
</metadata>
<g transform="translate(0.000000,200.000000) scale(0.100000,-0.100000)"
fill="#000000" stroke="none">
<path d="M490 1985 c-30 -9 -153 -68 -272 -131 -164 -87 -218 -120 -218 -134
0 -39 112 -110 174 -110 9 0 16 -8 16 -18 0 -27 89 -72 156 -79 39 -4 52 -9
45 -16 -28 -28 4 -73 71 -102 48 -20 84 -19 92 1 9 23 -7 39 -54 53 -22 6 -40
15 -40 19 1 4 30 29 65 57 48 36 65 56 65 73 0 22 -3 24 -32 19 -18 -3 -60
-15 -93 -27 -44 -16 -73 -21 -108 -16 -88 10 -85 16 34 90 90 56 109 73 107
90 -2 11 -10 22 -19 24 -9 2 -67 -20 -129 -48 -62 -27 -128 -52 -148 -55 -39
-5 -103 13 -109 30 -2 6 84 56 189 112 248 130 324 147 414 92 54 -33 68 -64
74 -164 5 -92 14 -108 48 -86 22 14 20 157 -2 204 -23 46 -66 92 -109 114 -44
22 -150 26 -217 8z"/>
<path d="M1155 1931 c-27 -13 -210 -189 -562 -542 -574 -577 -560 -560 -534
-652 11 -36 58 -88 324 -354 265 -264 318 -313 355 -324 91 -27 73 -41 659
544 585 586 571 568 544 660 -11 35 -60 89 -314 346 -354 355 -373 368 -472
322z m98 -51 c19 0 608 -593 623 -627 10 -24 11 -39 3 -60 -13 -37 -1025
-1051 -1066 -1069 -24 -10 -39 -11 -60 -3 -37 13 -611 585 -629 626 -10 24
-11 39 -3 60 13 35 1024 1050 1064 1069 17 7 36 11 43 9 8 -3 19 -5 25 -5z"/>
<path d="M692 1307 c-221 -221 -402 -406 -402 -411 0 -4 11 -21 25 -38 34 -40
34 -102 0 -152 -14 -20 -25 -40 -25 -44 0 -9 363 -372 372 -372 4 0 24 11 44
25 50 34 106 33 157 -2 l38 -27 406 407 407 406 -27 38 c-35 51 -36 107 -2
157 14 20 25 40 25 44 0 9 -363 372 -372 372 -4 0 -24 -11 -44 -25 -25 -17
-50 -25 -80 -25 -31 0 -51 7 -72 25 -17 14 -34 25 -38 25 -5 0 -190 -181 -412
-403z m444 307 c34 -23 120 -23 164 -1 l34 18 148 -149 149 -148 -18 -34 c-21
-43 -21 -125 0 -165 l16 -30 -366 -367 -367 -367 -30 16 c-41 21 -123 21 -166
0 l-34 -18 -148 149 -149 148 18 34 c22 45 22 130 -2 166 l-17 27 368 368
c203 203 370 369 372 369 1 0 14 -7 28 -16z"/>
<path d="M1271 1316 c-54 -55 -64 -87 -27 -94 26 -5 126 95 126 125 0 41 -40
28 -99 -31z"/>
<path d="M855 1236 c-102 -46 -135 -170 -76 -291 100 -208 365 -264 451 -95
81 158 -95 401 -290 400 -30 -1 -68 -7 -85 -14z m177 -70 c48 -23 110 -85 134
-134 12 -23 19 -59 19 -94 0 -52 -3 -61 -33 -90 -29 -30 -38 -33 -90 -33 -68
0 -116 22 -171 76 -54 55 -76 103 -76 171 0 46 4 61 25 83 14 15 34 31 45 36
29 13 104 5 147 -15z"/>
<path d="M683 728 c-58 -59 -70 -98 -30 -98 30 0 130 100 125 126 -7 37 -41
27 -95 -28z"/>
<path d="M1700 831 c-40 -5 -45 -9 -45 -31 0 -24 2 -25 90 -30 100 -6 131 -20
164 -74 55 -88 35 -176 -96 -421 -52 -99 -97 -182 -100 -185 -10 -10 -32 34
-39 76 -5 38 1 58 50 170 31 70 56 134 54 143 -2 9 -13 17 -24 19 -17 2 -34
-17 -90 -107 -75 -121 -81 -123 -91 -28 -4 42 0 66 21 118 33 83 34 109 3 109
-16 0 -37 -19 -72 -65 -28 -35 -53 -64 -56 -65 -8 0 -29 47 -29 64 0 20 -25
37 -44 30 -20 -8 -21 -44 -1 -92 29 -67 74 -99 102 -71 7 7 12 -6 16 -45 7
-67 52 -156 79 -156 10 0 18 -7 18 -16 0 -61 71 -174 110 -174 25 0 243 410
266 500 54 212 -75 362 -286 331z"/>
</g>
</svg>
