<?xml version="1.0" standalone="no"?>
<!DOCTYPE svg PUBLIC "-//W3C//DTD SVG 20010904//EN"
 "http://www.w3.org/TR/2001/REC-SVG-20010904/DTD/svg10.dtd">
<svg version="1.0" xmlns="http://www.w3.org/2000/svg"
 width="200.000000pt" height="200.000000pt" viewBox="0 0 200.000000 200.000000"
 preserveAspectRatio="xMidYMid meet">
<metadata>
Created by potrace 1.16, written by Peter Selinger 2001-2019
</metadata>
<g transform="translate(0.000000,200.000000) scale(0.100000,-0.100000)"
fill="#000000" stroke="none">
<path d="M880 1944 c-290 -54 -489 -171 -642 -377 -118 -160 -176 -322 -185
-517 -26 -566 429 -1025 987 -997 359 18 665 223 819 548 256 538 -59 1183
-645 1325 -67 16 -283 27 -334 18z m278 -180 c478 -98 749 -610 562 -1064 -30
-73 -91 -172 -139 -224 -90 -99 -250 -197 -381 -232 -91 -25 -309 -25 -400 0
-342 93 -579 399 -580 749 -1 500 451 871 938 771z"/>
<path d="M920 1551 l0 -59 -47 -16 c-63 -21 -132 -81 -163 -142 -34 -67 -35
-197 -2 -261 44 -84 88 -112 234 -148 169 -42 208 -68 208 -140 0 -121 -210
-173 -276 -68 -10 15 -19 29 -20 31 -4 7 -154 -42 -154 -50 0 -5 9 -26 20 -47
25 -51 101 -116 153 -134 l42 -14 3 -56 3 -57 84 0 85 0 0 60 c0 47 3 60 15
60 27 0 88 37 129 77 75 73 100 173 72 283 -30 118 -83 159 -266 205 -156 40
-190 64 -190 136 0 69 63 119 150 119 59 0 100 -18 128 -57 l20 -27 76 24 c42
13 76 29 76 35 0 6 -13 32 -30 58 -32 51 -93 100 -146 117 -34 11 -34 12 -34
71 l0 59 -85 0 -85 0 0 -59z"/>
</g>
</svg>
