<?xml version="1.0" standalone="no"?>
<!DOCTYPE svg PUBLIC "-//W3C//DTD SVG 20010904//EN"
 "http://www.w3.org/TR/2001/REC-SVG-20010904/DTD/svg10.dtd">
<svg version="1.0" xmlns="http://www.w3.org/2000/svg"
 width="200.000000pt" height="200.000000pt" viewBox="0 0 200.000000 200.000000"
 preserveAspectRatio="xMidYMid meet">
<metadata>
Created by potrace 1.16, written by Peter Selinger 2001-2019
</metadata>
<g transform="translate(0.000000,200.000000) scale(0.100000,-0.100000)"
fill="#000000" stroke="none">
<path d="M362 1787 l-264 -122 4 -121 c2 -86 7 -126 17 -138 10 -12 16 -52 19
-128 l5 -110 -23 7 -23 7 6 -98 c4 -55 7 -118 7 -141 l0 -43 98 -49 c53 -28
90 -50 82 -50 -8 -1 -48 -11 -89 -23 -54 -16 -85 -32 -113 -58 -36 -35 -38
-40 -38 -98 0 -54 4 -65 31 -96 84 -96 356 -121 516 -46 68 31 103 73 103 123
0 27 2 28 38 21 117 -20 106 -13 112 -81 3 -38 12 -68 23 -80 23 -26 22 -69
-3 -100 -31 -40 -28 -122 6 -163 59 -69 177 -104 354 -104 229 0 380 67 380
168 0 14 9 40 20 58 26 43 26 113 0 156 -29 46 -28 134 1 153 12 8 26 35 33
62 11 44 21 55 120 135 l107 87 3 108 c3 89 7 114 23 135 16 22 21 51 27 155
l7 127 -24 0 c-23 0 -23 1 -16 68 5 37 8 97 8 135 l1 67 -102 0 c-128 0 -376
19 -403 30 -30 14 -364 72 -410 72 -22 0 -110 20 -195 44 -85 25 -162 47 -170
49 -8 2 -134 -52 -278 -118z m431 48 c82 -24 151 -46 154 -48 6 -7 -145 -88
-321 -173 -80 -38 -145 -75 -146 -81 0 -18 -6 -17 -121 23 -111 39 -225 92
-215 101 9 9 480 223 491 223 6 0 77 -20 158 -45z m400 -76 c94 -16 176 -31
181 -33 11 -3 -302 -232 -372 -273 l-43 -25 -217 54 -217 55 160 80 c88 45
196 102 240 127 44 25 83 46 88 46 4 0 85 -14 180 -31z m545 -68 l132 -6 -192
-150 -193 -150 -185 0 c-182 0 -320 10 -320 23 1 4 31 26 68 49 37 23 130 89
207 147 l140 106 105 -6 c58 -4 165 -9 238 -13z m158 -58 c-3 -21 -6 -67 -6
-103 l0 -65 -136 -110 c-75 -60 -161 -129 -190 -153 l-54 -44 0 34 c0 31 11
41 175 168 96 74 175 138 175 143 0 19 -31 -2 -180 -118 -88 -69 -162 -125
-165 -125 -3 0 -5 26 -5 58 l0 57 188 147 c103 81 191 147 196 147 5 1 6 -16
2 -36z m-1528 -105 l104 -33 -6 -44 c-3 -24 -6 -72 -6 -107 0 -76 -3 -77 -99
-39 -60 23 -209 99 -222 113 -4 4 -10 53 -14 109 l-7 102 74 -34 c40 -19 120
-49 176 -67z m375 -69 l209 -52 -7 -266 c-4 -146 -12 -284 -17 -306 -6 -22
-13 -69 -15 -104 -4 -50 -10 -68 -26 -82 -26 -22 -40 -23 -123 -7 -56 10 -64
15 -75 41 -15 37 -84 81 -149 97 l-48 12 -7 126 c-9 141 -1 557 10 585 4 10
14 16 24 13 9 -3 110 -29 224 -57z m1142 -58 c-50 -49 -328 -261 -341 -261
-22 0 318 278 341 279 19 1 19 1 0 -18z m33 -25 c-2 -7 -60 -59 -130 -115 -71
-55 -128 -103 -128 -106 0 -18 39 6 137 85 62 50 115 90 118 90 3 0 5 -31 5
-69 l0 -68 -175 -134 c-97 -74 -181 -136 -187 -138 -6 -2 -8 5 -5 15 3 11 9
56 13 102 l7 84 166 133 c91 73 170 134 174 134 5 1 7 -5 5 -13z m-1548 -97
c36 -12 71 -27 78 -32 8 -6 12 -42 12 -114 0 -96 -1 -105 -17 -98 -10 4 -47
17 -83 30 -95 33 -200 86 -200 102 0 17 -9 19 94 -22 48 -19 103 -37 122 -41
50 -9 43 13 -8 27 -24 6 -77 24 -119 41 -73 28 -77 32 -83 66 -3 21 -6 60 -6
88 l0 51 73 -37 c39 -21 101 -48 137 -61z m768 80 c98 -10 256 -6 325 7 l27 6
0 -79 c0 -43 -3 -95 -6 -115 l-7 -38 -126 0 c-121 0 -327 15 -363 26 -16 5
-18 19 -18 103 0 54 3 101 7 105 4 4 18 4 31 1 12 -3 71 -10 130 -16z m-935
-253 c40 -18 114 -49 164 -67 l93 -34 0 -56 c0 -31 3 -77 6 -103 l7 -46 -50 0
c-41 0 -72 11 -172 60 l-121 59 0 71 c0 38 4 70 9 70 5 0 68 -25 141 -55 138
-57 154 -62 148 -44 -2 6 -68 37 -148 70 -139 57 -160 70 -160 97 0 17 3 16
83 -22z m997 13 c85 -5 199 -7 254 -3 l99 7 -6 -44 c-4 -24 -9 -77 -13 -117
-6 -69 -8 -73 -28 -68 -78 21 -159 28 -269 21 -174 -10 -218 -10 -249 -2 -26
7 -28 11 -28 65 0 31 3 81 7 111 l6 53 36 -6 c20 -3 106 -11 191 -17z m673
-61 l-6 -67 -78 -61 c-71 -54 -94 -80 -71 -80 4 0 39 25 77 55 55 43 71 51 74
38 2 -9 -6 -23 -17 -32 -11 -9 -56 -44 -101 -79 l-80 -63 -16 30 c-8 17 -33
41 -55 53 -22 13 -40 26 -40 30 0 7 312 249 316 245 1 -1 0 -32 -3 -69z m-439
-173 c87 -15 181 -56 197 -86 19 -36 7 -71 -36 -101 -119 -83 -440 -92 -591
-17 -220 110 101 263 430 204z m-414 0 c0 -2 -13 -11 -30 -20 -29 -15 -30 -15
-30 5 0 16 7 20 30 20 17 0 30 -2 30 -5z m-459 -134 c186 -70 126 -191 -109
-220 -146 -19 -299 15 -353 77 -30 34 -32 58 -7 89 17 21 113 64 165 73 81 15
241 5 304 -19z m534 -124 c177 -45 412 -20 515 53 40 28 41 4 2 -33 -116 -111
-530 -113 -647 -3 -50 48 -43 59 18 26 28 -16 79 -35 112 -43z m-19 -63 c106
-29 333 -27 433 4 40 13 76 21 79 17 13 -12 -37 -62 -88 -87 -69 -34 -150 -48
-271 -48 -154 0 -285 35 -333 88 -25 29 -24 72 3 93 21 18 23 17 65 -15 26
-19 73 -41 112 -52z m-886 -39 c59 -22 228 -30 305 -16 33 6 86 24 118 40 58
30 73 27 37 -9 -98 -98 -413 -107 -536 -14 -17 12 -34 32 -37 43 -5 19 -3 18
32 -4 20 -13 56 -32 81 -40z m829 -76 c167 -51 432 -27 541 51 38 27 39 8 2
-29 -89 -90 -399 -117 -576 -51 -58 22 -106 60 -106 84 0 12 8 10 36 -9 21
-14 67 -34 103 -46z m601 -20 c0 -29 -18 -48 -69 -74 -64 -32 -127 -46 -241
-52 -174 -9 -314 22 -371 83 -31 33 -20 38 32 15 76 -33 159 -44 302 -38 150
5 232 29 296 83 39 34 51 30 51 -17z m-664 -84 c138 -94 489 -94 628 0 28 19
36 21 36 9 0 -8 -12 -26 -26 -39 -92 -86 -396 -109 -569 -44 -57 21 -115 66
-115 88 0 16 5 14 46 -14z m25 -80 c86 -44 169 -58 314 -52 76 3 151 12 180
21 61 19 68 19 35 1 -79 -42 -253 -63 -384 -46 -159 21 -246 68 -246 133 l0
33 26 -33 c14 -18 48 -44 75 -57z m593 -43 c-26 -36 -114 -78 -190 -91 -78
-14 -234 -14 -308 0 -100 18 -196 70 -196 105 0 9 19 3 55 -16 160 -84 484
-78 616 13 42 29 49 26 23 -11z"/>
<path d="M1697 1474 c-131 -103 -164 -134 -139 -134 4 0 73 52 155 116 131
103 164 134 139 134 -4 0 -73 -52 -155 -116z"/>
<path d="M145 1550 c13 -21 260 -114 276 -104 13 8 1 24 -19 24 -9 0 -66 20
-127 45 -110 45 -141 54 -130 35z"/>
<path d="M200 1456 c0 -7 17 -20 38 -30 67 -33 194 -76 203 -70 16 10 1 21
-48 34 -27 8 -81 28 -120 46 -48 22 -73 29 -73 20z"/>
<path d="M700 1304 c0 -38 -9 -49 -42 -58 -54 -13 -89 -74 -72 -125 8 -22 55
-63 84 -73 5 -2 6 -29 3 -60 -5 -53 -7 -57 -26 -47 -10 6 -22 20 -24 30 -4 13
-14 19 -35 19 -28 0 -30 -2 -23 -27 8 -36 29 -58 66 -73 24 -10 29 -18 29 -46
0 -30 3 -34 25 -34 22 0 25 4 25 35 0 32 2 35 31 35 22 0 41 10 65 34 57 57
41 129 -37 160 -37 15 -39 18 -39 58 0 24 5 50 10 58 9 13 14 11 35 -13 17
-19 33 -27 49 -25 24 3 24 4 10 36 -9 24 -26 38 -54 50 -39 16 -41 19 -36 50
2 17 1 32 -4 32 -5 0 -15 3 -24 6 -12 5 -16 -1 -16 -22z m-11 -131 c0 -16 -4
-36 -8 -47 -7 -17 -8 -17 -24 -2 -21 22 -21 35 0 58 23 25 33 22 32 -9z m73
-160 c22 -20 23 -41 1 -65 -29 -33 -43 -22 -43 32 0 54 10 62 42 33z"/>
<path d="M1735 1146 c-132 -100 -160 -126 -137 -126 7 0 157 110 281 206 1 2
1 8 -1 14 -2 6 -66 -36 -143 -94z"/>
<path d="M225 1260 c-9 -14 110 -68 168 -76 67 -10 59 10 -10 25 -32 7 -78 24
-102 37 -50 28 -48 27 -56 14z"/>
<path d="M995 1300 c-9 -15 12 -20 120 -30 108 -11 310 2 329 20 4 4 -75 6
-175 3 -107 -3 -202 -1 -227 5 -23 5 -44 6 -47 2z"/>
<path d="M1080 1208 c0 -15 50 -21 175 -21 126 0 195 7 195 21 0 4 -83 7 -185
7 -102 0 -185 -3 -185 -7z"/>
<path d="M160 961 c0 -8 194 -91 213 -91 4 0 7 4 7 9 0 8 -191 91 -210 91 -6
0 -10 -4 -10 -9z"/>
<path d="M975 1060 c-11 -18 36 -25 250 -39 150 -10 286 -3 292 15 2 7 -37 9
-131 6 -117 -4 -339 10 -388 24 -9 3 -19 0 -23 -6z"/>
<path d="M1143 967 c-3 -5 -3 -10 -1 -12 1 -2 82 -7 179 -11 125 -5 178 -4
183 4 4 7 -3 14 -16 17 -40 8 -340 10 -345 2z"/>
<path d="M1730 975 c-90 -71 -113 -95 -93 -95 14 0 196 143 201 158 7 23 -14
11 -108 -63z"/>
</g>
</svg>
