<?xml version="1.0" standalone="no"?>
<!DOCTYPE svg PUBLIC "-//W3C//DTD SVG 20010904//EN"
 "http://www.w3.org/TR/2001/REC-SVG-20010904/DTD/svg10.dtd">
<svg version="1.0" xmlns="http://www.w3.org/2000/svg"
 width="200.000000pt" height="200.000000pt" viewBox="0 0 200.000000 200.000000"
 preserveAspectRatio="xMidYMid meet">
<metadata>
Created by potrace 1.16, written by Peter Selinger 2001-2019
</metadata>
<g transform="translate(0.000000,200.000000) scale(0.100000,-0.100000)"
fill="#000000" stroke="none">
<path d="M1050 1864 c-377 -36 -637 -196 -665 -409 l-7 -50 -78 -37 c-98 -47
-194 -133 -226 -203 -23 -49 -24 -57 -24 -355 0 -299 1 -306 24 -355 41 -89
111 -152 243 -218 137 -70 372 -113 560 -103 365 19 632 140 717 325 18 40 21
67 23 214 l2 168 72 35 c123 59 211 141 244 228 13 35 16 75 13 227 -4 215 -8
229 -100 321 -44 44 -65 58 -87 58 -21 0 -32 -6 -36 -21 -6 -16 5 -32 52 -77
68 -65 93 -112 93 -172 0 -117 -121 -224 -328 -290 -128 -41 -227 -53 -419
-48 -200 5 -299 26 -439 93 -235 113 -283 281 -122 420 164 141 556 209 852
150 47 -10 74 -11 87 -4 22 11 25 42 7 57 -35 28 -329 58 -458 46z m-649 -761
c17 -54 82 -127 156 -176 138 -92 313 -143 532 -155 l126 -8 -95 -24 c-85 -22
-115 -25 -295 -25 -176 0 -210 3 -287 23 -164 43 -283 104 -348 178 -113 130
-68 262 127 371 l58 33 7 -92 c4 -50 12 -106 19 -125z m131 89 c35 -26 82 -56
106 -66 l42 -19 0 -80 c0 -91 3 -90 -85 -32 -67 45 -105 95 -122 159 -13 51
-17 86 -9 86 3 0 33 -21 68 -48z m1319 -80 c-76 -149 -359 -262 -658 -262
l-103 0 0 86 0 86 25 -4 c52 -10 276 11 378 36 120 29 250 87 322 144 l50 39
3 -43 c2 -28 -4 -56 -17 -82z m-966 -68 c44 -9 90 -18 103 -20 21 -4 22 -9 22
-84 l0 -80 -27 0 c-29 0 -135 23 -190 41 l-33 11 0 80 c0 78 1 80 23 74 12 -3
58 -13 102 -22z m-600 -296 l65 -33 0 -79 c0 -90 3 -89 -86 -30 -93 62 -134
126 -134 210 l0 46 45 -40 c25 -22 75 -55 110 -74z m1246 29 c-11 -47 -28 -76
-78 -130 -47 -51 -49 -62 -16 -84 19 -13 24 -11 57 18 20 17 39 29 42 26 3 -3
3 -29 -1 -57 -10 -75 -55 -135 -147 -196 -124 -84 -291 -130 -510 -141 l-118
-6 0 85 0 85 131 7 c245 13 347 44 318 98 -12 23 -9 23 -189 -7 -52 -8 -132
-15 -177 -15 l-83 0 0 84 0 83 133 6 c201 8 390 55 505 125 57 35 93 50 123
51 14 1 16 -5 10 -32z m-966 -122 c50 -9 96 -19 103 -21 8 -2 12 -28 12 -85
l0 -81 -47 6 c-27 4 -83 16 -125 28 l-78 20 0 80 c0 78 1 80 23 75 12 -2 63
-12 112 -22z m-280 -157 l65 -33 0 -77 c0 -43 -3 -78 -6 -78 -4 0 -37 21 -75
46 -92 61 -132 118 -137 198 l-5 60 47 -41 c26 -23 76 -56 111 -75z m343 -103
l52 -7 0 -85 0 -85 -37 6 c-21 3 -77 16 -125 28 l-88 22 0 82 0 82 73 -18 c39
-10 96 -21 125 -25z"/>
<path d="M1298 550 c-44 -24 -51 -34 -43 -60 9 -29 40 -33 84 -10 43 21 54 53
29 78 -16 16 -26 15 -70 -8z"/>
<path d="M1576 1787 c-28 -21 -15 -50 33 -74 51 -26 81 -18 81 22 0 38 -82 75
-114 52z"/>
</g>
</svg>
