<?xml version="1.0" standalone="no"?>
<!DOCTYPE svg PUBLIC "-//W3C//DTD SVG 20010904//EN"
 "http://www.w3.org/TR/2001/REC-SVG-20010904/DTD/svg10.dtd">
<svg version="1.0" xmlns="http://www.w3.org/2000/svg"
 width="200.000000pt" height="200.000000pt" viewBox="0 0 200.000000 200.000000"
 preserveAspectRatio="xMidYMid meet">
<metadata>
Created by potrace 1.16, written by Peter Selinger 2001-2019
</metadata>
<g transform="translate(0.000000,200.000000) scale(0.100000,-0.100000)"
fill="#000000" stroke="none">
<path d="M941 1555 c-425 -123 -778 -229 -782 -237 -5 -7 -6 -20 -3 -28 3 -8
8 -30 11 -47 5 -31 4 -33 -23 -33 -49 0 -57 -12 -52 -73 l5 -56 -46 -3 -46 -3
0 -425 0 -425 834 -3 c661 -2 836 0 843 10 4 7 8 81 8 164 0 117 3 153 13 157
8 3 43 8 80 12 37 4 71 13 77 20 8 10 6 52 -9 155 -12 78 -21 147 -21 155 0 7
29 20 71 31 119 31 120 -12 -9 435 -62 216 -118 399 -124 406 -6 7 -20 13 -32
12 -11 0 -369 -101 -795 -224z m885 -198 l101 -352 -51 -16 c-37 -12 -53 -14
-58 -5 -13 19 -9 24 23 35 30 10 31 13 25 52 -10 65 -32 109 -54 109 -23 0
-26 9 -42 136 -7 51 -16 98 -21 105 -6 11 -54 7 -252 -21 l-243 -34 -49 24
c-103 50 -224 34 -308 -41 l-45 -39 -184 -25 c-101 -14 -193 -28 -205 -30 -16
-4 -23 -1 -23 9 0 25 -20 29 -82 16 -37 -8 -64 -20 -71 -32 -16 -24 -44 -23
-52 3 -4 11 -4 23 0 27 5 5 1466 429 1485 431 3 1 50 -158 106 -352z m-726 -6
c0 -8 -100 -24 -108 -16 -6 5 57 23 86 24 12 1 22 -3 22 -8z m600 2 c0 -5 23
-167 50 -362 27 -195 49 -355 47 -357 -1 -1 -26 -5 -54 -9 -49 -6 -53 -5 -53
13 0 15 8 22 28 24 27 3 27 4 25 71 -1 69 -15 102 -40 93 -10 -4 -13 17 -13
108 0 63 -3 121 -6 130 -5 14 -37 16 -252 16 -242 0 -246 0 -276 24 -108 82
-242 86 -342 10 l-44 -34 -198 0 c-195 0 -197 0 -207 23 -9 20 -16 22 -75 20
-52 -1 -68 -6 -82 -22 -26 -33 -48 -27 -48 12 l0 33 742 106 c769 109 798 113
798 101z m-650 -263 c10 -7 -11 -10 -70 -10 -59 0 -80 3 -70 10 8 5 40 10 70
10 30 0 62 -5 70 -10z m570 -440 l0 -370 -775 0 -775 0 0 370 0 370 775 0 775
0 0 -370z"/>
<path d="M1615 1641 c-49 -14 -61 -22 -63 -41 -5 -30 13 -40 52 -29 48 14 55
11 62 -26 3 -19 12 -39 19 -45 15 -12 41 -4 48 15 6 15 -21 114 -35 133 -12
14 -8 15 -83 -7z"/>
<path d="M1581 1310 c-59 -9 -75 -19 -69 -46 3 -15 13 -19 50 -18 46 0 47 0
53 -37 7 -43 27 -64 51 -55 30 11 5 171 -25 165 -3 -1 -30 -5 -60 -9z"/>
<path d="M112 968 c-12 -12 -17 -104 -6 -132 8 -21 50 -21 58 0 3 9 6 28 6 44
0 25 4 28 41 33 51 7 68 21 53 45 -14 22 -132 30 -152 10z"/>
<path d="M1427 973 c-14 -13 -7 -43 12 -53 11 -5 33 -10 50 -10 28 0 30 -3 33
-42 3 -37 7 -44 27 -46 31 -5 41 12 41 71 0 78 -9 87 -89 87 -37 0 -71 -3 -74
-7z"/>
<path d="M757 916 c-132 -47 -212 -181 -188 -312 13 -67 32 -104 76 -149 177
-176 475 -54 475 195 0 80 -25 138 -83 198 -71 72 -188 101 -280 68z m182 -75
c130 -67 160 -228 61 -335 -48 -52 -98 -70 -178 -64 -80 6 -131 39 -166 109
-44 89 -31 176 37 248 18 18 46 39 62 47 45 20 139 17 184 -5z"/>
<path d="M823 820 c-3 -11 -16 -23 -29 -26 -32 -8 -54 -41 -54 -80 0 -39 23
-60 90 -82 64 -20 85 -46 56 -68 -31 -23 -73 -18 -92 11 -18 28 -51 33 -60 10
-9 -22 20 -60 55 -75 19 -8 31 -20 31 -31 0 -27 40 -25 47 1 3 12 21 27 39 35
39 16 58 54 49 97 -8 34 -34 53 -103 73 -57 17 -69 29 -52 50 18 22 60 18 86
-6 28 -26 57 -19 52 13 -2 13 -17 32 -35 43 -17 11 -34 28 -36 38 -7 23 -38
22 -44 -3z"/>
<path d="M107 473 c-14 -13 -7 -130 7 -142 22 -19 136 -10 150 11 15 24 -2 38
-53 45 -37 5 -41 8 -41 33 0 16 -3 35 -6 44 -6 16 -45 22 -57 9z"/>
<path d="M1527 473 c-4 -3 -7 -24 -7 -45 0 -36 -1 -38 -33 -38 -41 0 -70 -20
-65 -46 3 -16 13 -19 73 -22 57 -2 72 0 82 14 13 18 18 100 7 128 -6 16 -45
22 -57 9z"/>
</g>
</svg>
