<?xml version="1.0" standalone="no"?>
<!DOCTYPE svg PUBLIC "-//W3C//DTD SVG 20010904//EN"
 "http://www.w3.org/TR/2001/REC-SVG-20010904/DTD/svg10.dtd">
<svg version="1.0" xmlns="http://www.w3.org/2000/svg"
 width="200.000000pt" height="200.000000pt" viewBox="0 0 200.000000 200.000000"
 preserveAspectRatio="xMidYMid meet">
<metadata>
Created by potrace 1.16, written by Peter Selinger 2001-2019
</metadata>
<g transform="translate(0.000000,200.000000) scale(0.100000,-0.100000)"
fill="#000000" stroke="none">
<path d="M880 1944 c-290 -54 -489 -171 -642 -377 -118 -160 -176 -322 -185
-517 -26 -566 429 -1025 987 -997 359 18 668 225 819 549 254 541 -59 1182
-645 1324 -67 16 -283 27 -334 18z m220 -344 c0 -57 2 -61 28 -70 91 -33 173
-111 196 -187 6 -19 -1 -24 -71 -47 -90 -30 -103 -31 -103 -12 0 25 -70 74
-116 81 -121 18 -219 -70 -192 -172 15 -57 52 -76 248 -123 147 -36 217 -95
246 -210 19 -76 14 -160 -15 -226 -26 -59 -98 -126 -165 -155 l-56 -24 0 -57
0 -58 -95 0 -94 0 -3 56 -3 56 -48 19 c-26 11 -62 29 -78 41 -38 28 -95 105
-104 139 -6 23 -2 26 67 48 40 13 78 26 84 28 6 2 20 -11 31 -30 26 -43 77
-67 142 -67 96 0 161 54 161 134 0 82 -38 110 -204 150 -179 44 -229 73 -273
164 -24 50 -28 69 -28 147 0 78 4 97 27 141 34 65 105 128 172 153 l51 19 3
61 3 61 94 0 95 0 0 -60z"/>
</g>
</svg>
