<?xml version="1.0" standalone="no"?>
<!DOCTYPE svg PUBLIC "-//W3C//DTD SVG 20010904//EN"
 "http://www.w3.org/TR/2001/REC-SVG-20010904/DTD/svg10.dtd">
<svg version="1.0" xmlns="http://www.w3.org/2000/svg"
 width="200.000000pt" height="200.000000pt" viewBox="0 0 200.000000 200.000000"
 preserveAspectRatio="xMidYMid meet">
<metadata>
Created by potrace 1.16, written by Peter Selinger 2001-2019
</metadata>
<g transform="translate(0.000000,200.000000) scale(0.100000,-0.100000)"
fill="#000000" stroke="none">
<path d="M897 1370 c-346 -93 -635 -174 -643 -180 -8 -7 -14 -22 -14 -33 0
-11 29 -130 65 -263 54 -203 65 -256 65 -323 0 -59 4 -84 16 -95 14 -14 89
-16 675 -16 436 0 667 4 680 10 18 10 19 25 19 368 0 196 -4 363 -9 371 -5 8
-28 17 -52 20 l-42 6 -37 137 c-38 141 -51 168 -79 167 -9 0 -299 -76 -644
-169z m657 113 c3 -10 17 -63 31 -118 15 -55 29 -108 31 -117 4 -14 -1 -18
-19 -18 -21 0 -28 8 -39 42 -13 42 -13 43 -56 40 -37 -3 -46 1 -75 30 -17 18
-36 41 -42 51 -9 16 -37 10 -345 -73 -317 -85 -340 -90 -423 -88 l-87 3 492
132 c271 72 501 132 510 132 9 1 19 -7 22 -16z m-171 -149 c31 -38 64 -55 112
-58 23 -1 31 -7 33 -24 l3 -22 -338 1 c-186 0 -332 3 -324 6 11 4 465 129 481
132 3 1 18 -15 33 -35z m-1014 -336 c-1 -131 -4 -183 -10 -163 -5 17 -27 97
-48 178 l-40 148 22 8 c12 5 29 11 37 14 40 15 40 14 39 -185z m1359 -156 l2
-342 -662 2 -663 3 -3 330 c-1 181 0 336 3 342 3 11 139 13 662 11 l658 -3 3
-343z"/>
<path d="M582 1102 c-14 -47 -50 -82 -94 -91 l-33 -7 0 -158 0 -159 40 -14
c50 -17 71 -38 88 -88 l14 -40 463 -3 c333 -1 467 1 476 9 8 6 14 22 14 36 0
34 49 80 94 88 l36 7 -2 161 -3 161 -34 7 c-43 9 -81 47 -90 90 l-7 34 -475 3
-476 2 -11 -38z m938 -27 c13 -39 72 -95 100 -95 19 0 20 -7 20 -134 0 -133 0
-134 -24 -140 -38 -9 -83 -53 -96 -91 l-12 -35 -442 0 -442 0 -12 35 c-14 38
-61 82 -98 91 -24 6 -24 7 -24 140 0 127 1 134 20 134 28 0 87 56 102 96 l12
34 442 0 442 0 12 -35z"/>
<path d="M995 1045 c-43 -17 -99 -66 -120 -105 -53 -103 -2 -243 107 -290 121
-52 254 14 289 144 42 157 -124 309 -276 251z m136 -39 c97 -41 137 -152 89
-246 -28 -56 -72 -83 -141 -88 -49 -4 -65 0 -103 22 -97 57 -115 200 -35 272
59 53 126 67 190 40z"/>
<path d="M1050 979 c0 -6 -11 -20 -25 -31 -44 -34 -32 -89 26 -118 46 -24 55
-36 39 -55 -18 -22 -39 -18 -52 10 -6 14 -17 25 -25 25 -22 0 -15 -47 10 -67
13 -10 26 -26 30 -35 7 -21 27 -24 27 -5 0 7 11 23 25 35 25 21 33 65 17 87
-4 6 -26 23 -50 38 -47 31 -50 50 -9 55 21 3 29 -2 37 -22 13 -35 30 -33 30 3
0 20 -9 36 -25 49 -14 11 -25 25 -25 31 0 6 -7 11 -15 11 -8 0 -15 -5 -15 -11z"/>
</g>
</svg>
