<?xml version="1.0" standalone="no"?>
<!DOCTYPE svg PUBLIC "-//W3C//DTD SVG 20010904//EN"
 "http://www.w3.org/TR/2001/REC-SVG-20010904/DTD/svg10.dtd">
<svg version="1.0" xmlns="http://www.w3.org/2000/svg"
 width="200.000000pt" height="200.000000pt" viewBox="0 0 200.000000 200.000000"
 preserveAspectRatio="xMidYMid meet">
<metadata>
Created by potrace 1.16, written by Peter Selinger 2001-2019
</metadata>
<g transform="translate(0.000000,200.000000) scale(0.100000,-0.100000)"
fill="#000000" stroke="none">
<path d="M895 1869 c-301 -39 -570 -236 -695 -511 -112 -249 -94 -562 47 -803
117 -201 341 -361 576 -412 112 -24 272 -20 388 10 392 102 659 442 659 839 0
233 -77 435 -229 600 -143 155 -334 252 -551 278 -94 11 -96 11 -195 -1z m145
-259 c8 -5 17 -31 20 -60 5 -51 6 -52 50 -67 57 -19 103 -54 141 -106 34 -47
37 -79 9 -107 -31 -31 -59 -25 -104 26 -52 58 -85 75 -146 76 -111 0 -187 -92
-160 -194 20 -74 87 -118 180 -118 54 0 131 -41 178 -95 128 -145 74 -373
-105 -441 -42 -17 -43 -17 -43 -65 0 -55 -18 -79 -58 -79 -43 0 -56 15 -62 70
l-5 51 -58 24 c-66 26 -88 43 -128 99 -34 46 -37 78 -9 106 33 33 58 25 113
-35 59 -64 99 -80 173 -66 107 20 161 140 106 234 -26 44 -75 68 -157 78 -85
9 -121 25 -173 77 -61 61 -77 104 -77 202 0 68 5 93 22 126 28 53 87 106 146
130 46 19 47 19 47 66 0 29 6 52 16 62 17 18 61 21 84 6z"/>
</g>
</svg>
