<?xml version="1.0" standalone="no"?>
<!DOCTYPE svg PUBLIC "-//W3C//DTD SVG 20010904//EN"
 "http://www.w3.org/TR/2001/REC-SVG-20010904/DTD/svg10.dtd">
<svg version="1.0" xmlns="http://www.w3.org/2000/svg"
 width="200.000000pt" height="200.000000pt" viewBox="0 0 200.000000 200.000000"
 preserveAspectRatio="xMidYMid meet">
<metadata>
Created by potrace 1.16, written by Peter Selinger 2001-2019
</metadata>
<g transform="translate(0.000000,200.000000) scale(0.100000,-0.100000)"
fill="#000000" stroke="none">
<path d="M50 1500 l0 -340 45 0 45 0 2 288 3 287 555 5 555 5 3 48 3 47 -605
0 -606 0 0 -340z"/>
<path d="M190 1360 l0 -340 600 0 600 0 0 340 0 340 -600 0 -600 0 0 -340z
m1148 288 c17 -17 17 -559 0 -576 -9 -9 -144 -12 -544 -12 -293 0 -539 3 -548
6 -14 5 -16 41 -16 294 0 221 3 290 13 293 6 3 253 6 547 6 405 1 539 -2 548
-11z"/>
<path d="M270 1580 c0 -34 6 -36 38 -14 32 22 28 44 -8 44 -27 0 -30 -3 -30
-30z"/>
<path d="M376 1586 c-7 -27 -69 -86 -91 -86 -13 0 -15 -24 -15 -140 l0 -140
25 -6 c28 -7 85 -67 85 -89 0 -13 56 -15 405 -15 l404 0 17 35 c10 21 33 45
55 58 l39 22 0 135 0 135 -37 20 c-21 11 -45 36 -56 58 l-19 37 -403 0 -403 0
-6 -24z m431 -33 c4 -10 22 -32 40 -49 24 -23 33 -40 33 -63 0 -41 -27 -42
-41 -1 -16 44 -29 37 -29 -15 0 -39 4 -46 29 -59 33 -18 41 -34 41 -85 0 -36
-28 -81 -51 -81 -5 0 -14 -11 -19 -25 -5 -14 -14 -25 -20 -25 -6 0 -16 11 -22
25 -6 14 -17 25 -23 25 -21 0 -47 38 -48 72 -2 27 2 33 18 33 12 0 21 -9 25
-24 10 -45 30 -36 30 12 0 37 -4 47 -20 52 -27 9 -60 53 -60 82 0 34 26 80 50
88 12 4 25 18 30 31 11 28 28 31 37 7z m-257 -193 c0 -18 -7 -20 -85 -20 -78
0 -85 2 -85 20 0 18 7 20 85 20 78 0 85 -2 85 -20z m648 -2 c3 -16 -6 -18 -82
-18 -47 0 -88 5 -91 10 -14 23 10 31 88 28 69 -3 82 -6 85 -20z"/>
<path d="M744 1456 c-8 -21 -1 -49 14 -54 8 -2 12 8 12 32 0 36 -16 49 -26 22z"/>
<path d="M810 1285 c0 -19 4 -35 9 -35 13 0 23 34 15 54 -11 28 -24 18 -24
-19z"/>
<path d="M1246 1598 c13 -23 37 -48 46 -48 4 0 8 14 8 30 0 27 -3 30 -31 30
-21 0 -28 -4 -23 -12z"/>
<path d="M270 1140 c0 -27 3 -30 30 -30 35 0 38 12 10 40 -28 28 -40 25 -40
-10z"/>
<path d="M1265 1145 l-30 -30 28 -3 c36 -4 39 -1 35 35 l-3 28 -30 -30z"/>
<path d="M1585 975 c-46 -25 -76 -56 -96 -100 -71 -154 86 -322 245 -261 149
57 171 256 38 347 -45 30 -143 38 -187 14z m126 -46 c30 -31 39 -49 37 -68 -4
-34 -29 -34 -46 2 -16 33 -57 38 -67 7 -9 -27 8 -46 45 -53 42 -9 70 -41 70
-80 0 -31 -29 -77 -49 -77 -5 0 -11 -9 -14 -20 -5 -20 -37 -29 -37 -10 0 6
-12 20 -26 33 -34 29 -48 65 -33 83 18 21 29 17 41 -17 8 -25 15 -30 37 -27
20 2 27 9 29 30 3 23 -2 28 -46 42 -79 27 -94 84 -37 143 19 20 35 40 35 45 0
18 24 6 61 -33z"/>
<path d="M795 882 c-96 -20 -105 -39 -30 -60 78 -23 363 -22 438 1 31 10 57
22 57 27 0 4 -15 13 -32 19 -106 34 -304 40 -433 13z"/>
<path d="M702 729 l3 -64 60 -16 c126 -34 343 -32 452 4 l38 12 3 63 c2 34 1
62 -2 62 -2 0 -33 -7 -68 -17 -107 -28 -345 -21 -466 13 -23 6 -23 5 -20 -57z
m306 -36 c5 -17 -26 -29 -40 -15 -6 6 -7 15 -3 22 9 14 37 9 43 -7z"/>
<path d="M700 562 c0 -36 5 -64 13 -69 50 -41 379 -54 490 -20 l57 18 0 63 0
64 -47 -15 c-72 -23 -319 -29 -408 -10 -38 9 -78 18 -87 22 -16 6 -18 0 -18
-53z m306 -61 c-10 -16 -36 -13 -43 5 -8 22 18 37 36 20 7 -8 10 -19 7 -25z"/>
<path d="M1435 586 c-22 -6 -40 -16 -40 -21 0 -16 71 -35 176 -46 142 -16 377
13 366 45 -4 13 -64 34 -99 35 -15 1 -44 -9 -65 -21 -52 -32 -151 -31 -210 0
-47 25 -70 26 -128 8z"/>
<path d="M1390 444 l0 -63 53 -16 c79 -24 284 -31 390 -12 48 9 95 21 103 27
9 8 14 32 14 70 l0 57 -52 -15 c-76 -23 -394 -22 -460 0 l-48 16 0 -64z m300
-39 c0 -21 -30 -31 -40 -14 -11 17 -3 29 21 29 10 0 19 -7 19 -15z"/>
<path d="M702 379 l3 -63 45 -13 c103 -31 374 -31 465 -1 l40 13 3 63 c2 34 1
62 -2 62 -2 0 -33 -7 -68 -17 -107 -28 -345 -21 -466 13 -23 6 -23 5 -20 -57z
m306 -36 c5 -17 -26 -29 -40 -15 -6 6 -7 15 -3 22 9 14 37 9 43 -7z"/>
<path d="M1392 268 c3 -63 3 -63 39 -75 74 -24 227 -34 337 -22 58 6 121 17
141 24 36 12 36 13 39 73 2 34 1 62 -2 62 -2 0 -33 -7 -68 -17 -109 -28 -357
-21 -471 13 -16 5 -18 -1 -15 -58z m296 -41 c2 -11 -3 -17 -16 -17 -24 0 -32
8 -25 26 7 20 37 13 41 -9z"/>
</g>
</svg>
