<?xml version="1.0" standalone="no"?>
<!DOCTYPE svg PUBLIC "-//W3C//DTD SVG 20010904//EN"
 "http://www.w3.org/TR/2001/REC-SVG-20010904/DTD/svg10.dtd">
<svg version="1.0" xmlns="http://www.w3.org/2000/svg"
 width="200.000000pt" height="200.000000pt" viewBox="0 0 200.000000 200.000000"
 preserveAspectRatio="xMidYMid meet">
<metadata>
Created by potrace 1.16, written by Peter Selinger 2001-2019
</metadata>
<g transform="translate(0.000000,200.000000) scale(0.100000,-0.100000)"
fill="#000000" stroke="none">
<path d="M533 1633 c2 -5 26 -45 52 -91 l47 -82 187 2 186 3 47 80 c27 44 48
83 48 88 0 4 -129 7 -286 7 -157 0 -283 -3 -281 -7z"/>
<path d="M576 1398 c-13 -19 -14 -25 -2 -43 13 -19 24 -20 235 -23 234 -3 261
2 261 41 0 45 -11 47 -251 47 -224 0 -228 0 -243 -22z"/>
<path d="M410 1401 c-78 -25 -146 -79 -173 -139 -11 -23 -15 -24 -96 -21 -61
3 -85 1 -88 -8 -6 -18 40 -33 103 -33 l54 0 0 -49 c0 -90 47 -91 52 -1 2 46 6
55 23 58 42 8 152 56 192 85 40 28 42 33 39 71 -3 40 -5 41 -42 43 -22 1 -50
-2 -64 -6z m60 -56 c-15 -18 -147 -85 -168 -85 -11 0 -7 9 14 31 39 41 91 68
133 69 28 0 32 -2 21 -15z"/>
<path d="M581 1267 c-160 -80 -267 -293 -241 -480 18 -127 65 -214 162 -302
84 -75 165 -107 289 -113 153 -7 269 36 369 137 93 94 140 209 140 341 0 166
-94 330 -234 411 l-51 29 -195 0 c-182 0 -198 -2 -239 -23z m396 -67 c243
-112 306 -417 126 -610 -169 -183 -445 -171 -595 25 -82 107 -100 268 -45 388
50 110 164 203 277 227 72 15 167 3 237 -30z"/>
<path d="M713 1176 c-193 -63 -291 -286 -205 -470 123 -264 486 -269 618 -9
26 51 29 68 29 148 0 72 -5 100 -22 138 -34 74 -87 131 -156 168 -53 28 -74
33 -142 36 -49 2 -96 -3 -122 -11z m125 -81 c2 -12 16 -26 33 -34 37 -16 70
-67 67 -101 -4 -36 -34 -38 -43 -3 -7 29 -32 63 -47 63 -4 0 -8 -36 -8 -79 l0
-79 31 -7 c74 -16 93 -141 30 -197 -17 -15 -38 -28 -45 -28 -9 0 -16 -12 -18
-27 -4 -34 -32 -38 -36 -5 -2 14 -15 27 -36 36 -48 20 -87 92 -67 125 12 19
41 6 41 -17 0 -24 38 -74 51 -67 5 4 9 39 9 79 l0 72 -40 18 c-47 21 -63 46
-64 101 -1 49 23 89 70 117 20 12 34 28 34 40 0 26 34 20 38 -7z"/>
<path d="M756 998 c-22 -31 -20 -74 4 -98 33 -33 40 -24 40 50 0 76 -14 91
-44 48z"/>
<path d="M840 745 c0 -71 1 -75 19 -66 46 25 47 106 1 131 -19 10 -20 8 -20
-65z"/>
<path d="M1225 1190 c4 -6 130 -10 345 -10 325 0 340 -1 350 -19 6 -12 10
-100 10 -216 0 -116 -4 -204 -10 -216 -10 -18 -24 -19 -300 -19 -252 0 -290
-2 -290 -15 0 -13 38 -15 308 -13 l307 3 3 258 2 257 -365 0 c-242 0 -364 -3
-360 -10z"/>
<path d="M1270 1133 c0 -3 11 -29 25 -57 36 -74 58 -188 51 -263 l-7 -63 225
0 225 0 13 27 c7 15 28 37 45 48 l32 20 0 100 0 100 -32 20 c-17 11 -38 33
-45 48 l-13 27 -260 0 c-142 0 -259 -3 -259 -7z m230 -33 c0 -5 14 -22 30 -37
20 -17 30 -36 30 -55 0 -32 -23 -38 -39 -10 -9 15 -10 14 -11 -7 0 -13 11 -32
25 -43 38 -30 34 -83 -10 -130 -20 -21 -38 -38 -41 -38 -9 0 -60 54 -72 77
-14 25 -6 53 14 53 8 0 19 -10 24 -22 8 -21 9 -20 9 10 1 17 -3 32 -9 32 -19
0 -50 40 -50 64 0 26 68 116 88 116 6 0 12 -4 12 -10z m301 -146 c19 -23 -4
-34 -73 -34 -58 0 -74 9 -64 35 8 22 119 21 137 -1z"/>
<path d="M1452 1000 c0 -14 2 -19 5 -12 2 6 2 18 0 25 -3 6 -5 1 -5 -13z"/>
<path d="M1852 1124 c1 -9 9 -19 16 -22 9 -3 13 2 10 14 -1 9 -9 19 -16 22 -9
3 -13 -2 -10 -14z"/>
<path d="M1856 774 c-18 -18 -18 -19 -2 -22 22 -5 29 2 24 24 -3 16 -4 16 -22
-2z"/>
</g>
</svg>
