<?xml version="1.0" standalone="no"?>
<!DOCTYPE svg PUBLIC "-//W3C//DTD SVG 20010904//EN"
 "http://www.w3.org/TR/2001/REC-SVG-20010904/DTD/svg10.dtd">
<svg version="1.0" xmlns="http://www.w3.org/2000/svg"
 width="200.000000pt" height="200.000000pt" viewBox="0 0 200.000000 200.000000"
 preserveAspectRatio="xMidYMid meet">
<metadata>
Created by potrace 1.16, written by Peter Selinger 2001-2019
</metadata>
<g transform="translate(0.000000,200.000000) scale(0.100000,-0.100000)"
fill="#000000" stroke="none">
<path d="M1539 1568 c-57 -15 -130 -77 -161 -137 -73 -140 -4 -319 145 -376
67 -25 170 -17 231 19 155 91 183 300 56 426 -70 71 -168 96 -271 68z m98 -55
c4 -10 24 -34 46 -54 30 -29 38 -43 35 -66 -4 -38 -27 -35 -47 7 -29 62 -101
51 -101 -15 0 -34 15 -45 83 -61 65 -15 90 -107 42 -158 -13 -14 -29 -26 -35
-26 -6 0 -15 -11 -20 -25 -5 -14 -14 -25 -20 -25 -6 0 -15 11 -20 25 -5 14
-14 25 -20 25 -23 0 -60 49 -60 80 0 41 34 42 48 1 6 -16 20 -35 32 -41 31
-17 70 11 70 49 0 34 -13 46 -58 56 -52 11 -92 51 -92 91 0 44 24 91 50 99 12
4 25 18 30 31 11 28 28 31 37 7z"/>
<path d="M57 1463 c-4 -3 -7 -174 -7 -380 l0 -373 555 0 c363 0 555 3 555 10
0 7 -185 10 -535 10 -518 0 -535 1 -545 19 -6 13 -10 140 -10 344 0 259 3 327
13 336 10 8 196 12 633 13 404 2 619 6 619 13 0 11 -1267 20 -1278 8z"/>
<path d="M120 1355 c0 -26 5 -45 11 -45 14 0 79 65 79 79 0 6 -19 11 -45 11
l-45 0 0 -45z"/>
<path d="M239 1353 c-18 -37 -35 -54 -71 -73 l-48 -25 0 -170 0 -171 35 -12
c38 -14 82 -61 91 -98 l6 -24 452 0 451 0 10 23 c7 16 20 23 47 25 l37 3 3 97
3 97 63 3 62 3 0 32 c0 18 -9 46 -20 62 -28 41 -45 82 -54 129 -4 22 -18 55
-32 75 -13 20 -24 44 -24 53 0 17 -28 18 -494 18 l-494 0 -23 -47z m531 -43
c0 -12 12 -26 30 -35 39 -20 62 -57 58 -92 -4 -38 -24 -35 -46 6 -28 57 -42
51 -42 -18 0 -56 2 -62 25 -71 43 -16 65 -47 65 -90 0 -51 -20 -91 -55 -110
-15 -8 -31 -25 -36 -38 -10 -27 -33 -25 -37 4 -1 11 -15 25 -31 32 -32 14 -65
68 -60 97 5 24 29 26 39 5 37 -80 50 -79 50 4 0 53 -3 66 -16 66 -8 0 -29 13
-45 29 -22 22 -29 39 -29 68 0 45 30 98 60 108 12 4 25 18 30 31 11 29 40 32
40 4z m-313 -216 c10 -25 -16 -34 -104 -34 -82 0 -100 7 -89 35 8 23 184 21
193 -1z m786 2 c10 -26 -16 -36 -97 -36 -87 0 -112 9 -103 34 9 22 192 24 200
2z"/>
<path d="M702 1218 c-24 -24 -9 -98 20 -98 4 0 8 25 8 55 0 56 -6 65 -28 43z"/>
<path d="M770 994 c0 -61 13 -68 39 -22 13 23 13 29 -2 52 -27 40 -37 31 -37
-30z"/>
<path d="M1301 1384 c0 -11 3 -14 6 -6 3 7 2 16 -1 19 -3 4 -6 -2 -5 -13z"/>
<path d="M1290 910 l0 -80 330 0 330 0 0 80 0 80 -330 0 -330 0 0 -80z"/>
<path d="M120 820 l0 -40 45 0 c44 0 45 1 34 23 -13 26 -49 56 -66 57 -8 0
-13 -15 -13 -40z"/>
<path d="M1210 700 l0 -80 325 0 325 0 0 80 0 80 -325 0 -325 0 0 -80z"/>
<path d="M1290 500 l0 -80 330 0 330 0 0 80 0 80 -330 0 -330 0 0 -80z"/>
</g>
</svg>
