<?xml version="1.0" standalone="no"?>
<!DOCTYPE svg PUBLIC "-//W3C//DTD SVG 20010904//EN"
 "http://www.w3.org/TR/2001/REC-SVG-20010904/DTD/svg10.dtd">
<svg version="1.0" xmlns="http://www.w3.org/2000/svg"
 width="200.000000pt" height="200.000000pt" viewBox="0 0 200.000000 200.000000"
 preserveAspectRatio="xMidYMid meet">
<metadata>
Created by potrace 1.16, written by Peter Selinger 2001-2019
</metadata>
<g transform="translate(0.000000,200.000000) scale(0.100000,-0.100000)"
fill="#000000" stroke="none">
<path d="M143 1738 c-53 -26 -53 -22 -53 -736 0 -444 4 -669 11 -690 23 -66
-29 -62 902 -62 l844 0 26 24 c14 13 28 39 32 57 3 19 5 331 3 694 -3 712 -2
690 -55 714 -33 15 -1679 14 -1710 -1z m727 -98 l0 -50 -254 0 c-266 0 -269
-1 -278 -45 -2 -11 -21 -29 -43 -41 l-40 -20 -3 -237 c-2 -220 -1 -238 15
-243 45 -13 67 -31 75 -60 5 -20 16 -34 30 -38 13 -3 130 -6 261 -6 l237 0 0
-45 0 -45 -353 2 -352 3 -3 429 c-2 337 0 431 10 438 7 4 167 8 356 8 l342 0
0 -50z m190 -390 l0 -440 -60 0 -60 0 0 440 0 440 60 0 60 0 0 -440z m768 432
c10 -7 12 -101 10 -438 l-3 -429 -355 0 -355 0 -3 43 -3 42 243 0 c134 0 253
3 266 6 14 4 25 18 30 38 8 29 30 47 75 60 16 5 17 23 15 243 l-3 237 -40 20
c-25 13 -41 29 -43 43 -2 12 -9 26 -16 32 -8 7 -107 12 -267 13 l-254 3 -3 33
c-6 65 -26 62 350 62 189 0 349 -4 356 -8z m-1103 -195 c-64 -67 -89 -127 -93
-222 -5 -101 20 -173 84 -245 l46 -50 -179 0 -179 0 -17 30 c-10 17 -31 37
-48 45 l-29 16 0 187 0 187 30 17 c17 10 38 31 48 48 l17 30 181 0 181 0 -42
-43z m887 13 c10 -17 31 -38 48 -48 l30 -17 0 -187 0 -186 -35 -21 c-19 -11
-40 -32 -47 -46 l-11 -25 -182 0 -181 0 47 49 c66 68 92 141 87 246 -4 95 -29
155 -93 222 l-42 43 181 0 181 0 17 -30z m-742 -250 c0 -143 -2 -260 -5 -260
-18 0 -66 34 -98 69 -51 57 -69 96 -74 166 -6 74 8 129 47 183 28 40 103 102
122 102 4 0 8 -117 8 -260z m317 231 c133 -96 163 -272 68 -397 -30 -39 -101
-94 -122 -94 -10 0 -13 48 -13 260 0 290 -2 281 67 231z m-317 -761 l0 -30
-352 2 -353 3 -3 28 -3 27 355 0 356 0 0 -30z m190 -190 l0 -220 -60 0 -60 0
0 220 0 220 60 0 60 0 0 -220z m778 193 l-3 -28 -352 -3 -353 -2 0 30 0 30
356 0 355 0 -3 -27z m-968 -133 l0 -30 -352 2 -353 3 -3 30 -3 30 356 -3 355
-2 0 -30z m968 8 l-3 -33 -352 -3 -353 -2 0 30 0 30 348 3 c191 1 351 3 355 5
5 1 7 -13 5 -30z m-968 -128 l0 -30 -352 2 -353 3 -3 28 -3 27 355 0 356 0 0
-30z m968 3 l-3 -28 -352 -3 -353 -2 0 30 0 30 356 0 355 0 -3 -27z m-968
-133 l0 -30 -339 0 c-187 0 -346 3 -355 6 -9 3 -16 18 -16 33 l0 26 355 -3
355 -2 0 -30z m966 -16 c-5 -12 -59 -14 -358 -12 l-353 3 -3 27 -3 28 358 2
c340 3 358 2 361 -15 2 -10 1 -25 -2 -33z"/>
</g>
</svg>
