<?xml version="1.0" standalone="no"?>
<!DOCTYPE svg PUBLIC "-//W3C//DTD SVG 20010904//EN"
 "http://www.w3.org/TR/2001/REC-SVG-20010904/DTD/svg10.dtd">
<svg version="1.0" xmlns="http://www.w3.org/2000/svg"
 width="200.000000pt" height="200.000000pt" viewBox="0 0 200.000000 200.000000"
 preserveAspectRatio="xMidYMid meet">
<metadata>
Created by potrace 1.16, written by Peter Selinger 2001-2019
</metadata>
<g transform="translate(0.000000,200.000000) scale(0.100000,-0.100000)"
fill="#000000" stroke="none">
<path d="M1472 1674 c-29 -14 -65 -42 -82 -62 -53 -65 -58 -99 -56 -402 l1
-275 30 -54 c48 -87 122 -131 222 -131 103 0 199 64 239 158 23 55 23 582 -1
638 -21 51 -80 112 -130 135 -61 29 -158 26 -223 -7z m239 -49 c114 -80 122
-249 15 -342 -129 -114 -332 -30 -353 146 -7 64 14 125 60 168 55 53 85 64
164 60 61 -2 78 -7 114 -32z m-233 -409 c87 -44 211 -25 283 44 23 22 43 40
44 40 7 0 -14 -80 -27 -105 -32 -60 -119 -114 -184 -115 -88 0 -190 75 -213
156 -18 65 -14 71 27 32 20 -20 52 -43 70 -52z m-5 -144 c103 -48 213 -34 288
38 23 22 43 39 44 38 2 -2 -3 -24 -9 -50 -26 -98 -104 -158 -207 -158 -98 1
-181 60 -208 149 -19 65 -14 75 19 37 17 -18 49 -43 73 -54z m-2 -147 c94 -48
219 -28 297 48 l43 42 -6 -30 c-14 -61 -17 -71 -41 -106 -96 -142 -333 -105
-383 60 -19 64 -14 77 15 41 15 -17 48 -42 75 -55z"/>
<path d="M1570 1625 c0 -18 -5 -25 -18 -25 -31 0 -62 -42 -62 -84 0 -39 35
-86 65 -86 11 0 15 -12 15 -50 l0 -50 -40 0 c-33 0 -40 -3 -40 -20 0 -17 7
-20 39 -20 33 0 40 -4 43 -22 4 -29 32 -30 36 -1 2 12 12 25 22 28 28 9 60 54
60 84 0 33 -25 70 -56 81 -20 8 -24 16 -24 55 0 41 2 45 24 45 34 0 56 10 56
25 0 15 -22 25 -55 25 -14 0 -25 7 -28 20 -8 29 -37 26 -37 -5z m0 -110 c0
-46 -7 -54 -28 -33 -16 16 -15 65 1 71 24 10 27 6 27 -38z m64 -101 c22 -22
20 -61 -4 -74 -19 -10 -20 -8 -20 40 0 27 2 50 4 50 3 0 12 -7 20 -16z"/>
<path d="M1150 1538 c0 -6 9 -22 21 -34 l21 -22 -353 -4 c-336 -4 -356 -5
-401 -25 -183 -84 -222 -268 -84 -390 81 -71 104 -75 421 -82 263 -6 283 -7
321 -28 126 -68 158 -206 67 -297 -67 -66 -110 -80 -271 -84 -127 -3 -143 -6
-140 -20 3 -15 21 -17 148 -17 139 0 148 1 202 28 105 51 170 155 153 244 -15
85 -73 151 -170 194 -47 20 -70 22 -335 28 -217 5 -291 9 -310 20 -84 47 -130
113 -130 186 0 50 38 114 88 149 73 51 117 56 471 56 l324 0 -21 -23 c-24 -26
-28 -42 -11 -53 12 -7 99 73 99 93 0 15 -81 92 -97 93 -7 0 -13 -5 -13 -12z"/>
<path d="M324 794 c-100 -36 -168 -133 -167 -238 1 -82 25 -137 83 -189 101
-91 249 -90 343 1 110 106 113 257 9 361 -75 75 -173 99 -268 65z m151 -35
c56 -16 129 -91 145 -148 23 -88 -12 -182 -88 -235 -35 -25 -55 -31 -110 -34
-85 -5 -143 23 -188 90 -59 87 -51 186 20 264 61 67 133 87 221 63z"/>
<path d="M397 754 c-4 -4 -7 -15 -7 -25 0 -10 -9 -21 -20 -24 -33 -11 -60 -46
-60 -81 0 -35 30 -79 60 -89 16 -5 20 -15 20 -51 0 -40 -2 -44 -24 -44 -34 0
-56 -10 -56 -25 0 -15 22 -25 55 -25 14 0 25 -7 28 -20 8 -29 37 -26 37 5 0
16 6 25 15 25 30 0 65 47 65 85 0 38 -35 85 -65 85 -11 0 -15 12 -15 50 l0 50
40 0 c33 0 40 3 40 20 0 17 -7 20 -39 20 -33 0 -40 4 -43 22 -3 22 -19 33 -31
22z m-7 -136 c0 -50 0 -51 -20 -33 -22 20 -26 55 -8 73 22 22 28 13 28 -40z
m68 -100 c22 -22 8 -78 -20 -78 -4 0 -8 20 -8 45 0 46 7 54 28 33z"/>
</g>
</svg>
