<?xml version="1.0" standalone="no"?>
<!DOCTYPE svg PUBLIC "-//W3C//DTD SVG 20010904//EN"
 "http://www.w3.org/TR/2001/REC-SVG-20010904/DTD/svg10.dtd">
<svg version="1.0" xmlns="http://www.w3.org/2000/svg"
 width="200.000000pt" height="200.000000pt" viewBox="0 0 200.000000 200.000000"
 preserveAspectRatio="xMidYMid meet">
<metadata>
Created by potrace 1.16, written by Peter Selinger 2001-2019
</metadata>
<g transform="translate(0.000000,200.000000) scale(0.100000,-0.100000)"
fill="#000000" stroke="none">
<path d="M116 1718 c-14 -20 -16 -81 -16 -468 0 -387 2 -448 16 -468 l15 -22
375 0 374 0 0 80 0 80 -265 0 -265 0 0 23 c0 27 -23 51 -63 66 l-27 11 0 235
c0 223 1 235 19 235 26 0 69 37 73 63 l3 22 262 3 263 2 0 80 0 80 -374 0
-375 0 -15 -22z"/>
<path d="M930 1665 l0 -75 70 0 70 0 0 75 0 75 -70 0 -70 0 0 -75z"/>
<path d="M1120 1660 l0 -80 263 -2 262 -3 3 -22 c4 -26 47 -63 73 -63 18 0 19
-12 19 -235 l0 -235 -27 -11 c-40 -15 -63 -39 -63 -66 l0 -23 -265 0 -265 0 0
-80 0 -80 374 0 375 0 15 22 c14 20 16 81 16 468 0 387 -2 448 -16 468 l-15
22 -375 0 -374 0 0 -80z"/>
<path d="M386 1515 c-4 -14 -24 -37 -46 -51 l-40 -27 0 -187 0 -188 36 -21
c20 -12 41 -35 47 -51 l11 -30 215 0 214 0 -46 41 c-28 24 -59 65 -78 104 -27
54 -31 74 -31 144 0 72 3 89 31 146 19 39 50 80 78 104 l46 41 -216 0 -215 0
-6 -25z"/>
<path d="M943 1533 c-10 -3 -13 -70 -13 -283 0 -309 -5 -290 70 -290 75 0 70
-19 70 290 0 244 -2 279 -16 284 -18 7 -93 7 -111 -1z"/>
<path d="M1234 1487 c132 -132 132 -342 0 -474 l-53 -53 212 0 213 0 11 30 c6
16 27 39 47 51 l36 21 0 188 0 187 -40 27 c-22 14 -42 37 -46 51 l-6 25 -213
0 -214 0 53 -53z"/>
<path d="M800 1452 c-47 -47 -62 -70 -75 -117 -33 -112 1 -225 91 -304 26 -22
51 -41 55 -41 5 0 9 117 9 260 0 180 -3 260 -11 260 -6 0 -37 -26 -69 -58z"/>
<path d="M1120 1250 c0 -143 4 -260 9 -260 4 0 29 19 55 41 90 79 124 192 91
304 -13 47 -28 70 -75 117 -32 32 -63 58 -69 58 -8 0 -11 -80 -11 -260z"/>
<path d="M930 570 l0 -350 70 0 70 0 0 350 0 350 -70 0 -70 0 0 -350z"/>
<path d="M90 671 c0 -85 -21 -81 411 -81 l379 0 0 65 0 65 -395 0 -395 0 0
-49z"/>
<path d="M1120 655 l0 -65 379 0 c432 0 411 -4 411 81 l0 49 -395 0 -395 0 0
-65z"/>
<path d="M90 527 c0 -18 5 -38 12 -45 9 -9 110 -12 395 -12 l383 0 0 45 0 45
-395 0 -395 0 0 -33z"/>
<path d="M1120 515 l0 -45 383 0 c285 0 386 3 395 12 7 7 12 27 12 45 l0 33
-395 0 -395 0 0 -45z"/>
<path d="M97 433 c-13 -12 -7 -62 9 -77 13 -14 63 -16 395 -16 l379 0 0 50 0
50 -388 0 c-214 0 -392 -3 -395 -7z"/>
<path d="M1120 390 l0 -50 385 0 c377 0 384 0 395 20 6 12 10 33 8 48 l-3 27
-392 3 -393 2 0 -50z"/>
<path d="M90 277 c0 -18 5 -38 12 -45 9 -9 110 -12 395 -12 l383 0 0 45 0 45
-395 0 -395 0 0 -33z"/>
<path d="M1120 265 l0 -45 383 0 c285 0 386 3 395 12 7 7 12 27 12 45 l0 33
-395 0 -395 0 0 -45z"/>
</g>
</svg>
