<?xml version="1.0" standalone="no"?>
<!DOCTYPE svg PUBLIC "-//W3C//DTD SVG 20010904//EN"
 "http://www.w3.org/TR/2001/REC-SVG-20010904/DTD/svg10.dtd">
<svg version="1.0" xmlns="http://www.w3.org/2000/svg"
 width="200.000000pt" height="200.000000pt" viewBox="0 0 200.000000 200.000000"
 preserveAspectRatio="xMidYMid meet">
<metadata>
Created by potrace 1.16, written by Peter Selinger 2001-2019
</metadata>
<g transform="translate(0.000000,200.000000) scale(0.100000,-0.100000)"
fill="#000000" stroke="none">
<path d="M306 1874 c-9 -8 -16 -22 -16 -29 0 -7 7 -21 16 -29 14 -14 90 -16
694 -16 604 0 680 2 694 16 20 20 20 38 0 58 -14 14 -90 16 -694 16 -604 0
-680 -2 -694 -16z"/>
<path d="M185 1570 c-15 -17 -16 -24 -7 -45 l12 -25 810 0 810 0 12 25 c9 21
8 28 -7 45 -18 20 -30 20 -815 20 -785 0 -797 0 -815 -20z"/>
<path d="M140 1277 l-25 -13 -3 -557 c-1 -373 1 -564 8 -578 10 -19 28 -19
875 -19 772 0 865 2 879 16 14 14 16 80 16 574 l0 559 -22 15 c-20 14 -118 16
-863 16 -657 0 -845 -3 -865 -13z m1660 -582 l0 -495 -800 0 -800 0 0 495 0
495 800 0 800 0 0 -495z"/>
<path d="M875 951 c-172 -81 -213 -298 -86 -444 79 -90 231 -119 336 -65 103
53 159 145 159 258 -1 213 -214 344 -409 251z m213 -80 c116 -59 142 -220 50
-308 -42 -39 -63 -49 -119 -58 -129 -19 -244 116 -209 245 13 48 63 108 105
126 45 20 129 17 173 -5z"/>
<path d="M480 720 c-16 -30 4 -60 41 -60 33 0 44 17 35 55 -8 32 -60 36 -76 5z"/>
<path d="M1444 726 c-3 -8 -4 -25 -2 -38 2 -18 10 -24 35 -26 39 -4 60 25 43
58 -13 24 -68 28 -76 6z"/>
</g>
</svg>
