<?xml version="1.0" standalone="no"?>
<!DOCTYPE svg PUBLIC "-//W3C//DTD SVG 20010904//EN"
 "http://www.w3.org/TR/2001/REC-SVG-20010904/DTD/svg10.dtd">
<svg version="1.0" xmlns="http://www.w3.org/2000/svg"
 width="200.000000pt" height="200.000000pt" viewBox="0 0 200.000000 200.000000"
 preserveAspectRatio="xMidYMid meet">
<metadata>
Created by potrace 1.16, written by Peter Selinger 2001-2019
</metadata>
<g transform="translate(0.000000,200.000000) scale(0.100000,-0.100000)"
fill="#000000" stroke="none">
<path d="M908 1470 c-433 -87 -792 -161 -797 -165 -16 -10 -15 -907 1 -923 17
-17 1759 -17 1776 0 9 9 12 126 12 465 0 437 -1 453 -19 463 -11 5 -31 10 -45
10 -24 0 -25 3 -28 68 l-3 67 -37 3 -38 3 0 79 c0 62 -3 79 -16 84 -9 3 -16 6
-17 5 -1 -1 -356 -72 -789 -159z m772 41 l0 -58 -47 -6 c-27 -3 -190 -18 -363
-32 -173 -14 -325 -28 -337 -31 -15 -3 -23 -12 -23 -24 0 -26 -17 -27 454 15
218 19 399 35 401 35 3 0 5 -20 5 -45 l0 -45 -492 2 c-271 1 -476 3 -455 5 40
5 60 29 36 44 -8 5 -27 7 -44 4 -16 -2 -66 -6 -110 -9 -58 -4 56 23 425 98
278 57 515 104 528 105 20 1 22 -3 22 -58z m170 -671 l0 -420 -850 0 -850 0 0
420 0 420 850 0 850 0 0 -420z"/>
<path d="M336 1228 c-3 -7 -7 -26 -11 -42 -8 -36 -59 -86 -89 -86 -46 0 -47
-2 -44 -260 l3 -243 38 -11 c50 -14 85 -49 93 -92 3 -19 15 -39 25 -44 25 -14
1274 -13 1300 0 10 6 19 20 19 31 0 51 50 99 115 111 19 3 20 12 23 250 l2
248 -27 6 c-67 14 -100 46 -112 107 l-7 32 -662 3 c-525 2 -663 0 -666 -10z
m1302 -81 c21 -46 60 -81 105 -92 l27 -7 0 -203 0 -203 -33 -11 c-41 -14 -93
-66 -108 -109 l-11 -32 -621 2 -621 3 -7 29 c-11 39 -64 93 -106 107 l-33 11
0 203 0 203 27 7 c44 11 80 42 103 90 l22 45 618 0 619 0 19 -43z"/>
<path d="M893 1124 c-57 -21 -128 -86 -161 -148 -23 -44 -27 -63 -26 -131 1
-96 18 -138 80 -205 184 -197 509 -66 508 206 0 168 -129 295 -298 293 -34 0
-80 -7 -103 -15z m205 -50 c80 -33 140 -117 149 -209 20 -196 -192 -336 -366
-240 -91 50 -138 137 -129 240 8 90 63 170 143 206 50 23 152 25 203 3z"/>
<path d="M967 1032 c-10 -9 -31 -29 -47 -44 -50 -45 -33 -132 30 -158 28 -11
30 -16 30 -61 0 -27 -4 -49 -9 -49 -14 0 -29 23 -33 50 -5 39 -42 34 -46 -6
-3 -33 37 -94 63 -94 7 0 19 -10 28 -22 l15 -23 21 22 c11 12 29 24 39 27 11
4 27 22 37 41 27 49 12 102 -37 134 -35 23 -38 28 -38 73 0 26 4 48 8 48 15 0
32 -24 32 -46 0 -27 21 -46 39 -34 23 14 6 81 -26 107 -15 12 -36 29 -45 38
-22 19 -38 18 -61 -3z m13 -112 c0 -27 -2 -50 -4 -50 -13 0 -36 34 -36 54 0
22 17 46 32 46 4 0 8 -22 8 -50z m68 -122 c15 -15 15 -51 0 -66 -21 -21 -28
-13 -28 33 0 46 7 54 28 33z"/>
<path d="M327 993 c-10 -3 -17 -12 -15 -21 3 -15 24 -17 167 -20 171 -3 206 4
167 34 -15 11 -53 14 -160 13 -78 -1 -149 -3 -159 -6z"/>
<path d="M1356 987 c-40 -30 -9 -37 160 -37 139 0 166 2 171 15 3 9 2 19 -2
23 -3 4 -75 8 -158 10 -119 2 -156 0 -171 -11z"/>
<path d="M442 894 c-32 -22 -30 -76 5 -103 30 -24 58 -20 86 11 24 28 21 60
-6 86 -27 26 -54 28 -85 6z m58 -47 c0 -8 -3 -17 -7 -20 -9 -9 -34 13 -27 24
8 14 34 11 34 -4z"/>
<path d="M1472 890 c-59 -55 18 -149 81 -99 33 25 36 70 7 99 -26 26 -60 25
-88 0z m61 -37 c9 -9 -13 -34 -24 -27 -14 8 -11 34 4 34 8 0 17 -3 20 -7z"/>
<path d="M314 725 c-12 -31 7 -35 171 -35 165 0 190 5 165 35 -18 22 -328 22
-336 0z"/>
<path d="M1350 725 c-25 -30 3 -36 171 -33 156 3 164 4 164 23 0 19 -8 20
-161 23 -136 2 -163 0 -174 -13z"/>
</g>
</svg>
