<?xml version="1.0" standalone="no"?>
<!DOCTYPE svg PUBLIC "-//W3C//DTD SVG 20010904//EN"
 "http://www.w3.org/TR/2001/REC-SVG-20010904/DTD/svg10.dtd">
<svg version="1.0" xmlns="http://www.w3.org/2000/svg"
 width="200.000000pt" height="200.000000pt" viewBox="0 0 200.000000 200.000000"
 preserveAspectRatio="xMidYMid meet">
<metadata>
Created by potrace 1.16, written by Peter Selinger 2001-2019
</metadata>
<g transform="translate(0.000000,200.000000) scale(0.100000,-0.100000)"
fill="#000000" stroke="none">
<path d="M220 1870 c-52 -13 -87 -58 -95 -122 -3 -29 -5 -368 -3 -753 3 -762
1 -729 61 -765 31 -19 57 -20 815 -20 864 0 823 -3 859 63 17 30 18 83 18 772
0 691 -1 743 -18 768 -9 15 -29 35 -44 44 -25 17 -80 18 -793 20 -421 1 -781
-3 -800 -7z m1558 -92 c8 -8 12 -50 12 -125 l0 -113 -790 0 -790 0 0 113 c0
75 4 117 12 125 17 17 1539 17 1556 0z m12 -443 l0 -125 -790 0 -790 0 0 125
0 125 790 0 790 0 0 -125z m0 -620 c0 -389 -1 -405 -19 -415 -27 -14 -1515
-14 -1542 0 -18 10 -19 26 -19 415 l0 405 790 0 790 0 0 -405z"/>
<path d="M950 911 c-77 -25 -125 -71 -149 -140 -54 -163 117 -322 277 -255 84
35 141 131 128 216 -8 47 -36 106 -62 129 -50 44 -141 67 -194 50z m110 -96
c62 -32 80 -129 35 -184 -76 -89 -215 -40 -215 75 0 56 12 79 53 104 38 24 87
25 127 5z"/>
<path d="M420 710 l0 -40 100 0 100 0 0 40 0 40 -100 0 -100 0 0 -40z"/>
<path d="M1380 710 l0 -40 100 0 100 0 0 40 0 40 -100 0 -100 0 0 -40z"/>
</g>
</svg>
