<?xml version="1.0" standalone="no"?>
<!DOCTYPE svg PUBLIC "-//W3C//DTD SVG 20010904//EN"
 "http://www.w3.org/TR/2001/REC-SVG-20010904/DTD/svg10.dtd">
<svg version="1.0" xmlns="http://www.w3.org/2000/svg"
 width="200.000000pt" height="200.000000pt" viewBox="0 0 200.000000 200.000000"
 preserveAspectRatio="xMidYMid meet">
<metadata>
Created by potrace 1.16, written by Peter Selinger 2001-2019
</metadata>
<g transform="translate(0.000000,200.000000) scale(0.100000,-0.100000)"
fill="#000000" stroke="none">
<path d="M1175 1634 c-59 -19 -147 -75 -169 -109 l-16 -24 -57 27 c-52 24 -70
27 -163 27 -96 0 -110 -3 -165 -29 -208 -103 -285 -364 -166 -558 19 -30 25
-48 18 -51 -24 -8 -97 5 -97 18 0 19 -24 25 -110 25 -53 0 -81 -4 -89 -14 -8
-9 -11 -97 -9 -302 l3 -289 98 -3 c92 -3 99 -1 104 18 4 15 14 20 39 20 20 0
37 6 42 16 9 15 25 15 208 -7 235 -27 524 -32 589 -10 130 44 373 191 544 329
78 63 88 131 29 197 -59 68 -88 62 -330 -73 -215 -120 -258 -140 -320 -147
-32 -4 -58 -5 -58 -3 0 3 7 19 16 37 22 45 11 96 -30 137 -28 28 -31 35 -19
47 12 11 22 10 66 -12 46 -23 64 -26 162 -26 104 0 113 2 170 32 114 60 185
152 210 272 37 175 -51 354 -213 433 -55 27 -77 32 -151 35 -58 2 -102 -2
-136 -13z m265 -64 c69 -36 106 -67 140 -121 111 -172 56 -393 -122 -490 -60
-32 -68 -34 -163 -34 -112 0 -157 15 -233 80 -84 72 -133 232 -103 340 27 101
120 204 216 240 63 23 208 15 265 -15z m-560 -73 c46 -15 66 -28 69 -41 2 -15
-1 -17 -15 -11 -91 40 -137 49 -199 38 -83 -14 -131 -38 -186 -93 -112 -112
-118 -308 -12 -421 17 -19 21 -29 13 -34 -17 -11 -57 32 -88 94 -23 49 -27 68
-27 146 0 108 23 163 96 237 100 100 220 129 349 85z m0 -82 c19 -10 36 -19
38 -20 2 -1 -3 -32 -9 -68 -17 -90 0 -185 46 -261 l34 -56 -31 -30 c-56 -57
-80 -63 -197 -55 -118 7 -150 21 -195 80 -109 142 -54 350 110 415 59 24 152
22 204 -5z m160 -452 c0 -15 -45 -53 -64 -53 -18 0 -17 3 9 30 26 28 55 40 55
23z m-730 -308 l0 -255 -55 0 -55 0 0 255 0 255 55 0 55 0 0 -255z m1465 229
c25 -26 31 -57 19 -88 -13 -34 -329 -250 -447 -307 -136 -64 -185 -73 -387
-66 -96 3 -209 10 -250 16 -41 5 -119 15 -172 22 l-98 12 0 194 0 193 25 10
c14 5 53 12 87 15 75 7 466 -28 496 -44 45 -24 40 -101 -6 -125 -32 -16 -138
-8 -245 20 -59 15 -77 13 -77 -10 0 -18 34 -31 126 -50 117 -24 251 -34 328
-25 62 8 92 21 300 134 127 69 241 125 254 125 13 0 34 -12 47 -26z m-1385
-229 c0 -184 -2 -215 -15 -215 -13 0 -15 31 -15 215 0 184 2 215 15 215 13 0
15 -31 15 -215z"/>
<path d="M1173 1549 c-107 -41 -184 -150 -191 -271 -8 -132 56 -241 174 -299
58 -29 78 -33 138 -33 122 1 224 66 284 179 37 69 38 185 3 263 -30 66 -113
144 -177 166 -65 22 -167 20 -231 -5z m234 -49 c153 -67 202 -273 95 -407 -95
-121 -279 -132 -396 -25 -95 88 -101 275 -13 371 79 85 203 109 314 61z"/>
<path d="M1270 1466 c-8 -8 -32 -30 -52 -49 -29 -27 -38 -43 -38 -68 0 -44 33
-97 65 -105 23 -6 25 -10 25 -66 0 -77 -28 -74 -45 5 -8 40 -45 38 -45 -3 0
-44 24 -85 59 -100 16 -6 32 -18 35 -26 7 -18 25 -18 45 0 79 69 91 85 91 115
0 45 -24 86 -60 101 -29 12 -30 15 -30 71 0 33 2 59 4 59 13 0 36 -35 36 -54
0 -29 21 -48 39 -36 25 15 6 81 -31 113 -18 15 -40 34 -49 42 -20 19 -31 19
-49 1z m0 -121 c0 -56 -6 -65 -28 -43 -24 24 -9 98 20 98 4 0 8 -25 8 -55z
m86 -150 c7 -30 -3 -62 -21 -69 -12 -4 -15 5 -15 49 0 44 3 53 15 49 8 -4 18
-17 21 -29z"/>
<path d="M754 1376 c-3 -8 -19 -20 -35 -26 -34 -15 -59 -56 -59 -99 0 -33 39
-86 70 -96 17 -5 20 -16 20 -65 0 -49 -3 -58 -15 -54 -8 4 -18 18 -21 33 -14
66 -47 78 -52 18 -3 -38 3 -47 89 -123 26 -23 24 -24 102 49 28 27 37 43 37
68 0 44 -33 97 -65 105 -23 6 -25 10 -25 65 0 32 4 59 9 59 15 0 29 -24 33
-55 2 -22 8 -30 23 -30 46 0 23 95 -29 122 -17 9 -35 22 -39 29 -10 18 -36 18
-43 0z m-4 -121 c0 -30 -2 -55 -4 -55 -3 0 -12 7 -20 16 -19 18 -21 65 -4 82
22 22 28 13 28 -43z m78 -127 c19 -19 14 -63 -8 -83 -20 -18 -20 -17 -20 38 0
57 6 67 28 45z"/>
</g>
</svg>
