<?xml version="1.0" standalone="no"?>
<!DOCTYPE svg PUBLIC "-//W3C//DTD SVG 20010904//EN"
 "http://www.w3.org/TR/2001/REC-SVG-20010904/DTD/svg10.dtd">
<svg version="1.0" xmlns="http://www.w3.org/2000/svg"
 width="200.000000pt" height="200.000000pt" viewBox="0 0 200.000000 200.000000"
 preserveAspectRatio="xMidYMid meet">
<metadata>
Created by potrace 1.16, written by Peter Selinger 2001-2019
</metadata>
<g transform="translate(0.000000,200.000000) scale(0.100000,-0.100000)"
fill="#000000" stroke="none">
<path d="M337 1843 c-4 -3 -7 -123 -7 -266 0 -241 1 -259 18 -264 17 -4 17 -9
-1 -126 -11 -67 -21 -128 -23 -134 -2 -9 -27 -13 -77 -13 -43 0 -78 -5 -85
-12 -17 -17 -17 -849 0 -866 17 -17 1659 -17 1676 0 17 17 17 849 0 866 -9 9
-96 12 -330 12 -295 0 -319 1 -324 18 -15 50 -34 69 -99 102 -53 27 -82 51
-117 95 l-48 59 0 268 0 268 -288 0 c-159 0 -292 -3 -295 -7z m543 -188 l0
-145 -250 0 -250 0 0 145 0 145 250 0 250 0 0 -145z m0 -245 l0 -50 -250 0
-250 0 0 50 0 50 250 0 250 0 0 -50z m43 -175 c47 -60 70 -80 125 -107 39 -20
73 -45 82 -61 13 -24 13 -28 -6 -54 -28 -38 -49 -39 -144 -9 -161 51 -160 53
-160 -214 0 -115 -3 -215 -6 -224 -7 -19 -47 -21 -63 -3 -6 8 -12 75 -13 168
-3 146 -4 154 -23 154 -19 0 -20 -8 -25 -159 -4 -137 -7 -160 -22 -170 -13 -8
-23 -8 -36 0 -15 10 -18 33 -22 170 -5 151 -6 159 -25 159 -19 0 -20 -8 -25
-149 -4 -128 -8 -150 -22 -160 -13 -8 -23 -8 -35 0 -15 9 -18 30 -21 130 -3
122 -10 147 -36 125 -11 -9 -16 -36 -18 -89 -3 -71 -5 -77 -25 -80 -18 -3 -23
3 -28 32 -13 65 1 396 20 509 l19 107 225 0 226 -1 58 -74z m-605 -311 c-3
-71 -8 -78 -60 -89 l-28 -5 0 -235 0 -234 41 -11 c45 -12 89 -52 89 -81 0 -52
-38 -49 641 -49 l629 0 5 27 c13 63 44 94 108 108 l27 5 0 235 0 235 -27 5
c-62 13 -95 46 -108 108 l-5 27 -201 0 c-171 0 -200 -2 -206 -15 -3 -9 -2 -19
2 -23 3 -4 87 -8 185 -10 174 -3 179 -4 186 -25 12 -39 45 -75 85 -93 l39 -17
0 -191 0 -191 -44 -23 c-30 -17 -51 -38 -68 -68 l-23 -44 -587 0 c-584 0 -587
0 -593 21 -10 31 -62 85 -95 99 l-30 12 0 194 c0 107 2 194 4 194 2 0 11 3 19
6 12 4 16 -9 22 -68 8 -86 30 -118 80 -118 28 0 33 -4 39 -30 7 -40 61 -67
102 -53 23 8 35 6 59 -8 37 -23 64 -24 93 -3 21 15 22 14 45 -38 80 -181 325
-221 464 -76 95 99 98 270 6 377 -77 91 -208 121 -326 76 -15 -6 -17 0 -17 59
0 45 4 66 12 66 7 0 50 -12 97 -26 96 -29 136 -27 171 11 l23 25 314 0 313 0
0 -395 0 -395 -800 0 -800 0 0 395 0 395 60 0 61 0 -3 -66z m777 -113 c84 -39
138 -125 138 -221 0 -170 -186 -281 -342 -204 -59 30 -119 103 -91 112 8 3 27
18 42 33 27 27 28 30 28 147 l0 120 38 15 c51 22 138 21 187 -2z"/>
<path d="M1327 726 c-12 -30 16 -36 163 -36 147 0 175 6 163 36 -8 20 -318 20
-326 0z"/>
<path d="M1450 642 c-27 -22 -29 -65 -5 -92 38 -42 105 -12 105 45 0 57 -56
83 -100 47z m55 -41 c7 -12 -12 -24 -25 -16 -11 7 -4 25 10 25 5 0 11 -4 15
-9z"/>
<path d="M1330 485 c-25 -30 0 -35 160 -35 160 0 185 5 160 35 -10 12 -43 15
-160 15 -117 0 -150 -3 -160 -15z"/>
<path d="M980 780 c-6 -11 -17 -20 -24 -20 -7 0 -23 -11 -36 -25 -45 -47 -24
-132 38 -156 18 -7 22 -16 22 -54 0 -25 -4 -45 -8 -45 -15 0 -32 24 -32 46 0
29 -16 39 -36 23 -28 -23 13 -119 52 -119 6 0 19 -10 28 -23 15 -21 16 -21 30
-3 9 10 26 24 38 30 13 6 31 28 41 49 18 36 18 38 0 74 -10 21 -30 44 -45 51
-24 11 -28 19 -28 58 0 24 4 44 9 44 14 0 29 -23 33 -50 3 -28 26 -33 41 -9
14 22 -20 90 -52 106 -13 6 -28 19 -33 27 -12 22 -25 20 -38 -4z m0 -110 c0
-41 -7 -49 -28 -28 -15 15 -15 41 0 56 21 21 28 13 28 -28z m74 -133 c8 -12 8
-22 0 -34 -21 -33 -34 -26 -34 17 0 43 13 50 34 17z"/>
</g>
</svg>
