<?xml version="1.0" standalone="no"?>
<!DOCTYPE svg PUBLIC "-//W3C//DTD SVG 20010904//EN"
 "http://www.w3.org/TR/2001/REC-SVG-20010904/DTD/svg10.dtd">
<svg version="1.0" xmlns="http://www.w3.org/2000/svg"
 width="200.000000pt" height="200.000000pt" viewBox="0 0 200.000000 200.000000"
 preserveAspectRatio="xMidYMid meet">
<metadata>
Created by potrace 1.16, written by Peter Selinger 2001-2019
</metadata>
<g transform="translate(0.000000,200.000000) scale(0.100000,-0.100000)"
fill="#000000" stroke="none">
<path d="M940 1779 c-38 -16 -66 -19 -170 -17 l-124 3 -9 -26 c-8 -21 0 -47
42 -144 35 -80 48 -121 40 -124 -21 -7 -48 -40 -55 -66 -9 -36 3 -73 33 -101
l26 -24 -30 -43 c-164 -231 -287 -415 -305 -454 -32 -69 -32 -215 1 -295 51
-130 209 -242 386 -273 103 -18 347 -18 450 0 115 20 247 88 313 160 88 96
123 239 87 361 -21 73 -27 82 -195 324 -75 108 -140 202 -144 208 -5 8 2 22
18 37 54 50 44 127 -20 163 -13 7 -7 27 37 127 42 97 50 123 42 144 l-9 26
-119 -3 c-101 -3 -129 0 -179 17 -68 24 -58 24 -116 0z m130 -45 c43 -13 76
-15 157 -10 57 3 103 3 103 -2 0 -4 -23 -60 -51 -124 l-52 -118 -227 0 -227 0
-52 118 c-28 64 -51 120 -51 124 0 4 51 5 113 2 94 -4 120 -2 162 14 28 11 55
18 60 16 6 -1 35 -10 65 -20z m210 -314 c11 -11 20 -29 20 -40 0 -11 -9 -29
-20 -40 -19 -19 -33 -20 -280 -20 -247 0 -261 1 -280 20 -11 11 -20 29 -20 40
0 11 9 29 20 40 19 19 33 20 280 20 247 0 261 -1 280 -20z m113 -375 c88 -126
169 -250 181 -275 16 -35 21 -64 21 -135 0 -79 -3 -97 -29 -150 -39 -78 -101
-137 -191 -181 -116 -55 -190 -66 -400 -61 -198 5 -249 15 -362 69 -125 61
-200 165 -211 293 -10 125 1 146 235 483 l134 192 231 -2 231 -3 160 -230z"/>
<path d="M987 1074 c-4 -4 -7 -17 -7 -30 0 -17 -7 -23 -34 -28 -97 -18 -139
-155 -70 -229 32 -35 63 -47 119 -47 60 0 91 -14 110 -49 19 -37 19 -64 1
-100 -28 -52 -122 -69 -183 -31 -31 19 -39 34 -45 90 -3 29 -31 34 -36 7 -12
-62 42 -141 103 -153 27 -5 34 -11 37 -33 4 -35 32 -35 36 0 3 22 10 28 36 33
49 9 97 65 103 118 6 50 -10 89 -51 127 -19 18 -41 25 -93 30 -103 10 -133 34
-133 105 0 49 34 86 87 93 94 12 139 -16 152 -95 7 -42 34 -51 39 -13 9 59
-45 136 -103 147 -27 5 -35 11 -37 32 -3 26 -18 38 -31 26z"/>
</g>
</svg>
