<?xml version="1.0" standalone="no"?>
<!DOCTYPE svg PUBLIC "-//W3C//DTD SVG 20010904//EN"
 "http://www.w3.org/TR/2001/REC-SVG-20010904/DTD/svg10.dtd">
<svg version="1.0" xmlns="http://www.w3.org/2000/svg"
 width="200.000000pt" height="200.000000pt" viewBox="0 0 200.000000 200.000000"
 preserveAspectRatio="xMidYMid meet">
<metadata>
Created by potrace 1.16, written by Peter Selinger 2001-2019
</metadata>
<g transform="translate(0.000000,200.000000) scale(0.100000,-0.100000)"
fill="#000000" stroke="none">
<path d="M1243 1696 c-185 -60 -310 -256 -275 -432 27 -131 108 -240 220 -292
50 -24 69 -27 157 -27 93 0 105 2 166 32 80 39 150 111 187 191 24 50 27 69
27 162 0 98 -2 109 -31 165 -39 75 -116 148 -192 183 -69 31 -192 40 -259 18z
m135 -108 c7 -7 12 -18 12 -25 0 -7 17 -29 39 -48 49 -44 67 -85 51 -114 -6
-13 -21 -21 -36 -21 -19 0 -26 6 -31 30 -6 31 -45 70 -69 70 -27 0 -55 -40
-52 -73 2 -24 9 -33 28 -38 96 -26 115 -36 137 -68 42 -62 24 -155 -37 -186
-17 -9 -30 -21 -30 -28 0 -7 -6 -21 -13 -31 -19 -26 -57 -13 -57 19 0 16 -10
28 -37 42 -73 38 -97 148 -33 148 20 0 27 -7 36 -35 6 -19 22 -41 35 -48 53
-30 114 34 75 77 -9 10 -35 21 -57 24 -76 10 -122 60 -122 132 0 50 22 90 62
113 16 8 33 28 39 44 11 30 39 37 60 16z"/>
<path d="M280 905 c-14 -17 -15 -41 -12 -313 l2 -213 93 3 92 3 3 255 c2 231
1 256 -15 268 -24 18 -147 16 -163 -3z"/>
<path d="M670 898 c-19 -5 -59 -16 -87 -24 l-53 -15 0 -208 0 -207 223 -74
c245 -82 315 -94 382 -66 35 15 450 255 558 323 45 29 54 77 20 116 -24 26
-61 21 -174 -24 -57 -23 -146 -57 -198 -75 l-93 -34 -182 2 -181 3 0 25 0 25
176 5 c203 6 219 12 219 81 0 59 -23 69 -154 69 -104 0 -111 1 -156 30 -25 16
-65 36 -89 45 -48 17 -157 19 -211 3z"/>
</g>
</svg>
