<?xml version="1.0" standalone="no"?>
<!DOCTYPE svg PUBLIC "-//W3C//DTD SVG 20010904//EN"
 "http://www.w3.org/TR/2001/REC-SVG-20010904/DTD/svg10.dtd">
<svg version="1.0" xmlns="http://www.w3.org/2000/svg"
 width="200.000000pt" height="200.000000pt" viewBox="0 0 200.000000 200.000000"
 preserveAspectRatio="xMidYMid meet">
<metadata>
Created by potrace 1.16, written by Peter Selinger 2001-2019
</metadata>
<g transform="translate(0.000000,200.000000) scale(0.100000,-0.100000)"
fill="#000000" stroke="none">
<path d="M413 1855 c-118 -33 -196 -98 -247 -205 -27 -57 -31 -76 -31 -150 0
-75 4 -93 32 -152 17 -36 50 -85 73 -108 42 -42 139 -93 195 -103 28 -5 33 -1
68 55 32 51 36 64 29 91 -6 25 -14 32 -32 32 -17 0 -26 -6 -28 -20 -2 -11 -8
-24 -13 -29 -11 -13 -39 12 -39 35 0 13 -7 19 -21 19 -32 0 -79 53 -79 89 0
16 5 33 10 36 15 9 40 -14 40 -36 0 -29 32 -39 134 -39 100 0 126 10 126 50 0
39 -26 50 -121 50 -137 0 -189 31 -189 113 0 29 7 46 29 68 16 16 39 29 50 29
16 0 21 6 21 25 0 14 5 26 10 27 29 4 35 1 40 -22 8 -32 53 -36 58 -5 2 11 8
24 13 29 11 13 39 -12 39 -35 0 -12 7 -19 18 -19 10 0 27 -7 39 -15 21 -15 21
-14 25 53 2 37 8 75 12 84 7 15 -1 22 -40 38 -64 28 -155 34 -221 15z"/>
<path d="M773 1813 c-41 -8 -63 -49 -63 -119 0 -69 11 -108 41 -140 18 -19 18
-22 4 -34 -17 -14 -20 -67 -5 -90 7 -11 -10 -34 -69 -95 -93 -96 -128 -146
-186 -267 -57 -118 -95 -267 -96 -372 -1 -68 3 -87 30 -141 33 -67 72 -103
147 -137 37 -16 70 -20 168 -21 l121 -2 5 116 c6 130 17 158 75 186 19 9 35
22 35 30 0 7 16 28 35 48 l36 35 264 0 c145 0 266 4 269 8 9 15 -34 152 -74
239 -53 113 -102 184 -192 278 -58 61 -74 84 -68 95 15 23 12 76 -5 90 -12 10
-11 17 13 48 23 30 28 47 30 112 4 70 2 79 -21 106 l-25 29 -224 1 c-122 1
-233 0 -245 -3z m432 -338 c0 -19 -8 -20 -199 -23 -117 -1 -204 2 -209 7 -5 5
-7 17 -4 26 6 13 32 15 209 13 195 -3 203 -4 203 -23z"/>
<path d="M388 1619 c-21 -12 -24 -64 -5 -76 6 -4 62 -10 124 -13 101 -5 114
-7 137 -29 15 -14 31 -39 36 -55 l10 -31 -5 32 c-2 17 0 44 4 61 11 35 3 51
-24 49 -12 -1 -24 8 -34 28 -8 17 -19 33 -25 37 -17 11 -199 9 -218 -3z"/>
<path d="M1052 737 c-12 -13 -22 -35 -22 -50 0 -20 -5 -27 -20 -27 -32 0 -67
-21 -79 -47 -12 -25 -16 -390 -5 -431 14 -49 35 -52 424 -52 l361 0 24 25 c16
15 25 36 25 55 0 27 3 30 30 30 20 0 40 9 56 25 l25 25 -3 216 c-3 213 -3 216
-27 235 -22 18 -44 19 -395 19 l-373 0 -21 -23z m756 -39 c8 -8 12 -67 12
-198 0 -192 -4 -210 -42 -210 -17 0 -18 13 -18 159 0 141 -2 161 -19 182 l-19
24 -321 3 c-301 3 -321 4 -321 21 0 10 3 21 7 24 3 4 164 7 358 7 260 0 354
-3 363 -12z m-780 -114 c-5 -25 -35 -41 -49 -27 -18 18 -3 43 26 43 19 0 26
-5 23 -16z m582 -13 c0 -34 39 -71 76 -71 24 0 24 -1 24 -105 0 -104 0 -105
-24 -105 -37 0 -76 -37 -76 -71 l0 -29 -264 0 -263 0 -6 30 c-9 40 -41 70 -77
70 l-30 0 0 105 c0 97 1 105 20 105 47 0 90 41 90 85 0 13 40 15 265 15 l265
0 0 -29z m98 2 c2 -13 -1 -23 -6 -23 -24 0 -42 14 -42 32 0 29 44 20 48 -9z
m-690 -345 c20 -20 14 -38 -12 -38 -28 0 -40 14 -32 35 7 18 28 19 44 3z m690
-10 c-4 -31 -48 -39 -48 -10 0 20 12 30 38 31 8 1 12 -8 10 -21z"/>
<path d="M1295 489 c-34 -20 -55 -52 -55 -87 0 -73 55 -121 123 -108 82 15
110 124 47 181 -23 21 -89 29 -115 14z m76 -49 c29 -16 26 -73 -6 -90 -54 -29
-103 49 -53 84 26 19 33 19 59 6z"/>
</g>
</svg>
