<?xml version="1.0" standalone="no"?>
<!DOCTYPE svg PUBLIC "-//W3C//DTD SVG 20010904//EN"
 "http://www.w3.org/TR/2001/REC-SVG-20010904/DTD/svg10.dtd">
<svg version="1.0" xmlns="http://www.w3.org/2000/svg"
 width="200.000000pt" height="200.000000pt" viewBox="0 0 200.000000 200.000000"
 preserveAspectRatio="xMidYMid meet">
<metadata>
Created by potrace 1.16, written by Peter Selinger 2001-2019
</metadata>
<g transform="translate(0.000000,200.000000) scale(0.100000,-0.100000)"
fill="#000000" stroke="none">
<path d="M413 1855 c-118 -33 -196 -98 -247 -205 -27 -57 -31 -76 -31 -150 0
-75 4 -93 32 -152 17 -36 50 -85 73 -108 72 -72 230 -131 258 -97 16 19 -9 47
-42 47 -45 0 -117 33 -164 75 -139 125 -142 345 -6 464 61 54 112 74 200 79
67 4 89 1 129 -17 57 -25 71 -26 79 -5 9 24 10 23 -48 50 -69 31 -163 39 -233
19z"/>
<path d="M773 1813 c-41 -8 -63 -49 -63 -119 0 -69 11 -108 41 -140 18 -19 18
-22 4 -34 -17 -14 -20 -67 -5 -90 7 -11 -10 -34 -69 -95 -94 -97 -130 -148
-187 -270 -88 -186 -119 -390 -74 -492 11 -26 39 -67 62 -90 60 -62 117 -82
246 -90 132 -7 165 -1 160 30 -3 21 -8 22 -145 27 -138 5 -142 6 -184 35 -72
50 -103 104 -107 185 -8 139 56 344 153 491 27 41 84 109 127 152 l78 77 186
0 186 0 48 -40 c116 -97 220 -257 271 -414 45 -142 47 -146 64 -146 27 0 28
27 1 120 -48 166 -140 321 -265 444 -48 48 -58 63 -50 77 14 27 11 75 -6 89
-14 12 -14 15 4 34 30 32 41 71 41 141 0 53 -4 69 -24 92 l-24 28 -224 1
c-122 1 -233 0 -245 -3z m461 -69 c10 -27 6 -98 -7 -124 -7 -13 -28 -35 -46
-47 -32 -21 -44 -23 -181 -23 -137 0 -149 2 -181 23 -18 12 -39 34 -46 47 -13
26 -18 122 -6 133 3 4 109 7 234 7 198 0 228 -2 233 -16z m-29 -269 c0 -19 -8
-20 -199 -23 -117 -1 -204 2 -209 7 -5 5 -7 17 -4 26 6 13 32 15 209 13 195
-3 203 -4 203 -23z"/>
<path d="M433 1733 c-7 -2 -13 -16 -13 -29 0 -18 -5 -24 -21 -24 -11 0 -34
-13 -50 -29 -22 -22 -29 -39 -29 -68 0 -82 52 -113 189 -113 95 0 121 -11 121
-50 0 -40 -26 -50 -126 -50 -102 0 -134 10 -134 39 0 22 -25 45 -40 36 -5 -3
-10 -20 -10 -36 0 -36 47 -89 79 -89 14 0 21 -6 21 -19 0 -22 25 -45 40 -36 5
3 10 15 10 26 0 14 7 19 30 19 23 0 30 -5 30 -19 0 -11 5 -23 10 -26 15 -9 40
14 40 36 0 13 7 19 21 19 11 0 34 13 50 29 56 57 30 149 -49 171 -20 5 -72 10
-115 10 -94 0 -117 10 -117 50 0 19 7 33 19 40 22 11 200 14 217 2 6 -4 17
-20 25 -37 19 -40 43 -39 47 3 3 25 -3 39 -27 62 -16 17 -39 30 -50 30 -14 0
-21 6 -21 19 0 22 -25 45 -40 36 -5 -3 -10 -15 -10 -26 0 -29 -57 -27 -62 3
-3 23 -15 30 -35 21z"/>
<path d="M1052 737 c-12 -13 -22 -35 -22 -50 0 -20 -5 -27 -20 -27 -32 0 -67
-21 -79 -47 -12 -25 -16 -390 -5 -431 14 -49 35 -52 424 -52 l361 0 24 25 c16
15 25 36 25 55 0 27 3 30 30 30 20 0 40 9 56 25 l25 25 -3 216 c-3 213 -3 216
-27 235 -22 18 -44 19 -395 19 l-373 0 -21 -23z m756 -39 c8 -8 12 -67 12
-198 0 -192 -4 -210 -42 -210 -17 0 -18 13 -18 159 0 141 -2 161 -19 182 l-19
24 -321 3 c-301 3 -321 4 -321 21 0 10 3 21 7 24 3 4 164 7 358 7 260 0 354
-3 363 -12z m-780 -114 c-5 -25 -35 -41 -49 -27 -18 18 -3 43 26 43 19 0 26
-5 23 -16z m582 -13 c0 -34 39 -71 76 -71 24 0 24 -1 24 -105 0 -104 0 -105
-24 -105 -37 0 -76 -37 -76 -71 l0 -29 -264 0 -263 0 -6 30 c-9 40 -41 70 -77
70 l-30 0 0 105 c0 97 1 105 20 105 47 0 90 41 90 85 0 13 40 15 265 15 l265
0 0 -29z m98 2 c2 -13 -1 -23 -6 -23 -24 0 -42 14 -42 32 0 29 44 20 48 -9z
m-690 -345 c20 -20 14 -38 -12 -38 -28 0 -40 14 -32 35 7 18 28 19 44 3z m690
-10 c-4 -31 -48 -39 -48 -10 0 20 12 30 38 31 8 1 12 -8 10 -21z"/>
<path d="M1295 489 c-34 -20 -55 -52 -55 -87 0 -73 55 -121 123 -108 82 15
110 124 47 181 -23 21 -89 29 -115 14z m76 -49 c29 -16 26 -73 -6 -90 -54 -29
-103 49 -53 84 26 19 33 19 59 6z"/>
</g>
</svg>
