<?xml version="1.0" standalone="no"?>
<!DOCTYPE svg PUBLIC "-//W3C//DTD SVG 20010904//EN"
 "http://www.w3.org/TR/2001/REC-SVG-20010904/DTD/svg10.dtd">
<svg version="1.0" xmlns="http://www.w3.org/2000/svg"
 width="200.000000pt" height="200.000000pt" viewBox="0 0 200.000000 200.000000"
 preserveAspectRatio="xMidYMid meet">
<metadata>
Created by potrace 1.16, written by Peter Selinger 2001-2019
</metadata>
<g transform="translate(0.000000,200.000000) scale(0.100000,-0.100000)"
fill="#000000" stroke="none">
<path d="M1015 1509 c-543 -75 -737 -98 -822 -99 l-113 0 0 -515 0 -515 813 2
812 3 3 92 3 92 32 6 c18 3 63 9 101 15 37 5 70 11 73 13 2 3 -23 226 -56 496
-34 270 -61 496 -61 501 0 17 -52 11 -785 -91z m715 4 c0 -5 23 -194 51 -421
29 -230 47 -417 43 -422 -5 -4 -33 -10 -61 -13 l-53 -6 0 379 0 380 -397 2
-397 3 369 51 c379 53 445 60 445 47z m-100 -613 l0 -430 -735 0 -735 0 0 430
0 430 735 0 735 0 0 -430z"/>
<path d="M420 1240 c0 -92 -49 -143 -147 -156 l-53 -6 2 -187 3 -186 54 -7
c30 -3 66 -15 80 -25 36 -27 61 -80 61 -130 l0 -43 470 0 470 0 0 43 c0 50 25
103 61 130 14 10 50 22 80 25 l54 7 3 186 2 187 -53 6 c-98 13 -147 64 -147
156 l0 40 -470 0 -470 0 0 -40z m876 -91 c17 -59 77 -114 139 -131 l46 -12 -3
-115 -3 -114 -42 -12 c-23 -7 -54 -22 -70 -35 -35 -27 -73 -88 -73 -117 l0
-23 -395 0 c-368 0 -396 1 -401 18 -29 91 -69 134 -146 157 l-43 12 0 113 0
112 52 20 c62 23 117 80 133 138 l11 40 391 -2 391 -3 13 -46z"/>
<path d="M857 1163 c-4 -3 -7 -16 -7 -28 0 -16 -9 -26 -30 -35 -70 -29 -96
-125 -52 -187 25 -36 78 -63 121 -63 28 0 71 -29 71 -48 0 -4 -7 -18 -16 -30
-34 -48 -114 -17 -114 45 0 20 -5 23 -40 23 -37 0 -40 -2 -40 -27 0 -41 36
-106 70 -126 20 -12 30 -26 30 -43 0 -21 4 -24 40 -24 35 0 40 3 40 23 0 15
11 28 35 41 44 24 80 93 70 135 -14 63 -74 111 -139 111 -24 0 -42 7 -56 22
-25 28 -23 45 11 70 44 33 99 3 99 -53 0 -29 2 -30 38 -27 32 3 37 7 40 30 5
40 -27 98 -65 120 -25 15 -33 27 -33 49 0 26 -3 29 -33 29 -19 0 -37 -3 -40
-7z"/>
</g>
</svg>
