<?xml version="1.0" standalone="no"?>
<!DOCTYPE svg PUBLIC "-//W3C//DTD SVG 20010904//EN"
 "http://www.w3.org/TR/2001/REC-SVG-20010904/DTD/svg10.dtd">
<svg version="1.0" xmlns="http://www.w3.org/2000/svg"
 width="200.000000pt" height="200.000000pt" viewBox="0 0 200.000000 200.000000"
 preserveAspectRatio="xMidYMid meet">
<metadata>
Created by potrace 1.16, written by Peter Selinger 2001-2019
</metadata>
<g transform="translate(0.000000,200.000000) scale(0.100000,-0.100000)"
fill="#000000" stroke="none">
<path d="M1116 1964 c-10 -9 -16 -34 -17 -62 l0 -47 -62 -30 c-74 -36 -112
-86 -128 -165 -24 -123 43 -215 206 -284 128 -53 159 -90 121 -142 -21 -28
-162 -26 -229 4 -26 12 -54 19 -62 16 -15 -6 -45 -96 -45 -139 0 -22 8 -30 53
-50 28 -13 71 -26 95 -30 41 -7 42 -7 42 -47 0 -67 12 -78 83 -78 36 0 68 5
75 12 7 7 12 36 12 64 0 51 1 53 34 64 129 42 203 183 162 307 -28 84 -66 119
-203 185 -102 49 -124 63 -129 85 -16 61 73 81 188 42 33 -11 67 -18 74 -15
14 5 44 95 44 133 0 28 -30 48 -98 66 -60 15 -72 27 -72 74 0 22 -6 36 -19 43
-30 16 -107 12 -125 -6z"/>
<path d="M1782 973 c-18 -10 -86 -79 -152 -153 -93 -105 -120 -143 -125 -171
-10 -58 -57 -124 -112 -156 -47 -27 -52 -28 -214 -31 -144 -3 -168 -1 -182 13
-21 21 -22 49 -1 69 13 13 42 16 162 16 167 0 201 10 234 71 22 42 23 71 1
116 -30 64 -65 73 -313 73 -190 0 -223 3 -280 21 -142 46 -302 21 -418 -66
-31 -23 -124 -111 -207 -194 l-149 -150 209 -205 210 -204 60 59 61 59 365 0
c401 0 424 3 499 58 41 30 485 531 521 587 41 64 12 162 -56 191 -45 19 -73
18 -113 -3z"/>
</g>
</svg>
