<?xml version="1.0" standalone="no"?>
<!DOCTYPE svg PUBLIC "-//W3C//DTD SVG 20010904//EN"
 "http://www.w3.org/TR/2001/REC-SVG-20010904/DTD/svg10.dtd">
<svg version="1.0" xmlns="http://www.w3.org/2000/svg"
 width="200.000000pt" height="200.000000pt" viewBox="0 0 200.000000 200.000000"
 preserveAspectRatio="xMidYMid meet">
<metadata>
Created by potrace 1.16, written by Peter Selinger 2001-2019
</metadata>
<g transform="translate(0.000000,200.000000) scale(0.100000,-0.100000)"
fill="#000000" stroke="none">
<path d="M293 1813 c-7 -17 6 -44 89 -185 27 -48 45 -68 59 -68 43 0 35 27
-51 173 l-22 37 376 0 376 0 -16 -24 c-21 -32 -15 -71 10 -71 23 0 87 99 83
130 -2 20 -10 20 -450 23 -414 2 -448 1 -454 -15z"/>
<path d="M899 1621 c-25 -5 -72 -38 -158 -110 l-121 -102 -27 32 c-40 47 -79
59 -190 59 -109 0 -151 -14 -186 -62 -27 -36 -26 -111 0 -147 19 -25 19 -26 0
-59 -26 -45 -26 -105 2 -143 l22 -29 -22 -29 c-27 -37 -28 -98 -2 -143 19 -33
19 -33 0 -66 -39 -67 -19 -144 48 -183 l34 -20 3 -143 c3 -139 4 -144 33 -192
19 -30 49 -60 79 -79 l49 -30 318 -3 c213 -2 332 1 360 8 57 16 133 88 153
147 21 62 22 206 1 223 -12 10 -18 10 -30 0 -11 -9 -15 -34 -15 -94 -1 -120
-31 -176 -113 -211 -30 -12 -89 -15 -339 -15 -340 0 -343 0 -403 74 -30 37
-30 39 -33 177 l-4 139 72 0 c39 0 85 6 103 14 78 33 107 112 67 183 l-22 40
21 34 c26 43 27 84 2 133 -20 37 -20 38 0 76 19 36 23 38 47 29 49 -19 99 -1
182 66 l78 63 42 -43 c53 -54 147 -110 232 -137 l68 -22 2 -205 c3 -243 -1
-237 112 -166 66 41 80 46 123 43 47 -3 48 -4 53 -38 l5 -35 120 -3 c104 -2
121 0 132 15 16 21 19 769 3 793 -7 11 -34 16 -114 18 -121 4 -146 -4 -146
-48 l0 -30 -69 0 -68 0 -153 106 c-84 59 -169 111 -189 115 -42 10 -111 10
-162 0z m156 -61 c15 -6 93 -56 173 -112 l147 -103 80 -5 80 -5 3 -272 2 -273
-60 0 c-49 0 -69 -5 -108 -30 -27 -17 -52 -30 -55 -30 -4 0 -8 84 -9 186 l-3
186 -87 29 c-106 34 -178 78 -240 147 -25 29 -54 52 -63 52 -9 0 -55 -33 -102
-72 -75 -63 -91 -73 -125 -73 -70 0 -112 77 -72 133 25 35 274 240 298 245 42
8 115 7 141 -3z m-514 -149 c23 -28 24 -59 3 -89 -14 -21 -23 -22 -133 -22
-100 0 -120 3 -133 18 -23 27 -28 50 -17 76 18 38 46 46 157 43 96 -2 105 -4
123 -26z m1209 -351 l0 -350 -75 0 -75 0 0 350 0 350 75 0 75 0 0 -350z
m-1210 150 c27 -27 25 -66 -5 -95 -22 -23 -31 -25 -128 -25 -85 0 -109 3 -125
18 -32 26 -37 63 -12 95 21 27 23 27 136 27 101 0 116 -2 134 -20z m-1 -206
c26 -34 27 -68 1 -94 -18 -18 -33 -20 -133 -20 -128 0 -150 11 -150 72 0 55
28 68 153 68 105 0 109 -1 129 -26z m1 -204 c25 -25 26 -61 1 -91 -18 -22 -28
-24 -124 -27 -97 -4 -105 -2 -130 20 -36 33 -41 60 -16 91 20 26 23 27 135 27
101 0 116 -2 134 -20z"/>
<path d="M837 1004 c-4 -4 -7 -27 -7 -51 0 -37 -3 -43 -21 -43 -30 0 -89 -62
-89 -94 0 -36 25 -83 51 -97 12 -6 51 -14 87 -17 72 -8 96 -27 76 -59 -9 -14
-30 -19 -100 -23 -93 -5 -114 -12 -114 -35 0 -20 32 -35 74 -35 34 0 35 -1 38
-42 3 -38 6 -43 28 -43 23 0 25 4 28 48 2 32 7 47 17 47 44 0 95 53 95 100 0
30 -29 76 -55 88 -12 6 -49 13 -81 17 -65 8 -84 18 -84 46 0 28 32 39 118 39
58 0 83 4 92 15 23 28 4 45 -49 45 l-50 0 -3 48 c-2 38 -7 48 -23 50 -12 2
-24 0 -28 -4z"/>
</g>
</svg>
