<?xml version="1.0" standalone="no"?>
<!DOCTYPE svg PUBLIC "-//W3C//DTD SVG 20010904//EN"
 "http://www.w3.org/TR/2001/REC-SVG-20010904/DTD/svg10.dtd">
<svg version="1.0" xmlns="http://www.w3.org/2000/svg"
 width="200.000000pt" height="200.000000pt" viewBox="0 0 200.000000 200.000000"
 preserveAspectRatio="xMidYMid meet">
<metadata>
Created by potrace 1.16, written by Peter Selinger 2001-2019
</metadata>
<g transform="translate(0.000000,200.000000) scale(0.100000,-0.100000)"
fill="#000000" stroke="none">
<path d="M130 1865 c-17 -20 11 -230 34 -253 15 -15 19 -15 47 2 l31 18 132
-131 c72 -72 136 -131 141 -131 13 0 115 102 115 115 0 5 -59 69 -131 141
-130 130 -131 132 -115 155 36 52 17 68 -100 85 -125 17 -139 17 -154 -1z
m158 -41 c64 -7 73 -13 47 -34 -8 -7 -15 -17 -15 -24 0 -6 61 -72 135 -146
l135 -136 -38 -37 -38 -37 -134 135 c-74 74 -140 135 -146 135 -6 0 -17 -7
-24 -15 -21 -25 -27 -17 -34 43 -4 31 -9 75 -13 96 l-6 39 34 -6 c19 -3 62 -9
97 -13z"/>
<path d="M1716 1865 c-54 -8 -95 -20 -105 -30 -15 -14 -15 -18 2 -47 l18 -32
-130 -130 c-72 -72 -131 -136 -131 -141 0 -13 102 -115 115 -115 5 0 69 59
141 131 l130 130 32 -18 c48 -28 61 -8 79 126 21 154 24 151 -151 126z m121
-62 c-4 -21 -9 -64 -13 -95 -7 -60 -13 -68 -34 -43 -7 8 -18 15 -24 15 -6 0
-70 -58 -141 -130 -71 -71 -135 -130 -140 -130 -6 0 -25 15 -43 33 l-32 33
135 134 c74 74 135 140 135 146 0 6 -7 17 -15 24 -26 22 -17 27 63 37 124 16
115 18 109 -24z"/>
<path d="M900 1459 c-117 -23 -254 -125 -312 -235 -153 -285 19 -632 340 -686
305 -51 581 222 534 528 -42 272 -292 446 -562 393z m253 -59 c107 -40 205
-138 248 -247 18 -46 23 -78 23 -153 0 -75 -5 -107 -23 -153 -43 -109 -141
-207 -248 -247 -295 -111 -602 118 -580 432 19 283 313 469 580 368z"/>
<path d="M893 1356 c-104 -34 -185 -106 -232 -205 -22 -48 -26 -69 -26 -151 0
-82 4 -103 26 -150 39 -82 99 -144 177 -182 61 -30 74 -33 162 -33 85 0 101 3
155 29 76 38 149 110 183 184 23 49 27 70 27 152 0 83 -3 102 -28 151 -67 137
-176 210 -320 216 -51 2 -98 -2 -124 -11z m252 -58 c62 -32 130 -103 158 -166
11 -27 22 -77 25 -117 6 -99 -23 -171 -97 -246 -76 -75 -146 -103 -251 -97
-124 8 -219 69 -277 181 -25 46 -28 63 -28 147 0 84 3 101 27 147 44 82 119
145 208 174 14 5 61 7 105 5 62 -2 91 -8 130 -28z"/>
<path d="M983 1253 c-2 -10 -23 -27 -46 -38 -100 -48 -94 -178 10 -221 l33
-14 0 -85 c0 -64 -3 -85 -13 -85 -18 0 -53 39 -66 72 -14 37 -46 28 -36 -11
11 -44 35 -73 76 -90 24 -10 39 -23 39 -33 0 -11 8 -18 20 -18 12 0 20 7 20
18 1 10 17 25 42 37 101 48 96 178 -9 221 l-33 14 0 85 c0 47 3 85 8 85 19 0
54 -34 67 -67 17 -41 42 -40 37 2 -5 41 -37 82 -77 96 -18 7 -36 21 -38 31 -6
23 -27 23 -34 1z m-3 -148 c0 -83 0 -84 -22 -76 -32 12 -62 65 -54 96 8 31 40
65 61 65 12 0 15 -16 15 -85z m106 -176 c8 -16 14 -35 14 -44 0 -18 -52 -75
-69 -75 -7 0 -11 31 -11 85 l0 85 26 -12 c14 -7 32 -24 40 -39z"/>
<path d="M374 499 l-132 -132 -31 19 c-48 28 -60 9 -78 -126 -21 -150 -23
-147 127 -127 135 19 155 31 127 79 l-18 32 130 130 c72 72 131 136 131 141 0
13 -102 115 -115 115 -6 0 -69 -59 -141 -131z m81 -119 c-74 -74 -135 -140
-135 -146 0 -7 7 -17 15 -24 8 -7 15 -16 15 -20 0 -7 -181 -32 -187 -26 -7 6
20 186 28 186 3 0 12 -7 19 -15 7 -8 18 -15 24 -15 6 0 72 61 146 135 l134
135 38 -37 38 -37 -135 -136z"/>
<path d="M1422 577 c-29 -29 -52 -57 -52 -62 0 -5 59 -69 131 -141 l130 -130
-18 -32 c-28 -48 -8 -60 127 -79 150 -20 148 -23 127 127 -18 135 -30 154 -78
126 l-31 -18 -132 131 c-72 72 -136 131 -141 131 -6 0 -34 -24 -63 -53z m344
-257 c7 0 17 7 24 15 7 8 16 15 20 15 6 0 33 -181 27 -187 -6 -6 -187 21 -187
27 0 4 7 13 15 20 8 7 15 18 15 24 0 6 -61 72 -135 146 l-135 134 37 38 37 38
136 -135 c74 -74 140 -135 146 -135z"/>
</g>
</svg>
