<?xml version="1.0" standalone="no"?>
<!DOCTYPE svg PUBLIC "-//W3C//DTD SVG 20010904//EN"
 "http://www.w3.org/TR/2001/REC-SVG-20010904/DTD/svg10.dtd">
<svg version="1.0" xmlns="http://www.w3.org/2000/svg"
 width="200.000000pt" height="200.000000pt" viewBox="0 0 200.000000 200.000000"
 preserveAspectRatio="xMidYMid meet">
<metadata>
Created by potrace 1.16, written by Peter Selinger 2001-2019
</metadata>
<g transform="translate(0.000000,200.000000) scale(0.100000,-0.100000)"
fill="#000000" stroke="none">
<path d="M123 1849 c4 -19 9 -62 13 -97 7 -67 15 -80 34 -57 7 8 20 15 29 15
9 0 77 -61 151 -135 74 -74 140 -135 145 -135 14 0 65 52 65 66 0 5 -61 70
-135 144 -74 74 -135 142 -135 151 0 9 7 22 15 29 23 19 10 27 -57 34 -35 4
-78 9 -97 13 -34 6 -34 6 -28 -28z"/>
<path d="M1768 1866 c-85 -12 -95 -17 -73 -36 8 -7 15 -20 15 -29 0 -9 -61
-77 -135 -151 -74 -74 -135 -140 -135 -145 0 -14 52 -65 66 -65 5 0 70 61 144
135 74 74 142 135 151 135 9 0 22 -7 29 -15 19 -23 27 -10 34 57 4 35 9 78 13
96 6 37 12 36 -109 18z"/>
<path d="M895 1436 c-241 -59 -393 -308 -331 -543 23 -87 57 -145 120 -209 72
-72 144 -109 244 -126 294 -50 565 217 515 507 -45 263 -295 433 -548 371z
m259 -79 c115 -53 204 -167 227 -292 23 -127 -14 -239 -110 -336 -86 -86 -150
-113 -271 -113 -131 0 -231 49 -309 150 -54 71 -75 136 -75 239 -1 82 2 96 31
155 52 106 147 187 252 217 70 20 188 10 255 -20z"/>
<path d="M931 1339 c-102 -20 -204 -100 -247 -194 -89 -193 23 -426 231 -480
181 -47 371 66 420 250 50 188 -79 388 -274 425 -60 11 -69 11 -130 -1z m87
-77 c2 -14 10 -22 24 -22 33 0 98 -72 98 -109 0 -42 -26 -41 -44 3 -13 31 -49
66 -68 66 -5 0 -8 -40 -8 -88 l0 -89 40 -16 c81 -31 107 -136 50 -201 -17 -19
-44 -37 -60 -41 -19 -4 -30 -13 -32 -28 -4 -29 -32 -28 -36 1 -2 14 -10 22
-24 22 -11 0 -38 17 -59 39 -29 29 -39 47 -39 71 0 24 4 31 17 28 10 -2 19
-12 21 -23 5 -25 51 -75 69 -75 10 0 13 22 13 90 0 78 -3 91 -17 96 -70 22
-103 65 -103 133 0 37 6 49 39 82 21 22 48 39 60 39 14 0 21 6 21 18 0 38 33
41 38 4z"/>
<path d="M931 1174 c-23 -19 -31 -34 -31 -59 0 -36 29 -80 60 -88 19 -5 20 -1
20 84 0 49 -4 89 -9 89 -5 0 -23 -12 -40 -26z"/>
<path d="M1020 890 c0 -49 4 -90 9 -90 5 0 23 12 40 26 50 41 40 108 -19 139
l-30 16 0 -91z"/>
<path d="M350 425 c-74 -74 -141 -135 -149 -135 -8 0 -23 7 -33 16 -14 14 -18
14 -22 3 -7 -22 -26 -182 -23 -186 4 -4 165 16 186 23 11 4 11 8 -3 22 -9 10
-16 25 -16 33 0 8 61 75 135 149 74 74 135 140 135 145 0 14 -52 65 -66 65 -5
0 -70 -61 -144 -135z"/>
<path d="M1467 532 c-15 -15 -27 -32 -27 -38 0 -5 61 -70 135 -144 74 -74 135
-141 135 -149 0 -8 -7 -23 -16 -33 -14 -14 -14 -18 -3 -22 18 -6 182 -27 185
-23 3 3 -16 167 -22 186 -4 11 -8 11 -22 -3 -10 -9 -25 -16 -33 -16 -8 0 -75
61 -149 135 -74 74 -140 135 -145 135 -6 0 -23 -13 -38 -28z"/>
</g>
</svg>
