<?xml version="1.0" standalone="no"?>
<!DOCTYPE svg PUBLIC "-//W3C//DTD SVG 20010904//EN"
 "http://www.w3.org/TR/2001/REC-SVG-20010904/DTD/svg10.dtd">
<svg version="1.0" xmlns="http://www.w3.org/2000/svg"
 width="200.000000pt" height="200.000000pt" viewBox="0 0 200.000000 200.000000"
 preserveAspectRatio="xMidYMid meet">
<metadata>
Created by potrace 1.16, written by Peter Selinger 2001-2019
</metadata>
<g transform="translate(0.000000,200.000000) scale(0.100000,-0.100000)"
fill="#000000" stroke="none">
<path d="M863 1648 c-65 -62 -122 -118 -126 -126 -19 -29 1 -42 63 -42 l60 0
0 -234 0 -234 -31 -13 c-64 -26 -136 -95 -185 -177 -1 -2 -16 4 -33 13 l-31
16 0 164 0 165 49 0 c62 0 81 7 81 30 0 20 -246 260 -266 260 -12 0 -252 -222
-267 -246 -14 -24 22 -44 79 -44 l54 0 0 -165 0 -164 -28 -15 c-40 -21 -111
-100 -133 -150 -51 -116 -27 -256 59 -344 77 -79 119 -97 232 -97 106 0 153
16 226 79 l40 34 44 -34 c84 -66 122 -78 250 -78 128 0 166 12 250 78 l43 34
52 -43 c72 -58 137 -79 234 -73 122 7 208 65 263 176 29 58 33 77 33 142 0 62
-5 86 -28 132 -26 52 -115 148 -138 148 -5 0 -9 77 -9 170 l0 170 49 0 c62 0
81 7 81 30 0 20 -246 260 -267 260 -12 0 -249 -221 -266 -248 -16 -24 13 -42
68 -42 l52 0 6 -107 c4 -58 7 -131 7 -162 0 -54 -1 -57 -35 -75 -19 -11 -36
-17 -38 -15 -1 2 -16 24 -32 48 -33 49 -105 110 -154 130 l-31 13 0 234 0 234
60 0 c99 0 94 14 -54 157 -70 68 -136 123 -146 123 -10 0 -71 -50 -137 -112z
m222 -33 c78 -72 79 -74 50 -75 -17 0 -36 -5 -43 -12 -9 -9 -12 -79 -12 -253
l0 -240 -80 0 -80 0 0 240 c0 174 -3 244 -12 253 -7 7 -26 12 -43 12 -29 1
-28 3 50 75 44 41 82 74 85 74 3 0 41 -33 85 -74z m-517 -330 l43 -40 -38 -5
-38 -5 -6 -75 c-4 -41 -7 -122 -8 -180 l-1 -105 -77 1 -78 1 -5 179 -5 179
-39 5 -39 5 83 78 83 78 41 -38 c23 -21 60 -56 84 -78z m1125 -43 c-52 -4 -53
-6 -53 -207 l0 -160 -77 2 -78 2 -5 178 -5 178 -39 5 -39 5 82 78 82 78 86
-78 86 -78 -40 -3z m-549 -295 c67 -31 127 -90 162 -159 21 -41 28 -71 32
-133 6 -113 -20 -179 -103 -262 -52 -51 -72 -64 -129 -82 -84 -26 -127 -26
-205 -2 -149 46 -240 172 -241 331 0 155 98 284 249 327 66 19 170 9 235 -20z
m-572 -160 l46 -27 -10 -37 c-17 -64 -5 -180 27 -250 26 -59 27 -64 11 -87
-22 -35 -93 -74 -155 -86 -110 -21 -220 31 -275 130 -27 48 -31 65 -31 130 0
85 20 133 77 187 55 53 112 74 193 71 55 -3 80 -9 117 -31z m1094 9 c99 -46
162 -156 151 -263 -16 -153 -159 -261 -308 -233 -62 12 -133 51 -155 86 -16
23 -15 28 12 87 24 53 28 75 28 152 1 50 -1 101 -4 114 -4 21 2 28 49 53 70
37 153 39 227 4z"/>
<path d="M977 914 c-4 -4 -7 -19 -7 -33 0 -19 -8 -30 -30 -40 -40 -17 -65 -56
-65 -101 0 -53 24 -82 105 -124 83 -44 102 -71 76 -111 -13 -20 -25 -25 -55
-25 -43 0 -58 13 -67 58 -7 36 -33 50 -50 27 -25 -34 19 -125 68 -141 10 -3
18 -15 18 -28 0 -33 25 -53 45 -36 8 7 15 22 15 34 0 13 11 27 29 38 41 23 66
65 65 110 -2 50 -28 78 -111 120 -36 18 -69 41 -75 51 -16 30 -1 63 33 78 42
17 78 -3 94 -51 12 -35 54 -56 56 -28 5 58 -21 111 -62 129 -21 8 -29 19 -31
42 -2 23 -9 33 -23 35 -12 2 -24 0 -28 -4z"/>
<path d="M427 784 c-4 -4 -7 -14 -7 -21 0 -8 -18 -31 -40 -52 -33 -31 -40 -45
-40 -75 0 -45 26 -73 99 -110 28 -15 51 -33 51 -40 0 -33 -13 -46 -46 -46 -30
0 -35 4 -40 30 -8 40 -29 57 -49 40 -8 -7 -15 -21 -15 -32 0 -29 28 -76 49
-83 11 -3 22 -19 26 -36 5 -24 12 -29 28 -27 13 2 23 11 25 24 2 12 14 27 28
35 30 15 54 57 54 92 0 33 -30 69 -77 92 -53 27 -73 45 -73 65 0 54 81 49 90
-5 4 -24 10 -30 30 -30 48 0 33 82 -19 113 -19 10 -31 27 -33 42 -3 24 -27 38
-41 24z"/>
<path d="M1537 784 c-4 -4 -7 -14 -7 -21 0 -8 -18 -31 -40 -52 -67 -64 -51
-125 47 -177 50 -27 58 -36 58 -60 0 -26 -4 -29 -38 -32 -34 -3 -38 -1 -43 27
-9 43 -30 59 -51 38 -24 -24 -2 -92 37 -112 16 -8 30 -25 32 -37 2 -15 11 -24
26 -26 18 -3 22 1 22 22 0 16 7 27 20 31 30 10 60 54 60 91 0 42 -30 77 -95
112 -51 28 -65 52 -45 77 15 18 54 19 67 3 6 -7 13 -26 17 -41 5 -22 12 -28
29 -25 19 3 22 9 21 43 -1 32 -8 45 -37 70 -19 16 -37 39 -39 50 -3 20 -28 31
-41 19z"/>
</g>
</svg>
