<?xml version="1.0" standalone="no"?>
<!DOCTYPE svg PUBLIC "-//W3C//DTD SVG 20010904//EN"
 "http://www.w3.org/TR/2001/REC-SVG-20010904/DTD/svg10.dtd">
<svg version="1.0" xmlns="http://www.w3.org/2000/svg"
 width="200.000000pt" height="200.000000pt" viewBox="0 0 200.000000 200.000000"
 preserveAspectRatio="xMidYMid meet">
<metadata>
Created by potrace 1.16, written by Peter Selinger 2001-2019
</metadata>
<g transform="translate(0.000000,200.000000) scale(0.100000,-0.100000)"
fill="#000000" stroke="none">
<path d="M915 1640 l-80 -80 32 0 c22 0 36 -6 43 -19 6 -12 10 -114 10 -260
l0 -241 80 0 80 0 0 248 c0 180 3 251 12 260 7 7 26 12 42 12 30 0 29 2 -49
80 -44 44 -82 80 -85 80 -3 0 -41 -36 -85 -80z"/>
<path d="M347 1342 c-42 -43 -77 -81 -77 -85 0 -4 15 -7 34 -7 32 0 34 -2 40
-46 3 -26 6 -110 6 -188 l0 -141 77 0 78 0 5 185 5 185 38 3 c20 2 37 6 37 10
0 7 -104 111 -145 145 -20 16 -23 14 -98 -61z"/>
<path d="M1497 1342 c-42 -42 -77 -81 -77 -85 0 -4 15 -7 34 -7 22 0 36 -6 40
-16 3 -9 6 -92 6 -185 l0 -169 64 0 c35 0 71 -3 80 -6 14 -5 16 13 16 169 0
97 3 182 6 191 4 10 18 16 40 16 19 0 34 3 34 8 0 8 -152 162 -160 162 -3 0
-40 -35 -83 -78z"/>
<path d="M888 967 c-98 -37 -158 -90 -209 -187 -21 -39 -24 -59 -24 -145 0
-89 3 -106 28 -156 32 -66 93 -126 169 -166 46 -24 64 -28 143 -28 82 0 96 3
157 33 74 36 133 96 170 170 19 39 23 63 23 142 0 82 -4 103 -26 151 -33 70
-91 129 -161 165 -44 23 -69 28 -143 31 -59 2 -103 -1 -127 -10z m130 -49 c7
-7 12 -25 12 -40 0 -19 5 -28 16 -28 49 0 104 -114 71 -147 -21 -21 -47 -9
-47 22 0 14 -11 37 -26 52 -20 20 -31 24 -57 19 -36 -7 -57 -30 -57 -61 0 -28
20 -45 98 -84 96 -49 126 -115 82 -186 -11 -18 -33 -38 -50 -45 -22 -9 -30
-19 -32 -43 -2 -27 -7 -32 -28 -32 -21 0 -26 5 -28 32 -2 23 -10 34 -32 43
-39 16 -61 52 -63 103 -2 38 0 42 23 42 19 0 25 -6 31 -34 9 -44 31 -64 69
-63 59 1 91 59 55 96 -9 8 -46 31 -83 51 -82 43 -107 78 -99 139 6 43 51 96
82 96 10 0 15 10 15 28 0 26 15 52 30 52 3 0 11 -5 18 -12z"/>
<path d="M324 802 c-104 -49 -164 -140 -164 -252 0 -112 60 -204 164 -251 99
-45 257 -5 312 79 15 23 14 28 -13 86 -26 57 -28 70 -28 184 l0 123 -45 22
c-63 30 -170 34 -226 9z m124 -24 c7 -7 12 -20 12 -30 0 -10 10 -23 23 -29 43
-19 70 -96 43 -118 -22 -19 -37 -10 -50 29 -9 30 -16 35 -45 38 -20 2 -37 -2
-42 -10 -19 -30 -8 -47 50 -79 78 -41 96 -61 96 -111 0 -33 -7 -46 -38 -74
-20 -19 -37 -40 -37 -48 0 -7 -7 -19 -15 -26 -18 -15 -45 2 -45 30 0 9 -11 22
-25 28 -55 25 -74 138 -22 130 15 -2 23 -11 25 -28 2 -14 9 -31 14 -37 15 -18
63 -16 79 3 18 22 3 43 -57 76 -59 32 -94 71 -94 103 0 40 19 75 50 93 16 9
30 24 30 33 0 15 18 39 30 39 3 0 11 -5 18 -12z"/>
<path d="M1500 813 c-8 -3 -33 -14 -55 -24 l-41 -19 1 -122 c0 -114 -2 -127
-28 -184 -33 -70 -30 -86 26 -128 137 -105 336 -57 413 100 24 48 26 63 22
128 -8 117 -72 205 -177 241 -43 14 -130 19 -161 8z m88 -35 c7 -7 12 -19 12
-27 0 -9 13 -23 29 -33 39 -21 62 -91 39 -114 -19 -20 -48 -8 -48 20 0 12 -5
27 -12 34 -17 17 -63 15 -79 -4 -18 -22 -3 -43 57 -76 61 -33 94 -71 94 -106
0 -35 -33 -88 -59 -97 -12 -3 -21 -14 -21 -24 0 -28 -26 -46 -45 -31 -8 7 -15
20 -15 29 0 9 -15 28 -34 43 -37 29 -54 81 -34 105 18 22 39 11 52 -27 9 -28
17 -36 39 -38 33 -4 57 13 57 39 0 12 -20 29 -59 50 -73 38 -90 56 -98 103 -5
32 -1 40 36 77 22 23 41 47 41 53 0 13 20 36 30 36 3 0 11 -5 18 -12z"/>
</g>
</svg>
