<?xml version="1.0" standalone="no"?>
<!DOCTYPE svg PUBLIC "-//W3C//DTD SVG 20010904//EN"
 "http://www.w3.org/TR/2001/REC-SVG-20010904/DTD/svg10.dtd">
<svg version="1.0" xmlns="http://www.w3.org/2000/svg"
 width="200.000000pt" height="200.000000pt" viewBox="0 0 200.000000 200.000000"
 preserveAspectRatio="xMidYMid meet">
<metadata>
Created by potrace 1.16, written by Peter Selinger 2001-2019
</metadata>
<g transform="translate(0.000000,200.000000) scale(0.100000,-0.100000)"
fill="#000000" stroke="none">
<path d="M935 1664 c-110 -63 -208 -124 -217 -136 -41 -47 -4 -138 57 -138
l25 0 0 -243 c0 -176 3 -246 12 -255 9 -9 83 -12 270 -12 256 0 257 0 293 -24
46 -32 116 -42 175 -27 55 14 86 36 127 89 97 127 12 327 -148 348 l-49 7 0
58 c0 33 3 58 8 58 70 -11 121 84 75 140 -14 16 -414 252 -425 251 -2 -1 -93
-53 -203 -116z m399 -61 c157 -91 186 -111 186 -130 0 -13 -6 -26 -14 -29 -8
-3 -89 38 -181 90 -92 53 -175 96 -185 96 -10 0 -93 -43 -185 -96 -92 -52
-173 -93 -181 -90 -8 3 -14 16 -14 29 0 20 27 39 183 129 100 59 187 107 194
107 6 1 95 -47 197 -106z m-49 -112 l130 -77 3 -76 3 -76 -35 -21 c-51 -32
-94 -85 -107 -133 -11 -41 -8 -114 6 -150 5 -13 2 -18 -9 -18 -14 0 -16 19
-16 153 0 106 -4 157 -12 165 -13 13 -183 17 -212 6 -14 -5 -16 -29 -16 -165
l0 -159 -80 0 -80 0 2 237 3 237 130 77 c72 43 137 77 145 77 8 0 74 -34 145
-77z m-85 -416 l0 -135 -60 0 -60 0 0 135 0 135 60 0 60 0 0 -135z m387 109
c53 -40 68 -71 68 -139 0 -49 -5 -70 -21 -91 -36 -49 -70 -67 -131 -72 -48 -3
-64 0 -92 20 -66 45 -91 105 -77 182 8 43 49 94 91 112 41 20 129 13 162 -12z"/>
<path d="M1473 1180 c-3 -10 -16 -26 -29 -35 -17 -11 -24 -25 -24 -49 0 -36
15 -53 70 -82 32 -17 33 -19 12 -22 -14 -2 -29 3 -36 14 -17 22 -46 12 -46
-16 0 -12 11 -31 25 -44 14 -13 25 -28 25 -34 0 -12 21 -21 38 -15 6 3 12 11
12 18 0 7 11 20 25 29 18 12 25 25 25 50 0 36 -15 53 -70 82 -32 17 -33 19
-12 22 12 2 29 -3 37 -12 9 -8 22 -13 30 -10 24 9 18 52 -9 69 -13 9 -26 25
-29 35 -3 11 -13 20 -22 20 -9 0 -19 -9 -22 -20z"/>
<path d="M655 858 c-16 -6 -44 -21 -62 -34 -18 -14 -53 -33 -79 -44 -47 -21
-47 -21 -65 -1 -19 20 -20 20 -131 -32 -61 -29 -115 -59 -121 -68 -7 -11 18
-71 93 -229 56 -118 106 -219 111 -224 12 -13 241 95 247 117 4 16 28 17 326
17 l323 0 234 134 c168 96 240 143 257 167 59 86 -11 201 -115 187 -25 -4 -93
-36 -179 -86 -180 -105 -170 -102 -178 -53 -5 30 -15 47 -43 68 -36 28 -39 28
-197 31 -119 3 -165 8 -176 18 -44 39 -176 56 -245 32z m212 -80 c39 -26 46
-27 201 -30 179 -3 195 -9 195 -68 0 -59 -16 -64 -201 -70 -146 -4 -167 -7
-170 -22 -6 -32 33 -39 201 -36 l162 3 212 124 c191 111 215 122 240 114 17
-6 32 -21 37 -36 20 -57 5 -71 -232 -208 l-224 -129 -332 0 -333 0 -63 133
c-34 72 -64 137 -66 143 -3 6 14 19 38 29 24 10 57 29 75 42 51 37 73 43 149
40 57 -2 78 -7 111 -29z m-371 -224 c47 -96 84 -180 82 -186 -2 -5 -36 -25
-76 -43 l-72 -34 -79 165 c-44 90 -82 172 -85 182 -5 14 9 25 67 54 39 20 73
37 75 37 2 1 42 -78 88 -175z"/>
</g>
</svg>
