<?xml version="1.0" standalone="no"?>
<!DOCTYPE svg PUBLIC "-//W3C//DTD SVG 20010904//EN"
 "http://www.w3.org/TR/2001/REC-SVG-20010904/DTD/svg10.dtd">
<svg version="1.0" xmlns="http://www.w3.org/2000/svg"
 width="200.000000pt" height="200.000000pt" viewBox="0 0 200.000000 200.000000"
 preserveAspectRatio="xMidYMid meet">
<metadata>
Created by potrace 1.16, written by Peter Selinger 2001-2019
</metadata>
<g transform="translate(0.000000,200.000000) scale(0.100000,-0.100000)"
fill="#000000" stroke="none">
<path d="M526 1781 c-68 -68 -116 -124 -112 -130 4 -6 31 -11 60 -11 59 0 66
-8 66 -80 0 -62 39 -201 76 -271 60 -114 156 -194 263 -218 31 -7 43 -5 52 5
9 11 2 24 -36 65 -82 87 -135 244 -135 398 0 98 2 101 66 101 89 0 84 16 -48
146 -63 63 -119 114 -124 114 -5 0 -63 -54 -128 -119z m209 -21 l80 -80 -42 0
c-28 0 -43 -5 -47 -16 -3 -9 -6 -66 -6 -128 0 -134 23 -236 74 -332 18 -35 30
-64 26 -64 -14 0 -86 57 -114 91 -64 75 -112 216 -124 362 l-7 82 -44 3 -44 3
79 80 c43 43 81 79 84 79 3 0 41 -36 85 -80z"/>
<path d="M1172 1750 c-209 -44 -327 -281 -238 -477 33 -73 103 -143 173 -175
68 -31 208 -31 276 0 70 32 140 102 173 175 76 166 -2 376 -166 451 -62 28
-154 39 -218 26z m204 -73 c110 -56 171 -163 162 -286 -8 -109 -63 -192 -160
-240 -51 -26 -73 -31 -133 -31 -161 0 -281 111 -293 271 -10 143 74 263 218
310 48 16 152 4 206 -24z"/>
<path d="M1134 1636 c-191 -89 -185 -359 11 -452 179 -85 386 82 344 276 -35
162 -204 246 -355 176z m165 -26 c85 -24 151 -110 151 -195 0 -60 -43 -140
-93 -173 -34 -23 -51 -27 -112 -27 -61 0 -78 4 -112 27 -50 33 -93 114 -93
172 1 132 133 232 259 196z"/>
<path d="M1223 1563 c-4 -10 -17 -29 -30 -42 -13 -14 -23 -36 -23 -53 0 -33
39 -78 68 -78 11 0 25 -7 32 -16 11 -12 10 -18 -3 -31 -19 -19 -47 -10 -54 18
-7 26 -37 21 -41 -8 -2 -14 7 -33 22 -48 14 -14 26 -29 26 -33 0 -5 5 -13 11
-19 14 -14 39 -6 39 13 0 7 11 24 25 38 46 46 23 116 -44 131 -35 7 -48 33
-27 53 18 18 46 9 53 -18 3 -11 14 -20 24 -20 27 0 25 46 -4 73 -13 12 -26 30
-30 40 -3 9 -13 17 -22 17 -9 0 -19 -8 -22 -17z"/>
<path d="M670 930 c-47 -11 -87 -58 -95 -112 -3 -24 -5 -173 -3 -333 3 -324 6
-338 72 -369 30 -14 82 -16 403 -16 351 0 369 1 401 20 59 36 62 55 62 402 0
293 -1 315 -20 345 -42 69 -35 68 -430 70 -195 1 -371 -2 -390 -7z m764 -61
c17 -14 26 -30 26 -49 0 -28 -1 -29 -27 -14 -41 21 -728 21 -778 0 -33 -14
-35 -14 -35 5 0 30 18 59 43 69 12 5 185 9 383 9 351 1 362 0 388 -20z m0
-120 c23 -18 26 -28 26 -78 l0 -58 -106 -5 c-102 -5 -106 -6 -137 -36 -27 -27
-32 -40 -35 -95 -5 -82 17 -133 64 -153 20 -8 70 -14 124 -14 l90 0 0 -60 c0
-48 -4 -63 -22 -80 -21 -19 -33 -20 -399 -20 l-378 0 -20 26 c-20 25 -21 39
-21 281 0 265 3 287 43 303 12 5 185 9 383 9 351 1 362 0 388 -20z m26 -289
l0 -100 -97 0 c-124 0 -133 7 -133 101 0 91 12 99 137 99 l93 0 0 -100z"/>
<path d="M1305 490 c-23 -25 -13 -67 20 -82 52 -23 100 46 59 86 -21 22 -57
20 -79 -4z"/>
</g>
</svg>
