<?xml version="1.0" standalone="no"?>
<!DOCTYPE svg PUBLIC "-//W3C//DTD SVG 20010904//EN"
 "http://www.w3.org/TR/2001/REC-SVG-20010904/DTD/svg10.dtd">
<svg version="1.0" xmlns="http://www.w3.org/2000/svg"
 width="200.000000pt" height="200.000000pt" viewBox="0 0 200.000000 200.000000"
 preserveAspectRatio="xMidYMid meet">
<metadata>
Created by potrace 1.16, written by Peter Selinger 2001-2019
</metadata>
<g transform="translate(0.000000,200.000000) scale(0.100000,-0.100000)"
fill="#000000" stroke="none">
<path d="M535 1790 l-110 -110 57 0 c64 0 68 -4 68 -83 0 -77 35 -210 76 -287
55 -106 143 -183 236 -208 l37 -10 -40 51 c-22 28 -49 67 -59 88 -49 94 -80
281 -66 392 l7 56 60 3 59 3 -107 108 -108 107 -110 -110z"/>
<path d="M1153 1736 c-137 -45 -225 -162 -227 -301 -1 -106 24 -167 98 -240
79 -78 134 -99 244 -93 128 7 227 73 281 187 34 74 36 191 4 263 -29 63 -96
134 -158 166 -61 31 -176 40 -242 18z m208 -79 c47 -23 95 -71 122 -121 34
-64 30 -165 -7 -234 -48 -86 -123 -131 -222 -132 -174 -1 -297 161 -249 326
13 44 28 69 68 108 29 29 68 57 87 63 49 17 158 11 201 -10z"/>
<path d="M1193 1626 c-63 -20 -99 -51 -127 -108 -34 -68 -34 -120 2 -189 72
-142 263 -154 357 -21 27 39 30 52 30 117 0 65 -3 78 -30 117 -51 73 -152 109
-232 84z m74 -43 c4 -10 19 -30 35 -45 34 -32 39 -78 8 -78 -13 0 -24 10 -30
26 -13 34 -55 31 -55 -4 0 -19 9 -27 40 -38 72 -24 88 -84 35 -134 -16 -15
-30 -35 -30 -44 0 -22 -29 -20 -37 2 -3 9 -17 26 -30 37 -29 25 -36 78 -11 83
12 2 21 -6 28 -23 13 -35 55 -32 55 4 0 19 -7 27 -32 33 -35 9 -73 50 -73 80
0 11 14 33 30 50 17 16 30 35 30 42 0 29 27 35 37 9z"/>
<path d="M645 898 c-30 -16 -55 -50 -55 -76 0 -22 1 -22 30 -7 43 22 801 22
844 0 16 -9 31 -13 34 -10 9 9 -21 66 -46 85 -24 19 -42 20 -406 20 -258 -1
-387 -4 -401 -12z"/>
<path d="M654 780 c-12 -4 -31 -21 -43 -36 -20 -26 -21 -36 -21 -296 0 -295 3
-315 57 -337 21 -8 135 -11 411 -9 l382 3 27 27 c23 23 28 38 31 93 l4 65 -98
0 c-178 0 -214 26 -214 153 0 75 16 116 52 135 13 7 73 13 138 14 l115 3 3 52
c2 34 -3 63 -13 83 -30 58 -46 60 -447 59 -200 0 -373 -4 -384 -9z"/>
<path d="M1272 540 c-30 -13 -45 -55 -39 -113 7 -79 21 -87 154 -87 l113 0 0
105 0 105 -102 -1 c-57 0 -113 -4 -126 -9z m120 -57 c34 -31 11 -93 -35 -93
-27 0 -57 28 -57 53 0 48 56 73 92 40z"/>
</g>
</svg>
