<?xml version="1.0" standalone="no"?>
<!DOCTYPE svg PUBLIC "-//W3C//DTD SVG 20010904//EN"
 "http://www.w3.org/TR/2001/REC-SVG-20010904/DTD/svg10.dtd">
<svg version="1.0" xmlns="http://www.w3.org/2000/svg"
 width="200.000000pt" height="200.000000pt" viewBox="0 0 200.000000 200.000000"
 preserveAspectRatio="xMidYMid meet">
<metadata>
Created by potrace 1.16, written by Peter Selinger 2001-2019
</metadata>
<g transform="translate(0.000000,200.000000) scale(0.100000,-0.100000)"
fill="#000000" stroke="none">
<path d="M1190 1863 c-26 -9 -470 -457 -470 -474 0 -23 22 -39 65 -46 37 -6
37 -5 231 188 l194 194 194 -194 194 -194 42 6 c43 5 60 19 60 47 0 20 -449
466 -475 473 -11 3 -27 3 -35 0z"/>
<path d="M1017 1472 l-187 -188 2 -209 3 -210 375 0 375 0 3 210 2 209 -187
188 c-103 103 -190 188 -193 188 -3 0 -90 -85 -193 -188z m303 -33 c164 -74
208 -285 87 -416 -62 -67 -107 -87 -197 -87 -90 0 -135 20 -197 86 -49 54 -67
103 -66 183 0 145 113 255 263 255 44 0 80 -7 110 -21z"/>
<path d="M1125 1406 c-85 -37 -135 -113 -135 -206 0 -71 26 -126 80 -172 141
-121 360 -19 360 167 0 132 -91 225 -220 224 -30 0 -68 -6 -85 -13z m105 -64
c0 -11 11 -24 24 -30 28 -12 43 -49 27 -65 -8 -8 -17 -5 -34 11 -28 26 -50 28
-68 6 -11 -14 -10 -18 6 -30 10 -8 24 -14 31 -14 7 0 26 -12 43 -26 41 -35 42
-75 2 -105 -16 -12 -32 -30 -34 -40 -6 -24 -26 -25 -34 -1 -4 9 -19 29 -35 44
-30 28 -37 58 -13 58 8 0 24 -9 35 -20 24 -24 30 -25 56 -5 19 15 19 15 -5 35
-13 11 -29 20 -36 20 -22 0 -65 48 -65 74 0 14 11 34 28 48 15 13 31 31 35 41
9 23 37 22 37 -1z"/>
<path d="M136 744 c-3 -8 -6 -129 -6 -269 0 -203 3 -255 14 -264 9 -8 55 -11
137 -9 l124 3 0 275 0 275 -131 3 c-113 2 -132 0 -138 -14z"/>
<path d="M555 687 l-100 -22 -3 -177 -2 -178 40 0 c61 0 177 -26 308 -70 287
-96 411 -118 547 -99 65 9 384 96 467 128 15 6 34 24 43 42 14 26 15 36 4 60
-14 35 -45 59 -74 59 -11 0 -119 -27 -240 -60 -145 -39 -239 -60 -275 -60 -58
0 -293 59 -313 79 -8 8 -8 14 0 22 9 9 46 2 146 -25 158 -42 177 -43 204 -13
31 33 36 62 18 97 -19 37 -22 38 -206 86 -139 36 -145 39 -181 79 -21 24 -56
50 -78 59 -56 22 -181 19 -305 -7z"/>
<path d="M1362 605 l-57 -54 24 -17 c13 -9 30 -33 38 -52 l15 -36 59 61 c65
67 74 98 39 133 -32 32 -57 24 -118 -35z"/>
<path d="M1469 473 c-54 -53 -97 -98 -95 -100 9 -9 272 69 284 84 33 45 -2
113 -59 113 -27 0 -48 -16 -130 -97z"/>
</g>
</svg>
