<?xml version="1.0" standalone="no"?>
<!DOCTYPE svg PUBLIC "-//W3C//DTD SVG 20010904//EN"
 "http://www.w3.org/TR/2001/REC-SVG-20010904/DTD/svg10.dtd">
<svg version="1.0" xmlns="http://www.w3.org/2000/svg"
 width="200.000000pt" height="200.000000pt" viewBox="0 0 200.000000 200.000000"
 preserveAspectRatio="xMidYMid meet">
<metadata>
Created by potrace 1.16, written by Peter Selinger 2001-2019
</metadata>
<g transform="translate(0.000000,200.000000) scale(0.100000,-0.100000)"
fill="#000000" stroke="none">
<path d="M939 1643 c-120 -119 -223 -229 -230 -245 -17 -41 13 -82 64 -86 l37
-3 0 -223 c0 -159 3 -225 12 -234 17 -17 749 -17 766 0 9 9 12 75 12 235 l0
223 34 0 c36 0 76 36 76 68 0 9 -104 121 -232 249 l-232 233 -45 0 -45 0 -217
-217z m500 -47 c125 -125 211 -218 207 -225 -4 -6 -19 -11 -34 -11 -21 0 -65
38 -212 185 -103 102 -190 185 -196 185 -5 0 -92 -83 -194 -185 -164 -164
-188 -185 -217 -185 -20 0 -33 5 -33 12 0 22 423 438 445 438 13 0 97 -77 234
-214z m101 -483 l0 -213 -335 0 -335 0 0 212 0 213 167 167 168 168 167 -167
168 -168 0 -212z"/>
<path d="M1115 1465 c-186 -69 -229 -312 -80 -443 125 -110 319 -72 397 77 31
59 37 133 16 203 -15 50 -79 123 -131 150 -53 27 -148 33 -202 13z m181 -64
c98 -45 141 -173 92 -271 -62 -122 -214 -155 -314 -68 -115 101 -94 272 41
342 41 22 130 20 181 -3z"/>
<path d="M1183 1373 c-4 -10 -20 -28 -35 -41 -20 -17 -28 -33 -28 -56 0 -37
24 -62 83 -89 21 -10 37 -23 34 -30 -7 -21 -44 -19 -66 4 -23 25 -51 19 -51
-11 0 -21 33 -60 50 -60 6 0 10 -9 10 -20 0 -25 38 -27 47 -3 4 10 20 28 35
41 51 43 32 99 -44 137 -49 23 -58 40 -27 50 17 6 27 2 41 -15 21 -26 52 -23
56 7 2 14 -6 29 -27 44 -16 12 -32 30 -34 40 -6 24 -35 25 -44 2z"/>
<path d="M194 823 c-12 -2 -30 -13 -40 -25 -18 -18 -19 -41 -19 -290 l0 -270
24 -19 c20 -17 40 -19 155 -19 126 0 134 1 154 23 12 13 22 35 22 50 0 23 4
27 31 27 49 0 163 -28 329 -82 348 -111 420 -110 814 11 71 22 141 48 155 59
14 10 32 37 39 60 13 38 12 46 -8 86 -26 55 -74 81 -131 72 l-39 -6 0 36 c0
28 -8 44 -34 70 -29 29 -41 34 -80 34 -40 0 -47 3 -61 30 -19 37 -43 50 -95
50 -37 0 -48 -6 -104 -60 -35 -33 -68 -60 -74 -60 -6 0 -61 14 -122 30 -96 26
-115 35 -142 66 -74 84 -178 101 -365 61 -110 -23 -113 -23 -113 -5 0 34 -19
57 -58 68 -35 9 -194 12 -238 3z m244 -293 c1 -129 0 -245 -3 -258 -5 -22 -8
-23 -123 -20 l-117 3 -3 245 c-1 134 0 250 3 258 3 10 33 12 122 10 l118 -3 3
-235z m427 176 c19 -8 52 -33 72 -56 36 -38 46 -42 188 -80 158 -42 185 -57
185 -107 0 -25 -40 -73 -61 -73 -7 0 -70 16 -142 36 -71 19 -135 33 -143 30
-8 -3 -14 -14 -14 -24 0 -16 20 -25 118 -52 181 -51 187 -51 430 14 117 31
226 56 242 56 60 0 93 -76 51 -114 -20 -19 -341 -118 -439 -136 -131 -24 -224
-11 -479 69 -172 54 -238 71 -345 86 l-38 6 0 158 0 158 93 21 c111 24 234 28
282 8z m569 -42 c49 -19 37 -70 -32 -137 l-39 -38 -13 31 c-7 17 -21 37 -32
44 -18 13 -17 16 29 60 49 46 59 51 87 40z m176 -94 c25 -25 26 -54 2 -78 -17
-17 -228 -80 -237 -70 -3 2 33 41 79 86 90 88 118 100 156 62z"/>
</g>
</svg>
