<?xml version="1.0" standalone="no"?>
<!DOCTYPE svg PUBLIC "-//W3C//DTD SVG 20010904//EN"
 "http://www.w3.org/TR/2001/REC-SVG-20010904/DTD/svg10.dtd">
<svg version="1.0" xmlns="http://www.w3.org/2000/svg"
 width="200.000000pt" height="200.000000pt" viewBox="0 0 200.000000 200.000000"
 preserveAspectRatio="xMidYMid meet">
<metadata>
Created by potrace 1.16, written by Peter Selinger 2001-2019
</metadata>
<g transform="translate(0.000000,200.000000) scale(0.100000,-0.100000)"
fill="#000000" stroke="none">
<path d="M260 1711 c-84 -26 -160 -101 -184 -182 -23 -77 -24 -979 -1 -1056
18 -60 80 -135 139 -166 l41 -22 724 -3 c812 -3 780 -5 864 69 25 21 56 61 69
87 l23 47 0 515 c0 574 3 548 -71 630 -21 23 -56 51 -78 63 -41 22 -42 22
-771 24 -401 1 -741 -2 -755 -6z m818 -153 c-3 -28 -18 -45 -101 -111 l-97
-78 0 -369 0 -369 98 -78 c82 -66 97 -83 100 -111 l3 -32 -396 0 c-438 0 -435
0 -474 63 -21 34 -21 44 -21 528 0 467 1 496 19 523 10 15 32 37 47 47 27 18
54 19 427 19 l398 0 -3 -32z m667 12 c46 -29 65 -74 65 -159 l0 -71 -113 0
c-141 0 -193 -16 -242 -73 -19 -22 -40 -57 -45 -76 -14 -50 -13 -340 1 -382
19 -56 59 -100 113 -125 45 -21 66 -24 169 -24 l117 0 0 -71 c0 -85 -19 -130
-65 -159 -30 -19 -49 -20 -289 -20 l-256 0 0 60 c0 69 2 66 -125 166 l-75 59
0 305 0 305 75 59 c127 100 125 97 125 166 l0 60 256 0 c240 0 259 -1 289 -20z
m65 -570 l0 -210 -117 0 c-167 0 -163 -6 -163 209 0 217 -4 211 162 211 l118
0 0 -210z"/>
<path d="M418 1133 c-49 -48 -91 -97 -94 -109 -8 -33 3 -60 32 -73 28 -12 52
-4 92 32 l22 20 0 -91 c0 -79 3 -95 20 -112 24 -24 48 -25 78 -4 20 14 22 23
22 111 l0 95 23 -16 c69 -50 64 -48 94 -34 21 10 29 21 31 47 3 31 -4 42 -90
128 -65 66 -100 93 -117 93 -16 0 -51 -27 -113 -87z"/>
<path d="M1626 1094 c-12 -11 -16 -36 -16 -94 0 -88 12 -110 60 -110 48 0 60
22 60 110 0 88 -12 110 -60 110 -16 0 -36 -7 -44 -16z"/>
</g>
</svg>
