<?xml version="1.0" standalone="no"?>
<!DOCTYPE svg PUBLIC "-//W3C//DTD SVG 20010904//EN"
 "http://www.w3.org/TR/2001/REC-SVG-20010904/DTD/svg10.dtd">
<svg version="1.0" xmlns="http://www.w3.org/2000/svg"
 width="200.000000pt" height="200.000000pt" viewBox="0 0 200.000000 200.000000"
 preserveAspectRatio="xMidYMid meet">
<metadata>
Created by potrace 1.16, written by Peter Selinger 2001-2019
</metadata>
<g transform="translate(0.000000,200.000000) scale(0.100000,-0.100000)"
fill="#000000" stroke="none">
<path d="M822 1714 c-200 -192 -202 -198 -64 -202 l92 -3 0 -69 0 -70 -47 29
c-63 38 -123 57 -205 66 l-67 7 -3 72 c-3 63 -5 71 -24 74 -29 4 -316 -252
-312 -278 3 -18 290 -280 306 -280 22 0 32 30 32 92 l0 68 33 0 c85 0 164 -50
198 -125 26 -56 24 -89 -4 -102 -13 -6 -48 -34 -80 -63 -107 -97 -162 -256
-140 -399 36 -235 228 -401 463 -401 231 0 420 160 461 391 30 168 -59 373
-200 459 -47 29 -51 52 -22 115 34 75 113 125 199 125 l32 0 0 -68 c0 -62 10
-92 31 -92 16 0 304 263 307 280 4 26 -283 282 -312 278 -19 -3 -21 -11 -24
-74 l-3 -72 -67 -7 c-79 -8 -161 -35 -214 -70 l-38 -25 0 69 0 70 93 3 c137 4
135 10 -65 202 -89 86 -170 156 -178 156 -8 0 -89 -70 -178 -156z m298 -29
l114 -114 -70 -3 -69 -3 -3 -123 c-3 -122 -3 -124 -37 -173 -18 -27 -37 -58
-40 -69 -8 -26 -22 -26 -30 0 -3 11 -22 42 -40 69 -34 49 -34 51 -37 173 l-3
123 -69 3 -70 3 114 114 c63 63 117 115 120 115 3 0 57 -52 120 -115z m-632
-274 c9 -5 56 -11 103 -13 102 -5 169 -33 248 -104 51 -46 105 -138 117 -200
6 -30 4 -32 -33 -38 -21 -4 -48 -10 -60 -13 -18 -4 -23 -1 -23 14 0 35 -51
122 -92 158 -55 47 -120 67 -205 63 l-68 -3 -3 -52 c-2 -29 -5 -53 -8 -53 -8
0 -192 164 -193 171 -1 3 43 45 97 93 l97 87 3 -51 c2 -35 8 -53 20 -59z
m1182 -10 c36 -33 63 -61 60 -63 -3 -2 -46 -41 -96 -86 -51 -45 -94 -82 -97
-82 -3 0 -7 24 -9 53 l-3 52 -68 3 c-86 4 -150 -16 -207 -65 -42 -36 -90 -119
-90 -157 0 -14 -5 -17 -22 -13 -13 3 -40 9 -61 13 -38 6 -39 7 -32 43 11 59
65 149 119 198 75 68 143 96 246 101 112 6 120 10 120 73 l0 51 38 -31 c20
-17 66 -57 102 -90z m-507 -438 c269 -127 324 -465 107 -666 -83 -77 -147
-101 -270 -101 -125 0 -188 24 -274 105 -230 215 -147 572 159 682 78 28 192
19 278 -20z"/>
<path d="M977 934 c-4 -4 -7 -20 -7 -35 0 -22 -6 -29 -27 -34 -59 -13 -113
-81 -113 -140 0 -86 62 -147 162 -161 26 -4 60 -15 77 -25 55 -33 54 -105 -2
-139 -69 -43 -157 -13 -177 60 -9 34 -15 41 -33 38 -33 -5 -35 -60 -4 -107 23
-34 78 -71 106 -71 6 0 11 -13 11 -29 0 -37 24 -59 45 -41 8 7 15 25 15 40 0
22 6 29 26 34 39 10 81 45 99 82 47 99 -20 201 -144 218 -88 12 -133 58 -117
121 8 33 61 65 106 65 47 0 98 -32 106 -67 11 -50 14 -54 36 -51 19 2 24 10
26 40 3 32 -3 44 -38 82 -23 25 -54 48 -70 51 -23 5 -29 12 -32 38 -2 23 -9
33 -23 35 -12 2 -24 0 -28 -4z"/>
</g>
</svg>
