<?xml version="1.0" standalone="no"?>
<!DOCTYPE svg PUBLIC "-//W3C//DTD SVG 20010904//EN"
 "http://www.w3.org/TR/2001/REC-SVG-20010904/DTD/svg10.dtd">
<svg version="1.0" xmlns="http://www.w3.org/2000/svg"
 width="200.000000pt" height="200.000000pt" viewBox="0 0 200.000000 200.000000"
 preserveAspectRatio="xMidYMid meet">
<metadata>
Created by potrace 1.16, written by Peter Selinger 2001-2019
</metadata>
<g transform="translate(0.000000,200.000000) scale(0.100000,-0.100000)"
fill="#000000" stroke="none">
<path d="M508 1872 c-28 -12 -348 -334 -354 -356 -2 -12 -3 -307 -2 -656 3
-706 1 -679 71 -717 30 -17 82 -18 742 -18 696 0 711 0 745 20 19 12 43 36 52
54 9 19 28 46 43 61 14 14 30 42 35 61 13 43 13 810 1 863 -5 21 -21 50 -35
65 l-26 27 0 250 c0 229 -2 252 -20 281 -43 71 -9 68 -655 70 -319 1 -588 -1
-597 -5z m1183 -81 c24 -19 24 -21 27 -260 l3 -240 -318 -3 c-287 -3 -321 -5
-345 -21 -57 -39 -58 -45 -58 -514 0 -387 2 -431 18 -463 33 -67 50 -70 387
-70 266 -1 298 -2 281 -15 -17 -13 -120 -15 -723 -15 l-702 0 -21 22 c-20 21
-20 32 -20 650 l0 627 158 3 157 3 3 158 3 157 563 0 c540 0 565 -1 587 -19z
m-1211 -136 l0 -105 -107 0 -108 0 105 105 c58 58 106 105 107 105 2 0 3 -47
3 -105z m1284 -457 c14 -19 16 -79 16 -443 0 -364 -2 -424 -16 -443 -15 -22
-16 -22 -343 -22 -241 0 -330 3 -339 12 -9 9 -12 122 -12 447 0 390 2 436 17
453 15 17 39 18 339 18 322 0 323 0 338 -22z"/>
<path d="M763 1773 c-7 -2 -15 -20 -19 -39 -4 -21 -12 -34 -21 -34 -8 0 -30
-15 -49 -34 -26 -26 -34 -42 -34 -70 0 -76 35 -110 128 -127 66 -13 82 -23 82
-54 0 -71 -142 -74 -152 -2 -2 16 -10 22 -28 22 -21 0 -26 -5 -28 -33 -3 -26
3 -39 31 -67 19 -19 41 -35 49 -35 8 0 18 -15 23 -32 8 -26 15 -33 35 -33 20
0 26 6 28 30 3 24 11 34 42 48 25 12 44 30 55 54 16 33 16 42 4 77 -18 50 -50
73 -118 86 -84 16 -114 56 -72 94 13 12 32 16 62 14 38 -3 47 -8 68 -40 13
-21 32 -38 42 -38 22 0 32 30 20 62 -11 29 -66 78 -87 78 -9 0 -14 10 -14 28
0 15 -5 33 -12 40 -13 13 -16 13 -35 5z"/>
<path d="M944 1665 c-4 -8 -4 -22 0 -30 5 -13 50 -15 353 -13 l348 3 0 25 0
25 -348 3 c-303 2 -348 0 -353 -13z"/>
<path d="M944 1535 c-4 -8 -4 -22 0 -30 5 -13 50 -15 353 -13 l348 3 0 25 0
25 -348 3 c-303 2 -348 0 -353 -13z"/>
<path d="M944 1405 c-4 -8 -4 -22 0 -30 5 -13 50 -15 353 -13 l348 3 0 25 0
25 -348 3 c-303 2 -348 0 -353 -13z"/>
<path d="M294 1145 c-9 -23 3 -45 25 -45 10 0 21 7 25 15 8 23 -4 45 -25 45
-11 0 -22 -7 -25 -15z"/>
<path d="M424 1145 c-4 -8 -4 -22 0 -30 5 -13 38 -15 238 -13 l233 3 0 25 0
25 -233 3 c-200 2 -233 0 -238 -13z"/>
<path d="M294 1016 c-10 -26 4 -48 28 -44 17 2 23 10 23 28 0 18 -6 26 -23 28
-13 2 -25 -3 -28 -12z"/>
<path d="M424 1015 c-4 -8 -4 -22 0 -30 5 -13 38 -15 238 -13 l233 3 0 25 0
25 -233 3 c-200 2 -233 0 -238 -13z"/>
<path d="M292 888 c-14 -14 2 -48 22 -48 20 0 37 25 30 44 -7 19 -35 21 -52 4z"/>
<path d="M424 885 c-4 -8 -4 -22 0 -30 5 -13 38 -15 238 -13 l233 3 0 25 0 25
-233 3 c-200 2 -233 0 -238 -13z"/>
<path d="M294 756 c-10 -26 4 -48 28 -44 17 2 23 10 23 28 0 18 -6 26 -23 28
-13 2 -25 -3 -28 -12z"/>
<path d="M424 755 c-4 -8 -4 -22 0 -30 5 -13 38 -15 238 -13 l233 3 0 25 0 25
-233 3 c-200 2 -233 0 -238 -13z"/>
<path d="M291 622 c-12 -22 3 -42 30 -42 23 0 32 15 24 40 -8 25 -41 26 -54 2z"/>
<path d="M424 625 c-4 -8 -4 -22 0 -30 5 -13 38 -15 238 -13 l233 3 0 25 0 25
-233 3 c-200 2 -233 0 -238 -13z"/>
<path d="M294 495 c-4 -8 -4 -22 0 -30 5 -13 45 -15 303 -13 l298 3 0 25 0 25
-298 3 c-258 2 -298 0 -303 -13z"/>
<path d="M294 365 c-4 -8 -4 -22 0 -30 8 -23 611 -23 620 0 3 8 3 22 0 30 -9
23 -612 23 -620 0z"/>
<path d="M1122 1168 c-14 -14 -17 -245 -4 -266 7 -9 75 -12 308 -10 l299 3 3
134 c2 101 -1 136 -10 143 -22 13 -582 10 -596 -4z m548 -138 l0 -80 -245 0
-245 0 0 80 0 80 245 0 245 0 0 -80z"/>
<path d="M1122 858 c-7 -7 -12 -40 -12 -78 0 -38 5 -71 12 -78 7 -7 40 -12 78
-12 38 0 71 5 78 12 16 16 16 140 0 156 -7 7 -40 12 -78 12 -38 0 -71 -5 -78
-12z m98 -78 c0 -13 -7 -20 -20 -20 -13 0 -20 7 -20 20 0 13 7 20 20 20 13 0
20 -7 20 -20z"/>
<path d="M1340 851 c-16 -31 -13 -127 6 -145 19 -19 134 -22 152 -4 7 7 12 40
12 78 0 38 -5 71 -12 78 -7 7 -40 12 -80 12 -56 0 -69 -3 -78 -19z m110 -71
c0 -15 -7 -20 -25 -20 -18 0 -25 5 -25 20 0 15 7 20 25 20 18 0 25 -5 25 -20z"/>
<path d="M1573 864 c-17 -7 -18 -145 -1 -162 14 -14 126 -16 146 -3 9 5 12 30
10 87 l-3 79 -70 2 c-38 1 -76 -1 -82 -3z m97 -84 c0 -15 -7 -20 -25 -20 -18
0 -25 5 -25 20 0 15 7 20 25 20 18 0 25 -5 25 -20z"/>
<path d="M1133 670 c-21 -8 -23 -16 -23 -74 0 -96 0 -96 84 -96 43 0 77 5 84
12 14 14 16 126 3 147 -11 18 -115 25 -148 11z m87 -85 c0 -18 -5 -25 -20 -25
-15 0 -20 7 -20 25 0 18 5 25 20 25 15 0 20 -7 20 -25z"/>
<path d="M1359 673 c-20 -5 -29 -33 -29 -94 0 -71 12 -80 100 -77 l75 3 3 75
c2 62 0 77 -14 87 -17 12 -99 16 -135 6z m89 -85 c-2 -15 -11 -24 -25 -26 -19
-3 -23 1 -23 22 0 21 5 26 26 26 21 0 25 -4 22 -22z"/>
<path d="M1582 670 c-21 -9 -23 -14 -20 -87 l3 -78 80 0 80 0 3 75 c2 62 0 77
-14 87 -20 15 -98 16 -132 3z m88 -85 c0 -20 -5 -25 -25 -25 -20 0 -25 5 -25
25 0 20 5 25 25 25 20 0 25 -5 25 -25z"/>
<path d="M1122 468 c-7 -7 -12 -40 -12 -78 0 -38 5 -71 12 -78 7 -7 40 -12 78
-12 38 0 71 5 78 12 7 7 12 40 12 78 0 38 -5 71 -12 78 -7 7 -40 12 -78 12
-38 0 -71 -5 -78 -12z m98 -78 c0 -13 -7 -20 -20 -20 -13 0 -20 7 -20 20 0 13
7 20 20 20 13 0 20 -7 20 -20z"/>
<path d="M1340 461 c-16 -31 -13 -127 6 -145 19 -19 134 -22 152 -4 7 7 12 40
12 78 0 38 -5 71 -12 78 -7 7 -40 12 -80 12 -56 0 -69 -3 -78 -19z m110 -71
c0 -15 -7 -20 -25 -20 -18 0 -25 5 -25 20 0 15 7 20 25 20 18 0 25 -5 25 -20z"/>
<path d="M1573 474 c-17 -7 -18 -145 -1 -162 14 -14 126 -16 146 -3 9 5 12 30
10 87 l-3 79 -70 2 c-38 1 -76 -1 -82 -3z m97 -84 c0 -15 -7 -20 -25 -20 -18
0 -25 5 -25 20 0 15 7 20 25 20 18 0 25 -5 25 -20z"/>
</g>
</svg>
