<?xml version="1.0" standalone="no"?>
<!DOCTYPE svg PUBLIC "-//W3C//DTD SVG 20010904//EN"
 "http://www.w3.org/TR/2001/REC-SVG-20010904/DTD/svg10.dtd">
<svg version="1.0" xmlns="http://www.w3.org/2000/svg"
 width="200.000000pt" height="200.000000pt" viewBox="0 0 200.000000 200.000000"
 preserveAspectRatio="xMidYMid meet">
<metadata>
Created by potrace 1.16, written by Peter Selinger 2001-2019
</metadata>
<g transform="translate(0.000000,200.000000) scale(0.100000,-0.100000)"
fill="#000000" stroke="none">
<path d="M1023 1843 c-40 -24 -63 -44 -63 -55 0 -10 3 -18 7 -18 17 0 162 93
157 101 -10 17 -39 9 -101 -28z"/>
<path d="M682 1838 c-7 -7 -12 -33 -12 -59 0 -39 -5 -51 -26 -68 -14 -11 -34
-23 -45 -26 -29 -9 -23 -22 16 -35 31 -10 40 -9 84 16 47 27 49 30 54 78 2 28
7 58 11 67 5 12 1 18 -17 23 -14 3 -31 8 -39 11 -7 3 -19 0 -26 -7z"/>
<path d="M1053 1784 c-51 -30 -93 -62 -93 -70 0 -19 -2 -19 76 26 38 22 74 40
81 40 10 0 13 -95 13 -456 0 -405 2 -455 15 -444 13 11 15 77 15 486 0 261 -3
474 -7 474 -5 -1 -50 -26 -100 -56z"/>
<path d="M790 1791 c-5 -11 -10 -40 -10 -65 0 -44 -1 -46 -57 -79 l-58 -33 -3
-78 -3 -78 48 27 c26 16 90 52 141 82 l92 54 0 70 c0 38 -4 69 -9 69 -5 0 -28
-11 -52 -24 -24 -14 -46 -23 -51 -20 -4 3 -8 25 -8 50 0 46 -12 57 -30 25z"/>
<path d="M850 1780 c0 -23 4 -24 31 -9 23 12 16 29 -12 29 -12 0 -19 -7 -19
-20z"/>
<path d="M1025 1701 c-52 -33 -60 -42 -63 -72 -3 -33 -10 -38 -158 -122 -84
-49 -158 -86 -164 -82 -5 3 -10 13 -10 21 0 21 -8 18 -85 -29 l-70 -42 -3
-579 c-1 -318 2 -576 6 -574 5 1 81 46 170 98 154 90 162 96 162 126 0 49 55
85 153 99 47 7 47 7 47 46 l0 40 -29 -16 c-16 -8 -80 -44 -141 -80 -109 -63
-140 -75 -140 -56 0 5 71 50 159 101 151 87 159 93 176 135 9 24 27 60 41 80
l24 36 0 454 c0 250 -3 455 -7 454 -5 0 -35 -17 -68 -38z m24 -205 c-2 -2 -78
-47 -169 -100 -103 -60 -168 -92 -174 -86 -5 5 -8 12 -5 14 2 2 78 47 169 100
103 60 168 92 174 86 5 -5 8 -12 5 -14z m-7 -111 c2 -12 -308 -195 -329 -195
-8 0 -13 5 -11 10 4 13 319 199 331 196 5 -1 9 -6 9 -11z m7 -139 c-2 -2 -75
-45 -161 -95 -145 -84 -188 -103 -188 -83 0 15 335 201 344 192 5 -5 8 -12 5
-14z m-381 7 c-19 -43 -70 -133 -74 -133 -15 0 -64 43 -64 56 0 18 5 18 35 -2
24 -15 24 -15 50 35 14 29 32 51 41 51 9 0 14 -3 12 -7z m374 -118 c2 -12
-308 -195 -329 -195 -8 0 -13 5 -11 10 4 13 319 199 331 196 5 -1 9 -6 9 -11z
m6 -117 c-5 -14 -316 -197 -336 -198 -36 -1 8 32 154 117 156 90 190 106 182
81z m-413 -79 c-20 -38 -38 -69 -41 -69 -13 0 -64 45 -64 57 0 17 6 16 34 -2
21 -14 23 -13 46 28 31 56 41 68 51 61 5 -3 -7 -36 -26 -75z m415 -38 c0 -16
-333 -202 -343 -192 -7 7 3 18 28 33 267 160 315 184 315 159z m-1 -125 c-2
-2 -78 -47 -169 -100 -103 -60 -168 -92 -174 -86 -5 5 -8 12 -5 14 2 2 78 47
169 100 103 60 168 92 174 86 5 -5 8 -12 5 -14z m-386 -2 c10 -11 -56 -134
-73 -134 -19 1 -60 34 -60 49 0 15 12 14 36 -3 19 -14 22 -12 50 40 29 53 35
60 47 48z m1 -242 c6 -10 -56 -125 -70 -129 -16 -5 -71 43 -61 53 4 5 17 3 27
-4 28 -17 27 -17 55 38 24 48 38 60 49 42z"/>
<path d="M550 1625 c0 -17 9 -19 28 -6 11 7 10 10 -3 15 -23 9 -25 8 -25 -9z"/>
<path d="M483 1532 l-132 -77 -1 -661 c0 -595 2 -662 16 -668 9 -3 18 -6 20
-6 2 0 4 294 4 654 l0 654 120 69 c96 55 119 72 120 91 0 12 -3 22 -7 21 -5 0
-67 -35 -140 -77z"/>
<path d="M518 1472 l-97 -57 -1 -648 c0 -614 1 -647 18 -638 155 88 367 219
370 229 7 24 -21 11 -174 -79 -85 -50 -162 -92 -172 -93 -16 -1 -17 37 -17
603 l0 605 93 54 c50 30 92 60 92 68 0 20 -5 18 -112 -44z"/>
<path d="M1287 1161 c-62 -13 -50 -16 58 -16 57 0 98 3 92 6 -21 12 -111 17
-150 10z"/>
<path d="M1258 1111 l-27 -6 30 -45 c24 -36 38 -46 67 -51 51 -9 72 1 109 54
l32 44 -46 7 c-54 7 -127 6 -165 -3z"/>
<path d="M1230 1015 c0 -53 206 -62 226 -10 11 28 -5 29 -27 2 -18 -24 -27
-27 -84 -27 -61 0 -95 14 -95 41 0 5 -4 9 -10 9 -5 0 -10 -7 -10 -15z"/>
<path d="M1247 942 c43 -38 165 -36 202 3 15 16 14 17 -9 9 -32 -11 -157 -12
-190 -1 l-25 8 22 -19z"/>
<path d="M1189 876 c-86 -66 -149 -184 -149 -283 0 -36 3 -43 20 -43 13 0 27
15 44 48 30 58 90 120 133 138 96 41 233 -29 262 -133 15 -54 14 -161 -3 -216
-8 -26 -12 -47 -10 -47 3 0 22 9 43 20 44 22 88 70 108 117 17 43 17 147 -2
210 -19 63 -88 159 -142 196 -35 24 -45 27 -63 17 -23 -12 -151 -10 -181 4
-10 4 -31 -6 -60 -28z"/>
<path d="M1266 715 c-83 -29 -160 -141 -186 -269 -14 -67 -7 -132 21 -195 22
-50 35 -51 18 -2 -7 19 -10 71 -7 124 3 73 10 104 31 150 37 81 81 140 127
168 22 13 40 27 40 32 0 9 3 9 -44 -8z"/>
<path d="M1324 689 c-42 -12 -120 -98 -149 -164 -47 -106 -51 -243 -9 -314 25
-42 57 -55 121 -52 28 1 97 62 129 113 58 92 84 263 50 341 -27 65 -82 94
-142 76z m6 -110 c0 -15 4 -19 19 -14 37 11 31 -15 -8 -40 -47 -29 -76 -68
-67 -90 5 -13 10 -13 41 2 43 20 68 10 73 -30 4 -30 -22 -85 -44 -94 -8 -3
-14 -18 -14 -34 0 -30 -17 -39 -26 -14 -4 10 -15 12 -35 8 -41 -8 -36 9 11 36
53 30 80 59 80 88 0 27 -12 29 -45 7 -53 -35 -94 20 -60 82 10 18 24 35 31 38
8 3 14 18 14 34 0 16 3 32 7 35 12 13 23 7 23 -14z"/>
<path d="M937 509 c-58 -14 -97 -37 -97 -59 0 -28 68 -59 142 -65 58 -4 60 -4
23 6 -125 32 -145 40 -145 60 0 16 58 38 136 53 74 13 76 14 29 14 -27 0 -67
-4 -88 -9z"/>
<path d="M995 475 c-5 -2 -27 -6 -47 -10 -54 -9 -47 -20 19 -34 78 -15 80 -15
85 19 4 27 2 30 -21 29 -14 0 -30 -2 -36 -4z"/>
<path d="M840 376 c0 -24 80 -57 152 -64 55 -5 60 -3 56 14 -2 15 -15 20 -58
26 -51 6 -89 16 -132 33 -13 5 -18 2 -18 -9z"/>
<path d="M840 311 c0 -16 11 -27 43 -41 44 -20 174 -46 183 -37 3 3 1 15 -6
26 -7 15 -20 21 -43 21 -40 0 -146 27 -164 42 -10 8 -13 5 -13 -11z"/>
<path d="M836 236 c15 -39 134 -75 248 -76 l59 0 -25 20 c-17 13 -54 23 -113
30 -48 6 -103 17 -123 25 -43 19 -53 19 -46 1z"/>
</g>
</svg>
