<?xml version="1.0" standalone="no"?>
<!DOCTYPE svg PUBLIC "-//W3C//DTD SVG 20010904//EN"
 "http://www.w3.org/TR/2001/REC-SVG-20010904/DTD/svg10.dtd">
<svg version="1.0" xmlns="http://www.w3.org/2000/svg"
 width="200.000000pt" height="200.000000pt" viewBox="0 0 200.000000 200.000000"
 preserveAspectRatio="xMidYMid meet">
<metadata>
Created by potrace 1.16, written by Peter Selinger 2001-2019
</metadata>
<g transform="translate(0.000000,200.000000) scale(0.100000,-0.100000)"
fill="#000000" stroke="none">
<path d="M1001 1866 c-61 -36 -81 -43 -116 -41 -24 2 -48 6 -53 9 -11 7 -133
46 -144 46 -4 0 -16 -10 -28 -22 -14 -16 -20 -35 -20 -69 0 -48 0 -48 -57 -82
-56 -32 -58 -35 -61 -78 l-3 -44 -100 -59 -99 -58 0 -667 0 -666 35 -22 c19
-13 41 -23 48 -23 7 0 100 52 207 115 l195 114 3 -49 c2 -39 8 -54 29 -70 46
-36 128 -53 278 -57 187 -5 182 -5 213 11 33 17 108 96 123 130 7 15 29 31 57
42 67 25 137 99 156 165 20 66 20 109 1 184 -21 79 -68 157 -130 212 -49 44
-50 47 -47 95 3 29 -1 55 -9 64 -9 11 -9 18 -1 26 7 7 12 29 12 50 0 53 -37
71 -145 72 -66 1 -87 -3 -117 -21 l-38 -22 0 365 0 364 -27 11 c-63 24 -85 21
-162 -25z m117 5 c10 -6 -10 -22 -66 -55 -43 -25 -82 -46 -85 -46 -4 0 -7 8
-7 18 0 11 23 31 63 55 66 39 74 42 95 28z m-371 -37 c20 -5 23 -11 18 -28 -4
-11 -10 -41 -12 -66 -4 -43 -8 -48 -54 -74 -44 -25 -53 -26 -84 -16 -19 6 -35
15 -35 18 0 4 21 19 45 34 43 26 45 29 45 76 0 50 15 76 38 67 8 -3 25 -8 39
-11z m413 -468 c0 -409 -2 -475 -15 -486 -13 -11 -15 39 -15 444 0 392 -2 456
-14 456 -8 0 -41 -16 -73 -35 -59 -35 -83 -43 -83 -25 0 9 177 119 193 120 4
0 7 -213 7 -474z m-340 401 c0 -24 3 -47 7 -50 3 -4 25 4 49 18 23 14 48 25
54 25 7 0 10 -24 8 -71 l-3 -71 -128 -74 c-71 -41 -131 -74 -133 -74 -2 0 -4
33 -4 73 l0 73 53 30 c51 29 52 31 57 84 3 30 9 61 13 68 16 24 27 11 27 -31z
m78 25 c9 -6 5 -12 -13 -20 -34 -16 -35 -15 -35 8 0 21 24 27 48 12z m202
-503 c0 -437 -1 -452 -20 -479 -12 -16 -31 -53 -44 -82 -23 -52 -27 -55 -170
-137 -80 -46 -150 -89 -156 -96 -30 -36 20 -16 153 60 l147 84 0 -39 c0 -35
-3 -40 -27 -45 -121 -25 -173 -56 -173 -104 0 -26 -11 -36 -132 -106 -73 -43
-148 -86 -165 -97 l-33 -20 0 575 0 576 75 45 c42 25 78 46 80 46 3 0 5 -12 5
-26 0 -32 -9 -36 170 68 135 79 145 86 150 118 4 28 15 40 65 71 33 21 63 38
68 38 4 1 7 -202 7 -450z m-516 342 c3 -5 -1 -12 -10 -15 -22 -9 -24 -8 -24 9
0 16 25 21 34 6z m56 -39 c0 -11 -40 -41 -125 -90 l-125 -74 0 -649 c0 -647 0
-650 -20 -639 -20 11 -20 21 -20 663 l1 652 132 77 c73 42 138 77 145 77 6 1
12 -7 12 -17z m-3 -75 c-3 -8 -46 -38 -96 -67 l-91 -52 0 -604 c0 -363 4 -604
9 -604 5 0 83 43 173 95 89 52 166 95 170 95 12 0 9 -16 -4 -28 -12 -9 -317
-190 -360 -213 -17 -9 -18 24 -18 633 l0 643 108 62 c59 34 108 60 111 58 2
-2 1 -11 -2 -18z m806 -363 c10 -6 -26 -9 -99 -9 -63 0 -114 1 -114 2 0 1 15
7 33 12 37 12 156 8 180 -5z m-234 -106 c-6 -10 -9 -41 -8 -68 2 -27 0 -53 -4
-56 -4 -4 -7 40 -7 97 0 98 1 102 15 76 11 -22 12 -34 4 -49z m246 60 c7 -6
-5 -24 -56 -85 -11 -14 -87 -17 -104 -5 -6 4 -22 26 -37 49 -24 37 -26 42 -10
47 25 7 199 2 207 -6z m-202 -88 c14 -53 165 -54 182 -1 8 25 28 28 23 4 -4
-24 -65 -53 -110 -53 -54 0 -118 28 -118 51 0 25 16 24 23 -1z m92 -74 c39 0
80 6 93 12 15 9 22 9 22 2 0 -17 -65 -40 -115 -40 -50 0 -115 23 -115 40 0 7
7 7 23 -2 12 -6 54 -12 92 -12z m-23 -53 c20 -3 59 0 87 7 l51 12 45 -37 c88
-72 145 -189 145 -299 0 -76 -41 -151 -104 -193 -26 -18 -52 -33 -56 -33 -5 0
-1 26 7 58 20 76 13 183 -15 239 -25 48 -57 73 -129 98 -43 16 -58 17 -90 7
-53 -16 -118 -74 -155 -138 -21 -38 -36 -54 -50 -54 -19 0 -20 5 -16 63 7 84
40 150 114 226 59 60 65 63 96 57 18 -4 49 -10 70 -13z m-37 -181 c-81 -50
-156 -175 -174 -290 -9 -58 -4 -134 14 -187 6 -18 5 -18 -14 3 -51 58 -49 214
4 326 44 94 122 165 180 166 16 0 14 -3 -10 -18z m146 -43 c92 -98 50 -346
-78 -459 -54 -47 -106 -59 -141 -33 -42 31 -61 65 -72 125 -41 224 173 494
291 367z m-362 -143 c-3 -3 -35 -10 -73 -16 -83 -13 -136 -34 -136 -53 0 -19
63 -44 129 -53 28 -4 51 -10 51 -14 0 -11 -76 0 -134 19 -91 30 -85 67 16 102
46 16 159 27 147 15z m-13 -52 c-3 -9 -6 -22 -6 -30 0 -17 -22 -18 -90 -3 -62
13 -55 25 20 38 81 13 83 13 76 -5z m-53 -119 c33 -4 47 -11 47 -22 0 -13 -10
-15 -59 -10 -68 6 -151 39 -151 61 0 13 8 12 58 -4 31 -10 78 -21 105 -25z
m-73 -51 c30 -7 71 -16 92 -19 32 -5 57 -29 44 -42 -9 -9 -151 18 -186 35 -37
18 -59 62 -24 47 11 -4 44 -14 74 -21z m-48 -59 c20 -8 75 -19 123 -25 59 -7
96 -17 113 -30 l25 -20 -55 0 c-113 0 -248 41 -248 75 0 18 0 18 42 0z"/>
<path d="M865 1425 c-88 -52 -161 -99 -163 -105 -9 -25 44 -2 187 83 138 83
170 108 144 113 -4 1 -80 -40 -168 -91z"/>
<path d="M865 1306 c-148 -87 -187 -116 -153 -116 19 0 331 184 336 198 8 25
-28 9 -183 -82z"/>
<path d="M617 1215 c-26 -54 -28 -56 -49 -40 -27 19 -38 19 -38 2 0 -14 66
-55 73 -47 20 26 66 123 62 130 -12 19 -21 10 -48 -45z"/>
<path d="M865 1176 c-148 -87 -187 -116 -153 -116 19 0 331 184 336 198 8 25
-28 9 -183 -82z"/>
<path d="M895 1077 c-66 -40 -138 -82 -159 -95 -27 -16 -36 -26 -29 -33 7 -7
63 20 177 86 91 54 166 101 166 106 0 20 -42 3 -155 -64z"/>
<path d="M881 950 c-160 -93 -190 -114 -174 -123 8 -5 322 170 342 189 3 2 0
9 -5 14 -5 5 -68 -25 -163 -80z"/>
<path d="M631 993 c-6 -16 -20 -39 -30 -52 -16 -20 -20 -22 -39 -10 -34 21
-40 -1 -7 -27 17 -13 35 -24 40 -24 9 0 75 120 75 135 0 3 -6 5 -14 5 -7 0
-19 -12 -25 -27z"/>
<path d="M865 824 c-88 -52 -161 -99 -163 -104 -9 -25 45 -1 187 83 139 83
170 107 144 113 -4 1 -80 -40 -168 -92z"/>
<path d="M885 719 c-186 -107 -189 -109 -177 -121 11 -11 333 170 340 191 8
23 -27 8 -163 -70z"/>
<path d="M615 729 c-26 -50 -27 -50 -50 -35 -30 20 -48 0 -19 -21 53 -40 55
-39 103 54 25 50 25 53 6 53 -8 0 -26 -23 -40 -51z"/>
<path d="M643 538 c-6 -7 -20 -32 -32 -56 -21 -41 -23 -42 -44 -27 -27 19 -37
19 -37 2 0 -14 66 -55 73 -47 24 31 67 124 59 132 -5 5 -13 4 -19 -4z"/>
<path d="M1324 670 c-88 -36 -178 -239 -160 -363 8 -55 39 -105 71 -117 74
-28 175 84 210 232 18 75 19 119 4 172 -19 70 -67 100 -125 76z m83 -47 c27
-40 24 -180 -5 -254 -25 -63 -83 -136 -120 -150 -59 -23 -100 55 -87 165 20
179 153 329 212 239z"/>
<path d="M1306 603 c-3 -3 -6 -17 -6 -31 0 -13 -13 -40 -30 -59 -33 -37 -39
-83 -14 -104 16 -13 20 -12 87 16 13 6 17 2 17 -16 -1 -32 -26 -61 -78 -90
-53 -29 -53 -54 1 -34 12 5 17 2 17 -9 0 -9 7 -16 15 -16 10 0 15 10 15 29 0
16 6 31 15 35 23 8 49 70 41 99 -8 34 -31 40 -72 21 -19 -9 -37 -14 -41 -11
-15 16 12 61 58 94 34 24 47 39 40 46 -7 7 -15 6 -26 -3 -13 -10 -15 -9 -15 8
0 22 -13 36 -24 25z"/>
</g>
</svg>
