<?xml version="1.0" standalone="no"?>
<!DOCTYPE svg PUBLIC "-//W3C//DTD SVG 20010904//EN"
 "http://www.w3.org/TR/2001/REC-SVG-20010904/DTD/svg10.dtd">
<svg version="1.0" xmlns="http://www.w3.org/2000/svg"
 width="200.000000pt" height="200.000000pt" viewBox="0 0 200.000000 200.000000"
 preserveAspectRatio="xMidYMid meet">
<metadata>
Created by potrace 1.16, written by Peter Selinger 2001-2019
</metadata>
<g transform="translate(0.000000,200.000000) scale(0.100000,-0.100000)"
fill="#000000" stroke="none">
<path d="M698 1893 c-9 -10 -23 -33 -32 -50 -28 -56 -54 -66 -149 -59 -87 7
-97 4 -116 -31 -12 -23 -2 -56 68 -215 l20 -48 249 0 248 0 47 113 c26 61 47
120 47 130 0 9 -9 26 -21 38 -18 18 -28 20 -99 13 -94 -8 -129 7 -156 68 -26
58 -75 76 -106 41z"/>
<path d="M483 1435 c-28 -12 -63 -58 -63 -82 0 -5 18 -28 39 -51 39 -41 40
-42 108 -42 l68 0 88 88 c48 48 87 91 87 95 0 14 -293 7 -327 -8z"/>
<path d="M911 1440 c-25 -6 -75 -49 -187 -161 -85 -85 -154 -159 -154 -165 0
-5 13 -23 30 -39 23 -22 41 -29 82 -33 52 -4 54 -3 140 62 48 36 90 66 94 66
3 0 35 -31 70 -69 69 -75 172 -137 246 -149 42 -7 44 -9 85 -90 52 -106 74
-191 80 -313 l6 -96 41 23 c29 17 57 24 94 24 l52 0 0 193 c0 107 -3 262 -7
345 l-6 152 -77 0 c-60 0 -83 4 -101 18 -13 11 -94 66 -179 125 -146 99 -160
106 -215 111 -33 3 -75 1 -94 -4z"/>
<path d="M1714 1296 c-17 -8 -40 -26 -52 -41 -22 -27 -22 -33 -22 -410 0 -377
0 -383 22 -410 33 -42 76 -55 183 -55 l95 0 0 465 0 465 -97 0 c-59 -1 -110
-6 -129 -14z m94 -779 c4 -20 -25 -34 -40 -19 -15 15 -1 44 19 40 10 -2 19
-11 21 -21z"/>
<path d="M93 1272 c-12 -9 -25 -29 -28 -43 -8 -31 16 -83 40 -93 9 -3 79 -6
156 -6 135 0 141 1 164 25 31 30 32 73 4 109 -20 26 -20 26 -167 26 -124 0
-150 -3 -169 -18z"/>
<path d="M492 1166 c-11 -24 -25 -46 -31 -50 -7 -5 -4 -16 10 -35 33 -45 36
-109 7 -151 l-24 -35 23 -34 c30 -44 30 -98 0 -142 l-23 -34 23 -34 c28 -42
30 -95 3 -138 -32 -54 -63 -63 -210 -63 -151 0 -147 4 -100 -96 44 -91 117
-166 203 -209 103 -51 159 -58 412 -53 249 5 308 18 408 87 169 118 207 394
89 652 l-29 64 -67 19 c-82 23 -165 75 -230 145 l-48 52 -57 -44 c-76 -60
-112 -77 -161 -77 -53 0 -102 23 -140 66 -38 44 -38 74 1 119 l31 35 -35 0
c-33 0 -38 -4 -55 -44z m268 -310 c5 -36 9 -40 58 -58 39 -15 52 -24 52 -40 0
-22 -7 -22 -98 1 -53 14 -89 6 -108 -25 -27 -40 -10 -61 86 -109 98 -49 120
-72 120 -126 0 -45 -29 -84 -75 -99 -29 -10 -34 -16 -37 -48 -4 -51 -31 -50
-38 1 -5 36 -8 40 -55 55 -39 13 -51 22 -53 41 -4 26 -2 26 89 1 54 -16 93 -8
114 23 27 43 10 66 -84 109 -99 45 -120 67 -121 124 0 51 28 90 73 102 26 7
33 14 35 38 7 67 34 73 42 10z"/>
<path d="M93 1062 c-41 -32 -38 -95 6 -129 11 -8 62 -12 159 -13 139 0 144 1
167 25 33 32 33 78 0 110 -23 24 -28 25 -167 25 -120 0 -146 -3 -165 -18z"/>
<path d="M89 841 c-31 -32 -35 -50 -17 -84 22 -43 37 -46 186 -47 139 0 144 1
167 25 33 32 33 78 0 110 -23 24 -29 25 -165 25 l-142 0 -29 -29z"/>
<path d="M92 640 c-12 -11 -24 -31 -28 -44 -7 -28 18 -81 41 -90 9 -3 79 -6
156 -6 135 0 141 1 164 25 33 32 33 78 0 110 -23 24 -29 25 -168 25 -130 0
-145 -2 -165 -20z"/>
</g>
</svg>
