<?xml version="1.0" standalone="no"?>
<!DOCTYPE svg PUBLIC "-//W3C//DTD SVG 20010904//EN"
 "http://www.w3.org/TR/2001/REC-SVG-20010904/DTD/svg10.dtd">
<svg version="1.0" xmlns="http://www.w3.org/2000/svg"
 width="200.000000pt" height="200.000000pt" viewBox="0 0 200.000000 200.000000"
 preserveAspectRatio="xMidYMid meet">
<metadata>
Created by potrace 1.16, written by Peter Selinger 2001-2019
</metadata>
<g transform="translate(0.000000,200.000000) scale(0.100000,-0.100000)"
fill="#000000" stroke="none">
<path d="M699 1895 c-15 -8 -34 -30 -43 -48 -25 -55 -38 -61 -116 -53 -38 3
-80 2 -94 -4 -30 -11 -66 -65 -66 -98 0 -13 21 -73 46 -134 l45 -110 -25 -27
c-14 -15 -29 -41 -32 -59 l-6 -32 -97 0 c-134 0 -167 -7 -207 -45 -30 -28 -34
-38 -34 -82 0 -36 6 -58 21 -77 l20 -26 -20 -26 c-29 -36 -29 -112 0 -148 l20
-26 -20 -26 c-29 -36 -29 -112 0 -148 l20 -26 -20 -26 c-15 -19 -21 -41 -21
-74 0 -40 6 -55 35 -90 19 -23 35 -50 35 -60 0 -9 16 -50 36 -90 65 -129 176
-218 319 -255 82 -21 441 -21 540 0 144 31 249 109 305 227 17 35 30 68 30 74
0 23 96 64 148 64 46 0 53 -3 69 -30 10 -17 39 -41 67 -55 43 -22 64 -25 151
-25 65 0 107 4 118 13 16 11 17 49 15 487 l-3 475 -118 3 c-139 3 -191 -13
-229 -72 -23 -35 -24 -36 -95 -36 l-71 0 -168 115 c-92 63 -176 115 -186 115
-10 0 -18 4 -18 9 0 5 18 52 40 105 46 109 48 128 20 174 -27 44 -59 54 -142
46 -76 -7 -89 -2 -115 53 -27 57 -97 79 -154 48z m82 -45 c10 -6 25 -26 33
-45 24 -55 56 -70 152 -67 78 3 84 2 99 -22 15 -23 14 -29 -29 -133 l-44 -108
-237 0 -237 0 -45 108 c-44 105 -45 108 -28 133 16 25 20 26 90 22 93 -6 127
7 154 61 29 55 55 70 92 51z m-41 -515 l-85 -85 -61 0 c-58 0 -64 2 -98 36
-40 40 -44 58 -20 92 25 36 48 41 204 41 l145 1 -85 -85z m475 -27 c208 -143
199 -138 271 -138 l61 0 6 -182 c4 -99 7 -243 7 -320 l0 -138 -45 0 c-26 0
-63 -9 -85 -20 -22 -11 -41 -20 -42 -20 -2 0 -4 37 -5 83 -2 101 -30 212 -77
305 -35 69 -36 70 -86 81 -28 6 -68 20 -89 30 -56 29 -138 97 -164 136 -12 19
-30 35 -39 35 -10 0 -54 -27 -99 -60 -91 -67 -127 -75 -184 -40 -42 26 -50 46
-28 74 30 37 277 273 293 279 8 3 43 6 77 6 l63 1 165 -112z m675 -458 l0
-430 -95 0 c-109 0 -146 13 -170 60 -14 26 -15 80 -13 386 l3 356 33 29 c31
28 35 29 137 29 l105 0 0 -430z m-1433 398 c29 -27 30 -71 3 -98 -18 -18 -33
-20 -160 -20 -130 0 -141 1 -160 22 -26 28 -26 66 2 95 20 22 28 23 157 23
125 0 136 -2 158 -22z m114 -84 c-32 -40 -27 -84 12 -121 46 -44 69 -53 130
-53 50 0 61 4 129 53 l74 53 54 -55 c60 -61 148 -113 222 -131 45 -12 47 -14
77 -82 48 -107 64 -187 59 -303 -4 -81 -10 -112 -30 -157 -33 -71 -84 -127
-147 -161 -93 -51 -133 -59 -336 -64 -293 -8 -391 15 -499 117 -49 46 -103
131 -121 188 -6 22 -5 22 92 22 139 0 169 7 209 47 29 29 34 40 34 82 0 34 -6
56 -21 75 l-20 26 20 26 c29 36 29 112 0 148 l-20 26 20 26 c29 37 29 112 0
148 -19 24 -20 29 -6 44 9 9 20 29 26 45 8 20 17 27 36 27 l26 0 -20 -26z
m-114 -116 c29 -27 30 -71 3 -98 -18 -18 -33 -20 -160 -20 -130 0 -141 1 -160
22 -26 28 -26 66 2 95 20 22 28 23 157 23 125 0 136 -2 158 -22z m3 -198 c26
-26 26 -74 0 -100 -18 -18 -33 -20 -160 -20 -130 0 -141 1 -160 22 -26 28 -26
72 0 98 18 18 33 20 160 20 127 0 142 -2 160 -20z m0 -200 c26 -26 25 -68 -2
-97 -20 -22 -28 -23 -157 -23 -125 0 -136 2 -158 22 -29 27 -30 71 -3 98 18
18 33 20 160 20 127 0 142 -2 160 -20z"/>
<path d="M1730 555 c-11 -13 -11 -19 3 -33 20 -19 41 -5 35 24 -4 24 -22 28
-38 9z"/>
<path d="M743 903 c-7 -2 -13 -20 -13 -39 0 -28 -4 -35 -25 -40 -62 -15 -96
-109 -59 -162 9 -13 54 -41 100 -62 78 -36 84 -41 84 -69 0 -22 -7 -35 -26
-48 -25 -16 -30 -16 -91 0 -67 18 -83 16 -83 -8 0 -15 29 -34 69 -45 21 -5 27
-14 31 -46 4 -31 9 -39 25 -39 16 0 21 8 23 36 3 32 8 38 42 52 70 27 90 115
37 165 -12 12 -54 35 -92 53 -73 33 -85 43 -85 71 0 46 69 62 148 34 35 -13
42 -13 52 -1 19 23 7 38 -46 56 -45 16 -49 20 -54 55 -5 38 -14 47 -37 37z"/>
</g>
</svg>
