<?xml version="1.0" standalone="no"?>
<!DOCTYPE svg PUBLIC "-//W3C//DTD SVG 20010904//EN"
 "http://www.w3.org/TR/2001/REC-SVG-20010904/DTD/svg10.dtd">
<svg version="1.0" xmlns="http://www.w3.org/2000/svg"
 width="200.000000pt" height="200.000000pt" viewBox="0 0 200.000000 200.000000"
 preserveAspectRatio="xMidYMid meet">
<metadata>
Created by potrace 1.16, written by Peter Selinger 2001-2019
</metadata>
<g transform="translate(0.000000,200.000000) scale(0.100000,-0.100000)"
fill="#000000" stroke="none">
<path d="M945 1790 c-4 -6 15 -10 50 -10 35 0 54 4 50 10 -3 6 -26 10 -50 10
-24 0 -47 -4 -50 -10z"/>
<path d="M793 1767 c-23 -7 -45 -16 -50 -21 -5 -5 2 -6 17 -2 14 4 40 9 58 13
17 3 32 10 32 14 0 11 -3 10 -57 -4z"/>
<path d="M610 1694 c-52 -30 -55 -32 -48 -39 7 -7 98 45 98 56 0 12 2 12 -50
-17z"/>
<path d="M1132 1668 c-7 -7 -12 -27 -12 -45 l0 -33 -78 0 c-116 0 -112 8 -112
-242 0 -186 2 -206 18 -221 16 -15 46 -17 214 -17 l196 0 21 -35 c21 -36 86
-75 126 -75 38 0 104 38 125 72 39 65 18 162 -45 204 -25 16 -25 17 -25 155 0
162 2 159 -109 159 -70 0 -71 1 -71 26 0 59 -11 64 -128 64 -71 0 -112 -4
-120 -12z m228 -43 l0 -35 -110 0 -110 0 0 35 0 35 110 0 110 0 0 -35z m178
-67 c13 -13 17 -163 6 -192 -5 -13 -23 -16 -98 -16 -80 0 -93 2 -104 20 -11
17 -23 20 -98 20 -78 0 -86 -2 -91 -20 -5 -19 -12 -20 -102 -18 l-96 3 -3 94
c-1 52 -1 100 2 108 7 18 566 19 584 1z m-208 -223 l0 -36 -82 3 c-71 3 -83 6
-86 21 -8 41 4 47 88 47 l80 0 0 -35z m-183 -26 c7 -25 32 -31 118 -27 61 3
71 6 80 25 8 20 18 22 107 25 88 3 98 1 98 -14 0 -14 -9 -18 -44 -18 -74 0
-144 -62 -148 -133 l-3 -37 -200 2 -200 3 -3 100 -3 100 97 -3 c85 -3 97 -6
101 -23z m407 -33 c18 -7 42 -26 54 -41 67 -85 4 -215 -105 -215 -67 0 -133
67 -133 136 0 41 37 95 80 116 42 22 60 22 104 4z"/>
<path d="M1501 1243 c-1 -7 -10 -13 -20 -13 -22 0 -35 -30 -26 -60 4 -14 19
-22 46 -26 33 -6 40 -10 37 -28 -4 -26 -55 -36 -64 -12 -8 20 -24 21 -24 1 0
-9 11 -21 25 -27 14 -6 25 -15 25 -20 0 -5 7 -2 16 6 8 9 20 16 25 16 15 0 22
49 9 65 -7 8 -28 15 -46 15 -30 0 -34 3 -34 25 0 22 4 25 34 25 19 0 36 -6 39
-12 2 -7 8 -10 12 -6 10 9 -13 38 -30 38 -8 0 -16 6 -18 13 -4 10 -6 10 -6 0z"/>
<path d="M445 1570 c-21 -22 -36 -42 -34 -45 3 -2 25 16 49 40 24 25 40 45 34
45 -5 0 -27 -18 -49 -40z"/>
<path d="M317 1415 c-29 -49 -31 -55 -19 -55 7 0 62 82 62 94 0 18 -18 1 -43
-39z"/>
<path d="M1690 1383 c1 -15 49 -98 50 -85 0 19 -26 79 -39 86 -6 4 -11 4 -11
-1z"/>
<path d="M378 1254 l-38 -24 0 -93 0 -93 -61 -90 c-34 -49 -67 -101 -75 -116
-16 -32 -20 -188 -4 -188 6 0 10 36 10 88 l1 87 64 94 65 95 0 -81 c0 -51 -6
-95 -16 -118 -14 -35 -14 -42 1 -82 9 -23 20 -43 24 -43 4 0 27 45 51 100 36
85 46 100 65 100 47 0 48 -19 9 -157 -20 -70 -52 -159 -71 -196 -19 -38 -32
-74 -30 -80 2 -6 9 4 16 21 8 18 20 32 29 32 8 0 30 9 48 21 l33 20 38 -22 38
-22 34 21 34 20 41 -20 42 -20 37 22 37 22 0 344 0 344 -41 20 -40 21 -36 -21
-35 -20 -38 21 -38 22 -36 -22 -36 -23 -34 21 c-41 26 -42 26 -88 -5z m86 -11
c33 -15 38 -15 75 2 39 17 41 17 74 -3 l34 -20 36 21 c36 20 37 20 72 1 l35
-19 0 -331 0 -331 -35 -19 c-34 -18 -35 -18 -71 3 l-37 21 -34 -21 -35 -20
-41 20 c-42 20 -42 20 -75 0 -18 -11 -35 -17 -38 -14 -3 3 3 22 14 44 32 61
86 267 78 297 -7 30 -44 43 -73 27 -11 -5 -34 -43 -51 -83 l-31 -73 -1 240 0
240 28 17 c34 22 34 22 76 1z m-127 -480 c-3 -10 -5 -4 -5 12 0 17 2 24 5 18
2 -7 2 -21 0 -30z"/>
<path d="M525 1156 c-47 -21 -67 -51 -72 -103 -10 -120 122 -186 206 -102 97
97 -11 262 -134 205z m121 -40 c28 -28 34 -42 34 -75 0 -86 -91 -137 -164 -92
-66 41 -67 139 -3 180 49 32 93 27 133 -13z"/>
<path d="M566 1114 c-3 -8 -13 -14 -21 -14 -12 0 -15 -8 -13 -32 3 -29 7 -33
36 -36 24 -2 32 -8 32 -23 0 -25 -38 -26 -56 -1 -13 16 -13 16 -14 -3 0 -31
42 -46 70 -25 18 13 21 23 16 44 -5 21 -12 26 -36 26 -23 0 -30 4 -30 20 0 14
7 20 24 20 13 0 26 -6 29 -12 2 -7 8 -10 12 -6 5 4 -4 19 -18 32 -20 18 -27
21 -31 10z"/>
<path d="M555 770 c-4 -6 27 -10 85 -10 58 0 89 4 85 10 -3 6 -42 10 -85 10
-43 0 -82 -4 -85 -10z"/>
<path d="M550 690 c0 -6 37 -10 90 -10 53 0 90 4 90 10 0 6 -37 10 -90 10 -53
0 -90 -4 -90 -10z"/>
<path d="M1764 1196 c4 -15 10 -41 13 -57 3 -16 9 -27 13 -24 10 6 -8 87 -22
100 -7 7 -9 2 -4 -19z"/>
<path d="M1790 974 c0 -34 4 -53 10 -49 6 3 10 28 10 56 0 27 -4 49 -10 49 -5
0 -10 -25 -10 -56z"/>
<path d="M1350 902 c0 -10 11 -29 25 -42 l26 -24 -73 -73 -72 -73 69 -70 c38
-38 74 -70 79 -70 6 0 41 30 78 67 l67 66 31 -27 c17 -14 36 -24 41 -20 5 3 9
68 9 145 l0 139 -140 0 c-129 0 -140 -1 -140 -18z m270 -122 c0 -66 -4 -120
-8 -120 -5 0 -19 11 -32 25 l-24 26 -73 -73 -73 -72 -65 64 -65 64 72 73 72
73 -29 30 -29 30 127 0 127 0 0 -120z"/>
<path d="M1776 829 c-2 -8 -9 -29 -15 -48 -13 -41 -13 -41 -2 -41 11 0 36 88
28 97 -4 3 -8 0 -11 -8z"/>
<path d="M1709 638 c-7 -12 -19 -33 -27 -45 -9 -15 -10 -23 -3 -23 12 0 55 79
48 87 -3 3 -11 -6 -18 -19z"/>
<path d="M1123 558 l-72 -72 -29 27 c-50 48 -53 41 -50 -115 l3 -143 115 -3
c165 -4 190 7 135 58 l-26 24 73 73 73 73 -75 75 -75 75 -72 -72z m170 -103
c-15 -16 -47 -51 -71 -76 l-42 -45 25 -24 c14 -13 25 -27 25 -32 0 -4 -54 -8
-120 -8 l-120 0 0 127 0 127 30 -29 31 -29 72 72 72 72 62 -62 63 -62 -27 -31z"/>
<path d="M1592 467 c-32 -33 -39 -47 -24 -47 9 0 65 70 60 76 -2 2 -19 -11
-36 -29z"/>
<path d="M1461 349 c-13 -11 -31 -24 -40 -29 -9 -5 -13 -11 -9 -15 7 -7 87 45
88 58 0 12 -14 7 -39 -14z"/>
<path d="M570 316 c0 -8 73 -47 83 -43 6 2 -6 13 -27 25 -35 21 -56 27 -56 18z"/>
<path d="M755 225 c17 -8 44 -14 60 -14 l30 1 -35 13 c-19 7 -46 13 -60 13
-24 0 -24 0 5 -13z"/>
</g>
</svg>
