<?xml version="1.0" standalone="no"?>
<!DOCTYPE svg PUBLIC "-//W3C//DTD SVG 20010904//EN"
 "http://www.w3.org/TR/2001/REC-SVG-20010904/DTD/svg10.dtd">
<svg version="1.0" xmlns="http://www.w3.org/2000/svg"
 width="200.000000pt" height="200.000000pt" viewBox="0 0 200.000000 200.000000"
 preserveAspectRatio="xMidYMid meet">
<metadata>
Created by potrace 1.16, written by Peter Selinger 2001-2019
</metadata>
<g transform="translate(0.000000,200.000000) scale(0.100000,-0.100000)"
fill="#000000" stroke="none">
<path d="M446 1784 c-8 -20 -8 -1548 0 -1568 3 -9 11 -16 18 -16 6 0 49 38 96
85 l85 85 85 -85 c47 -47 90 -85 95 -85 6 0 47 39 92 87 l83 88 83 -87 c47
-49 88 -88 93 -88 5 0 47 38 94 85 l85 85 87 -87 c75 -74 89 -85 102 -73 14
11 16 98 16 785 0 426 -3 780 -6 789 -6 14 -64 16 -554 16 -490 0 -548 -2
-554 -16z m1064 -766 l0 -733 -71 73 c-39 39 -77 72 -84 72 -7 0 -50 -38 -96
-85 l-83 -85 -79 85 c-44 47 -87 85 -97 85 -10 0 -53 -38 -97 -86 l-79 -85
-82 85 c-45 47 -88 86 -94 86 -7 0 -45 -33 -85 -72 l-73 -72 0 732 0 732 510
0 510 0 0 -732z"/>
<path d="M925 1653 c-36 -43 -64 -85 -62 -93 1 -8 15 -16 30 -18 22 -3 27 -8
27 -32 0 -23 -7 -33 -32 -46 -46 -23 -96 -72 -119 -116 -16 -31 -25 -38 -49
-38 -24 0 -29 5 -32 27 -2 15 -10 29 -19 31 -15 3 -169 -121 -169 -137 0 -14
162 -142 174 -138 6 2 12 16 14 30 3 23 8 27 37 27 27 0 34 -5 39 -26 9 -33
97 -121 130 -130 20 -5 26 -12 26 -35 0 -22 -5 -29 -19 -29 -24 0 -45 -25 -35
-42 25 -43 120 -148 133 -148 14 0 109 105 134 147 11 18 -9 43 -34 43 -14 0
-19 7 -19 28 0 24 7 32 42 48 41 19 118 103 118 130 0 9 11 14 34 14 30 0 35
-4 38 -27 2 -14 8 -28 14 -30 11 -4 138 95 161 125 16 19 5 33 -85 104 -66 53
-92 57 -92 13 0 -21 -5 -25 -30 -25 -23 0 -33 7 -45 30 -24 47 -75 100 -117
121 -31 16 -38 25 -38 49 0 24 5 29 28 32 17 2 27 9 27 19 0 18 -120 169 -135
169 -5 0 -39 -35 -75 -77z m107 -27 c22 -27 24 -35 13 -40 -10 -4 -15 -20 -15
-51 0 -43 -1 -45 -30 -45 -29 0 -30 2 -30 45 0 31 -5 47 -15 51 -11 5 -9 13
13 40 15 19 29 34 32 34 3 0 17 -15 32 -34z m53 -205 c22 -10 55 -34 72 -54
118 -134 23 -340 -157 -341 -179 -1 -274 207 -157 341 40 45 99 73 157 73 25
0 63 -9 85 -19z m-386 -161 c37 0 41 -2 41 -25 0 -22 -4 -25 -33 -25 -18 0
-43 -7 -56 -16 -21 -15 -24 -15 -52 12 l-30 29 33 27 c28 23 35 25 44 13 7 -9
28 -15 53 -15z m703 -53 c-29 -28 -31 -29 -53 -13 -13 9 -38 16 -56 16 -29 0
-33 3 -33 25 0 23 4 25 44 25 30 0 46 5 50 16 5 13 12 11 42 -12 l35 -27 -29
-30z m-372 -282 c0 -25 5 -45 10 -45 18 0 10 -26 -15 -50 l-25 -23 -25 23
c-25 24 -33 50 -15 50 6 0 10 20 10 45 0 43 1 45 30 45 29 0 30 -2 30 -45z"/>
<path d="M924 1391 c-167 -76 -111 -331 73 -331 62 0 100 17 137 60 73 88 46
219 -57 269 -53 26 -99 26 -153 2z m131 -47 c83 -39 95 -148 24 -209 -17 -14
-39 -25 -50 -25 -18 0 -17 3 8 41 26 39 26 42 11 69 -14 25 -14 29 0 43 14 15
13 19 -9 51 -22 33 -59 49 -59 26 0 -6 -10 -24 -22 -41 -21 -29 -22 -32 -7
-58 15 -26 15 -29 0 -38 -14 -10 -14 -13 5 -39 36 -51 37 -54 14 -54 -32 0
-87 60 -95 103 -9 48 19 104 65 129 42 22 72 23 115 2z m-50 -144 c3 -5 2 -10
-4 -10 -5 0 -13 5 -16 10 -3 6 -2 10 4 10 5 0 13 -4 16 -10z"/>
<path d="M583 694 c-3 -8 -1 -20 4 -25 5 -5 171 -8 419 -7 401 3 409 3 409 23
0 20 -8 20 -413 23 -368 2 -413 1 -419 -14z"/>
<path d="M583 594 c-3 -8 -1 -20 4 -25 5 -5 171 -8 419 -7 401 3 409 3 409 23
0 20 -8 20 -413 23 -368 2 -413 1 -419 -14z"/>
<path d="M583 494 c-3 -8 -1 -20 4 -25 5 -5 171 -8 419 -7 401 3 409 3 409 23
0 20 -8 20 -413 23 -368 2 -413 1 -419 -14z"/>
</g>
</svg>
