<?xml version="1.0" standalone="no"?>
<!DOCTYPE svg PUBLIC "-//W3C//DTD SVG 20010904//EN"
 "http://www.w3.org/TR/2001/REC-SVG-20010904/DTD/svg10.dtd">
<svg version="1.0" xmlns="http://www.w3.org/2000/svg"
 width="200.000000pt" height="200.000000pt" viewBox="0 0 200.000000 200.000000"
 preserveAspectRatio="xMidYMid meet">
<metadata>
Created by potrace 1.16, written by Peter Selinger 2001-2019
</metadata>
<g transform="translate(0.000000,200.000000) scale(0.100000,-0.100000)"
fill="#000000" stroke="none">
<path d="M822 1714 c-200 -192 -202 -198 -64 -202 l92 -3 0 -46 c0 -43 4 -51
63 -112 35 -36 69 -75 75 -86 l12 -20 12 20 c6 11 40 50 75 86 59 61 63 69 63
112 l0 46 93 3 c137 4 135 10 -65 202 -89 86 -170 156 -178 156 -8 0 -89 -70
-178 -156z"/>
<path d="M336 1490 c-103 -92 -146 -137 -144 -150 3 -18 290 -280 306 -280 22
0 32 30 32 92 l0 68 33 0 c87 0 165 -51 200 -128 14 -32 23 -42 35 -39 156 50
248 50 404 0 12 -3 21 7 35 39 35 77 113 128 201 128 l32 0 0 -68 c0 -62 10
-92 31 -92 16 0 304 263 307 280 4 26 -283 282 -312 278 -19 -3 -21 -11 -24
-73 l-3 -71 -86 -11 c-116 -16 -199 -57 -278 -137 -33 -34 -69 -80 -79 -104
-10 -23 -22 -42 -26 -42 -4 0 -16 19 -26 42 -10 24 -46 70 -79 103 -78 79
-166 122 -280 138 l-84 11 -3 71 c-4 106 -15 102 -192 -55z"/>
<path d="M886 1050 c-73 -19 -175 -81 -228 -139 -135 -147 -164 -351 -75 -528
47 -92 119 -163 214 -210 77 -38 77 -38 203 -38 125 0 126 0 201 37 186 92
293 293 260 490 -26 158 -122 286 -266 355 -69 33 -86 36 -173 39 -54 2 -114
-1 -136 -6z m142 -145 c3 -25 12 -34 52 -53 58 -27 83 -63 84 -117 1 -34 -2
-40 -22 -43 -22 -3 -25 1 -36 51 -8 35 -59 67 -106 67 -45 0 -98 -32 -106 -65
-16 -63 29 -109 117 -121 124 -17 191 -119 144 -218 -18 -37 -60 -72 -98 -82
-20 -4 -27 -13 -29 -37 -2 -27 -7 -32 -28 -32 -21 0 -26 5 -28 32 -2 18 -8 33
-14 33 -27 0 -82 37 -105 71 -31 47 -29 102 4 107 18 3 24 -4 33 -38 20 -73
108 -103 177 -60 56 34 57 106 2 139 -17 10 -51 21 -77 25 -64 9 -123 44 -144
86 -41 82 -8 172 77 206 37 16 45 24 45 45 0 32 8 41 35 37 14 -2 21 -12 23
-33z"/>
</g>
</svg>
