<?xml version="1.0" standalone="no"?>
<!DOCTYPE svg PUBLIC "-//W3C//DTD SVG 20010904//EN"
 "http://www.w3.org/TR/2001/REC-SVG-20010904/DTD/svg10.dtd">
<svg version="1.0" xmlns="http://www.w3.org/2000/svg"
 width="200.000000pt" height="200.000000pt" viewBox="0 0 200.000000 200.000000"
 preserveAspectRatio="xMidYMid meet">
<metadata>
Created by potrace 1.16, written by Peter Selinger 2001-2019
</metadata>
<g transform="translate(0.000000,200.000000) scale(0.100000,-0.100000)"
fill="#000000" stroke="none">
<path d="M822 1714 c-200 -192 -202 -198 -64 -202 l92 -3 0 -69 0 -70 -47 29
c-63 38 -123 57 -205 66 l-67 7 -3 72 c-3 63 -5 71 -24 74 -29 4 -316 -252
-312 -278 3 -18 290 -280 306 -280 22 0 32 30 32 92 l0 68 33 0 c85 0 164 -50
198 -125 26 -56 24 -89 -4 -102 -13 -6 -48 -34 -80 -63 -107 -97 -162 -256
-140 -399 36 -235 228 -401 463 -401 231 0 420 160 461 391 30 168 -59 373
-200 459 -47 29 -51 52 -22 115 34 75 113 125 199 125 l32 0 0 -68 c0 -62 10
-92 31 -92 16 0 304 263 307 280 4 26 -283 282 -312 278 -19 -3 -21 -11 -24
-74 l-3 -72 -67 -7 c-79 -8 -161 -35 -214 -70 l-38 -25 0 69 0 70 93 3 c137 4
135 10 -65 202 -89 86 -170 156 -178 156 -8 0 -89 -70 -178 -156z m298 -29
l114 -114 -70 -3 -69 -3 -3 -123 c-3 -122 -3 -124 -37 -173 -18 -27 -37 -58
-40 -69 -8 -26 -22 -26 -30 0 -3 11 -22 42 -40 69 -34 49 -34 51 -37 173 l-3
123 -69 3 -70 3 114 114 c63 63 117 115 120 115 3 0 57 -52 120 -115z m-632
-274 c9 -5 56 -11 103 -13 102 -5 169 -33 248 -104 51 -46 105 -138 117 -200
6 -30 4 -32 -33 -38 -21 -4 -48 -10 -60 -13 -18 -4 -23 -1 -23 14 0 35 -51
122 -92 158 -55 47 -120 67 -205 63 l-68 -3 -3 -52 c-2 -29 -5 -53 -8 -53 -8
0 -192 164 -193 171 -1 3 43 45 97 93 l97 87 3 -51 c2 -35 8 -53 20 -59z
m1182 -10 c36 -33 63 -61 60 -63 -3 -2 -46 -41 -96 -86 -51 -45 -94 -82 -97
-82 -3 0 -7 24 -9 53 l-3 52 -68 3 c-86 4 -150 -16 -207 -65 -42 -36 -90 -119
-90 -157 0 -14 -5 -17 -22 -13 -13 3 -40 9 -61 13 -38 6 -39 7 -32 43 11 59
65 149 119 198 75 68 143 96 246 101 112 6 120 10 120 73 l0 51 38 -31 c20
-17 66 -57 102 -90z m-642 -496 c3 -25 12 -34 52 -53 58 -27 83 -63 84 -117 1
-34 -2 -40 -22 -43 -22 -3 -25 1 -36 51 -8 35 -59 67 -106 67 -45 0 -98 -32
-106 -65 -16 -63 29 -109 117 -121 124 -17 191 -119 144 -218 -18 -37 -60 -72
-98 -82 -20 -4 -27 -13 -29 -37 -2 -27 -7 -32 -28 -32 -21 0 -26 5 -28 32 -2
18 -8 33 -14 33 -27 0 -82 37 -105 71 -31 47 -29 102 4 107 18 3 24 -4 33 -38
20 -73 108 -103 177 -60 56 34 57 106 2 139 -17 10 -51 21 -77 25 -63 8 -121
43 -143 86 -43 80 -9 171 76 206 37 16 45 24 45 45 0 32 8 41 35 37 14 -2 21
-12 23 -33z"/>
</g>
</svg>
