<?xml version="1.0" standalone="no"?>
<!DOCTYPE svg PUBLIC "-//W3C//DTD SVG 20010904//EN"
 "http://www.w3.org/TR/2001/REC-SVG-20010904/DTD/svg10.dtd">
<svg version="1.0" xmlns="http://www.w3.org/2000/svg"
 width="200.000000pt" height="200.000000pt" viewBox="0 0 200.000000 200.000000"
 preserveAspectRatio="xMidYMid meet">
<metadata>
Created by potrace 1.16, written by Peter Selinger 2001-2019
</metadata>
<g transform="translate(0.000000,200.000000) scale(0.100000,-0.100000)"
fill="#000000" stroke="none">
<path d="M895 1866 c-241 -59 -393 -308 -331 -543 23 -87 57 -145 120 -209 72
-72 144 -109 244 -126 294 -50 565 217 515 507 -45 263 -295 433 -548 371z
m236 -71 c95 -33 197 -136 234 -238 28 -75 26 -193 -5 -272 -32 -83 -132 -183
-215 -215 -81 -32 -207 -33 -283 -3 -102 41 -184 123 -225 225 -30 77 -29 203
3 283 42 107 166 211 281 235 55 11 153 4 210 -15z"/>
<path d="M931 1769 c-102 -20 -204 -100 -247 -194 -89 -193 23 -426 231 -480
181 -47 371 66 420 250 50 188 -79 388 -274 425 -60 11 -69 11 -130 -1z m89
-76 c0 -11 15 -24 40 -35 42 -17 80 -67 80 -105 0 -35 -28 -28 -44 11 -13 31
-49 66 -68 66 -5 0 -8 -40 -8 -90 l0 -90 33 -14 c87 -36 115 -134 57 -200 -17
-19 -44 -37 -60 -41 -19 -4 -30 -13 -32 -28 -4 -29 -32 -28 -36 1 -2 14 -10
22 -24 22 -11 0 -38 17 -59 39 -29 29 -39 47 -39 71 0 25 4 31 18 28 9 -2 18
-13 20 -25 3 -22 54 -73 73 -73 5 0 9 40 9 88 l0 88 -41 18 c-108 48 -104 197
6 238 22 7 35 19 35 30 0 11 7 18 20 18 12 0 20 -7 20 -17z"/>
<path d="M931 1604 c-50 -41 -40 -108 19 -139 l30 -16 0 91 c0 49 -4 90 -9 90
-5 0 -23 -12 -40 -26z"/>
<path d="M1020 1320 c0 -49 4 -90 9 -90 5 0 23 12 40 26 50 41 40 108 -19 139
l-30 16 0 -91z"/>
<path d="M980 851 l0 -90 -292 -3 c-272 -3 -295 -4 -327 -23 -53 -31 -71 -62
-78 -138 -6 -64 -5 -67 16 -67 17 0 21 6 21 33 0 53 19 105 47 127 25 19 39
20 319 20 l294 0 0 -90 c0 -83 1 -90 20 -90 19 0 20 7 20 90 l0 90 293 0 c254
0 296 -2 316 -16 30 -21 51 -72 51 -124 0 -34 3 -40 21 -40 20 0 21 4 16 60
-6 72 -31 117 -77 145 -33 19 -55 20 -327 23 l-293 3 0 90 c0 82 -1 89 -20 89
-19 0 -20 -7 -20 -89z"/>
<path d="M124 477 c-2 -7 -3 -89 -2 -182 l3 -170 180 0 180 0 3 174 c2 133 -1
176 -10 183 -7 4 -89 8 -181 8 -128 0 -169 -3 -173 -13z"/>
<path d="M825 481 c-6 -6 -8 -77 -5 -183 l5 -173 178 -3 177 -2 -2 182 -3 183
-170 3 c-101 1 -175 -2 -180 -7z"/>
<path d="M1515 477 c-3 -7 -4 -89 -3 -182 l3 -170 180 0 180 0 0 180 0 180
-178 3 c-139 2 -179 0 -182 -11z"/>
</g>
</svg>
