<?xml version="1.0" standalone="no"?>
<!DOCTYPE svg PUBLIC "-//W3C//DTD SVG 20010904//EN"
 "http://www.w3.org/TR/2001/REC-SVG-20010904/DTD/svg10.dtd">
<svg version="1.0" xmlns="http://www.w3.org/2000/svg"
 width="200.000000pt" height="200.000000pt" viewBox="0 0 200.000000 200.000000"
 preserveAspectRatio="xMidYMid meet">
<metadata>
Created by potrace 1.16, written by Peter Selinger 2001-2019
</metadata>
<g transform="translate(0.000000,200.000000) scale(0.100000,-0.100000)"
fill="#000000" stroke="none">
<path d="M900 1870 c-75 -16 -171 -70 -231 -129 -267 -268 -123 -724 250 -793
l61 -12 0 -83 0 -83 -257 0 c-142 0 -276 -5 -298 -10 -25 -6 -52 -22 -72 -44
-30 -33 -33 -41 -33 -101 l0 -65 -78 0 c-125 0 -122 5 -122 -211 0 -236 -16
-219 215 -219 231 0 215 -16 215 215 0 217 1 215 -120 215 l-80 0 0 33 c0 61
19 107 53 127 30 18 52 20 305 20 l272 0 0 -90 0 -90 -78 0 c-114 0 -112 5
-112 -217 0 -162 2 -182 18 -196 16 -15 45 -17 194 -17 229 0 213 -16 213 215
0 216 0 215 -117 215 l-78 0 0 90 0 90 273 0 c252 0 274 -2 304 -20 34 -20 53
-66 53 -127 l0 -33 -78 0 c-125 0 -122 5 -122 -211 0 -236 -16 -219 215 -219
231 0 215 -16 215 215 0 217 1 215 -120 215 l-80 0 0 65 c0 60 -3 68 -32 101
-21 22 -48 38 -73 44 -22 5 -156 10 -297 10 l-258 0 0 83 0 83 72 17 c102 24
172 61 238 127 69 69 115 158 132 257 36 213 -101 441 -310 515 -65 23 -186
31 -252 18z m253 -60 c107 -40 205 -138 248 -247 18 -46 23 -78 23 -153 0 -75
-5 -107 -23 -153 -43 -109 -141 -207 -248 -247 -295 -111 -602 118 -580 432
19 283 313 469 580 368z m-645 -1477 l2 -173 -175 0 -175 0 0 168 c0 93 3 172
7 176 4 3 81 5 172 4 l166 -3 3 -172z m667 155 c3 -13 4 -90 3 -173 l-3 -150
-175 0 -175 0 -3 160 c-1 87 0 165 2 172 4 10 46 13 175 13 169 0 171 0 176
-22z m663 -155 l2 -173 -175 0 -175 0 0 168 c0 93 3 172 7 176 4 3 81 5 172 4
l166 -3 3 -172z"/>
<path d="M893 1766 c-104 -34 -185 -106 -232 -205 -22 -48 -26 -69 -26 -151 0
-87 3 -101 32 -161 39 -79 102 -140 181 -177 49 -23 70 -27 152 -27 82 0 103
4 152 27 74 34 152 112 186 186 23 49 27 70 27 152 0 83 -3 102 -28 151 -67
137 -176 210 -320 216 -51 2 -98 -2 -124 -11z m252 -58 c62 -32 130 -103 158
-166 11 -27 22 -77 25 -117 6 -99 -23 -171 -97 -246 -76 -75 -146 -103 -251
-97 -124 8 -219 69 -277 181 -25 46 -28 63 -28 147 0 84 3 101 27 147 44 82
119 145 208 174 14 5 61 7 105 5 62 -2 91 -8 130 -28z"/>
<path d="M980 1660 c0 -13 -7 -20 -19 -20 -29 0 -78 -46 -91 -85 -20 -60 27
-146 85 -157 18 -3 20 -12 23 -91 1 -48 -1 -87 -5 -87 -20 0 -56 35 -70 67
-11 27 -17 32 -27 24 -30 -25 24 -113 79 -127 13 -3 25 -14 28 -25 6 -24 27
-25 34 -1 2 9 23 26 46 37 100 48 94 178 -10 221 l-33 14 0 85 c0 69 3 85 15
85 21 0 53 -34 61 -65 6 -24 28 -34 37 -17 18 32 -52 122 -94 122 -12 0 -19 7
-19 20 0 13 -7 20 -20 20 -13 0 -20 -7 -20 -20z m0 -145 c0 -83 0 -84 -22 -76
-32 12 -62 65 -54 96 8 31 40 65 61 65 12 0 15 -16 15 -85z m84 -147 c15 -13
29 -37 32 -55 5 -27 1 -37 -24 -63 -17 -16 -35 -30 -41 -30 -7 0 -11 31 -11
85 0 47 4 85 9 85 6 0 21 -10 35 -22z"/>
</g>
</svg>
