<?xml version="1.0" standalone="no"?>
<!DOCTYPE svg PUBLIC "-//W3C//DTD SVG 20010904//EN"
 "http://www.w3.org/TR/2001/REC-SVG-20010904/DTD/svg10.dtd">
<svg version="1.0" xmlns="http://www.w3.org/2000/svg"
 width="200.000000pt" height="200.000000pt" viewBox="0 0 200.000000 200.000000"
 preserveAspectRatio="xMidYMid meet">
<metadata>
Created by potrace 1.16, written by Peter Selinger 2001-2019
</metadata>
<g transform="translate(0.000000,200.000000) scale(0.100000,-0.100000)"
fill="#000000" stroke="none">
<path d="M632 1934 c-18 -12 -22 -25 -22 -70 l0 -54 -54 0 c-92 0 -86 30 -86
-466 l0 -434 -23 0 c-32 0 -47 -18 -47 -60 0 -31 -4 -37 -39 -51 -39 -17 -40
-16 -62 7 -12 13 -32 24 -44 24 -24 0 -115 -88 -115 -112 0 -9 11 -29 23 -45
22 -26 23 -31 10 -60 -10 -26 -19 -33 -41 -33 -15 0 -38 -7 -50 -16 -19 -13
-22 -24 -22 -83 0 -77 9 -91 60 -91 34 0 38 -4 52 -39 15 -38 15 -40 -8 -62
-36 -34 -30 -60 26 -113 56 -52 77 -56 109 -22 22 23 24 23 62 8 35 -14 39
-18 39 -52 0 -51 14 -60 91 -60 59 0 70 3 83 22 9 12 16 35 16 50 0 22 7 31
32 41 30 13 36 12 64 -10 41 -31 54 -29 94 12 l34 35 218 0 218 0 0 -35 c0
-39 25 -71 62 -80 13 -3 148 -5 301 -3 l279 3 24 28 25 29 -3 445 -3 445 -28
24 c-21 18 -40 24 -73 24 l-44 0 0 419 0 420 -22 15 c-20 14 -90 16 -568 16
-478 0 -548 -2 -568 -16z m1118 -444 l0 -410 -50 0 -50 0 0 204 0 205 -175
158 -175 158 -323 5 -322 5 -3 43 -3 42 550 0 551 0 0 -410z m-490 142 c0 -95
4 -143 13 -155 10 -14 36 -17 172 -19 l160 -3 3 -187 2 -188 -153 0 c-141 0
-157 -2 -181 -21 l-26 -20 0 -395 0 -394 -204 0 c-171 0 -205 2 -210 15 -4 12
21 15 177 17 154 3 182 5 182 18 0 13 -30 15 -198 18 -184 2 -198 4 -192 20 4
9 10 25 12 35 4 12 16 17 43 17 21 0 43 7 50 15 10 12 38 15 134 15 87 0 128
4 141 13 38 28 7 37 -131 37 l-134 0 0 34 c0 19 -3 41 -6 50 -5 14 9 16 123
16 93 0 134 4 148 13 41 31 8 37 -190 37 -210 0 -228 5 -179 51 13 12 24 28
24 36 0 10 34 13 163 13 129 0 167 3 183 15 36 28 -3 35 -197 35 l-185 0 -29
30 c-35 36 -64 38 -95 5 l-23 -24 -38 20 c-35 17 -39 23 -39 58 0 40 -11 51
-51 51 -18 0 -19 13 -19 423 0 233 3 427 7 430 3 4 172 7 375 7 l368 0 0 -138z
m182 -17 l122 -110 -119 -3 c-65 -1 -125 0 -132 2 -16 6 -19 230 -3 224 5 -1
65 -52 132 -113z m443 -1035 l0 -445 -284 -3 c-201 -2 -288 1 -297 9 -12 9
-14 88 -14 434 0 233 3 431 6 439 6 15 38 16 298 14 l291 -3 0 -445z m-1343
239 c3 -39 5 -41 62 -64 62 -25 67 -25 104 8 l22 21 30 -29 c37 -35 37 -42 4
-76 l-25 -26 20 -44 c11 -24 22 -52 25 -61 4 -13 16 -18 46 -18 l40 0 0 -49 0
-50 -41 -3 c-39 -3 -41 -5 -64 -63 l-25 -59 30 -31 30 -31 -35 -34 -35 -34
-29 28 -29 28 -64 -25 c-62 -25 -63 -26 -66 -66 l-3 -41 -50 0 -49 0 0 40 c0
35 -4 42 -27 50 -16 5 -41 16 -56 25 -38 20 -40 19 -77 -11 l-31 -27 -30 29
c-35 34 -36 41 -4 74 l25 26 -25 59 c-23 58 -25 60 -64 63 l-41 3 0 49 0 49
41 3 c40 3 41 4 66 66 l25 64 -28 29 -28 29 34 35 34 35 32 -31 31 -30 44 20
c24 11 52 22 62 25 12 4 17 16 17 46 l0 40 49 0 50 0 3 -41z"/>
<path d="M820 1679 c-90 -26 -171 -114 -190 -205 -28 -134 32 -253 159 -312
46 -21 63 -24 125 -20 77 5 116 21 172 71 112 97 112 309 2 402 -74 63 -183
89 -268 64z m175 -58 c78 -36 123 -99 132 -187 13 -127 -75 -235 -205 -251
-96 -11 -193 44 -233 132 -37 81 -16 207 45 264 64 60 180 79 261 42z"/>
<path d="M883 1593 c-4 -10 -22 -32 -40 -49 -49 -47 -46 -112 8 -140 25 -12
29 -21 29 -55 0 -43 -14 -45 -30 -3 -18 46 -48 19 -36 -32 4 -14 20 -33 36
-42 17 -9 30 -25 30 -34 0 -22 28 -24 36 -3 4 8 21 30 40 49 19 19 34 43 34
54 0 37 -19 72 -45 82 -22 8 -25 16 -25 55 0 53 7 57 22 14 7 -20 16 -29 27
-27 26 6 16 59 -17 88 -16 14 -32 33 -35 43 -4 9 -11 17 -17 17 -6 0 -14 -8
-17 -17z m-3 -108 c0 -36 -13 -47 -24 -19 -5 14 9 54 19 54 3 0 5 -16 5 -35z
m60 -140 c0 -13 -4 -27 -10 -30 -6 -4 -10 8 -10 30 0 22 4 34 10 30 6 -3 10
-17 10 -30z"/>
<path d="M614 1055 c-13 -33 6 -35 285 -35 241 0 280 2 292 16 10 13 10 17 -2
25 -8 5 -139 9 -292 9 -234 0 -279 -2 -283 -15z"/>
<path d="M614 905 c-3 -8 -3 -19 1 -25 8 -13 553 -14 574 -1 8 5 11 16 8 25
-6 14 -39 16 -292 16 -240 0 -287 -2 -291 -15z"/>
<path d="M1332 988 c-8 -8 -12 -54 -12 -143 0 -89 4 -135 12 -143 9 -9 79 -12
254 -12 133 0 249 3 258 6 24 9 24 289 0 298 -9 3 -125 6 -258 6 -175 0 -245
-3 -254 -12z m478 -143 l0 -105 -220 0 -220 0 0 105 0 105 220 0 220 0 0 -105z"/>
<path d="M1334 618 c-4 -6 1 -17 11 -25 35 -25 94 -10 82 21 -8 19 -82 23 -93
4z"/>
<path d="M1474 618 c-4 -6 1 -17 11 -25 35 -25 94 -10 82 21 -8 19 -82 23 -93
4z"/>
<path d="M1615 620 c-11 -17 15 -40 44 -40 35 0 55 15 48 34 -7 18 -82 23 -92
6z"/>
<path d="M1753 614 c-7 -19 13 -34 47 -34 34 0 54 15 47 34 -4 11 -19 16 -47
16 -28 0 -43 -5 -47 -16z"/>
<path d="M1345 537 c-26 -20 -10 -37 36 -37 27 0 42 5 46 16 12 31 -47 46 -82
21z"/>
<path d="M1485 537 c-26 -20 -10 -37 36 -37 27 0 42 5 46 16 12 31 -47 46 -82
21z"/>
<path d="M1627 543 c-10 -3 -17 -12 -15 -21 5 -24 86 -30 95 -7 10 28 -28 42
-80 28z"/>
<path d="M1761 541 c-27 -17 -4 -41 39 -41 28 0 43 5 47 16 7 19 -13 34 -47
34 -14 0 -31 -4 -39 -9z"/>
<path d="M1335 450 c-12 -19 6 -30 51 -30 37 0 44 3 44 20 0 17 -7 20 -44 20
-25 0 -48 -4 -51 -10z"/>
<path d="M1475 450 c-12 -19 6 -30 51 -30 37 0 44 3 44 20 0 17 -7 20 -44 20
-25 0 -48 -4 -51 -10z"/>
<path d="M1614 449 c-11 -18 12 -31 52 -27 27 2 40 8 42 21 3 14 -4 17 -42 17
-25 0 -48 -5 -52 -11z"/>
<path d="M1755 450 c-12 -19 10 -32 51 -28 27 2 39 8 39 18 0 19 -79 27 -90
10z"/>
<path d="M1342 367 c-18 -21 9 -39 50 -35 25 2 33 8 33 23 0 16 -8 21 -36 23
-22 2 -40 -2 -47 -11z"/>
<path d="M1483 374 c-21 -9 -14 -33 11 -40 41 -10 71 -1 71 21 0 16 -7 20 -35
22 -19 1 -41 0 -47 -3z"/>
<path d="M1614 365 c-10 -25 9 -37 52 -33 31 2 39 7 39 23 0 16 -8 21 -43 23
-32 2 -44 -1 -48 -13z"/>
<path d="M1754 365 c-10 -25 9 -37 52 -33 31 2 39 7 39 23 0 16 -8 21 -43 23
-32 2 -44 -1 -48 -13z"/>
<path d="M1335 280 c-12 -19 6 -30 51 -30 37 0 44 3 44 20 0 17 -7 20 -44 20
-25 0 -48 -4 -51 -10z"/>
<path d="M1475 280 c-12 -19 6 -30 51 -30 37 0 44 3 44 20 0 17 -7 20 -44 20
-25 0 -48 -4 -51 -10z"/>
<path d="M1615 280 c-12 -19 6 -30 51 -30 37 0 44 3 44 20 0 17 -7 20 -44 20
-25 0 -48 -4 -51 -10z"/>
<path d="M1752 273 c3 -14 13 -18 48 -18 35 0 45 4 48 18 3 14 -4 17 -48 17
-44 0 -51 -3 -48 -17z"/>
<path d="M1341 196 c-10 -12 -8 -17 9 -26 33 -17 75 -9 75 15 0 16 -8 21 -36
23 -22 2 -40 -2 -48 -12z"/>
<path d="M1473 195 c-8 -23 14 -36 57 -33 27 2 35 7 35 23 0 16 -8 21 -43 23
-32 2 -44 -1 -49 -13z"/>
<path d="M1613 195 c-8 -23 14 -36 57 -33 27 2 35 7 35 23 0 16 -8 21 -43 23
-32 2 -44 -1 -49 -13z"/>
<path d="M1753 194 c-7 -19 13 -34 47 -34 34 0 54 15 47 34 -4 11 -19 16 -47
16 -28 0 -43 -5 -47 -16z"/>
<path d="M450 689 c-166 -32 -228 -239 -108 -359 42 -42 85 -60 146 -60 62 0
112 20 156 64 95 96 66 275 -54 333 -59 28 -86 32 -140 22z m121 -62 c103 -53
118 -195 30 -270 -88 -74 -209 -49 -261 54 -26 50 -25 96 3 149 27 51 90 90
147 90 20 0 57 -10 81 -23z"/>
</g>
</svg>
