<?xml version="1.0" standalone="no"?>
<!DOCTYPE svg PUBLIC "-//W3C//DTD SVG 20010904//EN"
 "http://www.w3.org/TR/2001/REC-SVG-20010904/DTD/svg10.dtd">
<svg version="1.0" xmlns="http://www.w3.org/2000/svg"
 width="200.000000pt" height="200.000000pt" viewBox="0 0 200.000000 200.000000"
 preserveAspectRatio="xMidYMid meet">
<metadata>
Created by potrace 1.16, written by Peter Selinger 2001-2019
</metadata>
<g transform="translate(0.000000,200.000000) scale(0.100000,-0.100000)"
fill="#000000" stroke="none">
<path d="M640 1900 l0 -50 333 0 333 0 187 -167 187 -167 0 -218 0 -218 50 0
50 0 0 435 0 435 -570 0 -570 0 0 -50z"/>
<path d="M497 1803 c-4 -3 -7 -208 -7 -454 l0 -448 33 -3 c30 -3 32 -6 35 -43
4 -48 14 -62 53 -70 23 -5 37 -1 64 19 18 14 38 26 42 26 5 0 24 -16 43 -35
l34 -35 195 0 c108 0 202 -4 210 -9 8 -5 11 -16 8 -25 -6 -14 -30 -16 -182
-16 l-175 0 -34 -37 c-26 -29 -32 -42 -25 -55 8 -16 31 -18 212 -20 183 -3
202 -5 205 -20 3 -17 -9 -18 -153 -18 -146 0 -157 -1 -149 -17 4 -10 9 -37 12
-60 l4 -42 141 -3 c118 -3 142 -6 142 -18 0 -13 -24 -15 -142 -18 -130 -2
-144 -4 -153 -22 -8 -15 -21 -20 -54 -20 -33 0 -45 -4 -49 -17 -2 -10 -8 -26
-12 -35 -7 -17 6 -18 191 -18 110 0 205 -4 213 -9 8 -5 11 -16 8 -25 -6 -14
-31 -16 -193 -16 -144 0 -185 -3 -182 -12 4 -10 58 -14 216 -16 l212 -2 0 409
c0 387 1 410 19 432 18 23 26 24 188 29 l168 5 3 198 2 197 -169 0 c-214 0
-201 -12 -201 187 l0 143 -383 0 c-211 0 -387 -3 -390 -7z m518 -107 c53 -24
112 -82 141 -138 10 -19 19 -65 22 -111 4 -72 2 -82 -27 -142 -109 -222 -422
-213 -524 14 -30 66 -29 171 2 231 40 77 68 107 132 139 81 41 177 43 254 7z
m192 -642 c3 -9 0 -20 -8 -25 -21 -13 -596 -12 -604 1 -4 6 -4 17 -1 25 5 13
52 15 306 15 266 0 301 -2 307 -16z m-2 -164 c0 -13 -41 -15 -299 -18 -175 -1
-304 2 -309 7 -28 28 10 31 306 29 261 -3 302 -5 302 -18z"/>
<path d="M818 1664 c-94 -29 -168 -135 -168 -238 1 -80 58 -169 134 -208 136
-70 299 2 342 150 37 126 -37 260 -164 298 -56 17 -84 17 -144 -2z m102 -59
c0 -6 11 -17 24 -25 28 -15 51 -62 42 -86 -8 -21 -40 -14 -44 11 -8 42 -22 38
-22 -6 0 -39 4 -47 25 -57 54 -25 57 -115 5 -153 -15 -12 -31 -30 -33 -40 -6
-24 -35 -25 -44 -1 -4 9 -22 31 -40 48 -41 38 -47 87 -11 82 13 -2 24 -11 26
-23 8 -45 22 -37 22 13 0 38 -4 52 -14 52 -24 0 -56 50 -56 87 0 33 36 83 60
83 5 0 10 9 10 19 0 11 6 21 13 24 15 5 37 -11 37 -28z"/>
<path d="M857 1533 c-11 -10 -8 -51 3 -58 6 -4 10 8 10 29 0 37 -2 41 -13 29z"/>
<path d="M920 1365 c0 -22 4 -34 10 -30 6 3 10 17 10 30 0 13 -4 27 -10 30 -6
4 -10 -8 -10 -30z"/>
<path d="M1322 1649 l3 -124 133 -3 c78 -1 132 1 130 7 -3 7 -204 191 -251
230 -17 13 -17 7 -15 -110z"/>
<path d="M1316 1018 c-14 -20 -16 -80 -16 -458 0 -361 2 -440 14 -456 14 -18
29 -19 304 -19 230 0 292 3 305 14 15 12 17 57 17 461 0 420 -1 448 -18 463
-16 15 -52 17 -305 17 -284 0 -286 0 -301 -22z m579 -178 l0 -155 -275 0 -275
0 -3 149 c-2 113 1 151 10 158 7 4 132 7 278 5 l265 -2 0 -155z m-442 -244 c8
-21 -2 -26 -55 -26 -45 0 -62 13 -41 33 13 13 91 7 96 -7z m145 -8 c3 -15 -4
-18 -46 -18 -54 0 -63 5 -55 26 8 23 97 15 101 -8z m147 2 c0 -11 -14 -16 -52
-18 -40 -2 -53 0 -53 11 0 23 12 28 60 25 32 -2 45 -7 45 -18z m143 -2 c3 -15
-4 -18 -47 -18 -45 0 -51 3 -51 21 0 18 5 20 47 17 36 -2 49 -7 51 -20z m-433
-88 c0 -11 -14 -16 -52 -18 -48 -3 -53 -1 -53 18 0 19 5 21 53 18 38 -2 52 -7
52 -18z m145 0 c0 -17 -7 -20 -49 -20 -28 0 -53 5 -56 10 -12 20 7 30 56 30
42 0 49 -3 49 -20z m145 0 c0 -11 -13 -16 -44 -18 -45 -3 -68 8 -56 28 11 17
100 9 100 -10z m143 -2 c3 -15 -4 -18 -47 -18 -45 0 -51 3 -51 21 0 18 5 20
47 17 36 -2 49 -7 51 -20z m-438 -89 c0 -18 -5 -20 -47 -17 -36 2 -49 7 -51
21 -3 14 4 17 47 17 45 0 51 -3 51 -21z m148 4 c-4 -22 -86 -32 -99 -12 -13
22 0 29 52 29 43 0 50 -3 47 -17z m147 -3 c0 -11 -13 -16 -44 -18 -45 -3 -68
8 -56 28 11 17 100 9 100 -10z m145 0 c0 -17 -7 -20 -50 -20 -43 0 -50 3 -50
20 0 17 7 20 50 20 43 0 50 -3 50 -20z m-442 -87 c3 -21 -1 -23 -42 -23 -47 0
-62 10 -52 36 4 11 18 14 48 12 36 -2 44 -7 46 -25z m147 2 c0 -16 -8 -21 -44
-23 -28 -2 -47 1 -52 10 -14 22 12 39 55 36 33 -2 41 -7 41 -23z m145 10 c19
-22 3 -35 -46 -35 -47 0 -71 23 -43 41 22 14 75 10 89 -6z m148 -12 c3 -21 0
-23 -47 -23 -43 0 -51 3 -51 18 0 28 10 33 55 30 33 -2 41 -7 43 -25z m-441
-74 c22 -22 2 -39 -42 -39 -45 0 -61 11 -51 35 7 18 77 20 93 4z m148 -14 c0
-16 -8 -21 -44 -23 -28 -2 -47 1 -52 10 -14 22 12 39 55 36 33 -2 41 -7 41
-23z m144 16 c28 -18 4 -41 -43 -41 -46 0 -62 10 -52 35 6 17 72 20 95 6z
m146 -16 c0 -16 -8 -21 -39 -23 -43 -4 -62 8 -52 33 4 12 16 15 48 13 35 -2
43 -7 43 -23z m-432 -79 c8 -21 -14 -36 -54 -36 -40 0 -54 11 -45 35 7 20 92
21 99 1z m142 -11 c0 -16 -8 -21 -38 -23 -42 -4 -69 12 -60 34 4 11 18 14 52
12 38 -3 46 -6 46 -23z m150 15 c11 -18 -16 -40 -49 -40 -40 0 -61 14 -53 34
7 18 91 23 102 6z m142 -6 c8 -20 -13 -34 -54 -34 -34 0 -48 12 -39 35 8 21
85 20 93 -1z"/>
<path d="M1390 835 l0 -115 230 0 230 0 0 115 0 115 -230 0 -230 0 0 -115z"/>
<path d="M408 814 l-3 -45 -63 -26 -64 -25 -27 26 c-34 33 -41 32 -74 -2 -33
-35 -33 -39 -1 -73 l26 -27 -25 -64 -26 -63 -45 -3 -46 -3 0 -55 0 -54 45 0
c41 0 47 -3 55 -27 5 -16 16 -41 25 -56 20 -39 19 -46 -12 -79 l-27 -28 37
-37 37 -37 28 27 c32 31 43 33 80 13 15 -8 39 -19 54 -24 22 -9 27 -18 30 -54
l3 -43 52 -3 52 -3 3 46 3 46 63 26 64 25 29 -28 29 -28 37 37 37 37 -28 29
-28 29 25 64 26 63 45 3 46 3 0 54 0 54 -46 3 -45 3 -26 64 -25 63 31 31 31
31 -37 38 -37 38 -32 -31 -32 -31 -64 25 -63 26 -3 45 -3 46 -54 0 -54 0 -3
-46z m125 -145 c53 -14 132 -93 146 -144 31 -115 -17 -222 -123 -271 -92 -43
-189 -23 -255 52 -82 93 -78 218 8 303 65 65 137 85 224 60z"/>
<path d="M381 613 c-63 -31 -102 -119 -87 -198 8 -43 59 -103 103 -121 42 -18
107 -18 141 0 123 64 138 228 29 307 -33 24 -50 29 -96 29 -31 0 -71 -8 -90
-17z"/>
</g>
</svg>
