<?xml version="1.0" standalone="no"?>
<!DOCTYPE svg PUBLIC "-//W3C//DTD SVG 20010904//EN"
 "http://www.w3.org/TR/2001/REC-SVG-20010904/DTD/svg10.dtd">
<svg version="1.0" xmlns="http://www.w3.org/2000/svg"
 width="200.000000pt" height="200.000000pt" viewBox="0 0 200.000000 200.000000"
 preserveAspectRatio="xMidYMid meet">
<metadata>
Created by potrace 1.16, written by Peter Selinger 2001-2019
</metadata>
<g transform="translate(0.000000,200.000000) scale(0.100000,-0.100000)"
fill="#000000" stroke="none">
<path d="M311 1835 c-63 -24 -119 -49 -125 -55 -7 -7 -6 -20 2 -43 16 -45 17
-45 -23 -61 -22 -9 -35 -22 -35 -33 0 -10 24 -79 53 -153 44 -112 56 -136 75
-138 13 -2 25 3 28 12 3 9 -15 70 -41 137 -25 67 -44 124 -41 126 16 17 38
-23 95 -177 36 -94 72 -175 80 -180 19 -9 260 80 271 101 7 13 -151 447 -179
492 -16 24 -31 21 -160 -28z"/>
<path d="M578 1869 c-14 -8 -18 -24 -18 -76 0 -58 9 -89 66 -237 50 -131 63
-175 56 -191 -7 -15 5 -57 52 -178 l61 -157 436 0 c376 0 438 -2 449 -15 10
-12 10 -18 0 -30 -11 -13 -72 -15 -436 -15 -233 0 -424 -2 -424 -4 0 -3 4 -16
10 -30 l10 -26 334 0 c292 0 335 -2 347 -16 9 -11 10 -20 2 -32 -9 -15 -44
-17 -332 -20 -176 -1 -321 -4 -321 -6 0 -3 4 -16 10 -30 l10 -26 249 0 c209 0
251 -2 261 -15 10 -12 10 -18 0 -30 -10 -13 -52 -15 -256 -15 l-244 0 0 -30 0
-30 384 0 c327 0 385 -2 396 -15 7 -8 10 -22 6 -30 -4 -13 -60 -15 -398 -17
l-393 -3 -3 -32 c-3 -31 -1 -33 26 -33 16 0 35 7 42 15 18 22 54 15 58 -10 2
-12 -8 -31 -23 -45 -23 -21 -25 -31 -25 -106 0 -57 -4 -85 -14 -93 -9 -8 -51
-11 -122 -9 l-109 3 -2 121 -1 121 -55 52 c-41 39 -61 68 -78 114 l-24 62 -3
-305 c-2 -278 -1 -306 15 -318 22 -16 1243 -18 1274 -2 18 10 19 29 19 715 l0
704 -142 3 -143 3 -3 163 -2 162 -493 0 c-315 0 -498 -4 -509 -11z m743 -159
c84 -23 177 -122 205 -217 45 -154 -44 -333 -192 -386 -73 -26 -186 -23 -249
7 -109 51 -175 148 -183 271 -8 128 51 241 156 298 85 46 162 54 263 27z m359
-1225 c10 -12 10 -18 0 -30 -11 -13 -59 -15 -325 -15 -280 0 -314 2 -319 16
-16 42 2 44 324 44 261 0 309 -2 320 -15z m4 -131 c16 -42 -2 -44 -324 -44
-260 0 -309 2 -320 15 -7 8 -10 22 -6 30 5 13 49 15 325 15 285 0 320 -2 325
-16z"/>
<path d="M1102 1634 c-236 -117 -155 -483 107 -484 83 0 130 19 188 75 83 81
101 180 54 290 -56 128 -220 184 -349 119z m146 -46 c2 -16 9 -28 16 -28 17 0
52 -39 61 -68 13 -45 -38 -72 -54 -29 -13 35 -37 50 -66 43 -56 -14 -40 -59
24 -70 102 -16 135 -126 51 -174 -16 -9 -30 -24 -30 -33 0 -22 -26 -43 -45
-35 -8 3 -15 16 -15 29 0 16 -9 28 -24 35 -54 24 -75 104 -29 110 15 2 25 -5
35 -25 16 -33 67 -44 88 -19 18 23 -3 45 -54 53 -54 8 -96 50 -96 95 1 37 13
57 53 82 15 10 27 26 27 35 0 43 53 41 58 -1z"/>
<path d="M1640 1730 l0 -120 106 0 c81 0 103 3 98 13 -10 16 -196 227 -200
227 -2 0 -4 -54 -4 -120z"/>
<path d="M538 1286 c-58 -22 -110 -44 -114 -49 -5 -5 172 -492 191 -524 0 -1
46 15 101 37 54 22 107 40 118 40 10 0 16 5 13 13 -38 101 -199 522 -200 523
-1 1 -50 -17 -109 -40z"/>
<path d="M800 749 c-14 -5 -56 -21 -93 -35 -89 -34 -87 -47 20 -147 85 -79 89
-82 111 -69 14 9 39 220 29 246 -7 18 -30 20 -67 5z"/>
<path d="M827 461 c-18 -6 -18 -7 1 -24 18 -16 20 -16 42 8 l23 25 -24 -1
c-13 0 -32 -4 -42 -8z"/>
<path d="M780 372 c0 -12 7 -25 15 -29 27 -10 30 6 7 30 l-22 21 0 -22z"/>
<path d="M885 370 c-20 -22 -15 -36 10 -27 8 4 15 16 15 27 0 25 -2 25 -25 0z"/>
</g>
</svg>
