<?xml version="1.0" standalone="no"?>
<!DOCTYPE svg PUBLIC "-//W3C//DTD SVG 20010904//EN"
 "http://www.w3.org/TR/2001/REC-SVG-20010904/DTD/svg10.dtd">
<svg version="1.0" xmlns="http://www.w3.org/2000/svg"
 width="200.000000pt" height="200.000000pt" viewBox="0 0 200.000000 200.000000"
 preserveAspectRatio="xMidYMid meet">
<metadata>
Created by potrace 1.16, written by Peter Selinger 2001-2019
</metadata>
<g transform="translate(0.000000,200.000000) scale(0.100000,-0.100000)"
fill="#000000" stroke="none">
<path d="M311 1835 c-63 -24 -119 -49 -125 -55 -7 -7 -6 -20 2 -43 16 -45 17
-45 -23 -61 -22 -9 -35 -22 -35 -33 0 -10 24 -79 53 -153 44 -112 56 -136 75
-138 13 -2 25 3 28 12 3 9 -15 70 -41 137 -25 67 -44 124 -41 126 16 17 38
-23 96 -177 46 -124 70 -175 85 -182 15 -7 50 -88 138 -316 l118 -307 85 -78
c46 -42 87 -77 92 -77 25 1 33 25 44 132 l11 115 -117 305 c-92 238 -116 310
-108 324 7 15 -10 71 -78 249 -49 127 -93 238 -99 248 -16 24 -31 21 -160 -28z
m287 -557 c21 -56 191 -495 199 -515 4 -11 -43 -37 -92 -49 -22 -5 -42 41
-221 512 l-23 62 52 20 c29 11 55 21 59 21 4 1 15 -23 26 -51z"/>
<path d="M578 1869 c-30 -17 -24 -127 10 -214 l27 -70 3 113 3 112 479 0 479
0 3 -127 3 -128 113 -3 112 -3 0 -679 0 -680 -595 0 -595 0 0 212 c0 208 -1
214 -27 283 l-28 70 -3 -309 c-2 -241 1 -311 10 -318 15 -9 1258 -11 1282 -2
14 6 16 80 16 739 l0 733 -115 131 c-64 72 -124 135 -135 141 -26 14 -1018 13
-1042 -1z"/>
<path d="M1152 1720 c-107 -22 -203 -108 -237 -211 -24 -70 -17 -179 15 -244
92 -190 344 -239 501 -97 154 138 140 370 -29 499 -64 49 -166 70 -250 53z
m96 -132 c2 -16 9 -28 16 -28 17 0 52 -39 61 -68 13 -45 -38 -72 -54 -29 -13
35 -37 50 -66 43 -56 -14 -40 -59 24 -70 102 -16 135 -126 51 -174 -16 -9 -30
-24 -30 -33 0 -22 -26 -43 -45 -35 -8 3 -15 16 -15 29 0 16 -9 28 -24 35 -54
24 -75 104 -29 110 15 2 25 -5 35 -25 16 -33 67 -44 88 -19 18 23 -3 45 -54
53 -54 8 -96 50 -96 95 1 37 13 57 53 82 15 10 27 26 27 35 0 43 53 41 58 -1z"/>
<path d="M804 1008 c3 -13 6 -26 6 -30 0 -5 193 -8 429 -8 369 0 430 2 441 15
10 12 10 18 0 30 -11 13 -73 15 -447 15 l-435 0 6 -22z"/>
<path d="M850 892 c0 -10 6 -26 13 -35 11 -16 40 -17 331 -15 295 3 320 4 330
21 9 15 7 21 -8 33 -16 11 -77 14 -343 14 -305 0 -323 -1 -323 -18z"/>
<path d="M898 750 l4 -30 242 0 c253 0 275 4 255 42 -9 17 -27 18 -258 18
l-248 0 5 -30z"/>
<path d="M896 638 c-3 -13 -6 -29 -6 -35 0 -20 773 -19 789 1 15 18 5 43 -22
50 -12 3 -187 6 -388 6 l-367 0 -6 -22z"/>
<path d="M960 545 c-7 -8 -28 -15 -46 -15 -26 0 -34 -4 -34 -18 0 -10 -5 -23
-12 -30 -9 -9 -8 -12 7 -12 17 0 16 -2 -5 -25 l-23 -24 -57 49 c-32 28 -61 50
-64 50 -4 0 -5 -53 -4 -117 l3 -118 109 -3 c71 -2 113 1 122 9 10 8 14 36 14
93 0 75 2 85 25 106 15 14 25 33 23 45 -4 25 -40 32 -58 10z m-150 -180 l23
-25 -26 0 c-22 0 -27 5 -27 25 0 14 1 25 3 25 2 0 14 -11 27 -25z m96 -10 c-3
-8 -15 -15 -27 -15 l-22 0 24 26 c23 24 37 19 25 -11z"/>
<path d="M1040 485 c-7 -8 -10 -22 -6 -30 5 -13 49 -15 325 -15 285 0 320 2
325 16 16 42 -2 44 -324 44 -260 0 -309 -2 -320 -15z"/>
<path d="M1053 370 c-25 -10 -30 -29 -11 -48 19 -19 621 -17 637 2 15 18 5 43
-22 50 -36 9 -580 6 -604 -4z"/>
</g>
</svg>
