<?xml version="1.0" standalone="no"?>
<!DOCTYPE svg PUBLIC "-//W3C//DTD SVG 20010904//EN"
 "http://www.w3.org/TR/2001/REC-SVG-20010904/DTD/svg10.dtd">
<svg version="1.0" xmlns="http://www.w3.org/2000/svg"
 width="200.000000pt" height="200.000000pt" viewBox="0 0 200.000000 200.000000"
 preserveAspectRatio="xMidYMid meet">
<metadata>
Created by potrace 1.16, written by Peter Selinger 2001-2019
</metadata>
<g transform="translate(0.000000,200.000000) scale(0.100000,-0.100000)"
fill="#000000" stroke="none">
<path d="M311 1835 c-63 -24 -119 -49 -125 -55 -7 -7 -6 -20 2 -43 16 -45 17
-45 -23 -61 -22 -9 -35 -22 -35 -33 0 -10 24 -79 53 -153 44 -112 56 -136 75
-138 13 -2 25 3 28 12 3 9 -15 70 -41 137 -25 67 -44 124 -41 126 16 17 38
-23 96 -177 46 -125 70 -175 85 -182 14 -6 41 -63 95 -201 l75 -192 3 -365 c2
-327 4 -366 19 -378 13 -9 157 -12 640 -12 610 0 623 0 643 20 20 20 20 33 20
728 0 649 -1 710 -17 732 -31 45 -224 260 -243 270 -26 14 -1015 14 -1041 0
-17 -9 -19 -22 -19 -107 0 -61 -4 -93 -9 -87 -6 5 -24 47 -41 94 -35 94 -45
110 -69 109 -9 0 -67 -20 -130 -44z m124 -42 c73 -187 146 -385 143 -389 -8
-7 -151 -64 -162 -64 -10 0 -156 371 -156 397 0 6 35 25 78 42 93 36 88 35 97
14z m1147 -110 l3 -128 113 -3 112 -3 0 -679 0 -680 -595 0 -595 0 1 253 c0
174 3 244 10 228 5 -14 37 -50 71 -80 56 -50 59 -55 39 -63 -21 -7 -22 -13
-19 -125 l3 -118 109 -3 c71 -2 113 1 122 9 10 8 14 36 14 93 0 75 2 85 25
106 15 14 25 33 23 45 -4 25 -40 32 -58 10 -12 -14 -90 -22 -102 -10 -3 3 -3
17 0 30 l4 25 403 0 c329 0 405 3 414 14 15 18 5 43 -22 50 -12 3 -194 6 -404
6 l-383 0 0 30 0 30 258 0 c270 0 292 3 271 42 -9 17 -27 18 -279 18 -149 0
-270 3 -270 8 0 4 -3 17 -6 29 l-6 23 337 2 c314 3 339 4 349 21 9 15 7 21 -8
33 -16 11 -80 14 -368 14 -191 0 -348 3 -348 8 0 4 -3 17 -6 30 l-6 22 440 0
c378 0 441 2 452 15 10 12 10 18 0 30 -10 13 -79 15 -467 17 l-455 3 -59 155
c-46 118 -58 160 -51 175 7 14 4 34 -9 65 -15 37 -18 75 -18 213 l-1 167 480
0 479 0 3 -127z m112 20 c22 -26 49 -57 59 -70 l18 -23 -65 0 -66 0 0 70 c0
39 3 70 6 70 4 0 25 -21 48 -47z m-1061 -515 c31 -79 79 -204 108 -278 28 -74
53 -140 56 -147 3 -7 -12 -19 -33 -28 -76 -32 -79 -31 -99 22 -10 26 -47 122
-82 212 -36 91 -78 199 -93 242 l-29 77 52 20 c29 12 55 21 59 21 3 1 31 -63
61 -141z m167 -553 l0 -46 -35 28 c-19 15 -35 31 -35 34 0 5 46 26 63 28 4 1
7 -19 7 -44z m70 -190 c-22 -23 -25 -24 -42 -8 -28 25 -22 33 24 33 l41 0 -23
-25z m-60 -80 l23 -25 -26 0 c-22 0 -27 5 -27 25 0 14 1 25 3 25 2 0 14 -11
27 -25z m96 -10 c-3 -8 -15 -15 -27 -15 l-22 0 24 26 c23 24 37 19 25 -11z"/>
<path d="M1152 1720 c-107 -22 -203 -108 -237 -211 -24 -70 -17 -179 15 -244
92 -190 344 -239 501 -97 154 138 140 370 -29 499 -64 49 -166 70 -250 53z
m173 -80 c118 -57 176 -184 140 -307 -21 -71 -96 -151 -161 -171 -142 -42
-284 26 -329 157 -42 125 8 253 124 313 68 36 162 39 226 8z"/>
<path d="M1197 1614 c-4 -4 -7 -15 -7 -25 0 -10 -13 -26 -29 -35 -85 -50 -56
-161 45 -177 51 -8 72 -30 54 -53 -21 -25 -72 -14 -88 19 -18 37 -56 34 -60
-4 -3 -29 40 -89 64 -89 8 0 14 -10 14 -25 0 -14 7 -28 15 -31 19 -8 45 13 45
35 0 9 14 24 30 33 84 48 51 158 -51 174 -64 11 -80 56 -24 70 29 7 53 -8 66
-43 16 -43 67 -16 54 29 -9 29 -44 68 -61 68 -7 0 -14 12 -16 28 -3 26 -34 43
-51 26z"/>
<path d="M1040 485 c-7 -8 -10 -22 -6 -30 5 -13 49 -15 325 -15 285 0 320 2
325 16 16 42 -2 44 -324 44 -260 0 -309 -2 -320 -15z"/>
<path d="M1053 370 c-25 -10 -30 -29 -11 -48 19 -19 621 -17 637 2 15 18 5 43
-22 50 -36 9 -580 6 -604 -4z"/>
</g>
</svg>
