<?xml version="1.0" standalone="no"?>
<!DOCTYPE svg PUBLIC "-//W3C//DTD SVG 20010904//EN"
 "http://www.w3.org/TR/2001/REC-SVG-20010904/DTD/svg10.dtd">
<svg version="1.0" xmlns="http://www.w3.org/2000/svg"
 width="200.000000pt" height="200.000000pt" viewBox="0 0 200.000000 200.000000"
 preserveAspectRatio="xMidYMid meet">
<metadata>
Created by potrace 1.16, written by Peter Selinger 2001-2019
</metadata>
<g transform="translate(0.000000,200.000000) scale(0.100000,-0.100000)"
fill="#000000" stroke="none">
<path d="M926 1818 c-37 -39 -65 -76 -63 -82 2 -6 18 -12 35 -14 l32 -3 0 -99
c0 -109 1 -110 70 -110 69 0 70 1 70 110 l0 99 33 3 c18 2 32 9 32 16 0 17
-116 150 -132 151 -6 1 -41 -31 -77 -71z m118 -17 c35 -36 36 -39 17 -44 -20
-5 -21 -12 -21 -106 l0 -101 -40 0 -40 0 0 101 c0 94 -1 101 -21 106 -19 5
-18 8 17 44 21 22 41 39 44 39 3 0 23 -17 44 -39z"/>
<path d="M238 1453 c-2 -5 -1 -51 2 -103 5 -103 18 -121 55 -80 l19 21 73 -73
73 -73 47 48 48 47 -75 75 -74 74 24 26 c21 22 22 28 10 35 -18 11 -197 13
-202 3z m152 -31 c0 -4 -5 -13 -12 -20 -10 -10 3 -27 57 -82 73 -73 76 -86 32
-114 -14 -9 -29 2 -86 58 -56 56 -73 67 -84 58 -21 -17 -27 -5 -27 55 l0 53
60 0 c33 0 60 -4 60 -8z"/>
<path d="M1560 1450 c-12 -7 -11 -13 10 -35 l24 -26 -74 -74 -75 -75 48 -47
47 -48 73 73 73 73 19 -21 c37 -41 50 -23 55 80 3 52 4 98 2 103 -5 10 -184 8
-202 -3z m170 -73 c0 -60 -6 -72 -27 -55 -11 9 -28 -2 -84 -58 -72 -72 -85
-75 -113 -31 -9 14 2 29 58 86 58 58 67 72 57 85 -14 16 3 22 72 25 l37 1 0
-53z"/>
<path d="M910 1434 c-129 -35 -223 -133 -251 -264 l-11 -50 -79 0 c-94 0 -148
-22 -179 -73 -19 -30 -20 -52 -20 -422 0 -386 1 -390 23 -430 13 -22 40 -49
62 -62 l40 -23 519 0 519 0 41 24 c59 35 86 88 86 170 0 62 1 66 23 66 45 0
48 9 45 136 l-3 119 -32 3 -33 3 -2 242 -3 242 -152 3 -153 3 -6 27 c-35 157
-118 250 -259 287 -72 18 -103 18 -175 -1z m228 -54 c103 -52 162 -138 170
-252 6 -91 -3 -138 -29 -138 -16 0 -18 4 -12 28 5 15 8 57 7 93 -1 80 -37 154
-99 204 -179 146 -447 24 -449 -205 -1 -36 2 -77 7 -92 6 -24 4 -28 -12 -28
-24 0 -31 26 -31 115 0 121 62 219 172 275 52 26 72 30 138 30 66 0 86 -4 138
-30z m-57 -52 c52 -15 113 -68 138 -121 23 -47 29 -146 11 -191 -9 -24 -14
-26 -70 -26 l-60 0 0 35 c0 47 -35 82 -90 91 -23 4 -51 15 -63 24 -18 15 -20
22 -12 46 16 44 57 54 105 26 49 -28 67 -10 24 25 -16 13 -36 30 -45 38 -20
19 -39 19 -39 0 0 -8 -5 -15 -12 -15 -7 0 -25 -12 -40 -27 -52 -49 -26 -133
46 -148 14 -3 37 -7 51 -10 33 -7 53 -48 35 -70 -10 -12 -38 -15 -146 -15
l-134 0 -11 28 c-6 15 -11 53 -11 84 0 167 156 276 323 226z m-424 -290 l9
-43 -56 -3 c-60 -3 -85 -17 -60 -32 9 -6 231 -10 548 -10 l532 0 0 -45 0 -45
-570 0 c-629 0 -613 -2 -646 62 -28 54 -3 126 51 149 11 4 57 8 102 8 l82 1 8
-42z m973 -3 l0 -45 -149 0 -149 0 9 38 c5 20 9 40 9 45 0 4 63 7 140 7 l140
0 0 -45z m-577 -213 l577 -3 0 -94 0 -95 -140 0 c-153 0 -181 -7 -219 -56 -25
-32 -28 -92 -6 -134 27 -52 64 -64 224 -68 l143 -4 -4 -67 c-2 -50 -9 -75 -27
-100 -44 -61 -40 -61 -588 -61 -549 0 -540 -1 -587 63 -20 27 -21 43 -24 348
l-3 319 38 -23 38 -22 578 -3z m637 -318 l0 -95 -179 3 c-158 3 -181 5 -199
22 -47 42 -34 127 22 152 22 9 80 13 194 14 l162 0 0 -96z"/>
<path d="M476 583 c-3 -3 -6 -78 -6 -165 0 -155 1 -159 25 -183 l24 -25 384 0
c211 0 387 3 390 7 4 3 2 12 -4 20 -9 10 -85 13 -390 13 -364 0 -379 1 -389
19 -5 11 -10 84 -10 165 0 132 -6 167 -24 149z"/>
<path d="M1381 241 c-24 -15 -1 -31 45 -31 31 0 44 4 44 14 0 24 -60 35 -89
17z"/>
<path d="M1435 572 c-54 -11 -75 -82 -35 -122 53 -53 141 13 114 85 -8 21 -54
43 -79 37z m45 -53 c14 -26 -3 -49 -36 -49 -28 0 -38 14 -30 46 8 31 50 33 66
3z"/>
</g>
</svg>
