<?xml version="1.0" standalone="no"?>
<!DOCTYPE svg PUBLIC "-//W3C//DTD SVG 20010904//EN"
 "http://www.w3.org/TR/2001/REC-SVG-20010904/DTD/svg10.dtd">
<svg version="1.0" xmlns="http://www.w3.org/2000/svg"
 width="200.000000pt" height="200.000000pt" viewBox="0 0 200.000000 200.000000"
 preserveAspectRatio="xMidYMid meet">
<metadata>
Created by potrace 1.16, written by Peter Selinger 2001-2019
</metadata>
<g transform="translate(0.000000,200.000000) scale(0.100000,-0.100000)"
fill="#000000" stroke="none">
<path d="M925 1811 c-33 -38 -60 -75 -60 -83 0 -7 14 -14 32 -16 l32 -3 3
-102 3 -102 65 0 65 0 3 102 3 102 31 3 c17 2 33 8 35 14 5 16 -118 154 -137
154 -8 0 -42 -31 -75 -69z"/>
<path d="M230 1366 c0 -47 5 -97 10 -112 l11 -27 22 22 c13 11 28 21 34 21 6
0 36 -29 68 -65 31 -36 64 -65 74 -65 18 0 91 69 91 86 0 6 -12 21 -26 35 -14
13 -44 46 -66 72 -38 45 -39 49 -24 66 9 10 16 22 16 28 0 12 -70 23 -151 23
l-59 0 0 -84z"/>
<path d="M1593 1443 c-38 -5 -42 -22 -13 -48 21 -19 20 -19 -50 -90 -38 -39
-70 -75 -70 -81 0 -16 74 -84 92 -84 9 0 42 29 73 65 32 36 62 65 68 65 6 0
21 -10 34 -21 l22 -22 11 27 c5 15 10 65 10 112 l0 84 -72 -2 c-40 0 -88 -3
-105 -5z"/>
<path d="M893 1381 c-97 -33 -167 -109 -198 -215 -18 -59 -19 -93 -4 -152 9
-33 16 -44 31 -44 15 0 18 4 13 18 -5 9 -10 45 -13 80 -8 112 45 206 145 260
52 27 71 32 132 32 83 0 133 -20 194 -79 61 -58 81 -104 82 -191 0 -41 -4 -85
-8 -97 -7 -19 -5 -23 12 -23 16 0 22 11 31 55 15 71 6 124 -31 203 -68 140
-233 206 -386 153z"/>
<path d="M894 1306 c-93 -43 -154 -154 -140 -253 11 -84 9 -83 160 -83 106 0
136 3 146 15 28 34 -15 85 -73 85 -22 0 -65 24 -79 44 -23 34 11 126 47 126 7
0 20 10 28 23 l16 22 18 -21 c10 -11 30 -28 46 -37 15 -10 27 -24 27 -32 0
-20 -8 -19 -54 4 -39 20 -58 19 -88 -7 -41 -34 -12 -80 58 -93 61 -11 94 -45
94 -95 l0 -35 62 3 63 3 14 53 c52 195 -158 365 -345 278z"/>
<path d="M464 1056 c-43 -19 -64 -53 -64 -102 0 -52 28 -90 78 -104 25 -7 221
-10 597 -8 l560 3 0 45 0 45 -552 3 c-482 2 -553 4 -553 17 0 12 14 15 66 15
l67 0 -7 31 c-3 17 -6 40 -6 50 0 17 -8 19 -77 19 -43 -1 -92 -7 -109 -14z"/>
<path d="M1350 1052 c0 -11 -3 -34 -6 -51 l-7 -32 149 3 149 3 0 45 0 45 -142
3 c-135 2 -143 1 -143 -16z"/>
<path d="M392 531 c3 -307 4 -321 24 -348 12 -15 36 -37 55 -48 33 -19 52 -20
544 -20 495 0 511 1 545 20 48 29 71 74 77 150 l6 64 -154 3 c-142 3 -157 5
-186 26 -69 49 -66 161 6 209 32 21 44 23 183 23 l149 0 -3 98 -3 97 -590 5
c-541 5 -593 6 -618 23 -14 9 -29 17 -32 17 -4 0 -5 -144 -3 -319z m106 -128
c2 -118 6 -164 16 -172 8 -7 138 -12 396 -13 296 -2 384 -6 388 -15 3 -10 -81
-13 -396 -13 -393 0 -399 0 -418 21 -17 18 -19 40 -22 176 -4 161 0 187 21
181 9 -4 13 -48 15 -165z m980 -200 c2 -9 -11 -13 -47 -13 -39 0 -51 4 -51 16
0 12 10 14 47 12 26 -2 48 -9 51 -15z"/>
<path d="M1350 567 c-25 -8 -40 -23 -53 -49 -16 -33 -17 -40 -3 -71 8 -20 23
-40 34 -46 13 -7 90 -11 196 -11 l176 0 0 95 0 95 -157 -1 c-95 0 -172 -5
-193 -12z m155 -37 c42 -47 8 -120 -56 -120 -59 0 -91 78 -49 120 26 26 81 26
105 0z"/>
<path d="M1426 504 c-9 -8 -16 -19 -16 -24 0 -9 28 -40 36 -40 17 0 44 23 44
38 0 38 -37 53 -64 26z"/>
</g>
</svg>
