<?xml version="1.0" standalone="no"?>
<!DOCTYPE svg PUBLIC "-//W3C//DTD SVG 20010904//EN"
 "http://www.w3.org/TR/2001/REC-SVG-20010904/DTD/svg10.dtd">
<svg version="1.0" xmlns="http://www.w3.org/2000/svg"
 width="200.000000pt" height="200.000000pt" viewBox="0 0 200.000000 200.000000"
 preserveAspectRatio="xMidYMid meet">
<metadata>
Created by potrace 1.16, written by Peter Selinger 2001-2019
</metadata>
<g transform="translate(0.000000,200.000000) scale(0.100000,-0.100000)"
fill="#000000" stroke="none">
<path d="M493 1473 c-332 -305 -488 -454 -488 -468 0 -13 8 -21 22 -23 15 -2
45 19 105 73 l83 77 3 -518 c2 -474 4 -520 19 -531 13 -10 182 -13 763 -13
581 0 750 3 763 13 15 11 17 57 19 531 l3 519 82 -77 c61 -58 88 -77 105 -74
48 7 29 35 -101 154 l-129 119 -1 261 c-1 328 7 309 -145 309 -146 0 -149 -3
-156 -167 l-5 -121 -208 192 c-115 105 -217 191 -227 191 -10 0 -231 -194
-507 -447z m870 47 l356 -325 0 -527 1 -528 -720 0 -720 0 1 528 0 527 357
327 c196 179 360 326 363 325 3 -1 166 -148 362 -327z m317 20 c0 -186 -2
-220 -14 -213 -7 4 -46 38 -85 75 l-71 68 0 145 0 145 85 0 85 0 0 -220z"/>
<path d="M902 1579 c-137 -69 -163 -248 -52 -356 34 -34 105 -63 151 -63 76 0
165 60 200 135 42 91 6 212 -81 270 -61 40 -154 47 -218 14z m188 -69 c35 -25
69 -89 70 -131 0 -41 -42 -110 -80 -130 -19 -11 -55 -19 -80 -19 -129 0 -204
143 -127 243 53 70 149 86 217 37z"/>
<path d="M507 964 c-4 -4 -7 -19 -7 -34 0 -22 -8 -30 -41 -46 -80 -35 -117
-133 -85 -219 21 -53 55 -77 146 -100 84 -22 95 -28 110 -64 44 -106 -90 -202
-170 -123 -16 16 -32 45 -35 65 -8 40 -31 55 -53 33 -35 -35 16 -138 85 -171
33 -16 42 -26 45 -50 2 -24 8 -30 28 -30 20 0 26 5 28 30 2 24 11 33 41 46 50
22 92 78 98 133 11 93 -42 163 -138 186 -96 22 -117 35 -129 77 -36 119 119
196 187 94 13 -19 23 -44 23 -57 0 -28 13 -37 40 -29 26 8 26 46 1 101 -19 41
-57 75 -98 88 -15 5 -23 16 -25 39 -2 23 -9 33 -23 35 -12 2 -24 0 -28 -4z"/>
<path d="M824 955 c-4 -8 -4 -22 0 -30 5 -13 56 -15 408 -13 l403 3 0 25 0 25
-403 3 c-352 2 -403 0 -408 -13z"/>
<path d="M824 785 c-4 -8 -4 -22 0 -30 5 -13 56 -15 408 -13 l403 3 0 25 0 25
-403 3 c-352 2 -403 0 -408 -13z"/>
<path d="M834 616 c-15 -12 -17 -18 -8 -33 10 -17 37 -18 390 -21 208 -1 389
0 402 3 28 7 29 40 3 55 -13 6 -155 10 -393 10 -310 0 -377 -2 -394 -14z"/>
<path d="M824 435 c-4 -8 -4 -22 0 -30 5 -13 56 -15 408 -13 l403 3 0 25 0 25
-403 3 c-352 2 -403 0 -408 -13z"/>
<path d="M824 265 c-4 -8 -4 -22 0 -30 5 -13 56 -15 408 -13 l403 3 0 25 0 25
-403 3 c-352 2 -403 0 -408 -13z"/>
</g>
</svg>
