<?xml version="1.0" standalone="no"?>
<!DOCTYPE svg PUBLIC "-//W3C//DTD SVG 20010904//EN"
 "http://www.w3.org/TR/2001/REC-SVG-20010904/DTD/svg10.dtd">
<svg version="1.0" xmlns="http://www.w3.org/2000/svg"
 width="200.000000pt" height="200.000000pt" viewBox="0 0 200.000000 200.000000"
 preserveAspectRatio="xMidYMid meet">
<metadata>
Created by potrace 1.16, written by Peter Selinger 2001-2019
</metadata>
<g transform="translate(0.000000,200.000000) scale(0.100000,-0.100000)"
fill="#000000" stroke="none">
<path d="M897 1970 c-21 -6 -50 -16 -66 -24 -33 -18 -86 -76 -96 -106 -5 -16
-12 -19 -28 -14 -31 10 -171 6 -216 -6 -21 -5 -56 -23 -78 -39 -140 -101 -116
-389 45 -559 38 -40 45 -52 43 -84 -2 -29 4 -43 23 -63 14 -14 32 -25 41 -25
13 0 16 -8 13 -37 l-3 -38 -262 -5 c-247 -5 -263 -6 -277 -25 -13 -17 -15 -82
-16 -448 l0 -428 25 -24 24 -25 931 0 931 0 24 25 25 24 0 429 c0 417 -1 429
-20 450 -20 22 -26 22 -280 22 l-260 0 0 40 c0 29 4 40 15 40 9 0 27 11 41 25
20 20 25 34 23 63 -3 33 3 44 43 85 121 127 172 350 109 481 -26 52 -87 101
-145 117 -46 12 -181 16 -212 6 -17 -6 -24 -2 -33 21 -17 40 -68 88 -116 108
-47 20 -192 28 -248 14z m200 -61 c49 -13 113 -68 113 -98 0 -10 -13 -30 -30
-44 -66 -59 -93 -164 -71 -276 14 -74 8 -89 -52 -121 -54 -29 -99 -23 -146 20
-31 29 -32 33 -24 73 4 23 8 76 7 117 -1 86 -21 134 -78 189 -35 34 -35 34
-18 63 18 31 65 65 110 78 40 12 137 12 189 -1z m-361 -158 c125 -57 136 -257
23 -433 -46 -71 -100 -108 -157 -108 -42 0 -50 4 -97 53 -79 81 -125 194 -125
307 0 87 34 146 105 183 45 24 197 22 251 -2z m782 0 c47 -24 70 -50 88 -98
36 -103 -8 -276 -97 -378 -97 -111 -212 -77 -294 86 -86 169 -65 338 48 390
59 26 203 27 255 0z m-626 -464 c-4 -30 0 -43 18 -62 13 -14 32 -25 42 -25 16
0 18 -10 18 -115 l0 -115 -165 0 -165 0 0 39 c0 33 4 40 25 45 35 9 59 49 52
90 -5 29 0 38 37 75 23 23 55 63 71 90 29 47 30 48 51 32 17 -13 20 -23 16
-54z m360 -78 c30 -28 35 -39 31 -67 -6 -39 17 -79 52 -88 21 -5 25 -12 25
-45 l0 -39 -165 0 -165 0 0 115 c0 105 2 115 18 115 10 0 29 11 41 24 18 19
22 33 19 63 -4 29 0 41 16 54 19 16 21 14 56 -41 21 -31 53 -72 72 -91z m-202
66 c0 -11 -12 -15 -50 -15 -38 0 -50 4 -50 15 0 11 12 15 50 15 38 0 50 -4 50
-15z m-392 -144 c-2 -11 -17 -17 -51 -19 -40 -3 -47 0 -47 16 0 15 8 18 50 18
41 0 50 -3 48 -15z m782 -3 c0 -16 -7 -19 -47 -16 -34 2 -49 8 -51 19 -2 12 7
15 48 15 42 0 50 -3 50 -18z m480 -633 l0 -415 -920 0 -920 0 0 415 0 415 920
0 920 0 0 -415z"/>
<path d="M279 803 c-23 -59 -22 -57 -99 -93 -13 -6 -15 -40 -15 -216 l0 -209
33 -11 c41 -13 63 -35 76 -76 l11 -33 695 -3 c382 -1 705 0 717 3 15 4 25 17
33 43 10 38 18 45 83 71 l27 11 -2 206 c-3 172 -6 208 -18 214 -77 36 -76 34
-99 93 l-11 27 -577 -2 c-556 -3 -578 -4 -581 -22 -6 -30 16 -36 137 -36 l115
0 -42 -41 c-62 -62 -86 -119 -90 -214 -5 -101 20 -173 84 -245 l46 -50 -235 0
-235 0 -12 31 c-13 30 -67 79 -88 79 -9 0 -12 47 -12 165 l0 164 33 16 c18 8
44 33 58 55 24 39 25 39 84 40 68 0 89 9 83 36 -3 17 -14 19 -96 22 l-92 3
-11 -28z m813 -49 c106 -36 178 -138 178 -253 0 -210 -211 -340 -397 -245 -44
23 -67 43 -98 88 -37 53 -40 64 -43 135 -3 64 0 87 18 130 55 127 207 192 342
145z m595 -23 c13 -22 37 -45 58 -55 l35 -17 0 -164 c0 -138 -2 -165 -15 -165
-22 0 -84 -59 -91 -86 l-6 -24 -235 0 -235 0 46 50 c119 133 116 332 -7 458
l-41 42 234 0 235 0 22 -39z"/>
<path d="M977 704 c-4 -4 -7 -15 -7 -23 0 -9 -13 -21 -28 -27 -34 -13 -64 -70
-55 -105 9 -37 43 -68 82 -75 59 -10 71 -14 81 -34 14 -26 -12 -50 -55 -50
-28 0 -37 6 -50 30 -9 18 -23 30 -35 30 -49 0 -13 -98 42 -116 10 -3 18 -14
18 -24 0 -10 7 -21 16 -24 19 -7 44 10 44 30 0 7 8 15 18 18 36 12 64 52 64
92 0 49 -43 91 -103 100 -51 8 -73 28 -59 54 23 42 81 36 105 -11 24 -45 67
-33 57 16 -5 28 -48 75 -68 75 -7 0 -14 10 -16 23 -3 22 -36 36 -51 21z"/>
</g>
</svg>
