<?xml version="1.0" standalone="no"?>
<!DOCTYPE svg PUBLIC "-//W3C//DTD SVG 20010904//EN"
 "http://www.w3.org/TR/2001/REC-SVG-20010904/DTD/svg10.dtd">
<svg version="1.0" xmlns="http://www.w3.org/2000/svg"
 width="200.000000pt" height="200.000000pt" viewBox="0 0 200.000000 200.000000"
 preserveAspectRatio="xMidYMid meet">
<metadata>
Created by potrace 1.16, written by Peter Selinger 2001-2019
</metadata>
<g transform="translate(0.000000,200.000000) scale(0.100000,-0.100000)"
fill="#000000" stroke="none">
<path d="M870 1910 c-8 -5 -34 -10 -58 -10 -51 0 -92 -19 -121 -56 -32 -40
-26 -73 24 -145 l46 -64 -24 -10 c-13 -5 -31 -16 -41 -24 -22 -19 -21 -76 4
-101 19 -19 19 -20 -34 -91 -140 -186 -231 -434 -254 -689 l-7 -84 -48 -14
c-46 -13 -49 -12 -78 12 -25 21 -41 26 -85 26 -54 0 -92 -12 -106 -34 -4 -6
-8 -124 -8 -262 0 -299 -4 -289 112 -289 60 0 72 3 88 23 16 19 28 22 92 22
40 0 172 -9 293 -21 l220 -22 198 62 198 62 207 125 c213 129 252 159 252 197
0 57 -71 117 -138 117 -17 0 -60 -16 -96 -35 -37 -19 -68 -35 -71 -35 -2 0 -4
46 -5 103 0 56 -6 135 -13 175 -8 40 -11 75 -8 76 3 2 45 15 92 30 100 30 209
36 209 11 0 -24 35 -35 109 -35 104 0 101 -7 101 282 0 225 -1 239 -20 258
-29 29 -136 29 -173 0 -21 -17 -40 -20 -114 -20 -86 0 -93 2 -230 60 -77 32
-157 61 -177 63 -23 2 -42 12 -51 24 -8 11 -26 24 -40 27 -14 4 -25 10 -25 15
0 5 18 33 40 62 44 59 52 107 24 147 -23 33 -52 45 -124 54 -36 5 -83 11 -105
14 -22 2 -47 0 -55 -6z m100 -44 c8 -11 24 -13 58 -9 38 4 52 1 75 -17 35 -28
35 -60 -2 -110 -15 -21 -34 -53 -41 -70 l-12 -30 -124 0 -124 0 -14 33 c-7 17
-28 49 -45 71 -17 21 -31 45 -31 53 0 45 57 79 114 70 22 -3 41 0 53 8 24 19
77 19 93 1z m150 -291 c10 -12 7 -16 -16 -25 -16 -6 -40 -15 -54 -21 -14 -5
-91 -8 -175 -7 -150 3 -150 3 -153 27 -2 13 2 28 10 32 7 5 95 9 194 9 148 0
184 -3 194 -15z m278 -113 c138 -60 147 -62 228 -62 l84 0 0 -190 0 -190 -63
0 c-41 0 -98 -10 -160 -29 l-96 -29 -14 42 c-27 80 -131 308 -141 312 -6 2
-50 12 -98 23 l-87 19 -88 -59 c-84 -57 -125 -71 -138 -49 -9 14 104 190 130
202 11 5 61 24 110 43 124 47 154 44 333 -33z m-498 3 c0 -2 -30 -50 -66 -106
-36 -56 -63 -108 -60 -115 3 -8 19 -22 37 -33 41 -25 66 -17 165 49 l77 53 71
-13 c39 -7 77 -15 84 -18 19 -7 85 -144 121 -250 48 -143 68 -287 62 -449 l-1
-42 -102 -60 c-90 -53 -109 -61 -155 -61 -29 0 -53 2 -53 5 0 3 7 17 16 31 33
49 -4 136 -70 168 -26 12 -65 16 -164 16 -72 0 -143 5 -159 11 -36 13 -132 16
-202 6 l-54 -8 7 81 c21 254 119 501 279 703 30 36 32 37 99 37 37 0 68 -2 68
-5z m975 -255 l0 -235 -59 -3 c-41 -2 -62 1 -67 10 -15 22 -11 442 3 456 8 8
34 12 68 10 l55 -3 0 -235z m-1220 -592 c28 -5 119 -13 202 -17 145 -6 154 -7
178 -31 33 -33 42 -81 20 -103 -14 -15 -41 -17 -181 -17 -152 0 -165 -1 -162
-17 4 -20 18 -22 304 -44 l171 -13 84 49 c283 164 304 175 337 175 53 0 108
-62 84 -95 -4 -6 -101 -69 -217 -139 l-209 -128 -195 -60 -194 -60 -171 16
c-94 9 -224 19 -289 22 l-117 7 2 201 3 201 80 23 c141 40 195 46 270 30z
m-395 -253 l0 -245 -70 0 -70 0 0 245 0 245 70 0 70 0 0 -245z"/>
<path d="M825 1146 c-177 -82 -188 -323 -19 -422 63 -37 158 -39 220 -7 119
63 167 204 109 320 -58 115 -194 163 -310 109z m209 -53 c125 -87 110 -275
-27 -339 -29 -13 -68 -24 -87 -24 -85 1 -170 72 -189 159 -6 28 -9 56 -7 63 3
7 7 25 10 40 9 39 63 98 111 120 56 26 135 19 189 -19z"/>
<path d="M887 1039 c-42 -48 -36 -86 19 -120 31 -19 43 -46 28 -62 -10 -9 -34
4 -34 19 0 8 -9 14 -20 14 -30 0 -25 -33 9 -71 l30 -32 30 29 c46 43 43 84 -9
125 -22 18 -40 38 -40 45 0 24 23 27 41 6 22 -28 39 -28 39 1 -1 22 -41 77
-57 77 -5 0 -21 -14 -36 -31z"/>
</g>
</svg>
