<?xml version="1.0" standalone="no"?>
<!DOCTYPE svg PUBLIC "-//W3C//DTD SVG 20010904//EN"
 "http://www.w3.org/TR/2001/REC-SVG-20010904/DTD/svg10.dtd">
<svg version="1.0" xmlns="http://www.w3.org/2000/svg"
 width="200.000000pt" height="200.000000pt" viewBox="0 0 200.000000 200.000000"
 preserveAspectRatio="xMidYMid meet">
<metadata>
Created by potrace 1.16, written by Peter Selinger 2001-2019
</metadata>
<g transform="translate(0.000000,200.000000) scale(0.100000,-0.100000)"
fill="#000000" stroke="none">
<path d="M283 1849 c-76 -38 -73 -6 -73 -731 0 -720 -3 -693 71 -732 20 -11
44 -35 55 -55 36 -68 52 -71 385 -71 260 0 298 2 310 16 11 14 10 18 -6 30
-15 11 -78 14 -315 14 l-297 0 -21 23 -22 23 0 648 0 647 25 24 24 25 396 0
396 0 24 -25 25 -24 0 -419 c0 -361 2 -421 15 -432 12 -10 18 -10 30 0 14 12
15 65 13 436 -3 411 -4 423 -24 451 -11 15 -36 38 -55 51 -19 13 -36 29 -39
35 -13 32 -40 58 -73 72 -30 13 -99 15 -419 15 -367 0 -385 -1 -425 -21z m849
-56 c10 -9 18 -20 18 -25 0 -4 -167 -8 -371 -8 -407 0 -407 0 -443 -60 -14
-25 -16 -92 -16 -649 0 -375 -4 -621 -9 -621 -5 0 -19 12 -30 27 -21 26 -21
30 -19 669 3 615 4 643 22 663 19 21 25 21 424 21 363 0 407 -2 424 -17z"/>
<path d="M585 1600 c-16 -5 -36 -17 -42 -27 -21 -28 -16 -77 10 -101 23 -21
31 -22 263 -22 238 0 241 0 262 23 27 29 28 77 3 108 -19 24 -21 24 -243 26
-122 1 -236 -2 -253 -7z m460 -75 c0 -19 -8 -20 -224 -23 -133 -1 -229 2 -234
7 -5 5 -7 17 -4 26 6 13 34 15 234 13 220 -3 228 -4 228 -23z"/>
<path d="M593 1363 c-19 -7 -16 -31 6 -43 12 -6 118 -10 273 -10 201 0 258 3
273 14 16 12 17 16 6 30 -12 14 -47 16 -280 15 -146 0 -272 -3 -278 -6z"/>
<path d="M477 1246 c-13 -33 14 -36 339 -36 269 0 324 2 334 15 6 8 9 19 5 25
-4 6 -119 10 -340 10 -273 0 -334 -2 -338 -14z"/>
<path d="M481 1146 c-9 -11 -8 -18 4 -30 14 -14 55 -16 329 -16 251 0 316 3
331 14 16 12 17 16 6 30 -12 14 -52 16 -336 16 -264 0 -325 -3 -334 -14z"/>
<path d="M477 1036 c-13 -33 14 -36 339 -36 269 0 324 2 334 15 6 8 9 19 5 25
-4 6 -119 10 -340 10 -273 0 -334 -2 -338 -14z"/>
<path d="M480 935 c-10 -12 -10 -18 0 -30 10 -12 38 -15 134 -15 128 0 150 6
144 36 -3 17 -15 19 -134 22 -108 2 -133 0 -144 -13z"/>
<path d="M1496 923 c-92 -31 -148 -78 -166 -141 -8 -26 -40 -68 -97 -128 -133
-139 -160 -177 -173 -239 -6 -31 -8 -70 -5 -88 19 -86 92 -166 170 -186 58
-15 334 -14 393 1 64 16 143 94 161 161 25 89 2 164 -75 247 l-44 47 47 6 c61
7 83 32 83 96 0 37 -5 52 -23 69 -13 12 -31 22 -40 22 -12 0 -17 9 -17 33 0
44 -19 77 -59 104 -43 29 -58 28 -155 -4z m148 -55 c9 -12 16 -39 16 -59 0
-38 20 -64 55 -71 15 -2 21 -12 23 -41 l3 -37 -69 0 c-64 0 -70 2 -98 31 -38
41 -99 69 -151 69 -48 0 -49 1 -27 39 20 33 42 48 108 72 73 25 121 24 140 -3z
m-166 -169 c27 -9 158 -142 220 -223 36 -48 45 -99 28 -160 -16 -55 -40 -83
-93 -110 -26 -13 -66 -16 -214 -16 -177 0 -183 1 -226 25 -74 44 -105 146 -69
228 18 42 188 227 229 250 36 19 80 22 125 6z"/>
<path d="M1343 564 c-3 -9 -17 -27 -29 -40 -30 -29 -30 -65 -1 -99 20 -24 33
-28 102 -34 71 -5 80 -8 80 -26 0 -18 -8 -20 -100 -25 -91 -5 -100 -7 -100
-25 0 -12 8 -21 20 -23 11 -2 28 -11 38 -20 17 -16 20 -15 32 1 16 22 54 22
71 0 12 -17 16 -15 54 25 45 48 52 85 21 123 -16 20 -30 24 -102 29 -76 4 -84
7 -84 25 0 18 8 20 100 25 91 5 100 7 100 25 0 12 -8 21 -20 23 -11 3 -24 10
-28 18 -11 18 -36 18 -43 -1 -4 -8 -16 -15 -29 -15 -12 0 -28 7 -35 15 -16 20
-39 19 -47 -1z"/>
<path d="M566 771 c-20 -21 -96 -289 -89 -308 3 -7 13 -13 23 -13 20 0 24 10
65 165 15 55 31 104 35 109 5 4 11 -18 15 -50 14 -124 26 -144 81 -144 28 0
45 24 69 98 9 28 20 52 25 52 4 0 11 -16 14 -35 12 -62 70 -83 122 -42 21 16
46 23 99 27 62 4 70 7 73 27 2 15 -3 23 -18 28 -35 11 -122 -5 -168 -31 l-42
-25 -11 28 c-25 61 -34 74 -55 79 -46 12 -62 -10 -110 -145 -8 -23 -12 -10
-24 79 -7 49 -18 92 -27 103 -21 23 -56 22 -77 -2z"/>
</g>
</svg>
