<?xml version="1.0" standalone="no"?>
<!DOCTYPE svg PUBLIC "-//W3C//DTD SVG 20010904//EN"
 "http://www.w3.org/TR/2001/REC-SVG-20010904/DTD/svg10.dtd">
<svg version="1.0" xmlns="http://www.w3.org/2000/svg"
 width="200.000000pt" height="200.000000pt" viewBox="0 0 200.000000 200.000000"
 preserveAspectRatio="xMidYMid meet">
<metadata>
Created by potrace 1.16, written by Peter Selinger 2001-2019
</metadata>
<g transform="translate(0.000000,200.000000) scale(0.100000,-0.100000)"
fill="#000000" stroke="none">
<path d="M283 1849 c-76 -38 -73 -6 -73 -731 0 -721 -3 -693 72 -733 20 -10
43 -34 52 -52 31 -65 47 -68 377 -71 l297 -3 -5 63 c-8 103 17 153 150 299 76
84 121 143 140 184 l28 60 -3 402 c-3 389 -4 402 -24 430 -11 15 -36 38 -55
51 -19 13 -36 29 -39 35 -13 32 -40 58 -73 72 -30 13 -99 15 -419 15 -367 0
-385 -1 -425 -21z m849 -56 c10 -9 18 -20 18 -25 0 -4 -167 -8 -371 -8 -407 0
-407 0 -443 -60 -14 -25 -16 -92 -16 -649 0 -375 -4 -621 -9 -621 -5 0 -19 12
-30 27 -21 26 -21 30 -19 669 3 615 4 643 22 663 19 21 25 21 424 21 363 0
407 -2 424 -17z m-48 -215 c23 -32 20 -78 -6 -105 -21 -23 -24 -23 -262 -23
-232 0 -240 1 -263 22 -29 27 -31 80 -3 108 19 19 33 20 269 20 247 0 250 0
265 -22z m66 -223 c26 -32 1 -35 -281 -35 -247 0 -280 2 -286 16 -3 9 0 20 8
25 8 5 134 9 280 9 221 0 269 -2 279 -15z m5 -105 c4 -6 1 -17 -5 -25 -10 -13
-65 -15 -334 -15 -325 0 -352 3 -339 36 4 12 65 14 338 14 221 0 336 -4 340
-10z m-5 -105 c6 -8 9 -19 5 -25 -4 -6 -119 -10 -340 -10 -273 0 -334 2 -338
14 -13 33 14 36 339 36 269 0 324 -2 334 -15z m5 -105 c4 -6 1 -17 -5 -25 -10
-13 -65 -15 -334 -15 -325 0 -352 3 -339 36 4 12 65 14 338 14 221 0 336 -4
340 -10z m-397 -117 c3 -23 3 -23 -137 -23 -141 0 -165 6 -140 36 10 12 37 14
143 12 127 -3 131 -4 134 -25z m-120 -150 c16 -14 24 -39 32 -103 12 -89 16
-102 24 -79 48 137 64 157 112 145 14 -4 29 -18 34 -31 6 -14 14 -36 20 -50
l10 -26 43 26 c36 20 57 25 116 25 69 0 72 -1 69 -22 -3 -21 -10 -23 -73 -28
-53 -4 -78 -11 -99 -27 -52 -41 -110 -20 -122 42 -3 19 -10 35 -14 35 -5 0
-16 -24 -25 -52 -24 -74 -41 -98 -69 -98 -56 0 -67 21 -81 148 -4 35 -9 61
-11 59 -4 -4 -21 -61 -70 -234 -11 -40 -19 -53 -33 -53 -10 0 -21 6 -23 13 -8
20 69 287 88 308 21 24 46 24 72 2z"/>
<path d="M583 1535 c-3 -9 -1 -21 4 -26 5 -5 101 -8 234 -7 216 3 224 4 224
23 0 19 -8 20 -228 23 -200 2 -228 0 -234 -13z"/>
<path d="M1487 891 c-43 -16 -89 -39 -103 -52 -26 -24 -64 -89 -64 -109 0 -7
-50 -64 -110 -128 -129 -137 -155 -181 -154 -268 1 -108 77 -200 184 -223 66
-14 294 -14 360 0 64 14 127 61 160 119 19 35 25 59 25 110 0 71 -19 114 -91
198 l-37 42 47 0 c62 0 86 24 86 86 0 57 -12 79 -50 92 -25 9 -30 16 -30 42 0
46 -27 90 -65 106 -47 19 -68 17 -158 -15z m148 -46 c16 -15 25 -36 25 -55 0
-44 14 -66 50 -79 28 -9 31 -14 28 -43 -3 -33 -3 -33 -62 -36 -56 -3 -61 -1
-95 31 -50 48 -98 70 -153 71 -51 1 -57 9 -32 44 17 25 55 46 128 73 69 24 83
23 111 -6z m-47 -272 c57 -60 113 -126 125 -148 45 -88 13 -197 -73 -242 -43
-23 -52 -24 -231 -21 -179 3 -187 4 -222 28 -51 35 -77 86 -77 152 0 66 15 91
129 216 95 106 120 122 191 122 l55 0 103 -107z"/>
<path d="M1323 514 c-41 -44 -43 -85 -8 -119 21 -22 33 -25 92 -25 75 0 99
-10 90 -34 -5 -13 -23 -16 -90 -16 -118 0 -150 -27 -75 -64 36 -18 58 -20 58
-6 0 14 46 13 70 -2 16 -10 23 -7 54 26 44 46 47 86 11 121 -21 22 -33 25 -93
25 -49 0 -73 4 -82 15 -22 26 0 35 85 35 46 0 90 3 99 6 21 8 20 43 -1 50 -10
3 -28 11 -41 17 -16 8 -25 8 -34 -1 -15 -15 -68 -16 -68 -2 0 22 -37 8 -67
-26z"/>
</g>
</svg>
