<?xml version="1.0" standalone="no"?>
<!DOCTYPE svg PUBLIC "-//W3C//DTD SVG 20010904//EN"
 "http://www.w3.org/TR/2001/REC-SVG-20010904/DTD/svg10.dtd">
<svg version="1.0" xmlns="http://www.w3.org/2000/svg"
 width="200.000000pt" height="200.000000pt" viewBox="0 0 200.000000 200.000000"
 preserveAspectRatio="xMidYMid meet">
<metadata>
Created by potrace 1.16, written by Peter Selinger 2001-2019
</metadata>
<g transform="translate(0.000000,200.000000) scale(0.100000,-0.100000)"
fill="#000000" stroke="none">
<path d="M193 1835 c-77 -46 -78 -54 -107 -535 -17 -288 -23 -440 -16 -470 4
-25 29 -100 54 -168 l46 -124 -20 -25 c-17 -22 -20 -41 -20 -131 0 -133 18
-178 88 -220 l47 -27 725 0 c399 0 737 3 752 8 38 10 98 65 114 104 9 20 14
72 14 136 0 89 -3 108 -20 130 l-20 25 46 124 c25 68 50 147 55 177 10 63 -34
843 -51 901 -35 119 -197 162 -288 77 -55 -51 -57 -62 -62 -352 l-5 -269 -33
-7 c-48 -10 -92 -44 -145 -115 l-47 -64 -76 0 c-81 0 -130 -18 -171 -62 -37
-40 -43 -73 -43 -249 0 -98 -4 -169 -9 -169 -6 0 -11 78 -13 183 l-3 184 -28
36 c-42 56 -92 77 -180 77 l-74 0 -54 67 c-63 78 -94 102 -140 112 l-34 7 -5
269 c-5 290 -7 301 -62 352 -54 50 -148 58 -215 18z m163 -21 c18 -9 44 -33
56 -53 22 -35 23 -45 26 -313 l3 -277 37 -7 c61 -11 87 -30 149 -106 l59 -73
85 -5 c99 -6 142 -27 170 -82 17 -33 19 -60 19 -218 l0 -180 40 0 40 0 0 183
c0 157 3 187 18 217 27 50 89 80 170 80 35 0 72 4 82 10 10 5 41 39 69 74 54
69 83 89 143 100 l37 7 3 277 c3 256 5 280 23 311 41 69 141 92 205 49 63 -43
66 -58 91 -458 32 -521 33 -494 -35 -676 -31 -83 -56 -154 -56 -158 0 -4 11
-11 25 -16 24 -9 25 -12 25 -112 0 -119 -14 -159 -69 -195 l-34 -23 -737 0
-737 0 -34 23 c-55 36 -69 76 -69 195 0 100 1 103 25 112 14 5 25 13 25 17 0
3 -23 68 -51 142 -28 75 -54 159 -59 186 -13 80 37 861 58 905 34 71 122 100
198 64z"/>
<path d="M235 1747 l-29 -24 -18 -279 c-10 -154 -19 -358 -21 -454 l-2 -175
60 -157 60 -158 307 0 308 0 0 170 c0 179 -8 219 -47 235 -10 4 -58 10 -107
15 -100 8 -78 -7 -202 134 -36 41 -45 46 -82 46 -32 0 -49 -7 -76 -31 l-35
-30 95 -122 c52 -66 93 -128 92 -136 -2 -9 -14 -17 -28 -18 -21 -2 -40 18
-127 131 -57 74 -103 140 -103 148 0 8 20 34 45 58 l45 44 0 287 c0 321 -1
324 -71 335 -28 5 -41 1 -64 -19z m89 -23 c14 -13 16 -54 16 -288 l0 -273 -45
-45 c-31 -31 -45 -54 -45 -72 0 -35 210 -311 243 -320 32 -9 35 -8 57 14 35
35 25 61 -69 183 -84 108 -88 116 -72 131 19 18 63 21 89 7 10 -5 37 -37 62
-71 57 -79 98 -101 207 -109 45 -4 85 -10 90 -15 4 -4 8 -80 8 -169 l0 -162
-280 0 -279 0 -54 140 c-69 178 -70 193 -39 669 21 333 25 370 42 382 25 18
50 18 69 -2z"/>
<path d="M1673 1760 c-12 -5 -26 -18 -32 -29 -7 -13 -11 -122 -11 -303 l0
-284 45 -44 c25 -24 45 -50 45 -58 0 -8 -46 -74 -102 -148 -88 -114 -107 -133
-128 -131 -42 4 -29 35 63 153 48 62 87 116 87 122 0 6 -14 22 -31 36 -22 19
-42 26 -72 26 -36 0 -46 -5 -81 -46 -124 -141 -102 -126 -203 -134 -101 -9
-130 -20 -143 -56 -6 -14 -10 -102 -10 -195 l0 -169 308 2 307 3 62 165 c75
197 73 165 39 694 l-22 359 -28 23 c-28 25 -56 29 -93 14z m72 -34 c17 -12 21
-49 42 -382 31 -480 30 -482 -38 -664 l-54 -145 -283 -3 -282 -2 0 157 c0 87
4 165 10 173 6 10 36 16 93 21 108 8 150 31 212 115 27 38 57 67 71 70 32 8
73 -3 80 -21 4 -8 -30 -61 -80 -126 -52 -68 -86 -121 -86 -135 0 -23 31 -64
48 -64 30 1 56 20 94 68 207 266 204 259 133 330 l-45 45 0 273 c0 234 2 275
16 288 19 20 44 20 69 2z"/>
<path d="M221 361 c4 -67 8 -83 28 -105 l24 -26 349 0 348 0 0 105 0 105 -376
0 -376 0 3 -79z m719 -26 l0 -75 -323 0 c-251 0 -327 3 -341 13 -19 14 -33 93
-23 122 6 13 49 15 347 15 l340 0 0 -75z"/>
<path d="M1030 335 l0 -105 344 0 345 0 28 24 c25 22 28 31 31 105 l4 81 -376
0 -376 0 0 -105z m715 11 c-1 -45 -5 -61 -20 -72 -15 -11 -81 -14 -342 -14
l-323 0 0 75 0 75 343 -2 342 -3 0 -59z"/>
<path d="M956 1844 c-9 -9 -16 -32 -16 -55 0 -35 -3 -39 -25 -39 -55 0 -133
-57 -154 -113 -23 -59 -9 -131 32 -175 29 -31 90 -62 122 -62 23 0 25 -3 25
-50 l0 -50 -75 0 c-83 0 -115 -18 -115 -63 0 -42 34 -61 116 -65 l74 -4 0 -32
c0 -45 21 -69 59 -69 41 0 53 13 60 65 6 40 8 43 42 48 83 14 149 90 149 172
0 79 -67 154 -149 167 -35 6 -36 8 -39 53 l-3 46 75 4 c82 4 116 23 116 65 0
45 -32 63 -115 63 l-75 0 0 39 c0 47 -20 71 -60 71 -16 0 -36 -7 -44 -16z m72
-71 l3 -53 83 0 c87 0 115 -12 102 -45 -4 -12 -24 -15 -96 -15 l-91 0 3 -82 3
-83 53 -7 c126 -15 173 -155 82 -243 -23 -22 -41 -29 -85 -33 l-55 -4 0 -48
c0 -55 -20 -81 -45 -60 -10 8 -15 30 -15 61 l0 49 -90 0 c-72 0 -92 3 -96 15
-13 33 15 45 102 45 l84 0 0 79 0 78 -52 6 c-90 11 -143 72 -135 156 8 76 70
131 150 131 l37 0 0 48 c0 55 5 64 35 60 17 -3 20 -11 23 -55z"/>
<path d="M893 1650 c-34 -14 -56 -54 -48 -89 9 -40 38 -63 82 -65 l38 -1 3 83
3 82 -28 -1 c-15 0 -38 -4 -50 -9z m47 -75 c0 -41 -2 -45 -25 -45 -18 0 -28 7
-35 26 -13 34 3 64 35 64 23 0 25 -4 25 -45z"/>
<path d="M1030 1350 l0 -80 39 0 c32 0 44 6 65 31 29 34 32 50 14 82 -17 34
-39 46 -80 47 l-38 0 0 -80z m86 25 c15 -23 15 -27 0 -50 -9 -14 -25 -25 -36
-25 -17 0 -20 7 -20 50 0 43 3 50 20 50 11 0 27 -11 36 -25z"/>
</g>
</svg>
