<?xml version="1.0" standalone="no"?>
<!DOCTYPE svg PUBLIC "-//W3C//DTD SVG 20010904//EN"
 "http://www.w3.org/TR/2001/REC-SVG-20010904/DTD/svg10.dtd">
<svg version="1.0" xmlns="http://www.w3.org/2000/svg"
 width="200.000000pt" height="200.000000pt" viewBox="0 0 200.000000 200.000000"
 preserveAspectRatio="xMidYMid meet">
<metadata>
Created by potrace 1.16, written by Peter Selinger 2001-2019
</metadata>
<g transform="translate(0.000000,200.000000) scale(0.100000,-0.100000)"
fill="#000000" stroke="none">
<path d="M312 1979 c-29 -15 -51 -36 -70 -68 l-27 -46 0 -865 0 -865 23 -40
c13 -22 39 -52 59 -65 l37 -25 535 -3 536 -3 193 194 193 194 -3 739 -3 739
-23 40 c-13 22 -39 52 -59 65 l-37 25 -655 3 c-652 2 -656 2 -699 -19z m1369
-87 l29 -32 0 -714 0 -715 -146 -3 -146 -3 -29 -33 -29 -32 0 -145 0 -145
-496 0 c-516 0 -521 0 -556 44 -16 20 -18 81 -18 882 l0 861 21 27 c12 15 31
32 43 36 11 5 308 8 659 7 l639 -2 29 -33z m-131 -1647 l-115 -115 -3 101 c-2
66 1 106 9 115 8 10 39 14 118 14 l106 0 -115 -115z"/>
<path d="M675 1807 c-104 -35 -199 -116 -243 -208 -93 -193 -9 -430 187 -527
51 -24 66 -27 166 -27 97 0 116 3 165 26 155 72 249 250 222 416 -22 133 -102
240 -222 296 -54 26 -79 32 -150 34 -52 2 -101 -2 -125 -10z m222 -79 c79 -29
163 -113 189 -188 58 -169 -23 -350 -183 -410 -148 -55 -324 5 -395 136 -143
265 110 567 389 462z"/>
<path d="M762 1668 c-7 -7 -12 -23 -12 -36 0 -14 -14 -37 -35 -56 -27 -25 -35
-41 -35 -67 0 -55 32 -96 87 -112 34 -10 49 -20 51 -34 4 -29 -17 -41 -78 -45
-49 -3 -55 -5 -58 -27 -4 -26 12 -41 46 -41 16 0 22 -6 22 -24 0 -55 62 -58
68 -3 2 15 19 42 39 62 33 33 35 39 30 81 -6 56 -27 80 -86 97 -39 11 -46 17
-46 37 0 23 5 26 56 31 65 7 79 14 79 38 0 24 -20 41 -47 41 -17 0 -23 6 -23
23 0 24 -17 47 -35 47 -6 0 -16 -5 -23 -12z"/>
<path d="M1329 1804 c-9 -11 -10 -20 -2 -32 14 -24 253 -31 272 -8 9 11 10 20
1 35 -10 20 -20 21 -134 21 -101 0 -126 -3 -137 -16z"/>
<path d="M1329 1664 c-9 -11 -10 -20 -2 -32 8 -14 31 -17 133 -20 142 -3 176
10 134 52 -23 23 -246 23 -265 0z"/>
<path d="M420 713 c-31 -12 -37 -35 -14 -57 13 -14 60 -16 363 -16 256 0 350
3 359 12 20 20 14 48 -14 58 -27 11 -667 13 -694 3z"/>
<path d="M399 554 c-9 -11 -10 -20 -2 -32 9 -15 38 -17 263 -17 225 0 254 2
263 17 8 12 7 21 -2 32 -12 14 -47 16 -261 16 -214 0 -249 -2 -261 -16z"/>
<path d="M406 414 c-9 -8 -16 -19 -16 -23 0 -28 31 -31 382 -31 323 0 359 2
365 16 3 9 2 24 -4 33 -9 14 -51 16 -361 19 -309 2 -352 0 -366 -14z"/>
<path d="M418 284 c-19 -6 -30 -28 -22 -49 9 -23 53 -26 292 -23 185 2 224 6
232 18 12 19 12 21 0 40 -8 13 -48 15 -247 17 -131 0 -245 -1 -255 -3z"/>
</g>
</svg>
