<?xml version="1.0" standalone="no"?>
<!DOCTYPE svg PUBLIC "-//W3C//DTD SVG 20010904//EN"
 "http://www.w3.org/TR/2001/REC-SVG-20010904/DTD/svg10.dtd">
<svg version="1.0" xmlns="http://www.w3.org/2000/svg"
 width="200.000000pt" height="200.000000pt" viewBox="0 0 200.000000 200.000000"
 preserveAspectRatio="xMidYMid meet">
<metadata>
Created by potrace 1.16, written by Peter Selinger 2001-2019
</metadata>
<g transform="translate(0.000000,200.000000) scale(0.100000,-0.100000)"
fill="#000000" stroke="none">
<path d="M840 1764 c-111 -24 -237 -93 -326 -178 -67 -63 -77 -77 -68 -92 18
-30 33 -27 72 13 160 170 391 244 610 198 94 -19 144 -40 226 -93 148 -94 254
-252 291 -432 l7 -35 -35 33 c-38 37 -70 39 -75 6 -2 -14 18 -40 67 -87 38
-37 74 -67 79 -67 12 0 44 38 96 113 33 47 37 59 26 72 -19 23 -35 18 -66 -22
l-27 -36 -24 88 c-35 133 -83 215 -188 321 -76 77 -105 98 -185 138 -52 25
-126 53 -165 61 -87 18 -229 18 -315 -1z"/>
<path d="M977 1584 c-4 -4 -7 -18 -7 -30 0 -18 -7 -25 -27 -30 -83 -17 -116
-61 -110 -146 6 -93 54 -128 176 -128 61 0 72 -3 85 -22 25 -35 20 -83 -10
-107 -38 -30 -145 -30 -174 -1 -11 11 -20 28 -20 39 0 24 -23 43 -44 35 -10
-4 -16 -18 -16 -40 0 -47 50 -102 101 -110 34 -6 38 -10 41 -38 2 -26 7 -31
28 -31 21 0 26 5 28 31 3 28 7 32 40 38 58 9 94 53 100 119 8 103 -37 145
-167 154 -90 7 -111 20 -111 73 0 56 22 70 112 70 82 0 93 -6 107 -57 6 -21
14 -28 32 -28 30 0 37 40 14 84 -17 33 -43 51 -90 61 -23 4 -31 12 -35 35 -5
29 -36 46 -53 29z"/>
<path d="M360 1388 c-11 -18 -28 -57 -37 -86 -15 -46 -15 -55 -3 -63 8 -5 21
-8 29 -6 17 3 72 134 69 162 -5 33 -35 30 -58 -7z"/>
<path d="M290 1141 c-25 -48 -2 -122 33 -108 18 7 29 85 16 109 -13 24 -36 23
-49 -1z"/>
<path d="M750 929 c-79 -11 -155 -42 -235 -94 -60 -40 -73 -45 -93 -36 -39 18
-62 13 -153 -40 -144 -82 -144 -92 -8 -326 56 -96 111 -183 122 -194 34 -31
79 -24 167 27 94 55 109 70 113 114 3 22 11 36 23 41 35 14 148 9 284 -12 175
-27 342 -29 435 -5 148 38 392 182 423 251 28 61 7 132 -49 161 -55 28 -118
10 -229 -65 -51 -35 -133 -81 -143 -81 -3 0 -7 19 -10 41 -8 64 -29 78 -158
104 -63 12 -170 43 -239 67 -146 53 -176 58 -250 47z m176 -85 c104 -40 240
-80 322 -94 83 -15 100 -29 86 -68 -12 -35 -47 -42 -201 -41 -67 1 -126 -2
-132 -6 -19 -11 -12 -42 12 -49 35 -9 235 -7 309 4 92 13 159 40 258 105 108
71 142 82 175 61 17 -11 25 -26 25 -46 0 -24 -12 -38 -62 -80 -69 -55 -185
-119 -276 -152 -91 -33 -290 -36 -465 -8 -134 21 -288 24 -328 6 -12 -5 -31
20 -89 121 -40 70 -75 131 -76 134 -7 13 125 91 193 115 91 32 162 31 249 -2z"/>
</g>
</svg>
