<?xml version="1.0" standalone="no"?>
<!DOCTYPE svg PUBLIC "-//W3C//DTD SVG 20010904//EN"
 "http://www.w3.org/TR/2001/REC-SVG-20010904/DTD/svg10.dtd">
<svg version="1.0" xmlns="http://www.w3.org/2000/svg"
 width="200.000000pt" height="200.000000pt" viewBox="0 0 200.000000 200.000000"
 preserveAspectRatio="xMidYMid meet">
<metadata>
Created by potrace 1.16, written by Peter Selinger 2001-2019
</metadata>
<g transform="translate(0.000000,200.000000) scale(0.100000,-0.100000)"
fill="#000000" stroke="none">
<path d="M792 1610 c-21 -20 -22 -29 -22 -195 0 -162 2 -177 20 -195 14 -14
33 -20 65 -20 l45 0 0 -54 c0 -39 6 -60 21 -80 l20 -26 325 0 c311 0 325 1
344 20 19 19 20 33 20 205 0 184 0 186 -25 210 -20 21 -34 25 -80 25 l-55 0 0
39 c0 24 -8 48 -21 65 l-20 26 -308 0 c-295 0 -308 -1 -329 -20z m618 -74 l0
-35 -236 -3 c-287 -4 -274 3 -274 -144 l0 -94 -35 0 -35 0 0 155 0 155 290 0
290 0 0 -34z m-400 -105 c0 -12 -29 -41 -41 -41 -10 0 -12 33 -2 43 10 10 43
8 43 -2z m459 -26 c14 -38 54 -75 82 -75 16 0 19 -8 19 -60 0 -55 -2 -60 -25
-66 -28 -7 -85 -67 -85 -89 0 -13 -30 -15 -192 -15 l-193 0 -17 41 c-13 31
-26 44 -58 56 l-40 16 0 59 c0 52 2 58 21 58 27 0 89 62 89 89 0 21 4 21 193
21 l193 0 13 -35z m101 10 c0 -29 -7 -31 -32 -8 -25 22 -23 33 7 33 20 0 25
-5 25 -25z m-3 -312 c-3 -2 -16 -3 -29 -1 l-23 3 25 25 25 25 3 -23 c2 -13 1
-26 -1 -29z m-569 25 c19 -19 14 -28 -13 -28 -18 0 -25 5 -25 20 0 22 20 26
38 8z"/>
<path d="M1213 1385 c-41 -18 -73 -69 -73 -118 0 -138 185 -178 241 -51 16 36
18 50 10 82 -12 43 -42 75 -84 91 -37 14 -55 13 -94 -4z m80 -56 c66 -30 46
-129 -26 -129 -40 0 -67 26 -67 64 0 36 7 48 35 64 25 14 29 14 58 1z"/>
<path d="M829 956 c-20 -8 -76 -40 -124 -71 l-89 -57 -19 26 c-10 14 -25 26
-33 26 -21 0 -194 -118 -194 -132 0 -22 242 -378 257 -378 8 0 54 27 104 60
79 54 89 64 87 88 -3 26 -2 27 52 27 30 -1 101 -7 157 -15 81 -11 109 -11 142
-2 51 16 431 265 450 296 20 33 7 72 -31 92 -47 24 -102 12 -237 -51 -64 -30
-120 -55 -124 -55 -4 0 -7 7 -7 15 0 34 -55 73 -150 105 -111 37 -190 46 -241
26z m221 -84 c90 -32 105 -40 108 -61 l4 -24 -132 8 -132 7 4 -29 3 -28 120
-11 c143 -13 159 -9 352 77 129 57 175 69 188 49 7 -12 -365 -259 -413 -273
-24 -8 -66 -6 -162 8 -78 11 -148 15 -178 11 l-49 -6 -56 85 c-32 47 -57 87
-57 89 0 6 172 114 200 125 44 17 92 11 200 -27z m-398 -209 l96 -147 -49 -33
c-26 -18 -52 -33 -57 -33 -5 0 -52 65 -105 144 l-96 144 52 35 c29 20 54 36
57 36 3 1 48 -65 102 -146z"/>
</g>
</svg>
