<?xml version="1.0" standalone="no"?>
<!DOCTYPE svg PUBLIC "-//W3C//DTD SVG 20010904//EN"
 "http://www.w3.org/TR/2001/REC-SVG-20010904/DTD/svg10.dtd">
<svg version="1.0" xmlns="http://www.w3.org/2000/svg"
 width="200.000000pt" height="200.000000pt" viewBox="0 0 200.000000 200.000000"
 preserveAspectRatio="xMidYMid meet">
<metadata>
Created by potrace 1.16, written by Peter Selinger 2001-2019
</metadata>
<g transform="translate(0.000000,200.000000) scale(0.100000,-0.100000)"
fill="#000000" stroke="none">
<path d="M90 1940 c-13 -13 -20 -33 -20 -56 0 -24 -8 -46 -25 -66 l-25 -30 0
-639 0 -639 41 -102 c46 -116 64 -148 83 -148 7 0 38 54 69 121 l57 121 0 413
0 414 48 3 47 3 3 184 c3 208 -2 225 -63 237 -19 3 -35 12 -35 19 0 8 -11 27
-25 43 -17 20 -25 42 -25 66 0 47 -29 76 -75 76 -22 0 -43 -8 -55 -20z m120
-255 l0 -95 -65 0 -65 0 0 95 0 95 65 0 65 0 0 -95z m105 -7 c3 -13 4 -84 3
-158 -3 -131 -4 -135 -25 -138 l-23 -3 0 160 c0 154 1 161 20 161 12 0 22 -9
25 -22z m-105 -1023 l0 -125 -65 0 -65 0 0 125 0 125 65 0 65 0 0 -125z"/>
<path d="M495 1861 c-11 -5 -29 -19 -40 -31 -20 -22 -20 -38 -23 -703 -2 -500
1 -689 9 -710 24 -57 27 -57 356 -57 l302 0 7 -56 c4 -39 2 -73 -10 -117 -30
-109 -30 -119 -10 -134 14 -10 103 -13 441 -13 l423 0 15 23 c13 21 13 28 -6
76 -11 29 -24 101 -30 159 -14 151 -59 278 -131 373 -50 65 -51 67 -34 91 23
33 20 75 -9 103 -13 14 -30 25 -38 25 -12 0 -11 8 5 39 24 49 29 138 8 152
-15 10 -63 7 -107 -7 l-22 -6 -3 371 -3 371 -28 27 -27 28 -513 2 c-281 1
-521 -2 -532 -6z m1033 -63 c9 -9 12 -102 12 -355 0 -339 0 -343 -20 -343 -12
0 -35 -7 -52 -16 -27 -14 -39 -15 -84 -4 -61 15 -84 5 -84 -36 l0 -24 -312 0
c-172 0 -323 -3 -336 -6 -16 -5 -22 -13 -20 -28 3 -21 5 -21 340 -24 l336 -2
11 -32 c6 -17 11 -32 11 -33 0 -2 -12 -6 -27 -10 -16 -4 -34 -11 -40 -17 -15
-12 -17 -104 -3 -113 16 -10 13 -17 -31 -75 -53 -70 -84 -133 -105 -209 l-17
-61 -289 0 c-180 0 -297 4 -309 10 -18 10 -19 29 -19 688 0 514 3 681 12 690
17 17 1009 17 1026 0z m192 -988 c0 -19 -7 -20 -210 -20 -203 0 -210 1 -210
20 0 19 7 20 210 20 203 0 210 -1 210 -20z m-11 -116 c99 -112 146 -226 166
-403 8 -64 19 -129 24 -145 6 -15 11 -32 11 -37 0 -5 -155 -9 -390 -9 -214 0
-390 2 -390 4 0 2 7 23 15 46 10 27 15 80 15 149 0 90 4 118 28 187 28 79 66
144 124 210 l30 34 168 0 168 0 31 -36z"/>
<path d="M775 1549 c-43 -39 -46 -41 -63 -25 -23 20 -36 20 -51 2 -10 -11 -6
-22 20 -50 17 -20 39 -36 48 -36 25 0 135 115 128 134 -10 26 -35 18 -82 -25z"/>
<path d="M955 1506 c-11 -8 -16 -19 -12 -30 6 -15 29 -16 224 -14 213 3 218 3
221 24 4 31 -17 34 -229 34 -140 0 -190 -3 -204 -14z"/>
<path d="M773 1368 c-41 -41 -43 -41 -62 -24 -21 19 -52 18 -59 -2 -5 -15 60
-82 80 -82 23 0 132 116 125 134 -11 27 -40 18 -84 -26z"/>
<path d="M953 1343 c-22 -8 -15 -42 10 -48 12 -3 112 -4 222 -3 l200 3 0 25 0
25 -210 2 c-115 1 -216 -1 -222 -4z"/>
<path d="M781 1196 l-44 -45 -27 21 c-56 41 -69 -10 -16 -61 40 -39 47 -37
119 37 31 31 48 56 45 68 -6 33 -32 26 -77 -20z"/>
<path d="M944 1165 c-13 -32 7 -35 227 -35 l219 0 0 25 0 25 -220 0 c-184 0
-222 -2 -226 -15z"/>
<path d="M637 843 c-15 -14 -6 -41 16 -47 12 -3 131 -6 264 -6 209 0 244 2
258 16 12 12 13 19 4 30 -9 11 -62 14 -274 14 -144 0 -265 -3 -268 -7z"/>
<path d="M616 677 c-11 -8 -15 -19 -10 -30 6 -16 25 -17 233 -15 222 3 226 3
229 24 4 31 -16 34 -239 34 -143 0 -200 -3 -213 -13z"/>
<path d="M610 535 c-10 -12 -10 -18 0 -30 18 -22 422 -22 440 0 10 12 10 18 0
30 -18 22 -422 22 -440 0z"/>
<path d="M1456 595 c-76 -27 -126 -98 -126 -179 0 -63 19 -104 68 -148 71 -64
172 -62 248 4 47 41 65 79 65 136 1 85 -39 147 -116 183 -47 22 -86 23 -139 4z
m92 -20 c1 -11 16 -28 33 -37 46 -27 60 -88 19 -88 -10 0 -25 11 -34 25 -20
30 -73 35 -83 9 -8 -21 22 -44 58 -44 36 0 76 -34 84 -71 8 -35 -13 -74 -50
-91 -13 -6 -26 -19 -28 -29 -8 -28 -44 -24 -51 6 -4 14 -12 25 -19 25 -20 0
-56 43 -59 70 -4 35 33 40 55 6 20 -30 50 -41 77 -26 40 21 12 60 -43 60 -13
0 -36 9 -51 21 -20 16 -26 29 -26 60 0 38 26 79 50 79 5 0 13 11 16 26 8 31
47 30 52 -1z"/>
</g>
</svg>
