<?xml version="1.0" standalone="no"?>
<!DOCTYPE svg PUBLIC "-//W3C//DTD SVG 20010904//EN"
 "http://www.w3.org/TR/2001/REC-SVG-20010904/DTD/svg10.dtd">
<svg version="1.0" xmlns="http://www.w3.org/2000/svg"
 width="200.000000pt" height="200.000000pt" viewBox="0 0 200.000000 200.000000"
 preserveAspectRatio="xMidYMid meet">
<metadata>
Created by potrace 1.16, written by Peter Selinger 2001-2019
</metadata>
<g transform="translate(0.000000,200.000000) scale(0.100000,-0.100000)"
fill="#000000" stroke="none">
<path d="M1042 1705 c-12 -25 -27 -45 -33 -45 -5 0 -25 11 -43 25 -48 36 -74
33 -82 -10 -10 -53 4 -118 32 -156 24 -32 24 -34 6 -37 -52 -8 -73 -85 -35
-123 l20 -21 -61 -81 c-109 -145 -176 -299 -176 -404 0 -38 -3 -43 -23 -43
-12 0 -63 -11 -112 -25 -110 -30 -108 -30 -120 -2 -9 19 -17 22 -65 21 -30 -1
-73 -8 -95 -15 -32 -11 -41 -19 -43 -42 -4 -36 97 -468 114 -486 11 -12 23
-12 86 -1 85 16 119 42 111 83 -5 24 -2 27 24 27 16 0 83 -23 149 -52 65 -28
138 -53 160 -56 36 -4 77 11 327 123 157 70 293 135 302 145 9 10 17 35 17 55
0 35 -24 85 -41 85 -5 0 -2 18 6 40 13 33 19 38 34 30 51 -28 159 1 211 56 74
80 62 223 -24 287 -69 51 -153 55 -229 10 -16 -9 -30 -15 -32 -12 -2 2 -24 38
-50 79 -25 41 -64 97 -86 124 l-39 50 19 24 c36 47 15 122 -34 122 -22 0 -21
5 4 39 27 37 40 96 33 149 -8 52 -29 55 -87 15 -43 -30 -42 -31 -79 36 -23 42
-40 39 -66 -14z m60 -65 c21 -37 44 -38 92 -5 l36 24 0 -37 c-1 -38 -10 -60
-46 -105 -21 -25 -27 -27 -107 -27 l-85 0 -31 42 c-22 30 -31 53 -31 80 0 43
5 45 40 18 37 -29 68 -25 88 10 9 16 19 30 22 30 3 0 13 -14 22 -30z m131
-352 c52 -62 116 -157 145 -213 18 -36 18 -43 6 -65 -16 -30 -18 -118 -3 -157
5 -15 22 -40 36 -55 23 -24 24 -29 14 -61 -7 -20 -18 -40 -25 -46 -11 -10
-345 -111 -364 -111 -4 0 -16 16 -26 35 -17 30 -41 47 -164 108 l-144 72 6 69
c11 119 85 270 205 418 l46 57 112 0 111 1 45 -52z m441 -283 c-3 -7 -48 -52
-100 -100 -62 -57 -100 -85 -110 -81 -23 9 -7 30 95 130 75 73 94 86 105 77 8
-7 13 -18 10 -26z m-146 13 c32 -32 -8 -80 -48 -58 -21 11 -25 27 -14 54 7 19
45 21 62 4z m130 -127 c18 -11 11 -51 -10 -65 -35 -22 -74 27 -48 59 14 17 38
19 58 6z m-833 -204 c153 -79 178 -102 160 -154 -6 -15 -22 -34 -35 -42 -24
-13 -33 -10 -122 29 -90 40 -128 46 -128 20 0 -14 166 -91 211 -97 47 -7 92
17 109 57 7 16 14 30 16 30 1 0 88 25 192 55 105 30 197 52 206 49 19 -7 29
-38 21 -63 -9 -29 -533 -261 -590 -261 -30 0 -76 15 -156 52 -76 34 -129 52
-159 53 l-44 1 -33 139 c-19 77 -31 145 -29 151 6 14 148 52 201 53 31 0 73
-17 180 -72z m-482 29 c3 -7 0 -19 -6 -25 -14 -14 -38 5 -30 25 7 18 29 18 36
0z"/>
<path d="M979 1142 c-93 -48 -136 -150 -109 -252 18 -67 91 -135 162 -149 158
-32 290 99 258 256 -10 44 -21 64 -58 103 -74 76 -161 90 -253 42z m121 -41
c0 -10 11 -26 25 -35 26 -17 33 -50 14 -61 -6 -4 -21 3 -34 15 -29 27 -55 20
-55 -14 0 -24 16 -36 49 -36 51 0 73 -92 30 -128 -11 -9 -25 -27 -30 -39 -10
-28 -39 -30 -39 -4 0 10 -11 26 -25 35 -16 10 -25 26 -25 41 0 30 19 32 43 5
14 -17 21 -18 37 -10 34 18 25 48 -19 60 -45 12 -59 25 -67 68 -5 27 -2 36 25
61 17 16 31 36 31 45 0 9 8 16 20 16 13 0 20 -7 20 -19z"/>
<path d="M368 1647 c-70 -40 -137 -82 -148 -92 -36 -32 -20 -80 33 -98 15 -6
17 -21 17 -114 0 -162 -14 -153 234 -153 177 0 205 2 217 17 9 10 16 55 19
130 5 108 6 114 29 126 33 16 45 39 38 68 -5 19 -41 44 -149 107 -79 45 -148
82 -153 82 -6 0 -67 -33 -137 -73z m232 -116 l85 -48 3 -122 3 -121 -46 0 -45
0 0 83 c0 51 -5 88 -12 95 -7 7 -41 12 -83 12 -42 0 -76 -5 -83 -12 -7 -7 -12
-44 -12 -95 l0 -83 -45 0 -46 0 3 121 3 122 85 48 c47 27 90 49 95 49 6 0 48
-22 95 -49z"/>
<path d="M1414 1687 c-2 -7 -3 -116 -2 -242 l3 -230 190 0 190 0 3 243 2 242
-190 0 c-145 0 -192 -3 -196 -13z m324 -79 c3 -16 -8 -18 -132 -18 -107 0
-136 3 -136 13 0 25 14 28 139 25 111 -3 126 -5 129 -20z m0 -100 c3 -16 -8
-18 -132 -18 -107 0 -136 3 -136 13 0 25 14 28 139 25 111 -3 126 -5 129 -20z
m0 -100 c3 -16 -8 -18 -132 -18 -107 0 -136 3 -136 13 0 25 14 28 139 25 111
-3 126 -5 129 -20z m0 -100 c3 -16 -8 -18 -132 -18 -107 0 -136 3 -136 13 0
25 14 28 139 25 111 -3 126 -5 129 -20z"/>
</g>
</svg>
