<?xml version="1.0" standalone="no"?>
<!DOCTYPE svg PUBLIC "-//W3C//DTD SVG 20010904//EN"
 "http://www.w3.org/TR/2001/REC-SVG-20010904/DTD/svg10.dtd">
<svg version="1.0" xmlns="http://www.w3.org/2000/svg"
 width="200.000000pt" height="200.000000pt" viewBox="0 0 200.000000 200.000000"
 preserveAspectRatio="xMidYMid meet">
<metadata>
Created by potrace 1.16, written by Peter Selinger 2001-2019
</metadata>
<g transform="translate(0.000000,200.000000) scale(0.100000,-0.100000)"
fill="#000000" stroke="none">
<path d="M1247 1960 c-109 -28 -221 -120 -273 -225 -27 -55 -29 -69 -29 -170
0 -104 2 -114 32 -176 39 -80 120 -160 199 -196 67 -30 181 -44 194 -22 16 25
-8 49 -50 49 -103 0 -234 90 -287 198 -24 50 -28 68 -28 147 0 74 5 99 24 137
53 109 162 189 278 203 109 14 250 -49 312 -139 39 -56 50 -84 65 -166 11 -59
14 -65 37 -65 23 0 24 3 22 60 -2 99 -35 169 -117 251 -54 54 -85 76 -131 94
-67 25 -187 35 -248 20z"/>
<path d="M1293 1676 c-57 -26 -93 -119 -64 -165 7 -11 1 -19 -22 -31 -43 -23
-77 -75 -77 -117 0 -60 51 -54 64 7 3 19 17 37 38 50 29 18 46 21 131 18 84
-3 100 0 108 14 6 11 5 21 -5 31 -11 11 -12 22 -4 53 26 97 -77 181 -169 140z
m106 -90 c12 -25 11 -31 -6 -55 -26 -33 -65 -39 -92 -12 -25 25 -27 49 -5 79
24 35 84 28 103 -12z"/>
<path d="M1586 1480 c-107 -43 -176 -145 -176 -262 0 -165 136 -290 301 -275
197 17 312 222 225 400 -46 94 -128 148 -236 154 -48 2 -78 -2 -114 -17z m203
-70 c52 -26 97 -87 110 -148 29 -135 -78 -262 -220 -262 -39 0 -126 38 -151
66 -55 62 -72 168 -39 239 53 118 186 164 300 105z"/>
<path d="M1667 1394 c-4 -4 -7 -50 -7 -101 l0 -94 38 -16 c20 -9 53 -16 72
-17 31 -1 35 2 35 23 0 20 -8 27 -42 38 l-42 14 -3 77 c-3 69 -5 77 -23 80
-12 2 -24 0 -28 -4z"/>
<path d="M1316 1074 c-3 -9 -6 -85 -6 -171 l0 -155 -29 -29 c-29 -29 -30 -29
-147 -29 l-117 0 22 24 c26 28 25 59 -3 64 -22 5 -126 -94 -126 -119 0 -27
104 -132 126 -127 27 5 29 36 4 63 l-21 22 119 5 c209 7 241 47 242 306 0 68
-5 132 -10 143 -13 23 -46 25 -54 3z"/>
<path d="M325 1047 c-143 -48 -242 -150 -280 -292 -37 -137 7 -286 116 -390
65 -62 114 -87 207 -106 69 -14 97 -7 97 27 0 14 -13 20 -68 30 -132 25 -216
88 -270 203 -79 168 -10 359 161 443 60 30 75 33 152 33 73 -1 93 -5 143 -30
67 -33 140 -107 167 -168 10 -23 22 -67 26 -97 8 -64 17 -80 44 -73 16 4 20
14 20 47 0 140 -99 285 -239 353 -45 22 -73 27 -146 30 -56 2 -105 -2 -130
-10z"/>
<path d="M372 760 c-53 -32 -72 -97 -48 -160 4 -10 -4 -19 -24 -28 -40 -18
-73 -66 -74 -111 -1 -32 2 -36 23 -36 19 0 27 7 33 32 15 60 46 73 170 73 89
0 110 3 115 16 3 8 1 20 -5 26 -7 7 -9 33 -5 69 6 58 5 59 -34 99 -34 33 -47
40 -79 40 -22 0 -54 -9 -72 -20z m108 -60 c40 -40 13 -100 -45 -100 -39 0 -55
16 -55 54 0 59 59 87 100 46z"/>
<path d="M665 566 c-60 -27 -107 -72 -138 -130 -17 -32 -22 -58 -22 -121 0
-70 4 -87 30 -135 36 -66 97 -114 172 -136 69 -20 128 -14 200 22 200 97 205
382 8 491 -52 28 -70 33 -130 33 -52 0 -83 -6 -120 -24z m233 -69 c108 -71
132 -229 50 -323 -46 -52 -96 -74 -168 -74 -128 0 -214 86 -215 216 0 50 5 69
30 109 63 102 206 136 303 72z"/>
<path d="M732 455 c-33 -35 -42 -52 -42 -79 0 -45 34 -85 80 -95 29 -6 35 -11
35 -31 0 -38 -39 -40 -57 -3 -19 39 -52 38 -56 -2 -2 -24 6 -41 42 -80 l46
-49 45 47 c37 39 45 54 45 86 0 46 -36 91 -73 91 -29 0 -52 24 -43 45 9 24 45
18 56 -9 11 -30 23 -38 44 -30 28 11 20 69 -12 96 -15 13 -31 31 -35 41 -10
27 -29 20 -75 -28z"/>
</g>
</svg>
