<?xml version="1.0" standalone="no"?>
<!DOCTYPE svg PUBLIC "-//W3C//DTD SVG 20010904//EN"
 "http://www.w3.org/TR/2001/REC-SVG-20010904/DTD/svg10.dtd">
<svg version="1.0" xmlns="http://www.w3.org/2000/svg"
 width="200.000000pt" height="200.000000pt" viewBox="0 0 200.000000 200.000000"
 preserveAspectRatio="xMidYMid meet">
<metadata>
Created by potrace 1.16, written by Peter Selinger 2001-2019
</metadata>
<g transform="translate(0.000000,200.000000) scale(0.100000,-0.100000)"
fill="#000000" stroke="none">
<path d="M1165 1938 c-133 -25 -252 -119 -313 -247 -88 -184 -36 -409 124
-535 227 -178 554 -99 678 164 39 83 48 213 21 306 -45 156 -167 271 -326 309
-71 16 -111 17 -184 3z m258 -76 c84 -41 166 -129 198 -209 18 -45 23 -79 23
-153 1 -86 -2 -101 -30 -161 -120 -253 -447 -315 -642 -120 -212 212 -132 557
153 663 38 14 71 18 141 15 79 -2 100 -7 157 -35z"/>
<path d="M1237 1813 c-4 -3 -7 -14 -7 -24 0 -10 -15 -25 -37 -36 -110 -54
-112 -221 -3 -254 l40 -12 0 -104 0 -104 -29 15 c-25 14 -36 31 -55 89 -10 31
-36 20 -36 -16 0 -44 42 -103 84 -118 26 -9 36 -19 38 -38 4 -34 32 -34 36 -1
2 18 13 29 42 42 52 22 80 68 80 135 0 61 -30 105 -85 123 l-35 12 0 99 c0 55
4 99 9 99 21 0 61 -47 69 -80 12 -51 37 -46 36 8 -1 48 -29 86 -81 108 -25 11
-33 21 -33 39 0 24 -18 33 -33 18z m-7 -187 c0 -90 -1 -94 -20 -89 -37 10 -63
53 -57 98 5 38 43 85 68 85 5 0 9 -42 9 -94z m95 -181 c49 -48 17 -155 -46
-155 -5 0 -9 41 -9 90 0 100 9 111 55 65z"/>
<path d="M1543 945 c-79 -52 -146 -95 -149 -95 -3 0 -4 9 -1 20 7 27 -9 83
-31 110 -17 21 -18 22 -101 5 -98 -20 -180 -16 -341 17 -62 13 -144 22 -200
22 -83 1 -100 -2 -137 -23 -46 -27 -83 -73 -134 -171 -19 -36 -56 -87 -83
-113 -44 -44 -50 -47 -65 -32 -10 8 -22 15 -28 15 -5 0 -49 -29 -96 -65 -60
-45 -87 -72 -87 -86 0 -24 342 -480 370 -493 16 -7 35 3 96 50 42 32 82 62 88
66 5 4 11 19 11 35 1 22 11 33 44 52 60 33 149 38 301 16 70 -10 148 -15 182
-12 109 10 141 33 442 329 273 268 278 274 283 319 5 42 3 48 -27 72 -23 20
-43 27 -73 27 -23 0 -51 7 -61 15 -11 8 -29 15 -40 15 -12 0 -85 -43 -163 -95z
m-46 -104 c-112 -82 -223 -159 -245 -170 -43 -22 -78 -26 -185 -23 -59 2 -68
4 -65 20 3 14 20 18 112 24 137 9 171 25 401 182 93 64 174 116 179 116 5 0
-84 -67 -197 -149z m-602 118 c110 -27 291 -35 373 -16 l63 15 10 -25 c39
-104 -57 -192 -211 -193 -81 -1 -146 -12 -163 -29 -19 -19 -12 -73 12 -93 19
-15 41 -18 120 -18 61 0 114 6 142 15 24 9 145 89 270 180 189 137 234 166
271 171 57 8 93 -17 83 -59 -10 -39 -519 -533 -588 -570 -50 -28 -56 -29 -162
-24 -60 3 -156 10 -211 17 -90 11 -108 10 -160 -5 -32 -9 -71 -25 -85 -36 -15
-10 -31 -19 -36 -19 -4 1 -69 83 -143 183 l-135 182 55 55 c30 30 70 84 89
120 74 143 111 169 241 169 52 0 116 -7 165 -20z m-450 -534 l167 -220 -29
-22 c-15 -13 -47 -37 -70 -53 l-42 -30 -64 82 c-35 46 -110 145 -167 221 -88
118 -101 140 -89 152 33 32 115 94 121 92 4 -1 82 -101 173 -222z"/>
<path d="M330 420 c-11 -11 -20 -31 -20 -45 0 -30 32 -65 59 -65 30 0 64 33
64 63 0 59 -63 87 -103 47z m60 -45 c0 -8 -6 -15 -14 -15 -17 0 -28 14 -19 24
12 12 33 6 33 -9z"/>
</g>
</svg>
