<?xml version="1.0" standalone="no"?>
<!DOCTYPE svg PUBLIC "-//W3C//DTD SVG 20010904//EN"
 "http://www.w3.org/TR/2001/REC-SVG-20010904/DTD/svg10.dtd">
<svg version="1.0" xmlns="http://www.w3.org/2000/svg"
 width="200.000000pt" height="200.000000pt" viewBox="0 0 200.000000 200.000000"
 preserveAspectRatio="xMidYMid meet">
<metadata>
Created by potrace 1.16, written by Peter Selinger 2001-2019
</metadata>
<g transform="translate(0.000000,200.000000) scale(0.100000,-0.100000)"
fill="#000000" stroke="none">
<path d="M1180 1939 c-212 -41 -366 -260 -331 -470 24 -144 108 -258 236 -319
238 -114 520 23 586 283 6 27 10 82 7 125 -14 250 -249 430 -498 381z m108
-110 c2 -19 12 -29 37 -38 46 -16 78 -63 79 -115 1 -54 -22 -55 -41 -2 -15 45
-40 76 -60 76 -10 0 -13 -23 -13 -103 l0 -103 35 -12 c56 -21 85 -64 85 -126
0 -64 -28 -112 -80 -138 -24 -12 -38 -28 -43 -49 -10 -38 -41 -37 -45 2 -2 19
-13 30 -42 43 -45 20 -81 72 -84 119 -1 26 3 32 19 32 14 0 21 -9 26 -35 7
-32 48 -80 70 -80 5 0 9 45 9 103 l0 102 -44 18 c-49 20 -70 45 -81 95 -16 74
32 163 95 177 25 6 30 11 30 36 0 26 3 30 23 27 15 -2 23 -11 25 -29z"/>
<path d="M1194 1726 c-45 -45 -48 -104 -8 -141 48 -44 54 -36 54 75 0 55 -3
100 -6 100 -3 0 -21 -15 -40 -34z"/>
<path d="M1290 1395 c0 -52 4 -95 8 -95 5 0 21 14 37 30 39 40 41 97 6 134
-43 46 -51 36 -51 -69z"/>
<path d="M650 980 c-81 -15 -118 -49 -176 -159 -21 -41 -67 -105 -102 -142
l-62 -67 145 -191 c80 -105 150 -191 154 -191 5 0 14 7 21 15 6 8 36 23 66 35
68 25 176 26 318 4 120 -19 210 -14 274 17 57 28 610 561 619 597 13 53 -45
83 -115 59 -21 -8 -135 -84 -253 -169 -280 -204 -275 -201 -421 -206 -114 -4
-117 -4 -142 22 -30 30 -33 69 -8 94 15 15 40 20 135 25 82 4 128 11 159 25
79 35 123 112 98 173 -15 34 -6 33 -100 13 -91 -19 -193 -13 -360 21 -135 28
-202 34 -250 25z"/>
<path d="M1539 866 c-264 -176 -265 -177 -411 -187 -66 -5 -123 -11 -126 -13
-2 -3 -2 -12 1 -21 5 -12 26 -15 110 -15 88 0 110 3 148 23 41 21 469 325 469
333 0 7 -4 5 -191 -120z"/>
<path d="M185 597 c-23 -18 -53 -42 -68 -54 l-27 -21 177 -235 177 -235 73 55
c59 45 71 58 63 72 -20 36 -336 445 -345 447 -5 2 -28 -11 -50 -29z m200 -212
c28 -27 30 -37 14 -68 -25 -46 -76 -51 -108 -10 -24 30 -20 58 11 86 28 24 55
21 83 -8z"/>
<path d="M322 343 c2 -10 10 -18 18 -18 8 0 16 8 18 18 2 12 -3 17 -18 17 -15
0 -20 -5 -18 -17z"/>
</g>
</svg>
