<?xml version="1.0" standalone="no"?>
<!DOCTYPE svg PUBLIC "-//W3C//DTD SVG 20010904//EN"
 "http://www.w3.org/TR/2001/REC-SVG-20010904/DTD/svg10.dtd">
<svg version="1.0" xmlns="http://www.w3.org/2000/svg"
 width="200.000000pt" height="200.000000pt" viewBox="0 0 200.000000 200.000000"
 preserveAspectRatio="xMidYMid meet">
<metadata>
Created by potrace 1.16, written by Peter Selinger 2001-2019
</metadata>
<g transform="translate(0.000000,200.000000) scale(0.100000,-0.100000)"
fill="#000000" stroke="none">
<path d="M1400 1690 c-154 -56 -260 -208 -260 -374 0 -211 154 -377 364 -393
248 -19 452 195 422 441 -5 36 -13 56 -23 60 -29 11 -37 -12 -38 -102 0 -72
-4 -96 -26 -142 -37 -80 -81 -125 -157 -162 -60 -29 -76 -33 -152 -33 -73 0
-93 4 -142 28 -249 122 -249 482 0 604 50 24 69 28 147 28 82 0 95 -3 154 -34
60 -31 66 -32 77 -16 20 27 7 42 -64 77 -57 28 -77 33 -156 35 -71 2 -103 -2
-146 -17z"/>
<path d="M1512 1588 c-6 -6 -12 -25 -12 -40 0 -16 -5 -28 -13 -28 -7 0 -26
-13 -41 -29 -35 -36 -44 -96 -23 -138 22 -42 39 -53 99 -67 42 -9 56 -17 66
-39 12 -24 11 -32 -3 -53 -21 -32 -41 -39 -74 -28 -17 6 -30 21 -37 44 -9 27
-17 35 -35 35 -21 0 -24 -4 -23 -40 1 -33 8 -46 43 -76 22 -20 41 -46 41 -57
0 -25 25 -46 45 -38 9 3 15 18 15 34 0 22 9 34 37 53 97 62 67 194 -48 220
-51 12 -79 34 -79 63 0 34 28 66 58 66 37 0 49 -10 67 -53 16 -39 35 -47 54
-23 19 23 -8 86 -49 114 -24 16 -37 33 -40 55 -5 34 -27 46 -48 25z"/>
<path d="M1814 1535 c-9 -23 3 -45 25 -45 25 0 34 14 26 40 -7 23 -43 27 -51
5z"/>
<path d="M90 1160 c-19 -19 -20 -33 -20 -423 l0 -404 23 -21 c21 -20 34 -22
125 -22 154 0 142 -33 142 390 l0 350 38 17 c30 14 66 18 197 17 142 0 183 -4
365 -38 113 -20 210 -42 217 -48 14 -11 17 -46 5 -64 -4 -8 -71 -14 -192 -19
-227 -8 -240 -10 -240 -39 0 -25 56 -62 191 -125 117 -55 202 -74 329 -74 101
0 111 2 255 51 83 29 168 52 189 52 39 0 106 -26 106 -41 0 -29 -246 -159
-445 -234 l-100 -38 -315 -8 c-583 -15 -515 -10 -515 -39 l0 -25 395 4 c458 4
455 3 683 102 147 63 267 129 326 179 57 48 40 103 -44 141 -66 31 -129 24
-272 -26 -154 -55 -244 -69 -350 -54 -74 10 -197 50 -269 87 l-37 19 93 6 c51
4 121 7 154 7 71 0 101 16 122 66 12 29 12 39 0 66 -24 57 -52 73 -161 91 -55
9 -152 26 -215 37 -63 11 -167 23 -230 26 -105 6 -140 3 -252 -22 -25 -6 -28
-3 -28 19 0 45 -32 57 -147 57 -90 0 -106 -3 -123 -20z m210 -425 l0 -385 -85
0 -85 0 0 385 0 385 85 0 85 0 0 -385z"/>
</g>
</svg>
