<?xml version="1.0" standalone="no"?>
<!DOCTYPE svg PUBLIC "-//W3C//DTD SVG 20010904//EN"
 "http://www.w3.org/TR/2001/REC-SVG-20010904/DTD/svg10.dtd">
<svg version="1.0" xmlns="http://www.w3.org/2000/svg"
 width="200.000000pt" height="200.000000pt" viewBox="0 0 200.000000 200.000000"
 preserveAspectRatio="xMidYMid meet">
<metadata>
Created by potrace 1.16, written by Peter Selinger 2001-2019
</metadata>
<g transform="translate(0.000000,200.000000) scale(0.100000,-0.100000)"
fill="#000000" stroke="none">
<path d="M893 1804 c-7 -3 -22 -50 -34 -105 l-22 -99 -42 0 c-51 0 -59 -8 -75
-80 -29 -133 -26 -127 -72 -133 -23 -3 -48 -13 -54 -22 -20 -27 -49 -185 -37
-204 9 -14 52 -16 443 -16 391 0 434 2 443 16 12 19 -17 177 -37 204 -6 9 -31
19 -54 22 -46 6 -43 0 -72 133 -16 72 -24 80 -75 80 l-42 0 -18 83 c-26 127
-27 127 -143 126 -53 0 -102 -3 -109 -5z m219 -104 c9 -41 17 -81 18 -87 0
-10 -32 -13 -130 -13 -74 0 -130 4 -130 9 0 11 29 140 35 159 4 9 29 12 97 10
l92 -3 18 -75z m-150 -200 c30 -118 38 -110 -113 -110 -119 0 -130 1 -125 18
3 9 13 50 21 90 l17 73 91 -3 92 -3 17 -65z m53 33 c-7 -39 -12 -50 -19 -42
-2 2 -7 21 -11 42 -7 34 -5 37 15 37 20 0 22 -3 15 -37z m240 -35 c9 -40 18
-81 21 -90 5 -17 -6 -18 -125 -18 -118 0 -131 2 -131 18 0 21 28 141 36 153 3
5 45 9 94 9 l88 0 17 -72z m-436 -225 c11 -47 18 -90 15 -95 -3 -4 -61 -8
-130 -8 -111 0 -124 2 -124 18 0 17 26 135 35 160 3 8 31 12 94 12 l89 0 21
-87z m48 35 c-11 -54 -17 -50 -30 20 -6 29 -4 32 17 32 23 0 23 -1 13 -52z
m232 15 c22 -82 31 -135 26 -144 -4 -5 -60 -9 -125 -9 -65 0 -121 4 -125 9 -5
9 4 62 26 144 l10 37 89 0 89 0 10 -37z m67 20 c-2 -10 -8 -34 -12 -53 -7 -33
-7 -34 -14 -10 -22 81 -22 80 5 80 20 0 25 -4 21 -17z m236 -58 c29 -124 37
-115 -106 -115 -69 0 -127 4 -130 8 -3 5 4 48 15 96 l21 87 91 -3 92 -3 17
-70z"/>
<path d="M373 1023 c-20 -20 -113 -365 -113 -416 0 -31 25 -52 77 -66 34 -9
48 -9 70 2 56 28 143 -26 143 -89 0 -36 37 -74 71 -74 11 0 19 -7 19 -15 0
-23 37 -55 64 -55 17 0 26 -7 30 -25 4 -14 18 -32 31 -41 24 -16 38 -15 78 1
11 5 17 3 17 -7 0 -42 70 -62 114 -33 20 13 26 13 53 0 36 -18 72 -8 96 26 11
15 22 20 38 16 30 -8 77 18 84 46 4 15 14 22 31 23 30 2 53 20 65 52 5 13 13
20 19 17 13 -8 66 21 74 40 3 9 6 25 6 35 0 71 76 110 155 80 31 -12 100 3
127 27 26 23 23 42 -29 250 -52 210 -63 229 -121 218 -53 -10 -86 -27 -97 -52
-19 -45 -117 -44 -236 2 -109 42 -137 43 -199 8 l-47 -26 -32 23 c-53 37 -104
37 -196 -1 -57 -23 -101 -34 -151 -37 -71 -4 -72 -4 -86 24 -24 51 -122 80
-155 47z m110 -35 c9 -5 17 -14 17 -21 0 -7 -21 -99 -47 -205 -35 -140 -52
-193 -64 -197 -29 -9 -94 18 -97 41 -4 30 87 387 101 396 13 9 62 1 90 -14z
m1130 0 c19 -31 100 -375 93 -393 -6 -16 -77 -38 -99 -29 -16 6 -112 368 -105
400 2 11 18 24 38 31 50 17 58 16 73 -9z m-682 -15 c16 -10 29 -21 29 -25 0
-4 -31 -26 -69 -48 -85 -51 -103 -70 -99 -106 4 -36 58 -74 104 -74 18 0 63
16 101 35 40 21 78 35 94 33 20 -2 66 -44 173 -158 120 -126 146 -159 144
-180 -2 -20 -9 -26 -34 -28 -27 -3 -41 8 -122 92 -50 53 -96 96 -102 96 -24 0
-5 -27 80 -115 50 -51 90 -98 90 -104 0 -21 -39 -51 -57 -44 -10 4 -56 47
-104 97 -54 57 -89 87 -97 82 -9 -5 15 -37 73 -99 87 -95 102 -127 66 -147
-11 -5 -23 -10 -26 -10 -4 0 -37 29 -74 65 -44 43 -77 66 -94 67 -16 1 -27 8
-27 17 0 22 -41 61 -64 61 -14 0 -26 12 -36 33 -12 25 -22 33 -47 35 -21 2
-33 9 -33 18 0 24 -47 64 -75 64 -17 0 -46 -19 -92 -61 -65 -61 -66 -62 -82
-41 -9 12 -38 31 -64 42 -36 16 -47 26 -43 38 3 9 22 83 42 165 l38 147 65 0
c49 0 90 9 161 34 109 39 141 43 181 19z m290 -15 c65 -28 85 -32 164 -32 l91
0 38 -161 c21 -88 41 -166 43 -172 4 -9 -5 -13 -26 -13 -38 0 -86 -23 -101
-47 -9 -16 -30 2 -159 135 -137 141 -151 152 -184 152 -23 0 -55 -11 -87 -31
-58 -36 -114 -46 -150 -27 -36 19 -37 52 -2 77 87 62 248 151 272 151 15 0 60
-14 101 -32z m-463 -370 c24 -24 11 -52 -55 -114 -69 -64 -89 -74 -111 -52
-24 24 -11 53 50 115 62 63 92 75 116 51z m100 -97 c3 -18 -11 -39 -59 -87
-63 -63 -92 -77 -117 -52 -23 23 -11 48 51 108 51 50 67 60 92 58 23 -2 31 -9
33 -27z m80 -53 c26 -26 12 -56 -54 -117 -71 -65 -83 -70 -108 -45 -27 27 -18
49 48 112 64 61 91 73 114 50z m100 -104 c3 -25 -5 -36 -47 -72 -54 -46 -85
-53 -101 -23 -14 28 -15 27 37 82 39 42 52 50 77 47 26 -3 31 -8 34 -34z m57
-38 c22 -33 5 -66 -34 -66 -40 0 -44 9 -16 42 14 16 25 34 25 39 0 15 9 10 25
-15z"/>
</g>
</svg>
