<?xml version="1.0" standalone="no"?>
<!DOCTYPE svg PUBLIC "-//W3C//DTD SVG 20010904//EN"
 "http://www.w3.org/TR/2001/REC-SVG-20010904/DTD/svg10.dtd">
<svg version="1.0" xmlns="http://www.w3.org/2000/svg"
 width="200.000000pt" height="200.000000pt" viewBox="0 0 200.000000 200.000000"
 preserveAspectRatio="xMidYMid meet">
<metadata>
Created by potrace 1.16, written by Peter Selinger 2001-2019
</metadata>
<g transform="translate(0.000000,200.000000) scale(0.100000,-0.100000)"
fill="#000000" stroke="none">
<path d="M886 1822 c-3 -5 6 -31 19 -60 20 -42 21 -53 10 -62 -8 -6 -16 -24
-20 -39 -3 -15 -31 -54 -61 -86 -72 -78 -124 -181 -124 -247 0 -142 106 -228
284 -228 104 0 176 21 226 66 108 98 87 255 -55 408 -30 33 -57 72 -60 87 -4
15 -13 33 -20 39 -12 10 -11 20 11 61 13 28 22 54 19 59 -7 12 -222 13 -229 2z
m175 -64 c-17 -41 -20 -43 -61 -43 -41 0 -44 2 -61 43 l-18 42 79 0 79 0 -18
-42z m13 -93 c4 -13 -8 -15 -74 -15 -66 0 -78 2 -74 15 5 11 23 15 74 15 51 0
69 -4 74 -15z m61 -102 c66 -68 125 -178 125 -235 0 -21 -7 -55 -16 -76 -36
-86 -108 -122 -244 -122 -102 0 -170 21 -208 64 -87 99 -61 232 73 369 l56 57
79 0 79 0 56 -57z"/>
<path d="M990 1528 c0 -7 -14 -21 -30 -30 -24 -14 -30 -24 -30 -52 0 -48 9
-66 36 -77 20 -7 24 -15 24 -54 0 -33 -4 -45 -15 -45 -9 0 -15 9 -15 24 0 13
-7 27 -16 30 -12 5 -15 -1 -12 -32 2 -29 9 -40 31 -50 15 -7 27 -20 27 -28 0
-7 5 -14 10 -14 6 0 10 7 10 15 0 9 11 20 24 24 27 11 36 29 36 77 0 26 -7 39
-30 56 -25 18 -30 28 -30 66 0 49 23 56 28 9 5 -37 32 -36 32 1 0 29 -26 62
-48 62 -7 0 -12 7 -12 15 0 8 -4 15 -10 15 -5 0 -10 -6 -10 -12z m0 -88 c0
-29 -4 -40 -15 -40 -10 0 -15 10 -15 33 0 19 3 37 7 40 15 16 23 5 23 -33z
m48 -133 c2 -28 -1 -37 -12 -37 -12 0 -16 11 -16 41 0 52 24 48 28 -4z"/>
<path d="M373 1003 c-20 -20 -113 -365 -113 -418 0 -15 9 -31 25 -41 32 -21
110 -30 128 -15 38 31 137 -34 137 -90 0 -43 40 -77 83 -70 4 0 7 -7 7 -17 0
-24 41 -62 67 -62 14 0 23 -8 27 -25 8 -33 41 -48 87 -42 29 4 39 1 39 -8 0
-18 39 -45 66 -45 12 0 32 9 45 19 22 17 27 17 44 5 10 -8 30 -14 45 -14 29 0
70 25 70 43 0 8 13 11 38 9 39 -4 82 24 82 53 0 8 9 15 21 15 31 0 59 18 69
46 6 16 17 24 33 24 29 0 67 39 67 69 0 31 27 79 47 84 48 14 92 17 98 7 9
-15 70 -12 110 4 22 10 37 24 41 41 9 37 -83 402 -109 428 -15 15 -27 18 -58
13 -57 -9 -89 -27 -95 -52 -5 -19 -15 -24 -62 -30 -50 -6 -68 -3 -147 26 -138
50 -172 50 -250 1 -18 -12 -26 -10 -59 13 -51 34 -107 34 -183 0 -45 -21 -79
-28 -149 -32 -90 -4 -91 -4 -97 20 -7 27 -38 45 -96 54 -31 5 -43 2 -58 -13z
m117 -39 c13 -13 9 -37 -35 -212 l-50 -197 -31 -3 c-44 -4 -84 14 -84 38 0 23
88 378 97 393 8 13 85 -1 103 -19z m1172 -159 c56 -218 57 -232 21 -246 -15
-5 -41 -9 -57 -7 l-31 3 -47 180 c-58 224 -58 231 -15 244 17 5 43 9 57 8 24
-2 27 -11 72 -182z m-724 149 c12 -8 22 -19 22 -23 0 -4 -34 -27 -75 -51 -81
-46 -98 -66 -93 -108 2 -21 14 -32 48 -50 55 -27 80 -24 169 25 41 22 72 32
86 29 30 -8 315 -309 315 -333 0 -10 -5 -24 -12 -31 -28 -28 -55 -12 -142 83
-77 83 -116 113 -116 88 0 -5 41 -52 90 -106 50 -53 90 -100 90 -103 0 -3 -5
-14 -10 -25 -21 -37 -52 -22 -146 72 -122 121 -148 111 -30 -12 84 -86 98
-113 74 -137 -24 -24 -53 -11 -119 53 -39 38 -76 65 -88 65 -12 0 -21 6 -21
15 0 22 -37 55 -62 55 -16 0 -28 11 -38 33 -10 20 -26 35 -45 40 -17 5 -39 23
-50 40 -15 24 -29 33 -53 35 -28 3 -43 -5 -100 -56 l-67 -60 -17 23 c-10 13
-38 31 -63 40 -41 16 -44 20 -38 44 3 14 22 89 42 166 l36 140 90 6 c65 4 106
13 150 31 69 30 140 35 173 12z m289 -16 c68 -27 89 -31 163 -30 l86 1 39
-157 c21 -86 40 -165 43 -174 4 -15 -3 -18 -38 -18 -33 0 -48 -6 -73 -31 l-31
-31 -138 145 c-170 179 -180 183 -270 134 -81 -45 -110 -51 -153 -33 -43 18
-46 47 -7 76 90 66 240 149 269 150 17 0 67 -14 110 -32z m-469 -370 c22 -22
12 -43 -52 -107 -53 -52 -68 -62 -92 -59 -23 2 -30 9 -32 29 -2 20 10 39 60
87 62 61 92 74 116 50z m90 -70 c26 -26 12 -56 -53 -117 -66 -61 -90 -72 -113
-49 -26 26 -12 56 53 117 66 61 90 72 113 49z m100 -103 c3 -27 -6 -38 -62
-88 -64 -57 -91 -68 -114 -45 -22 22 -12 42 51 106 52 53 67 62 92 60 25 -3
30 -8 33 -33z m80 -47 c22 -22 12 -52 -35 -100 -50 -51 -72 -58 -97 -32 -24
23 -21 30 35 90 52 54 75 64 97 42z m67 -72 c21 -31 5 -66 -28 -66 -42 0 -49
20 -19 56 15 18 28 33 29 33 2 1 10 -10 18 -23z"/>
</g>
</svg>
