<?xml version="1.0" standalone="no"?>
<!DOCTYPE svg PUBLIC "-//W3C//DTD SVG 20010904//EN"
 "http://www.w3.org/TR/2001/REC-SVG-20010904/DTD/svg10.dtd">
<svg version="1.0" xmlns="http://www.w3.org/2000/svg"
 width="200.000000pt" height="200.000000pt" viewBox="0 0 200.000000 200.000000"
 preserveAspectRatio="xMidYMid meet">
<metadata>
Created by potrace 1.16, written by Peter Selinger 2001-2019
</metadata>
<g transform="translate(0.000000,200.000000) scale(0.100000,-0.100000)"
fill="#000000" stroke="none">
<path d="M1516 1964 c-35 -11 -65 -31 -106 -72 -72 -73 -95 -132 -88 -236 6
-89 30 -138 98 -200 114 -102 276 -102 390 0 84 76 117 170 98 277 -32 179
-213 285 -392 231z m165 -89 c52 -19 106 -67 125 -112 17 -38 18 -120 3 -160
-15 -40 -67 -92 -114 -114 -131 -61 -285 43 -285 192 0 87 54 163 135 193 52
19 83 19 136 1z"/>
<path d="M726 1655 c-150 -53 -194 -260 -80 -370 145 -138 383 -39 384 161 0
154 -156 262 -304 209z m127 -89 c99 -42 114 -149 32 -226 -21 -20 -37 -25
-80 -25 -58 0 -92 22 -121 77 -31 60 -1 136 66 170 42 22 61 22 103 4z"/>
<path d="M1195 1287 c-59 -20 -86 -35 -127 -75 -43 -41 -51 -84 -19 -102 27
-14 27 -14 75 30 52 48 101 70 158 70 76 -1 118 -28 200 -129 21 -25 41 -27
62 -5 30 29 13 75 -51 136 -74 72 -207 105 -298 75z"/>
<path d="M1545 950 c-132 -77 -243 -140 -247 -140 -5 0 -8 17 -8 39 0 21 -6
43 -12 49 -15 11 -545 142 -576 142 -14 0 -134 -99 -329 -271 -329 -289 -353
-312 -353 -334 0 -21 46 -48 64 -38 8 4 152 130 321 278 191 168 312 269 323
267 9 -2 119 -28 245 -58 l227 -56 0 -69 0 -69 -235 0 c-227 0 -235 -1 -245
-21 -9 -16 -8 -26 5 -45 l15 -24 256 0 c157 0 263 4 275 10 13 7 19 21 19 44
0 19 6 38 13 44 14 12 474 282 480 282 8 0 78 -112 75 -120 -2 -5 -139 -101
-306 -214 l-303 -206 -258 0 c-254 0 -258 0 -278 -22 -12 -13 -76 -92 -142
-177 -121 -153 -137 -185 -106 -211 31 -25 60 0 183 160 l123 160 253 0 252 0
342 231 c188 127 347 239 352 250 13 23 4 42 -82 164 -38 54 -72 91 -83 93
-11 1 -125 -59 -260 -138z"/>
</g>
</svg>
