<?xml version="1.0" standalone="no"?>
<!DOCTYPE svg PUBLIC "-//W3C//DTD SVG 20010904//EN"
 "http://www.w3.org/TR/2001/REC-SVG-20010904/DTD/svg10.dtd">
<svg version="1.0" xmlns="http://www.w3.org/2000/svg"
 width="200.000000pt" height="200.000000pt" viewBox="0 0 200.000000 200.000000"
 preserveAspectRatio="xMidYMid meet">
<metadata>
Created by potrace 1.16, written by Peter Selinger 2001-2019
</metadata>
<g transform="translate(0.000000,200.000000) scale(0.100000,-0.100000)"
fill="#000000" stroke="none">
<path d="M283 1850 c-76 -39 -73 -8 -73 -720 0 -448 3 -638 11 -653 21 -40 52
-67 84 -73 27 -5 34 -12 44 -44 13 -46 59 -87 104 -95 18 -3 145 -5 282 -3
246 3 250 3 253 24 2 15 -4 23 -20 28 -13 3 -135 6 -271 6 -143 0 -256 4 -267
10 -38 20 -40 54 -40 674 0 552 1 604 18 636 l17 35 531 3 c529 2 531 2 550
-19 18 -20 19 -45 24 -387 5 -336 6 -367 22 -370 11 -2 19 5 23 20 3 13 5 181
3 375 -3 336 -4 353 -23 380 -12 15 -39 37 -61 47 -29 14 -46 31 -60 60 -10
22 -32 49 -47 61 -28 19 -42 20 -545 23 -506 2 -518 2 -559 -18z m1091 -62
c34 -49 47 -47 -463 -50 -467 -3 -480 -4 -508 -24 -65 -47 -63 -28 -63 -676 0
-516 -2 -588 -15 -588 -20 0 -53 34 -60 62 -3 13 -4 300 -3 639 3 590 4 618
22 638 19 21 23 21 547 21 l528 0 15 -22z"/>
<path d="M587 1575 c-32 -33 -41 -68 -27 -110 35 -107 200 -78 200 35 0 60
-41 100 -103 100 -34 0 -50 -6 -70 -25z m107 -41 c32 -31 8 -84 -38 -84 -29 0
-46 18 -46 50 0 14 5 31 12 38 17 17 54 15 72 -4z"/>
<path d="M1110 1501 c0 -15 -11 -26 -39 -37 -99 -39 -88 -174 16 -200 20 -5
23 -12 23 -56 0 -42 -3 -49 -17 -46 -10 2 -26 19 -35 38 -10 19 -22 35 -28 34
-5 -1 -14 -2 -20 -2 -16 -3 -11 -45 10 -79 12 -20 31 -35 52 -41 23 -6 34 -15
38 -33 7 -30 32 -31 45 -1 5 12 19 22 30 22 11 0 25 -10 30 -22 13 -30 38 -29
45 2 3 14 14 27 25 29 36 7 65 33 76 71 18 61 -13 111 -83 134 -14 4 -18 17
-18 57 0 43 3 50 16 45 9 -3 17 -6 20 -6 2 0 10 -16 18 -35 16 -38 27 -43 45
-21 26 32 -32 116 -80 116 -14 0 -19 7 -19 26 0 21 -4 25 -22 22 -15 -2 -24
-11 -26 -25 -2 -17 -10 -23 -27 -23 -17 0 -25 6 -27 23 -4 30 -48 38 -48 8z
m0 -131 c0 -54 -14 -65 -44 -34 -20 19 -20 34 0 62 27 39 44 28 44 -28z m100
0 c0 -47 -2 -50 -25 -50 -23 0 -25 3 -25 50 0 47 2 50 25 50 23 0 25 -3 25
-50z m0 -160 c0 -47 -2 -50 -25 -50 -23 0 -25 3 -25 50 0 47 2 50 25 50 23 0
25 -3 25 -50z m96 25 c15 -23 15 -27 0 -50 -28 -42 -46 -32 -46 25 0 57 18 67
46 25z"/>
<path d="M594 1351 c-64 -29 -88 -71 -93 -163 -3 -75 -2 -78 28 -109 l31 -31
105 4 c124 4 142 15 151 94 11 93 -32 181 -103 210 -43 18 -70 17 -119 -5z
m137 -71 c28 -28 30 -34 27 -97 l-3 -68 -100 0 -100 0 -3 40 c-8 99 30 155
105 155 36 0 50 -6 74 -30z"/>
<path d="M613 1014 c-3 -9 -1 -25 5 -35 19 -29 14 -56 -13 -83 -33 -33 -33
-76 0 -107 32 -31 32 -71 0 -103 -32 -33 -33 -76 -1 -108 18 -18 26 -37 28
-74 3 -42 6 -49 26 -52 20 -3 22 0 22 48 0 43 4 55 27 74 36 31 36 77 0 114
-34 36 -34 67 0 96 36 31 36 77 0 114 -30 31 -35 63 -12 82 8 7 15 18 15 25 0
28 -87 36 -97 9z m65 -172 c3 -16 -2 -22 -17 -22 -26 0 -36 17 -20 36 16 19
33 13 37 -14z m0 -210 c3 -16 -2 -22 -17 -22 -26 0 -36 17 -20 36 16 19 33 13
37 -14z"/>
<path d="M1200 859 c-170 -66 -200 -88 -200 -145 0 -50 37 -84 90 -84 l40 0 0
-126 c0 -122 -1 -128 -25 -150 -14 -13 -25 -32 -25 -44 0 -13 -7 -20 -18 -20
-30 0 -62 -42 -62 -81 1 -78 5 -79 400 -79 l341 0 24 25 c33 32 34 83 2 113
-13 12 -31 22 -40 22 -10 0 -17 8 -17 18 0 10 -11 29 -25 42 -24 23 -25 28
-25 152 l0 128 30 0 c87 0 131 84 78 144 -30 32 -324 146 -376 145 -20 0 -107
-27 -192 -60z m372 -50 c168 -64 170 -66 166 -92 l-3 -22 -340 0 c-323 0 -340
1 -343 19 -2 10 0 22 6 28 5 5 78 36 163 68 114 45 162 59 186 55 17 -3 92
-28 165 -56z m-282 -309 l0 -130 -55 0 -55 0 0 130 0 130 55 0 55 0 0 -130z
m160 0 l0 -130 -55 0 -55 0 0 130 0 130 55 0 55 0 0 -130z m160 0 l0 -130 -55
0 -55 0 0 130 0 130 55 0 55 0 0 -130z m50 -208 c0 -22 27 -48 55 -54 12 -2
21 -13 23 -26 l3 -22 -346 0 -346 0 3 22 c2 14 12 24 28 28 15 3 31 18 40 37
l15 33 263 0 c248 0 262 -1 262 -18z"/>
<path d="M1164 275 c-3 -8 -3 -19 1 -25 8 -13 271 -14 279 -1 4 5 3 16 0 25
-9 23 -272 24 -280 1z"/>
<path d="M1482 278 c-19 -24 2 -40 49 -36 36 2 44 7 44 23 0 16 -8 21 -41 23
-25 2 -45 -2 -52 -10z"/>
<path d="M805 886 c-30 -22 -12 -46 33 -46 49 0 70 20 47 44 -20 20 -55 21
-80 2z"/>
<path d="M805 806 c-17 -12 -17 -16 -5 -30 19 -24 84 -18 88 8 7 34 -47 49
-83 22z"/>
<path d="M805 676 c-30 -22 -12 -46 33 -46 49 0 70 20 47 44 -20 20 -55 21
-80 2z"/>
<path d="M805 596 c-17 -12 -17 -16 -5 -30 19 -24 84 -18 88 8 7 34 -47 49
-83 22z"/>
</g>
</svg>
