<?xml version="1.0" standalone="no"?>
<!DOCTYPE svg PUBLIC "-//W3C//DTD SVG 20010904//EN"
 "http://www.w3.org/TR/2001/REC-SVG-20010904/DTD/svg10.dtd">
<svg version="1.0" xmlns="http://www.w3.org/2000/svg"
 width="200.000000pt" height="200.000000pt" viewBox="0 0 200.000000 200.000000"
 preserveAspectRatio="xMidYMid meet">
<metadata>
Created by potrace 1.16, written by Peter Selinger 2001-2019
</metadata>
<g transform="translate(0.000000,200.000000) scale(0.100000,-0.100000)"
fill="#000000" stroke="none">
<path d="M283 1850 c-76 -39 -73 -8 -73 -720 0 -448 3 -638 11 -653 21 -40 52
-67 85 -73 26 -5 34 -12 39 -35 4 -15 16 -40 27 -55 40 -50 67 -54 331 -54
l245 0 26 35 c15 19 33 35 41 35 7 0 16 8 20 19 3 10 14 26 25 36 17 15 20 31
20 107 0 77 -2 88 -17 88 -29 0 -81 37 -98 69 -28 55 -14 144 28 180 31 25
323 132 377 138 51 5 95 -5 193 -43 17 -6 18 12 15 359 -3 350 -4 367 -23 394
-12 15 -39 37 -61 47 -29 14 -46 31 -60 60 -10 22 -32 49 -47 61 -28 19 -42
20 -545 23 -506 2 -518 2 -559 -18z m1091 -62 c34 -49 47 -47 -463 -50 -467
-3 -480 -4 -508 -24 -65 -47 -63 -28 -63 -676 0 -516 -2 -588 -15 -588 -20 0
-53 34 -60 62 -3 13 -4 300 -3 639 3 590 4 618 22 638 19 21 23 21 547 21
l528 0 15 -22z m-643 -217 c64 -64 20 -171 -71 -171 -51 0 -86 22 -100 65 -23
71 23 135 97 135 36 0 50 -6 74 -29z m417 -53 c7 -7 12 -20 12 -30 0 -13 8
-18 25 -18 20 0 25 5 25 24 0 24 23 41 41 30 5 -3 9 -16 9 -30 0 -17 6 -24 19
-24 48 0 106 -84 80 -116 -18 -22 -29 -17 -45 21 -8 19 -16 35 -18 35 -3 0
-11 3 -20 6 -13 5 -16 -2 -16 -45 0 -40 4 -53 18 -57 43 -14 62 -29 78 -62 28
-60 -7 -131 -71 -143 -11 -3 -21 -13 -23 -24 -2 -11 -8 -24 -13 -29 -11 -13
-39 12 -39 35 0 14 -7 19 -25 19 -18 0 -25 -5 -25 -19 0 -23 -28 -48 -39 -35
-5 5 -11 18 -13 28 -2 13 -15 23 -36 28 -21 6 -40 20 -52 41 -21 34 -26 76
-10 79 6 0 15 1 20 2 6 1 18 -15 28 -34 9 -19 25 -36 35 -38 14 -3 17 4 17 46
0 44 -3 51 -23 56 -104 26 -115 161 -16 200 26 10 39 22 39 34 0 32 17 41 38
20z m-435 -162 c71 -29 114 -117 103 -210 -9 -79 -27 -90 -151 -94 l-105 -4
-31 31 c-30 31 -31 34 -28 109 5 92 29 134 93 163 49 22 76 23 119 5z m-19
-332 c20 -8 21 -28 1 -44 -21 -17 -19 -57 4 -69 46 -25 47 -105 1 -133 -28
-18 -25 -56 7 -90 36 -37 36 -83 0 -114 -23 -19 -27 -31 -27 -74 0 -48 -2 -51
-22 -48 -20 3 -23 10 -26 52 -2 37 -10 56 -28 74 -32 32 -31 75 1 108 32 32
32 72 0 103 -33 31 -33 74 0 107 27 27 32 54 13 83 -24 39 21 66 76 45z m194
-156 c-2 -19 -10 -24 -42 -26 -43 -4 -62 8 -53 32 5 11 20 16 52 16 42 0 46
-2 43 -22z m0 -80 c-2 -18 -10 -24 -39 -26 -23 -2 -40 2 -48 12 -20 24 -4 36
45 36 41 0 45 -2 42 -22z m0 -130 c-2 -19 -10 -24 -42 -26 -43 -4 -62 8 -53
32 5 11 20 16 52 16 42 0 46 -2 43 -22z m0 -80 c-2 -18 -10 -24 -39 -26 -23
-2 -40 2 -48 12 -20 24 -4 36 45 36 41 0 45 -2 42 -22z"/>
<path d="M622 1538 c-7 -7 -12 -24 -12 -38 0 -34 17 -50 52 -50 37 0 57 38 40
75 -13 27 -58 35 -80 13z"/>
<path d="M1066 1398 c-20 -28 -20 -43 0 -62 30 -31 44 -20 44 34 0 56 -17 67
-44 28z"/>
<path d="M1160 1370 c0 -47 2 -50 25 -50 23 0 25 3 25 50 0 47 -2 50 -25 50
-23 0 -25 -3 -25 -50z"/>
<path d="M1160 1210 c0 -47 2 -50 25 -50 23 0 25 3 25 50 0 47 -2 50 -25 50
-23 0 -25 -3 -25 -50z"/>
<path d="M1260 1210 c0 -57 18 -67 46 -25 15 23 15 27 0 50 -28 42 -46 32 -46
-25z"/>
<path d="M590 1290 c-29 -29 -40 -63 -40 -120 0 -61 14 -70 102 -70 107 0 108
1 108 82 0 64 -3 72 -29 99 -37 37 -109 41 -141 9z"/>
<path d="M641 856 c-16 -19 -6 -36 20 -36 15 0 20 6 17 22 -4 27 -21 33 -37
14z"/>
<path d="M641 646 c-16 -19 -6 -36 20 -36 15 0 20 6 17 22 -4 27 -21 33 -37
14z"/>
<path d="M1200 859 c-170 -66 -200 -88 -200 -145 0 -50 37 -84 90 -84 l40 0 0
-126 c0 -122 -1 -128 -25 -150 -14 -13 -25 -32 -25 -44 0 -13 -7 -20 -18 -20
-32 0 -62 -37 -62 -78 0 -82 3 -82 400 -82 l341 0 24 25 c33 32 34 83 2 113
-13 12 -31 22 -40 22 -10 0 -17 8 -17 18 0 10 -11 29 -25 42 -24 23 -25 28
-25 152 l0 128 30 0 c87 0 131 84 78 144 -30 32 -324 146 -376 145 -20 0 -107
-27 -192 -60z m372 -50 c168 -64 170 -66 166 -92 l-3 -22 -340 0 c-323 0 -340
1 -343 19 -2 10 0 22 6 28 5 5 78 36 163 68 114 45 162 59 186 55 17 -3 92
-28 165 -56z m-282 -309 l0 -130 -55 0 -55 0 0 130 0 130 55 0 55 0 0 -130z
m160 0 l0 -130 -55 0 -55 0 0 130 0 130 55 0 55 0 0 -130z m160 0 l0 -130 -55
0 -55 0 0 130 0 130 55 0 55 0 0 -130z m50 -208 c0 -22 27 -48 55 -54 12 -2
21 -13 23 -26 l3 -22 -346 0 -346 0 3 22 c2 14 12 24 28 28 15 3 31 18 40 37
l15 33 263 0 c248 0 262 -1 262 -18z"/>
<path d="M1164 275 c-3 -8 -3 -19 1 -25 8 -13 271 -14 279 -1 4 5 3 16 0 25
-9 23 -272 24 -280 1z"/>
<path d="M1482 278 c-19 -24 2 -40 49 -36 36 2 44 7 44 23 0 16 -8 21 -41 23
-25 2 -45 -2 -52 -10z"/>
</g>
</svg>
