<?xml version="1.0" standalone="no"?>
<!DOCTYPE svg PUBLIC "-//W3C//DTD SVG 20010904//EN"
 "http://www.w3.org/TR/2001/REC-SVG-20010904/DTD/svg10.dtd">
<svg version="1.0" xmlns="http://www.w3.org/2000/svg"
 width="200.000000pt" height="200.000000pt" viewBox="0 0 200.000000 200.000000"
 preserveAspectRatio="xMidYMid meet">
<metadata>
Created by potrace 1.16, written by Peter Selinger 2001-2019
</metadata>
<g transform="translate(0.000000,200.000000) scale(0.100000,-0.100000)"
fill="#000000" stroke="none">
<path d="M970 1828 c-77 -21 -84 -49 -46 -196 23 -88 23 -93 6 -102 -27 -14
-43 -71 -30 -104 8 -21 6 -33 -8 -54 -17 -25 -17 -20 -22 180 -3 114 -9 210
-13 215 -5 4 -128 8 -273 8 -224 0 -266 -2 -274 -15 -13 -20 -13 -690 0 -710
8 -12 45 -16 213 -18 l204 -3 -1 -82 c0 -45 1 -98 4 -117 5 -35 5 -35 -41 -41
-58 -9 -116 -38 -155 -81 -39 -41 -206 -345 -202 -366 2 -8 10 -19 18 -23 40
-23 363 -149 381 -149 12 0 51 29 91 67 l70 68 191 5 c266 7 248 -3 435 249
190 255 188 252 173 302 -17 56 -81 86 -131 59 -16 -9 -19 -4 -25 53 -16 145
-71 285 -145 370 -39 44 -41 49 -30 80 12 38 0 83 -27 104 -15 12 -15 21 7
113 18 76 21 107 14 128 -10 26 -12 27 -79 24 -46 -2 -91 4 -134 17 -88 25
-129 30 -171 19z m155 -78 c32 -11 84 -20 115 -20 l58 0 -22 -87 -22 -88 -77
-3 -76 -3 -10 38 c-5 21 -12 52 -16 70 -7 38 -26 56 -49 47 -19 -7 -20 -25 -5
-94 10 -48 7 -72 -7 -57 -11 10 -55 198 -49 207 10 17 99 11 160 -10z m-315
-265 c0 -202 -2 -230 -19 -263 -10 -20 -24 -56 -31 -79 l-13 -43 -194 0 -193
0 0 305 0 305 225 0 225 0 0 -225z m488 -27 c-3 -23 -5 -23 -168 -23 -163 0
-165 0 -168 23 l-3 22 171 0 171 0 -3 -22z m31 -135 c49 -55 105 -165 126
-248 8 -32 15 -100 15 -150 l0 -91 -73 -72 c-71 -70 -74 -72 -123 -72 l-51 0
11 41 c17 66 8 69 -230 69 l-202 0 -8 33 c-11 52 -6 177 11 242 22 87 78 194
128 248 l43 47 156 0 156 0 41 -47z m285 -459 c9 -3 16 -15 16 -26 0 -18 -224
-338 -284 -407 -46 -52 -86 -61 -283 -61 l-182 0 -58 -49 c-32 -26 -66 -57
-76 -68 -18 -21 -18 -21 -175 42 -105 43 -157 68 -156 78 1 8 34 73 73 145 76
139 116 184 178 201 45 13 503 15 503 3 0 -5 -12 -19 -26 -33 -23 -21 -37 -25
-131 -29 -88 -4 -108 -8 -117 -23 -9 -15 -7 -21 9 -34 16 -12 39 -14 116 -10
53 3 106 10 117 16 11 6 63 11 114 11 l93 0 125 125 c69 69 126 125 127 125 1
0 8 -3 17 -6z"/>
<path d="M430 1683 c-8 -3 -18 -11 -22 -17 -12 -18 -9 -101 4 -114 8 -8 61
-12 173 -12 112 0 165 4 173 12 14 14 16 97 2 118 -7 12 -39 15 -162 17 -84 1
-160 -1 -168 -4z m218 -70 c-32 -2 -86 -2 -120 0 -35 2 -9 3 57 3 66 0 94 -1
63 -3z"/>
<path d="M406 1494 c-9 -23 12 -44 44 -44 29 0 43 19 34 45 -8 21 -70 20 -78
-1z"/>
<path d="M514 1495 c-15 -39 1 -45 119 -45 119 0 145 8 131 44 -9 23 -241 24
-250 1z"/>
<path d="M428 1392 c-22 -4 -31 -31 -17 -48 25 -30 89 -5 76 29 -6 16 -34 25
-59 19z"/>
<path d="M528 1389 c-22 -13 -23 -45 -2 -53 9 -3 62 -6 119 -6 75 0 106 4 114
14 15 18 5 43 -22 50 -36 10 -191 6 -209 -5z"/>
<path d="M411 1263 c-13 -26 1 -45 34 -45 36 0 53 17 39 40 -16 25 -60 28 -73
5z"/>
<path d="M523 1274 c-20 -9 -15 -42 8 -55 13 -6 59 -9 120 -7 105 3 132 14
113 46 -9 14 -29 17 -120 19 -60 1 -115 -1 -121 -3z"/>
<path d="M1266 1285 c-3 -9 11 -40 35 -75 22 -32 48 -82 58 -112 13 -40 23
-54 39 -56 14 -2 25 3 29 13 18 49 -87 245 -132 245 -12 0 -26 -7 -29 -15z"/>
<path d="M1100 1221 c-5 -11 -10 -24 -10 -30 0 -5 -11 -21 -25 -35 -20 -20
-25 -35 -25 -74 0 -61 28 -92 84 -92 35 0 37 -2 34 -27 -4 -39 -44 -45 -57
-10 -12 31 -24 39 -45 31 -25 -9 -20 -61 8 -89 13 -13 27 -38 31 -55 5 -23 12
-30 31 -30 19 0 26 6 31 30 3 17 14 35 25 41 32 17 51 74 38 115 -14 40 -35
54 -84 54 -33 0 -36 2 -36 29 0 17 5 33 10 36 17 10 45 -3 55 -27 6 -13 19
-23 30 -23 39 0 31 78 -10 97 -15 7 -25 20 -25 33 0 42 -41 60 -60 26z"/>
</g>
</svg>
