<?xml version="1.0" standalone="no"?>
<!DOCTYPE svg PUBLIC "-//W3C//DTD SVG 20010904//EN"
 "http://www.w3.org/TR/2001/REC-SVG-20010904/DTD/svg10.dtd">
<svg version="1.0" xmlns="http://www.w3.org/2000/svg"
 width="200.000000pt" height="200.000000pt" viewBox="0 0 200.000000 200.000000"
 preserveAspectRatio="xMidYMid meet">
<metadata>
Created by potrace 1.16, written by Peter Selinger 2001-2019
</metadata>
<g transform="translate(0.000000,200.000000) scale(0.100000,-0.100000)"
fill="#000000" stroke="none">
<path d="M873 1791 c-276 -100 -357 -442 -152 -652 85 -88 223 -133 339 -111
263 49 407 316 297 555 -81 178 -302 273 -484 208z m163 -196 c5 -19 13 -25
34 -25 33 0 53 -21 48 -52 -3 -21 -9 -23 -77 -28 -47 -3 -76 -10 -79 -17 -2
-9 8 -13 31 -13 77 0 127 -40 127 -103 0 -29 -33 -73 -60 -82 -11 -4 -20 -14
-20 -24 0 -45 -56 -53 -77 -11 -8 17 -23 27 -45 30 -25 4 -34 11 -36 28 -6 40
14 52 89 52 38 0 69 4 69 9 0 13 -26 21 -70 21 -30 0 -44 6 -64 31 -43 50 -32
115 23 144 16 8 32 26 35 40 5 20 13 25 36 25 23 0 31 -5 36 -25z"/>
<path d="M270 963 c-19 -10 -45 -34 -58 -53 -23 -34 -23 -35 -20 -337 l3 -303
38 -37 37 -38 105 0 105 0 37 38 38 37 3 298 c3 328 1 341 -61 386 -40 30
-177 35 -227 9z"/>
<path d="M687 943 c-13 -3 -15 -10 -10 -31 5 -15 8 -171 8 -348 l0 -321 192
-18 c233 -22 351 -17 443 17 71 26 388 214 432 255 126 120 35 330 -145 335
-45 1 -68 -6 -167 -55 -63 -31 -157 -70 -209 -87 -88 -28 -103 -30 -219 -28
-122 3 -125 4 -145 29 -17 24 -18 30 -5 55 l13 29 143 5 c130 5 144 8 164 28
27 26 21 40 -33 84 -49 40 -151 58 -312 57 -73 -1 -140 -3 -150 -6z"/>
</g>
</svg>
