<?xml version="1.0" standalone="no"?>
<!DOCTYPE svg PUBLIC "-//W3C//DTD SVG 20010904//EN"
 "http://www.w3.org/TR/2001/REC-SVG-20010904/DTD/svg10.dtd">
<svg version="1.0" xmlns="http://www.w3.org/2000/svg"
 width="200.000000pt" height="200.000000pt" viewBox="0 0 200.000000 200.000000"
 preserveAspectRatio="xMidYMid meet">
<metadata>
Created by potrace 1.16, written by Peter Selinger 2001-2019
</metadata>
<g transform="translate(0.000000,200.000000) scale(0.100000,-0.100000)"
fill="#000000" stroke="none">
<path d="M792 1610 c-21 -20 -22 -29 -22 -195 0 -162 2 -177 20 -195 42 -42
48 -30 52 114 3 117 6 138 24 163 43 59 63 63 347 63 141 0 257 4 257 9 0 4
-9 20 -21 35 l-20 26 -308 0 c-295 0 -308 -1 -329 -20z"/>
<path d="M943 1490 c-38 -16 -43 -41 -43 -223 0 -161 2 -176 21 -201 l20 -26
325 0 c311 0 325 1 344 20 19 19 20 33 20 204 0 166 -2 186 -19 207 l-19 24
-314 2 c-172 1 -323 -2 -335 -7z m526 -85 c14 -38 54 -75 82 -75 16 0 19 -8
19 -60 0 -55 -2 -60 -25 -66 -28 -7 -85 -67 -85 -89 0 -13 -30 -15 -192 -15
l-193 0 -17 41 c-13 31 -26 44 -58 56 -40 16 -40 16 -40 69 0 51 1 54 33 68
38 16 77 60 77 87 0 18 11 19 193 19 l193 0 13 -35z"/>
<path d="M1213 1385 c-41 -18 -73 -69 -73 -118 0 -138 185 -178 241 -51 16 36
18 50 10 82 -12 43 -42 75 -84 91 -37 14 -55 13 -94 -4z"/>
<path d="M825 953 c-22 -9 -78 -41 -124 -71 l-85 -54 -19 26 c-10 14 -25 26
-33 26 -21 0 -194 -118 -194 -132 0 -20 242 -378 255 -378 7 0 54 27 104 60
82 54 91 63 89 88 -3 27 -2 27 52 27 30 -1 101 -7 157 -15 81 -11 109 -11 142
-2 51 16 431 265 450 296 20 33 7 72 -31 92 -47 24 -102 12 -237 -51 -64 -30
-120 -55 -124 -55 -4 0 -7 7 -7 15 0 38 -55 74 -167 109 -124 40 -168 43 -228
19z m225 -81 c90 -32 105 -40 108 -61 l4 -24 -132 8 -132 7 4 -29 c3 -26 6
-28 63 -34 104 -12 208 -9 255 5 25 8 99 39 165 70 116 54 167 67 180 46 7
-12 -365 -259 -413 -273 -24 -8 -66 -6 -162 8 -78 11 -148 15 -178 11 l-49 -6
-56 85 c-32 47 -57 87 -57 89 0 7 185 124 205 129 47 11 96 4 195 -31z"/>
</g>
</svg>
