<?xml version="1.0" standalone="no"?>
<!DOCTYPE svg PUBLIC "-//W3C//DTD SVG 20010904//EN"
 "http://www.w3.org/TR/2001/REC-SVG-20010904/DTD/svg10.dtd">
<svg version="1.0" xmlns="http://www.w3.org/2000/svg"
 width="200.000000pt" height="200.000000pt" viewBox="0 0 200.000000 200.000000"
 preserveAspectRatio="xMidYMid meet">
<metadata>
Created by potrace 1.16, written by Peter Selinger 2001-2019
</metadata>
<g transform="translate(0.000000,200.000000) scale(0.100000,-0.100000)"
fill="#000000" stroke="none">
<path d="M830 1870 c-281 -34 -578 -170 -680 -312 -34 -47 -38 -78 -12 -100
46 -41 77 -35 301 59 203 84 310 113 423 113 93 0 188 -16 188 -31 0 -24 -57
-30 -172 -19 -102 10 -125 9 -177 -5 -106 -30 -160 -95 -137 -165 15 -47 63
-71 125 -63 l46 6 -49 -54 c-27 -30 -63 -83 -80 -119 -29 -61 -31 -72 -31
-180 0 -108 2 -119 31 -181 18 -37 49 -85 69 -108 21 -22 35 -41 32 -41 -57 0
-222 -26 -264 -42 -40 -15 -58 -17 -66 -9 -7 7 -53 11 -117 11 -145 0 -140 7
-140 -196 0 -216 -8 -207 164 -203 124 2 136 1 231 -30 189 -62 271 -74 475
-75 139 0 206 4 270 18 129 26 317 92 393 137 130 77 227 174 227 226 0 33
-37 58 -84 57 -39 -1 -68 -11 -291 -104 -144 -60 -269 -90 -377 -90 -99 0
-178 16 -178 35 0 21 64 26 176 14 119 -12 170 -5 241 37 52 30 73 59 73 102
0 65 -63 112 -132 98 l-31 -6 47 50 c152 162 157 428 11 589 -21 22 -34 41
-31 41 52 0 212 26 252 41 40 15 58 18 73 10 11 -6 65 -11 120 -11 134 0 131
-4 131 200 0 212 7 203 -164 199 -120 -3 -138 -1 -211 24 -160 54 -289 77
-450 82 -82 2 -184 0 -225 -5z m455 -59 c50 -11 140 -35 200 -53 l110 -33 3
-148 3 -148 -38 -16 c-110 -46 -321 -53 -513 -18 -108 19 -201 19 -307 -1 -69
-13 -87 -13 -109 -2 -61 30 -43 87 39 130 37 20 54 22 142 18 187 -7 233 -5
256 16 32 29 22 65 -26 89 -34 17 -59 20 -175 19 -160 -1 -215 -15 -464 -118
-169 -71 -237 -85 -244 -52 -3 13 17 39 66 86 129 124 365 222 607 250 112 14
348 4 450 -19z m550 -241 l0 -155 -97 -3 -98 -3 0 154 c0 85 3 157 7 161 4 4
48 5 98 4 l90 -3 0 -155z m-790 -215 c44 -8 101 -15 126 -15 60 0 117 -40 168
-120 120 -186 71 -428 -111 -549 -53 -36 -67 -41 -117 -41 -31 0 -85 5 -121
11 -36 5 -97 13 -136 17 -56 6 -78 13 -103 34 -50 42 -79 81 -109 145 -24 52
-27 69 -27 168 0 100 2 115 27 163 40 77 76 118 142 163 52 35 64 39 120 39
33 -1 97 -7 141 -15z m-85 -751 c123 -18 194 -18 298 2 95 18 126 11 141 -28
13 -35 -12 -73 -66 -99 -51 -25 -64 -26 -263 -18 -90 3 -110 1 -133 -14 -42
-27 -34 -66 18 -92 34 -17 60 -20 170 -20 160 1 228 18 452 111 182 76 216 88
243 79 30 -10 24 -31 -22 -82 -107 -115 -296 -207 -538 -259 -66 -15 -126 -19
-270 -19 -207 1 -273 11 -469 74 l-116 37 -3 145 -3 145 35 16 c98 47 305 56
526 22z m-605 -174 l0 -155 -97 -3 -98 -3 0 154 c0 85 3 157 7 161 4 4 48 5
98 4 l90 -3 0 -155z"/>
<path d="M1706 1687 c-21 -16 -24 -60 -6 -82 16 -20 64 -19 84 1 49 49 -22
122 -78 81z m54 -42 c0 -8 -6 -15 -14 -15 -17 0 -28 14 -19 24 12 12 33 6 33
-9z"/>
<path d="M988 1303 c-3 -11 -26 -25 -56 -36 -57 -19 -95 -61 -106 -113 -14
-65 45 -143 124 -164 l40 -11 0 -109 c0 -100 -2 -110 -19 -110 -30 0 -85 43
-102 80 -21 44 -45 47 -41 5 5 -48 46 -92 104 -112 30 -11 53 -25 56 -35 6
-24 33 -23 39 1 3 10 17 21 31 24 76 15 140 97 127 163 -8 46 -60 101 -110
118 l-40 14 -3 111 c-2 89 0 111 11 111 27 0 82 -46 100 -83 10 -20 23 -37 28
-37 19 0 20 29 3 66 -18 38 -93 94 -125 94 -10 0 -21 9 -24 20 -8 25 -31 26
-37 3z m2 -173 c0 -69 -4 -110 -10 -110 -26 0 -91 43 -105 70 -27 53 -12 94
49 131 62 38 66 32 66 -91z m84 -164 c40 -17 76 -60 76 -93 0 -49 -59 -113
-104 -113 -14 0 -16 16 -16 110 0 61 2 110 5 110 3 0 20 -6 39 -14z"/>
<path d="M240 413 c-63 -22 -47 -113 19 -113 54 0 74 67 31 102 -23 19 -26 20
-50 11z m33 -58 c1 -5 -6 -11 -15 -13 -11 -2 -18 3 -18 13 0 17 30 18 33 0z"/>
</g>
</svg>
