<?xml version="1.0" standalone="no"?>
<!DOCTYPE svg PUBLIC "-//W3C//DTD SVG 20010904//EN"
 "http://www.w3.org/TR/2001/REC-SVG-20010904/DTD/svg10.dtd">
<svg version="1.0" xmlns="http://www.w3.org/2000/svg"
 width="200.000000pt" height="200.000000pt" viewBox="0 0 200.000000 200.000000"
 preserveAspectRatio="xMidYMid meet">
<metadata>
Created by potrace 1.16, written by Peter Selinger 2001-2019
</metadata>
<g transform="translate(0.000000,200.000000) scale(0.100000,-0.100000)"
fill="#000000" stroke="none">
<path d="M843 1701 c-26 -22 -129 -113 -228 -203 -162 -147 -180 -167 -183
-199 -3 -41 22 -70 62 -73 l26 -1 0 -207 0 -207 -31 -17 c-30 -15 -32 -15 -58
10 -35 34 -78 42 -124 22 -41 -17 -77 -67 -77 -107 0 -27 138 -372 165 -413
20 -30 57 -46 106 -46 56 0 109 51 109 104 0 23 5 36 13 36 7 0 84 -9 171 -20
213 -26 246 -18 375 88 33 27 41 30 41 16 0 -33 44 -105 91 -149 137 -128 362
-80 443 95 28 62 28 168 -1 232 -27 59 -92 122 -147 143 -38 15 -42 19 -38 46
7 46 -6 78 -41 99 -43 27 -77 25 -121 -5 -20 -14 -39 -25 -41 -25 -3 0 -5 68
-5 150 l0 150 24 0 c13 0 35 9 50 21 34 27 36 78 4 112 -37 40 -411 363 -435
375 -45 24 -98 15 -150 -27z m122 -1 c23 -9 395 -329 438 -378 15 -16 16 -24
7 -41 -6 -12 -19 -21 -29 -21 -11 0 -113 85 -227 190 -115 104 -215 188 -222
185 -6 -2 -102 -87 -213 -187 -110 -101 -207 -184 -215 -186 -18 -4 -44 16
-44 34 0 14 419 394 448 406 24 9 27 9 57 -2z m-97 -532 c8 -8 12 -54 12 -140
l0 -128 -69 0 c-38 0 -84 -7 -104 -15 -20 -8 -39 -15 -42 -15 -3 0 -5 67 -5
149 0 110 3 151 13 154 26 11 183 7 195 -5z m352 -88 l0 -100 -100 0 -100 0 0
100 0 100 100 0 100 0 0 -100z m284 -166 c9 -8 16 -31 16 -50 0 -33 -1 -34
-37 -34 -132 0 -247 -98 -275 -233 -11 -54 -17 -63 -72 -108 -111 -94 -132
-98 -366 -69 -96 12 -175 22 -176 23 -8 15 -124 301 -122 302 2 2 63 28 137
59 133 56 134 56 237 56 122 0 251 -16 280 -35 47 -30 29 -87 -39 -122 -25
-13 -52 -15 -137 -10 -113 5 -130 3 -130 -19 0 -11 21 -14 98 -15 162 -3 195
4 239 50 10 10 76 64 147 120 133 105 166 119 200 85z m-49 -229 c30 -29 32
-54 5 -83 -39 -42 -110 -18 -110 38 0 39 27 67 68 69 7 1 24 -10 37 -24z m129
3 c-2 -27 -165 -298 -180 -298 -8 0 -14 5 -14 12 0 22 173 309 184 305 6 -2
11 -11 10 -19z m18 -195 c41 -37 10 -103 -47 -103 -51 0 -79 52 -51 95 20 30
70 34 98 8z"/>
<path d="M1397 664 c-4 -4 -7 -16 -7 -26 0 -14 6 -19 23 -16 14 2 22 10 22 23
0 20 -25 32 -38 19z"/>
<path d="M1540 465 c-11 -13 -11 -19 3 -33 20 -19 41 -5 35 24 -4 24 -22 28
-38 9z"/>
</g>
</svg>
