<?xml version="1.0" standalone="no"?>
<!DOCTYPE svg PUBLIC "-//W3C//DTD SVG 20010904//EN"
 "http://www.w3.org/TR/2001/REC-SVG-20010904/DTD/svg10.dtd">
<svg version="1.0" xmlns="http://www.w3.org/2000/svg"
 width="200.000000pt" height="200.000000pt" viewBox="0 0 200.000000 200.000000"
 preserveAspectRatio="xMidYMid meet">
<metadata>
Created by potrace 1.16, written by Peter Selinger 2001-2019
</metadata>
<g transform="translate(0.000000,200.000000) scale(0.100000,-0.100000)"
fill="#000000" stroke="none">
<path d="M873 1777 c-22 -13 -421 -364 -460 -406 -47 -49 -19 -134 47 -143
l25 -3 3 -207 2 -207 -31 -17 c-29 -14 -33 -14 -41 -1 -4 9 -28 23 -53 33 -57
21 -111 8 -149 -36 -48 -58 -46 -86 24 -259 103 -254 116 -279 152 -301 39
-24 98 -26 139 -5 36 19 69 70 69 108 0 26 3 28 28 23 75 -15 321 -37 356 -32
60 10 122 41 174 86 l46 41 28 -58 c55 -112 152 -175 274 -176 61 -1 80 3 138
32 73 36 134 101 157 168 21 59 16 170 -8 225 -29 63 -92 129 -150 157 -46 21
-49 25 -45 55 7 63 -48 126 -110 126 -13 0 -41 -9 -63 -20 -22 -11 -41 -20
-42 -20 -2 0 -3 63 -3 139 l0 139 30 7 c30 7 80 56 80 80 0 40 -38 81 -245
262 -125 109 -236 203 -248 210 -12 7 -40 12 -62 12 -22 0 -50 -5 -62 -12z
m326 -249 c127 -111 231 -207 231 -214 0 -19 -27 -36 -43 -27 -8 4 -110 95
-227 201 -116 105 -218 192 -226 192 -8 0 -111 -88 -228 -195 -126 -114 -223
-195 -234 -195 -55 0 -27 34 196 234 207 187 230 205 264 205 34 1 55 -15 267
-201z m-69 -90 l189 -173 1 -192 0 -191 -52 -41 -51 -42 -29 35 c-31 38 -67
49 -195 62 l-73 7 0 138 c0 131 -1 139 -24 166 -24 28 -25 28 -141 28 -116 0
-117 0 -141 -28 -23 -27 -24 -33 -24 -198 0 -96 -4 -169 -9 -169 -5 0 -16 -3
-25 -6 -14 -5 -16 17 -16 208 l0 215 193 176 c105 97 195 176 200 176 4 1 93
-77 197 -171z m-272 -394 l3 -131 -69 -6 c-38 -3 -86 -12 -106 -21 l-36 -15 0
148 c0 81 3 151 7 155 4 4 50 5 103 4 l95 -3 3 -131z m664 -141 c10 -9 18 -28
18 -43 0 -26 -3 -27 -58 -33 -137 -12 -256 -126 -278 -264 -5 -34 -16 -49 -59
-87 -72 -62 -113 -85 -166 -92 -47 -6 -389 31 -399 44 -19 22 -122 294 -114
301 5 5 68 32 139 62 l130 54 115 -1 c131 0 274 -20 290 -40 19 -22 7 -66 -23
-88 -25 -18 -46 -22 -170 -26 -129 -5 -142 -7 -145 -24 -6 -30 16 -36 146 -36
145 0 168 7 255 83 118 103 259 207 280 207 11 0 29 -7 39 -17z m-1158 -145
c30 -27 176 -376 176 -419 0 -16 -9 -38 -20 -49 -23 -23 -77 -27 -103 -8 -20
16 -177 392 -177 425 0 31 43 73 74 73 14 0 36 -10 50 -22z m1246 -9 c198 -89
198 -363 1 -452 -120 -54 -268 0 -327 120 -27 55 -25 165 3 218 44 84 129 135
223 135 34 0 72 -8 100 -21z"/>
<path d="M988 1229 c-16 -9 -18 -27 -18 -149 0 -127 2 -140 19 -150 11 -5 72
-10 136 -10 64 0 125 5 136 10 17 10 19 23 19 150 0 127 -2 140 -19 150 -25
13 -250 13 -273 -1z m232 -144 l0 -95 -95 0 -95 0 0 95 0 95 95 0 95 0 0 -95z"/>
<path d="M1382 677 c-46 -49 -14 -127 52 -127 67 0 101 83 53 128 -31 29 -77
29 -105 -1z m68 -52 c0 -8 -7 -15 -15 -15 -8 0 -15 7 -15 15 0 8 7 15 15 15 8
0 15 -7 15 -15z"/>
<path d="M1494 548 c-93 -161 -105 -192 -81 -201 25 -9 41 11 132 170 86 151
96 183 56 183 -14 0 -41 -39 -107 -152z"/>
<path d="M1535 475 c-16 -15 -25 -36 -25 -55 0 -38 39 -80 73 -80 42 0 77 36
77 79 0 73 -75 106 -125 56z m70 -55 c0 -22 -29 -18 -33 3 -3 14 1 18 15 15
10 -2 18 -10 18 -18z"/>
</g>
</svg>
