<?xml version="1.0" standalone="no"?>
<!DOCTYPE svg PUBLIC "-//W3C//DTD SVG 20010904//EN"
 "http://www.w3.org/TR/2001/REC-SVG-20010904/DTD/svg10.dtd">
<svg version="1.0" xmlns="http://www.w3.org/2000/svg"
 width="200.000000pt" height="200.000000pt" viewBox="0 0 200.000000 200.000000"
 preserveAspectRatio="xMidYMid meet">
<metadata>
Created by potrace 1.16, written by Peter Selinger 2001-2019
</metadata>
<g transform="translate(0.000000,200.000000) scale(0.100000,-0.100000)"
fill="#000000" stroke="none">
<path d="M952 1882 c-27 -13 -38 -14 -67 -3 -69 25 -92 -18 -60 -109 20 -58
19 -67 -10 -74 -14 -4 -32 -18 -42 -32 -14 -22 -15 -33 -6 -67 10 -38 9 -43
-23 -91 -18 -28 -46 -80 -61 -116 -23 -55 -27 -79 -28 -162 0 -91 2 -98 30
-139 62 -89 224 -133 397 -110 186 24 268 98 268 240 0 73 -36 191 -81 264
-34 55 -35 60 -13 78 46 38 31 124 -24 135 l-29 6 18 60 c11 33 19 70 19 84 0
35 -31 47 -81 33 -34 -11 -44 -10 -69 4 -35 21 -95 21 -138 -1z m127 -58 c18
-9 45 -14 62 -12 34 5 34 6 13 -55 l-16 -47 -114 0 -114 0 -11 28 c-6 15 -13
39 -16 53 -4 24 -2 26 19 22 13 -3 40 2 59 10 45 20 79 20 118 1z m141 -204
c0 -20 -5 -20 -197 -18 -179 3 -198 5 -201 21 -3 16 11 17 197 17 195 0 201
-1 201 -20z m-21 -140 c62 -94 85 -161 85 -258 l1 -83 -37 -34 c-54 -50 -130
-70 -258 -69 -122 1 -197 24 -246 75 -28 29 -29 35 -29 117 1 76 5 95 32 154
17 37 45 87 63 112 l31 46 159 0 158 0 41 -60z"/>
<path d="M982 1488 c-7 -7 -12 -21 -12 -31 0 -10 -13 -32 -30 -47 -56 -53 -34
-127 45 -154 45 -16 56 -49 18 -54 -17 -3 -26 3 -33 23 -14 37 -54 32 -58 -8
-3 -20 5 -35 27 -56 19 -18 31 -39 31 -54 0 -28 26 -43 46 -26 8 6 14 21 14
32 0 11 11 30 25 43 57 52 38 132 -37 155 -32 10 -43 19 -43 34 0 32 43 33 55
1 11 -29 47 -36 56 -11 8 21 -15 74 -37 86 -11 5 -19 20 -19 32 0 22 -16 47
-30 47 -3 0 -11 -5 -18 -12z"/>
<path d="M142 1020 c-47 -19 -52 -56 -52 -378 0 -193 4 -310 11 -331 16 -45
54 -61 148 -61 72 0 82 3 112 27 19 16 41 26 53 24 30 -5 93 -38 146 -76 108
-78 237 -125 349 -127 98 -1 155 16 345 101 83 38 246 110 361 161 116 50 221
102 233 113 38 35 55 77 54 133 -1 83 -41 126 -128 139 -40 6 -96 -10 -289
-84 -84 -33 -110 -38 -100 -20 14 21 -7 81 -41 119 -40 45 -79 56 -224 64
-117 7 -201 29 -350 91 -114 48 -116 48 -248 53 -102 4 -135 8 -139 19 -11 28
-60 43 -140 42 -43 0 -88 -4 -101 -9z m188 -69 c14 -27 14 -595 0 -622 -9 -16
-22 -19 -85 -19 -63 0 -76 3 -85 19 -15 29 -14 613 2 629 7 7 41 12 85 12 61
0 74 -3 83 -19z m425 -94 c144 -63 239 -87 384 -96 86 -5 126 -12 145 -25 37
-24 49 -60 35 -103 -20 -60 -50 -67 -314 -73 -215 -5 -230 -6 -233 -24 -2 -10
2 -22 10 -27 7 -5 109 -9 226 -9 l214 0 246 92 c270 101 314 110 354 70 29
-28 29 -92 1 -130 -11 -15 -54 -40 -108 -62 -50 -21 -207 -90 -350 -154 -143
-65 -286 -126 -317 -137 -127 -43 -298 -10 -437 85 -60 40 -148 86 -193 100
-17 5 -18 27 -18 277 l0 271 123 -4 c120 -4 124 -5 232 -51z"/>
</g>
</svg>
