<?xml version="1.0" standalone="no"?>
<!DOCTYPE svg PUBLIC "-//W3C//DTD SVG 20010904//EN"
 "http://www.w3.org/TR/2001/REC-SVG-20010904/DTD/svg10.dtd">
<svg version="1.0" xmlns="http://www.w3.org/2000/svg"
 width="200.000000pt" height="200.000000pt" viewBox="0 0 200.000000 200.000000"
 preserveAspectRatio="xMidYMid meet">
<metadata>
Created by potrace 1.16, written by Peter Selinger 2001-2019
</metadata>
<g transform="translate(0.000000,200.000000) scale(0.100000,-0.100000)"
fill="#000000" stroke="none">
<path d="M380 1870 c-20 -20 -20 -33 -20 -565 l0 -545 178 0 c211 0 212 0 212
-95 l0 -59 165 -166 c154 -155 165 -169 165 -203 0 -30 -8 -47 -41 -82 l-42
-45 331 0 c299 0 332 2 351 18 21 17 21 20 19 369 l-3 352 -122 -147 -121
-148 -90 -17 c-147 -28 -136 -36 -129 93 l6 110 215 259 c119 142 222 261 231
265 13 5 15 45 15 300 0 293 0 295 -22 310 -20 14 -98 16 -650 16 -615 0 -628
0 -648 -20z m1015 -230 c0 -13 -51 -15 -389 -18 -229 -1 -394 2 -399 7 -28 28
11 31 396 29 341 -3 392 -5 392 -18z m0 -170 c0 -13 -51 -15 -389 -18 -229 -1
-394 2 -399 7 -28 28 11 31 396 29 341 -3 392 -5 392 -18z m0 -160 c4 -6 1
-17 -5 -25 -18 -22 -762 -22 -780 0 -6 8 -9 19 -5 25 4 7 136 10 395 10 259 0
391 -3 395 -10z m-5 -175 c6 -8 9 -19 5 -25 -4 -7 -136 -10 -396 -10 -348 0
-390 2 -396 16 -3 9 0 20 8 25 8 5 183 9 390 9 318 0 378 -2 389 -15z m-250
-170 c26 -32 1 -35 -266 -35 -233 0 -265 2 -271 16 -3 9 0 20 8 25 8 5 127 9
265 9 208 0 254 -3 264 -15z m310 -560 c0 -13 -26 -15 -170 -15 -144 0 -170 2
-170 15 0 13 26 15 170 15 144 0 170 -2 170 -15z"/>
<path d="M1710 1232 c-21 -6 -70 -54 -69 -66 0 -6 28 -33 61 -61 105 -85 98
-83 125 -49 34 43 30 78 -14 120 -46 43 -83 63 -103 56z"/>
<path d="M1595 1120 c-9 -10 -15 -23 -14 -28 5 -12 148 -132 158 -132 10 0 46
39 40 43 -2 2 -41 34 -85 70 -79 65 -82 66 -99 47z"/>
<path d="M1421 909 c-73 -88 -132 -161 -130 -163 10 -8 69 -36 77 -36 11 0
241 274 247 293 2 7 -11 24 -29 39 l-32 27 -133 -160z"/>
<path d="M1526 840 c-64 -77 -119 -146 -121 -153 -3 -6 8 -27 23 -45 l28 -34
132 159 132 158 -30 28 c-17 15 -34 27 -39 27 -4 0 -60 -63 -125 -140z"/>
<path d="M270 733 c-39 -15 -50 -36 -50 -93 0 -82 12 -90 133 -90 90 0 97 1
97 20 0 13 7 20 20 20 13 0 20 -7 20 -20 0 -17 7 -20 40 -20 33 0 40 3 40 20
0 15 7 20 25 20 18 0 25 -5 25 -20 0 -30 63 -28 84 2 23 32 21 110 -3 139 -19
24 -22 24 -218 26 -109 1 -205 0 -213 -4z"/>
<path d="M1265 639 c-3 -45 -4 -83 -2 -86 5 -5 157 24 164 31 11 11 -64 89
-106 110 l-48 25 -8 -80z"/>
<path d="M714 521 c-38 -23 -64 -58 -64 -86 0 -13 51 -71 138 -158 118 -118
142 -137 169 -137 38 0 93 57 93 97 0 39 -264 303 -302 303 -2 0 -17 -9 -34
-19z"/>
<path d="M142 513 c-37 -7 -55 -46 -50 -105 7 -70 21 -78 135 -78 86 0 93 1
93 20 0 15 7 20 25 20 18 0 25 -5 25 -20 0 -17 7 -20 40 -20 33 0 40 3 40 20
0 13 7 20 20 20 13 0 20 -7 20 -20 0 -16 7 -20 33 -20 49 0 67 25 67 91 0 95
3 94 -227 96 -109 0 -208 -1 -221 -4z"/>
<path d="M260 293 c-28 -10 -40 -37 -40 -90 0 -81 17 -93 135 -93 95 0 95 0
95 25 0 18 5 25 20 25 15 0 20 -7 20 -25 0 -22 4 -25 40 -25 36 0 40 3 40 25
0 20 5 25 25 25 20 0 25 -5 25 -25 0 -21 5 -25 30 -25 46 0 70 31 70 90 0 41
-5 56 -25 75 -24 25 -25 25 -222 24 -109 0 -205 -3 -213 -6z"/>
<path d="M750 185 l0 -75 77 0 77 0 -74 75 c-41 41 -76 75 -77 75 -2 0 -3 -34
-3 -75z"/>
</g>
</svg>
