<?xml version="1.0" standalone="no"?>
<!DOCTYPE svg PUBLIC "-//W3C//DTD SVG 20010904//EN"
 "http://www.w3.org/TR/2001/REC-SVG-20010904/DTD/svg10.dtd">
<svg version="1.0" xmlns="http://www.w3.org/2000/svg"
 width="200.000000pt" height="200.000000pt" viewBox="0 0 200.000000 200.000000"
 preserveAspectRatio="xMidYMid meet">
<metadata>
Created by potrace 1.16, written by Peter Selinger 2001-2019
</metadata>
<g transform="translate(0.000000,200.000000) scale(0.100000,-0.100000)"
fill="#000000" stroke="none">
<path d="M412 1899 c-20 -6 -40 -22 -52 -42 -19 -31 -20 -54 -20 -583 l0 -551
-52 -5 c-74 -8 -98 -37 -98 -122 0 -61 0 -62 -34 -74 -74 -27 -90 -158 -27
-214 19 -17 43 -28 61 -28 l30 0 0 -64 c0 -53 4 -67 24 -89 13 -14 35 -29 48
-32 12 -3 326 -4 696 -3 l674 3 29 33 29 32 0 348 1 347 89 108 c50 59 93 119
96 133 3 13 1 37 -6 53 -13 33 -99 107 -147 127 l-32 14 -3 280 -3 280 -28 27
-27 28 -608 2 c-367 1 -620 -2 -640 -8z m1236 -71 c9 -9 12 -86 12 -285 l0
-273 -220 -264 -220 -264 0 -116 c0 -95 3 -118 15 -122 17 -7 189 23 217 37 9
5 58 59 110 121 l93 112 3 -285 c1 -156 0 -294 -3 -306 l-5 -23 -301 0 -301 0
31 35 c23 26 31 46 31 73 0 35 -10 47 -145 182 -131 131 -147 144 -180 144
-30 0 -35 3 -35 23 0 39 -27 80 -61 92 -18 6 -88 11 -155 11 l-124 0 0 553 c0
305 3 557 7 560 3 4 279 7 613 7 458 0 609 -3 618 -12z m137 -649 c72 -59 72
-60 32 -114 -14 -18 -17 -17 -86 38 -39 32 -71 61 -71 64 0 14 44 53 59 53 9
0 39 -18 66 -41z m-34 -192 c-12 -12 -35 3 -105 65 -31 28 -47 49 -42 56 5 8
31 -7 82 -50 49 -40 71 -65 65 -71z m-167 34 c16 -17 12 -24 -95 -152 -61 -74
-115 -135 -120 -137 -4 -2 -19 3 -32 10 l-25 13 119 143 c66 78 123 142 128
142 4 0 16 -8 25 -19z m95 -78 c23 -19 33 -5 -196 -277 l-24 -29 -21 20 c-14
14 -17 26 -12 35 16 26 219 268 225 268 4 0 16 -8 28 -17z m-349 -268 c24 -13
70 -63 70 -78 0 -3 -17 -8 -37 -12 -21 -3 -48 -9 -60 -12 -22 -5 -23 -2 -23
56 0 66 4 70 50 46z m-646 -41 c10 -26 7 -79 -6 -92 -7 -7 -35 -12 -63 -12
-43 0 -52 3 -60 23 -6 12 -17 22 -25 22 -8 0 -19 -10 -25 -22 -11 -25 -35 -31
-35 -9 0 20 -25 37 -44 30 -9 -3 -16 -15 -16 -25 0 -17 -8 -19 -68 -19 -40 0
-73 5 -80 12 -13 13 -17 90 -5 101 3 4 100 7 214 7 179 0 208 -2 213 -16z
m244 -227 c67 -68 122 -131 122 -139 0 -25 -40 -68 -64 -68 -15 0 -62 40 -149
128 -70 71 -127 133 -127 137 0 18 55 65 75 65 14 0 63 -43 143 -123z m-354
57 c12 -5 16 -20 16 -59 0 -63 -3 -65 -104 -65 -68 0 -73 2 -85 26 -14 31 -42
29 -56 -4 -13 -28 -33 -28 -37 1 -2 14 -10 22 -23 22 -11 0 -24 -10 -30 -22
-10 -23 -44 -30 -79 -17 -20 8 -23 110 -3 117 18 8 382 8 401 1z m220 -174
l128 -130 -71 0 -71 0 0 61 c0 54 -3 64 -29 90 -22 21 -39 29 -66 29 -30 0
-36 3 -31 16 3 9 6 27 6 40 0 13 1 24 3 24 2 0 61 -58 131 -130z m-85 -24 c7
-8 11 -34 9 -58 -3 -43 -3 -43 -45 -46 -34 -3 -44 1 -53 17 -14 27 -47 27 -55
1 -3 -11 -12 -20 -20 -20 -7 0 -15 9 -18 20 -7 27 -47 27 -54 0 -5 -19 -12
-21 -97 -18 l-91 3 -3 43 c-5 72 -5 72 218 72 159 0 200 -3 209 -14z"/>
<path d="M600 1625 c-10 -12 -10 -18 0 -30 11 -13 68 -15 400 -15 332 0 389 2
400 15 10 12 10 18 0 30 -11 13 -68 15 -400 15 -332 0 -389 -2 -400 -15z"/>
<path d="M601 1452 c-6 -11 -6 -24 -1 -33 14 -21 786 -21 800 0 5 9 5 22 -1
33 -9 17 -34 18 -399 18 -365 0 -390 -1 -399 -18z"/>
<path d="M600 1281 c-7 -15 -6 -23 6 -35 13 -14 63 -16 394 -16 331 0 381 2
394 16 12 12 13 20 6 35 -10 18 -26 19 -400 19 -374 0 -390 -1 -400 -19z"/>
<path d="M620 1123 c-23 -9 -30 -25 -19 -45 9 -17 34 -18 399 -18 365 0 390 1
399 18 24 46 16 47 -386 49 -208 1 -385 -1 -393 -4z"/>
<path d="M602 938 c-7 -7 -8 -17 -1 -30 9 -17 27 -18 274 -18 247 0 265 1 274
18 21 39 -1 42 -274 42 -184 0 -264 -3 -273 -12z"/>
<path d="M1100 421 c-7 -15 -6 -23 6 -36 24 -24 342 -18 357 7 8 12 7 21 -2
32 -11 13 -40 16 -182 16 -156 0 -169 -1 -179 -19z"/>
</g>
</svg>
