<?xml version="1.0" standalone="no"?>
<!DOCTYPE svg PUBLIC "-//W3C//DTD SVG 20010904//EN"
 "http://www.w3.org/TR/2001/REC-SVG-20010904/DTD/svg10.dtd">
<svg version="1.0" xmlns="http://www.w3.org/2000/svg"
 width="200.000000pt" height="200.000000pt" viewBox="0 0 200.000000 200.000000"
 preserveAspectRatio="xMidYMid meet">
<metadata>
Created by potrace 1.16, written by Peter Selinger 2001-2019
</metadata>
<g transform="translate(0.000000,200.000000) scale(0.100000,-0.100000)"
fill="#000000" stroke="none">
<path d="M149 1873 c-10 -2 -20 -14 -23 -26 -11 -41 -7 -1557 4 -1578 10 -18
27 -19 548 -19 l537 0 20 -37 c44 -83 102 -98 358 -91 186 4 215 14 254 84 20
34 23 54 23 150 0 176 -48 325 -127 394 l-32 29 24 72 c39 115 32 130 -49 101
-43 -16 -49 -16 -96 1 -45 16 -52 16 -79 2 -38 -19 -57 -19 -120 2 l-51 16 0
74 c0 80 -1 79 55 37 48 -36 128 -57 190 -51 180 18 305 179 274 351 -13 72
-28 104 -76 157 -99 110 -269 128 -393 43 l-50 -34 0 32 c0 27 -17 52 -90 138
-50 58 -104 117 -120 133 l-30 27 -468 -1 c-257 -1 -474 -3 -483 -6z m923
-180 l3 -118 104 -3 103 -3 -7 -82 c-7 -90 -7 -90 1 -514 4 -269 3 -298 -14
-355 -11 -35 -25 -118 -32 -185 l-13 -123 -513 0 -514 0 0 670 0 669 380 3
c398 3 419 6 394 46 -10 16 -44 17 -393 20 l-381 2 0 45 0 45 440 0 439 0 3
-117z m129 -14 l41 -49 -56 0 -56 0 0 61 c0 71 2 70 71 -12z m467 -128 c45
-23 99 -80 118 -127 20 -47 17 -141 -5 -189 -44 -97 -165 -158 -267 -136 -68
15 -125 58 -161 118 -37 63 -39 165 -5 230 60 114 207 162 320 104z m-42 -669
l52 -4 -16 -48 c-17 -55 -26 -60 -119 -60 -86 0 -107 10 -121 58 -16 54 -18
52 36 53 26 0 56 4 67 9 11 5 27 6 35 2 8 -3 38 -7 66 -10z m-270 -120 c-15
-15 -16 -12 -15 43 l1 60 15 -43 c14 -40 14 -45 -1 -60z m144 -64 c0 -5 -7 -8
-15 -8 -49 0 -127 -65 -164 -135 l-20 -40 6 35 c9 51 42 117 74 149 26 26 30
27 73 17 25 -6 46 -14 46 -18z m252 -61 c33 -66 58 -183 58 -279 0 -94 -14
-139 -49 -158 -12 -6 -103 -10 -224 -10 l-205 0 -26 31 c-28 33 -32 72 -17
174 l7 50 8 -42 c10 -57 54 -122 106 -158 54 -37 156 -47 224 -21 148 57 201
243 106 374 -33 46 -63 68 -118 87 -23 9 -31 15 -22 18 75 25 74 25 103 -2 16
-14 38 -43 49 -64z m-240 -32 c-2 -14 -11 -25 -19 -25 -21 0 -63 -46 -63 -69
0 -37 42 -73 93 -78 74 -9 92 -53 22 -53 -26 0 -39 6 -51 25 -20 30 -50 33
-59 5 -8 -26 17 -67 50 -82 13 -6 25 -21 28 -34 4 -21 1 -24 -17 -18 -47 15
-78 37 -104 76 -22 34 -27 53 -27 103 0 52 4 67 29 99 30 40 81 76 107 76 12
0 15 -7 11 -25z m117 10 c131 -67 129 -261 -4 -325 -25 -12 -48 -20 -50 -18
-11 11 9 45 36 60 36 21 52 59 39 93 -11 30 -65 65 -100 65 -14 0 -32 5 -40
10 -13 9 -13 11 0 20 26 17 60 11 84 -15 27 -29 39 -31 55 -11 17 20 -12 74
-43 82 -15 3 -26 15 -29 30 -5 28 10 31 52 9z"/>
<path d="M254 1547 c-2 -7 -3 -76 -2 -152 l3 -140 150 0 150 0 0 150 0 150
-148 3 c-115 2 -149 0 -153 -11z m246 -61 c0 -8 -8 -12 -22 -9 -16 3 -33 -6
-57 -31 -32 -33 -35 -34 -57 -19 -19 12 -27 13 -39 3 -13 -11 -15 -7 -15 29
l0 41 95 0 c73 0 95 -3 95 -14z m0 -111 l0 -65 -95 0 -95 0 0 42 0 42 33 -32
c18 -18 39 -32 47 -32 8 0 35 25 60 55 25 29 46 54 48 54 1 1 2 -28 2 -64z"/>
<path d="M637 1493 c-4 -3 -7 -17 -7 -30 l0 -23 180 0 c152 0 182 2 186 15 4
8 1 22 -6 30 -10 12 -44 15 -180 15 -91 0 -170 -3 -173 -7z"/>
<path d="M647 1373 c-13 -3 -17 -12 -15 -31 l3 -27 174 0 c157 0 175 2 185 18
9 15 7 21 -8 33 -15 11 -54 14 -170 13 -83 -1 -159 -3 -169 -6z"/>
<path d="M262 1178 c-17 -17 -17 -279 0 -296 17 -17 269 -17 286 0 17 17 17
279 0 296 -17 17 -269 17 -286 0z m238 -73 c0 -13 -3 -13 -21 -3 -18 12 -24 9
-55 -26 -32 -37 -36 -38 -58 -26 -14 7 -32 10 -40 7 -13 -5 -16 1 -16 28 l0
35 95 0 c78 0 95 -3 95 -15z m0 -105 l0 -60 -95 0 -95 0 0 40 0 41 31 -36 c17
-19 37 -35 44 -35 8 0 35 25 60 55 26 30 49 55 51 55 2 0 4 -27 4 -60z"/>
<path d="M647 1123 c-13 -3 -17 -12 -15 -31 l3 -27 174 0 c157 0 175 2 185 18
9 15 7 21 -8 33 -15 11 -54 14 -170 13 -83 -1 -159 -3 -169 -6z"/>
<path d="M637 993 c-4 -3 -7 -17 -7 -30 l0 -23 180 0 c152 0 182 2 186 15 4 8
1 22 -6 30 -10 12 -44 15 -180 15 -91 0 -170 -3 -173 -7z"/>
<path d="M585 759 c-99 -52 -184 -85 -312 -119 -33 -8 -43 -16 -43 -31 0 -11
7 -22 15 -26 23 -8 130 15 202 44 l63 25 26 -31 c32 -38 87 -43 127 -11 31 25
105 28 113 5 8 -20 33 -19 68 4 20 13 39 18 58 14 17 -3 37 1 52 10 22 15 24
14 35 -9 15 -33 33 -38 71 -19 38 19 39 58 3 63 -15 2 -23 10 -23 22 0 49 -35
66 -76 36 -11 -8 -30 -12 -45 -9 -16 3 -37 -2 -52 -12 -21 -14 -29 -14 -46 -3
-18 11 -26 10 -56 -6 -19 -11 -37 -17 -40 -14 -3 2 0 20 5 39 6 18 10 46 10
61 0 41 -27 35 -155 -33z m73 -51 c-3 -7 -15 -14 -29 -16 -23 -2 -23 -2 -5 13
24 18 39 20 34 3z"/>
<path d="M260 485 c-7 -8 -10 -22 -6 -30 5 -13 54 -15 371 -15 317 0 366 2
371 15 4 8 1 22 -6 30 -19 22 -711 22 -730 0z"/>
<path d="M1441 1494 c-28 -35 -26 -69 4 -99 48 -48 125 -16 125 51 0 67 -88
100 -129 48z m69 -42 c0 -13 -12 -22 -22 -16 -10 6 -1 24 13 24 5 0 9 -4 9 -8z"/>
<path d="M1542 1358 c-94 -78 -122 -106 -120 -122 6 -41 45 -23 163 77 91 77
115 103 113 120 -2 12 -10 23 -18 25 -8 1 -70 -43 -138 -100z"/>
<path d="M1610 1303 c-33 -12 -50 -37 -50 -73 0 -72 80 -101 127 -46 12 15 23
33 23 41 0 27 -23 63 -47 74 -26 12 -30 12 -53 4z m30 -73 c0 -5 -4 -10 -10
-10 -5 0 -10 5 -10 10 0 6 5 10 10 10 6 0 10 -4 10 -10z"/>
</g>
</svg>
