<svg width="40" height="40" viewBox="0 0 40 40" fill="none" xmlns="http://www.w3.org/2000/svg">
<path d="M30.7422 16.1527C30.4531 16.0199 30.1953 15.7464 30.0859 15.4574C30.0313 15.3089 30 13.9964 30 11.6293V8.01988L29.125 8.89488C28.6406 9.37145 28.1641 9.80113 28.0703 9.84801C27.9766 9.89488 27.7422 9.93395 27.5547 9.93395C26.7031 9.93395 26.0781 8.9652 26.4375 8.20738C26.5078 8.05895 27.4844 7.01988 28.6172 5.89488C31.4609 3.05895 31.0313 3.05113 33.9609 5.97301C36.25 8.26988 36.2656 8.28551 36.1328 8.97301C36.0625 9.35582 35.5938 9.82457 35.2109 9.89488C34.5938 10.0121 34.4062 9.91051 33.4219 8.93395L32.5078 8.03551L32.4844 11.7543C32.4609 15.3636 32.4531 15.473 32.2969 15.6839C32.2109 15.8011 32.0469 15.973 31.9375 16.0511C31.6719 16.2464 31.0547 16.3011 30.7422 16.1527Z" fill="#00FF00" fill-opacity="0.6"/>
<path d="M18.2031 7.5547C15.1172 7.73438 11.8984 8.5547 9.33594 9.8047C6.625 11.125 4.42188 13.1328 3.36719 15.2188C3.01563 15.9141 2.67969 16.9688 2.58594 17.6797C2.45313 18.6563 2.46875 26.9531 2.60938 27.6719C2.83594 28.8438 3.40625 30.125 4.15625 31.1328C4.75 31.9297 6.17969 33.3203 7.03125 33.9219C8.51563 34.9766 11.1797 36.1406 13.4609 36.7188C15.9453 37.3438 17.8594 37.5469 20.7031 37.4766C24.6172 37.375 27.6172 36.6563 30.8984 35.0391C32.5 34.2422 33.4375 33.5859 34.5313 32.5C36.1484 30.8984 37.0156 29.4297 37.3906 27.6563C37.5469 26.9219 37.5469 18.3594 37.3906 17.4844C37.1016 15.8672 36.6172 15.1563 35.8203 15.1563C35.2266 15.1563 34.7734 15.5 34.5938 16.1094C34.5156 16.375 34.5313 16.4922 34.7188 17.0938C35.0234 18.0625 35.0781 19.1172 34.8594 19.9844C34.5391 21.2422 33.9219 22.2031 32.6953 23.3516C32.0938 23.9063 30.5391 25 30.3516 25C30.2969 25 29.8203 25.2109 29.2891 25.4609C27.5469 26.2969 25.3672 26.9531 23.2734 27.2734C22.3203 27.4219 21.8203 27.4531 20 27.4531C17.7422 27.4609 17.0859 27.4063 15.4297 27.0703C13.0703 26.5938 10.3672 25.5547 8.78907 24.5156C7.27344 23.5156 5.97657 22.0781 5.44532 20.8125C5.21094 20.2578 5 19.2891 5 18.7578C5 17.0781 5.94532 15.3203 7.60938 13.9141C9.92188 11.9609 13.2578 10.6563 17.2656 10.1484C18.5234 9.98438 21.4922 10.0078 23.0156 10.1875L24.2734 10.3359L24.6172 10.1484C24.9844 9.94532 25.3125 9.43751 25.3125 9.06251C25.3125 8.75782 24.9922 8.18751 24.7109 8.00001C24.1719 7.64063 20.7266 7.40626 18.2031 7.5547ZM6.44532 25.875C8.89844 27.8125 12.625 29.2578 16.5703 29.8047C17.7969 29.9766 20.7969 30.0391 22.1094 29.9297C26.9609 29.5234 31.3516 27.8594 34.2578 25.3281L35 24.6797V25.8047C35 27.1016 34.8672 27.7813 34.4297 28.6406C33.6328 30.2266 31.8984 31.7891 29.8203 32.7969C27.7266 33.8203 25.6484 34.4609 23.25 34.8125C22.1328 34.9766 19.2578 35.0391 17.9375 34.9297C15.2422 34.7031 12.7422 34.0156 10.3438 32.8594C8.75 32.0859 7.5625 31.2266 6.67188 30.1875C5.35938 28.6641 5 27.7109 5 25.7422V24.5781L5.45313 25.0078C5.69532 25.25 6.14844 25.6406 6.44532 25.875Z" fill="#00FF00" fill-opacity="0.6"/>
<path d="M19.4922 11.3594C19.1719 11.5 18.8438 11.8984 18.7891 12.2109C18.7422 12.4609 18.7266 12.4688 18.2031 12.5547C16.7188 12.7813 15.5 13.8984 15.1172 15.3516C14.5781 17.4453 16.0313 19.6094 18.2109 19.9531L18.75 20.0313V21.2656V22.4922L17.2734 22.5156C15.6563 22.5391 15.5859 22.5625 15.2031 23.0781C14.9766 23.3828 14.9766 24.1172 15.2031 24.4219C15.5859 24.9375 15.6563 24.9609 17.2578 24.9844L18.7188 25.0078L18.8125 25.3438C18.9766 25.9609 19.6172 26.3438 20.2734 26.2188C20.6641 26.1406 21.0781 25.75 21.1875 25.3594L21.2734 25.0313L21.8047 24.9453C23.2813 24.7188 24.5 23.6016 24.8828 22.1484C25.4219 20.0547 23.9688 17.8906 21.7891 17.5469L21.25 17.4688V16.2344V15.0078L22.7266 14.9844C24.3438 14.9609 24.4141 14.9375 24.7969 14.4219C25.0234 14.1172 25.0234 13.3828 24.7969 13.0781C24.4141 12.5625 24.3438 12.5391 22.7344 12.5156L21.2656 12.4922L21.2188 12.2266C21.0781 11.4922 20.1953 11.0547 19.4922 11.3594ZM18.75 16.25C18.75 17.6328 18.7578 17.6016 18.2578 17.3906C17.2813 16.9844 17.2734 15.5313 18.2422 15.1094C18.7578 14.8828 18.75 14.8672 18.75 16.25ZM21.9453 20.2188C22.3281 20.5 22.4609 20.7656 22.4609 21.25C22.4609 21.5938 22.4219 21.7656 22.2969 21.9219C22.0781 22.2266 21.8047 22.4141 21.5078 22.4688L21.25 22.5156V21.25V19.9766L21.5078 20.0313C21.6406 20.0547 21.8438 20.1406 21.9453 20.2188Z" fill="#00FF00" fill-opacity="0.6"/>
</svg>
