<svg width="24" height="24" viewBox="0 0 24 24" fill="none" xmlns="http://www.w3.org/2000/svg">
<path d="M25.9638 0.0940552C25.7994 0.149054 25.5557 0.259052 25.4253 0.341551C25.2553 0.437799 22.8976 3.24962 17.7458 9.49888L10.3043 18.5187L7.06242 14.5863C4.77839 11.8226 3.74123 10.6126 3.55987 10.5026C2.04663 9.58826 0.312351 10.6539 0.0289724 12.6819C-0.0503735 13.2526 0.03464 13.8851 0.26701 14.4557C0.414367 14.82 0.924448 15.4663 4.30799 19.5568L8.17893 24.2455L8.66068 24.5205C9.76585 25.1598 10.837 25.1598 11.9479 24.5205L12.4296 24.2455L20.4946 14.4763C29.2963 3.80649 28.8089 4.43898 28.9619 3.44212C29.2736 1.40028 27.6187 -0.442185 25.9638 0.0940552Z" fill="white"/>
</svg>
