<svg width="40" height="40" viewBox="0 0 40 40" fill="none" xmlns="http://www.w3.org/2000/svg">
<path d="M20 21.6129C20.8908 21.6129 21.6129 20.8908 21.6129 20C21.6129 19.1092 20.8908 18.3871 20 18.3871C19.1092 18.3871 18.3871 19.1092 18.3871 20C18.3871 20.8908 19.1092 21.6129 20 21.6129Z" stroke="white" stroke-width="4" stroke-linecap="round" stroke-linejoin="round"/>
<path d="M31.2903 21.6129C32.1811 21.6129 32.9032 20.8908 32.9032 20C32.9032 19.1092 32.1811 18.3871 31.2903 18.3871C30.3995 18.3871 29.6774 19.1092 29.6774 20C29.6774 20.8908 30.3995 21.6129 31.2903 21.6129Z" stroke="white" stroke-width="4" stroke-linecap="round" stroke-linejoin="round"/>
<path d="M8.70967 21.6129C9.60046 21.6129 10.3226 20.8908 10.3226 20C10.3226 19.1092 9.60046 18.3871 8.70967 18.3871C7.81889 18.3871 7.09677 19.1092 7.09677 20C7.09677 20.8908 7.81889 21.6129 8.70967 21.6129Z" stroke="white" stroke-width="4" stroke-linecap="round" stroke-linejoin="round"/>
</svg>
