<?xml version="1.0" standalone="no"?>
<!DOCTYPE svg PUBLIC "-//W3C//DTD SVG 20010904//EN"
 "http://www.w3.org/TR/2001/REC-SVG-20010904/DTD/svg10.dtd">
<svg version="1.0" xmlns="http://www.w3.org/2000/svg"
 width="200.000000pt" height="200.000000pt" viewBox="0 0 200.000000 200.000000"
 preserveAspectRatio="xMidYMid meet">
<metadata>
Created by potrace 1.16, written by Peter Selinger 2001-2019
</metadata>
<g transform="translate(0.000000,200.000000) scale(0.100000,-0.100000)"
fill="#000000" stroke="none">
<path d="M957 1994 c-4 -4 -7 -21 -7 -39 0 -26 -5 -33 -35 -44 -106 -38 -154
-142 -106 -231 20 -39 72 -79 114 -87 27 -5 27 -7 27 -81 l0 -75 -24 22 c-13
12 -26 35 -30 51 -4 21 -13 31 -31 36 -132 33 -95 -153 40 -199 36 -12 41 -18
45 -53 4 -31 9 -39 25 -39 15 0 21 8 23 33 2 24 8 32 23 32 13 0 19 -7 19 -24
0 -28 24 -51 45 -42 9 3 15 18 15 41 0 32 4 37 46 57 137 64 140 226 5 290
l-50 23 0 70 0 70 19 -24 c11 -13 20 -32 20 -42 0 -36 66 -52 94 -23 44 43 1
134 -81 174 -48 23 -52 28 -55 65 -3 35 -6 40 -28 40 -21 0 -26 -5 -28 -32 -2
-24 -8 -33 -22 -33 -14 0 -20 9 -22 32 -3 31 -25 48 -41 32z m83 -248 c0 -69
-1 -74 -20 -69 -18 5 -20 14 -20 74 0 62 2 69 20 69 18 0 20 -7 20 -74z m-94
-44 c-9 -8 -46 29 -46 46 0 9 10 27 23 40 l22 24 3 -52 c2 -29 1 -55 -2 -58z
m92 -200 c3 -67 1 -72 -18 -72 -18 0 -20 6 -20 76 0 66 2 75 18 72 14 -3 18
-16 20 -76z m92 -2 c0 -15 -7 -33 -15 -40 -13 -11 -15 -5 -15 40 0 45 2 51 15
40 8 -7 15 -25 15 -40z"/>
<path d="M1573 1562 c-106 -53 -193 -99 -193 -102 0 -3 25 -20 55 -38 30 -18
55 -37 55 -41 0 -4 -43 -43 -96 -87 -285 -236 -665 -432 -1047 -540 -74 -20
-103 -33 -114 -51 -18 -28 -11 -65 18 -94 30 -30 82 -22 281 45 400 134 767
341 1051 594 l48 43 37 -22 c20 -13 50 -31 65 -42 16 -10 30 -18 32 -16 5 6
11 449 5 448 -3 0 -92 -44 -197 -97z"/>
<path d="M1590 525 l0 -515 90 0 90 0 0 515 0 515 -90 0 -90 0 0 -515z"/>
<path d="M1270 440 l0 -440 95 0 95 0 -2 438 -3 437 -92 3 -93 3 0 -441z"/>
<path d="M960 365 l0 -365 90 0 90 0 0 365 0 365 -90 0 -90 0 0 -365z"/>
<path d="M650 285 l0 -285 90 0 90 0 0 285 0 285 -90 0 -90 0 0 -285z"/>
<path d="M330 215 l0 -205 95 0 95 0 0 205 0 205 -95 0 -95 0 0 -205z"/>
</g>
</svg>
