<?xml version="1.0" standalone="no"?>
<!DOCTYPE svg PUBLIC "-//W3C//DTD SVG 20010904//EN"
 "http://www.w3.org/TR/2001/REC-SVG-20010904/DTD/svg10.dtd">
<svg version="1.0" xmlns="http://www.w3.org/2000/svg"
 width="200.000000pt" height="200.000000pt" viewBox="0 0 200.000000 200.000000"
 preserveAspectRatio="xMidYMid meet">
<metadata>
Created by potrace 1.16, written by Peter Selinger 2001-2019
</metadata>
<g transform="translate(0.000000,200.000000) scale(0.100000,-0.100000)"
fill="#000000" stroke="none">
<path d="M893 1925 c-89 -19 -179 -70 -248 -140 -196 -197 -192 -511 9 -703
205 -197 514 -190 706 15 69 74 104 137 125 225 64 272 -110 546 -382 603 -82
18 -129 18 -210 0z m299 -98 c266 -131 327 -483 120 -693 -252 -256 -681 -120
-743 235 -29 164 58 355 200 439 86 51 137 63 247 60 93 -3 106 -6 176 -41z"/>
<path d="M977 1794 c-4 -4 -7 -22 -7 -40 0 -29 -6 -36 -39 -54 -98 -50 -117
-178 -37 -248 19 -17 44 -33 55 -37 19 -6 21 -14 21 -96 0 -49 -4 -89 -8 -89
-14 0 -52 45 -52 62 0 31 -12 48 -35 48 -72 0 -9 -148 74 -175 14 -4 21 -16
23 -43 3 -32 6 -37 28 -37 22 0 25 5 28 37 2 27 9 39 23 43 11 4 36 20 55 37
80 70 61 198 -37 248 l-39 20 0 91 c0 86 1 89 19 79 25 -13 33 -25 40 -63 9
-40 35 -57 57 -36 13 13 14 23 5 55 -14 54 -36 81 -81 104 -33 17 -39 25 -42
57 -2 29 -8 39 -23 41 -12 2 -24 0 -28 -4z m-12 -312 c-3 -3 -16 5 -30 18 -36
34 -35 91 3 128 l27 27 3 -84 c2 -46 0 -86 -3 -89z m115 -122 c17 -32 12 -82
-12 -107 -12 -13 -25 -23 -30 -23 -4 0 -8 38 -8 85 0 82 1 85 20 75 11 -6 24
-19 30 -30z"/>
<path d="M138 779 c-17 -9 -18 -34 -18 -302 0 -161 4 -298 8 -305 7 -9 49 -12
178 -10 l169 3 3 33 c2 17 4 32 5 32 1 0 25 -7 52 -16 28 -8 166 -46 308 -84
l259 -70 325 146 c402 179 400 178 423 216 32 54 35 102 8 156 -29 60 -77 92
-135 92 -26 0 -139 -28 -265 -65 -122 -36 -224 -65 -229 -65 -4 0 -17 20 -29
45 -34 71 -73 93 -263 150 l-171 52 -130 -43 c-72 -24 -136 -44 -143 -44 -8 0
-13 14 -13 39 0 26 -5 41 -16 45 -26 10 -308 6 -326 -5z m282 -309 l0 -250
-115 0 -115 0 0 250 0 250 115 0 115 0 0 -250z m502 206 c81 -25 156 -49 167
-55 25 -14 58 -60 66 -94 7 -25 3 -29 -46 -52 -45 -21 -67 -25 -130 -24 -84 2
-99 -3 -99 -31 0 -25 30 -33 116 -33 73 1 134 20 192 62 31 22 494 161 536
161 17 0 39 -11 57 -29 38 -38 41 -100 7 -134 -13 -13 -173 -89 -357 -171
l-334 -148 -145 37 c-80 21 -218 59 -306 84 l-161 46 0 165 0 165 135 47 c74
26 140 47 145 47 6 1 76 -19 157 -43z"/>
<path d="M250 655 c-22 -26 5 -46 59 -43 42 3 46 5 46 28 0 23 -4 25 -46 28
-32 2 -50 -2 -59 -13z"/>
</g>
</svg>
