<?xml version="1.0" standalone="no"?>
<!DOCTYPE svg PUBLIC "-//W3C//DTD SVG 20010904//EN"
 "http://www.w3.org/TR/2001/REC-SVG-20010904/DTD/svg10.dtd">
<svg version="1.0" xmlns="http://www.w3.org/2000/svg"
 width="200.000000pt" height="200.000000pt" viewBox="0 0 200.000000 200.000000"
 preserveAspectRatio="xMidYMid meet">
<metadata>
Created by potrace 1.16, written by Peter Selinger 2001-2019
</metadata>
<g transform="translate(0.000000,200.000000) scale(0.100000,-0.100000)"
fill="#000000" stroke="none">
<path d="M905 1840 c-361 -50 -635 -290 -726 -635 -28 -107 -28 -281 0 -400
74 -311 313 -551 623 -625 105 -25 278 -27 381 -4 218 50 426 200 539 390 161
270 158 615 -9 882 -85 137 -222 257 -371 323 -127 57 -311 86 -437 69z m233
-166 c96 -19 218 -77 297 -141 61 -50 77 -81 55 -109 -21 -24 -46 -16 -115 36
-126 95 -226 130 -376 130 -271 0 -498 -172 -575 -435 -19 -66 -23 -215 -7
-280 15 -60 1 -87 -39 -83 -28 3 -35 9 -47 43 -7 22 -15 83 -18 135 -6 126 14
219 73 340 38 77 62 110 129 176 67 68 98 90 176 127 152 74 292 93 447 61z
m-99 -218 c7 -8 15 -30 18 -50 4 -29 11 -38 32 -42 46 -11 109 -53 130 -88 12
-18 24 -54 27 -80 6 -40 4 -50 -16 -71 -13 -14 -34 -25 -46 -25 -29 0 -64 44
-64 81 0 25 -30 59 -52 59 -5 0 -8 -43 -8 -95 0 -95 0 -96 28 -106 112 -42
153 -86 160 -175 9 -103 -49 -191 -142 -216 -41 -11 -44 -14 -49 -50 -7 -49
-22 -68 -57 -68 -35 0 -50 19 -57 68 -5 35 -8 39 -48 50 -55 14 -103 55 -126
107 -35 76 -16 145 40 145 41 0 62 -21 68 -68 5 -34 12 -46 34 -58 l29 -15 0
99 0 98 -51 18 c-97 35 -139 91 -139 188 0 97 58 173 153 199 31 8 37 14 37
37 0 59 66 97 99 58z m550 -100 c7 -8 11 -27 9 -43 -2 -22 -9 -29 -31 -31 -50
-6 -75 38 -41 72 19 20 48 20 63 2z m78 -183 c13 -29 17 -70 17 -168 1 -110
-3 -141 -22 -199 -66 -198 -182 -334 -356 -421 -119 -59 -212 -79 -336 -72
-157 10 -311 69 -418 163 -53 46 -65 77 -40 102 22 22 49 13 112 -37 73 -58
119 -82 210 -110 86 -27 245 -29 327 -5 204 61 361 222 414 425 19 72 22 210
7 278 -14 57 -2 81 39 81 25 0 33 -6 46 -37z m-1189 -465 c18 -18 15 -43 -8
-63 -29 -26 -70 -7 -70 33 0 16 3 32 7 35 11 11 58 8 71 -5z"/>
<path d="M902 1224 c-17 -12 -22 -25 -22 -63 0 -42 3 -49 25 -59 14 -7 28 -12
30 -12 3 0 5 34 5 75 0 41 -3 75 -8 75 -4 0 -18 -7 -30 -16z"/>
<path d="M1060 840 l0 -81 30 16 c27 14 30 20 30 65 0 45 -3 51 -30 65 l-30
16 0 -81z"/>
</g>
</svg>
