<?xml version="1.0" standalone="no"?>
<!DOCTYPE svg PUBLIC "-//W3C//DTD SVG 20010904//EN"
 "http://www.w3.org/TR/2001/REC-SVG-20010904/DTD/svg10.dtd">
<svg version="1.0" xmlns="http://www.w3.org/2000/svg"
 width="200.000000pt" height="200.000000pt" viewBox="0 0 200.000000 200.000000"
 preserveAspectRatio="xMidYMid meet">
<metadata>
Created by potrace 1.16, written by Peter Selinger 2001-2019
</metadata>
<g transform="translate(0.000000,200.000000) scale(0.100000,-0.100000)"
fill="#000000" stroke="none">
<path d="M1200 1780 c-93 -12 -197 -55 -231 -96 -22 -27 10 -36 43 -13 82 59
203 86 301 68 82 -14 162 -48 148 -62 -25 -25 -12 -39 27 -32 48 9 54 15 46
54 -7 35 -31 52 -44 31 -7 -11 -13 -10 -33 3 -55 36 -175 58 -257 47z"/>
<path d="M1184 1630 c-100 -21 -199 -119 -225 -223 -26 -105 12 -221 96 -295
111 -97 279 -97 390 0 25 22 58 64 73 92 36 68 38 186 5 257 -57 125 -203 197
-339 169z m138 -40 c20 -6 58 -26 85 -44 161 -111 129 -374 -56 -454 -56 -24
-157 -21 -213 7 -158 76 -200 298 -78 419 71 71 168 98 262 72z"/>
<path d="M1177 1546 c-151 -56 -198 -245 -89 -359 114 -120 321 -77 372 78 19
58 9 146 -23 194 -53 80 -171 120 -260 87z m160 -47 c108 -52 130 -213 41
-296 -31 -29 -90 -53 -130 -53 -42 1 -106 30 -137 63 -63 69 -53 215 17 262
78 52 138 58 209 24z"/>
<path d="M1230 1476 c0 -7 -11 -21 -24 -29 -28 -19 -41 -60 -26 -86 5 -11 34
-28 62 -39 59 -22 72 -46 35 -63 -18 -8 -32 -7 -60 4 -19 9 -38 13 -41 9 -14
-13 -4 -30 23 -42 16 -6 31 -20 34 -31 7 -24 27 -25 34 0 2 10 16 24 29 30 13
6 29 23 34 37 14 37 -9 70 -60 85 -46 14 -65 32 -56 54 7 18 49 20 76 3 14 -9
22 -10 31 -1 8 8 3 17 -20 34 -17 12 -31 29 -31 36 0 7 -9 13 -20 13 -11 0
-20 -6 -20 -14z"/>
<path d="M856 1609 c-19 -11 -19 -12 -1 -25 14 -10 15 -16 6 -27 -18 -22 -49
-120 -56 -179 -12 -94 32 -244 88 -305 45 -50 50 -15 7 54 -72 116 -78 245
-18 386 19 43 22 46 34 30 20 -28 37 -4 27 38 -8 28 -14 34 -39 36 -16 2 -38
-2 -48 -8z"/>
<path d="M1570 1609 c0 -7 14 -34 30 -61 73 -118 78 -276 13 -401 -12 -24 -17
-26 -29 -16 -24 20 -35 -2 -23 -45 10 -37 12 -38 46 -33 46 8 64 25 42 40 -15
9 -14 15 7 62 63 136 52 291 -28 418 -28 44 -58 62 -58 36z"/>
<path d="M977 1018 c-12 -10 -14 -21 -9 -47 8 -37 28 -52 38 -27 5 14 10 13
43 -4 50 -25 149 -50 199 -50 93 0 232 50 276 99 17 19 17 21 2 27 -9 4 -24 0
-34 -9 -10 -9 -44 -29 -77 -44 -54 -25 -70 -28 -165 -27 -94 0 -111 3 -165 28
-33 16 -54 30 -47 33 6 3 12 11 12 19 0 18 -50 19 -73 2z"/>
<path d="M1534 811 c-104 -60 -220 -127 -258 -149 -39 -22 -76 -37 -87 -35
-17 5 -17 6 3 33 25 35 19 86 -15 117 -30 29 -384 123 -459 123 -70 0 -112
-15 -224 -79 l-89 -51 -20 25 -20 25 -107 -61 c-60 -34 -108 -67 -108 -75 0
-20 252 -455 267 -461 15 -6 213 105 220 123 2 7 0 22 -7 33 -9 18 -7 23 21
40 31 19 31 19 98 -6 212 -81 296 -106 371 -107 120 -1 147 12 425 225 303
231 305 233 305 276 0 68 -42 113 -104 113 -13 0 -108 -49 -212 -109z m256 59
c26 -26 35 -66 20 -85 -27 -32 -508 -391 -559 -418 -81 -41 -154 -38 -301 14
-63 22 -150 52 -193 67 l-78 27 -40 -22 -39 -22 -14 22 c-8 12 -42 72 -76 132
-35 61 -69 120 -77 131 -13 21 -9 24 89 80 97 55 108 59 178 62 64 3 100 -3
250 -43 96 -26 185 -53 198 -61 28 -19 29 -64 1 -89 -20 -19 -22 -19 -117 5
-115 30 -116 30 -120 9 -2 -13 23 -23 120 -49 197 -52 157 -62 453 110 143 82
265 150 272 150 7 0 22 -9 33 -20z m-1308 -309 l117 -202 -37 -22 c-20 -13
-58 -35 -84 -50 l-47 -27 -14 22 c-37 59 -216 374 -219 386 -3 13 140 103 157
98 5 -1 62 -93 127 -205z"/>
</g>
</svg>
