<?xml version="1.0" standalone="no"?>
<!DOCTYPE svg PUBLIC "-//W3C//DTD SVG 20010904//EN"
 "http://www.w3.org/TR/2001/REC-SVG-20010904/DTD/svg10.dtd">
<svg version="1.0" xmlns="http://www.w3.org/2000/svg"
 width="200.000000pt" height="200.000000pt" viewBox="0 0 200.000000 200.000000"
 preserveAspectRatio="xMidYMid meet">
<metadata>
Created by potrace 1.16, written by Peter Selinger 2001-2019
</metadata>
<g transform="translate(0.000000,200.000000) scale(0.100000,-0.100000)"
fill="#000000" stroke="none">
<path d="M1200 1770 c-92 -12 -197 -55 -230 -95 -23 -28 17 -28 57 -1 51 35
153 66 217 66 63 0 160 -24 201 -50 16 -11 24 -20 18 -20 -7 0 -13 -9 -13 -21
0 -18 4 -20 33 -14 44 9 57 25 50 58 -6 32 -31 47 -43 27 -7 -11 -13 -10 -33
3 -55 36 -175 58 -257 47z"/>
<path d="M851 1596 c-10 -11 -9 -16 5 -24 15 -8 15 -11 1 -33 -73 -117 -66
-324 15 -445 58 -84 82 -63 28 24 -67 110 -76 256 -24 373 16 34 30 57 32 50
2 -6 13 -11 24 -11 17 0 19 4 13 33 -4 17 -9 35 -12 40 -7 13 -70 8 -82 -7z"/>
<path d="M1140 1589 c-181 -82 -228 -311 -92 -453 108 -113 289 -115 401 -5
108 107 108 291 0 398 -79 79 -211 104 -309 60z m204 -43 c58 -24 113 -88 132
-152 14 -49 15 -66 4 -111 -55 -248 -405 -248 -460 0 -11 45 -10 62 4 111 18
63 73 127 129 151 42 18 149 19 191 1z"/>
<path d="M1196 1523 c-46 -13 -96 -57 -121 -106 -31 -64 -32 -108 -1 -174 65
-138 252 -152 341 -25 26 38 30 52 30 111 0 58 -4 74 -27 107 -40 57 -86 85
-150 89 -29 2 -62 1 -72 -2z m74 -51 c0 -9 13 -23 30 -30 36 -16 43 -48 8 -37
-56 18 -88 17 -94 0 -11 -27 6 -45 60 -66 77 -29 88 -69 34 -114 -18 -15 -36
-36 -40 -46 -10 -25 -29 -24 -35 1 -3 11 -21 27 -39 36 -43 20 -47 50 -6 39
66 -16 88 -17 101 -1 19 23 7 43 -29 51 -41 9 -90 52 -90 79 0 27 27 66 46 66
8 0 14 9 14 20 0 13 7 20 20 20 12 0 20 -7 20 -18z"/>
<path d="M1570 1601 c0 -5 13 -31 30 -58 35 -57 60 -148 60 -218 0 -82 -52
-234 -70 -205 -4 7 -15 10 -24 7 -12 -5 -15 -14 -10 -34 10 -43 22 -53 57 -46
43 8 57 22 35 36 -15 10 -15 14 4 50 65 128 56 308 -21 430 -27 42 -61 63 -61
38z"/>
<path d="M993 1015 c-30 -13 -31 -15 -23 -50 10 -46 19 -55 33 -33 10 15 13
15 47 -2 49 -25 149 -50 198 -50 93 0 232 50 276 99 30 33 -5 38 -51 7 -51
-35 -153 -66 -217 -66 -63 0 -160 24 -201 50 -16 11 -24 20 -17 20 6 0 12 9
12 20 0 23 -13 25 -57 5z"/>
<path d="M1569 777 c-118 -68 -242 -140 -277 -160 -35 -20 -71 -37 -82 -37
-22 0 -265 65 -299 80 -18 8 -21 14 -13 22 8 8 39 4 116 -16 116 -30 138 -27
157 22 8 21 6 31 -9 51 -16 22 -49 34 -188 73 -246 69 -276 74 -350 55 -59
-15 -258 -122 -250 -135 14 -26 161 -282 173 -300 l14 -23 40 23 c46 26 28 30
294 -62 166 -58 185 -62 246 -58 41 3 87 15 120 30 53 24 556 399 592 441 12
14 16 29 12 46 -6 28 -48 71 -69 71 -7 0 -109 -55 -227 -123z"/>
<path d="M230 729 c-47 -27 -86 -53 -88 -59 -3 -9 220 -403 243 -428 10 -11
28 -5 98 35 48 26 87 52 87 56 0 7 -236 423 -249 439 -3 4 -44 -15 -91 -43z"/>
</g>
</svg>
