<?xml version="1.0" standalone="no"?>
<!DOCTYPE svg PUBLIC "-//W3C//DTD SVG 20010904//EN"
 "http://www.w3.org/TR/2001/REC-SVG-20010904/DTD/svg10.dtd">
<svg version="1.0" xmlns="http://www.w3.org/2000/svg"
 width="200.000000pt" height="200.000000pt" viewBox="0 0 200.000000 200.000000"
 preserveAspectRatio="xMidYMid meet">
<metadata>
Created by potrace 1.16, written by Peter Selinger 2001-2019
</metadata>
<g transform="translate(0.000000,200.000000) scale(0.100000,-0.100000)"
fill="#000000" stroke="none">
<path d="M380 1845 c-57 -30 -55 -5 -55 -809 0 -702 1 -743 18 -770 34 -51 65
-57 304 -54 193 3 217 5 227 21 8 12 8 22 0 35 -10 15 -34 17 -235 20 -163 2
-225 6 -231 15 -4 6 -8 338 -8 738 0 551 3 728 12 737 18 18 1011 17 1027 -1
7 -9 12 -119 13 -338 l3 -324 27 -3 c46 -5 50 20 46 363 -3 338 -5 347 -64
373 -40 19 -1050 16 -1084 -3z"/>
<path d="M940 1633 c-27 -10 -50 -36 -50 -55 0 -15 -8 -18 -55 -18 -67 0 -95
-22 -95 -75 l0 -35 -53 0 c-43 0 -58 -5 -75 -23 -19 -20 -22 -35 -22 -110 0
-135 -21 -127 333 -127 l294 0 21 23 c20 21 22 34 22 124 0 127 -10 144 -93
151 l-57 4 0 48 c0 71 -22 93 -96 96 -32 2 -66 1 -74 -3z m100 -223 l0 -150
-40 0 -40 0 0 150 0 150 40 0 40 0 0 -150z m-150 -35 l0 -115 -40 0 -40 0 0
115 0 115 40 0 40 0 0 -115z m300 -40 l0 -75 -40 0 -40 0 0 75 0 75 40 0 40 0
0 -75z m-450 -20 l0 -55 -40 0 -40 0 0 55 0 55 40 0 40 0 0 -55z"/>
<path d="M573 1070 c-25 -10 -30 -39 -11 -58 17 -17 429 -17 446 0 20 20 14
48 -14 58 -32 12 -391 12 -421 0z"/>
<path d="M1131 1029 c-56 -22 -67 -86 -25 -159 21 -36 23 -48 14 -65 -6 -12
-10 -25 -9 -31 2 -5 -14 -27 -35 -49 -121 -129 -178 -309 -133 -416 23 -55 86
-119 142 -145 46 -22 63 -24 215 -24 144 0 171 3 210 21 141 64 198 220 134
371 -33 78 -81 153 -127 197 -19 19 -33 41 -30 48 3 7 0 20 -7 28 -11 13 -8
24 14 64 43 80 32 140 -32 162 -25 8 -38 7 -62 -5 -28 -14 -34 -14 -66 1 -31
16 -37 16 -69 0 -30 -14 -37 -15 -62 -2 -32 17 -39 17 -72 4z m56 -80 c7 -7
28 -9 55 -5 55 8 65 8 111 0 24 -4 48 -2 63 6 35 19 39 7 14 -44 -26 -55 -72
-86 -129 -86 -71 0 -123 42 -146 118 -7 24 12 31 32 11z m240 -242 c96 -71
180 -229 169 -321 -7 -63 -45 -120 -99 -148 -38 -21 -55 -23 -197 -23 -142 0
-159 2 -197 23 -65 34 -98 91 -98 167 0 51 7 74 38 138 41 82 110 162 167 190
25 13 53 17 101 15 57 -3 71 -8 116 -41z"/>
<path d="M1272 668 c-7 -7 -12 -18 -12 -26 0 -7 -13 -25 -30 -39 -24 -20 -30
-33 -30 -64 0 -47 22 -72 86 -100 25 -10 42 -23 39 -29 -8 -14 -51 -13 -74 2
-26 16 -51 3 -51 -27 0 -18 9 -31 30 -43 16 -9 30 -24 30 -32 0 -44 55 -53 73
-12 6 15 24 39 39 54 30 28 37 73 17 110 -6 11 -35 31 -65 44 -30 13 -54 28
-54 34 0 13 56 13 80 0 51 -28 71 39 20 68 -16 9 -30 24 -30 33 0 20 -20 39
-40 39 -9 0 -21 -5 -28 -12z"/>
<path d="M562 878 c-7 -7 -12 -19 -12 -28 0 -37 19 -40 231 -40 114 0 214 3
223 6 21 8 21 60 0 68 -31 12 -429 7 -442 -6z"/>
<path d="M562 688 c-20 -20 -14 -48 14 -58 14 -6 88 -10 164 -10 76 0 150 4
164 10 28 10 34 38 14 58 -17 17 -339 17 -356 0z"/>
<path d="M559 494 c-9 -11 -10 -20 -2 -32 8 -14 32 -17 144 -20 116 -2 135 0
146 14 9 12 9 22 2 35 -9 17 -23 19 -143 19 -110 0 -136 -3 -147 -16z"/>
</g>
</svg>
