<?xml version="1.0" standalone="no"?>
<!DOCTYPE svg PUBLIC "-//W3C//DTD SVG 20010904//EN"
 "http://www.w3.org/TR/2001/REC-SVG-20010904/DTD/svg10.dtd">
<svg version="1.0" xmlns="http://www.w3.org/2000/svg"
 width="200.000000pt" height="200.000000pt" viewBox="0 0 200.000000 200.000000"
 preserveAspectRatio="xMidYMid meet">
<metadata>
Created by potrace 1.16, written by Peter Selinger 2001-2019
</metadata>
<g transform="translate(0.000000,200.000000) scale(0.100000,-0.100000)"
fill="#000000" stroke="none">
<path d="M85 1915 l-25 -24 0 -891 0 -891 25 -24 24 -25 891 0 891 0 24 25
c14 13 25 31 25 40 0 18 -43 65 -60 65 -7 0 -10 172 -10 543 0 514 -1 545 -18
560 -10 10 -29 17 -42 17 -14 0 -102 -59 -232 -156 l-208 -156 0 -404 0 -404
-60 0 -60 0 -2 387 -3 386 -115 39 c-63 21 -118 38 -122 38 -4 0 -8 -191 -8
-425 l0 -425 -65 0 -65 0 0 420 c0 231 -2 420 -5 420 -20 0 -604 -302 -609
-315 -3 -9 -6 -131 -6 -271 l0 -254 -30 0 -30 0 0 850 0 851 -25 24 c-13 14
-31 25 -40 25 -9 0 -27 -11 -40 -25z"/>
<path d="M1457 1792 c-10 -10 -17 -30 -17 -44 0 -42 27 -57 114 -60 l79 -3
-220 -147 -220 -146 -54 54 c-29 30 -61 54 -71 54 -10 0 -194 -88 -408 -195
-416 -208 -427 -215 -402 -270 25 -55 39 -51 430 144 l365 182 56 -55 c31 -31
65 -56 76 -56 10 0 128 72 261 160 133 88 245 160 248 160 3 0 3 -20 -1 -45
-7 -54 14 -85 57 -85 42 0 56 25 89 157 55 217 59 213 -186 213 -162 0 -182
-2 -196 -18z"/>
</g>
</svg>
