<?xml version="1.0" standalone="no"?>
<!DOCTYPE svg PUBLIC "-//W3C//DTD SVG 20010904//EN"
 "http://www.w3.org/TR/2001/REC-SVG-20010904/DTD/svg10.dtd">
<svg version="1.0" xmlns="http://www.w3.org/2000/svg"
 width="200.000000pt" height="200.000000pt" viewBox="0 0 200.000000 200.000000"
 preserveAspectRatio="xMidYMid meet">
<metadata>
Created by potrace 1.16, written by Peter Selinger 2001-2019
</metadata>
<g transform="translate(0.000000,200.000000) scale(0.100000,-0.100000)"
fill="#000000" stroke="none">
<path d="M1173 1744 c-9 -23 20 -45 116 -89 l72 -32 -238 -194 c-131 -107
-259 -211 -286 -232 l-49 -39 -96 74 c-121 93 -118 91 -141 78 -11 -6 -115
-89 -230 -185 -116 -96 -213 -175 -216 -175 -3 0 -5 132 -5 294 0 262 -2 295
-16 300 -44 17 -44 14 -44 -573 0 -420 3 -560 12 -569 9 -9 142 -12 535 -12
l524 0 64 -49 c78 -60 157 -91 250 -98 278 -21 535 215 535 492 0 183 -118
370 -282 448 -239 114 -494 38 -639 -191 -89 -140 -92 -350 -8 -483 16 -25 29
-49 29 -52 0 -4 -74 -7 -165 -7 l-165 0 -2 272 -3 273 -130 0 -130 0 -3 -72
-3 -72 -107 -3 -107 -3 -3 -197 -2 -198 -70 0 -70 0 0 209 0 208 192 160 c106
87 212 174 236 193 l42 33 38 -31 c83 -66 173 -132 182 -132 4 0 132 101 283
223 150 123 279 227 284 230 6 4 2 -23 -9 -59 -22 -74 -19 -97 14 -92 20 3 27
18 54 118 17 63 29 120 27 127 -5 13 -198 109 -240 119 -16 4 -25 1 -30 -12z
m368 -574 c127 -24 257 -120 312 -233 97 -199 36 -436 -144 -556 -291 -194
-679 11 -679 359 0 172 97 324 252 395 92 42 167 52 259 35z m-871 -475 l0
-245 -75 0 -75 0 0 168 c0 93 -3 203 -6 245 l-7 77 82 0 81 0 0 -245z m-220
-75 l0 -170 -75 0 -75 0 0 170 0 170 75 0 75 0 0 -170z"/>
<path d="M1441 1047 c-6 -6 -11 -21 -11 -34 0 -18 -9 -27 -40 -39 -105 -42
-106 -181 -1 -228 l41 -19 0 -79 0 -79 -30 16 c-20 10 -33 28 -41 55 -14 47
-45 55 -55 15 -9 -37 30 -94 82 -116 36 -16 43 -24 46 -52 2 -24 8 -32 23 -32
15 0 21 8 23 31 2 25 10 34 42 48 114 50 119 183 10 229 l-50 21 0 73 c0 64 2
73 18 73 23 0 47 -26 57 -60 17 -59 55 -62 55 -4 0 42 -47 98 -95 114 -29 10
-35 16 -35 40 0 30 -21 45 -39 27z m-11 -187 c0 -79 -13 -90 -49 -44 -27 35
-26 59 4 89 38 39 45 32 45 -45z m100 -160 c37 -37 13 -120 -35 -120 -12 0
-15 14 -15 70 0 77 12 88 50 50z"/>
</g>
</svg>
