<?xml version="1.0" standalone="no"?>
<!DOCTYPE svg PUBLIC "-//W3C//DTD SVG 20010904//EN"
 "http://www.w3.org/TR/2001/REC-SVG-20010904/DTD/svg10.dtd">
<svg version="1.0" xmlns="http://www.w3.org/2000/svg"
 width="200.000000pt" height="200.000000pt" viewBox="0 0 200.000000 200.000000"
 preserveAspectRatio="xMidYMid meet">
<metadata>
Created by potrace 1.16, written by Peter Selinger 2001-2019
</metadata>
<g transform="translate(0.000000,200.000000) scale(0.100000,-0.100000)"
fill="#000000" stroke="none">
<path d="M42 1958 c-19 -19 -18 -1901 2 -1917 10 -8 269 -10 961 -9 884 3 949
4 959 20 27 43 34 43 -944 46 l-930 2 -2 933 c-3 825 -5 932 -18 935 -9 1 -21
-3 -28 -10z"/>
<path d="M541 1956 c-9 -11 -8 -35 3 -103 9 -48 16 -104 16 -123 0 -72 -43
-136 -195 -290 -170 -172 -205 -230 -205 -339 0 -84 17 -137 57 -178 48 -48
93 -63 223 -75 152 -14 538 -5 607 14 113 32 167 105 167 228 1 67 -3 85 -33
145 -28 57 -59 94 -166 200 -195 193 -214 235 -188 401 9 55 14 108 10 117 -6
15 -25 17 -145 17 -108 0 -142 -3 -151 -14z m225 -102 c-4 -31 -9 -61 -12 -65
-3 -5 -34 -9 -69 -9 -70 0 -63 -8 -81 93 l-6 37 87 0 88 0 -7 -56z m-116 -162
c0 -16 -11 -49 -25 -73 -51 -89 -67 -130 -61 -156 10 -39 48 -27 64 21 7 21
22 52 34 68 l21 31 19 -36 c21 -43 32 -50 58 -42 26 8 25 17 -4 79 -33 68 -44
136 -22 136 9 0 19 -16 27 -42 21 -80 51 -121 194 -268 79 -81 152 -165 164
-187 71 -141 33 -270 -90 -303 -28 -8 -148 -10 -363 -8 -297 3 -324 5 -360 23
-59 30 -79 64 -84 139 -7 104 21 150 191 325 109 111 151 161 175 210 18 35
32 75 32 88 0 14 6 23 15 23 10 0 15 -10 15 -28z"/>
<path d="M674 1432 c-7 -4 -14 -18 -15 -32 -3 -16 -11 -26 -25 -28 -37 -5 -69
-48 -69 -94 0 -58 37 -88 109 -88 56 0 83 -17 72 -45 -4 -11 -21 -15 -65 -15
-33 0 -63 5 -66 10 -13 21 -45 10 -51 -17 -10 -38 7 -58 54 -61 36 -3 41 -6
44 -30 2 -19 10 -28 26 -30 18 -3 23 2 28 27 4 18 13 31 21 31 8 0 28 13 44
29 37 38 39 88 5 128 -21 24 -34 29 -88 33 -59 5 -63 6 -63 30 0 23 4 25 54
28 39 2 58 -1 72 -14 27 -24 49 -11 49 30 0 39 -20 56 -64 56 -18 0 -26 5 -26
18 0 17 -18 42 -29 42 -4 0 -11 -4 -17 -8z"/>
<path d="M1713 1773 c-54 -37 -68 -68 -37 -80 9 -3 25 -1 36 6 17 10 18 9 12
-16 -31 -126 -118 -332 -195 -460 -283 -468 -722 -787 -1339 -972 -29 -9 -40
-48 -16 -57 23 -9 105 13 241 63 479 177 882 487 1128 869 91 141 203 389 238
528 12 48 12 48 29 26 19 -26 53 -24 58 3 5 26 -64 127 -86 126 -9 0 -41 -16
-69 -36z"/>
<path d="M1727 1303 c-4 -3 -7 -260 -7 -569 0 -547 1 -564 19 -574 25 -13 171
-13 205 0 l26 10 0 554 c0 305 -3 561 -6 570 -5 13 -25 16 -118 16 -62 0 -116
-3 -119 -7z m183 -568 l0 -515 -65 0 -65 0 0 515 0 515 65 0 65 0 0 -515z"/>
<path d="M1322 738 c-14 -14 -18 -544 -4 -566 6 -9 38 -12 123 -10 l114 3 0
290 0 290 -110 3 c-77 2 -114 -1 -123 -10z m178 -283 l0 -235 -60 0 -60 0 0
235 0 235 60 0 60 0 0 -235z"/>
<path d="M923 433 c-10 -3 -13 -40 -13 -133 0 -121 1 -130 21 -141 32 -17 207
-8 219 11 13 20 13 226 0 251 -10 17 -22 19 -113 18 -56 0 -108 -3 -114 -6z
m167 -138 l0 -75 -60 0 -60 0 0 75 0 75 60 0 60 0 0 -75z"/>
<path d="M510 205 c-7 -8 -10 -22 -6 -30 8 -22 234 -22 242 0 4 8 1 22 -6 30
-18 22 -212 22 -230 0z"/>
</g>
</svg>
