<?xml version="1.0" standalone="no"?>
<!DOCTYPE svg PUBLIC "-//W3C//DTD SVG 20010904//EN"
 "http://www.w3.org/TR/2001/REC-SVG-20010904/DTD/svg10.dtd">
<svg version="1.0" xmlns="http://www.w3.org/2000/svg"
 width="200.000000pt" height="200.000000pt" viewBox="0 0 200.000000 200.000000"
 preserveAspectRatio="xMidYMid meet">
<metadata>
Created by potrace 1.16, written by Peter Selinger 2001-2019
</metadata>
<g transform="translate(0.000000,200.000000) scale(0.100000,-0.100000)"
fill="#000000" stroke="none">
<path d="M349 1841 l-24 -19 0 -782 0 -782 28 -24 28 -24 270 0 c148 0 269 4
269 9 0 5 -7 25 -15 44 -9 21 -15 67 -15 107 l0 70 -179 0 c-151 0 -181 2
-192 16 -9 11 -10 20 -2 32 9 15 38 18 208 22 l197 5 19 50 c10 28 19 53 19
58 0 4 -99 7 -219 7 -213 0 -220 1 -226 20 -15 47 1 50 256 50 l239 0 35 38
c19 20 35 45 35 55 0 16 -19 17 -269 17 -232 0 -272 2 -285 16 -20 19 -20 29
0 48 13 14 53 16 278 16 l263 0 -16 55 -16 55 -251 0 c-269 0 -284 3 -269 50
6 20 13 20 280 20 257 0 277 1 307 20 36 22 107 27 125 9 8 -8 17 -8 33 1 13
7 41 10 69 6 25 -3 55 -6 66 -5 11 0 46 1 78 2 l57 2 0 336 c0 346 -4 390 -40
409 -12 6 -229 10 -568 10 -526 0 -551 -1 -573 -19z m756 -411 l0 -235 -58 -3
c-35 -2 -64 2 -73 9 -11 9 -14 53 -14 224 0 118 3 221 6 230 5 13 19 15 73 13
l66 -3 0 -235z m-227 118 c19 -19 17 -332 -2 -347 -9 -7 -38 -11 -73 -9 l-58
3 -3 170 c-1 93 0 175 2 182 7 17 117 18 134 1z m456 -44 c3 -9 6 -78 6 -154
0 -106 -3 -140 -14 -149 -9 -7 -38 -11 -73 -9 l-58 3 -3 150 c-1 82 0 155 2
162 8 20 132 18 140 -3z m-679 -204 l0 -105 -58 -3 c-35 -2 -64 2 -73 9 -18
15 -20 179 -2 197 8 8 35 12 73 10 l60 -3 0 -105z"/>
<path d="M1137 1022 c-9 -10 -17 -29 -17 -41 0 -24 24 -76 48 -103 14 -16 13
-20 -1 -36 -22 -24 -21 -53 1 -59 15 -4 9 -15 -39 -63 -65 -66 -125 -178 -154
-283 -24 -90 -10 -160 43 -220 63 -69 91 -77 298 -77 177 0 181 0 235 28 35
18 64 42 84 70 27 40 30 51 30 125 0 68 -5 94 -29 152 -38 93 -85 165 -143
220 -29 28 -41 45 -31 45 9 0 19 7 22 16 7 17 -10 54 -24 54 -5 0 4 19 20 43
17 23 33 59 36 79 6 31 3 38 -21 54 -26 17 -29 17 -57 1 -37 -21 -62 -21 -94
0 -24 16 -28 15 -61 -2 -30 -16 -39 -17 -66 -6 -56 22 -62 23 -80 3z m216
-392 c6 -16 16 -30 21 -30 17 0 46 -32 46 -51 0 -29 -30 -40 -63 -23 -28 15
-67 11 -67 -7 0 -6 20 -19 45 -30 60 -27 85 -55 85 -97 0 -24 -8 -42 -28 -60
-15 -15 -33 -39 -39 -54 -19 -42 -73 -32 -73 13 0 10 -8 20 -19 24 -10 3 -26
14 -35 24 -14 16 -15 23 -6 41 9 17 17 21 38 15 101 -25 119 -9 36 32 -89 43
-105 109 -40 161 14 11 26 26 26 34 0 44 57 51 73 8z"/>
</g>
</svg>
