<?xml version="1.0" standalone="no"?>
<!DOCTYPE svg PUBLIC "-//W3C//DTD SVG 20010904//EN"
 "http://www.w3.org/TR/2001/REC-SVG-20010904/DTD/svg10.dtd">
<svg version="1.0" xmlns="http://www.w3.org/2000/svg"
 width="200.000000pt" height="200.000000pt" viewBox="0 0 200.000000 200.000000"
 preserveAspectRatio="xMidYMid meet">
<metadata>
Created by potrace 1.16, written by Peter Selinger 2001-2019
</metadata>
<g transform="translate(0.000000,200.000000) scale(0.100000,-0.100000)"
fill="#000000" stroke="none">
<path d="M1523 1607 c-35 -73 -88 -129 -154 -163 -85 -43 -142 -137 -142 -234
0 -134 120 -242 301 -270 121 -19 201 7 277 91 48 54 65 96 65 164 0 58 -14
95 -57 153 -31 41 -39 40 -41 -4 -4 -109 -133 -228 -182 -168 -11 12 -10 34 3
118 28 171 18 293 -28 359 -11 16 -16 11 -42 -46z m-39 -163 c11 -10 16 -34
16 -71 0 -33 10 -84 26 -130 40 -115 22 -196 -50 -231 -73 -36 -185 78 -186
190 0 96 103 256 167 258 6 0 19 -7 27 -16z"/>
<path d="M1412 1347 c-25 -30 -52 -105 -52 -147 0 -75 67 -152 104 -120 27 21
27 59 1 133 -14 41 -25 84 -25 98 0 36 -14 54 -28 36z"/>
<path d="M149 1191 l-24 -19 -3 -369 c-2 -202 0 -387 3 -411 11 -76 -34 -72
825 -72 l761 0 24 25 25 24 0 270 0 270 -33 -14 -32 -13 -3 -246 -2 -246 -750
0 -750 0 0 374 0 375 48 7 c26 4 244 4 485 1 l437 -6 0 34 0 35 -494 0 c-471
0 -495 -1 -517 -19z"/>
<path d="M438 1086 c-10 -7 -24 -29 -32 -48 -11 -26 -23 -37 -45 -41 -53 -11
-61 -43 -61 -237 l0 -172 29 -29 c16 -16 39 -29 50 -29 15 0 21 -6 21 -21 0
-11 13 -34 29 -50 l29 -29 477 0 c343 0 482 3 498 12 28 15 46 38 47 61 0 11
15 23 40 33 22 9 45 25 50 35 6 10 10 81 10 158 l0 141 -28 0 c-38 0 -133 26
-187 50 -51 23 -150 111 -171 151 l-15 29 -362 0 c-284 -1 -366 -3 -379 -14z
m530 -89 c2 -18 13 -32 31 -41 35 -19 53 -54 49 -97 -2 -29 -7 -34 -28 -34
-19 0 -25 6 -31 33 -9 43 -13 46 -55 46 -39 0 -54 -15 -54 -55 0 -34 15 -45
70 -52 65 -8 100 -50 100 -119 0 -46 -4 -54 -39 -88 -21 -21 -41 -46 -43 -56
-5 -28 -41 -24 -55 7 -7 15 -24 30 -37 33 -52 13 -76 107 -29 114 15 2 25 -5
35 -25 10 -21 21 -29 46 -31 41 -4 62 12 62 49 0 35 -32 59 -81 59 -26 0 -44
8 -63 26 -22 23 -26 35 -26 86 0 52 3 63 29 89 16 16 37 29 45 29 9 0 16 8 16
18 0 46 53 55 58 9z"/>
</g>
</svg>
