<?xml version="1.0" standalone="no"?>
<!DOCTYPE svg PUBLIC "-//W3C//DTD SVG 20010904//EN"
 "http://www.w3.org/TR/2001/REC-SVG-20010904/DTD/svg10.dtd">
<svg version="1.0" xmlns="http://www.w3.org/2000/svg"
 width="200.000000pt" height="200.000000pt" viewBox="0 0 200.000000 200.000000"
 preserveAspectRatio="xMidYMid meet">
<metadata>
Created by potrace 1.16, written by Peter Selinger 2001-2019
</metadata>
<g transform="translate(0.000000,200.000000) scale(0.100000,-0.100000)"
fill="#000000" stroke="none">
<path d="M1276 1704 c-35 -24 -44 -26 -100 -20 -33 3 -72 7 -86 9 -39 3 -36
-30 9 -97 32 -48 38 -63 30 -78 -6 -11 -9 -29 -8 -41 2 -16 -14 -38 -57 -80
-73 -69 -125 -169 -126 -244 -2 -73 11 -192 22 -214 6 -10 21 -21 33 -23 12
-2 63 -13 112 -23 114 -23 226 -23 340 0 50 10 100 21 113 23 24 5 54 58 45
81 -3 7 -6 61 -6 120 -2 100 -4 113 -34 174 -21 42 -53 85 -90 120 -34 32 -56
61 -55 71 2 10 -1 26 -7 36 -8 15 -2 31 30 78 21 32 39 67 39 77 0 22 -54 46
-119 53 -39 5 -52 1 -85 -22z m18 -398 c6 -11 22 -30 36 -42 23 -21 24 -24 8
-40 -14 -15 -21 -15 -48 -4 -35 14 -55 4 -26 -14 72 -43 81 -53 84 -84 2 -23
-3 -38 -21 -54 -13 -13 -26 -31 -30 -40 -10 -27 -46 -22 -57 6 -5 14 -18 30
-30 36 -23 13 -26 33 -6 49 11 10 21 9 44 -3 27 -14 42 -13 42 4 0 4 -18 15
-41 25 -64 29 -80 87 -34 123 14 11 25 26 25 34 0 34 35 36 54 4z"/>
<path d="M828 770 c-49 -15 -230 -139 -222 -153 5 -8 107 -163 128 -194 1 -1
20 3 43 9 32 8 72 6 167 -6 223 -28 193 -37 440 127 213 140 242 167 196 182
-28 9 -90 -11 -195 -61 -145 -69 -197 -84 -289 -83 -138 2 -200 12 -204 32 -4
19 31 21 171 9 86 -8 107 -2 107 32 0 33 -11 39 -137 80 -113 36 -154 41 -205
26z"/>
<path d="M448 635 c-69 -47 -69 -47 42 -214 55 -83 106 -151 115 -151 28 0
115 61 115 81 0 10 -43 84 -96 164 -106 160 -111 164 -176 120z"/>
</g>
</svg>
