<?xml version="1.0" standalone="no"?>
<!DOCTYPE svg PUBLIC "-//W3C//DTD SVG 20010904//EN"
 "http://www.w3.org/TR/2001/REC-SVG-20010904/DTD/svg10.dtd">
<svg version="1.0" xmlns="http://www.w3.org/2000/svg"
 width="200.000000pt" height="200.000000pt" viewBox="0 0 200.000000 200.000000"
 preserveAspectRatio="xMidYMid meet">
<metadata>
Created by potrace 1.16, written by Peter Selinger 2001-2019
</metadata>
<g transform="translate(0.000000,200.000000) scale(0.100000,-0.100000)"
fill="#000000" stroke="none">
<path d="M1141 1889 c-83 -24 -163 -110 -176 -190 l-7 -39 -60 0 c-78 0 -123
-26 -138 -78 -13 -49 -13 -516 0 -564 7 -24 24 -48 47 -65 l36 -28 381 0 381
0 34 24 c39 28 61 75 61 131 0 33 3 40 20 40 19 0 20 7 20 95 0 88 -1 95 -20
95 -19 0 -20 8 -22 173 l-3 172 -112 3 -112 3 -6 32 c-32 146 -182 236 -324
196z m165 -45 c18 -9 51 -35 72 -58 44 -48 65 -117 55 -180 l-6 -36 -68 0
c-65 0 -69 1 -69 23 0 35 -20 54 -68 67 -47 12 -61 32 -42 55 14 17 56 20 65
5 9 -14 35 -12 35 3 0 11 -55 67 -65 67 -2 0 -20 -15 -40 -33 -31 -28 -36 -39
-33 -67 3 -36 19 -48 83 -67 20 -6 30 -15 30 -28 0 -19 -8 -20 -126 -23 l-127
-3 -6 43 c-14 91 45 198 128 234 43 18 141 17 182 -2z m-346 -228 c0 -8 3 -21
6 -30 4 -11 -4 -15 -38 -18 -30 -2 -43 -7 -43 -18 0 -13 51 -15 388 -18 l387
-2 0 -25 0 -25 -412 0 c-409 0 -412 0 -435 22 -37 35 -26 99 20 118 38 15 127
12 127 -4z m700 -16 l0 -30 -101 0 c-88 0 -100 2 -95 16 3 9 6 22 6 30 0 11
20 14 95 14 l95 0 0 -30z m-407 -160 l407 0 0 -64 0 -64 -111 -4 c-107 -3
-112 -4 -135 -31 -34 -40 -32 -90 5 -128 29 -28 32 -29 135 -29 l106 0 0 -51
c0 -43 -5 -55 -29 -80 l-29 -29 -377 0 -377 0 -29 29 -29 29 0 226 0 225 28
-15 c22 -11 100 -14 435 -14z m457 -225 l0 -65 -120 0 c-115 0 -122 1 -145 25
-14 13 -25 31 -25 40 0 9 11 27 25 40 23 24 30 25 145 25 l120 0 0 -65z"/>
<path d="M265 880 c-108 -30 -135 -51 -135 -101 0 -41 156 -617 175 -645 24
-37 68 -38 185 -5 132 38 155 58 145 134 l-7 50 98 -5 c76 -4 119 -13 186 -37
47 -17 101 -31 119 -31 23 0 140 59 413 207 210 114 391 218 404 230 62 62
-12 199 -97 178 -14 -4 -99 -47 -189 -96 -90 -49 -165 -89 -167 -89 -3 0 -5 9
-5 20 0 32 -26 74 -55 90 -22 12 -38 12 -108 1 -45 -7 -112 -16 -149 -18 -65
-5 -68 -4 -165 48 -120 65 -151 67 -302 15 -58 -20 -108 -36 -111 -36 -4 0
-12 18 -19 39 -14 47 -53 81 -90 80 -14 -1 -71 -14 -126 -29z m158 -12 c17
-13 177 -586 177 -633 0 -34 -27 -50 -122 -74 -100 -24 -131 -26 -146 -8 -10
12 -172 608 -172 633 0 18 37 41 80 49 l35 6 34 -128 c19 -70 38 -143 43 -160
8 -31 38 -47 38 -20 0 6 -18 79 -40 160 -22 81 -40 152 -40 157 0 4 17 12 38
18 51 14 56 14 75 0z m475 -87 c53 -27 111 -52 129 -56 18 -3 80 3 149 15 89
16 123 19 141 11 39 -18 56 -89 30 -125 -9 -12 -60 -29 -152 -52 -76 -18 -140
-36 -143 -39 -3 -3 -1 -10 5 -16 7 -7 51 -1 144 21 128 30 179 50 179 69 0 15
360 211 386 211 45 0 90 -73 67 -109 -9 -15 -744 -424 -785 -437 -10 -3 -58 8
-106 25 -108 37 -211 54 -278 46 l-50 -6 -55 205 -55 205 110 40 c61 21 128
40 149 40 26 1 67 -14 135 -48z"/>
</g>
</svg>
