<?xml version="1.0" standalone="no"?>
<!DOCTYPE svg PUBLIC "-//W3C//DTD SVG 20010904//EN"
 "http://www.w3.org/TR/2001/REC-SVG-20010904/DTD/svg10.dtd">
<svg version="1.0" xmlns="http://www.w3.org/2000/svg"
 width="200.000000pt" height="200.000000pt" viewBox="0 0 200.000000 200.000000"
 preserveAspectRatio="xMidYMid meet">
<metadata>
Created by potrace 1.16, written by Peter Selinger 2001-2019
</metadata>
<g transform="translate(0.000000,200.000000) scale(0.100000,-0.100000)"
fill="#000000" stroke="none">
<path d="M1135 1866 c-84 -37 -138 -116 -139 -206 0 -30 3 -61 7 -67 6 -9 44
-13 133 -13 113 0 124 2 124 18 0 24 -19 42 -46 42 -12 0 -33 9 -48 21 -38 30
-35 68 10 107 20 18 39 32 42 32 4 0 23 -14 42 -30 28 -23 33 -31 23 -41 -10
-10 -16 -10 -25 -1 -17 17 -63 15 -78 -3 -17 -20 1 -42 43 -50 42 -9 77 -42
77 -72 0 -23 2 -24 68 -21 l67 3 0 77 c0 69 -3 81 -30 119 -58 83 -185 122
-270 85z"/>
<path d="M816 1619 c-53 -41 -26 -121 46 -134 18 -3 209 -4 423 -3 l390 3 0
30 0 30 -403 3 c-316 2 -403 5 -400 15 3 7 26 13 52 15 38 3 46 6 42 18 -3 9
-6 22 -6 30 0 24 -111 19 -144 -7z"/>
<path d="M1476 1618 c-3 -13 -6 -26 -6 -30 0 -5 47 -8 105 -8 l105 0 0 30 0
30 -99 0 c-94 0 -99 -1 -105 -22z"/>
<path d="M780 1269 c0 -112 5 -221 10 -241 20 -69 11 -68 432 -68 247 0 385 4
401 11 32 15 47 42 54 100 l6 49 -112 0 c-111 0 -113 0 -142 29 -51 51 -33
137 33 160 17 6 73 11 124 11 l94 0 0 65 0 65 -427 3 c-236 1 -438 6 -450 11
l-23 8 0 -203z"/>
<path d="M1446 1258 c-22 -32 -20 -55 9 -83 23 -24 30 -25 145 -25 l120 0 0
65 0 65 -129 0 c-123 0 -131 -1 -145 -22z"/>
<path d="M323 863 c-13 -3 -23 -12 -23 -21 0 -9 18 -84 40 -165 22 -81 40
-153 40 -158 0 -6 -7 -9 -17 -7 -12 2 -27 44 -59 161 -23 87 -44 161 -47 163
-11 11 -88 -18 -102 -39 -13 -20 -6 -50 71 -337 47 -173 90 -320 96 -327 15
-18 36 -16 150 14 71 19 104 33 114 48 12 19 5 55 -70 333 -46 172 -89 319
-96 327 -12 14 -49 17 -97 8z"/>
<path d="M618 788 c-65 -22 -118 -45 -118 -51 0 -7 23 -100 52 -209 l53 -196
115 -4 c95 -3 128 -9 190 -32 136 -51 98 -64 534 176 214 117 395 223 403 235
26 38 -20 113 -70 113 -22 0 -359 -189 -383 -215 -31 -34 -46 -39 -193 -75
-86 -20 -137 -28 -143 -22 -15 15 3 22 146 58 146 37 172 54 162 108 -16 80
-39 87 -186 61 -47 -8 -105 -15 -130 -15 -44 1 -56 6 -195 78 -33 18 -73 31
-90 31 -16 0 -83 -19 -147 -41z"/>
</g>
</svg>
