<?xml version="1.0" standalone="no"?>
<!DOCTYPE svg PUBLIC "-//W3C//DTD SVG 20010904//EN"
 "http://www.w3.org/TR/2001/REC-SVG-20010904/DTD/svg10.dtd">
<svg version="1.0" xmlns="http://www.w3.org/2000/svg"
 width="200.000000pt" height="200.000000pt" viewBox="0 0 200.000000 200.000000"
 preserveAspectRatio="xMidYMid meet">
<metadata>
Created by potrace 1.16, written by Peter Selinger 2001-2019
</metadata>
<g transform="translate(0.000000,200.000000) scale(0.100000,-0.100000)"
fill="#000000" stroke="none">
<path d="M1320 1681 c-14 -5 -54 -21 -90 -36 -52 -22 -73 -26 -112 -21 -45 6
-48 5 -54 -20 -8 -33 9 -93 35 -121 28 -29 18 -89 -21 -125 -41 -38 -38 -80 9
-127 21 -20 45 -58 55 -86 11 -32 32 -63 58 -86 22 -20 40 -40 40 -44 0 -10
-39 -42 -75 -62 -16 -9 -73 -30 -125 -47 -135 -44 -140 -54 -160 -296 -5 -62
-11 -115 -14 -118 -6 -5 -88 46 -143 90 -38 30 -83 124 -83 173 0 30 -24 49
-53 41 -24 -6 -47 -43 -47 -75 0 -16 -5 -18 -32 -12 -84 18 -133 -24 -133
-114 0 -43 5 -59 24 -79 26 -27 76 -46 124 -46 21 0 41 -13 77 -49 49 -52 134
-111 157 -111 7 0 13 8 13 18 0 11 -23 33 -60 57 -65 42 -65 41 -12 104 l29
34 29 -20 c50 -35 135 -75 150 -69 11 4 14 27 14 94 0 109 18 248 36 284 12
22 30 32 99 53 47 15 89 24 94 21 4 -3 18 -34 31 -68 30 -84 37 -92 65 -74 19
13 23 12 33 -4 8 -13 5 -48 -13 -146 -32 -171 -32 -188 6 -235 17 -21 37 -39
44 -39 27 0 25 21 -6 59 l-31 40 22 128 c27 152 27 153 51 153 10 0 19 -1 19
-3 0 -1 11 -67 25 -146 l25 -144 -25 -27 c-27 -28 -33 -60 -12 -60 22 0 77 64
77 90 0 14 -11 88 -25 164 -17 101 -21 145 -14 159 10 17 12 17 28 3 22 -20
31 -13 78 64 36 57 44 65 70 64 59 -3 142 -34 159 -60 30 -44 45 -136 52 -309
6 -145 9 -170 23 -173 50 -9 22 407 -33 497 -24 37 -95 75 -165 86 -33 5 -54
18 -93 56 -62 61 -65 88 -15 160 19 28 35 57 35 64 0 7 15 22 34 33 44 26 64
79 46 123 -7 16 -16 29 -21 29 -5 0 -9 26 -9 58 0 71 -31 138 -75 161 -17 9
-46 33 -65 54 -29 32 -44 40 -80 43 -25 2 -56 0 -70 -5z m170 -220 c21 -21 31
-42 36 -80 4 -28 11 -51 16 -51 5 0 4 -9 -2 -21 -14 -24 -6 -49 14 -49 19 0
31 37 17 54 -12 14 -5 26 16 26 18 0 17 -55 -3 -74 -8 -9 -22 -16 -30 -16 -8
0 -25 -24 -38 -52 -41 -91 -111 -138 -205 -138 -44 0 -55 4 -85 35 -22 21 -41
55 -50 86 -9 28 -21 58 -27 65 -8 10 -8 14 0 14 6 0 11 14 11 31 0 24 -4 30
-17 27 -13 -2 -18 -13 -18 -36 l0 -33 -18 22 c-28 35 -17 57 36 73 13 4 17 16
17 56 l0 50 38 0 c20 0 73 9 117 19 116 28 141 26 175 -8z m-41 -458 c6 -21 7
-40 3 -44 -4 -3 -28 -25 -55 -49 -47 -42 -48 -43 -68 -24 -46 41 -62 74 -50
100 8 18 19 24 43 25 18 0 49 7 68 14 49 19 48 19 59 -22z m-159 -150 c0 -6
-13 -21 -29 -32 l-28 -21 -21 53 c-18 48 -18 53 -4 70 15 17 18 16 49 -20 18
-21 32 -43 33 -50z m230 57 c6 -11 8 -26 4 -33 -4 -6 -18 -29 -32 -51 l-24
-38 -34 33 c-32 31 -33 33 -16 52 18 21 72 57 84 57 4 0 12 -9 18 -20z m-131
-104 c20 -23 -4 -56 -39 -56 -31 0 -56 30 -46 56 7 18 70 18 85 0z m-769 -142
l19 -53 -41 -52 c-40 -50 -43 -51 -85 -46 -68 7 -93 29 -93 80 0 24 6 51 13
62 14 18 37 18 120 -1 26 -6 27 -4 27 29 0 19 3 44 7 54 7 17 8 17 11 -1 2
-10 12 -43 22 -72z m70 -112 c0 -8 -64 -91 -71 -92 -4 0 -10 7 -13 16 -8 22
50 95 69 87 8 -3 15 -8 15 -11z"/>
<path d="M1196 1384 c-9 -8 -16 -20 -16 -25 0 -15 33 -24 38 -11 5 15 38 16
47 2 3 -5 13 -10 21 -10 17 0 19 31 2 48 -17 17 -74 15 -92 -4z"/>
<path d="M1398 1389 c-19 -11 -24 -34 -9 -44 5 -3 21 0 35 6 20 9 29 9 41 -1
12 -10 19 -10 28 -1 31 31 -52 67 -95 40z"/>
<path d="M1221 1311 c-13 -23 10 -47 34 -37 20 7 19 42 -1 50 -22 8 -22 8 -33
-13z"/>
<path d="M1411 1311 c-13 -23 10 -47 34 -37 20 7 19 42 -1 50 -22 8 -22 8 -33
-13z"/>
<path d="M1400 1205 c-14 -8 -41 -15 -60 -15 -44 0 -65 -13 -57 -34 12 -31
147 -7 161 29 9 24 -17 35 -44 20z"/>
<path d="M598 1437 c-7 -8 -18 -12 -24 -10 -16 5 -94 -67 -94 -88 0 -29 17
-23 67 21 29 25 56 40 72 40 33 0 67 23 57 38 -10 16 -62 15 -78 -1z"/>
<path d="M595 1359 c-64 -36 -122 -126 -97 -151 13 -13 42 7 42 27 0 22 47 71
80 85 19 8 30 19 28 29 -4 20 -27 24 -53 10z"/>
<path d="M641 1291 c-42 -22 -81 -85 -81 -131 0 -19 9 -50 20 -68 21 -34 21
-34 1 -65 l-20 -31 -10 27 c-6 16 -11 31 -11 34 0 18 -57 76 -93 95 -156 80
-337 -57 -296 -224 29 -124 168 -192 284 -139 38 17 105 81 105 101 0 5 9 14
20 20 15 8 32 7 69 -7 l49 -17 20 24 19 24 14 -26 14 -26 65 26 c36 14 66 26
68 28 2 1 -3 15 -12 32 -11 22 -12 32 -4 40 9 9 6 18 -10 35 -20 21 -21 25 -6
66 18 54 10 102 -24 143 -48 57 -119 72 -181 39z m134 -57 c33 -36 41 -83 21
-123 -9 -17 -21 -31 -27 -31 -5 0 -21 -12 -34 -26 l-23 -25 -51 48 c-44 42
-51 54 -51 87 0 84 109 130 165 70z m-329 -133 c16 -12 37 -35 46 -49 20 -30
24 -92 7 -92 -6 0 -8 -11 -4 -29 13 -58 -91 -131 -167 -117 -47 9 -95 40 -119
78 -16 26 -19 45 -16 90 4 62 23 92 82 130 42 27 130 21 171 -11z"/>
<path d="M676 1208 c-14 -20 -14 -24 1 -40 9 -10 22 -18 30 -18 7 0 13 -5 13
-11 0 -7 -10 -9 -25 -5 -30 8 -32 -4 -6 -28 18 -17 20 -16 40 1 30 25 27 52
-9 64 -16 6 -30 15 -30 21 0 5 13 7 30 3 34 -7 37 -3 14 19 -21 22 -40 20 -58
-6z"/>
<path d="M318 1071 c-50 -49 -51 -85 -5 -105 17 -8 40 -17 50 -20 35 -11 16
-26 -33 -26 -43 0 -50 -3 -50 -19 0 -12 9 -22 23 -27 12 -3 29 -13 38 -20 14
-13 21 -10 54 20 25 23 38 43 38 61 0 33 -8 41 -58 58 -58 20 -58 39 1 35 39
-2 49 0 52 14 2 12 -6 21 -24 28 -15 6 -32 17 -38 24 -9 11 -18 7 -48 -23z"/>
<path d="M846 1303 c-12 -12 -6 -31 21 -60 18 -19 27 -41 27 -64 1 -23 6 -34
16 -34 23 0 20 92 -3 122 -22 27 -52 45 -61 36z"/>
<path d="M444 1286 c-8 -21 -1 -49 14 -54 16 -5 33 39 20 56 -14 16 -27 15
-34 -2z"/>
<path d="M1624 635 c-4 -9 -1 -29 6 -45 8 -20 11 -69 9 -147 -3 -98 -2 -118
11 -118 21 0 28 37 29 153 1 69 -4 114 -13 137 -16 37 -33 45 -42 20z"/>
<path d="M1016 563 c-21 -181 -18 -243 9 -243 19 0 23 21 29 168 6 115 5 122
-13 122 -15 0 -20 -9 -25 -47z"/>
</g>
</svg>
