<?xml version="1.0" standalone="no"?>
<!DOCTYPE svg PUBLIC "-//W3C//DTD SVG 20010904//EN"
 "http://www.w3.org/TR/2001/REC-SVG-20010904/DTD/svg10.dtd">
<svg version="1.0" xmlns="http://www.w3.org/2000/svg"
 width="200.000000pt" height="200.000000pt" viewBox="0 0 200.000000 200.000000"
 preserveAspectRatio="xMidYMid meet">
<metadata>
Created by potrace 1.16, written by Peter Selinger 2001-2019
</metadata>
<g transform="translate(0.000000,200.000000) scale(0.100000,-0.100000)"
fill="#000000" stroke="none">
<path d="M1510 1721 c-118 -39 -217 -147 -245 -266 l-7 -30 29 28 c16 15 38
27 49 27 23 0 144 -118 144 -140 0 -8 -17 -35 -38 -59 l-38 -44 25 -63 25 -63
65 -3 c64 -3 66 -4 71 -33 5 -29 8 -30 49 -27 142 11 259 114 297 262 38 149
-39 313 -180 384 -44 23 -72 29 -138 32 -46 2 -94 0 -108 -5z m120 -85 c0 -6
15 -20 34 -30 40 -21 70 -71 65 -106 -5 -34 -30 -31 -42 5 -10 32 -35 65 -49
65 -4 0 -8 -37 -8 -82 l1 -83 38 -18 c47 -22 66 -60 58 -123 -5 -48 -25 -78
-69 -100 -15 -8 -29 -23 -33 -34 -8 -26 -35 -26 -42 0 -3 11 -20 27 -39 36
-56 27 -98 142 -48 132 9 -2 22 -18 28 -37 6 -19 21 -41 34 -49 l22 -14 0 85
c0 84 0 85 -29 97 -51 21 -73 53 -74 109 -1 59 22 98 71 121 17 8 32 23 32 32
0 9 6 18 13 21 14 5 37 -11 37 -27z"/>
<path d="M1541 1544 c-12 -15 -21 -37 -21 -49 0 -23 35 -75 51 -75 5 0 9 34 9
75 0 41 -4 75 -9 75 -5 0 -19 -12 -30 -26z"/>
<path d="M1630 1280 c0 -38 4 -70 8 -70 5 0 17 9 27 20 33 37 18 120 -21 120
-11 0 -14 -17 -14 -70z"/>
<path d="M928 1484 l-3 -66 -60 -23 c-33 -13 -75 -29 -92 -36 -32 -13 -34 -12
-76 29 l-43 42 -47 -48 -47 -47 42 -43 c42 -41 42 -43 29 -74 -7 -18 -23 -60
-36 -93 l-23 -60 -61 -3 c-59 -3 -61 -4 -61 -31 0 -24 6 -30 43 -41 146 -43
265 -171 283 -303 4 -25 10 -50 14 -57 4 -6 36 -22 71 -35 l64 -23 3 -61 3
-61 64 0 64 0 3 61 3 61 60 23 c33 13 75 29 92 36 32 13 34 12 76 -29 l43 -42
47 48 47 47 -42 43 c-42 41 -42 43 -29 74 7 18 23 60 36 93 l23 60 66 3 66 3
0 64 0 65 -57 0 c-69 0 -79 6 -89 45 -4 17 -17 51 -30 77 -13 26 -24 53 -24
60 0 7 18 31 40 53 l40 41 -48 47 -48 47 -39 -40 c-21 -22 -45 -40 -52 -40 -8
0 -32 10 -55 21 -23 12 -60 27 -82 33 l-41 12 -3 67 -3 67 -64 0 -64 0 -3 -66z
m190 -223 c110 -56 166 -146 166 -266 1 -117 -57 -210 -161 -261 -148 -73
-328 -7 -395 143 -70 158 10 336 179 399 53 20 157 13 211 -15z"/>
<path d="M911 1228 c-47 -13 -134 -103 -149 -154 -58 -198 122 -374 316 -310
61 21 136 97 152 154 27 97 6 179 -64 248 -69 70 -156 91 -255 62z"/>
<path d="M355 952 c-135 -12 -255 -120 -291 -261 -30 -118 9 -246 100 -329 74
-68 124 -87 231 -87 117 0 174 24 250 107 189 204 73 530 -200 565 -33 5 -73
7 -90 5z m65 -87 c5 -14 16 -25 23 -25 33 0 98 -104 81 -131 -11 -18 -44 -9
-44 12 0 28 -17 56 -40 69 -19 10 -20 7 -20 -73 l0 -83 35 -17 c46 -22 68 -59
68 -113 0 -52 -24 -92 -70 -114 -18 -8 -34 -23 -36 -32 -7 -24 -38 -23 -44 1
-2 10 -20 25 -38 34 -39 19 -68 66 -63 105 4 36 29 34 41 -3 10 -32 35 -65 49
-65 4 0 8 37 8 83 l-1 82 -38 18 c-44 20 -61 51 -61 112 0 47 33 98 71 110 11
4 24 18 29 31 12 31 38 31 50 -1z"/>
<path d="M331 764 c-12 -15 -21 -33 -21 -40 0 -26 20 -63 40 -74 19 -10 20 -8
20 65 0 41 -4 75 -9 75 -5 0 -19 -12 -30 -26z"/>
<path d="M420 505 c0 -41 4 -75 9 -75 5 0 19 12 31 27 25 33 22 90 -7 110 -29
22 -33 15 -33 -62z"/>
</g>
</svg>
