<?xml version="1.0" standalone="no"?>
<!DOCTYPE svg PUBLIC "-//W3C//DTD SVG 20010904//EN"
 "http://www.w3.org/TR/2001/REC-SVG-20010904/DTD/svg10.dtd">
<svg version="1.0" xmlns="http://www.w3.org/2000/svg"
 width="200.000000pt" height="200.000000pt" viewBox="0 0 200.000000 200.000000"
 preserveAspectRatio="xMidYMid meet">
<metadata>
Created by potrace 1.16, written by Peter Selinger 2001-2019
</metadata>
<g transform="translate(0.000000,200.000000) scale(0.100000,-0.100000)"
fill="#000000" stroke="none">
<path d="M1450 1719 c-53 -17 -75 -32 -130 -87 -68 -68 -110 -148 -110 -207 0
-29 -2 -30 -63 -9 l-47 16 0 59 c0 71 -10 79 -105 79 -94 0 -105 -8 -105 -78
l0 -58 -65 -26 -64 -25 -38 39 c-20 21 -44 38 -53 38 -18 0 -140 -120 -140
-138 0 -7 18 -32 40 -56 39 -42 39 -44 26 -72 -8 -16 -19 -41 -25 -56 -9 -25
-16 -28 -56 -28 -69 0 -85 -12 -85 -64 l0 -43 -54 -6 c-111 -11 -229 -93 -280
-196 -96 -189 -21 -409 172 -507 51 -26 67 -29 152 -29 84 0 102 3 158 29 80
37 162 123 191 201 12 31 21 65 21 75 0 24 8 25 59 4 40 -16 40 -16 43 -77 l3
-62 100 0 100 0 3 60 3 61 61 27 61 27 43 -40 c24 -22 49 -40 57 -40 17 0 137
122 137 140 0 8 -19 33 -42 57 -30 31 -39 45 -31 55 6 7 18 34 28 60 l17 47
62 3 61 3 5 50 5 50 57 6 c156 17 290 146 318 307 21 115 -19 242 -101 321
-104 100 -252 134 -389 90z m265 -54 c71 -34 137 -107 165 -181 30 -80 25
-186 -13 -260 -49 -96 -158 -170 -262 -177 -32 -2 -40 1 -43 18 -6 32 -19 40
-78 45 l-55 5 -23 57 -23 57 38 37 c22 21 39 45 39 53 0 20 -120 141 -139 141
-8 0 -28 -12 -44 -27 l-29 -28 7 35 c19 89 103 193 182 227 95 39 196 39 278
-2z m-653 -206 l3 -61 64 -23 c35 -13 68 -28 74 -34 20 -20 41 -11 79 32 l37
42 48 -47 47 -48 -43 -44 -43 -44 17 -33 c10 -18 25 -56 35 -83 l17 -51 61 -3
62 -3 0 -64 0 -64 -62 -3 -61 -3 -18 -52 c-10 -29 -26 -66 -35 -83 l-18 -30
44 -45 44 -45 -44 -45 -44 -45 -41 40 c-42 41 -63 48 -82 29 -6 -6 -39 -21
-74 -34 l-64 -23 -3 -61 -3 -61 -64 0 -64 0 -3 61 -3 61 -60 23 c-45 16 -62
28 -67 46 -3 13 -13 49 -22 80 -33 116 -132 214 -248 246 -53 15 -58 19 -58
44 0 27 2 28 61 31 l61 3 23 64 c13 35 28 68 34 74 19 19 12 40 -29 82 l-40
41 45 44 45 44 44 -43 44 -43 33 17 c18 10 56 25 83 35 l51 17 3 61 3 62 64 0
64 0 3 -61z m-517 -525 c71 -25 156 -111 184 -187 42 -114 19 -241 -60 -330
-51 -59 -91 -83 -168 -103 -148 -37 -296 33 -373 178 -19 36 -23 58 -23 138 0
83 3 101 27 145 26 51 94 121 139 146 76 40 179 45 274 13z"/>
<path d="M1553 1612 c-2 -10 -20 -26 -38 -36 -85 -46 -84 -176 1 -212 l34 -14
0 -82 0 -81 -24 22 c-13 12 -26 36 -30 52 -4 22 -11 30 -23 27 -13 -3 -18 -12
-17 -36 2 -42 26 -77 62 -93 16 -7 33 -22 38 -33 11 -26 26 -25 38 1 5 11 25
28 45 39 80 42 79 168 -1 207 l-38 19 0 74 c0 41 4 74 8 74 15 0 39 -34 46
-63 5 -20 12 -27 24 -25 43 9 -4 116 -59 133 -9 3 -19 15 -22 25 -6 25 -37 26
-44 2z m-3 -142 c0 -38 -3 -70 -7 -70 -20 0 -43 37 -43 68 0 33 22 72 42 72 4
0 8 -31 8 -70z m98 -196 c2 -32 -2 -44 -23 -64 l-25 -23 0 77 0 78 23 -14 c15
-11 23 -27 25 -54z"/>
<path d="M928 1265 c-128 -32 -208 -137 -208 -273 0 -192 185 -320 372 -256
189 64 242 332 93 463 -73 64 -169 89 -257 66z m143 -46 c132 -40 197 -203
131 -330 -84 -162 -316 -170 -408 -14 -109 187 68 406 277 344z"/>
<path d="M403 871 c-2 -10 -19 -25 -37 -34 -33 -15 -66 -68 -66 -105 0 -55 43
-112 85 -112 12 0 15 -15 15 -80 0 -44 -4 -80 -8 -80 -15 0 -39 34 -46 63 -5
20 -12 27 -24 25 -41 -8 -10 -100 43 -125 17 -8 35 -25 41 -36 11 -27 26 -26
38 0 5 11 22 27 37 36 34 19 69 73 69 105 0 46 -28 92 -65 107 l-35 15 0 75
c0 41 4 75 8 75 15 0 39 -34 46 -63 5 -20 12 -27 24 -25 41 8 9 93 -48 126
-16 9 -31 25 -34 34 -6 24 -37 23 -43 -1z m-3 -142 l0 -71 -22 14 c-30 20 -37
82 -12 109 28 31 34 22 34 -52z m98 -194 c3 -35 -18 -75 -40 -75 -4 0 -8 32
-8 71 l0 71 23 -14 c15 -11 23 -27 25 -53z"/>
</g>
</svg>
