<?xml version="1.0" standalone="no"?>
<!DOCTYPE svg PUBLIC "-//W3C//DTD SVG 20010904//EN"
 "http://www.w3.org/TR/2001/REC-SVG-20010904/DTD/svg10.dtd">
<svg version="1.0" xmlns="http://www.w3.org/2000/svg"
 width="200.000000pt" height="200.000000pt" viewBox="0 0 200.000000 200.000000"
 preserveAspectRatio="xMidYMid meet">
<metadata>
Created by potrace 1.16, written by Peter Selinger 2001-2019
</metadata>
<g transform="translate(0.000000,200.000000) scale(0.100000,-0.100000)"
fill="#000000" stroke="none">
<path d="M1045 1388 c-236 -137 -434 -253 -438 -257 -12 -12 92 -191 117 -201
12 -4 23 -6 24 -5 2 2 -11 30 -29 63 l-33 59 22 28 c17 21 21 36 16 60 l-6 33
164 93 c89 51 239 137 332 191 l169 98 23 -21 c16 -15 32 -20 60 -17 l37 3 73
-125 c41 -69 74 -129 74 -134 0 -5 -8 -18 -17 -29 -11 -11 -18 -35 -18 -60 l0
-40 -280 -161 c-185 -107 -281 -168 -283 -180 -3 -16 4 -14 49 12 30 17 186
107 346 199 161 93 293 172 293 176 0 7 -229 410 -254 448 -9 13 -72 -20 -441
-233z"/>
<path d="M1553 1601 c2 -11 60 -115 127 -231 67 -116 120 -214 117 -216 -3 -3
-169 -100 -369 -216 -200 -115 -367 -214 -373 -219 -29 -30 145 62 439 232
182 105 333 193 335 195 2 2 -57 109 -130 238 -122 213 -161 271 -146 217z"/>
<path d="M1075 1324 l-300 -174 -6 -39 c-3 -22 -11 -46 -18 -55 -11 -13 -7
-26 26 -83 l39 -68 103 -36 102 -37 272 158 272 157 7 43 c4 23 12 48 19 56 9
11 -2 36 -49 116 -58 100 -61 103 -100 109 -22 3 -46 10 -54 16 -10 8 -85 -31
-313 -163z m425 7 c0 -13 -18 -29 -57 -50 -65 -35 -83 -38 -83 -13 0 10 22 29
58 49 67 38 82 40 82 14z m-235 -42 c134 -90 77 -297 -85 -306 -72 -5 -124 24
-158 87 -82 154 98 317 243 219z m-285 -258 c0 -13 -18 -29 -57 -50 -65 -35
-83 -38 -83 -13 0 10 22 29 58 49 67 38 82 40 82 14z"/>
<path d="M1121 1263 c-51 -26 -76 -66 -75 -117 3 -157 226 -167 251 -12 15 95
-92 173 -176 129z m68 -38 c18 -17 6 -35 -23 -35 -25 0 -38 -9 -31 -20 3 -5
21 -3 40 3 31 9 38 8 56 -10 17 -17 20 -27 14 -67 l-7 -47 -42 6 c-48 8 -61
18 -52 40 4 11 13 14 25 10 10 -3 23 1 30 9 15 17 1 28 -19 15 -42 -26 -96 5
-86 50 4 14 8 35 10 46 2 11 4 21 5 23 3 8 67 -11 80 -23z"/>
<path d="M479 875 c-49 -26 -83 -50 -81 -57 2 -7 37 -77 78 -154 l74 -142 43
5 c28 3 88 -7 184 -31 78 -20 159 -36 179 -36 57 0 541 261 550 296 4 17 0 31
-11 44 -20 22 -42 25 -77 10 -13 -5 -111 -44 -218 -86 -228 -89 -218 -88 -417
-25 -124 39 -154 57 -125 75 5 3 73 -15 153 -40 79 -24 147 -44 152 -44 4 0
16 9 27 20 27 27 26 66 -2 84 -28 18 -374 126 -403 126 -12 0 -59 -20 -106
-45z"/>
<path d="M218 804 c-27 -13 -48 -27 -48 -30 0 -14 215 -404 223 -404 11 0 97
50 97 56 0 3 -7 18 -15 35 -14 27 -14 30 1 36 11 4 22 -1 30 -12 8 -10 16 -17
18 -14 2 2 -39 84 -91 182 -52 98 -97 176 -100 173 -3 -3 29 -69 71 -147 71
-131 85 -177 53 -167 -6 2 -50 75 -97 161 -47 86 -87 157 -90 156 -3 0 -26
-11 -52 -25z"/>
</g>
</svg>
