<?xml version="1.0" standalone="no"?>
<!DOCTYPE svg PUBLIC "-//W3C//DTD SVG 20010904//EN"
 "http://www.w3.org/TR/2001/REC-SVG-20010904/DTD/svg10.dtd">
<svg version="1.0" xmlns="http://www.w3.org/2000/svg"
 width="200.000000pt" height="200.000000pt" viewBox="0 0 200.000000 200.000000"
 preserveAspectRatio="xMidYMid meet">
<metadata>
Created by potrace 1.16, written by Peter Selinger 2001-2019
</metadata>
<g transform="translate(0.000000,200.000000) scale(0.100000,-0.100000)"
fill="#000000" stroke="none">
<path d="M985 1419 c-247 -143 -455 -266 -462 -272 -10 -9 -2 -29 33 -89 24
-43 49 -78 55 -78 23 0 18 33 -14 88 l-35 59 436 252 c239 138 436 250 437
249 1 -2 61 -105 133 -230 l131 -228 -92 -53 c-51 -30 -183 -107 -294 -171
-112 -65 -206 -122 -209 -128 -3 -5 -2 -14 4 -20 8 -8 106 44 326 172 174 100
316 185 316 188 0 3 -57 104 -126 224 -70 120 -124 222 -120 225 3 4 10 2 15
-3 13 -14 261 -444 261 -453 0 -4 -109 -70 -242 -147 -275 -159 -288 -167
-271 -185 9 -9 73 23 287 147 152 88 276 165 276 173 0 19 -291 521 -302 521
-5 0 -18 -5 -30 -11 -16 -9 -23 -7 -35 10 -8 12 -17 21 -21 20 -4 0 -209 -117
-457 -260z"/>
<path d="M1002 1358 l-332 -192 6 -34 c5 -26 1 -41 -15 -63 l-22 -30 21 -34
c12 -19 26 -35 31 -35 16 0 21 27 9 49 -8 17 -8 26 5 43 8 13 15 37 15 54 0
30 7 35 307 208 l307 177 34 -17 c19 -9 45 -14 58 -11 21 4 30 -7 85 -105 52
-92 59 -111 48 -124 -7 -9 -15 -34 -18 -56 l-6 -41 -235 -136 c-139 -81 -235
-142 -235 -151 0 -8 8 -14 17 -14 10 1 128 66 263 144 l245 143 -6 34 c-5 27
-2 39 17 59 l24 25 -24 42 c-13 23 -48 84 -78 135 -54 93 -55 94 -87 88 -24
-5 -40 -1 -59 14 -14 11 -29 20 -34 20 -4 0 -158 -87 -341 -192z"/>
<path d="M1380 1317 c-52 -32 -77 -67 -48 -67 23 0 123 64 123 79 0 25 -19 22
-75 -12z"/>
<path d="M1075 1305 c-81 -29 -129 -120 -105 -200 17 -57 78 -112 134 -120
130 -20 231 109 178 226 -23 53 -48 76 -99 95 -48 17 -58 16 -108 -1z m143
-70 c40 -45 49 -92 27 -138 -31 -65 -101 -91 -168 -63 -53 21 -85 91 -68 147
17 58 61 89 126 89 48 0 56 -3 83 -35z"/>
<path d="M1069 1248 c-1 -2 -3 -12 -5 -23 -1 -11 -6 -30 -9 -42 -5 -15 0 -28
15 -43 18 -18 28 -20 63 -14 38 6 40 5 28 -10 -8 -9 -20 -15 -27 -12 -20 8
-37 -19 -21 -32 22 -18 82 -20 83 -2 0 8 4 27 9 43 11 40 -9 59 -59 55 -44 -3
-64 15 -22 20 40 5 41 31 1 48 -32 13 -53 17 -56 12z"/>
<path d="M861 1017 c-57 -34 -72 -53 -48 -63 19 -7 139 64 134 79 -7 22 -31
17 -86 -16z"/>
<path d="M595 955 c-22 -7 -69 -28 -105 -47 -55 -29 -74 -34 -120 -32 -48 2
-65 -3 -127 -38 -40 -22 -73 -45 -73 -53 0 -17 240 -465 248 -465 21 1 167 87
167 98 0 8 8 19 18 26 9 7 17 20 17 29 0 29 32 27 193 -14 118 -30 173 -39
201 -34 44 7 517 256 547 288 46 49 0 147 -69 147 -17 0 -106 -30 -199 -66
-92 -36 -178 -70 -191 -75 -20 -8 -22 -6 -16 16 9 35 -13 83 -45 99 -20 11
-234 81 -396 130 -5 2 -28 -2 -50 -9z m239 -92 c210 -65 229 -77 206 -133 -17
-41 -43 -39 -205 10 -84 26 -133 36 -139 30 -7 -7 -6 -14 2 -22 14 -14 278
-97 310 -98 13 0 122 38 243 85 121 47 228 85 238 85 26 0 53 -34 49 -62 -2
-19 -46 -46 -248 -155 -135 -73 -259 -135 -275 -138 -20 -4 -88 8 -193 35
-111 28 -174 39 -196 34 l-33 -6 -63 119 c-34 65 -71 132 -82 150 l-19 32 88
45 c48 25 97 45 108 46 11 0 105 -25 209 -57z m-355 -207 c88 -164 111 -218
71 -166 -15 20 -22 22 -31 13 -10 -10 -10 -18 -1 -38 18 -39 16 -43 -37 -70
l-49 -25 -108 201 -107 202 24 18 c34 26 82 45 86 33 17 -48 164 -300 177
-302 28 -6 18 22 -59 166 -70 131 -88 169 -66 147 5 -6 50 -86 100 -179z"/>
</g>
</svg>
