<?xml version="1.0" standalone="no"?>
<!DOCTYPE svg PUBLIC "-//W3C//DTD SVG 20010904//EN"
 "http://www.w3.org/TR/2001/REC-SVG-20010904/DTD/svg10.dtd">
<svg version="1.0" xmlns="http://www.w3.org/2000/svg"
 width="200.000000pt" height="200.000000pt" viewBox="0 0 200.000000 200.000000"
 preserveAspectRatio="xMidYMid meet">
<metadata>
Created by potrace 1.16, written by Peter Selinger 2001-2019
</metadata>
<g transform="translate(0.000000,200.000000) scale(0.100000,-0.100000)"
fill="#000000" stroke="none">
<path d="M895 1818 c-11 -6 -34 -24 -50 -39 l-31 -29 -39 20 c-46 24 -93 25
-140 6 -63 -27 -73 -88 -24 -154 27 -37 29 -43 15 -57 -24 -24 -28 -52 -12
-83 15 -29 15 -30 -25 -58 -131 -90 -197 -295 -137 -426 33 -71 75 -118 140
-154 51 -28 58 -29 206 -32 137 -3 152 -6 152 -21 0 -10 8 -25 18 -34 16 -15
47 -17 231 -17 127 0 220 4 232 10 15 9 19 22 19 70 l0 60 34 0 c50 0 66 21
66 85 0 60 -21 85 -72 85 -27 0 -28 2 -28 54 0 80 -10 86 -135 86 l-103 0 -12
38 c-25 75 -79 148 -152 202 -32 24 -36 29 -23 40 22 18 18 70 -6 96 l-21 23
41 57 c57 80 54 136 -9 169 -34 17 -106 19 -135 3z m130 -34 c36 -24 31 -59
-17 -131 l-43 -63 -140 0 -139 0 -38 37 c-105 102 39 190 148 91 22 -19 22
-19 50 17 15 20 39 42 53 50 35 19 96 19 126 -1z m-27 -236 c19 -19 14 -56 -8
-68 -12 -6 -80 -9 -176 -8 -145 3 -158 5 -170 23 -12 18 -11 24 2 43 15 21 21
22 178 22 113 0 166 -4 174 -12z m23 -136 c70 -45 130 -122 153 -199 7 -22 5
-23 -53 -23 l-60 0 -24 54 c-53 116 -200 170 -314 115 -160 -78 -188 -286 -53
-401 99 -85 258 -72 338 28 15 19 30 34 35 34 4 0 7 -25 7 -55 l0 -55 -32 0
c-36 0 -68 -24 -68 -52 0 -19 -7 -20 -147 -16 -142 3 -150 4 -201 32 -58 33
-112 97 -132 160 -31 95 8 240 86 320 78 81 91 85 265 85 154 1 156 1 200 -27z
m-79 -99 c24 -17 53 -51 66 -74 l23 -44 -23 -3 c-42 -7 -58 -31 -58 -88 0 -42
5 -58 22 -73 18 -18 19 -22 7 -37 -24 -29 -111 -64 -159 -64 -135 1 -236 136
-200 266 28 99 111 157 217 151 51 -2 70 -9 105 -34z m476 -211 l3 -52 -218 2
-218 3 -3 39 c-6 69 -15 67 220 64 l213 -3 3 -53z m97 -137 l0 -50 -217 -3
-218 -2 0 48 c0 27 3 52 7 56 4 3 102 5 217 4 l211 -3 0 -50z m-97 -143 l3
-52 -218 2 -218 3 -3 39 c-6 69 -15 67 220 64 l213 -3 3 -53z"/>
<path d="M810 1277 c0 -7 -13 -23 -30 -35 -57 -42 -34 -103 45 -120 43 -8 56
-31 35 -57 -16 -20 -49 -19 -72 2 -13 12 -22 13 -29 6 -8 -8 -2 -18 20 -34 17
-12 31 -29 31 -36 0 -7 7 -13 15 -13 8 0 15 7 15 15 0 8 5 15 10 15 20 0 50
41 50 68 0 36 -25 59 -76 70 -32 6 -39 12 -39 31 0 37 29 50 67 28 44 -25 59
-6 19 24 -17 12 -31 29 -31 36 0 7 -7 13 -15 13 -8 0 -15 -6 -15 -13z"/>
<path d="M1342 1812 c-56 -20 -69 -28 -59 -38 3 -4 35 1 70 11 110 30 205 -2
273 -92 37 -48 59 -133 48 -187 -7 -42 -17 -45 -32 -11 -12 27 -32 34 -32 11
0 -16 39 -106 46 -106 14 0 104 52 104 60 0 13 -26 13 -50 0 -16 -9 -17 -6 -8
33 45 198 -168 386 -360 319z"/>
<path d="M1410 1703 c-1 -10 -15 -27 -33 -38 -45 -28 -50 -83 -11 -114 15 -11
38 -21 51 -21 54 0 83 -46 51 -78 -17 -17 -68 -15 -89 4 -10 9 -23 13 -29 9
-14 -8 26 -55 47 -55 7 0 13 -9 13 -19 0 -30 19 -35 29 -7 6 13 20 27 31 31
25 8 50 59 42 87 -7 28 -51 58 -86 58 -38 0 -56 15 -56 47 0 39 74 60 100 28
14 -17 40 -20 40 -5 0 13 -41 50 -57 50 -7 0 -13 9 -13 20 0 25 -30 27 -30 3z"/>
<path d="M1137 1664 c-27 -14 -46 -30 -44 -37 5 -13 11 -13 40 -2 16 7 17 2
11 -47 -22 -188 155 -350 339 -309 57 12 97 34 85 47 -4 4 -34 -1 -66 -10 -79
-22 -118 -20 -178 8 -103 48 -167 165 -147 270 l10 51 14 -32 c13 -31 39 -46
39 -22 0 16 -42 109 -49 109 -3 -1 -28 -12 -54 -26z"/>
<path d="M297 840 c-55 -17 -56 -23 -57 -308 l0 -263 25 -24 c22 -23 31 -25
117 -25 103 1 122 8 139 59 8 22 17 31 33 31 38 0 127 -30 206 -70 115 -57
171 -73 250 -68 60 3 76 9 146 52 44 27 149 92 234 143 85 52 162 101 170 109
25 24 18 83 -14 110 -15 13 -35 24 -45 24 -15 0 -230 -86 -393 -158 l-48 -21
-82 39 -82 40 88 0 c119 0 155 21 156 91 0 26 -7 42 -26 60 -24 22 -35 24
-147 27 -107 3 -129 7 -176 30 -40 19 -81 28 -158 36 -95 9 -104 12 -109 32
-11 43 -39 57 -122 60 -42 2 -90 -1 -105 -6z m193 -56 c6 -14 10 -130 10 -257
0 -288 5 -277 -115 -277 -63 0 -88 4 -99 16 -14 13 -16 52 -16 268 0 183 3
255 12 264 8 8 46 12 105 12 91 0 94 -1 103 -26z m178 -64 c35 -5 93 -22 129
-39 61 -29 73 -31 177 -31 121 0 136 -6 136 -51 0 -48 -29 -59 -162 -59 -65 0
-118 -4 -118 -9 0 -10 212 -131 229 -131 6 0 105 41 221 91 138 59 218 88 230
84 25 -8 43 -40 35 -64 -3 -10 -79 -63 -168 -117 -89 -54 -187 -114 -217 -134
-130 -86 -195 -83 -427 24 -56 26 -124 49 -152 53 l-51 6 0 193 0 194 38 0
c20 0 65 -5 100 -10z"/>
<path d="M354 365 c-10 -25 4 -45 30 -45 25 0 39 20 30 45 -4 8 -17 15 -30 15
-14 0 -27 -7 -30 -15z"/>
</g>
</svg>
