<?xml version="1.0" standalone="no"?>
<!DOCTYPE svg PUBLIC "-//W3C//DTD SVG 20010904//EN"
 "http://www.w3.org/TR/2001/REC-SVG-20010904/DTD/svg10.dtd">
<svg version="1.0" xmlns="http://www.w3.org/2000/svg"
 width="200.000000pt" height="200.000000pt" viewBox="0 0 200.000000 200.000000"
 preserveAspectRatio="xMidYMid meet">
<metadata>
Created by potrace 1.16, written by Peter Selinger 2001-2019
</metadata>
<g transform="translate(0.000000,200.000000) scale(0.100000,-0.100000)"
fill="#000000" stroke="none">
<path d="M636 1929 c-28 -4 -82 -24 -122 -43 -229 -114 -303 -406 -154 -613
37 -51 75 -134 84 -184 8 -44 31 -68 48 -51 8 8 76 12 222 12 l211 0 -3 -85
-3 -84 -106 -3 c-90 -3 -108 -6 -117 -21 -19 -32 16 -47 111 -47 83 0 83 0 83
-26 0 -14 -7 -41 -16 -60 -19 -40 -13 -64 16 -64 25 0 59 67 60 115 0 18 8 38
20 48 18 15 20 29 20 136 0 142 18 210 79 304 50 78 70 125 82 196 34 208
-126 424 -349 470 -59 12 -94 12 -166 0z m246 -92 c119 -58 200 -176 206 -302
5 -93 -7 -133 -72 -241 -30 -49 -60 -108 -67 -131 l-12 -43 -218 0 -217 0 -16
48 c-9 27 -39 84 -67 128 -58 93 -72 136 -72 224 0 149 88 270 241 331 74 30
218 23 294 -14z"/>
<path d="M692 1738 c-7 -7 -12 -27 -12 -45 0 -25 -4 -33 -18 -33 -25 0 -60
-40 -68 -77 -7 -35 18 -97 44 -109 9 -4 44 -10 77 -13 53 -5 60 -9 63 -30 5
-34 -9 -43 -80 -50 -59 -6 -63 -8 -63 -31 0 -19 6 -26 25 -29 29 -4 40 -17 40
-47 0 -26 27 -39 46 -23 8 6 14 27 14 45 0 26 4 34 18 34 24 0 49 27 63 68 9
26 8 38 -8 69 -22 47 -53 63 -119 63 -56 0 -73 15 -54 50 7 14 27 20 74 25 44
5 67 12 71 22 8 22 -13 43 -41 43 -20 0 -24 5 -24 28 0 26 -15 52 -30 52 -3 0
-11 -5 -18 -12z"/>
<path d="M1232 1678 c-18 -18 -15 -36 7 -48 12 -6 98 -10 211 -10 l191 0 -3
-67 -3 -68 -172 -3 c-146 -2 -172 -5 -177 -18 -16 -41 3 -44 300 -44 l284 0 0
-615 0 -615 -545 0 -545 0 0 34 c0 37 -21 62 -45 52 -22 -8 -22 -141 1 -150
28 -11 1164 -7 1185 4 18 10 19 28 19 668 0 499 -3 661 -12 670 -8 8 -49 12
-120 12 l-108 0 0 93 c0 59 -4 97 -12 105 -17 17 -439 17 -456 0z"/>
<path d="M1230 1343 c-26 -10 -30 -26 -30 -125 0 -75 4 -100 16 -112 13 -14
49 -16 234 -16 120 0 225 3 234 6 13 5 16 25 16 120 0 102 -2 114 -19 124 -21
10 -423 13 -451 3z m410 -123 l0 -60 -185 0 -185 0 0 60 0 60 185 0 185 0 0
-60z"/>
<path d="M463 976 c-27 -23 -28 -28 -33 -141 l-5 -118 -155 -38 c-212 -52
-216 -57 -208 -287 3 -105 8 -134 26 -168 34 -66 69 -101 130 -131 51 -25 67
-28 152 -27 102 0 143 12 203 58 44 34 86 112 97 182 9 51 16 63 75 124 56 58
65 73 65 104 0 82 -88 114 -153 56 -19 -16 -37 -30 -41 -30 -3 0 -6 86 -6 191
l0 191 -29 29 c-37 36 -79 38 -118 5z m75 -48 c9 -9 12 -76 12 -238 0 -286 1
-289 105 -189 42 40 70 59 80 56 26 -11 17 -31 -41 -87 -68 -67 -73 -76 -85
-153 -12 -75 -36 -115 -91 -153 -37 -26 -50 -29 -138 -32 -104 -4 -138 5 -188
52 -53 47 -62 84 -62 240 0 131 2 146 18 155 10 5 83 26 163 46 79 20 152 44
162 52 14 14 17 34 17 128 0 102 7 135 30 135 3 0 11 -5 18 -12z"/>
<path d="M1072 988 c-17 -17 -17 -339 0 -356 18 -18 212 -16 227 2 8 9 11 68
9 187 l-3 174 -110 3 c-77 2 -114 -1 -123 -10z m178 -173 l0 -125 -65 0 -65 0
0 118 c0 65 3 122 7 125 3 4 33 7 65 7 l58 0 0 -125z"/>
<path d="M1381 952 c-21 -39 -4 -43 215 -40 l209 3 0 25 0 25 -207 3 c-192 2
-208 1 -217 -16z"/>
<path d="M1384 735 c-4 -8 -4 -22 0 -30 5 -13 35 -15 213 -13 l208 3 0 25 0
25 -208 3 c-178 2 -208 0 -213 -13z"/>
<path d="M1041 516 c-6 -7 -9 -21 -5 -30 6 -15 41 -16 373 -14 l366 3 0 25 0
25 -361 3 c-298 2 -363 0 -373 -12z"/>
<path d="M1206 367 c-10 -7 -16 -22 -14 -33 3 -18 14 -19 213 -19 199 0 210 1
213 19 8 40 -21 46 -213 46 -134 0 -186 -3 -199 -13z"/>
</g>
</svg>
