<?xml version="1.0" standalone="no"?>
<!DOCTYPE svg PUBLIC "-//W3C//DTD SVG 20010904//EN"
 "http://www.w3.org/TR/2001/REC-SVG-20010904/DTD/svg10.dtd">
<svg version="1.0" xmlns="http://www.w3.org/2000/svg"
 width="200.000000pt" height="200.000000pt" viewBox="0 0 200.000000 200.000000"
 preserveAspectRatio="xMidYMid meet">
<metadata>
Created by potrace 1.16, written by Peter Selinger 2001-2019
</metadata>
<g transform="translate(0.000000,200.000000) scale(0.100000,-0.100000)"
fill="#000000" stroke="none">
<path d="M475 1912 c-319 -111 -341 -538 -35 -692 60 -31 185 -39 261 -17 203
60 316 290 239 492 -34 89 -132 184 -219 213 -79 27 -176 28 -246 4z m248 -74
c64 -28 138 -110 160 -178 49 -153 -11 -304 -150 -372 -59 -29 -77 -33 -143
-33 -130 1 -222 62 -278 184 -61 134 -9 305 115 378 96 56 196 63 296 21z"/>
<path d="M572 1808 c-7 -7 -12 -25 -12 -40 0 -22 -5 -28 -20 -28 -29 0 -78
-27 -90 -49 -14 -27 -12 -92 3 -111 30 -39 61 -50 139 -50 68 0 79 -2 88 -21
9 -16 8 -25 -6 -40 -15 -16 -31 -19 -114 -19 -78 0 -99 -3 -104 -15 -12 -31 5
-45 54 -45 47 0 49 -1 52 -31 4 -43 34 -61 54 -35 8 11 14 30 14 43 0 18 6 23
26 23 16 0 39 13 61 35 32 32 35 40 30 76 -9 72 -56 99 -168 99 -64 0 -91 19
-72 48 8 14 31 18 112 22 108 5 129 16 110 52 -7 13 -22 18 -54 18 -41 0 -45
2 -45 24 0 23 -23 56 -39 56 -4 0 -12 -5 -19 -12z"/>
<path d="M1040 1170 l-345 -200 -209 0 c-243 0 -274 -8 -315 -80 -21 -39 -22
-44 -19 -382 3 -337 3 -344 25 -374 48 -67 14 -64 822 -64 714 0 733 0 771 20
26 13 47 34 60 60 20 39 21 55 18 380 -3 324 -4 340 -24 366 -33 45 -68 65
-124 72 l-52 7 -113 195 c-77 134 -119 196 -131 197 -11 1 -174 -87 -364 -197z
m443 -39 c49 -84 87 -155 84 -157 -2 -2 -168 -3 -370 -2 l-365 3 271 157 c150
86 276 156 282 154 5 -1 50 -71 98 -155z m106 -733 c14 -25 14 -29 -5 -55
l-21 -28 -141 -3 c-131 -2 -143 -1 -162 18 -24 24 -26 57 -3 82 15 17 31 18
167 16 l150 -3 15 -27z"/>
</g>
</svg>
