<?xml version="1.0" standalone="no"?>
<!DOCTYPE svg PUBLIC "-//W3C//DTD SVG 20010904//EN"
 "http://www.w3.org/TR/2001/REC-SVG-20010904/DTD/svg10.dtd">
<svg version="1.0" xmlns="http://www.w3.org/2000/svg"
 width="200.000000pt" height="200.000000pt" viewBox="0 0 200.000000 200.000000"
 preserveAspectRatio="xMidYMid meet">
<metadata>
Created by potrace 1.16, written by Peter Selinger 2001-2019
</metadata>
<g transform="translate(0.000000,200.000000) scale(0.100000,-0.100000)"
fill="#000000" stroke="none">
<path d="M827 1819 c-62 -15 -124 -66 -153 -126 -23 -47 -26 -62 -22 -128 l5
-74 -41 -27 c-245 -163 -308 -445 -147 -658 l49 -64 -45 15 c-69 24 -215 14
-273 -17 -69 -38 -71 -47 -68 -279 l3 -203 33 -28 c45 -37 94 -50 194 -50 102
0 168 20 203 62 22 26 25 38 25 114 l0 84 109 0 c106 0 110 1 130 26 13 16 21
41 21 63 l0 36 150 0 150 0 0 -37 c0 -24 8 -46 23 -64 21 -24 32 -28 104 -32
48 -3 95 0 117 8 31 10 39 9 63 -8 47 -32 115 -45 210 -40 153 8 203 51 203
175 0 74 -15 102 -69 132 -74 41 -235 44 -323 6 -29 -12 -20 9 22 54 23 24 54
66 71 96 28 49 32 53 75 58 29 3 54 13 68 26 20 20 21 31 21 180 0 198 -2 201
-111 201 l-72 0 -66 66 -66 66 0 68 c0 82 -12 118 -42 129 -29 11 -49 1 -112
-56 -49 -44 -60 -48 -115 -37 -23 5 -31 12 -31 28 0 43 -30 121 -60 158 -52
63 -153 97 -233 77z m113 -49 c45 -12 105 -71 121 -117 16 -50 7 -134 -19
-170 -19 -27 -30 -32 -82 -38 -34 -4 -83 -13 -109 -20 -44 -11 -52 -11 -79 7
-41 26 -71 75 -78 130 -19 138 109 246 246 208z m430 -250 c0 -89 0 -90 33
-117 17 -15 52 -49 77 -75 l45 -47 80 -3 80 -3 0 -155 0 -155 -55 -3 -55 -3
-33 -63 c-18 -35 -55 -86 -83 -113 l-49 -48 0 -115 c0 -77 -4 -120 -12 -128
-13 -13 -153 -17 -182 -6 -12 5 -16 20 -16 58 0 78 -2 79 -111 67 -86 -11
-241 -2 -257 14 -3 3 -11 0 -19 -6 -8 -7 -13 -33 -13 -69 0 -44 -4 -59 -16
-64 -29 -11 -169 -7 -182 6 -8 8 -12 51 -12 126 l0 114 -49 54 c-180 197 -149
460 74 619 l65 47 35 -30 34 -31 -35 -20 c-24 -14 -34 -27 -32 -39 5 -21 2
-21 113 25 l90 38 148 0 c132 0 147 2 147 17 0 13 -12 19 -50 24 -27 4 -50 10
-50 14 0 20 34 71 45 66 7 -2 33 -7 57 -11 44 -7 47 -6 108 49 34 31 66 56 71
56 5 0 9 -40 9 -90z m-867 -821 c46 -24 46 -45 -3 -73 -29 -18 -52 -21 -140
-21 -88 0 -111 3 -140 21 -46 27 -49 49 -10 69 75 39 220 41 293 4z m1274 -36
c51 -25 51 -52 -2 -78 -81 -40 -292 -20 -312 30 -24 63 211 99 314 48z m-1551
-90 c53 -23 212 -23 272 0 l43 17 -3 -38 c-5 -56 -53 -77 -178 -77 -125 0
-173 21 -178 78 -2 20 -1 37 1 37 3 0 22 -8 43 -17z m1594 -54 c0 -38 -2 -41
-47 -62 -68 -30 -210 -30 -270 2 -38 19 -43 25 -43 56 0 19 3 35 6 35 3 0 28
-7 55 -16 64 -21 220 -16 264 9 17 9 31 16 33 17 1 0 2 -18 2 -41z m-1589 -75
c28 -10 76 -16 129 -16 53 0 101 6 129 16 24 9 45 16 48 16 2 0 3 -17 1 -37
-5 -57 -53 -78 -178 -78 -125 0 -173 21 -178 78 -2 20 -1 37 1 37 3 0 24 -7
48 -16z m106 -142 c68 -3 106 0 142 12 64 21 63 21 59 -16 -5 -51 -58 -73
-178 -73 -126 0 -173 21 -178 78 l-3 38 33 -17 c22 -12 64 -19 125 -22z"/>
<path d="M1300 1310 c-25 -25 -26 -62 -2 -83 54 -49 127 19 81 76 -24 32 -52
34 -79 7z m50 -40 c0 -5 -7 -10 -16 -10 -8 0 -12 5 -9 10 3 6 10 10 16 10 5 0
9 -4 9 -10z"/>
</g>
</svg>
