<?xml version="1.0" standalone="no"?>
<!DOCTYPE svg PUBLIC "-//W3C//DTD SVG 20010904//EN"
 "http://www.w3.org/TR/2001/REC-SVG-20010904/DTD/svg10.dtd">
<svg version="1.0" xmlns="http://www.w3.org/2000/svg"
 width="200.000000pt" height="200.000000pt" viewBox="0 0 200.000000 200.000000"
 preserveAspectRatio="xMidYMid meet">
<metadata>
Created by potrace 1.16, written by Peter Selinger 2001-2019
</metadata>
<g transform="translate(0.000000,200.000000) scale(0.100000,-0.100000)"
fill="#000000" stroke="none">
<path d="M635 1690 l-69 -70 -81 0 c-49 0 -88 -5 -98 -12 -16 -12 -17 -62 -15
-688 l3 -675 552 -3 553 -2 0 70 0 70 63 0 c36 0 68 5 75 12 17 17 17 1339 0
1356 -9 9 -126 12 -463 12 l-451 0 -69 -70z m955 -621 l0 -650 -52 3 -53 3 -3
506 -2 505 -94 92 -93 92 -339 0 -338 0 49 50 49 50 438 0 438 0 0 -651z
m-318 424 l3 -88 88 -3 87 -3 0 -559 0 -560 -520 0 -520 0 0 650 0 650 430 0
429 0 3 -87z m138 -45 c0 -4 -22 -8 -50 -8 l-50 0 0 57 0 57 50 -49 c28 -27
50 -53 50 -57z"/>
<path d="M665 1530 c-79 -17 -135 -71 -155 -151 -30 -119 66 -239 191 -239 59
0 96 13 132 48 96 90 87 239 -18 310 -37 26 -108 41 -150 32z m105 -52 c61
-31 90 -77 90 -142 0 -93 -62 -156 -153 -156 -56 0 -95 18 -130 60 -62 73 -36
190 52 237 55 29 85 29 141 1z"/>
<path d="M671 1428 c-17 -23 -31 -47 -31 -53 0 -21 30 -54 52 -57 30 -4 37
-38 9 -38 -12 0 -21 6 -21 15 0 17 -26 20 -35 4 -6 -9 38 -83 57 -95 4 -3 11
3 15 13 3 10 14 26 25 36 35 34 17 91 -32 102 -33 7 -40 29 -13 39 15 6 32 -8
33 -26 0 -5 7 -8 15 -8 22 0 19 36 -5 60 -11 11 -20 24 -20 29 0 26 -21 17
-49 -21z"/>
<path d="M962 1491 c-9 -5 -12 -25 -10 -62 l3 -54 135 0 135 0 3 54 c2 37 -1
57 -10 62 -7 5 -65 9 -128 9 -63 0 -121 -4 -128 -9z m228 -61 c0 -19 -7 -20
-100 -20 -93 0 -100 1 -100 20 0 19 7 20 100 20 93 0 100 -1 100 -20z"/>
<path d="M945 1299 c-16 -25 18 -29 201 -27 160 3 189 5 189 18 0 13 -29 15
-192 18 -132 2 -194 -1 -198 -9z"/>
<path d="M944 1199 c-13 -22 16 -30 107 -27 80 3 94 6 97 21 3 15 -7 17 -97
17 -61 0 -102 -4 -107 -11z"/>
<path d="M1245 1178 c-34 -20 -46 -41 -41 -79 3 -34 -1 -42 -58 -98 -49 -48
-66 -59 -84 -55 -12 4 -35 1 -51 -5 -25 -11 -34 -9 -75 16 -33 20 -46 34 -46
51 0 80 -101 106 -146 37 -9 -14 -14 -36 -12 -50 4 -20 -5 -32 -52 -69 -40
-32 -60 -42 -71 -35 -45 28 -109 -15 -109 -74 0 -66 78 -101 131 -58 17 14 24
29 24 58 0 35 5 43 50 79 43 34 55 39 93 36 23 -2 49 1 57 8 12 10 24 6 62
-17 39 -24 49 -36 51 -61 4 -38 43 -72 82 -72 41 0 82 52 75 94 -5 28 0 37 55
91 53 53 64 59 95 57 26 -3 41 3 60 22 40 41 31 96 -22 124 -27 15 -42 15 -68
0z m65 -42 c6 -8 10 -25 8 -38 -2 -19 -9 -23 -38 -23 -29 0 -36 4 -38 23 -4
28 14 52 38 52 10 0 23 -7 30 -14z m-470 -100 c6 -8 10 -25 8 -38 -2 -18 -10
-24 -35 -26 -28 -3 -33 1 -39 23 -11 45 37 75 66 41z m244 -148 c15 -24 -3
-52 -37 -56 -33 -4 -53 28 -37 59 14 25 58 23 74 -3z m-470 -50 c16 -26 -4
-53 -40 -53 -23 0 -30 5 -32 23 -7 47 47 69 72 30z"/>
<path d="M1207 874 c-4 -4 -7 -108 -7 -231 l0 -223 80 0 80 0 -2 228 -3 227
-70 3 c-39 1 -74 0 -78 -4z m113 -224 l0 -190 -40 0 -40 0 0 190 0 190 40 0
40 0 0 -190z"/>
<path d="M737 803 c-4 -3 -7 -91 -7 -195 l0 -188 80 0 80 0 0 195 0 195 -73 0
c-41 0 -77 -3 -80 -7z m113 -188 l0 -155 -40 0 -40 0 0 155 0 155 40 0 40 0 0
-155z"/>
<path d="M976 704 c-13 -12 -16 -40 -16 -139 0 -146 5 -155 81 -155 88 0 89 1
89 153 0 90 -4 137 -12 145 -18 18 -123 15 -142 -4z m114 -139 l0 -105 -45 0
-45 0 0 105 0 105 45 0 45 0 0 -105z"/>
<path d="M500 550 l0 -130 80 0 81 0 -3 128 -3 127 -77 3 -78 3 0 -131z m120
0 l0 -90 -45 0 -45 0 0 90 0 90 45 0 45 0 0 -90z"/>
</g>
</svg>
