<?xml version="1.0" standalone="no"?>
<!DOCTYPE svg PUBLIC "-//W3C//DTD SVG 20010904//EN"
 "http://www.w3.org/TR/2001/REC-SVG-20010904/DTD/svg10.dtd">
<svg version="1.0" xmlns="http://www.w3.org/2000/svg"
 width="200.000000pt" height="200.000000pt" viewBox="0 0 200.000000 200.000000"
 preserveAspectRatio="xMidYMid meet">
<metadata>
Created by potrace 1.16, written by Peter Selinger 2001-2019
</metadata>
<g transform="translate(0.000000,200.000000) scale(0.100000,-0.100000)"
fill="#000000" stroke="none">
<path d="M652 1705 l-57 -55 358 0 358 0 99 -97 100 -98 0 -532 0 -533 55 0
55 0 -2 682 -3 683 -453 3 -454 2 -56 -55z"/>
<path d="M382 928 l3 -683 540 0 540 0 0 590 0 590 -87 3 -87 3 -3 87 -3 87
-453 3 -452 2 2 -682z m394 613 c86 -39 139 -149 115 -239 -13 -48 -69 -115
-115 -139 -17 -9 -56 -17 -86 -17 -152 -2 -255 159 -190 297 22 47 81 98 125
110 44 11 112 6 151 -12z m459 -86 l0 -60 -139 -3 c-154 -3 -156 -2 -156 60 0
70 -3 69 154 66 l141 -3 0 -60z m120 -145 c0 -13 -31 -15 -207 -18 -170 -2
-208 0 -208 11 0 8 3 17 7 21 4 3 97 5 207 4 171 -3 201 -5 201 -18z m-200
-110 c0 -12 -20 -16 -107 -18 -103 -3 -108 -2 -108 18 0 20 5 21 108 18 87 -2
107 -6 107 -18z m203 -36 c31 -35 28 -70 -8 -106 -25 -24 -37 -29 -65 -26 -31
4 -41 -2 -97 -59 -58 -58 -62 -66 -59 -103 2 -31 -3 -45 -23 -65 -50 -50 -134
-19 -139 51 -2 23 -13 36 -51 61 -48 30 -50 31 -82 15 -27 -12 -38 -13 -59 -4
-24 11 -31 9 -81 -34 -45 -39 -54 -52 -54 -79 0 -79 -90 -116 -147 -59 -21 21
-24 32 -19 62 8 52 39 74 96 70 40 -3 51 2 97 37 46 36 52 44 53 78 0 78 89
117 140 62 12 -13 23 -38 24 -54 1 -25 10 -34 52 -59 47 -27 53 -28 78 -15 17
9 39 12 54 8 21 -5 34 3 87 55 60 60 62 63 58 104 -5 38 -2 45 28 70 39 34 82
30 117 -10z m17 -534 l0 -235 -82 -3 -83 -3 0 241 0 241 83 -3 82 -3 0 -235z
m-490 -35 l0 -200 -82 -3 -83 -3 0 206 0 206 83 -3 82 -3 0 -200z m245 -50 l0
-156 -82 3 -83 3 -3 140 c-1 76 0 145 2 152 4 9 29 13 86 13 l80 0 0 -155z
m-490 -20 l0 -136 -82 3 -83 3 -3 119 c-1 66 0 126 2 133 4 9 29 13 86 13 l80
0 0 -135z"/>
<path d="M630 1513 c-69 -26 -115 -101 -107 -176 7 -76 60 -133 137 -147 56
-10 102 4 144 43 84 80 61 217 -46 273 -27 14 -99 18 -128 7z m77 -40 c3 -10
14 -26 25 -36 10 -10 18 -27 18 -37 0 -27 -36 -26 -43 1 -7 26 -32 20 -32 -7
0 -12 8 -20 22 -22 26 -4 53 -37 53 -65 0 -10 -12 -34 -27 -53 -28 -34 -53
-45 -53 -21 0 7 -9 20 -20 30 -23 20 -27 67 -6 67 8 0 18 -9 21 -21 4 -11 14
-19 23 -17 29 6 23 27 -12 42 -55 23 -68 82 -25 109 11 7 19 20 19 29 0 23 29
23 37 1z"/>
<path d="M980 1455 l0 -25 110 0 110 0 0 25 0 25 -110 0 -110 0 0 -25z"/>
<path d="M1266 1144 c-31 -31 -13 -74 31 -74 21 0 43 25 43 49 0 14 -29 41
-45 41 -7 0 -21 -7 -29 -16z"/>
<path d="M772 1038 c-19 -19 -14 -56 8 -68 38 -21 80 22 60 61 -12 21 -50 25
-68 7z"/>
<path d="M1015 886 c-21 -31 -5 -66 28 -66 46 0 66 59 28 80 -29 15 -39 13
-56 -14z"/>
<path d="M522 838 c-28 -28 -3 -72 39 -66 30 4 47 33 33 56 -14 21 -55 27 -72
10z"/>
<path d="M1250 636 l0 -206 45 0 45 0 -2 203 -3 202 -42 3 -43 3 0 -205z"/>
<path d="M760 595 l0 -165 45 0 45 0 0 165 0 165 -45 0 -45 0 0 -165z"/>
<path d="M1000 545 l0 -115 45 0 45 0 0 115 0 115 -45 0 -45 0 0 -115z"/>
<path d="M510 525 l0 -95 45 0 45 0 0 95 0 95 -45 0 -45 0 0 -95z"/>
<path d="M1330 1517 l0 -57 50 0 c28 0 50 4 50 8 0 4 -22 30 -50 57 l-50 49 0
-57z"/>
</g>
</svg>
