<?xml version="1.0" standalone="no"?>
<!DOCTYPE svg PUBLIC "-//W3C//DTD SVG 20010904//EN"
 "http://www.w3.org/TR/2001/REC-SVG-20010904/DTD/svg10.dtd">
<svg version="1.0" xmlns="http://www.w3.org/2000/svg"
 width="200.000000pt" height="200.000000pt" viewBox="0 0 200.000000 200.000000"
 preserveAspectRatio="xMidYMid meet">
<metadata>
Created by potrace 1.16, written by Peter Selinger 2001-2019
</metadata>
<g transform="translate(0.000000,200.000000) scale(0.100000,-0.100000)"
fill="#000000" stroke="none">
<path d="M1433 1905 c-138 -30 -265 -132 -325 -262 -27 -57 -33 -82 -36 -161
-7 -158 41 -279 152 -380 47 -43 156 -102 189 -102 15 0 17 -12 17 -113 0 -65
-4 -117 -10 -123 -7 -7 -10 -111 -8 -307 3 -282 4 -297 24 -324 11 -15 40 -35
63 -43 39 -14 44 -13 78 5 75 41 74 35 73 371 0 190 -4 300 -10 302 -6 2 -10
49 -10 114 0 102 1 110 20 115 62 16 163 76 213 126 222 222 160 599 -121 741
-67 34 -157 57 -216 55 -17 0 -59 -7 -93 -14z m278 -82 c244 -121 310 -437
133 -642 -139 -161 -377 -188 -558 -63 -59 40 -123 133 -147 214 -58 189 28
395 202 484 80 40 95 43 204 41 91 -2 107 -5 166 -34z m-131 -943 l0 -100 -45
0 -45 0 0 100 0 100 45 0 45 0 0 -100z m20 -320 l0 -160 -70 0 -70 0 0 160 0
160 70 0 70 0 0 -160z m0 -300 c0 -91 -17 -120 -68 -120 -48 0 -66 31 -71 121
l-3 79 71 0 71 0 0 -80z"/>
<path d="M1406 1766 c-85 -36 -139 -88 -183 -176 -35 -69 -38 -175 -9 -260 27
-77 119 -168 201 -199 162 -61 348 17 427 178 32 65 33 215 2 281 -32 67 -97
135 -161 166 -82 40 -195 44 -277 10z m255 -62 c166 -84 209 -300 87 -439 -89
-100 -224 -129 -341 -71 -66 32 -130 104 -147 164 -15 55 -12 157 5 199 65
155 247 223 396 147z"/>
<path d="M1517 1703 c-4 -3 -7 -14 -7 -24 0 -10 -13 -25 -29 -34 -42 -21 -61
-53 -61 -101 0 -46 33 -97 70 -109 17 -5 20 -16 20 -72 0 -65 0 -66 -20 -48
-11 10 -20 26 -20 35 0 22 -25 44 -40 35 -16 -10 -12 -63 6 -91 10 -14 30 -32
45 -40 17 -8 29 -23 29 -34 0 -10 5 -22 10 -25 15 -9 40 14 40 36 0 10 8 20
18 23 41 13 67 55 67 106 0 51 -26 93 -67 106 -15 4 -18 16 -18 71 0 56 2 64
14 54 8 -7 18 -26 21 -42 5 -24 12 -29 28 -27 12 2 23 11 25 20 6 29 -28 86
-59 100 -16 7 -29 20 -29 28 0 27 -28 48 -43 33z m-12 -212 c-10 -9 -35 29
-35 53 0 11 8 28 18 39 16 19 17 18 20 -33 2 -29 0 -55 -3 -59z m85 -107 c6
-15 6 -34 0 -49 -16 -42 -30 -28 -30 31 0 57 13 65 30 18z"/>
<path d="M7 1473 c-4 -3 -7 -316 -7 -694 0 -617 2 -687 16 -693 9 -3 248 -6
533 -6 389 0 520 3 529 12 9 9 12 143 12 540 l0 528 -146 160 -146 160 -392 0
c-216 0 -396 -3 -399 -7z m743 -182 c0 -114 3 -143 16 -155 12 -13 40 -16 140
-16 l124 0 0 -490 0 -490 -490 0 -490 0 0 645 0 645 350 0 350 0 0 -139z m230
-93 c10 -17 4 -18 -80 -18 l-90 0 0 103 0 102 80 -85 c44 -47 85 -93 90 -102z"/>
<path d="M177 1334 c-4 -4 -7 -16 -7 -26 0 -17 14 -18 236 -18 l235 0 -3 23
c-3 22 -3 22 -229 25 -124 1 -228 -1 -232 -4z"/>
<path d="M187 1163 c-12 -3 -17 -12 -15 -26 3 -22 5 -22 233 -22 227 0 230 0
233 21 2 15 -4 23 -20 28 -26 7 -404 6 -431 -1z"/>
<path d="M177 983 c-15 -14 -6 -41 16 -47 12 -3 173 -6 358 -6 352 0 381 3
366 44 -6 14 -42 16 -370 16 -200 0 -367 -3 -370 -7z"/>
<path d="M173 794 c-3 -8 -1 -20 4 -25 5 -5 154 -8 374 -7 356 3 364 3 364 23
0 20 -8 20 -368 23 -327 2 -368 1 -374 -14z"/>
<path d="M177 633 c-15 -14 -6 -41 16 -47 12 -3 173 -6 358 -6 271 0 339 3
354 14 16 12 17 16 6 30 -12 14 -55 16 -371 16 -196 0 -360 -3 -363 -7z"/>
<path d="M173 444 c-3 -8 -1 -20 4 -25 5 -5 154 -8 374 -7 356 3 364 3 364 23
0 20 -8 20 -368 23 -327 2 -368 1 -374 -14z"/>
<path d="M177 283 c-13 -12 -7 -41 9 -47 9 -3 172 -6 364 -6 297 0 349 2 360
15 10 12 10 18 0 30 -11 13 -64 15 -370 15 -196 0 -360 -3 -363 -7z"/>
</g>
</svg>
