<?xml version="1.0" standalone="no"?>
<!DOCTYPE svg PUBLIC "-//W3C//DTD SVG 20010904//EN"
 "http://www.w3.org/TR/2001/REC-SVG-20010904/DTD/svg10.dtd">
<svg version="1.0" xmlns="http://www.w3.org/2000/svg"
 width="200.000000pt" height="200.000000pt" viewBox="0 0 200.000000 200.000000"
 preserveAspectRatio="xMidYMid meet">
<metadata>
Created by potrace 1.16, written by Peter Selinger 2001-2019
</metadata>
<g transform="translate(0.000000,200.000000) scale(0.100000,-0.100000)"
fill="#000000" stroke="none">
<path d="M1155 1944 c-230 -49 -424 -234 -492 -468 -51 -176 -18 -394 81 -539
14 -21 26 -43 26 -50 0 -6 -16 -28 -37 -49 l-36 -37 -29 24 c-22 18 -34 22
-46 16 -9 -5 -139 -132 -288 -283 -226 -226 -274 -280 -284 -315 -16 -53 -6
-104 27 -144 50 -59 124 -74 191 -40 54 29 586 566 577 583 -5 7 -15 21 -23
31 -15 16 -13 21 26 60 36 36 45 40 60 30 198 -136 431 -162 645 -73 351 146
504 553 337 895 -135 277 -433 422 -735 359z m285 -50 c149 -35 286 -131 372
-263 60 -93 89 -180 95 -298 7 -114 -8 -194 -53 -292 -117 -255 -396 -400
-665 -347 -234 46 -417 212 -485 441 -22 73 -24 226 -5 305 7 30 29 89 49 130
45 97 166 222 261 269 132 67 294 88 431 55z m-590 -1083 c0 -4 -18 -25 -40
-46 l-40 -39 -22 22 -22 22 38 39 c37 38 40 39 62 24 13 -8 24 -18 24 -22z
m-333 -448 c-261 -261 -274 -273 -311 -273 -73 0 -115 40 -116 110 l0 44 272
273 273 273 77 -77 78 -78 -273 -272z"/>
<path d="M1185 1813 c-190 -40 -350 -194 -400 -384 -19 -70 -19 -190 0 -262
60 -232 272 -397 508 -397 268 0 493 197 529 461 22 163 -33 323 -151 439 -77
76 -165 124 -266 145 -86 18 -130 18 -220 -2z m223 -48 c174 -41 311 -176 357
-350 15 -59 20 -135 9 -135 -3 0 -31 7 -62 16 -76 22 -234 15 -317 -15 -75
-26 -133 -67 -158 -108 -17 -29 -18 -41 -8 -118 6 -46 17 -95 26 -108 23 -36
89 -68 168 -81 l72 -12 -66 -18 c-51 -14 -91 -17 -165 -14 -86 3 -108 8 -166
36 -247 119 -351 407 -234 647 43 87 90 142 161 189 117 78 249 102 383 71z
m317 -518 c38 -14 40 -17 39 -53 -1 -22 -8 -55 -17 -75 -12 -31 -25 -41 -74
-60 -50 -20 -76 -24 -183 -24 -111 0 -130 3 -167 23 -80 42 -65 103 38 155
109 55 265 69 364 34z m-235 -261 c63 0 132 5 153 11 20 6 37 8 37 3 0 -4 -20
-26 -45 -49 l-45 -41 -83 0 c-136 0 -227 40 -227 101 0 17 3 16 48 -4 40 -19
64 -22 162 -21z"/>
<path d="M1014 1591 c-47 -29 -73 -120 -50 -175 28 -67 184 -127 291 -110 90
13 125 58 125 160 0 35 -6 47 -34 72 -53 46 -133 72 -224 72 -58 0 -85 -5
-108 -19z m251 -55 c109 -50 91 -106 -35 -106 -148 0 -268 85 -177 126 45 20
145 11 212 -20z m-190 -121 c53 -27 70 -30 152 -30 51 0 93 -3 93 -7 0 -3 -14
-11 -31 -17 -73 -25 -201 -3 -259 45 -26 23 -43 52 -22 42 4 -2 34 -17 67 -33z"/>
</g>
</svg>
