<?xml version="1.0" standalone="no"?>
<!DOCTYPE svg PUBLIC "-//W3C//DTD SVG 20010904//EN"
 "http://www.w3.org/TR/2001/REC-SVG-20010904/DTD/svg10.dtd">
<svg version="1.0" xmlns="http://www.w3.org/2000/svg"
 width="200.000000pt" height="200.000000pt" viewBox="0 0 200.000000 200.000000"
 preserveAspectRatio="xMidYMid meet">
<metadata>
Created by potrace 1.16, written by Peter Selinger 2001-2019
</metadata>
<g transform="translate(0.000000,200.000000) scale(0.100000,-0.100000)"
fill="#000000" stroke="none">
<path d="M622 1790 c-59 -36 -62 -54 -62 -415 0 -361 3 -379 62 -415 32 -19
49 -20 628 -20 579 0 596 1 628 20 59 36 62 54 62 415 0 361 -3 379 -62 415
-32 19 -49 20 -628 20 -579 0 -596 -1 -628 -20z m182 -62 c-14 -46 -34 -77
-74 -111 -37 -31 -86 -54 -96 -45 -2 2 -4 34 -5 71 -3 94 10 107 108 107 72 0
74 -1 67 -22z m835 -25 c22 -85 85 -151 174 -184 l57 -22 0 -122 0 -122 -58
-21 c-89 -33 -182 -141 -182 -212 0 -20 -6 -20 -380 -20 -355 0 -380 1 -380
18 0 37 -49 119 -94 159 -26 23 -70 49 -97 58 l-49 17 0 123 0 123 49 17 c27
9 71 35 97 58 45 40 94 122 94 160 0 16 25 17 378 17 l378 0 13 -47z m213 30
c14 -13 18 -31 18 -90 0 -86 -9 -91 -81 -43 -42 27 -78 77 -94 128 -6 21 -4
22 66 22 53 0 77 -4 91 -17z m-1162 -570 c62 -41 97 -84 114 -140 7 -22 5 -23
-65 -23 -99 0 -109 10 -109 107 0 81 10 90 60 56z m1180 -55 c0 -98 -10 -108
-107 -108 -72 0 -74 1 -68 23 16 50 52 100 94 127 72 48 81 43 81 -42z"/>
<path d="M1171 1675 c-70 -20 -111 -46 -160 -101 -105 -119 -92 -319 28 -427
52 -47 84 -63 157 -77 102 -20 215 18 283 96 79 90 102 209 60 319 -55 147
-218 231 -368 190z m173 -69 c47 -19 104 -73 129 -120 30 -57 30 -165 0 -222
-25 -47 -82 -101 -129 -120 -44 -19 -146 -18 -192 2 -110 45 -175 182 -142
299 16 56 81 132 135 156 48 22 151 25 199 5z"/>
<path d="M1227 1584 c-4 -4 -7 -18 -7 -31 0 -19 -5 -23 -28 -23 -52 0 -84 -66
-64 -135 10 -36 52 -54 130 -54 51 -1 52 -2 52 -31 l0 -29 -87 -3 c-86 -3 -88
-3 -88 -28 0 -22 5 -25 42 -28 37 -3 42 -6 45 -30 2 -21 8 -27 28 -27 20 0 26
6 28 28 3 21 9 27 27 27 12 0 33 8 46 19 19 15 23 28 23 75 0 77 -14 90 -109
94 -75 4 -75 4 -75 33 l0 28 88 3 c85 3 87 3 87 28 0 22 -5 25 -42 28 -37 3
-42 6 -45 30 -3 26 -34 42 -51 26z"/>
<path d="M124 901 c-12 -5 -31 -22 -43 -37 -20 -26 -21 -36 -21 -296 0 -285 4
-313 49 -338 11 -5 75 -10 143 -10 136 0 156 7 178 60 11 27 17 30 54 30 62 0
167 -25 300 -72 115 -40 127 -42 241 -42 201 -1 232 14 609 304 157 120 236
187 236 199 0 23 -61 78 -106 97 -41 17 -119 18 -165 2 -19 -6 -75 -39 -124
-74 l-90 -62 -33 39 c-60 71 -89 79 -272 79 -159 0 -161 0 -213 29 -112 63
-254 81 -369 47 l-58 -17 -29 33 -29 33 -119 2 c-65 2 -128 -1 -139 -6z m241
-341 l0 -275 -110 -3 c-95 -2 -111 0 -122 15 -17 22 -19 494 -2 524 9 18 19
19 122 17 l112 -3 0 -275z m386 230 c35 -11 80 -30 99 -42 32 -21 50 -23 215
-28 165 -5 183 -7 211 -27 17 -12 38 -37 47 -55 l16 -33 -174 -5 c-179 -5
-200 -10 -193 -46 3 -18 18 -19 210 -22 191 -2 208 -1 217 16 5 10 9 25 8 34
-1 10 35 43 97 87 108 77 157 93 226 72 42 -12 70 -38 54 -49 -6 -4 -105 -79
-220 -168 -333 -257 -358 -270 -529 -268 -104 1 -119 4 -265 52 -85 27 -182
53 -215 57 -33 3 -72 9 -87 11 l-28 6 0 193 0 193 43 16 c23 8 49 17 57 20 38
12 152 5 211 -14z"/>
</g>
</svg>
