<?xml version="1.0" standalone="no"?>
<!DOCTYPE svg PUBLIC "-//W3C//DTD SVG 20010904//EN"
 "http://www.w3.org/TR/2001/REC-SVG-20010904/DTD/svg10.dtd">
<svg version="1.0" xmlns="http://www.w3.org/2000/svg"
 width="200.000000pt" height="200.000000pt" viewBox="0 0 200.000000 200.000000"
 preserveAspectRatio="xMidYMid meet">
<metadata>
Created by potrace 1.16, written by Peter Selinger 2001-2019
</metadata>
<g transform="translate(0.000000,200.000000) scale(0.100000,-0.100000)"
fill="#000000" stroke="none">
<path d="M930 1878 c-33 -17 -51 -35 -67 -67 -21 -42 -28 -46 -100 -71 -153
-52 -266 -127 -358 -238 -63 -76 -136 -212 -156 -289 -11 -46 -17 -54 -45 -63
-70 -23 -114 -107 -99 -187 8 -43 72 -113 103 -113 16 0 24 -14 42 -72 46
-152 151 -310 262 -396 74 -57 188 -115 271 -137 51 -14 67 -22 67 -36 0 -23
45 -76 81 -94 36 -19 102 -19 138 0 36 18 81 71 81 94 0 14 16 22 68 36 248
67 453 272 532 533 16 51 27 72 38 72 53 0 121 85 122 150 0 50 -42 113 -93
140 -46 24 -50 29 -73 100 -82 243 -257 416 -507 500 -72 25 -79 29 -100 71
-24 47 -88 89 -137 89 -14 0 -46 -10 -70 -22z m110 -63 c54 -28 52 -86 -5
-122 -44 -29 -60 -29 -90 2 -40 39 -31 94 20 123 27 15 41 15 75 -3z m-81
-220 c59 -13 110 4 155 50 l42 42 64 -22 c128 -43 235 -115 316 -213 55 -66
124 -193 142 -263 9 -34 8 -38 -25 -64 -40 -32 -63 -79 -63 -130 0 -47 21 -86
65 -122 l35 -29 -25 -73 c-37 -111 -81 -178 -174 -271 -90 -90 -179 -146 -281
-176 l-50 -15 -42 45 c-74 76 -163 76 -236 -1 l-44 -45 -76 27 c-186 65 -342
215 -415 397 -39 98 -42 125 -18 133 33 10 73 71 78 118 7 55 -15 107 -60 142
l-35 28 15 51 c35 117 119 246 215 330 60 53 168 112 248 137 l54 17 42 -43
c23 -24 55 -46 73 -50z m-654 -540 c52 -51 17 -135 -57 -135 -39 0 -78 40 -78
80 0 41 39 80 80 80 19 0 40 -9 55 -25z m1480 19 c19 -8 45 -55 45 -82 0 -11
-11 -31 -25 -46 -49 -53 -135 -19 -135 54 0 59 57 96 115 74z m-739 -752 c17
-11 34 -48 34 -72 0 -12 -14 -35 -30 -52 -26 -25 -36 -29 -63 -24 -65 13 -89
85 -42 131 24 25 77 34 101 17z"/>
<path d="M880 1527 c-188 -44 -348 -197 -404 -386 -20 -70 -21 -209 -1 -286
70 -267 353 -446 620 -392 204 42 359 179 420 370 108 339 -134 687 -489 703
-53 2 -114 -2 -146 -9z m235 -81 c311 -83 447 -443 268 -713 -93 -141 -285
-224 -451 -195 -235 40 -393 222 -395 452 -1 263 197 466 458 469 39 0 93 -5
120 -13z"/>
<path d="M952 1298 c-7 -7 -12 -22 -12 -34 0 -15 -12 -29 -35 -43 -21 -12 -42
-36 -50 -56 -36 -84 -7 -137 100 -189 42 -20 80 -36 84 -36 15 0 41 -36 41
-57 0 -38 -41 -59 -107 -55 -12 1 -36 17 -52 35 -25 26 -34 30 -48 21 -43 -27
-11 -96 58 -124 18 -8 29 -20 31 -37 6 -54 69 -56 76 -2 2 16 15 31 40 44 46
25 82 78 82 120 0 58 -36 96 -143 148 -82 41 -97 52 -97 72 0 31 37 65 71 65
14 0 43 -13 64 -30 42 -34 46 -35 63 -18 31 31 -12 99 -74 114 -16 4 -24 13
-24 28 0 26 -18 46 -40 46 -9 0 -21 -5 -28 -12z"/>
</g>
</svg>
