<?xml version="1.0" standalone="no"?>
<!DOCTYPE svg PUBLIC "-//W3C//DTD SVG 20010904//EN"
 "http://www.w3.org/TR/2001/REC-SVG-20010904/DTD/svg10.dtd">
<svg version="1.0" xmlns="http://www.w3.org/2000/svg"
 width="200.000000pt" height="200.000000pt" viewBox="0 0 200.000000 200.000000"
 preserveAspectRatio="xMidYMid meet">
<metadata>
Created by potrace 1.16, written by Peter Selinger 2001-2019
</metadata>
<g transform="translate(0.000000,200.000000) scale(0.100000,-0.100000)"
fill="#000000" stroke="none">
<path d="M805 1761 c-78 -35 -123 -116 -111 -199 7 -55 37 -104 78 -130 27
-18 35 -18 79 -7 26 7 75 16 109 20 52 6 63 11 82 38 26 36 35 120 19 170 -7
20 -29 52 -49 72 -58 56 -134 69 -207 36z"/>
<path d="M1290 1554 c-61 -55 -64 -56 -108 -49 -24 4 -50 9 -57 11 -7 3 -20
-9 -29 -27 -21 -43 -20 -49 8 -49 35 0 76 -17 76 -32 0 -10 -35 -13 -147 -13
l-148 0 -90 -38 c-111 -46 -108 -46 -113 -25 -2 12 8 25 32 39 l35 20 -34 31
-35 30 -65 -47 c-223 -159 -254 -422 -74 -619 l49 -54 0 -114 c0 -75 4 -118
12 -126 13 -13 153 -17 182 -6 12 5 16 21 16 64 0 33 5 62 10 65 6 4 51 2 100
-4 66 -8 115 -8 181 0 107 13 109 11 109 -67 0 -38 4 -53 16 -58 29 -11 169
-7 182 6 8 8 12 51 12 128 l0 115 50 49 c27 27 64 77 80 110 l31 61 57 5 57 5
0 155 0 155 -80 3 -80 3 -45 47 c-25 26 -60 60 -77 75 -33 27 -33 28 -33 117
0 50 -4 90 -9 90 -5 0 -37 -25 -71 -56z m89 -251 c46 -57 -27 -125 -81 -76
-24 21 -23 58 2 83 27 27 55 25 79 -7z"/>
<path d="M1325 1270 c-3 -5 1 -10 9 -10 9 0 16 5 16 10 0 6 -4 10 -9 10 -6 0
-13 -4 -16 -10z"/>
<path d="M283 720 c-60 -13 -105 -38 -101 -58 2 -9 19 -25 38 -36 29 -18 52
-21 140 -21 88 0 111 3 140 21 19 11 36 27 38 37 8 41 -156 78 -255 57z"/>
<path d="M1537 676 c-142 -40 -77 -110 103 -111 108 0 175 23 175 60 0 49
-174 81 -278 51z"/>
<path d="M182 553 c5 -57 53 -78 178 -78 125 0 173 21 178 77 l3 38 -43 -17
c-60 -23 -219 -23 -272 0 -21 9 -40 17 -43 17 -2 0 -3 -17 -1 -37z"/>
<path d="M1785 543 c-44 -25 -200 -30 -264 -9 -27 9 -52 16 -55 16 -3 0 -6
-16 -6 -35 0 -31 5 -37 43 -56 60 -32 202 -32 270 -2 45 21 47 24 47 62 0 23
-1 41 -2 41 -2 -1 -16 -8 -33 -17z"/>
<path d="M182 423 c5 -57 53 -78 178 -78 125 0 173 21 178 78 2 20 1 37 -1 37
-3 0 -24 -7 -47 -15 -25 -9 -78 -15 -130 -15 -52 0 -105 6 -130 15 -23 8 -44
15 -47 15 -2 0 -3 -17 -1 -37z"/>
<path d="M182 303 c5 -57 52 -78 178 -78 120 0 173 22 178 73 4 37 5 37 -59
16 -65 -21 -219 -16 -267 10 l-33 17 3 -38z"/>
</g>
</svg>
