<?xml version="1.0" standalone="no"?>
<!DOCTYPE svg PUBLIC "-//W3C//DTD SVG 20010904//EN"
 "http://www.w3.org/TR/2001/REC-SVG-20010904/DTD/svg10.dtd">
<svg version="1.0" xmlns="http://www.w3.org/2000/svg"
 width="200.000000pt" height="200.000000pt" viewBox="0 0 200.000000 200.000000"
 preserveAspectRatio="xMidYMid meet">
<metadata>
Created by potrace 1.16, written by Peter Selinger 2001-2019
</metadata>
<g transform="translate(0.000000,200.000000) scale(0.100000,-0.100000)"
fill="#000000" stroke="none">
<path d="M727 1686 c-111 -30 -185 -118 -194 -228 -10 -118 36 -205 137 -262
47 -27 65 -31 125 -31 154 1 265 111 265 265 0 178 -163 303 -333 256z m94
-68 c7 -13 21 -29 32 -37 29 -21 51 -79 36 -97 -19 -23 -38 -16 -53 21 -8 19
-22 35 -30 35 -31 0 -46 -13 -46 -41 0 -23 5 -30 28 -35 73 -15 107 -51 105
-112 -1 -27 -9 -43 -31 -63 -17 -15 -35 -37 -42 -48 -13 -26 -38 -27 -47 -3
-4 9 -22 31 -41 49 -27 26 -33 38 -30 65 4 44 33 50 50 11 21 -47 59 -59 78
-24 16 31 1 50 -46 62 -56 14 -84 48 -84 102 0 32 6 46 35 73 19 18 35 37 35
42 0 10 15 19 32 21 4 1 13 -9 19 -21z"/>
<path d="M1443 1690 c-80 -17 -153 -79 -188 -163 -36 -87 -7 -225 61 -289 88
-80 212 -97 313 -43 87 47 139 133 140 231 3 171 -155 299 -326 264z m180 -81
c7 -11 -16 -59 -87 -185 -54 -93 -103 -175 -110 -182 -16 -16 -46 -5 -46 16 0
17 172 323 198 355 17 19 31 18 45 -4z m-172 -28 c17 -18 29 -40 29 -56 0 -32
-50 -85 -80 -85 -49 0 -89 38 -89 85 0 76 85 110 140 56z m227 -197 c69 -78
-49 -184 -123 -109 -29 28 -32 70 -9 103 33 48 92 50 132 6z"/>
<path d="M1374 1535 c-4 -9 -2 -21 4 -27 15 -15 44 -1 40 19 -4 23 -36 29 -44
8z"/>
<path d="M1594 1345 c-7 -18 3 -35 22 -35 20 0 30 30 13 41 -20 12 -29 11 -35
-6z"/>
<path d="M120 645 l0 -345 140 0 140 0 0 345 0 345 -140 0 -140 0 0 -345z"/>
<path d="M1654 895 c-239 -125 -234 -121 -234 -168 0 -78 -58 -137 -134 -137
-47 0 -407 98 -426 116 -12 12 -12 16 2 30 16 16 30 13 210 -35 107 -28 206
-51 221 -51 36 0 69 37 65 75 l-3 30 -310 83 c-171 45 -332 83 -360 84 -41 2
-66 -6 -138 -41 l-87 -43 0 -204 0 -203 50 34 c84 57 94 56 409 -30 256 -69
284 -75 321 -65 29 8 104 63 268 197 125 103 254 209 287 236 33 27 66 56 73
65 31 40 -2 92 -60 92 -16 0 -85 -29 -154 -65z"/>
</g>
</svg>
