<?xml version="1.0" standalone="no"?>
<!DOCTYPE svg PUBLIC "-//W3C//DTD SVG 20010904//EN"
 "http://www.w3.org/TR/2001/REC-SVG-20010904/DTD/svg10.dtd">
<svg version="1.0" xmlns="http://www.w3.org/2000/svg"
 width="200.000000pt" height="200.000000pt" viewBox="0 0 200.000000 200.000000"
 preserveAspectRatio="xMidYMid meet">
<metadata>
Created by potrace 1.16, written by Peter Selinger 2001-2019
</metadata>
<g transform="translate(0.000000,200.000000) scale(0.100000,-0.100000)"
fill="#000000" stroke="none">
<path d="M590 1591 c-125 -42 -140 -41 -184 8 -11 12 -23 21 -28 21 -18 0
-178 -121 -178 -135 0 -7 18 -35 39 -63 83 -104 189 -167 281 -166 46 1 204
27 310 51 19 4 15 -2 -19 -24 -98 -68 -146 -162 -146 -288 0 -97 30 -170 95
-235 80 -80 209 -114 330 -87 27 6 32 5 22 -5 -17 -17 -15 -58 5 -80 14 -16
15 -18 0 -18 -26 0 -246 69 -288 90 -52 27 -85 26 -104 -4 -31 -47 -10 -68
147 -145 177 -87 323 -141 380 -141 24 0 94 18 157 39 125 43 140 42 185 -8
11 -12 23 -21 28 -21 19 0 178 122 178 135 0 22 -81 116 -133 156 -61 45 -131
70 -199 70 -29 0 -111 -11 -182 -25 -72 -14 -131 -24 -134 -22 -2 2 5 7 16 10
31 10 121 111 145 163 31 67 30 197 0 266 -31 67 -113 150 -176 178 -55 23
-160 31 -227 16 -27 -6 -32 -5 -22 5 18 18 15 63 -6 81 -10 10 -34 18 -53 18
-28 2 -30 3 -8 6 36 6 168 -28 280 -72 130 -51 153 -54 175 -20 16 25 16 27
-3 53 -42 59 -410 223 -513 229 -43 2 -79 -5 -170 -36z m327 -46 c209 -82 351
-161 328 -183 -7 -7 -41 2 -100 25 -214 82 -310 97 -414 65 -59 -19 -84 -43
-64 -63 10 -10 30 -10 93 0 63 9 85 10 96 0 38 -31 9 -43 -184 -76 -134 -22
-167 -25 -199 -15 -65 19 -145 74 -191 130 l-43 54 68 48 68 48 35 -29 c41
-35 71 -36 142 -8 83 33 190 59 221 54 15 -3 80 -25 144 -50z m208 -269 c58
-27 118 -84 148 -141 32 -59 31 -201 -1 -266 -27 -56 -83 -113 -137 -142 -58
-32 -212 -32 -270 0 -54 29 -120 98 -144 153 -30 66 -29 178 3 245 30 65 87
122 150 151 71 33 181 33 251 0z m443 -591 c65 -30 125 -78 163 -129 l28 -39
-67 -47 -67 -48 -28 24 c-48 40 -71 40 -192 1 -147 -49 -178 -48 -322 8 -116
45 -317 147 -329 167 -17 27 18 24 96 -7 109 -44 270 -87 324 -86 51 0 146 32
160 54 21 33 -6 42 -96 30 -68 -8 -86 -8 -98 4 -13 13 -13 16 4 29 11 8 25 14
30 14 6 0 67 11 136 24 161 31 193 31 258 1z m-385 -122 c-7 -2 -21 -2 -30 0
-10 3 -4 5 12 5 17 0 24 -2 18 -5z"/>
<path d="M929 1214 c-65 -20 -123 -79 -145 -148 -15 -47 -16 -63 -5 -109 25
-113 104 -179 214 -180 75 0 122 19 171 69 116 119 60 322 -101 370 -56 17
-75 17 -134 -2z m42 -45 c-14 -15 -28 -19 -52 -17 l-34 4 35 17 c19 9 43 16
53 17 17 0 17 -1 -2 -21z m107 4 l37 -17 -34 -4 c-24 -2 -38 2 -52 17 -17 18
-17 21 -4 21 9 0 32 -8 53 -17z m-63 -53 c3 -5 26 -10 51 -10 32 0 44 -4 44
-15 0 -21 -76 -21 -84 1 -3 9 -15 14 -28 12 -20 -3 -23 -9 -23 -46 l0 -42 -42
0 -43 0 0 45 0 45 44 0 c25 0 48 5 51 10 3 6 10 10 15 10 5 0 12 -4 15 -10z
m-155 -124 c6 -6 6 -14 1 -20 -5 -6 -11 -29 -13 -51 l-4 -40 -17 37 c-22 48
-22 109 0 156 l17 37 4 -55 c2 -30 7 -59 12 -64z m319 65 c16 -48 14 -96 -6
-139 l-17 -37 -5 70 c-4 39 -9 75 -14 82 -4 6 -3 14 3 18 5 3 10 18 10 33 0
32 13 20 29 -27z m-69 -110 l0 -58 -47 -7 c-27 -4 -55 -7 -63 -7 -8 0 -36 3
-62 7 -45 6 -48 9 -48 35 0 27 3 29 40 29 35 0 40 -3 40 -24 0 -33 25 -53 46
-35 12 9 15 27 12 66 l-3 53 43 0 42 0 0 -59z m-137 -121 c14 -17 15 -20 2
-20 -19 0 -85 27 -85 34 0 16 67 4 83 -14z m137 14 c0 -7 -66 -34 -85 -34 -13
0 -12 3 2 20 16 18 83 30 83 14z"/>
</g>
</svg>
