<?xml version="1.0" standalone="no"?>
<!DOCTYPE svg PUBLIC "-//W3C//DTD SVG 20010904//EN"
 "http://www.w3.org/TR/2001/REC-SVG-20010904/DTD/svg10.dtd">
<svg version="1.0" xmlns="http://www.w3.org/2000/svg"
 width="200.000000pt" height="200.000000pt" viewBox="0 0 200.000000 200.000000"
 preserveAspectRatio="xMidYMid meet">
<metadata>
Created by potrace 1.16, written by Peter Selinger 2001-2019
</metadata>
<g transform="translate(0.000000,200.000000) scale(0.100000,-0.100000)"
fill="#000000" stroke="none">
<path d="M675 1580 c-38 -10 -94 -27 -123 -39 -71 -28 -101 -27 -142 8 l-35
29 -67 -47 c-37 -25 -68 -50 -68 -54 0 -4 31 -38 68 -76 51 -51 83 -74 126
-90 72 -27 81 -26 256 5 176 31 203 43 166 73 -9 8 -28 8 -66 1 -77 -15 -120
-13 -127 6 -3 8 1 22 8 29 21 20 116 45 170 45 54 0 182 -35 307 -85 56 -22
90 -31 96 -25 14 14 -6 31 -79 72 -84 48 -382 169 -410 167 -5 0 -41 -8 -80
-19z"/>
<path d="M863 1270 c-106 -53 -162 -147 -163 -270 0 -90 27 -156 86 -214 68
-67 106 -81 214 -81 114 0 153 17 223 95 60 66 81 130 75 224 -6 84 -29 134
-90 193 -63 61 -117 83 -209 83 -64 0 -85 -4 -136 -30z m203 -55 c159 -49 213
-252 97 -369 -50 -51 -95 -69 -170 -69 -106 1 -185 64 -213 173 -30 113 38
230 154 266 55 17 73 17 132 -1z"/>
<path d="M933 1177 c-47 -18 -51 -27 -10 -27 26 0 39 6 47 20 12 23 8 23 -37
7z"/>
<path d="M1027 1171 c15 -17 29 -21 54 -19 l34 4 -28 12 c-15 6 -40 15 -54 18
l-27 7 21 -22z"/>
<path d="M985 1120 c-3 -5 -26 -10 -51 -10 l-44 0 0 -45 0 -45 43 0 42 0 0 42
c0 37 3 43 23 46 17 3 25 -2 29 -17 4 -17 13 -21 44 -21 32 0 39 3 39 20 0 17
-7 20 -44 20 -25 0 -48 5 -51 10 -3 6 -10 10 -15 10 -5 0 -12 -4 -15 -10z"/>
<path d="M827 1078 c-22 -47 -22 -108 0 -156 l17 -37 4 40 c2 22 8 45 13 51 5
6 5 14 -1 20 -5 5 -10 34 -12 64 l-4 55 -17 -37z"/>
<path d="M1150 1088 c0 -15 -5 -30 -10 -33 -6 -4 -7 -12 -3 -18 5 -7 10 -43
14 -82 l5 -70 17 37 c20 43 22 91 6 139 -16 47 -29 59 -29 27z"/>
<path d="M1028 957 c3 -39 0 -57 -12 -66 -21 -18 -44 0 -48 37 -3 24 -7 27
-38 27 -33 0 -35 -2 -35 -35 0 -35 0 -35 53 -40 28 -3 76 -3 105 0 l52 5 3 63
3 62 -43 0 -43 0 3 -53z"/>
<path d="M890 844 c0 -7 66 -34 85 -34 13 0 12 3 -2 20 -16 18 -83 30 -83 14z"/>
<path d="M1027 830 c-14 -17 -15 -20 -2 -20 19 0 85 27 85 34 0 16 -67 4 -83
-14z"/>
<path d="M1360 695 c-207 -36 -248 -51 -219 -80 13 -13 27 -13 97 -3 64 9 86
8 95 -1 37 -37 -80 -85 -188 -77 -72 5 -226 49 -324 92 -34 15 -58 21 -64 15
-16 -16 -1 -27 107 -85 136 -73 330 -149 381 -149 22 0 92 17 156 38 126 42
148 42 197 0 l29 -24 66 48 67 48 -29 39 c-61 82 -182 155 -256 153 -22 -1
-74 -7 -115 -14z"/>
</g>
</svg>
