<?xml version="1.0" standalone="no"?>
<!DOCTYPE svg PUBLIC "-//W3C//DTD SVG 20010904//EN"
 "http://www.w3.org/TR/2001/REC-SVG-20010904/DTD/svg10.dtd">
<svg version="1.0" xmlns="http://www.w3.org/2000/svg"
 width="200.000000pt" height="200.000000pt" viewBox="0 0 200.000000 200.000000"
 preserveAspectRatio="xMidYMid meet">
<metadata>
Created by potrace 1.16, written by Peter Selinger 2001-2019
</metadata>
<g transform="translate(0.000000,200.000000) scale(0.100000,-0.100000)"
fill="#000000" stroke="none">
<path d="M496 1885 c-52 -27 -55 -40 -56 -182 l0 -131 -126 -4 c-159 -4 -164
-8 -164 -132 2 -266 39 -1276 48 -1293 23 -42 46 -44 525 -41 l457 3 25 26 26
25 10 385 c6 211 12 399 15 417 l5 32 260 0 261 0 34 34 34 34 0 386 0 386
-29 32 -29 33 -634 3 c-552 2 -637 0 -662 -13z m1288 -67 c9 -12 16 -33 16
-45 l0 -23 -655 0 -655 0 0 27 c0 14 7 35 17 45 15 17 48 18 639 18 l623 0 15
-22z m14 -155 l-3 -28 -652 -3 -653 -2 0 30 0 30 656 0 655 0 -3 -27z m2 -331
c0 -199 -3 -241 -16 -260 l-15 -22 -629 0 c-612 0 -630 1 -640 19 -6 12 -10
114 -10 260 l0 241 655 0 655 0 0 -238z m-1360 128 l0 -50 -53 0 c-95 0 -92
10 -77 -266 7 -131 17 -245 22 -251 15 -18 748 -19 766 -1 7 7 12 31 12 55 l0
43 46 0 47 0 -6 -127 c-4 -71 -10 -252 -13 -403 -4 -157 -11 -280 -17 -288 -7
-9 -111 -12 -457 -12 -346 0 -450 3 -458 12 -10 13 -53 1300 -44 1326 3 9 36
12 118 12 l114 0 0 -50z m0 -260 c3 -80 10 -152 15 -161 6 -8 21 -23 35 -32
21 -15 57 -17 296 -17 l271 0 -5 -25 -4 -25 -333 0 -333 0 -5 33 c-4 17 -9
110 -13 205 l-7 173 39 -3 39 -3 5 -145z"/>
<path d="M1151 1446 c-6 -7 -9 -21 -5 -30 5 -14 36 -16 273 -16 279 0 301 3
280 42 -9 17 -27 18 -273 18 -211 0 -266 -3 -275 -14z"/>
<path d="M586 1429 c-25 -19 -26 -25 -26 -114 0 -140 -2 -139 196 -143 177 -4
230 5 239 41 3 12 5 65 3 117 -4 123 1 120 -219 120 -153 0 -168 -2 -193 -21z
m114 -64 c0 -22 -4 -25 -40 -25 -36 0 -40 3 -40 25 0 23 4 25 40 25 36 0 40
-2 40 -25z m110 -55 l0 -80 -30 0 -30 0 0 80 0 80 30 0 30 0 0 -80z m140 55
c0 -22 -4 -25 -40 -25 -36 0 -40 3 -40 25 0 23 4 25 40 25 36 0 40 -2 40 -25z
m-250 -110 c0 -22 -4 -25 -40 -25 -36 0 -40 3 -40 25 0 23 4 25 40 25 36 0 40
-2 40 -25z m250 0 c0 -22 -4 -25 -40 -25 -36 0 -40 3 -40 25 0 23 4 25 40 25
36 0 40 -2 40 -25z"/>
<path d="M1324 1325 c-4 -8 -1 -22 6 -30 19 -23 342 -22 365 1 12 12 13 19 4
30 -18 21 -367 20 -375 -1z"/>
<path d="M1458 1208 c-13 -33 3 -38 122 -38 86 0 120 3 123 13 11 32 -5 37
-123 37 -85 0 -119 -3 -122 -12z"/>
<path d="M372 793 c-6 -10 -7 -47 -3 -83 l6 -65 70 -3 c57 -2 72 0 82 14 16
22 17 126 1 142 -7 7 -40 12 -80 12 -54 0 -69 -3 -76 -17z m108 -68 c0 -21 -5
-25 -30 -25 -25 0 -30 4 -30 25 0 21 5 25 30 25 25 0 30 -4 30 -25z"/>
<path d="M630 795 c-14 -17 -8 -131 8 -147 5 -5 40 -8 78 -6 l69 3 9 68 c11
89 4 97 -84 97 -48 0 -71 -4 -80 -15z m110 -70 c0 -21 -5 -25 -30 -25 -25 0
-30 4 -30 25 0 21 5 25 30 25 25 0 30 -4 30 -25z"/>
<path d="M893 804 c-19 -8 -17 -138 1 -153 9 -7 41 -11 83 -9 l68 3 0 80 0 80
-70 2 c-38 1 -76 -1 -82 -3z m105 -76 c-2 -17 -11 -24 -30 -26 -24 -3 -28 0
-28 22 0 22 4 26 31 26 26 0 30 -3 27 -22z"/>
<path d="M368 578 c-3 -7 -3 -42 1 -78 l6 -65 77 -3 c74 -3 78 -2 83 21 4 13
5 48 3 78 l-3 54 -81 3 c-60 2 -83 -1 -86 -10z m112 -74 c0 -22 -4 -25 -27
-22 -20 2 -29 9 -31 26 -3 19 1 22 27 22 27 0 31 -4 31 -26z"/>
<path d="M627 583 c-9 -8 -9 -66 -1 -116 l7 -38 76 3 76 3 8 63 c13 91 11 92
-81 92 -43 0 -82 -3 -85 -7z m113 -78 c0 -21 -5 -25 -30 -25 -25 0 -30 4 -30
25 0 21 5 25 30 25 25 0 30 -4 30 -25z"/>
<path d="M887 583 c-10 -9 -8 -125 2 -141 5 -9 29 -12 82 -10 l74 3 3 78 3 77
-79 0 c-43 0 -82 -3 -85 -7z m111 -75 c-2 -17 -11 -24 -30 -26 -24 -3 -28 0
-28 22 0 22 4 26 31 26 26 0 30 -3 27 -22z"/>
<path d="M372 367 c-7 -8 -8 -38 -4 -82 l7 -70 70 -3 c85 -4 95 6 95 94 0 47
-4 63 -16 68 -30 11 -141 6 -152 -7z m108 -72 c0 -21 -5 -25 -30 -25 -25 0
-30 4 -30 25 0 21 5 25 30 25 25 0 30 -4 30 -25z"/>
<path d="M630 365 c-13 -16 -9 -122 5 -144 7 -12 124 -15 141 -3 18 11 29 129
14 147 -18 21 -143 21 -160 0z m110 -70 c0 -21 -5 -25 -30 -25 -25 0 -30 4
-30 25 0 21 5 25 30 25 25 0 30 -4 30 -25z"/>
<path d="M893 374 c-17 -7 -17 -136 -1 -152 17 -17 133 -16 147 2 7 9 11 41 9
83 l-3 68 -70 2 c-38 1 -76 -1 -82 -3z m105 -76 c-2 -17 -11 -24 -30 -26 -24
-3 -28 0 -28 22 0 22 4 26 31 26 26 0 30 -3 27 -22z"/>
</g>
</svg>
