<?xml version="1.0" standalone="no"?>
<!DOCTYPE svg PUBLIC "-//W3C//DTD SVG 20010904//EN"
 "http://www.w3.org/TR/2001/REC-SVG-20010904/DTD/svg10.dtd">
<svg version="1.0" xmlns="http://www.w3.org/2000/svg"
 width="200.000000pt" height="200.000000pt" viewBox="0 0 200.000000 200.000000"
 preserveAspectRatio="xMidYMid meet">
<metadata>
Created by potrace 1.16, written by Peter Selinger 2001-2019
</metadata>
<g transform="translate(0.000000,200.000000) scale(0.100000,-0.100000)"
fill="#000000" stroke="none">
<path d="M626 1759 l-26 -20 0 -559 c0 -534 1 -559 19 -581 l19 -24 362 0 362
0 19 24 c18 22 19 47 19 578 l0 554 -25 24 -24 25 -349 0 c-338 0 -350 -1
-376 -21z m521 -330 c110 -53 174 -151 181 -278 6 -106 -21 -176 -97 -252
-161 -160 -415 -120 -526 82 -40 74 -47 188 -16 270 70 184 278 265 458 178z"/>
<path d="M928 1397 c-201 -57 -266 -309 -118 -458 171 -171 460 -46 460 200 0
99 -73 208 -164 246 -50 21 -126 26 -178 12z m102 -76 c0 -5 14 -14 30 -21 36
-15 57 -47 41 -63 -7 -7 -18 -7 -36 1 -36 16 -35 17 -35 -27 0 -34 4 -40 30
-51 81 -34 80 -133 -1 -175 -16 -9 -29 -22 -29 -30 0 -8 -9 -15 -20 -15 -11 0
-20 6 -20 14 0 8 -19 25 -42 38 -43 23 -59 51 -40 70 7 7 20 4 40 -11 17 -11
33 -21 36 -21 3 0 6 23 6 50 0 43 -3 52 -22 59 -86 34 -90 127 -8 161 16 7 30
16 30 21 0 5 9 9 20 9 11 0 20 -4 20 -9z"/>
<path d="M954 1235 c-6 -16 12 -45 27 -45 5 0 9 14 9 30 0 32 -26 43 -36 15z"/>
<path d="M1030 1071 c0 -43 9 -51 30 -27 16 20 9 60 -12 64 -15 3 -18 -4 -18
-37z"/>
<path d="M653 513 c-42 -8 -53 -39 -53 -144 0 -80 3 -99 18 -112 17 -15 58
-17 385 -17 l366 0 15 22 c25 35 22 198 -3 229 l-19 24 -344 1 c-188 1 -353 0
-365 -3z m405 -53 c94 -58 53 -200 -58 -200 -65 0 -110 45 -110 110 0 42 15
67 53 90 41 25 74 25 115 0z"/>
<path d="M949 421 c-33 -33 -35 -50 -14 -91 27 -53 103 -53 130 0 8 16 15 36
15 45 0 24 -55 75 -80 75 -12 0 -35 -13 -51 -29z"/>
</g>
</svg>
