<?xml version="1.0" standalone="no"?>
<!DOCTYPE svg PUBLIC "-//W3C//DTD SVG 20010904//EN"
 "http://www.w3.org/TR/2001/REC-SVG-20010904/DTD/svg10.dtd">
<svg version="1.0" xmlns="http://www.w3.org/2000/svg"
 width="200.000000pt" height="200.000000pt" viewBox="0 0 200.000000 200.000000"
 preserveAspectRatio="xMidYMid meet">
<metadata>
Created by potrace 1.16, written by Peter Selinger 2001-2019
</metadata>
<g transform="translate(0.000000,200.000000) scale(0.100000,-0.100000)"
fill="#000000" stroke="none">
<path d="M883 1842 c-105 -37 -176 -106 -219 -210 -23 -55 -24 -68 -24 -313 0
-197 3 -258 13 -262 6 -2 39 4 72 15 114 36 216 59 296 68 153 15 267 100 319
237 17 46 21 74 18 138 -6 143 -78 253 -208 313 -74 35 -192 41 -267 14z m221
-58 c69 -24 150 -102 175 -170 42 -111 21 -228 -55 -313 -58 -64 -115 -91
-217 -102 -45 -5 -131 -23 -190 -39 -59 -17 -110 -30 -112 -30 -3 0 -5 97 -5
215 0 192 2 220 21 269 24 66 106 146 171 169 57 20 153 21 212 1z"/>
<path d="M835 1731 c-43 -19 -70 -60 -70 -107 0 -36 6 -49 33 -76 27 -27 40
-33 77 -33 37 0 50 6 77 33 27 27 33 40 33 77 0 36 -6 50 -30 75 -33 33 -85
46 -120 31z m75 -71 c11 -11 20 -27 20 -35 0 -21 -36 -55 -59 -55 -20 0 -51
35 -51 57 0 18 37 53 55 53 8 0 24 -9 35 -20z"/>
<path d="M977 1522 c-130 -130 -155 -172 -104 -172 31 0 277 246 277 278 0 16
-6 22 -23 22 -15 0 -61 -39 -150 -128z"/>
<path d="M1070 1468 c-69 -46 -77 -119 -19 -174 24 -23 39 -29 74 -29 37 0 50
6 77 33 27 27 33 40 33 77 0 87 -95 140 -165 93z m90 -58 c11 -11 20 -27 20
-35 0 -8 -9 -24 -20 -35 -11 -11 -27 -20 -35 -20 -8 0 -24 9 -35 20 -11 11
-20 27 -20 35 0 8 9 24 20 35 11 11 27 20 35 20 8 0 24 -9 35 -20z"/>
<path d="M145 1028 c-3 -7 -4 -206 -3 -443 l3 -430 855 0 855 0 0 440 0 440
-853 3 c-677 2 -854 0 -857 -10z m1655 -433 l0 -385 -800 0 -800 0 0 385 0
385 800 0 800 0 0 -385z"/>
<path d="M310 735 c-10 -12 -10 -18 0 -30 11 -13 58 -15 315 -15 257 0 304 2
315 15 10 12 10 18 0 30 -11 13 -58 15 -315 15 -257 0 -304 -2 -315 -15z"/>
<path d="M310 565 c-10 -12 -10 -18 0 -30 19 -22 611 -22 630 0 10 12 10 18 0
30 -19 22 -611 22 -630 0z"/>
<path d="M1262 564 c-95 -48 -110 -171 -31 -246 45 -43 94 -56 149 -39 29 9
49 8 83 -1 38 -10 52 -9 91 6 63 24 96 73 96 142 0 97 -70 160 -165 149 -62
-6 -77 -6 -140 0 -35 4 -60 1 -83 -11z m119 -54 c22 -12 49 -61 49 -89 0 -12
-13 -35 -29 -53 -59 -66 -161 -29 -161 58 0 69 80 116 141 84z m184 -16 c62
-66 -3 -185 -85 -159 -17 6 -18 8 -3 42 14 34 14 53 -3 117 -6 24 -4 26 30 26
27 0 44 -7 61 -26z"/>
</g>
</svg>
