<?xml version="1.0" standalone="no"?>
<!DOCTYPE svg PUBLIC "-//W3C//DTD SVG 20010904//EN"
 "http://www.w3.org/TR/2001/REC-SVG-20010904/DTD/svg10.dtd">
<svg version="1.0" xmlns="http://www.w3.org/2000/svg"
 width="200.000000pt" height="200.000000pt" viewBox="0 0 200.000000 200.000000"
 preserveAspectRatio="xMidYMid meet">
<metadata>
Created by potrace 1.16, written by Peter Selinger 2001-2019
</metadata>
<g transform="translate(0.000000,200.000000) scale(0.100000,-0.100000)"
fill="#000000" stroke="none">
<path d="M1570 1958 c-19 -5 -52 -14 -72 -19 -50 -13 -78 -44 -78 -87 l0 -35
-56 7 c-193 22 -255 26 -319 17 -115 -17 -158 -45 -312 -207 -161 -169 -180
-198 -163 -248 21 -65 102 -111 152 -86 13 7 47 35 76 63 46 46 55 50 72 39
27 -16 44 -15 136 8 107 27 135 25 204 -11 91 -47 193 -49 310 -5 10 4 20 -5
30 -27 22 -47 54 -54 147 -33 88 21 123 48 123 96 0 17 -27 133 -61 258 -53
199 -64 230 -90 255 -31 29 -44 31 -99 15z m69 -70 c4 -13 34 -121 66 -242 53
-199 57 -220 42 -231 -23 -17 -127 -39 -138 -28 -12 12 -133 472 -126 479 6 6
121 42 140 43 4 1 11 -9 16 -21z m-312 -124 c59 -9 111 -21 114 -26 14 -22 71
-258 66 -271 -8 -20 -93 -42 -162 -41 -48 1 -71 7 -116 32 -67 38 -133 41
-244 13 -75 -20 -105 -15 -105 18 0 51 123 101 253 104 66 2 81 -1 92 -16 19
-26 49 -18 53 15 5 46 -35 63 -148 63 -79 -1 -109 -6 -171 -28 -88 -32 -140
-78 -144 -127 -3 -37 -97 -140 -129 -140 -25 0 -56 28 -56 51 0 18 223 270
275 311 76 59 213 73 422 42z"/>
<path d="M935 1330 c-25 -27 -35 -30 -87 -30 -70 0 -94 -19 -104 -80 -6 -33
-12 -43 -38 -54 -60 -25 -75 -71 -45 -133 l21 -43 -21 -29 c-41 -57 -24 -104
49 -139 30 -15 36 -23 41 -61 9 -71 61 -97 131 -67 12 6 24 0 41 -18 13 -14
36 -30 50 -35 34 -13 71 0 104 35 17 18 29 24 41 18 70 -30 122 -4 131 67 5
37 11 47 39 61 75 37 92 82 51 139 l-21 29 22 44 c20 41 20 47 6 81 -10 24
-26 40 -49 50 -29 12 -35 21 -41 55 -10 61 -34 80 -104 80 -52 0 -62 3 -87 30
-22 23 -38 30 -65 30 -27 0 -43 -7 -65 -30z m93 -51 c19 -31 75 -50 121 -43
40 6 40 6 46 -32 11 -66 15 -72 55 -88 43 -17 50 -37 25 -70 -21 -28 -19 -79
5 -109 28 -35 25 -44 -14 -57 -46 -15 -69 -43 -76 -93 -4 -35 -9 -41 -25 -39
-11 2 -34 6 -51 9 -25 4 -38 -1 -66 -26 -20 -17 -41 -31 -48 -31 -7 0 -28 14
-48 31 -28 25 -41 30 -66 26 -17 -3 -40 -7 -51 -9 -16 -2 -21 4 -25 39 -7 50
-30 78 -76 93 -39 13 -42 22 -14 57 24 30 26 81 5 109 -25 33 -18 53 25 70 40
16 44 22 55 88 l6 38 44 -6 c48 -8 86 6 119 43 24 26 38 27 54 0z"/>
<path d="M929 1207 c-61 -23 -100 -58 -125 -111 -32 -68 -31 -128 1 -193 57
-114 180 -154 296 -95 158 80 155 306 -4 389 -41 21 -125 26 -168 10z m45 -75
c-7 -16 -23 -37 -34 -47 -39 -35 -20 -87 41 -112 22 -8 37 -18 34 -21 -3 -3
-16 1 -30 8 -44 23 -77 -26 -35 -52 11 -7 20 -20 20 -28 0 -9 6 -22 13 -29 21
-23 -44 -3 -80 25 -90 69 -75 211 28 262 57 28 60 28 43 -6z m118 -7 c44 -30
74 -98 64 -147 -13 -67 -53 -111 -123 -132 -21 -7 -22 -6 -9 19 8 15 23 35 35
46 39 37 17 102 -39 114 -16 4 -32 11 -35 16 -9 13 12 11 34 -3 15 -9 23 -9
35 1 21 18 20 37 -2 53 -10 7 -21 23 -24 36 -8 30 17 29 64 -3z"/>
<path d="M1280 699 c-14 -5 -48 -33 -76 -61 -51 -50 -52 -50 -86 -38 -30 11
-46 10 -115 -9 -105 -28 -154 -27 -202 3 -78 50 -155 57 -266 27 -38 -11 -70
-19 -70 -18 0 1 -7 16 -15 32 -26 51 -53 57 -146 32 -97 -26 -124 -47 -124
-94 0 -33 114 -472 131 -504 18 -36 61 -42 144 -20 92 23 125 49 125 99 l0 35
53 -7 c288 -36 378 -28 482 44 61 42 311 312 319 345 19 75 -82 163 -154 134z
m72 -76 c10 -9 18 -25 18 -36 0 -11 -44 -68 -101 -131 -140 -153 -176 -185
-238 -214 -52 -24 -59 -24 -195 -19 -77 4 -172 12 -210 19 l-69 13 -37 138
c-27 102 -34 140 -25 147 6 5 40 17 75 26 78 20 140 12 195 -24 54 -36 143
-41 244 -13 80 21 111 16 111 -18 0 -50 -126 -102 -253 -104 -64 -2 -81 1 -91
16 -28 38 -74 9 -53 -33 19 -38 77 -53 172 -46 153 11 284 81 290 154 2 25 16
47 56 88 56 57 80 65 111 37z m-953 -26 c21 -55 124 -458 118 -463 -12 -12
-141 -44 -148 -36 -4 4 -36 112 -70 240 -44 162 -59 236 -52 243 11 11 95 37
126 38 10 1 21 -9 26 -22z"/>
</g>
</svg>
