<?xml version="1.0" standalone="no"?>
<!DOCTYPE svg PUBLIC "-//W3C//DTD SVG 20010904//EN"
 "http://www.w3.org/TR/2001/REC-SVG-20010904/DTD/svg10.dtd">
<svg version="1.0" xmlns="http://www.w3.org/2000/svg"
 width="200.000000pt" height="200.000000pt" viewBox="0 0 200.000000 200.000000"
 preserveAspectRatio="xMidYMid meet">
<metadata>
Created by potrace 1.16, written by Peter Selinger 2001-2019
</metadata>
<g transform="translate(0.000000,200.000000) scale(0.100000,-0.100000)"
fill="#000000" stroke="none">
<path d="M1568 1922 c-31 -9 -62 -22 -69 -29 -9 -9 3 -66 50 -243 74 -276 68
-260 93 -260 25 0 130 30 141 40 8 7 -100 436 -123 488 -11 26 -16 26 -92 4z"/>
<path d="M993 1791 c-28 -9 -68 -28 -87 -42 -47 -32 -296 -305 -296 -325 0
-20 45 -64 65 -64 9 0 43 25 76 57 43 41 59 63 59 83 0 95 149 170 337 170 81
0 127 -17 138 -50 13 -42 -11 -51 -55 -18 -26 19 -37 20 -108 15 -83 -6 -200
-43 -233 -73 -25 -23 -24 -50 4 -68 20 -13 30 -13 92 5 38 10 98 19 132 19 53
0 73 -6 130 -36 64 -34 72 -36 135 -31 37 3 87 15 111 25 l44 20 -39 149 -40
149 -132 17 c-167 22 -266 22 -333 -2z"/>
<path d="M973 1294 c-23 -36 -73 -56 -122 -48 -45 7 -53 -1 -61 -61 -4 -34
-11 -43 -40 -57 -60 -29 -63 -35 -40 -72 26 -43 26 -86 -1 -120 -26 -33 -20
-51 23 -65 40 -13 60 -42 68 -96 5 -35 8 -40 30 -37 85 10 99 7 135 -28 l35
-34 35 34 c36 35 50 38 135 28 21 -3 25 1 28 27 6 59 23 86 69 106 48 21 52
30 23 66 -26 33 -25 77 0 119 23 37 20 43 -40 72 -29 14 -36 23 -40 57 -9 61
-16 68 -66 60 -50 -7 -92 10 -118 49 -21 33 -31 33 -53 0z m147 -108 c22 -14
52 -45 67 -68 24 -36 28 -51 28 -118 0 -67 -4 -82 -28 -118 -40 -61 -93 -93
-166 -99 -138 -13 -241 81 -241 219 0 91 56 172 142 205 53 20 152 10 198 -21z"/>
<path d="M934 1151 c-108 -49 -133 -184 -50 -267 66 -66 166 -66 232 0 83 83
57 218 -50 267 -52 23 -80 23 -132 0z m94 -25 c2 -11 13 -27 25 -36 13 -11 18
-23 14 -35 -7 -16 -18 -17 -66 -4 -7 2 -16 -2 -18 -8 -3 -8 4 -13 15 -13 27 0
82 -47 82 -70 0 -10 -10 -31 -23 -47 -13 -15 -27 -36 -30 -46 -9 -24 -51 -19
-55 7 -2 11 -13 27 -25 36 -38 32 -3 65 43 40 12 -6 21 -6 25 -1 3 6 -15 19
-39 30 -57 25 -69 59 -37 99 12 15 26 37 31 50 12 29 53 27 58 -2z"/>
<path d="M1250 584 c-43 -41 -60 -64 -60 -83 0 -94 -149 -171 -330 -171 -95 0
-150 22 -150 60 0 30 26 35 56 11 35 -27 105 -28 210 -1 87 23 154 61 154 89
0 10 -9 26 -19 35 -18 17 -23 16 -93 -3 -114 -32 -177 -28 -265 15 -67 33 -79
36 -136 32 -35 -3 -84 -15 -109 -26 l-47 -20 25 -89 c13 -48 31 -115 40 -148
l15 -61 144 -18 c92 -12 174 -17 228 -14 132 9 175 36 341 219 75 82 136 155
136 163 0 20 -31 53 -58 61 -18 5 -34 -5 -82 -51z"/>
<path d="M271 591 c-30 -9 -56 -21 -58 -26 -4 -14 123 -485 135 -497 11 -11
130 18 151 38 12 10 5 45 -43 226 -79 296 -73 278 -104 277 -15 -1 -51 -9 -81
-18z"/>
</g>
</svg>
