<?xml version="1.0" standalone="no"?>
<!DOCTYPE svg PUBLIC "-//W3C//DTD SVG 20010904//EN"
 "http://www.w3.org/TR/2001/REC-SVG-20010904/DTD/svg10.dtd">
<svg version="1.0" xmlns="http://www.w3.org/2000/svg"
 width="200.000000pt" height="200.000000pt" viewBox="0 0 200.000000 200.000000"
 preserveAspectRatio="xMidYMid meet">
<metadata>
Created by potrace 1.16, written by Peter Selinger 2001-2019
</metadata>
<g transform="translate(0.000000,200.000000) scale(0.100000,-0.100000)"
fill="#000000" stroke="none">
<path d="M242 1500 c-18 -11 -41 -34 -52 -52 -19 -32 -20 -51 -20 -448 0 -397
1 -416 20 -448 33 -54 74 -72 163 -72 69 0 78 2 75 18 -3 14 -17 18 -78 22
-107 7 -140 36 -140 124 l0 46 790 0 790 0 0 -50 c0 -41 -5 -56 -29 -82 l-29
-33 -624 -5 c-583 -5 -623 -6 -626 -22 -3 -17 32 -18 620 -18 604 0 624 1 656
20 18 11 41 34 52 52 19 32 20 51 20 448 0 397 -1 416 -20 448 -11 18 -34 41
-52 52 -32 19 -52 20 -758 20 -706 0 -726 -1 -758 -20z m1514 -54 l34 -34 0
-341 0 -341 -790 0 -790 0 0 40 0 40 771 0 c728 0 770 1 767 18 -3 16 -49 17
-771 20 l-767 2 0 275 c0 174 4 283 11 298 6 13 23 31 37 40 25 15 94 16 746
17 l718 0 34 -34z"/>
<path d="M1364 1366 c-39 -39 -45 -86 -19 -136 22 -42 50 -53 141 -56 97 -2
136 15 160 72 19 45 4 104 -33 133 -22 18 -40 21 -120 21 -95 0 -95 0 -129
-34z m136 -26 c46 -46 11 -124 -55 -124 -27 0 -43 6 -56 23 -42 52 -10 121 56
121 22 0 43 -8 55 -20z m95 0 c28 -31 24 -79 -9 -107 -32 -28 -51 -30 -40 -5
13 31 16 89 5 111 -10 18 -9 21 7 21 10 0 27 -9 37 -20z"/>
<path d="M323 1363 c-18 -7 -16 -30 3 -37 20 -8 278 -8 298 0 21 8 21 30 0 38
-19 7 -283 7 -301 -1z"/>
<path d="M321 1251 c-8 -5 -11 -16 -8 -25 5 -14 28 -16 151 -16 79 0 151 3
160 6 21 8 21 30 0 38 -25 9 -287 7 -303 -3z"/>
</g>
</svg>
