<?xml version="1.0" standalone="no"?>
<!DOCTYPE svg PUBLIC "-//W3C//DTD SVG 20010904//EN"
 "http://www.w3.org/TR/2001/REC-SVG-20010904/DTD/svg10.dtd">
<svg version="1.0" xmlns="http://www.w3.org/2000/svg"
 width="200.000000pt" height="200.000000pt" viewBox="0 0 200.000000 200.000000"
 preserveAspectRatio="xMidYMid meet">
<metadata>
Created by potrace 1.16, written by Peter Selinger 2001-2019
</metadata>
<g transform="translate(0.000000,200.000000) scale(0.100000,-0.100000)"
fill="#000000" stroke="none">
<path d="M242 1500 c-18 -11 -41 -34 -52 -52 -19 -31 -20 -51 -20 -315 l0
-283 830 0 830 0 0 283 c0 264 -1 284 -20 315 -11 18 -34 41 -52 52 -32 19
-52 20 -758 20 -706 0 -726 -1 -758 -20z m1362 -114 c15 -9 34 -33 42 -53 13
-30 13 -41 2 -76 -20 -63 -52 -80 -151 -81 -94 -1 -124 10 -150 54 -34 58 -11
141 45 165 47 19 178 14 212 -9z m-964 -41 c0 -13 -25 -15 -165 -15 -140 0
-165 2 -165 15 0 13 25 15 165 15 140 0 165 -2 165 -15z m-2 -112 c-3 -16 -19
-18 -143 -21 -153 -3 -185 1 -185 23 0 13 26 15 166 15 152 0 165 -1 162 -17z"/>
<path d="M1390 1340 c-36 -36 -25 -92 22 -116 25 -13 35 -13 59 -3 79 32 59
139 -26 139 -22 0 -43 -8 -55 -20z"/>
<path d="M1551 1339 c11 -21 8 -80 -5 -111 -6 -13 -3 -15 13 -11 30 8 54 40
54 73 0 34 -28 70 -55 70 -16 0 -17 -3 -7 -21z"/>
<path d="M170 770 l0 -40 830 0 830 0 0 40 0 40 -830 0 -830 0 0 -40z"/>
<path d="M170 638 c0 -63 24 -109 72 -138 32 -19 52 -20 758 -20 706 0 726 1
758 20 48 29 72 75 72 138 l0 52 -830 0 -830 0 0 -52z"/>
</g>
</svg>
