<?xml version="1.0" standalone="no"?>
<!DOCTYPE svg PUBLIC "-//W3C//DTD SVG 20010904//EN"
 "http://www.w3.org/TR/2001/REC-SVG-20010904/DTD/svg10.dtd">
<svg version="1.0" xmlns="http://www.w3.org/2000/svg"
 width="200.000000pt" height="200.000000pt" viewBox="0 0 200.000000 200.000000"
 preserveAspectRatio="xMidYMid meet">
<metadata>
Created by potrace 1.16, written by Peter Selinger 2001-2019
</metadata>
<g transform="translate(0.000000,200.000000) scale(0.100000,-0.100000)"
fill="#000000" stroke="none">
<path d="M110 1250 l0 -490 600 0 c330 0 600 2 600 4 0 2 -7 20 -15 39 -29 71
-9 153 54 211 31 30 31 30 31 131 0 96 1 103 26 126 37 35 98 33 130 -4 23
-27 24 -35 24 -158 0 -83 4 -129 10 -129 6 0 24 10 40 22 l30 22 0 358 0 358
-765 0 -765 0 0 -490z m478 205 c4 -181 18 -166 -151 -163 l-142 3 -3 143 -3
143 148 -3 148 -3 3 -120z m449 99 c10 -25 -16 -34 -104 -34 -82 0 -100 7 -89
35 8 23 184 21 193 -1z m251 -116 c3 -17 -13 -18 -222 -18 -182 0 -226 3 -226
13 0 8 3 17 7 21 4 3 104 5 222 4 196 -3 216 -5 219 -20z m0 -110 c3 -17 -13
-18 -222 -18 -220 0 -226 1 -226 20 0 20 5 20 222 18 203 -3 223 -5 226 -20z
m-128 -268 c0 -20 -7 -20 -439 -20 -283 0 -442 4 -446 10 -3 6 -3 15 0 20 4 6
163 10 446 10 432 0 439 0 439 -20z m-795 -105 c0 -23 -5 -31 -22 -33 -19 -3
-23 1 -23 26 0 33 8 44 30 40 9 -2 15 -14 15 -33z m123 -3 c3 -27 0 -32 -17
-32 -17 0 -21 6 -21 36 0 28 3 35 18 32 11 -2 18 -14 20 -36z m127 3 c0 -23
-5 -31 -22 -33 -19 -3 -23 1 -23 26 0 33 8 44 30 40 9 -2 15 -14 15 -33z m123
-3 c3 -27 0 -32 -17 -32 -17 0 -21 6 -21 36 0 28 3 35 18 32 11 -2 18 -14 20
-36z m127 3 c0 -23 -5 -31 -22 -33 -19 -3 -23 1 -23 26 0 33 8 44 30 40 9 -2
15 -14 15 -33z m123 -3 c3 -27 0 -32 -17 -32 -17 0 -21 6 -21 36 0 28 3 35 18
32 11 -2 18 -14 20 -36z m127 3 c0 -23 -5 -31 -22 -33 -19 -3 -23 1 -23 26 0
33 8 44 30 40 9 -2 15 -14 15 -33z"/>
<path d="M340 1500 c0 -39 1 -40 35 -40 34 0 35 1 35 40 0 39 -1 40 -35 40
-34 0 -35 -1 -35 -40z"/>
<path d="M460 1440 l0 -100 40 0 40 0 0 100 0 100 -40 0 -40 0 0 -100z"/>
<path d="M340 1375 c0 -33 2 -35 35 -35 33 0 35 2 35 35 0 33 -2 35 -35 35
-33 0 -35 -2 -35 -35z"/>
<path d="M1670 1200 c0 -118 2 -140 15 -140 26 0 16 -21 -27 -61 -24 -21 -38
-38 -31 -39 13 0 47 -52 58 -87 11 -37 -23 -28 -38 10 -17 40 -38 58 -80 66
l-32 7 -3 134 c-3 151 -11 170 -68 170 -46 0 -54 -21 -54 -133 l0 -94 -39 -40
c-51 -52 -69 -108 -52 -165 15 -48 66 -104 102 -112 13 -3 37 -7 52 -11 16 -3
27 -11 24 -18 -4 -13 -25 -14 -75 -4 l-33 7 3 -88 3 -87 230 0 230 0 2 330 c2
249 0 336 -10 355 -11 22 -152 138 -169 139 -5 1 -8 -62 -8 -139z"/>
<path d="M777 652 l-57 -57 165 -165 165 -165 62 63 63 62 -160 160 c-88 88
-164 160 -170 160 -6 0 -36 -26 -68 -58z"/>
<path d="M190 595 l0 -95 109 0 c106 0 110 1 113 23 2 14 11 23 26 25 18 3 22
-1 22 -22 0 -24 4 -26 40 -26 36 0 40 2 40 26 0 21 4 25 23 22 14 -2 23 -11
25 -25 3 -20 9 -23 53 -23 l49 0 0 95 0 95 -250 0 -250 0 0 -95z"/>
<path d="M1330 395 l0 -95 295 0 295 0 0 95 0 95 -295 0 -295 0 0 -95z"/>
<path d="M310 375 l0 -95 115 0 115 0 0 26 c0 21 4 25 23 22 14 -2 23 -11 25
-25 3 -19 10 -23 37 -23 27 0 34 4 37 23 2 14 11 23 26 25 18 3 22 -1 22 -22
0 -24 3 -26 50 -26 l50 0 0 95 0 95 -250 0 -250 0 0 -95z"/>
</g>
</svg>
