<?xml version="1.0" standalone="no"?>
<!DOCTYPE svg PUBLIC "-//W3C//DTD SVG 20010904//EN"
 "http://www.w3.org/TR/2001/REC-SVG-20010904/DTD/svg10.dtd">
<svg version="1.0" xmlns="http://www.w3.org/2000/svg"
 width="200.000000pt" height="200.000000pt" viewBox="0 0 200.000000 200.000000"
 preserveAspectRatio="xMidYMid meet">
<metadata>
Created by potrace 1.16, written by Peter Selinger 2001-2019
</metadata>
<g transform="translate(0.000000,200.000000) scale(0.100000,-0.100000)"
fill="#000000" stroke="none">
<path d="M115 1728 c-3 -7 -4 -227 -3 -488 l3 -475 599 -3 c714 -3 646 13 646
-143 l0 -98 -27 -3 -28 -3 0 -125 0 -125 320 0 320 0 0 125 0 125 -27 3 -28 3
0 330 c0 260 -3 337 -14 363 -10 24 -42 53 -107 100 l-94 67 -5 177 -5 177
-773 3 c-613 2 -774 0 -777 -10z m1525 -366 l0 -338 -30 -22 c-16 -12 -34 -22
-40 -22 -6 0 -10 46 -10 129 0 123 -1 131 -24 158 -33 38 -95 39 -132 1 -25
-24 -27 -35 -32 -130 -4 -93 -7 -105 -29 -126 -41 -37 -66 -108 -60 -164 l6
-48 -574 0 -575 0 0 450 0 450 750 0 750 0 0 -338z m120 -80 c41 -31 80 -68
87 -82 9 -19 13 -109 13 -352 l0 -328 -235 0 -235 0 0 85 0 84 33 -6 c50 -10
70 -9 74 5 3 7 -4 12 -19 12 -36 1 -102 35 -126 65 -57 73 -50 158 19 228 l39
40 0 94 c0 112 8 133 54 133 57 0 65 -19 68 -170 l3 -134 32 -7 c42 -8 63 -26
80 -66 15 -38 49 -47 38 -10 -10 32 -44 85 -57 89 -6 2 7 19 30 38 43 34 54
60 27 60 -13 0 -15 22 -15 140 0 77 3 140 8 140 4 -1 41 -27 82 -58z m160
-892 l0 -90 -295 0 -295 0 0 90 0 90 295 0 295 0 0 -90z"/>
<path d="M300 1440 l0 -141 138 3 137 3 0 135 0 135 -137 3 -138 3 0 -141z
m120 60 l0 -50 -45 0 -45 0 0 50 0 50 45 0 45 0 0 -50z m130 -60 l0 -110 -50
0 -50 0 0 110 0 110 50 0 50 0 0 -110z m-130 -65 l0 -45 -45 0 -45 0 0 45 0
45 45 0 45 0 0 -45z"/>
<path d="M845 1550 c-10 -16 17 -21 100 -18 52 2 80 7 83 16 5 15 -173 17
-183 2z"/>
<path d="M845 1440 c-11 -18 18 -20 224 -18 153 2 205 6 209 16 5 15 -423 18
-433 2z"/>
<path d="M850 1335 c-20 -24 -1 -26 220 -23 174 3 205 5 205 18 0 23 -406 28
-425 5z"/>
<path d="M287 1073 c-4 -3 -7 -10 -7 -15 0 -4 197 -7 438 -6 283 2 437 7 437
13 0 11 -857 20 -868 8z"/>
<path d="M334 977 c-7 -20 -2 -47 11 -50 14 -3 19 43 6 56 -7 7 -12 6 -17 -6z"/>
<path d="M584 977 c-7 -20 -2 -47 11 -50 14 -3 19 43 6 56 -7 7 -12 6 -17 -6z"/>
<path d="M834 977 c-7 -20 -2 -47 11 -50 14 -3 19 43 6 56 -7 7 -12 6 -17 -6z"/>
<path d="M1084 977 c-7 -20 -2 -47 11 -50 14 -3 19 43 6 56 -7 7 -12 6 -17 -6z"/>
<path d="M452 953 c4 -39 28 -42 28 -4 0 21 -5 31 -16 31 -11 0 -14 -8 -12
-27z"/>
<path d="M702 953 c4 -39 28 -42 28 -4 0 21 -5 31 -16 31 -11 0 -14 -8 -12
-27z"/>
<path d="M952 953 c4 -39 28 -42 28 -4 0 21 -5 31 -16 31 -11 0 -14 -8 -12
-27z"/>
<path d="M698 659 l-58 -60 0 35 0 36 -235 0 -235 0 0 -89 0 -90 -27 -3 -28
-3 0 -110 0 -110 210 -3 c116 -1 220 0 233 3 21 5 22 10 22 95 l0 89 28 3 c25
3 27 7 30 52 l3 49 140 -139 139 -139 70 70 c38 38 70 74 70 80 0 13 -282 295
-295 295 -5 0 -35 -27 -67 -61z m274 -291 l-52 -53 -125 125 c-69 69 -125 129
-125 135 0 5 21 31 47 57 l48 48 130 -130 130 -130 -53 -52z m-362 197 l0 -75
-44 0 c-35 0 -45 4 -49 20 -3 11 -10 20 -17 20 -7 0 -14 -9 -17 -20 -4 -14
-14 -20 -34 -20 -22 0 -29 5 -29 20 0 11 -7 20 -15 20 -8 0 -15 -9 -15 -20 0
-19 -7 -20 -95 -20 l-95 0 0 75 0 75 205 0 205 0 0 -75z m-60 -190 l0 -75 -94
0 c-88 0 -95 2 -98 20 -4 27 -22 27 -26 0 -5 -28 -57 -28 -65 0 -3 11 -10 20
-17 20 -7 0 -14 -9 -17 -20 -4 -16 -14 -20 -49 -20 l-44 0 0 75 0 75 205 0
205 0 0 -75z"/>
</g>
</svg>
