<?xml version="1.0" standalone="no"?>
<!DOCTYPE svg PUBLIC "-//W3C//DTD SVG 20010904//EN"
 "http://www.w3.org/TR/2001/REC-SVG-20010904/DTD/svg10.dtd">
<svg version="1.0" xmlns="http://www.w3.org/2000/svg"
 width="200.000000pt" height="200.000000pt" viewBox="0 0 200.000000 200.000000"
 preserveAspectRatio="xMidYMid meet">
<metadata>
Created by potrace 1.16, written by Peter Selinger 2001-2019
</metadata>
<g transform="translate(0.000000,200.000000) scale(0.100000,-0.100000)"
fill="#000000" stroke="none">
<path d="M144 1576 c-45 -20 -64 -68 -64 -165 0 -152 34 -184 192 -179 75 2
93 6 93 18 0 12 -20 16 -107 18 -102 3 -108 4 -128 29 -17 21 -20 40 -20 115
0 86 1 91 29 119 l29 29 176 0 176 0 2 -572 3 -573 475 0 475 0 3 573 2 572
176 0 176 0 29 -29 c28 -28 29 -33 29 -119 0 -75 -3 -94 -20 -115 -20 -25 -26
-26 -128 -29 -87 -2 -107 -6 -107 -18 0 -12 18 -16 93 -18 156 -5 192 28 192
178 0 100 -18 146 -66 166 -48 20 -1664 20 -1710 0z m976 -576 l0 -560 -285 0
-285 0 0 560 0 560 285 0 285 0 0 -560z m160 0 l0 -560 -65 0 -65 0 0 560 0
560 65 0 65 0 0 -560z"/>
<path d="M759 942 c-24 -22 -31 -36 -31 -66 0 -50 10 -58 55 -44 27 8 46 8 74
0 20 -6 40 -9 44 -7 16 11 19 58 4 89 -29 60 -95 73 -146 28z"/>
<path d="M761 783 c-66 -61 -30 -163 56 -163 48 0 78 21 93 64 13 41 2 75 -36
105 -37 29 -77 27 -113 -6z"/>
</g>
</svg>
