<?xml version="1.0" standalone="no"?>
<!DOCTYPE svg PUBLIC "-//W3C//DTD SVG 20010904//EN"
 "http://www.w3.org/TR/2001/REC-SVG-20010904/DTD/svg10.dtd">
<svg version="1.0" xmlns="http://www.w3.org/2000/svg"
 width="200.000000pt" height="200.000000pt" viewBox="0 0 200.000000 200.000000"
 preserveAspectRatio="xMidYMid meet">
<metadata>
Created by potrace 1.16, written by Peter Selinger 2001-2019
</metadata>
<g transform="translate(0.000000,200.000000) scale(0.100000,-0.100000)"
fill="#000000" stroke="none">
<path d="M164 1826 c-17 -8 -42 -29 -55 -47 l-24 -34 -3 -784 c-1 -503 1 -788
7 -794 7 -7 35 15 83 61 l73 71 72 -71 72 -71 73 71 73 71 72 -71 72 -71 73
71 73 71 72 -71 72 -71 73 71 74 72 69 -70 c38 -39 73 -70 77 -70 5 0 8 167 8
370 l0 370 253 0 c224 0 257 2 293 19 47 21 77 59 93 116 15 54 15 431 0 441
-6 3 -30 -8 -52 -25 -23 -17 -59 -42 -79 -57 l-37 -26 -69 51 -70 51 -4 118
c-5 123 -15 157 -60 199 -57 54 -48 53 -720 53 -501 -1 -629 -3 -654 -14z
m1134 -43 c-55 -60 -53 -22 -58 -821 l-5 -743 -59 60 -59 60 -76 -69 -76 -70
-70 70 -70 69 -75 -69 -75 -68 -71 70 -72 70 -73 -70 -74 -71 -72 71 -72 71
-65 -63 -66 -63 0 747 c0 659 2 752 16 781 31 66 19 65 638 65 l560 0 -26 -27z
m201 0 c13 -11 34 -32 45 -47 20 -26 21 -44 26 -374 5 -352 7 -371 44 -402 9
-7 16 -17 16 -21 0 -6 -77 -8 -177 -7 l-178 3 -3 335 c-3 376 0 425 31 472 45
66 136 85 196 41z"/>
<path d="M667 1663 c-4 -3 -7 -21 -7 -38 0 -28 -4 -33 -32 -39 -49 -10 -115
-84 -123 -139 -13 -88 29 -163 114 -202 l41 -18 0 -163 0 -163 -30 10 c-40 14
-88 71 -96 114 -6 33 -34 51 -34 23 0 -64 59 -143 122 -164 27 -9 34 -17 38
-44 7 -47 28 -50 32 -5 3 33 7 38 41 50 74 25 118 86 119 164 0 86 -36 138
-129 185 l-33 17 0 154 c0 173 1 176 68 135 32 -20 55 -59 67 -112 8 -40 25
-34 25 7 0 66 -47 126 -117 150 -34 11 -38 17 -41 49 -3 34 -11 44 -25 29z
m-7 -253 c0 -85 -4 -150 -9 -150 -5 0 -29 15 -53 33 -82 62 -89 158 -18 229
21 21 47 38 59 38 20 0 21 -4 21 -150z m68 -214 c100 -52 125 -174 52 -251
-24 -25 -74 -47 -84 -38 -8 8 -8 303 -1 303 4 0 18 -6 33 -14z"/>
<path d="M350 665 c0 -13 40 -15 327 -13 250 2 327 6 331 16 3 9 -67 12 -327
12 -289 0 -331 -2 -331 -15z"/>
<path d="M240 550 c-42 -27 15 -30 441 -28 378 3 434 5 434 18 0 13 -56 15
-430 17 -259 2 -436 -1 -445 -7z"/>
</g>
</svg>
