<?xml version="1.0" standalone="no"?>
<!DOCTYPE svg PUBLIC "-//W3C//DTD SVG 20010904//EN"
 "http://www.w3.org/TR/2001/REC-SVG-20010904/DTD/svg10.dtd">
<svg version="1.0" xmlns="http://www.w3.org/2000/svg"
 width="200.000000pt" height="200.000000pt" viewBox="0 0 200.000000 200.000000"
 preserveAspectRatio="xMidYMid meet">
<metadata>
Created by potrace 1.16, written by Peter Selinger 2001-2019
</metadata>
<g transform="translate(0.000000,200.000000) scale(0.100000,-0.100000)"
fill="#000000" stroke="none">
<path d="M300 1800 l0 -100 -100 0 -100 0 0 -800 0 -800 520 0 520 0 0 90 0
90 380 0 380 0 0 620 0 620 -380 0 -380 0 0 90 0 90 -100 0 -100 0 0 100 0
100 -320 0 -320 0 0 -100z m520 -300 l0 -280 -200 0 -200 0 0 280 0 280 200 0
200 0 0 -280z m-520 -160 l0 -240 320 0 320 0 0 240 0 240 40 0 40 0 0 -680 0
-680 -400 0 -400 0 0 680 0 680 40 0 40 0 0 -240z m1480 -440 l0 -500 -320 0
-320 0 0 500 0 500 320 0 320 0 0 -500z"/>
<path d="M480 1660 l0 -60 140 0 140 0 0 60 0 60 -140 0 -140 0 0 -60z"/>
<path d="M480 1500 l0 -60 140 0 140 0 0 60 0 60 -140 0 -140 0 0 -60z"/>
<path d="M480 1340 l0 -60 140 0 140 0 0 60 0 60 -140 0 -140 0 0 -60z"/>
<path d="M300 660 l0 -360 320 0 320 0 0 360 0 360 -320 0 -320 0 0 -360z
m520 0 l0 -240 -200 0 -200 0 0 240 0 240 200 0 200 0 0 -240z"/>
<path d="M1400 1217 c0 -16 -12 -31 -37 -48 -44 -28 -83 -97 -83 -147 0 -63
61 -148 123 -171 16 -6 45 -11 65 -11 55 0 62 -9 52 -55 -14 -63 -61 -84 -100
-45 -11 11 -20 25 -20 30 0 6 -27 10 -60 10 -51 0 -60 -3 -60 -17 1 -39 40
-102 79 -129 29 -19 41 -34 41 -50 0 -23 4 -24 60 -24 57 0 60 1 60 24 0 17
10 30 35 45 65 38 97 121 76 192 -24 79 -101 139 -180 139 -56 0 -65 10 -51
58 6 24 20 46 31 53 29 15 68 3 81 -26 10 -22 17 -25 70 -25 49 0 58 3 58 18
-1 38 -40 101 -79 128 -29 19 -41 34 -41 50 0 23 -4 24 -60 24 -56 0 -60 -1
-60 -23z"/>
</g>
</svg>
