<?xml version="1.0" standalone="no"?>
<!DOCTYPE svg PUBLIC "-//W3C//DTD SVG 20010904//EN"
 "http://www.w3.org/TR/2001/REC-SVG-20010904/DTD/svg10.dtd">
<svg version="1.0" xmlns="http://www.w3.org/2000/svg"
 width="200.000000pt" height="200.000000pt" viewBox="0 0 200.000000 200.000000"
 preserveAspectRatio="xMidYMid meet">
<metadata>
Created by potrace 1.16, written by Peter Selinger 2001-2019
</metadata>
<g transform="translate(0.000000,200.000000) scale(0.100000,-0.100000)"
fill="#000000" stroke="none">
<path d="M746 1929 l-26 -20 0 -348 c0 -297 2 -350 16 -369 l15 -22 575 0
c378 0 582 4 595 10 18 10 19 25 19 375 l0 364 -22 15 c-20 14 -92 16 -584 16
-553 0 -562 0 -588 -21z m1084 -209 l0 -110 -90 0 c-77 0 -93 -3 -110 -20 -24
-24 -25 -47 -3 -72 13 -15 32 -18 110 -18 l93 0 0 -110 0 -110 -500 0 -500 0
0 110 0 110 93 0 c105 0 130 10 130 55 0 45 -25 55 -130 55 l-93 0 0 110 0
110 500 0 500 0 0 -110z"/>
<path d="M1266 1766 c-151 -56 -203 -230 -104 -350 92 -112 275 -105 353 13
49 73 48 180 0 253 -50 76 -166 115 -249 84z m108 -110 c45 -19 66 -52 66
-104 0 -62 -40 -102 -103 -102 -118 0 -156 131 -58 197 40 27 50 28 95 9z"/>
<path d="M341 1593 c-61 -22 -133 -96 -154 -158 -13 -37 -17 -85 -17 -203 0
-150 -1 -155 -18 -139 -36 32 -92 13 -92 -30 0 -31 113 -208 142 -224 10 -6
27 -7 38 -4 21 7 150 199 150 225 0 42 -64 65 -95 34 -15 -16 -16 -5 -13 142
3 148 5 161 26 192 38 53 88 72 185 72 69 0 87 3 100 18 22 24 21 55 -1 75
-25 23 -188 22 -251 0z"/>
<path d="M1309 1050 c-28 -16 -139 -194 -139 -223 0 -44 56 -62 93 -30 19 18
19 15 15 -137 -3 -141 -5 -158 -26 -192 -39 -63 -86 -78 -245 -78 -124 0 -139
-2 -157 -20 -24 -24 -25 -38 -4 -68 15 -21 21 -22 172 -22 144 0 161 2 207 24
65 30 131 104 150 169 10 35 15 96 15 195 0 140 1 145 18 129 10 -10 28 -17
39 -17 24 0 53 30 53 53 0 26 -122 204 -148 216 -27 13 -23 13 -43 1z"/>
<path d="M72 708 c-9 -9 -12 -94 -12 -320 l0 -308 24 -15 c21 -14 64 -15 313
-13 228 2 294 6 306 17 15 12 17 47 17 317 0 262 -2 305 -16 318 -13 14 -56
16 -318 16 -221 0 -305 -3 -314 -12z m258 -154 c0 -61 10 -88 41 -104 16 -9
26 -8 45 5 22 14 24 22 24 85 l0 70 85 0 85 0 0 -220 0 -220 -220 0 -220 0 0
220 0 220 80 0 80 0 0 -56z"/>
</g>
</svg>
