<?xml version="1.0" standalone="no"?>
<!DOCTYPE svg PUBLIC "-//W3C//DTD SVG 20010904//EN"
 "http://www.w3.org/TR/2001/REC-SVG-20010904/DTD/svg10.dtd">
<svg version="1.0" xmlns="http://www.w3.org/2000/svg"
 width="200.000000pt" height="200.000000pt" viewBox="0 0 200.000000 200.000000"
 preserveAspectRatio="xMidYMid meet">
<metadata>
Created by potrace 1.16, written by Peter Selinger 2001-2019
</metadata>
<g transform="translate(0.000000,200.000000) scale(0.100000,-0.100000)"
fill="#000000" stroke="none">
<path d="M1145 1796 c-16 -8 -42 -26 -57 -42 -35 -38 -98 -145 -98 -166 0 -9
-16 -25 -35 -37 -67 -39 -75 -65 -75 -248 0 -90 -1 -163 -3 -163 -2 0 -24 7
-50 16 -35 12 -55 28 -81 63 l-35 47 15 44 c39 113 -44 230 -163 230 -63 0
-99 -16 -141 -64 -55 -63 -53 -158 6 -228 50 -59 131 -74 211 -38 49 22 46 24
90 -45 14 -22 38 -36 85 -53 l66 -24 0 -94 0 -94 -215 0 c-203 0 -215 1 -215
18 0 30 -54 97 -93 115 -78 38 -178 12 -226 -58 -92 -135 47 -317 202 -266 41
14 103 78 113 116 l6 25 214 0 214 0 0 -89 0 -89 -65 -24 c-56 -19 -70 -30
-98 -70 -17 -27 -34 -48 -37 -48 -3 0 -23 9 -45 20 -49 25 -98 25 -151 1 -128
-58 -136 -227 -15 -308 47 -32 135 -32 182 0 72 49 102 130 75 207 l-15 44 35
47 c26 35 46 51 81 63 26 9 48 16 50 16 2 0 3 -73 3 -162 0 -182 8 -208 72
-248 32 -20 48 -20 443 -18 406 3 410 3 441 25 66 47 65 29 62 675 l-3 583
-23 32 c-12 17 -35 37 -51 44 -19 9 -31 23 -35 41 -3 16 -29 62 -57 104 -75
111 -82 114 -344 113 -154 0 -218 -3 -240 -13z m490 -58 c31 -24 105 -133 105
-155 0 -11 -64 -13 -355 -13 -195 0 -355 4 -355 9 0 20 99 157 121 168 16 8
98 12 240 12 208 1 217 0 244 -21z m189 -249 l26 -31 0 -578 0 -578 -26 -31
-26 -31 -405 0 c-258 0 -411 4 -424 10 -49 27 -49 30 -49 630 0 597 0 602 47
629 12 7 167 11 425 11 l406 0 26 -31z m-1189 -17 c126 -94 11 -293 -131 -226
-97 46 -99 189 -3 237 40 20 99 16 134 -11z m-296 -480 c118 -64 75 -242 -58
-242 -82 0 -130 48 -131 130 0 52 18 83 64 111 39 24 82 24 125 1z m307 -505
c89 -82 31 -227 -91 -227 -68 0 -125 63 -125 139 0 37 6 49 39 82 35 35 44 39
90 39 44 0 56 -5 87 -33z"/>
<path d="M1129 1369 c-50 -19 -61 -59 -57 -212 3 -138 3 -139 31 -163 l28 -24
258 0 258 0 27 26 c26 26 26 28 26 175 0 142 -1 149 -24 176 l-24 28 -249 2
c-143 1 -259 -2 -274 -8z m521 -58 c5 -11 10 -76 10 -145 0 -169 20 -158 -284
-154 -197 2 -238 6 -246 18 -15 23 -13 273 2 288 9 9 80 12 260 12 234 0 248
-1 258 -19z"/>
<path d="M1090 800 c0 -19 5 -21 48 -18 34 2 47 7 47 18 0 11 -13 16 -47 18
-43 3 -48 1 -48 -18z"/>
<path d="M1340 800 c0 -19 5 -21 48 -18 34 2 47 7 47 18 0 11 -13 16 -47 18
-43 3 -48 1 -48 -18z"/>
<path d="M1595 810 c-12 -19 10 -32 51 -28 27 2 39 8 39 18 0 19 -79 27 -90
10z"/>
<path d="M1090 610 c0 -19 5 -21 48 -18 34 2 47 7 47 18 0 11 -13 16 -47 18
-43 3 -48 1 -48 -18z"/>
<path d="M1340 610 c0 -19 5 -21 48 -18 34 2 47 7 47 18 0 11 -13 16 -47 18
-43 3 -48 1 -48 -18z"/>
<path d="M1595 620 c-12 -19 10 -32 51 -28 27 2 39 8 39 18 0 19 -79 27 -90
10z"/>
<path d="M1101 441 c-26 -17 -4 -41 38 -41 46 0 62 17 36 37 -21 15 -54 17
-74 4z"/>
<path d="M1351 441 c-26 -17 -4 -41 38 -41 46 0 62 17 36 37 -21 15 -54 17
-74 4z"/>
<path d="M1601 441 c-26 -17 -4 -41 38 -41 46 0 62 17 36 37 -21 15 -54 17
-74 4z"/>
</g>
</svg>
