<?xml version="1.0" standalone="no"?>
<!DOCTYPE svg PUBLIC "-//W3C//DTD SVG 20010904//EN"
 "http://www.w3.org/TR/2001/REC-SVG-20010904/DTD/svg10.dtd">
<svg version="1.0" xmlns="http://www.w3.org/2000/svg"
 width="200.000000pt" height="200.000000pt" viewBox="0 0 200.000000 200.000000"
 preserveAspectRatio="xMidYMid meet">
<metadata>
Created by potrace 1.16, written by Peter Selinger 2001-2019
</metadata>
<g transform="translate(0.000000,200.000000) scale(0.100000,-0.100000)"
fill="#000000" stroke="none">
<path d="M267 1478 c-109 -238 -197 -441 -197 -451 0 -11 19 -26 58 -43 31
-14 77 -35 102 -46 l45 -21 -35 -9 c-46 -12 -88 -53 -101 -98 -6 -22 -9 -146
-7 -332 3 -282 4 -298 24 -325 11 -15 36 -36 55 -46 31 -16 73 -17 531 -15
484 3 497 4 525 24 15 11 36 36 46 55 l17 36 62 -31 c194 -96 439 7 504 213
42 134 10 267 -90 367 l-62 61 93 203 c51 111 93 210 93 220 0 13 -166 93
-719 344 -395 179 -725 326 -733 326 -10 0 -83 -149 -211 -432z m1560 -243
l31 -13 -86 -191 c-77 -171 -88 -190 -106 -185 -12 3 -24 9 -29 13 -4 4 11 47
33 94 22 48 40 93 40 100 0 7 -14 25 -31 40 -29 25 -31 32 -26 73 4 38 1 47
-17 59 -26 17 -995 455 -1006 455 -5 0 -17 -12 -28 -27 -17 -23 -30 -28 -78
-33 l-57 -5 -88 -190 c-48 -104 -88 -197 -88 -205 -1 -8 13 -28 30 -44 27 -26
30 -35 27 -75 l-3 -46 55 -28 c30 -15 93 -45 140 -67 l85 -39 -100 0 -100 -1
-137 62 c-76 34 -138 67 -138 73 0 6 75 175 166 375 91 201 170 375 174 387 9
21 35 10 657 -274 356 -162 662 -300 680 -308z m-705 156 c355 -161 463 -214
464 -228 3 -52 6 -63 28 -95 l23 -35 -41 -84 -41 -84 -55 -6 c-57 -7 -97 -21
-141 -51 l-26 -17 -18 39 c-11 24 -33 50 -54 63 -34 20 -51 22 -266 28 l-230
5 -175 82 c-162 75 -175 83 -177 109 -4 46 -11 67 -32 90 l-20 21 72 160 72
160 42 4 c23 3 54 15 70 26 15 12 31 22 35 22 4 0 215 -94 470 -209z m442
-647 c10 -4 16 -18 16 -40 0 -33 0 -33 53 -36 48 -3 52 -5 52 -28 0 -25 -1
-25 -100 -30 -108 -5 -125 -11 -125 -40 0 -29 31 -40 110 -40 66 0 74 -2 101
-29 31 -31 39 -83 19 -122 -12 -22 -61 -49 -89 -49 -15 0 -20 -8 -23 -32 -2
-28 -7 -33 -28 -33 -21 0 -26 5 -28 33 -3 31 -5 32 -46 32 -46 0 -72 19 -62
45 4 12 24 15 90 15 97 0 136 11 136 39 0 31 -20 39 -108 43 -77 3 -86 5 -108
31 -53 61 -11 167 65 167 27 0 31 3 31 28 0 15 5 33 12 40 14 14 12 14 32 6z
m-359 -131 c-4 -10 -9 -33 -12 -51 l-6 -32 -496 2 -496 3 -3 33 c-7 66 -42 62
514 62 478 0 506 -1 499 -17z"/>
<path d="M1048 1310 c-10 -15 -24 -20 -55 -20 -58 0 -95 -32 -95 -83 0 -48 22
-72 90 -103 52 -23 68 -49 37 -61 -9 -3 -47 9 -86 27 -56 26 -73 30 -84 20
-24 -20 -17 -39 20 -61 27 -16 33 -24 26 -38 -12 -22 4 -51 29 -51 10 0 21 9
25 20 5 16 14 19 50 18 57 -3 95 29 95 79 0 51 -15 70 -80 103 -57 29 -73 51
-49 65 6 4 44 -8 85 -26 69 -29 76 -31 91 -16 21 21 10 46 -27 58 -32 12 -35
16 -21 38 12 18 -4 51 -24 51 -8 0 -20 -9 -27 -20z"/>
</g>
</svg>
