<?xml version="1.0" standalone="no"?>
<!DOCTYPE svg PUBLIC "-//W3C//DTD SVG 20010904//EN"
 "http://www.w3.org/TR/2001/REC-SVG-20010904/DTD/svg10.dtd">
<svg version="1.0" xmlns="http://www.w3.org/2000/svg"
 width="200.000000pt" height="200.000000pt" viewBox="0 0 200.000000 200.000000"
 preserveAspectRatio="xMidYMid meet">
<metadata>
Created by potrace 1.16, written by Peter Selinger 2001-2019
</metadata>
<g transform="translate(0.000000,200.000000) scale(0.100000,-0.100000)"
fill="#000000" stroke="none">
<path d="M273 1940 l-23 -9 0 -441 0 -440 -22 0 c-33 0 -85 -35 -108 -72 -19
-31 -20 -51 -20 -341 0 -346 2 -358 69 -399 36 -23 37 -23 520 -26 l484 -3 51
-46 c203 -183 516 -122 637 123 57 116 50 265 -18 381 -33 57 -111 126 -181
160 -52 25 -67 28 -162 28 -75 -1 -116 -6 -142 -17 l-38 -17 0 37 c0 20 -3 47
-6 60 l-6 22 279 0 c204 0 282 3 291 12 9 9 12 133 12 495 l0 483 -26 10 c-33
13 -1560 12 -1591 0z m1279 -270 c9 -17 33 -40 53 -51 l35 -21 0 -153 0 -153
-34 -20 c-18 -11 -42 -34 -52 -51 l-18 -31 -467 0 -467 0 -20 34 c-11 18 -34
40 -51 47 l-31 14 0 156 0 157 34 20 c19 11 42 34 51 51 l16 31 467 0 467 0
17 -30z m-326 -713 c18 -22 24 -40 24 -78 l0 -49 -545 0 -545 0 0 48 c0 52 19
88 54 102 11 5 239 8 504 7 l484 -2 24 -28z m304 -267 c5 -34 6 -35 60 -40 51
-5 55 -7 55 -30 0 -25 -1 -25 -112 -30 -64 -3 -117 -10 -123 -16 -18 -18 -7
-57 20 -71 14 -7 59 -13 101 -13 71 0 77 -2 105 -31 61 -64 22 -174 -65 -181
-34 -3 -36 -5 -39 -40 -5 -63 -58 -59 -64 5 -3 31 -5 32 -58 37 -43 4 -56 9
-58 24 -6 29 16 36 124 36 105 0 124 7 124 45 0 36 -20 45 -98 45 -90 0 -134
18 -156 65 -20 41 -20 58 -1 95 20 39 53 60 92 60 31 0 33 2 33 33 0 40 7 49
35 45 14 -2 21 -12 25 -38z m-415 -107 c-26 -66 -23 -194 5 -269 6 -14 10 -27
10 -30 0 -2 -207 -4 -459 -4 l-459 0 -26 31 c-25 29 -26 35 -26 160 l0 129
481 0 c454 0 481 -1 474 -17z"/>
<path d="M1047 1644 c-4 -4 -7 -18 -7 -31 0 -18 -5 -23 -25 -23 -29 0 -74 -40
-76 -67 -3 -45 14 -87 40 -99 9 -4 48 -10 86 -13 61 -5 70 -8 70 -26 0 -18 -8
-20 -70 -23 -100 -3 -115 -8 -115 -36 0 -26 17 -36 60 -36 24 0 29 -5 32 -27
2 -22 8 -28 28 -28 20 0 26 6 28 27 2 20 10 28 32 33 60 13 90 92 55 142 -18
26 -72 43 -133 43 -29 0 -44 5 -49 15 -9 25 3 30 95 35 85 5 87 6 87 30 0 22
-5 25 -42 28 -37 3 -42 6 -45 30 -3 26 -34 42 -51 26z"/>
</g>
</svg>
