<?xml version="1.0" standalone="no"?>
<!DOCTYPE svg PUBLIC "-//W3C//DTD SVG 20010904//EN"
 "http://www.w3.org/TR/2001/REC-SVG-20010904/DTD/svg10.dtd">
<svg version="1.0" xmlns="http://www.w3.org/2000/svg"
 width="200.000000pt" height="200.000000pt" viewBox="0 0 200.000000 200.000000"
 preserveAspectRatio="xMidYMid meet">
<metadata>
Created by potrace 1.16, written by Peter Selinger 2001-2019
</metadata>
<g transform="translate(0.000000,200.000000) scale(0.100000,-0.100000)"
fill="#000000" stroke="none">
<path d="M849 1670 c-45 -23 -61 -53 -25 -44 16 4 46 -5 87 -25 35 -17 74 -31
86 -31 35 0 36 -16 2 -49 -22 -22 -29 -36 -24 -49 4 -9 10 -29 13 -44 3 -21
10 -28 27 -28 13 0 30 -3 39 -6 11 -4 23 9 42 49 31 64 28 90 -17 142 -17 19
-28 39 -24 45 9 15 -93 60 -135 59 -19 0 -51 -9 -71 -19z"/>
<path d="M1422 1617 c-33 -35 -53 -104 -55 -193 l-2 -81 -27 20 c-31 23 -49
20 -148 -24 -66 -30 -93 -60 -67 -76 19 -12 76 -4 116 17 46 23 51 24 51 10 0
-18 -84 -53 -128 -53 -30 0 -49 6 -66 22 -19 18 -33 22 -77 19 l-54 -3 0 -190
0 -190 108 -3 c137 -3 143 -22 6 -22 -129 0 -139 5 -139 74 l0 54 -37 -19
c-47 -24 -90 -24 -126 -1 -31 21 -77 80 -77 99 0 16 -35 30 -107 45 -105 21
-148 -5 -226 -139 -69 -117 -104 -203 -87 -213 10 -6 -7 -56 -78 -222 -51
-117 -92 -219 -92 -225 0 -10 28 -13 105 -13 89 0 106 3 113 18 5 9 35 100 67
200 44 139 55 186 46 192 -7 4 -37 13 -67 20 -50 12 -72 25 -62 35 2 2 35 -5
72 -16 38 -11 72 -17 76 -12 4 4 15 32 25 61 9 28 21 52 26 52 5 0 9 -3 9 -7
0 -4 -38 -125 -85 -269 -47 -144 -85 -265 -85 -268 0 -4 156 -5 346 -4 l347 3
57 218 c32 120 60 220 63 223 2 3 20 -4 38 -15 46 -28 56 -26 79 12 25 40 25
57 1 57 -26 0 -71 48 -71 76 0 22 4 24 48 23 60 -1 94 -11 100 -28 3 -10 0
-12 -14 -6 -29 12 -114 19 -114 9 1 -17 27 -43 51 -52 30 -12 75 1 105 29 24
22 24 22 46 3 140 -119 203 -184 168 -172 -5 2 -48 38 -95 82 l-86 78 -45 -23
c-25 -13 -50 -35 -55 -48 -5 -13 -18 -36 -29 -52 l-20 -28 126 -67 c243 -128
418 -193 472 -173 65 24 -20 225 -156 371 l-26 28 3 205 c2 149 -1 210 -9 220
-14 17 -56 20 -65 5 -4 -6 -65 -10 -150 -10 -85 0 -146 4 -150 10 -4 7 48 10
148 10 l154 0 1 43 c0 23 8 59 17 81 29 69 -24 76 -70 8 l-24 -36 6 40 c3 21
12 59 19 84 12 39 11 47 -2 60 -14 13 -19 11 -49 -23 -18 -21 -38 -55 -44 -75
-9 -31 -10 -23 -8 57 2 102 -5 116 -41 78z m-302 -492 l0 -65 -60 0 -60 0 0
65 0 65 60 0 60 0 0 -65z m495 25 c-3 -5 -21 -10 -40 -10 -19 0 -37 5 -40 10
-4 6 12 10 40 10 28 0 44 -4 40 -10z m-52 -27 c-34 -2 -93 -2 -130 0 -37 2 -9
3 62 3 72 0 102 -1 68 -3z m57 -23 c0 -5 -20 -10 -45 -10 -25 0 -45 5 -45 10
0 6 20 10 45 10 25 0 45 -4 45 -10z m-5 -30 c-4 -6 -57 -10 -126 -10 -73 0
-119 4 -119 10 0 6 49 10 126 10 81 0 123 -4 119 -10z m-492 -92 c4 -10 7 -10
18 0 20 18 98 16 106 -4 3 -9 0 -20 -8 -25 -20 -12 -97 -11 -105 2 -4 8 -9 8
-17 0 -13 -13 -94 -15 -101 -2 -4 5 -3 16 0 25 8 20 100 23 107 4z m242 -13
c0 -17 -8 -20 -52 -23 -46 -3 -53 -1 -53 16 0 28 10 33 60 30 37 -3 45 -6 45
-23z m121 14 c4 -8 9 -8 17 0 16 16 104 14 110 -3 3 -7 0 -19 -6 -25 -14 -14
-94 -14 -103 0 -4 8 -9 8 -17 0 -14 -14 -94 -14 -102 -1 -4 6 -4 17 -1 25 6
18 91 21 102 4z m169 -99 c-3 -6 -48 -10 -101 -10 -56 0 -94 4 -94 10 0 6 40
10 101 10 64 0 98 -4 94 -10z m-487 -72 c-2 -12 -8 -23 -14 -25 -7 -2 -10 6
-7 22 6 30 26 34 21 3z"/>
<path d="M1020 1125 l0 -45 40 0 c35 0 40 3 39 23 0 12 -3 16 -6 10 -2 -7 -18
-13 -34 -13 -24 0 -29 4 -29 23 0 13 5 28 12 35 9 9 8 12 -5 12 -13 0 -17 -9
-17 -45z"/>
<path d="M1070 1164 c0 -3 7 -12 15 -20 13 -14 15 -13 15 5 0 12 -6 21 -15 21
-8 0 -15 -3 -15 -6z"/>
<path d="M1050 1119 c0 -5 5 -7 10 -4 6 3 10 8 10 11 0 2 -4 4 -10 4 -5 0 -10
-5 -10 -11z"/>
<path d="M1040 960 c0 -5 16 -10 36 -10 21 0 33 4 29 10 -3 6 -19 10 -36 10
-16 0 -29 -4 -29 -10z"/>
<path d="M1160 960 c0 -5 16 -10 35 -10 19 0 35 5 35 10 0 6 -16 10 -35 10
-19 0 -35 -4 -35 -10z"/>
<path d="M1280 960 c0 -5 16 -10 35 -10 19 0 35 5 35 10 0 6 -16 10 -35 10
-19 0 -35 -4 -35 -10z"/>
<path d="M1405 960 c3 -5 22 -10 41 -10 21 0 33 4 29 10 -3 6 -22 10 -41 10
-21 0 -33 -4 -29 -10z"/>
<path d="M1525 960 c3 -5 22 -10 41 -10 21 0 33 4 29 10 -3 6 -22 10 -41 10
-21 0 -33 -4 -29 -10z"/>
<path d="M790 1590 c-24 -24 -25 -36 -5 -44 8 -3 20 -17 25 -32 8 -21 6 -31
-11 -55 -12 -17 -19 -39 -16 -49 3 -12 0 -20 -8 -20 -25 0 -26 33 -1 70 17 26
21 41 14 53 -11 21 -38 22 -38 2 0 -8 5 -15 10 -15 7 0 7 -7 -1 -21 -8 -15
-13 -18 -19 -10 -10 17 -40 -106 -40 -166 0 -27 7 -58 15 -70 12 -17 13 -30 3
-75 -11 -52 -10 -58 16 -102 44 -75 98 -93 167 -54 l39 22 0 122 c0 67 3 129
6 138 4 12 20 16 55 16 38 0 51 4 59 19 20 38 13 56 -24 58 -19 2 -38 -2 -41
-7 -11 -19 -25 1 -25 35 0 19 -5 46 -12 60 -10 22 -8 30 10 55 l22 30 -26 6
c-15 4 -46 17 -68 30 -50 29 -80 30 -106 4z m125 -90 c23 -25 12 -39 -13 -17
-10 10 -28 17 -40 17 -12 0 -22 5 -22 10 0 18 56 10 75 -10z m-52 -55 c-5 -13
-23 -22 -23 -11 0 15 14 35 21 31 4 -3 6 -12 2 -20z m-64 -105 c18 0 22 -3 14
-11 -17 -17 -57 -7 -61 16 -3 16 -1 18 9 8 7 -7 24 -13 38 -13z m16 -120 c-3
-5 -19 -10 -35 -10 -16 0 -32 5 -35 10 -4 6 10 10 35 10 25 0 39 -4 35 -10z"/>
</g>
</svg>
