<?xml version="1.0" standalone="no"?>
<!DOCTYPE svg PUBLIC "-//W3C//DTD SVG 20010904//EN"
 "http://www.w3.org/TR/2001/REC-SVG-20010904/DTD/svg10.dtd">
<svg version="1.0" xmlns="http://www.w3.org/2000/svg"
 width="200.000000pt" height="200.000000pt" viewBox="0 0 200.000000 200.000000"
 preserveAspectRatio="xMidYMid meet">
<metadata>
Created by potrace 1.16, written by Peter Selinger 2001-2019
</metadata>
<g transform="translate(0.000000,200.000000) scale(0.100000,-0.100000)"
fill="#000000" stroke="none">
<path d="M854 1672 c-37 -23 -74 -69 -74 -90 0 -12 5 -11 23 6 30 28 45 28
103 -3 26 -14 55 -25 65 -25 24 0 24 -4 -3 -40 -18 -25 -20 -33 -10 -55 7 -14
12 -41 12 -60 0 -35 15 -46 36 -25 16 16 44 0 44 -25 0 -28 -30 -55 -61 -55
-44 0 -49 -15 -49 -151 l0 -127 -37 -24 c-55 -34 -117 -32 -149 5 -13 15 -26
38 -30 51 -8 35 20 162 35 158 7 -1 23 1 35 5 17 6 14 8 -19 13 -57 7 -71 40
-55 122 6 33 14 66 17 74 3 8 1 14 -4 14 -12 0 -33 -90 -33 -142 0 -24 7 -49
16 -59 14 -16 15 -26 4 -84 -7 -36 -16 -65 -20 -65 -4 0 -26 6 -48 14 -22 8
-64 17 -93 21 -93 10 -138 -33 -238 -233 -45 -91 -53 -114 -42 -121 11 -7 -3
-50 -77 -223 -51 -117 -92 -219 -92 -225 0 -10 26 -13 95 -13 57 0 95 4 95 10
0 6 -35 10 -86 10 -74 0 -85 2 -80 16 20 53 170 400 175 406 4 4 38 -2 77 -15
l71 -22 -63 -195 c-35 -107 -64 -198 -64 -202 0 -5 160 -8 355 -8 l354 0 10
38 c5 20 30 118 56 217 25 99 48 186 50 192 3 8 31 -3 82 -33 102 -61 370
-195 458 -229 47 -19 90 -28 130 -29 l60 -1 3 43 c5 70 -50 174 -164 308 -37
43 -49 65 -43 75 5 8 9 97 9 199 0 197 -3 210 -47 210 -33 0 -38 36 -14 106
10 32 17 62 15 66 -11 18 -34 6 -68 -34 l-36 -42 6 35 c3 18 12 57 19 86 11
45 11 54 -2 65 -13 11 -20 7 -45 -22 -16 -19 -35 -55 -44 -80 -14 -45 -14 -45
-10 52 4 100 -2 120 -30 97 -46 -38 -75 -164 -60 -263 12 -76 21 -52 18 43 -4
98 8 157 38 193 l20 23 -6 -95 c-6 -94 4 -150 26 -150 5 0 10 17 10 38 0 54
57 168 75 150 2 -2 -3 -32 -11 -67 -8 -35 -14 -87 -12 -115 l3 -51 23 46 c22
45 58 87 67 78 2 -3 -2 -23 -10 -44 -8 -22 -14 -57 -15 -77 l0 -38 -103 0
-104 0 -32 40 c-22 27 -40 40 -56 40 -28 0 -225 -88 -225 -101 0 -4 10 -15 22
-23 33 -24 94 -20 147 9 45 25 50 25 231 23 l185 -3 0 -195 0 -195 -136 -3
c-126 -2 -137 -4 -142 -22 -3 -11 -21 -27 -41 -37 -34 -16 -38 -16 -70 0 -36
17 -63 52 -47 61 5 3 32 1 61 -4 70 -13 83 -12 40 5 -19 7 -54 14 -77 14 -35
1 -43 -2 -43 -17 0 -28 30 -63 66 -78 31 -13 32 -15 22 -45 -15 -43 -29 -45
-87 -13 -45 24 -50 30 -45 53 5 18 3 23 -4 16 -7 -8 -132 -469 -132 -490 0 -3
-153 -5 -341 -5 -320 0 -340 1 -335 18 118 364 156 488 155 501 0 9 -10 -12
-23 -47 -12 -35 -26 -63 -31 -63 -20 0 -165 44 -165 50 0 13 101 204 130 246
17 24 40 51 52 60 50 34 230 -2 242 -49 10 -39 45 -75 86 -87 35 -11 44 -9 90
13 l50 25 0 -48 c0 -72 12 -79 136 -79 139 0 136 18 -3 22 l-108 3 0 195 0
195 55 6 c30 3 49 6 42 7 -9 2 -10 7 -2 22 6 11 10 32 9 47 -1 15 10 48 24 73
35 59 34 80 -8 134 -19 25 -34 51 -32 57 3 17 -71 52 -122 56 -33 3 -54 -1
-77 -15z m136 -17 c19 -7 34 -18 32 -25 -1 -7 15 -32 38 -56 46 -50 49 -73 17
-129 -16 -28 -31 -41 -53 -46 -31 -6 -32 -5 -45 49 l-13 55 32 27 c34 28 33
40 -2 40 -12 0 -50 14 -84 31 -35 17 -71 28 -80 25 -9 -3 -4 5 11 19 32 28 88
32 147 10z m360 -325 l21 -30 -83 -1 c-51 -1 -73 -4 -58 -8 l25 -7 -23 -13
c-30 -16 -99 -18 -114 -3 -9 9 8 21 73 52 103 49 130 50 159 10z m361 -522
c117 -140 187 -277 162 -317 -15 -23 -84 -17 -168 14 -75 29 -362 170 -395
195 -20 15 -20 18 -6 45 9 17 16 35 16 41 0 6 22 25 48 41 l49 30 92 -85 c50
-46 94 -82 97 -79 5 5 -68 78 -151 150 l-30 26 117 1 116 0 53 -62z"/>
<path d="M725 1540 c3 -5 17 -10 29 -10 13 0 29 -7 36 -15 9 -11 8 -20 -9 -44
-23 -32 -27 -66 -10 -77 8 -4 9 0 4 15 -4 14 0 30 14 47 25 32 27 57 5 78 -17
17 -79 23 -69 6z"/>
<path d="M840 1511 c0 -5 9 -7 19 -4 11 3 28 -4 40 -16 13 -13 21 -16 21 -8 0
7 -5 18 -12 25 -14 14 -68 16 -68 3z"/>
<path d="M730 1484 c0 -8 5 -12 10 -9 6 3 10 10 10 16 0 5 -4 9 -10 9 -5 0
-10 -7 -10 -16z"/>
<path d="M846 1454 c-4 -9 -4 -19 -1 -22 2 -3 7 3 11 12 4 9 4 19 1 22 -2 3
-7 -3 -11 -12z"/>
<path d="M750 1338 c0 -14 28 -20 46 -10 14 8 11 10 -15 14 -17 2 -31 1 -31
-4z"/>
<path d="M1004 1177 c-3 -8 -4 -36 -2 -63 l3 -49 55 0 55 0 0 60 0 60 -53 3
c-38 2 -54 -1 -58 -11z m46 -17 c0 -5 -4 -10 -10 -10 -5 0 -10 -11 -10 -25 0
-19 5 -25 23 -25 13 0 28 5 35 12 9 9 12 7 12 -10 0 -19 -5 -22 -45 -22 l-45
0 0 45 c0 38 3 45 20 45 11 0 20 -4 20 -10z m50 -11 c0 -18 -2 -19 -15 -5 -8
8 -15 17 -15 20 0 3 7 6 15 6 9 0 15 -9 15 -21z m-30 -19 c0 -5 -4 -10 -10
-10 -5 0 -10 5 -10 10 0 6 5 10 10 10 6 0 10 -4 10 -10z"/>
<path d="M1545 1150 c4 -6 -25 -10 -79 -10 -47 0 -88 -4 -91 -10 -4 -6 38 -10
117 -10 117 0 124 1 124 20 0 17 -7 20 -39 20 -23 0 -36 -4 -32 -10z"/>
<path d="M1540 1100 c0 -5 16 -10 35 -10 19 0 35 5 35 10 0 6 -16 10 -35 10
-19 0 -35 -4 -35 -10z"/>
<path d="M1375 1070 c4 -6 55 -10 121 -10 69 0 114 4 114 10 0 6 -47 10 -121
10 -77 0 -118 -4 -114 -10z"/>
<path d="M1020 975 c-19 -23 -2 -35 48 -33 l47 1 -42 4 c-24 2 -43 9 -43 15 0
14 103 4 108 -11 2 -6 23 -10 50 -9 41 1 42 2 12 5 -52 6 -62 23 -14 23 22 0
45 -5 52 -12 9 -9 12 -8 12 4 0 9 -7 19 -16 22 -26 10 -79 7 -92 -6 -9 -9 -15
-9 -24 0 -17 17 -83 15 -98 -3z"/>
<path d="M1267 984 c-4 -4 -7 -16 -7 -26 0 -15 7 -18 48 -16 43 1 44 2 10 5
-55 6 -48 26 7 21 27 -2 44 1 42 7 -4 12 -89 19 -100 9z"/>
<path d="M1391 981 c-8 -5 -11 -16 -8 -26 5 -12 17 -15 54 -13 40 3 48 6 48
23 0 16 -8 20 -40 23 -22 1 -46 -2 -54 -7z m89 -21 c0 -5 -18 -10 -40 -10 -22
0 -40 5 -40 10 0 6 18 10 40 10 22 0 40 -4 40 -10z"/>
<path d="M1517 983 c-4 -3 -7 -15 -7 -25 0 -15 8 -18 43 -18 49 0 73 16 56 37
-12 13 -80 18 -92 6z m83 -23 c0 -5 -18 -10 -40 -10 -22 0 -40 5 -40 10 0 6
18 10 40 10 22 0 40 -4 40 -10z"/>
</g>
</svg>
