<?xml version="1.0" standalone="no"?>
<!DOCTYPE svg PUBLIC "-//W3C//DTD SVG 20010904//EN"
 "http://www.w3.org/TR/2001/REC-SVG-20010904/DTD/svg10.dtd">
<svg version="1.0" xmlns="http://www.w3.org/2000/svg"
 width="200.000000pt" height="200.000000pt" viewBox="0 0 200.000000 200.000000"
 preserveAspectRatio="xMidYMid meet">
<metadata>
Created by potrace 1.16, written by Peter Selinger 2001-2019
</metadata>
<g transform="translate(0.000000,200.000000) scale(0.100000,-0.100000)"
fill="#000000" stroke="none">
<path d="M767 1973 c-4 -3 -7 -127 -7 -275 l0 -269 -22 15 c-38 27 -95 20
-129 -13 -16 -16 -29 -39 -29 -50 0 -27 -6 -26 -42 4 -88 74 -198 -29 -143
-135 14 -27 14 -30 -16 -60 -31 -31 -36 -64 -15 -111 5 -12 -4 -23 -38 -43
-53 -31 -107 -94 -138 -162 -21 -45 -23 -67 -28 -289 -3 -132 -9 -248 -15
-257 -5 -9 -29 -30 -52 -47 -85 -62 -97 -152 -29 -220 l36 -36 563 -3 c520 -2
565 -1 596 15 51 27 75 65 75 120 0 57 -20 91 -75 127 -50 34 -59 57 -59 161
0 96 -2 95 84 38 65 -44 110 -41 187 11 29 20 58 36 64 36 5 0 39 -18 75 -40
76 -47 109 -50 165 -15 100 61 94 59 136 40 74 -34 69 -89 69 724 0 655 -2
729 -16 735 -21 8 -1189 8 -1197 -1z m1153 -720 l0 -668 -43 -1 c-32 -1 -57
-10 -97 -37 -30 -21 -62 -37 -70 -37 -9 0 -36 13 -61 29 -25 15 -62 34 -82 40
-38 13 -63 5 -160 -52 l-37 -22 -38 21 c-70 39 -97 53 -114 58 -15 5 -18 18
-18 86 l0 80 185 0 c157 0 187 2 191 15 4 8 1 22 -6 30 -10 12 -46 15 -195 15
l-182 0 -18 48 c-10 26 -22 53 -28 60 -7 9 46 12 261 12 227 0 271 2 282 15
10 12 10 18 0 30 -11 13 -57 15 -305 15 l-292 0 -38 30 c-20 16 -45 32 -55 35
-17 5 -17 9 -4 40 12 30 12 40 0 69 -8 19 -22 39 -32 44 -18 10 -18 12 -1 46
21 44 21 68 3 105 -23 44 -84 64 -127 41 -19 -10 -19 -5 -19 255 l0 265 550 0
550 0 0 -667z m-1213 135 c4 -7 13 -26 18 -43 13 -39 56 -61 87 -44 13 7 29
21 36 31 16 23 50 20 66 -5 9 -13 6 -27 -13 -62 l-24 -45 -197 0 -198 0 -21
36 c-25 41 -27 67 -6 84 17 14 51 5 59 -16 3 -8 17 -19 31 -24 41 -15 82 11
95 60 9 33 15 40 35 40 13 0 27 -6 32 -12z m233 -243 c10 -12 10 -18 0 -30
-10 -12 -41 -15 -160 -15 -153 0 -178 -7 -165 -42 5 -13 34 -16 148 -20 115
-4 151 -8 188 -25 66 -29 124 -86 156 -151 28 -56 28 -59 33 -298 5 -233 6
-242 29 -275 13 -19 39 -45 58 -57 57 -38 65 -91 20 -132 -20 -19 -38 -20
-569 -20 l-549 0 -24 25 c-34 33 -33 76 2 106 74 67 92 88 102 124 6 23 11
128 11 247 0 241 10 283 82 357 53 53 100 78 181 94 46 10 63 18 65 31 5 26
-15 36 -74 36 -53 0 -70 13 -58 45 5 13 43 15 259 15 212 0 255 -2 265 -15z"/>
<path d="M1113 1690 c-45 -27 -65 -62 -65 -114 0 -60 27 -102 80 -127 58 -29
104 -19 154 31 34 33 38 43 38 86 0 86 -55 144 -137 144 -21 0 -52 -9 -70 -20z
m121 -61 c54 -43 22 -133 -48 -133 -72 0 -107 85 -54 134 28 26 68 26 102 -1z"/>
<path d="M1341 1426 c-134 -134 -241 -250 -239 -257 2 -7 12 -17 21 -23 14 -9
55 28 262 234 175 175 245 251 245 267 0 17 -6 23 -23 23 -16 0 -90 -68 -266
-244z"/>
<path d="M1477 1362 c-28 -17 -67 -84 -67 -115 0 -33 33 -98 60 -117 117 -84
272 51 205 180 -34 66 -133 92 -198 52z m133 -62 c47 -47 12 -134 -54 -134
-49 0 -80 31 -80 80 0 66 87 101 134 54z"/>
<path d="M573 834 c-58 -21 -126 -85 -157 -146 -33 -66 -36 -180 -7 -245 70
-153 249 -217 399 -142 99 49 152 129 159 239 12 169 -120 311 -287 309 -36 0
-84 -7 -107 -15z m229 -80 c90 -63 130 -172 98 -269 -16 -50 -75 -114 -125
-136 -105 -48 -254 0 -300 98 -60 124 -19 259 97 318 45 22 63 26 120 23 55
-3 75 -9 110 -34z"/>
<path d="M657 754 c-4 -4 -7 -16 -7 -26 0 -13 -7 -18 -25 -18 -37 0 -75 -42
-75 -82 0 -46 24 -76 65 -84 32 -6 35 -9 35 -40 0 -27 -4 -34 -19 -34 -10 0
-22 7 -25 16 -8 20 -50 15 -54 -7 -5 -27 36 -69 68 -69 22 0 29 -5 32 -22 2
-17 10 -23 28 -23 18 0 26 6 28 23 3 17 10 22 31 22 40 0 61 28 61 82 0 50
-17 72 -62 83 -24 6 -28 12 -28 41 0 39 20 46 41 13 18 -26 49 -16 49 17 0 31
-33 64 -64 64 -18 0 -25 6 -28 23 -3 22 -36 36 -51 21z m-7 -130 c0 -33 -33
-30 -38 4 -3 17 2 22 17 22 16 0 21 -6 21 -26z m90 -129 c0 -16 -6 -25 -15
-25 -9 0 -15 9 -15 25 0 16 6 25 15 25 9 0 15 -9 15 -25z"/>
</g>
</svg>
