<?xml version="1.0" standalone="no"?>
<!DOCTYPE svg PUBLIC "-//W3C//DTD SVG 20010904//EN"
 "http://www.w3.org/TR/2001/REC-SVG-20010904/DTD/svg10.dtd">
<svg version="1.0" xmlns="http://www.w3.org/2000/svg"
 width="200.000000pt" height="200.000000pt" viewBox="0 0 200.000000 200.000000"
 preserveAspectRatio="xMidYMid meet">
<metadata>
Created by potrace 1.16, written by Peter Selinger 2001-2019
</metadata>
<g transform="translate(0.000000,200.000000) scale(0.100000,-0.100000)"
fill="#000000" stroke="none">
<path d="M1197 1973 c-4 -3 -7 -104 -7 -224 l0 -218 -501 -3 -501 -3 -24 -28
-24 -28 0 -335 0 -334 -34 -50 c-195 -283 -31 -665 309 -723 84 -14 184 2 273
44 117 56 228 197 247 314 3 22 8 50 11 62 l4 23 403 0 c246 0 416 4 439 10
66 19 68 26 68 296 0 271 2 279 63 256 58 -22 57 -34 57 467 0 342 -3 460 -12
469 -9 9 -109 12 -388 12 -207 0 -380 -3 -383 -7z m723 -463 c0 -408 0 -410
-21 -410 -11 0 -39 -11 -62 -24 l-42 -25 -40 25 c-49 29 -80 30 -123 4 -41
-25 -56 -25 -99 1 -38 24 -93 21 -123 -6 -23 -21 -57 -19 -87 5 -14 11 -36 20
-49 20 l-24 0 0 410 0 410 335 0 335 0 0 -410z m-730 -204 l0 -164 -26 -6
c-33 -9 -31 -49 4 -54 16 -3 22 -10 22 -28 0 -30 21 -40 51 -24 19 11 30 8 76
-16 l54 -29 49 28 c60 32 64 33 100 7 39 -28 90 -28 128 -2 37 27 47 27 80 3
15 -10 37 -22 50 -25 16 -6 22 -15 22 -37 l0 -30 -632 5 c-348 3 -658 6 -688
7 -30 0 -106 -2 -167 -6 l-113 -8 0 266 c0 203 3 267 13 270 6 3 229 6 495 6
l482 1 0 -164z m-634 -427 c260 -47 406 -339 287 -572 -115 -227 -399 -294
-605 -142 -90 66 -158 204 -158 320 0 107 66 249 143 308 47 36 134 77 181 87
59 11 85 11 152 -1z m-336 -13 c0 -3 -4 -8 -10 -11 -5 -3 -10 -1 -10 4 0 6 5
11 10 11 6 0 10 -2 10 -4z m1580 -71 l0 -75 -90 0 c-72 0 -92 -3 -96 -15 -13
-33 15 -45 103 -45 l84 0 -3 -57 -3 -58 -427 -3 -428 -2 0 22 c-1 13 -7 40
-14 61 l-14 37 302 0 c165 0 307 4 314 9 8 5 12 17 10 27 -3 18 -20 19 -330
24 l-326 5 -36 47 c-20 25 -50 58 -68 72 l-33 26 528 0 527 0 0 -75z"/>
<path d="M1558 1780 c-7 -11 -18 -20 -24 -20 -6 0 -23 -9 -38 -21 -45 -36 -33
-106 24 -129 21 -9 30 -19 30 -36 0 -27 -15 -32 -24 -9 -7 19 -45 19 -52 0 -8
-20 20 -62 48 -71 13 -4 29 -15 36 -25 17 -24 42 -24 49 0 3 10 19 23 36 28
70 20 71 120 1 145 -21 7 -34 19 -34 29 0 24 19 34 26 15 3 -9 17 -16 30 -16
20 0 24 5 24 29 0 31 -30 61 -61 61 -9 0 -19 9 -22 20 -3 11 -12 20 -21 20 -9
0 -21 -9 -28 -20z m-8 -101 c0 -11 -4 -17 -10 -14 -5 3 -10 13 -10 21 0 8 5
14 10 14 6 0 10 -9 10 -21z m88 -110 c-2 -6 -8 -10 -13 -10 -5 0 -11 4 -13 10
-2 6 4 11 13 11 9 0 15 -5 13 -11z"/>
<path d="M1374 1345 c-4 -8 -4 -22 0 -30 5 -13 35 -15 213 -13 194 3 208 4
211 22 2 10 -2 22 -10 27 -7 5 -102 9 -211 9 -167 0 -199 -2 -203 -15z"/>
<path d="M1444 1225 c-14 -36 14 -45 141 -45 127 0 155 9 141 45 -4 12 -29 15
-141 15 -112 0 -137 -3 -141 -15z"/>
<path d="M312 1332 c-9 -7 -12 -39 -10 -128 l3 -119 114 -3 c75 -2 118 1 127
9 18 15 20 219 2 237 -14 14 -215 17 -236 4z m188 -122 l0 -70 -70 0 -70 0 0
70 0 70 70 0 70 0 0 -70z"/>
<path d="M932 1131 c-8 -5 -12 -17 -10 -27 3 -16 12 -19 58 -19 46 0 55 3 58
19 5 24 -14 36 -58 36 -19 0 -41 -4 -48 -9z"/>
<path d="M652 758 c-6 -6 -12 -20 -12 -30 0 -22 2 -22 -45 2 -62 31 -168 28
-236 -8 -65 -34 -113 -94 -135 -169 -41 -142 56 -300 205 -332 60 -13 83 -6
79 22 -2 15 -18 24 -68 38 -161 44 -220 222 -113 340 20 22 52 47 71 55 44 18
139 18 172 -1 24 -13 24 -14 4 -15 -31 0 -50 -26 -34 -45 10 -12 30 -15 84
-13 l71 3 0 80 c0 63 -3 80 -15 83 -9 1 -21 -3 -28 -10z"/>
</g>
</svg>
