<?xml version="1.0" standalone="no"?>
<!DOCTYPE svg PUBLIC "-//W3C//DTD SVG 20010904//EN"
 "http://www.w3.org/TR/2001/REC-SVG-20010904/DTD/svg10.dtd">
<svg version="1.0" xmlns="http://www.w3.org/2000/svg"
 width="200.000000pt" height="200.000000pt" viewBox="0 0 200.000000 200.000000"
 preserveAspectRatio="xMidYMid meet">
<metadata>
Created by potrace 1.16, written by Peter Selinger 2001-2019
</metadata>
<g transform="translate(0.000000,200.000000) scale(0.100000,-0.100000)"
fill="#000000" stroke="none">
<path d="M570 1939 c-48 -19 -93 -62 -116 -113 -23 -49 -24 -60 -24 -283 l0
-233 -166 0 c-274 0 -264 15 -264 -385 0 -400 -10 -385 263 -385 l165 0 4
-167 c3 -163 4 -169 31 -216 15 -26 47 -60 69 -75 l42 -27 481 0 481 0 42 28
c23 15 54 46 69 69 l28 41 5 240 5 240 41 12 c111 33 217 142 254 263 23 73
25 118 9 194 -30 139 -124 247 -256 294 l-53 19 0 155 c0 176 -7 209 -52 264
-63 77 -55 76 -573 75 -278 0 -470 -4 -485 -10z m947 -50 c67 -25 113 -97 113
-176 l0 -33 -570 0 -570 0 0 54 c0 67 28 112 90 144 44 22 48 22 476 22 281 0
443 -4 461 -11z m113 -348 l0 -78 -67 -6 c-224 -21 -390 -232 -354 -450 30
-183 160 -310 347 -340 l74 -12 0 -137 0 -138 -570 0 -570 0 0 80 0 80 240 0
c267 0 297 5 324 59 24 45 24 606 1 652 -28 54 -57 59 -325 59 l-240 0 0 155
0 155 570 0 570 0 0 -79z m92 -157 c81 -28 169 -112 199 -190 65 -170 -4 -353
-165 -437 -56 -29 -69 -32 -156 -32 -89 0 -99 2 -158 34 -70 38 -120 90 -154
160 -19 38 -23 62 -23 146 0 89 3 106 27 150 83 158 263 228 430 169z m-720
-151 c14 -12 18 -31 18 -80 l0 -63 -485 0 -485 0 0 58 c0 36 6 66 16 80 l15
22 451 0 c406 0 453 -2 470 -17z m18 -395 c0 -173 -2 -204 -17 -220 -15 -17
-43 -18 -469 -18 l-453 0 -15 22 c-13 19 -16 57 -16 220 l0 198 485 0 485 0 0
-202z m610 -550 c0 -87 -60 -170 -132 -183 -18 -3 -229 -5 -469 -3 l-436 3
-36 28 c-48 37 -67 75 -67 137 l0 50 570 0 570 0 0 -32z"/>
<path d="M920 1813 c-22 -9 -30 -26 -18 -40 8 -10 50 -13 158 -13 131 0 149 2
154 17 13 34 -20 43 -153 42 -69 0 -133 -3 -141 -6z"/>
<path d="M1415 1806 c-30 -22 -12 -46 35 -46 28 0 43 5 47 16 7 19 -20 44 -47
44 -9 0 -25 -6 -35 -14z"/>
<path d="M1574 1331 c-4 -17 -14 -33 -25 -36 -10 -3 -32 -22 -49 -42 -29 -33
-32 -41 -28 -90 4 -41 11 -60 33 -83 16 -16 37 -32 47 -36 15 -5 18 -17 18
-86 0 -81 0 -81 -20 -63 -11 10 -24 32 -28 49 -11 43 -46 43 -50 1 -3 -39 31
-94 68 -108 17 -6 30 -19 30 -27 0 -9 6 -25 14 -35 12 -16 16 -17 30 -6 9 7
16 21 16 31 0 10 15 27 34 38 48 29 69 65 68 118 0 53 -21 88 -68 116 -34 20
-34 20 -34 94 0 41 4 74 9 74 14 0 41 -41 41 -61 0 -9 7 -23 16 -30 14 -11 18
-11 29 5 24 33 -9 104 -62 133 -21 11 -33 26 -35 43 -2 17 -10 26 -26 28 -18
3 -23 -2 -28 -27z m-4 -161 c0 -38 -4 -70 -9 -70 -16 0 -41 43 -41 70 0 27 25
70 41 70 5 0 9 -31 9 -70z m110 -215 c0 -26 -29 -75 -45 -75 -3 0 -5 35 -5 77
l0 76 25 -23 c16 -15 25 -34 25 -55z"/>
<path d="M660 910 c-16 -16 -20 -33 -20 -90 0 -102 10 -110 143 -110 131 0
137 5 137 113 0 100 -9 107 -142 107 -85 0 -101 -3 -118 -20z m210 -95 l0 -55
-85 0 -85 0 0 55 0 55 85 0 85 0 0 -55z"/>
<path d="M165 896 c-11 -8 -16 -19 -12 -30 6 -15 28 -16 214 -14 203 3 208 3
211 24 4 30 -17 34 -219 34 -132 0 -180 -3 -194 -14z"/>
<path d="M165 776 c-11 -8 -16 -19 -12 -30 6 -15 28 -16 214 -14 203 3 208 3
211 24 4 30 -17 34 -219 34 -132 0 -180 -3 -194 -14z"/>
<path d="M907 233 c-15 -14 -6 -41 16 -47 47 -12 262 -7 282 8 16 12 17 16 6
30 -11 13 -37 16 -156 16 -78 0 -145 -3 -148 -7z"/>
</g>
</svg>
