<?xml version="1.0" standalone="no"?>
<!DOCTYPE svg PUBLIC "-//W3C//DTD SVG 20010904//EN"
 "http://www.w3.org/TR/2001/REC-SVG-20010904/DTD/svg10.dtd">
<svg version="1.0" xmlns="http://www.w3.org/2000/svg"
 width="200.000000pt" height="200.000000pt" viewBox="0 0 200.000000 200.000000"
 preserveAspectRatio="xMidYMid meet">
<metadata>
Created by potrace 1.16, written by Peter Selinger 2001-2019
</metadata>
<g transform="translate(0.000000,200.000000) scale(0.100000,-0.100000)"
fill="#000000" stroke="none">
<path d="M251 1626 c-50 -28 -50 -31 -51 -489 l0 -429 34 -34 34 -34 406 0
406 0 0 -106 0 -106 34 -34 34 -34 292 0 292 0 34 34 34 34 0 252 0 252 -37
36 c-67 65 -76 105 -82 375 l-6 239 -33 29 -32 29 -668 0 c-534 -1 -672 -3
-691 -14z m1369 -46 c17 -17 20 -33 20 -120 l0 -100 -700 0 -700 0 0 100 c0
156 -80 140 700 140 647 0 660 0 680 -20z m20 -332 c0 -67 -1 -70 -18 -55 -10
9 -44 28 -76 43 -49 22 -68 26 -120 22 -125 -10 -224 -90 -256 -207 -7 -27
-26 -57 -51 -80 l-39 -38 0 -126 0 -127 -400 0 c-387 0 -401 1 -420 20 -18 18
-20 33 -20 140 l0 120 178 2 177 3 0 115 0 115 -177 3 -178 2 0 60 0 60 700 0
700 0 0 -72z m-105 -52 c73 -34 120 -90 139 -168 l6 -28 -240 0 c-132 0 -240
3 -240 8 0 32 28 90 58 124 75 84 183 109 277 64z m-975 -116 l0 -80 -160 0
-160 0 0 80 0 80 160 0 160 0 0 -80z m1180 -140 c19 -19 20 -33 20 -260 0
-227 -1 -241 -20 -260 -19 -19 -33 -20 -300 -20 -267 0 -281 1 -300 20 -19 19
-20 33 -20 260 0 227 1 241 20 260 19 19 33 20 300 20 267 0 281 -1 300 -20z"/>
<path d="M1391 826 c-28 -16 -50 -52 -51 -84 0 -32 28 -78 56 -91 19 -9 23
-19 26 -68 2 -44 7 -58 18 -58 11 0 16 14 18 53 3 48 8 58 43 91 52 50 53 89
5 137 -37 37 -73 43 -115 20z m89 -46 c11 -11 20 -29 20 -40 0 -11 -9 -29 -20
-40 -11 -11 -29 -20 -40 -20 -11 0 -29 9 -40 20 -11 11 -20 29 -20 40 0 11 9
29 20 40 11 11 29 20 40 20 11 0 29 -9 40 -20z"/>
</g>
</svg>
