<?xml version="1.0" standalone="no"?>
<!DOCTYPE svg PUBLIC "-//W3C//DTD SVG 20010904//EN"
 "http://www.w3.org/TR/2001/REC-SVG-20010904/DTD/svg10.dtd">
<svg version="1.0" xmlns="http://www.w3.org/2000/svg"
 width="200.000000pt" height="200.000000pt" viewBox="0 0 200.000000 200.000000"
 preserveAspectRatio="xMidYMid meet">
<metadata>
Created by potrace 1.16, written by Peter Selinger 2001-2019
</metadata>
<g transform="translate(0.000000,200.000000) scale(0.100000,-0.100000)"
fill="#000000" stroke="none">
<path d="M305 1881 c-51 -31 -68 -58 -73 -114 -3 -42 1 -58 20 -87 49 -74 12
-70 783 -68 l690 3 3 63 3 62 -171 0 c-144 0 -170 2 -170 15 0 13 26 15 170
15 l170 0 0 53 c0 29 -5 58 -12 65 -9 9 -178 12 -698 12 -649 0 -687 -1 -715
-19z m995 -126 c0 -13 -55 -15 -435 -15 -380 0 -435 2 -435 15 0 13 55 15 435
15 380 0 435 -2 435 -15z"/>
<path d="M230 1198 l0 -452 28 37 c15 20 55 57 90 82 l62 45 0 258 c0 225 2
261 18 292 29 58 37 60 364 60 l298 0 32 -29 33 -29 3 -471 3 -471 232 0 c214
0 235 2 265 20 63 39 72 67 72 232 l0 147 -159 3 -159 3 -44 31 c-59 43 -88
101 -88 175 0 73 12 105 58 152 51 53 107 67 264 67 l128 0 0 115 0 115 -695
0 c-743 0 -734 -1 -784 49 l-21 21 0 -452z"/>
<path d="M470 1470 c-19 -19 -20 -33 -20 -295 l0 -274 -79 -60 c-43 -33 -93
-81 -110 -108 -55 -83 -61 -121 -61 -390 l0 -243 245 0 245 0 0 65 c0 65 0 65
41 92 41 27 79 86 79 123 0 19 6 20 134 20 117 0 137 2 157 19 l24 19 0 507 0
507 -24 19 c-22 18 -43 19 -317 19 -281 0 -295 -1 -314 -20z m210 -65 c0 -49
-4 -60 -34 -92 -31 -34 -38 -37 -100 -41 l-66 -4 0 84 c0 52 5 89 12 96 8 8
45 12 100 12 l88 0 0 -55z m394 49 c13 -5 16 -23 16 -95 l0 -89 -50 0 c-95 0
-150 53 -150 143 l0 47 84 0 c46 0 91 -3 100 -6z m-219 -323 c105 -47 143
-172 81 -264 -34 -50 -82 -77 -138 -77 -44 0 -50 3 -59 28 -22 58 -69 88 -97
60 -26 -26 -44 100 -21 159 15 40 48 73 94 94 51 23 89 23 140 0z m-161 -296
c9 -13 16 -42 16 -64 0 -35 -8 -48 -57 -102 -57 -61 -58 -63 -55 -114 4 -64
-16 -117 -66 -167 -50 -52 -31 -72 22 -23 38 35 39 35 132 35 83 0 94 -2 94
-17 0 -31 -38 -81 -80 -108 -39 -25 -40 -26 -40 -85 l0 -60 -216 0 -215 0 3
242 c3 273 8 294 84 378 34 38 114 100 128 100 3 0 6 -33 6 -73 l0 -73 -50
-49 c-32 -31 -46 -53 -40 -59 10 -10 62 32 210 173 52 49 98 90 101 91 4 0 14
-11 23 -25z m396 -298 c0 -51 -5 -88 -12 -95 -8 -8 -45 -12 -100 -12 l-88 0 0
48 c0 90 55 141 153 142 l47 0 0 -83z"/>
<path d="M697 1024 c-4 -4 -7 -15 -7 -25 0 -11 -9 -19 -22 -21 -30 -4 -29 -22
0 -26 13 -2 26 -10 29 -19 3 -8 17 -19 31 -24 33 -13 70 11 74 48 2 20 9 29
25 31 19 3 22 -2 25 -39 3 -48 24 -63 34 -25 4 17 13 26 25 26 10 0 19 7 19
15 0 9 -9 15 -21 15 -12 0 -30 11 -41 25 -11 14 -28 25 -39 25 -27 0 -59 -35
-59 -66 0 -21 -4 -25 -22 -22 -18 2 -24 11 -26 38 -4 37 -14 55 -25 44z"/>
<path d="M1460 1311 c-59 -12 -98 -39 -126 -86 -53 -91 -18 -207 76 -255 35
-18 59 -20 215 -20 l175 0 0 185 0 185 -152 -1 c-84 -1 -169 -4 -188 -8z m78
-139 c31 -40 1 -102 -49 -102 -47 0 -80 50 -59 90 22 40 80 47 108 12z"/>
<path d="M1517 413 c-4 -3 -7 -21 -7 -39 l0 -33 -62 -3 -63 -3 -3 -72 -3 -73
66 0 65 0 0 -33 c0 -34 15 -57 36 -57 7 0 51 32 99 71 68 56 85 76 83 94 -2
14 -33 48 -83 89 -72 60 -110 78 -128 59z"/>
<path d="M1187 333 c-11 -11 -8 -21 9 -27 19 -7 47 12 38 25 -6 11 -38 12 -47
2z"/>
<path d="M1287 333 c-11 -11 -8 -21 9 -27 19 -7 47 12 38 25 -6 11 -38 12 -47
2z"/>
<path d="M1180 205 c0 -12 7 -15 25 -13 14 2 26 8 26 13 0 6 -12 11 -26 13
-18 2 -25 -1 -25 -13z"/>
<path d="M1280 205 c0 -12 7 -15 25 -13 14 2 26 8 26 13 0 6 -12 11 -26 13
-18 2 -25 -1 -25 -13z"/>
</g>
</svg>
