<?xml version="1.0" standalone="no"?>
<!DOCTYPE svg PUBLIC "-//W3C//DTD SVG 20010904//EN"
 "http://www.w3.org/TR/2001/REC-SVG-20010904/DTD/svg10.dtd">
<svg version="1.0" xmlns="http://www.w3.org/2000/svg"
 width="200.000000pt" height="200.000000pt" viewBox="0 0 200.000000 200.000000"
 preserveAspectRatio="xMidYMid meet">
<metadata>
Created by potrace 1.16, written by Peter Selinger 2001-2019
</metadata>
<g transform="translate(0.000000,200.000000) scale(0.100000,-0.100000)"
fill="#000000" stroke="none">
<path d="M299 1877 c-70 -47 -69 -35 -69 -585 0 -391 3 -493 13 -490 9 4 13
104 17 439 3 239 6 429 8 424 1 -6 15 -18 31 -28 27 -16 85 -17 720 -17 l691
0 0 -115 c0 -71 4 -115 10 -115 7 0 9 86 8 253 l-3 252 -696 3 -696 2 -34 -23z
m1411 -57 l0 -50 -156 0 c-120 0 -155 -3 -152 -12 4 -10 46 -14 156 -16 l152
-3 0 -49 0 -50 -667 0 c-438 0 -681 4 -706 11 -88 24 -105 161 -26 205 19 11
160 13 712 14 l687 0 0 -50z"/>
<path d="M443 1758 c6 -19 848 -19 855 0 3 9 -87 12 -428 12 -341 0 -431 -3
-427 -12z"/>
<path d="M475 1465 l-25 -24 0 -275 0 -275 -58 -40 c-67 -45 -123 -104 -151
-158 -34 -67 -42 -146 -39 -373 l3 -215 243 -3 242 -2 0 65 c0 64 0 65 39 89
45 29 81 82 81 120 l0 26 135 0 c131 0 137 1 160 25 l25 24 0 496 0 496 -25
24 -24 25 -291 0 -291 0 -24 -25z m215 -47 c0 -94 -58 -148 -157 -148 l-53 0
0 83 c0 51 5 88 12 95 8 8 46 12 105 12 l93 0 0 -42z m174 -15 c12 -105 59
-147 175 -159 l61 -7 0 -292 0 -292 -60 -6 c-119 -13 -180 -75 -180 -184 l0
-33 -126 0 c-116 0 -126 1 -118 18 4 9 9 48 10 86 2 68 3 69 53 120 27 28 55
64 61 80 9 24 15 27 37 23 34 -6 103 14 144 43 46 34 83 119 77 181 -7 70 -51
137 -112 168 -170 88 -359 -78 -291 -255 l17 -46 -38 -40 c-22 -22 -51 -49
-66 -60 l-28 -19 0 255 0 256 30 0 c122 0 194 56 206 159 l7 61 67 0 67 0 7
-57z m224 45 c7 -7 12 -44 12 -95 l0 -83 -57 0 c-99 0 -153 53 -153 150 l0 40
93 0 c59 0 97 -4 105 -12z m-222 -317 c23 -10 54 -36 70 -57 26 -33 29 -46 29
-109 0 -63 -3 -76 -29 -109 -16 -21 -47 -47 -70 -57 -63 -29 -126 -24 -126 10
0 9 -13 32 -29 51 -27 32 -31 34 -51 22 -34 -21 -45 -1 -45 82 0 65 3 77 29
110 53 70 143 93 222 57z m-461 -479 c-43 -41 -55 -62 -36 -62 8 0 117 98 249
224 l53 51 25 -28 c42 -49 34 -88 -35 -160 l-59 -62 1 -65 c1 -74 -16 -115
-70 -171 -46 -48 -26 -60 23 -14 l37 35 98 0 c62 0 99 -4 99 -10 0 -40 -45
-101 -93 -124 -19 -10 -22 -21 -25 -74 l-3 -62 -220 0 -220 0 3 244 3 243 35
69 c29 57 47 78 105 122 l70 52 3 -82 3 -83 -46 -43z m695 -115 c0 -51 -5 -88
-12 -95 -8 -8 -46 -12 -105 -12 l-93 0 0 48 c0 91 55 141 158 142 l52 0 0 -83z"/>
<path d="M801 1013 c-12 -8 -21 -25 -21 -37 0 -13 -7 -29 -15 -36 -22 -19 -45
5 -45 46 0 36 -19 47 -27 15 -3 -11 -13 -21 -24 -24 -26 -7 -24 -27 4 -27 12
0 28 -9 35 -20 14 -22 61 -27 80 -8 7 7 12 22 12 34 0 12 7 27 15 34 22 19 45
-5 45 -46 0 -36 19 -47 27 -15 3 11 14 22 25 24 23 6 15 27 -10 27 -10 0 -22
8 -29 19 -16 25 -48 32 -72 14z"/>
<path d="M1429 1334 c-58 -18 -123 -85 -139 -145 -24 -90 14 -184 94 -234 l49
-30 181 0 181 0 3 204 c2 157 -1 206 -10 213 -23 14 -308 8 -359 -8z m341
-199 l0 -185 -159 0 c-170 0 -207 8 -248 52 -93 99 -57 257 68 307 13 5 95 10
182 10 l157 1 0 -185z"/>
<path d="M1455 1216 c-59 -26 -72 -101 -26 -147 78 -77 201 16 145 110 -10 17
-31 35 -47 41 -36 12 -35 12 -72 -4z m85 -36 c41 -41 14 -110 -43 -110 -40 0
-67 26 -67 63 0 61 67 90 110 47z"/>
<path d="M1710 765 c0 -126 -12 -171 -51 -199 -20 -14 -57 -16 -251 -16 -196
0 -228 -2 -228 -15 0 -22 423 -22 475 -1 62 26 75 62 75 214 0 81 -4 132 -10
132 -6 0 -10 -45 -10 -115z"/>
<path d="M1527 414 c-4 -4 -7 -25 -7 -46 l0 -38 -65 0 c-37 0 -65 -4 -65 -10
0 -14 137 -13 146 2 4 6 10 25 13 41 l6 29 78 -63 c42 -34 77 -65 77 -69 0 -9
-135 -119 -151 -122 -8 -2 -15 10 -19 32 l-5 35 -72 3 c-46 2 -73 -1 -73 -8 0
-6 26 -10 64 -10 l65 0 3 -42 c3 -37 6 -43 25 -43 21 0 177 118 187 143 9 21
-3 35 -85 102 -77 63 -107 79 -122 64z"/>
<path d="M1190 320 c0 -5 11 -10 25 -10 14 0 25 5 25 10 0 6 -11 10 -25 10
-14 0 -25 -4 -25 -10z"/>
<path d="M1290 320 c0 -5 11 -10 25 -10 14 0 25 5 25 10 0 6 -11 10 -25 10
-14 0 -25 -4 -25 -10z"/>
<path d="M1190 200 c0 -5 11 -10 25 -10 14 0 25 5 25 10 0 6 -11 10 -25 10
-14 0 -25 -4 -25 -10z"/>
<path d="M1290 200 c0 -5 11 -10 25 -10 14 0 25 5 25 10 0 6 -11 10 -25 10
-14 0 -25 -4 -25 -10z"/>
</g>
</svg>
