<?xml version="1.0" standalone="no"?>
<!DOCTYPE svg PUBLIC "-//W3C//DTD SVG 20010904//EN"
 "http://www.w3.org/TR/2001/REC-SVG-20010904/DTD/svg10.dtd">
<svg version="1.0" xmlns="http://www.w3.org/2000/svg"
 width="200.000000pt" height="200.000000pt" viewBox="0 0 200.000000 200.000000"
 preserveAspectRatio="xMidYMid meet">
<metadata>
Created by potrace 1.16, written by Peter Selinger 2001-2019
</metadata>
<g transform="translate(0.000000,200.000000) scale(0.100000,-0.100000)"
fill="#000000" stroke="none">
<path d="M1010 1641 c-13 -25 -13 -131 0 -165 10 -28 38 -34 58 -14 13 13 17
153 6 182 -9 22 -51 20 -64 -3z"/>
<path d="M1240 1641 c-5 -11 -10 -50 -10 -86 0 -36 5 -75 10 -86 12 -21 40
-25 58 -7 13 13 17 153 6 182 -9 22 -51 20 -64 -3z"/>
<path d="M1472 1648 c-15 -15 -16 -152 -2 -179 12 -21 40 -25 58 -7 13 13 17
153 6 182 -7 19 -45 21 -62 4z"/>
<path d="M1702 1648 c-15 -15 -16 -152 -2 -179 12 -21 40 -25 58 -7 13 13 17
153 6 182 -7 19 -45 21 -62 4z"/>
<path d="M529 1579 c-19 -19 -21 -29 -15 -88 4 -36 9 -81 12 -98 l6 -33 78 0
c60 0 79 3 84 15 3 8 8 55 12 103 6 86 6 90 -17 106 -36 25 -133 22 -160 -5z"/>
<path d="M1137 1554 c-4 -4 -7 -29 -7 -56 0 -39 -5 -54 -25 -73 -24 -25 -73
-33 -110 -19 -23 9 -45 57 -45 99 0 19 -4 35 -9 35 -22 0 -41 -46 -41 -97 l0
-53 485 0 485 0 0 53 c0 51 -19 97 -41 97 -5 0 -9 -20 -9 -45 0 -61 -32 -95
-88 -95 -61 0 -86 26 -92 96 -4 51 -8 59 -25 59 -17 0 -21 -8 -25 -59 -6 -70
-31 -96 -90 -96 -58 0 -81 25 -89 95 -5 51 -9 60 -26 60 -17 0 -21 -8 -25 -59
-6 -70 -31 -96 -90 -96 -58 0 -81 25 -89 95 -4 43 -10 61 -21 63 -9 1 -19 0
-23 -4z"/>
<path d="M430 1495 c-25 -30 -6 -135 25 -135 17 0 19 28 9 104 -7 49 -14 55
-34 31z"/>
<path d="M768 1504 c-3 -5 -9 -39 -13 -76 -6 -58 -5 -68 8 -68 19 0 33 23 42
71 5 27 2 41 -13 59 -10 13 -21 19 -24 14z"/>
<path d="M907 1333 c-4 -3 -7 -44 -7 -89 l0 -83 37 -25 c28 -19 40 -23 55 -15
10 5 49 9 86 7 64 -3 67 -4 67 -28 0 -24 -3 -25 -63 -28 l-62 -3 27 -34 c16
-19 31 -35 35 -35 3 0 53 25 110 56 200 108 212 114 250 114 35 0 41 -4 68
-47 40 -63 40 -103 -2 -138 -18 -15 -36 -36 -40 -46 -5 -13 -17 -19 -37 -19
-33 0 -81 -19 -81 -32 0 -4 42 -8 94 -8 96 0 111 -5 100 -34 -5 -14 -29 -16
-160 -16 -141 0 -158 -2 -197 -22 l-42 -23 315 -3 c173 -1 329 0 347 3 61 11
63 22 63 302 l0 253 -478 0 c-263 0 -482 -3 -485 -7z m227 -59 c9 -3 16 -14
16 -24 0 -24 -19 -30 -96 -30 -48 0 -66 4 -70 15 -14 34 3 45 70 45 35 0 71
-3 80 -6z m331 -24 c0 -24 -4 -25 -60 -28 -77 -4 -105 3 -105 27 0 26 14 30
95 28 67 -2 70 -3 70 -27z m320 0 c0 -24 -4 -25 -60 -28 -77 -4 -105 3 -105
27 0 26 14 30 95 28 67 -2 70 -3 70 -27z m0 -150 c0 -24 -4 -25 -60 -28 -77
-4 -105 3 -105 27 0 26 14 30 95 28 67 -2 70 -3 70 -27z m3 -152 c-3 -21 -9
-23 -77 -26 -76 -3 -98 5 -88 32 5 13 23 16 87 16 79 0 81 -1 78 -22z"/>
<path d="M452 1294 c-14 -10 -22 -25 -22 -44 0 -19 -7 -33 -20 -40 -25 -13
-26 -38 -2 -56 13 -10 66 -13 214 -14 188 0 198 1 208 20 9 17 6 24 -15 44
-14 13 -25 34 -25 48 0 50 -24 58 -176 58 -110 0 -144 -3 -162 -16z"/>
<path d="M191 1125 c-52 -16 -116 -75 -142 -130 -21 -45 -24 -111 -8 -169 16
-59 91 -133 152 -151 63 -19 81 -19 143 0 95 28 164 123 164 225 0 102 -69
197 -164 225 -60 18 -87 18 -145 0z m59 -120 c29 -35 -26 -85 -58 -53 -13 13
-16 50 -5 61 12 12 50 7 63 -8z m107 -31 c4 -12 -17 -40 -75 -97 -69 -67 -84
-78 -97 -67 -8 7 -15 17 -15 22 0 19 143 158 162 158 10 0 21 -7 25 -16z m-13
-133 c25 -27 5 -63 -31 -59 -38 4 -52 32 -29 57 24 26 38 26 60 2z"/>
<path d="M1198 997 c-124 -67 -230 -125 -234 -129 -11 -12 27 -88 44 -88 18 0
464 239 474 253 9 14 -29 87 -45 87 -6 -1 -114 -56 -239 -123z"/>
<path d="M840 1095 c-19 -11 -65 -14 -182 -15 -87 0 -158 -2 -158 -4 0 -2 10
-21 23 -42 l22 -39 77 0 c74 -1 80 -3 134 -40 81 -56 118 -124 118 -217 l1
-68 113 0 112 0 0 45 0 45 -45 -22 c-54 -27 -83 -17 -118 39 -52 83 -44 118
38 164 l56 32 -33 35 c-39 43 -74 73 -102 89 -26 15 -26 15 -56 -2z"/>
<path d="M1930 992 c0 -120 7 -144 30 -102 8 14 6 46 -6 117 -9 54 -18 100
-20 102 -2 2 -4 -50 -4 -117z"/>
<path d="M568 943 c-14 -3 -18 -15 -18 -48 0 -35 3 -43 15 -39 8 3 17 14 20
25 8 23 43 25 52 2 4 -9 15 -25 25 -35 26 -26 21 -83 -7 -83 -12 0 -21 9 -25
24 -8 34 -30 39 -30 8 0 -18 10 -32 34 -46 59 -37 63 -95 11 -156 l-34 -40
-30 35 c-36 41 -48 77 -34 98 17 28 34 25 46 -7 12 -32 30 -36 35 -9 2 8 -15
26 -37 41 -23 15 -43 38 -47 52 -6 25 -7 24 -33 -18 -15 -23 -42 -54 -59 -69
-18 -15 -32 -31 -32 -37 0 -23 74 -91 116 -107 59 -23 143 -14 194 20 80 53
113 182 69 273 -42 86 -146 138 -231 116z"/>
<path d="M135 612 c23 -96 103 -188 203 -235 66 -31 70 -32 240 -35 95 -2 183
-1 196 2 21 5 24 13 28 76 3 38 3 80 1 94 l-5 24 -44 -30 c-63 -42 -144 -55
-215 -35 -59 18 -130 71 -154 117 -15 28 -15 28 -89 23 -54 -4 -86 -1 -121 10
l-47 16 7 -27z"/>
<path d="M861 606 c-7 -8 -11 -32 -9 -53 l3 -38 275 0 275 0 0 50 0 50 -266 3
c-222 2 -268 0 -278 -12z"/>
<path d="M868 449 c-26 -15 -25 -85 1 -99 21 -11 497 -15 525 -4 23 9 23 99 0
108 -27 10 -508 6 -526 -5z"/>
</g>
</svg>
