<?xml version="1.0" standalone="no"?>
<!DOCTYPE svg PUBLIC "-//W3C//DTD SVG 20010904//EN"
 "http://www.w3.org/TR/2001/REC-SVG-20010904/DTD/svg10.dtd">
<svg version="1.0" xmlns="http://www.w3.org/2000/svg"
 width="200.000000pt" height="200.000000pt" viewBox="0 0 200.000000 200.000000"
 preserveAspectRatio="xMidYMid meet">
<metadata>
Created by potrace 1.16, written by Peter Selinger 2001-2019
</metadata>
<g transform="translate(0.000000,200.000000) scale(0.100000,-0.100000)"
fill="#000000" stroke="none">
<path d="M997 1662 c-10 -10 -17 -35 -17 -55 0 -31 -4 -37 -21 -37 -11 0 -34
-13 -50 -29 l-29 -29 -1 -184 c-1 -111 -4 -170 -9 -150 -4 18 -14 41 -22 50
-7 9 -21 33 -30 54 -16 34 -16 39 4 90 32 84 16 137 -49 165 -18 7 -33 20 -33
27 0 32 -50 56 -117 56 -63 0 -67 -1 -108 -42 -24 -24 -55 -51 -70 -61 -44
-31 -49 -62 -24 -140 16 -51 19 -71 10 -80 -6 -6 -11 -21 -11 -32 0 -12 -9
-30 -20 -40 -11 -10 -20 -31 -20 -47 0 -26 -2 -28 -27 -21 -58 16 -127 8 -183
-23 -142 -76 -181 -253 -84 -379 19 -25 34 -56 34 -70 0 -38 36 -133 67 -179
40 -57 134 -122 211 -146 59 -19 89 -21 242 -19 118 2 182 -2 197 -9 15 -8
107 -12 295 -12 345 0 317 -16 317 184 0 188 8 180 -180 184 l-139 4 0 39 0
39 329 0 c194 0 340 4 356 10 14 5 34 23 43 40 11 19 25 30 40 30 25 0 72 41
72 62 0 8 -23 144 -50 303 -54 310 -62 333 -119 349 -28 8 -31 13 -31 46 0 43
-24 70 -62 70 -34 0 -58 -30 -58 -73 l0 -37 -50 0 c-50 0 -50 0 -50 33 0 44
-25 77 -58 77 -15 0 -32 -4 -38 -8 -18 -11 -34 -48 -34 -76 0 -24 -3 -26 -45
-26 -43 0 -45 1 -45 29 0 38 -35 81 -66 81 -35 0 -64 -34 -64 -76 l0 -35 -47
3 c-47 3 -48 4 -51 38 -2 19 -11 43 -19 53 -21 22 -65 22 -86 -1z m53 -112 c0
-47 -4 -80 -10 -80 -6 0 -10 33 -10 80 0 47 4 80 10 80 6 0 10 -33 10 -80z
m220 -1 c0 -51 -4 -78 -10 -74 -18 11 -12 155 7 155 2 0 3 -36 3 -81z m230 1
c0 -38 -4 -72 -10 -75 -6 -4 -10 23 -10 75 0 52 4 79 10 75 6 -3 10 -37 10
-75z m220 0 c0 -47 -4 -80 -10 -80 -6 0 -10 33 -10 80 0 47 4 80 10 80 6 0 10
-33 10 -80z m-1034 -76 c-10 -134 -10 -134 -66 -134 l-48 0 -12 99 c-7 55 -9
104 -5 110 3 6 36 11 72 11 l66 0 -7 -86z m294 14 c0 -39 25 -68 58 -68 37 0
62 27 62 67 l0 33 50 0 c49 0 50 -1 50 -30 0 -36 31 -70 64 -70 29 0 66 43 66
76 0 22 4 24 45 24 41 0 45 -2 45 -24 0 -33 37 -76 66 -76 33 0 64 34 64 70 0
29 1 30 50 30 49 0 50 0 50 -32 0 -39 25 -68 58 -68 37 0 62 27 62 67 0 37 5
40 32 16 13 -11 18 -30 18 -65 l0 -48 -445 0 -445 0 0 47 c0 29 6 53 17 65 23
26 33 22 33 -14z m-467 -95 c8 -66 -13 -73 -37 -13 -21 52 -20 87 2 99 20 11
25 -2 35 -86z m261 78 c17 -19 17 -23 1 -70 -16 -49 -30 -69 -42 -58 -8 8 8
147 16 147 5 0 16 -9 25 -19z m1046 -380 c0 -237 0 -240 -22 -255 -19 -14 -66
-16 -318 -16 -214 1 -290 4 -277 11 11 7 76 10 160 10 78 -1 148 3 155 8 8 4
12 17 10 27 -3 17 -15 20 -98 24 -86 5 -92 6 -67 18 16 6 42 12 58 12 22 0 32
6 36 19 2 10 17 28 33 39 41 31 45 63 15 122 -25 50 -49 70 -82 70 -10 0 -96
-43 -192 -94 l-173 -94 -64 65 -64 65 0 104 0 104 445 0 445 0 0 -239z m-1052
145 c2 -28 9 -40 23 -43 57 -15 -1 -23 -171 -23 -120 0 -190 4 -190 10 0 6 9
10 19 10 21 0 33 22 25 45 -4 8 -4 22 0 30 5 13 28 15 148 13 l143 -3 3 -39z
m1134 -266 c3 -54 0 -65 -14 -68 -16 -3 -18 7 -17 120 l1 123 14 -55 c8 -30
15 -84 16 -120z m-436 93 c4 -13 5 -25 3 -27 -2 -2 -107 -59 -232 -126 -176
-94 -231 -119 -241 -110 -21 16 -40 70 -30 80 5 5 110 63 234 129 l225 121 18
-21 c9 -12 20 -32 23 -46z m-1081 24 c21 -12 53 -42 70 -65 26 -38 30 -52 30
-112 0 -60 -4 -74 -30 -112 -86 -121 -262 -119 -338 4 -62 100 -28 232 72 285
59 31 141 31 196 0z m477 7 c35 -18 138 -112 138 -125 0 -5 -17 -17 -39 -28
-59 -31 -67 -76 -26 -148 29 -48 62 -62 107 -45 27 10 28 9 28 -24 l0 -34 -94
0 -93 0 -5 68 c-8 103 -59 182 -147 227 -43 22 -131 31 -170 17 -29 -10 -32
-9 -47 21 -9 18 -28 44 -42 60 l-26 27 193 0 c158 0 198 -3 223 -16z m-143
-159 c65 -34 111 -110 111 -185 0 -64 -18 -107 -64 -152 -79 -77 -210 -77
-288 1 -55 56 -58 84 -15 129 47 49 66 91 75 159 6 49 10 58 32 65 33 9 117 0
149 -17z m-417 -279 c75 0 77 0 89 -27 16 -41 76 -99 123 -120 66 -30 161 -26
230 11 l57 29 9 -25 c7 -16 7 -32 0 -44 -5 -10 -10 -32 -10 -49 0 -27 -4 -31
-36 -37 -19 -3 -99 -4 -177 -2 -170 6 -234 26 -309 95 -50 47 -98 131 -98 170
0 22 2 23 23 11 12 -7 56 -12 99 -12z m1096 -73 l-3 -48 -265 0 -265 0 -3 48
-3 47 271 0 271 0 -3 -47z m-3 -158 l0 -50 -265 0 -265 0 -3 39 c-6 70 -21 67
270 64 l263 -3 0 -50z"/>
<path d="M987 1273 c-15 -14 -6 -41 16 -47 40 -11 113 -6 132 8 16 12 17 16 6
30 -10 12 -31 16 -81 16 -36 0 -70 -3 -73 -7z"/>
<path d="M1303 1273 c-19 -7 -16 -31 6 -43 11 -5 41 -10 66 -10 51 0 85 14 85
34 0 8 -7 17 -16 20 -18 7 -123 7 -141 -1z"/>
<path d="M1609 1264 c-11 -14 -11 -18 6 -30 19 -14 92 -18 133 -8 16 5 22 13
20 28 -3 19 -10 21 -74 24 -56 2 -74 -1 -85 -14z"/>
<path d="M984 1115 c-11 -28 10 -36 87 -33 66 3 74 5 74 23 0 18 -8 20 -78 23
-64 2 -78 0 -83 -13z"/>
<path d="M1604 1115 c-11 -28 10 -36 87 -33 66 3 74 5 74 23 0 18 -8 20 -78
23 -64 2 -78 0 -83 -13z"/>
<path d="M1616 977 c-11 -8 -15 -19 -10 -30 5 -15 17 -17 83 -15 69 3 76 5 79
24 2 15 -4 23 -20 28 -39 10 -113 7 -132 -7z"/>
<path d="M210 1015 c-26 -32 13 -81 48 -59 34 22 22 74 -18 74 -10 0 -23 -7
-30 -15z"/>
<path d="M262 926 c-71 -73 -85 -106 -43 -106 22 0 164 145 159 162 -11 34
-46 17 -116 -56z"/>
<path d="M306 855 c-19 -20 -20 -26 -3 -49 26 -36 84 4 61 42 -15 23 -38 26
-58 7z"/>
<path d="M600 899 c0 -6 -12 -25 -26 -42 -20 -24 -24 -38 -20 -61 5 -27 16
-40 74 -87 16 -13 15 -39 -2 -39 -8 0 -17 11 -20 25 -8 30 -42 34 -51 6 -7
-23 7 -57 40 -96 l25 -30 35 40 c49 57 48 96 -5 145 -22 20 -40 45 -40 54 0
25 23 14 30 -15 5 -22 11 -25 40 -20 17 2 11 60 -8 79 -10 10 -21 26 -25 35
-7 19 -47 24 -47 6z"/>
</g>
</svg>
