<?xml version="1.0" standalone="no"?>
<!DOCTYPE svg PUBLIC "-//W3C//DTD SVG 20010904//EN"
 "http://www.w3.org/TR/2001/REC-SVG-20010904/DTD/svg10.dtd">
<svg version="1.0" xmlns="http://www.w3.org/2000/svg"
 width="200.000000pt" height="200.000000pt" viewBox="0 0 200.000000 200.000000"
 preserveAspectRatio="xMidYMid meet">
<metadata>
Created by potrace 1.16, written by Peter Selinger 2001-2019
</metadata>
<g transform="translate(0.000000,200.000000) scale(0.100000,-0.100000)"
fill="#000000" stroke="none">
<path d="M134 1864 c-17 -8 -36 -26 -43 -40 -8 -18 -11 -250 -11 -825 0 -874
-2 -843 58 -868 20 -9 106 -11 295 -9 l267 3 27 28 c28 27 28 29 31 177 l3
150 580 0 579 0 0 520 0 520 -579 0 -580 0 -3 150 c-3 148 -3 150 -31 177
l-27 28 -268 3 c-226 2 -272 0 -298 -14z m544 -206 l3 -138 -59 0 -59 0 -11
39 c-16 52 -65 98 -113 106 -47 8 -102 -16 -133 -59 -21 -27 -21 -40 -24 -591
-3 -624 -4 -616 60 -655 41 -25 110 -26 149 -3 27 16 69 84 69 111 0 8 21 12
60 12 l61 0 -3 -137 -3 -138 -255 0 -255 0 -3 785 c-1 432 0 791 3 798 3 10
60 12 257 10 l253 -3 3 -137z m-214 -100 c14 -20 16 -89 16 -558 0 -597 2
-580 -65 -580 -24 0 -38 6 -45 19 -6 13 -10 208 -10 565 0 482 2 546 16 560
23 24 70 20 88 -6z m1376 -193 l0 -75 -640 0 -640 0 0 75 0 75 640 0 640 0 0
-75z m0 -485 l0 -320 -640 0 -640 0 0 320 0 320 640 0 640 0 0 -320z"/>
<path d="M680 960 l0 -120 220 0 220 0 0 120 0 120 -220 0 -220 0 0 -120z
m360 0 l0 -40 -140 0 -140 0 0 40 0 40 140 0 140 0 0 -40z"/>
<path d="M684 716 c-3 -8 -4 -27 -2 -43 l3 -28 100 0 100 0 0 40 0 40 -98 3
c-78 2 -98 0 -103 -12z"/>
<path d="M974 716 c-3 -8 -4 -27 -2 -43 l3 -28 100 0 100 0 0 40 0 40 -98 3
c-78 2 -98 0 -103 -12z"/>
<path d="M1250 685 l0 -45 100 0 100 0 0 45 0 45 -100 0 -100 0 0 -45z"/>
<path d="M1530 680 l0 -40 100 0 100 0 0 40 0 40 -100 0 -100 0 0 -40z"/>
</g>
</svg>
