<?xml version="1.0" standalone="no"?>
<!DOCTYPE svg PUBLIC "-//W3C//DTD SVG 20010904//EN"
 "http://www.w3.org/TR/2001/REC-SVG-20010904/DTD/svg10.dtd">
<svg version="1.0" xmlns="http://www.w3.org/2000/svg"
 width="200.000000pt" height="200.000000pt" viewBox="0 0 200.000000 200.000000"
 preserveAspectRatio="xMidYMid meet">
<metadata>
Created by potrace 1.16, written by Peter Selinger 2001-2019
</metadata>
<g transform="translate(0.000000,200.000000) scale(0.100000,-0.100000)"
fill="#000000" stroke="none">
<path d="M875 1553 c-19 -25 -34 -51 -32 -57 2 -7 57 -11 158 -11 130 0 154 2
154 15 0 12 -22 15 -128 18 l-127 3 21 28 c20 27 19 51 -1 51 -5 0 -25 -21
-45 -47z"/>
<path d="M845 1430 c-15 -24 12 -30 127 -30 l122 0 -29 -30 c-23 -24 -26 -33
-17 -42 10 -10 23 -1 63 39 29 28 49 56 45 62 -9 14 -302 15 -311 1z"/>
<path d="M745 1268 c-3 -7 -4 -204 -3 -438 l3 -425 78 -3 77 -3 0 71 0 70 40
0 c22 0 40 -4 40 -10 0 -5 -13 -10 -30 -10 l-30 0 0 -60 c0 -33 4 -60 10 -60
6 0 10 23 10 50 0 43 3 50 20 50 17 0 20 -7 20 -50 0 -43 3 -50 20 -50 17 0
20 7 20 50 0 43 3 50 20 50 17 0 20 -7 20 -50 0 -27 5 -50 10 -50 6 0 10 27
10 60 l0 60 -30 0 c-16 0 -30 5 -30 10 0 6 18 10 40 10 l40 0 0 -70 0 -71 78
3 77 3 0 435 0 435 -253 3 c-197 2 -254 0 -257 -10z m135 -108 c0 -38 -2 -40
-30 -40 -28 0 -30 2 -30 40 0 38 2 40 30 40 28 0 30 -2 30 -40z m80 0 c0 -38
-2 -40 -30 -40 -28 0 -30 2 -30 40 0 38 2 40 30 40 28 0 30 -2 30 -40z m140 0
c0 -38 -2 -40 -30 -40 -28 0 -30 2 -30 40 0 38 2 40 30 40 28 0 30 -2 30 -40z
m80 0 c0 -38 -2 -40 -30 -40 -28 0 -30 2 -30 40 0 38 2 40 30 40 28 0 30 -2
30 -40z m-300 -100 c0 -38 -2 -40 -30 -40 -28 0 -30 2 -30 40 0 38 2 40 30 40
28 0 30 -2 30 -40z m80 0 c0 -38 -2 -40 -30 -40 -28 0 -30 2 -30 40 0 38 2 40
30 40 28 0 30 -2 30 -40z m140 0 c0 -38 -2 -40 -30 -40 -28 0 -30 2 -30 40 0
38 2 40 30 40 28 0 30 -2 30 -40z m80 0 c0 -38 -2 -40 -30 -40 -28 0 -30 2
-30 40 0 38 2 40 30 40 28 0 30 -2 30 -40z m-300 -100 c0 -38 -2 -40 -30 -40
-28 0 -30 2 -30 40 0 38 2 40 30 40 28 0 30 -2 30 -40z m80 0 c0 -38 -2 -40
-30 -40 -28 0 -30 2 -30 40 0 38 2 40 30 40 28 0 30 -2 30 -40z m140 0 c0 -38
-2 -40 -30 -40 -28 0 -30 2 -30 40 0 38 2 40 30 40 28 0 30 -2 30 -40z m80 0
c0 -38 -2 -40 -30 -40 -28 0 -30 2 -30 40 0 38 2 40 30 40 28 0 30 -2 30 -40z
m-300 -100 c0 -38 -2 -40 -30 -40 -28 0 -30 2 -30 40 0 38 2 40 30 40 28 0 30
-2 30 -40z m80 0 c0 -38 -2 -40 -30 -40 -28 0 -30 2 -30 40 0 38 2 40 30 40
28 0 30 -2 30 -40z m140 0 c0 -38 -2 -40 -30 -40 -28 0 -30 2 -30 40 0 38 2
40 30 40 28 0 30 -2 30 -40z m80 0 c0 -38 -2 -40 -30 -40 -28 0 -30 2 -30 40
0 38 2 40 30 40 28 0 30 -2 30 -40z m-300 -100 c0 -38 -2 -40 -30 -40 -28 0
-30 2 -30 40 0 38 2 40 30 40 28 0 30 -2 30 -40z m80 0 c0 -38 -2 -40 -30 -40
-28 0 -30 2 -30 40 0 38 2 40 30 40 28 0 30 -2 30 -40z m140 0 c0 -38 -2 -40
-30 -40 -28 0 -30 2 -30 40 0 38 2 40 30 40 28 0 30 -2 30 -40z m80 0 c0 -38
-2 -40 -30 -40 -28 0 -30 2 -30 40 0 38 2 40 30 40 28 0 30 -2 30 -40z m-300
-100 c0 -38 -2 -40 -30 -40 -28 0 -30 2 -30 40 0 38 2 40 30 40 28 0 30 -2 30
-40z m80 0 c0 -38 -2 -40 -30 -40 -28 0 -30 2 -30 40 0 38 2 40 30 40 28 0 30
-2 30 -40z m140 0 c0 -38 -2 -40 -30 -40 -28 0 -30 2 -30 40 0 38 2 40 30 40
28 0 30 -2 30 -40z m80 0 c0 -38 -2 -40 -30 -40 -28 0 -30 2 -30 40 0 38 2 40
30 40 28 0 30 -2 30 -40z"/>
</g>
</svg>
