<?xml version="1.0" standalone="no"?>
<!DOCTYPE svg PUBLIC "-//W3C//DTD SVG 20010904//EN"
 "http://www.w3.org/TR/2001/REC-SVG-20010904/DTD/svg10.dtd">
<svg version="1.0" xmlns="http://www.w3.org/2000/svg"
 width="200.000000pt" height="200.000000pt" viewBox="0 0 200.000000 200.000000"
 preserveAspectRatio="xMidYMid meet">
<metadata>
Created by potrace 1.16, written by Peter Selinger 2001-2019
</metadata>
<g transform="translate(0.000000,200.000000) scale(0.100000,-0.100000)"
fill="#000000" stroke="none">
<path d="M352 1727 c-170 -86 -202 -105 -200 -122 2 -16 12 -21 46 -23 l42 -3
0 -44 c0 -29 5 -45 15 -49 22 -8 23 -336 1 -336 -20 0 -24 -18 -32 -121 -6
-73 -4 -93 7 -100 23 -14 653 -11 667 3 14 14 16 104 2 113 -5 3 -10 26 -10
50 0 34 -5 47 -20 55 -19 10 -20 21 -20 168 0 145 2 159 20 175 13 11 20 29
20 51 0 33 2 35 38 38 29 2 38 7 40 25 3 20 -20 34 -197 123 -111 55 -204 100
-208 99 -5 0 -99 -46 -211 -102z m338 -22 l125 -64 -255 0 -255 0 125 64 c69
35 127 64 130 64 3 0 61 -29 130 -64z m-310 -145 c0 -17 -7 -20 -45 -20 -38 0
-45 3 -45 20 0 17 7 20 45 20 38 0 45 -3 45 -20z m80 -20 c0 -27 5 -43 15 -46
13 -5 15 -34 15 -175 l0 -169 -40 0 -40 0 0 169 c0 141 2 170 15 175 10 3 15
19 15 46 0 22 5 40 10 40 6 0 10 -18 10 -40z m148 23 c-2 -13 -15 -19 -46 -21
-37 -3 -42 -1 -42 17 0 18 6 21 46 21 38 0 45 -3 42 -17z m82 -27 c0 -30 5
-46 15 -50 12 -4 15 -33 15 -171 l0 -165 -45 0 -45 0 0 169 c0 141 2 170 15
175 10 3 15 19 15 46 0 29 4 40 15 40 11 0 15 -12 15 -44z m140 24 c0 -17 -7
-20 -45 -20 -38 0 -45 3 -45 20 0 17 7 20 45 20 38 0 45 -3 45 -20z m-480
-241 c0 -132 -3 -170 -12 -167 -10 4 -14 46 -16 158 -3 157 0 180 18 180 6 0
10 -60 10 -171z m220 1 c0 -107 -4 -170 -10 -170 -6 0 -10 63 -10 170 0 107 4
170 10 170 6 0 10 -63 10 -170z m230 -6 c0 -128 -3 -165 -12 -162 -10 4 -14
46 -16 158 -3 158 0 186 18 175 6 -4 10 -71 10 -171z m38 -236 c3 -17 -15 -18
-272 -18 -270 0 -276 0 -276 20 0 20 5 20 272 18 251 -3 273 -4 276 -20z m12
-88 c0 -6 -103 -10 -290 -10 -187 0 -290 4 -290 10 0 6 103 10 290 10 187 0
290 -4 290 -10z"/>
<path d="M1017 1546 c-112 -38 -117 -66 -16 -85 35 -7 84 -23 109 -36 48 -24
140 -115 140 -138 0 -8 -12 -19 -26 -25 -17 -9 -24 -19 -22 -33 2 -16 30 -31
122 -70 122 -50 141 -55 150 -41 3 5 15 65 27 135 25 139 21 160 -23 140 -20
-9 -26 -5 -51 33 -86 130 -245 176 -410 120z m242 -52 c58 -24 100 -63 132
-120 19 -34 38 -54 49 -54 16 0 17 -5 5 -65 -6 -36 -14 -67 -17 -70 -3 -3 -22
2 -44 11 -21 9 -49 20 -62 25 -19 7 -21 12 -11 27 28 45 -89 190 -188 235
l-48 21 30 7 c38 9 110 1 154 -17z"/>
<path d="M1232 977 c-170 -86 -202 -105 -200 -122 2 -15 12 -21 41 -23 36 -3
37 -4 37 -41 0 -22 6 -44 15 -51 12 -10 15 -43 15 -175 0 -136 -3 -164 -15
-169 -10 -4 -15 -20 -15 -50 0 -25 -4 -48 -10 -51 -15 -9 -12 -101 4 -114 9
-8 108 -11 342 -9 l329 3 -2 88 c-1 104 -8 137 -28 137 -22 0 -22 325 0 334
10 4 15 20 15 50 l0 45 43 3 c34 2 42 7 42 23 0 16 -41 41 -200 122 -110 56
-202 102 -205 102 -3 0 -96 -46 -208 -102z m336 -95 c-70 -1 -187 -1 -260 0
l-133 3 130 66 130 67 130 -67 130 -66 -127 -3z m-308 -72 c0 -17 -7 -20 -45
-20 -38 0 -45 3 -45 20 0 17 7 20 45 20 38 0 45 -3 45 -20z m80 -24 c0 -30 5
-46 15 -50 12 -4 15 -33 15 -171 l0 -165 -45 0 -45 0 0 164 c0 136 3 165 15
170 10 3 15 19 15 44 0 21 3 42 7 45 15 16 23 4 23 -37z m140 24 c0 -17 -7
-20 -45 -20 -31 0 -45 4 -45 13 0 21 11 27 52 27 31 0 38 -3 38 -20z m80 -19
c0 -22 6 -44 15 -51 12 -10 15 -43 15 -176 l0 -164 -40 0 -40 0 0 164 c0 133
3 166 15 176 9 7 15 29 15 51 0 22 5 39 10 39 6 0 10 -17 10 -39z m150 19 c0
-17 -7 -20 -45 -20 -38 0 -45 3 -45 20 0 17 7 20 45 20 38 0 45 -3 45 -20z
m-480 -245 c0 -140 -2 -165 -15 -165 -13 0 -15 25 -15 165 0 140 2 165 15 165
13 0 15 -25 15 -165z m220 0 c0 -103 -4 -165 -10 -165 -6 0 -10 62 -10 165 0
103 4 165 10 165 6 0 10 -62 10 -165z m230 0 c0 -140 -2 -165 -15 -165 -13 0
-15 25 -15 165 0 140 2 165 15 165 13 0 15 -25 15 -165z m30 -240 c0 -13 -37
-15 -270 -15 -233 0 -270 2 -270 15 0 13 37 15 270 15 233 0 270 -2 270 -15z
m20 -85 c0 -6 -103 -10 -290 -10 -187 0 -290 4 -290 10 0 6 103 10 290 10 187
0 290 -4 290 -10z"/>
<path d="M536 863 c-24 -83 -56 -245 -51 -254 4 -6 19 -9 36 -5 25 5 31 1 45
-25 29 -57 92 -116 155 -144 57 -25 69 -27 153 -22 99 5 157 19 181 43 21 22
5 40 -43 49 -92 16 -202 89 -238 157 -19 37 -18 43 11 56 15 7 25 20 25 32 0
16 -24 32 -116 75 -125 59 -150 65 -158 38z m129 -86 c51 -25 50 -24 35 -42
-32 -38 65 -179 162 -234 53 -31 53 -41 -2 -41 -105 0 -208 67 -255 165 -15
32 -32 55 -41 55 -10 0 -14 6 -10 18 3 9 10 38 17 65 13 53 16 54 94 14z"/>
</g>
</svg>
