<?xml version="1.0" standalone="no"?>
<!DOCTYPE svg PUBLIC "-//W3C//DTD SVG 20010904//EN"
 "http://www.w3.org/TR/2001/REC-SVG-20010904/DTD/svg10.dtd">
<svg version="1.0" xmlns="http://www.w3.org/2000/svg"
 width="200.000000pt" height="200.000000pt" viewBox="0 0 200.000000 200.000000"
 preserveAspectRatio="xMidYMid meet">
<metadata>
Created by potrace 1.16, written by Peter Selinger 2001-2019
</metadata>
<g transform="translate(0.000000,200.000000) scale(0.100000,-0.100000)"
fill="#000000" stroke="none">
<path d="M631 1747 l-354 -172 361 -3 c199 -1 525 -1 724 0 l361 3 -356 173
c-196 94 -362 172 -369 172 -7 -1 -172 -78 -367 -173z"/>
<path d="M320 1490 l0 -40 680 0 680 0 0 40 0 40 -680 0 -680 0 0 -40z"/>
<path d="M410 1380 l0 -30 105 0 105 0 0 30 0 30 -105 0 -105 0 0 -30z"/>
<path d="M890 1380 l0 -30 105 0 105 0 0 30 0 30 -105 0 -105 0 0 -30z"/>
<path d="M1380 1380 l0 -30 105 0 105 0 0 30 0 30 -105 0 -105 0 0 -30z"/>
<path d="M460 855 l0 -456 58 3 57 3 3 453 2 452 -60 0 -60 0 0 -455z"/>
<path d="M940 855 l0 -455 60 0 60 0 0 455 0 455 -60 0 -60 0 0 -455z"/>
<path d="M1422 858 l3 -453 58 -3 57 -3 0 456 0 455 -60 0 -60 0 2 -452z"/>
<path d="M410 330 l0 -30 105 0 105 0 0 30 0 30 -105 0 -105 0 0 -30z"/>
<path d="M890 330 l0 -30 105 0 105 0 0 30 0 30 -105 0 -105 0 0 -30z"/>
<path d="M1380 330 l0 -30 105 0 105 0 0 30 0 30 -105 0 -105 0 0 -30z"/>
<path d="M320 220 l0 -40 680 0 680 0 0 40 0 40 -680 0 -680 0 0 -40z"/>
<path d="M182 108 l3 -33 815 0 815 0 3 33 3 32 -821 0 -821 0 3 -32z"/>
</g>
</svg>
