<?xml version="1.0" standalone="no"?>
<!DOCTYPE svg PUBLIC "-//W3C//DTD SVG 20010904//EN"
 "http://www.w3.org/TR/2001/REC-SVG-20010904/DTD/svg10.dtd">
<svg version="1.0" xmlns="http://www.w3.org/2000/svg"
 width="200.000000pt" height="200.000000pt" viewBox="0 0 200.000000 200.000000"
 preserveAspectRatio="xMidYMid meet">
<metadata>
Created by potrace 1.16, written by Peter Selinger 2001-2019
</metadata>
<g transform="translate(0.000000,200.000000) scale(0.100000,-0.100000)"
fill="#000000" stroke="none">
<path d="M347 1719 c-131 -88 -244 -171 -253 -185 -15 -22 -15 -26 0 -49 13
-20 25 -25 56 -25 38 0 40 -2 40 -31 0 -22 5 -32 20 -36 19 -5 20 -14 20 -178
l0 -173 -25 -6 c-25 -6 -40 -38 -33 -73 3 -17 25 -18 438 -18 l435 0 3 28 c4
30 -21 67 -45 67 -10 0 -13 35 -12 178 2 228 3 236 50 240 21 2 45 12 54 22
29 32 12 62 -62 112 -38 26 -148 101 -246 167 -98 67 -184 121 -191 121 -7 0
-119 -72 -249 -161z m476 -51 c122 -83 224 -153 226 -155 2 -1 -200 -3 -449
-3 -387 0 -452 2 -440 14 17 15 431 296 437 296 3 0 104 -68 226 -152z m-313
-453 l0 -175 -45 0 -45 0 0 175 0 175 45 0 45 0 0 -175z m290 0 l0 -175 -50 0
-50 0 0 175 0 175 50 0 50 0 0 -175z m-440 0 l0 -165 -40 0 -40 0 0 165 0 165
40 0 40 0 0 -165z m290 0 l0 -165 -40 0 -40 0 0 165 0 165 40 0 40 0 0 -165z
m280 0 l0 -165 -40 0 -40 0 0 165 0 165 40 0 40 0 0 -165z"/>
<path d="M545 1705 c-46 -45 -22 -134 40 -149 34 -9 89 18 104 50 17 38 14 59
-15 93 -34 41 -92 44 -129 6z"/>
<path d="M1341 1696 c-65 -65 -82 -88 -77 -103 8 -26 150 -163 168 -163 21 0
38 21 38 48 0 24 2 24 48 18 114 -15 225 -103 284 -227 18 -38 36 -69 40 -69
14 0 19 91 9 160 -7 40 -23 96 -36 125 -48 100 -161 181 -287 206 -53 11 -58
14 -58 38 0 28 -16 51 -35 51 -6 0 -48 -38 -94 -84z"/>
<path d="M1143 894 c-256 -174 -275 -193 -238 -234 9 -10 34 -20 54 -22 31 -3
36 -7 39 -31 2 -15 12 -32 23 -37 18 -10 19 -23 19 -175 l0 -164 -27 -13 c-24
-11 -28 -20 -28 -53 l0 -40 426 -3 c377 -2 428 0 439 13 19 23 1 67 -33 83
l-27 13 0 169 c0 102 4 171 10 175 6 3 10 19 10 35 0 27 3 29 42 32 33 2 45 8
54 27 24 47 32 40 -344 294 -79 53 -151 97 -160 97 -10 -1 -126 -75 -259 -166z
m488 -45 c120 -82 219 -152 219 -155 0 -2 -200 -4 -445 -4 -245 0 -445 3 -445
8 1 8 430 301 443 302 4 0 107 -68 228 -151z m-463 -451 l2 -168 -40 0 -40 0
0 171 0 170 38 -3 37 -3 3 -167z m152 -4 l0 -175 -47 3 -48 3 -3 160 c-1 87 0
165 2 172 3 8 23 13 51 13 l45 0 0 -176z m130 6 l0 -170 -40 0 -40 0 0 163 c0
90 3 167 7 170 3 4 21 7 40 7 l33 0 0 -170z m155 -5 l0 -170 -47 -3 -48 -3 0
176 0 176 48 -3 47 -3 0 -170z m133 3 l2 -168 -40 0 -40 0 0 171 0 170 38 -3
37 -3 3 -167z"/>
<path d="M1385 911 c-60 -25 -78 -100 -35 -146 32 -34 97 -35 128 -2 30 32 30
96 0 125 -27 25 -66 34 -93 23z"/>
<path d="M105 736 c-17 -110 40 -274 118 -342 54 -47 149 -92 210 -100 27 -4
50 -12 52 -18 2 -6 6 -23 9 -38 11 -49 44 -36 129 50 42 42 77 84 77 93 0 14
-160 179 -173 179 -14 0 -37 -34 -37 -56 0 -28 -7 -29 -78 -10 -110 30 -197
105 -254 221 -18 36 -36 65 -40 65 -4 0 -10 -20 -13 -44z"/>
</g>
</svg>
