<?xml version="1.0" standalone="no"?>
<!DOCTYPE svg PUBLIC "-//W3C//DTD SVG 20010904//EN"
 "http://www.w3.org/TR/2001/REC-SVG-20010904/DTD/svg10.dtd">
<svg version="1.0" xmlns="http://www.w3.org/2000/svg"
 width="200.000000pt" height="200.000000pt" viewBox="0 0 200.000000 200.000000"
 preserveAspectRatio="xMidYMid meet">
<metadata>
Created by potrace 1.16, written by Peter Selinger 2001-2019
</metadata>
<g transform="translate(0.000000,200.000000) scale(0.100000,-0.100000)"
fill="#000000" stroke="none">
<path d="M367 1718 c-103 -68 -187 -126 -187 -130 0 -5 34 -8 75 -8 l75 0 0
-99 c0 -96 -1 -100 -22 -103 -18 -2 -24 -11 -26 -35 -3 -29 -7 -33 -33 -33
-27 0 -29 -3 -29 -35 0 -32 -2 -35 -30 -35 -28 0 -30 -3 -30 -35 l0 -35 405 0
405 0 0 35 c0 32 -2 35 -30 35 -28 0 -30 3 -30 35 0 32 -2 35 -29 35 -26 0
-30 4 -33 33 -2 24 -8 33 -25 35 -19 3 -23 10 -23 38 l0 34 169 0 c92 0 193
-5 222 -10 65 -12 123 -51 164 -109 29 -41 30 -48 33 -159 3 -95 1 -115 -9
-104 -21 20 -57 15 -64 -9 -6 -17 5 -34 54 -83 l61 -61 51 50 c59 58 71 78 63
99 -7 18 -49 22 -59 6 -18 -29 -25 0 -25 98 0 101 -2 113 -30 170 -36 71 -82
115 -160 151 -52 24 -65 26 -262 29 l-208 4 0 29 0 28 78 3 77 3 -184 124
c-102 68 -192 126 -201 128 -9 3 -98 -49 -203 -119z m277 -10 l80 -53 -83 -3
c-45 -2 -117 -2 -159 0 l-77 3 75 52 c41 29 77 52 79 52 3 1 41 -23 85 -51z
m-114 -228 l0 -100 -65 0 -65 0 0 100 0 100 65 0 65 0 0 -100z m200 0 l0 -100
-65 0 -65 0 0 100 0 100 65 0 65 0 0 -100z"/>
<path d="M506 1041 c-59 -60 -67 -84 -34 -105 13 -8 21 -6 36 8 20 17 20 16
24 -126 3 -129 6 -148 29 -199 33 -71 87 -124 158 -158 54 -25 64 -26 264 -29
l207 -3 0 -35 c0 -27 -4 -34 -20 -34 -16 0 -20 -7 -20 -35 0 -32 -2 -35 -30
-35 -28 0 -30 -3 -30 -35 0 -32 -2 -35 -30 -35 -28 0 -30 -3 -30 -35 l0 -35
405 0 405 0 0 35 c0 32 -2 35 -30 35 -28 0 -30 3 -30 35 0 32 -2 35 -30 35
-28 0 -30 3 -30 34 0 30 -3 35 -27 38 l-28 3 -3 103 -3 102 83 0 83 0 -198
132 -197 131 -198 -131 -197 -132 78 0 77 0 0 -35 0 -35 -183 0 c-222 0 -268
10 -331 74 -61 61 -76 112 -76 264 0 123 0 125 19 108 26 -24 55 -17 59 14 2
19 -11 39 -55 83 l-59 57 -58 -59z m999 -341 c41 -28 75 -53 75 -55 0 -3 -71
-5 -157 -5 l-158 0 80 54 c44 30 81 55 83 55 2 1 36 -22 77 -49z m-115 -235
l0 -106 -62 3 -63 3 -3 103 -3 102 66 0 65 0 0 -105z m200 0 l0 -106 -62 3
-63 3 -3 103 -3 102 66 0 65 0 0 -105z"/>
</g>
</svg>
