<?xml version="1.0" standalone="no"?>
<!DOCTYPE svg PUBLIC "-//W3C//DTD SVG 20010904//EN"
 "http://www.w3.org/TR/2001/REC-SVG-20010904/DTD/svg10.dtd">
<svg version="1.0" xmlns="http://www.w3.org/2000/svg"
 width="200.000000pt" height="200.000000pt" viewBox="0 0 200.000000 200.000000"
 preserveAspectRatio="xMidYMid meet">
<metadata>
Created by potrace 1.16, written by Peter Selinger 2001-2019
</metadata>
<g transform="translate(0.000000,200.000000) scale(0.100000,-0.100000)"
fill="#000000" stroke="none">
<path d="M553 1652 c-238 -131 -438 -243 -443 -248 -7 -7 -10 -52 -8 -115 l3
-104 93 -3 92 -3 0 -53 c0 -56 8 -66 51 -66 18 0 19 -11 19 -305 0 -294 -1
-305 -19 -305 -43 0 -51 -10 -51 -66 l0 -53 -92 -3 -93 -3 0 -105 0 -105 895
0 895 0 0 105 0 105 -92 3 -93 3 0 53 c0 56 -8 66 -51 66 -18 0 -19 11 -19
304 l0 304 35 6 c35 7 35 7 35 61 l0 54 93 3 92 3 3 107 c3 102 2 108 -20 122
-68 43 -869 476 -880 475 -7 0 -208 -107 -445 -237z m874 -58 l413 -226 0 -64
0 -64 -840 0 -840 0 0 64 0 64 413 226 c226 124 418 226 426 226 8 0 200 -102
428 -226z m-817 -444 l0 -30 -130 0 -130 0 0 30 0 30 130 0 130 0 0 -30z m200
-24 c0 -56 8 -66 51 -66 18 0 19 -11 19 -305 0 -294 -1 -305 -19 -305 -43 0
-51 -10 -51 -66 l0 -54 -70 0 -70 0 0 54 c0 56 -8 66 -51 66 -18 0 -19 11 -19
305 0 294 1 305 19 305 43 0 51 10 51 66 l0 54 70 0 70 0 0 -54z m320 24 l0
-30 -130 0 -130 0 0 30 0 30 130 0 130 0 0 -30z m200 -24 c0 -56 8 -66 51 -66
18 0 19 -11 19 -305 0 -294 -1 -305 -19 -305 -43 0 -51 -10 -51 -66 l0 -54
-70 0 -70 0 0 54 c0 56 -8 66 -51 66 -18 0 -19 11 -19 304 l0 304 35 6 c35 7
35 7 35 61 l0 55 70 0 70 0 0 -54z m320 24 l0 -30 -130 0 -130 0 0 30 0 30
130 0 130 0 0 -30z m-1110 -395 l0 -305 -60 0 -60 0 0 305 0 305 60 0 60 0 0
-305z m520 0 l0 -305 -60 0 -60 0 0 305 0 305 60 0 60 0 0 -305z m520 0 l0
-305 -60 0 -60 0 0 305 0 305 60 0 60 0 0 -305z m-970 -395 l0 -30 -130 0
-130 0 0 30 0 30 130 0 130 0 0 -30z m520 0 l0 -30 -130 0 -130 0 0 30 0 30
130 0 130 0 0 -30z m520 0 l0 -30 -130 0 -130 0 0 30 0 30 130 0 130 0 0 -30z
m190 -140 l0 -50 -840 0 -840 0 0 50 0 50 840 0 840 0 0 -50z"/>
<path d="M963 1697 c-46 -47 -50 -77 -18 -115 15 -18 33 -32 40 -32 21 0 38
-27 24 -36 -8 -4 -18 1 -27 14 -28 42 -75 16 -52 -28 16 -30 56 -70 70 -70 14
0 54 40 71 71 17 32 -7 76 -54 100 -30 16 -37 23 -28 32 9 9 17 6 31 -13 16
-21 22 -23 37 -14 26 17 18 52 -20 91 -17 18 -34 33 -37 33 -3 0 -19 -15 -37
-33z"/>
<path d="M387 1353 c-13 -12 -7 -41 9 -47 9 -3 282 -6 609 -6 512 0 594 2 605
15 7 8 10 22 6 30 -5 13 -80 15 -614 15 -335 0 -612 -3 -615 -7z"/>
</g>
</svg>
