<?xml version="1.0" standalone="no"?>
<!DOCTYPE svg PUBLIC "-//W3C//DTD SVG 20010904//EN"
 "http://www.w3.org/TR/2001/REC-SVG-20010904/DTD/svg10.dtd">
<svg version="1.0" xmlns="http://www.w3.org/2000/svg"
 width="200.000000pt" height="200.000000pt" viewBox="0 0 200.000000 200.000000"
 preserveAspectRatio="xMidYMid meet">
<metadata>
Created by potrace 1.16, written by Peter Selinger 2001-2019
</metadata>
<g transform="translate(0.000000,200.000000) scale(0.100000,-0.100000)"
fill="#000000" stroke="none">
<path d="M1053 1827 c-297 -187 -318 -207 -218 -207 l55 0 0 -250 0 -250 -36
0 c-60 0 -74 -13 -74 -73 0 -29 5 -58 12 -65 17 -17 1069 -17 1086 0 7 7 12
35 12 63 0 62 -11 75 -67 75 l-43 0 0 250 0 250 55 0 c102 0 80 20 -219 208
-151 95 -278 172 -283 171 -4 0 -131 -78 -280 -172z m502 -15 c110 -69 205
-130 212 -136 16 -14 -482 -22 -709 -11 l-158 7 217 138 c120 76 222 136 228
133 5 -4 100 -63 210 -131z m-537 -444 l2 -248 -40 0 -40 0 0 251 0 250 38 -3
37 -3 3 -247z m590 0 l2 -248 -270 0 -270 0 0 250 0 250 268 -2 267 -3 3 -247z
m122 2 l0 -250 -40 0 -40 0 0 243 c0 134 3 247 7 250 3 4 21 7 40 7 l33 0 0
-250z m115 -325 c0 -20 -8 -20 -504 -23 -306 -1 -509 2 -514 7 -5 5 -7 16 -4
24 5 12 80 14 514 13 501 -1 508 -1 508 -21z"/>
<path d="M1239 1547 c-117 -62 -144 -214 -56 -314 65 -74 156 -91 244 -48 150
75 152 289 2 365 -54 28 -134 26 -190 -3z m181 -50 c94 -62 97 -193 8 -260
-39 -29 -123 -34 -168 -9 -42 23 -80 91 -80 141 0 48 37 110 80 132 49 26 119
25 160 -4z"/>
<path d="M1311 1487 c-5 -13 -16 -29 -25 -36 -19 -16 -21 -72 -4 -89 9 -9 9
-12 0 -12 -21 0 -14 -59 8 -72 11 -7 20 -18 20 -23 0 -18 21 -34 36 -28 8 3
14 11 14 19 0 7 11 24 25 38 29 29 31 44 11 72 -13 17 -12 21 2 37 14 16 14
20 -6 45 -12 15 -27 37 -32 50 -12 29 -38 28 -49 -1z m47 -84 c2 -8 -5 -13
-17 -13 -21 0 -35 13 -24 24 10 10 36 3 41 -11z m-7 -78 c-2 -17 -36 -11 -39
7 -3 14 1 16 18 10 12 -4 21 -12 21 -17z"/>
<path d="M377 1714 c-4 -4 -7 -27 -7 -50 l0 -43 -127 -3 -128 -3 -3 -127 -3
-128 130 0 130 0 3 -52 c2 -38 7 -54 18 -56 15 -2 300 222 300 236 -1 11 -269
224 -289 229 -9 2 -20 1 -24 -3z m195 -183 c26 -20 46 -40 45 -44 -1 -4 -45
-41 -97 -82 l-95 -74 -5 32 -5 32 -132 3 -133 3 0 84 0 84 133 3 132 3 3 38 3
38 52 -42 c29 -23 73 -58 99 -78z"/>
<path d="M389 858 c-151 -94 -277 -176 -281 -182 -13 -20 14 -36 63 -36 l49 0
0 -249 0 -250 -53 -3 -52 -3 0 -65 0 -65 539 -3 c390 -1 543 1 552 9 9 7 14
32 14 64 0 59 -6 65 -71 65 l-39 0 0 250 0 250 43 0 c49 0 72 12 64 33 -4 10
-429 284 -543 350 -6 3 -134 -71 -285 -165z m504 -28 l216 -135 -225 -3 c-124
-1 -325 -1 -446 0 l-221 3 219 137 c120 75 224 136 230 135 5 -1 108 -63 227
-137z m-543 -440 l0 -250 -40 0 -40 0 0 250 0 250 40 0 40 0 0 -250z m580 0
l0 -250 -270 0 -270 0 0 250 0 250 270 0 270 0 0 -250z m130 0 l0 -250 -40 0
-40 0 0 250 0 250 40 0 40 0 0 -250z m120 -320 c0 -20 -7 -20 -515 -20 -508 0
-515 0 -515 20 0 20 7 20 515 20 508 0 515 0 515 -20z"/>
<path d="M596 585 c-47 -16 -103 -69 -122 -112 -31 -73 -10 -176 48 -230 60
-56 164 -69 239 -30 125 66 145 235 39 331 -59 53 -129 68 -204 41z m133 -50
c96 -49 119 -173 48 -249 -61 -65 -151 -67 -222 -5 -58 52 -67 139 -20 207 38
53 136 77 194 47z"/>
<path d="M653 533 c-7 -3 -13 -13 -13 -23 0 -10 -7 -20 -15 -24 -8 -3 -20 -17
-27 -30 -9 -20 -8 -30 6 -51 17 -25 17 -27 -1 -40 -17 -13 -17 -15 5 -42 12
-15 27 -38 32 -51 12 -28 43 -26 49 3 2 11 12 26 22 33 21 14 25 53 9 83 -7
13 -7 19 0 19 18 0 11 50 -10 67 -11 10 -20 23 -20 29 0 16 -22 32 -37 27z
m35 -104 c2 -13 -3 -15 -23 -12 -25 5 -31 14 -18 27 12 11 38 2 41 -15z m-14
-65 c20 -8 11 -24 -15 -24 -10 0 -19 7 -19 15 0 16 9 19 34 9z"/>
<path d="M1452 635 c-78 -64 -142 -119 -142 -123 0 -4 67 -60 147 -124 160
-128 173 -132 173 -52 l0 43 128 3 127 3 3 128 3 127 -130 0 -130 0 -3 52 c-2
38 -7 54 -18 56 -8 1 -79 -50 -158 -113z m266 -33 l132 -3 0 -84 0 -84 -132
-3 -133 -3 -5 -37 -5 -36 -97 76 c-53 43 -96 81 -95 85 1 4 45 41 97 82 l95
74 5 -32 5 -32 133 -3z"/>
</g>
</svg>
