<?xml version="1.0" standalone="no"?>
<!DOCTYPE svg PUBLIC "-//W3C//DTD SVG 20010904//EN"
 "http://www.w3.org/TR/2001/REC-SVG-20010904/DTD/svg10.dtd">
<svg version="1.0" xmlns="http://www.w3.org/2000/svg"
 width="200.000000pt" height="200.000000pt" viewBox="0 0 200.000000 200.000000"
 preserveAspectRatio="xMidYMid meet">
<metadata>
Created by potrace 1.16, written by Peter Selinger 2001-2019
</metadata>
<g transform="translate(0.000000,200.000000) scale(0.100000,-0.100000)"
fill="#000000" stroke="none">
<path d="M773 1606 c-119 -28 -304 -142 -290 -179 10 -26 42 -20 94 17 108 77
198 108 308 108 77 -1 161 -26 230 -71 l40 -26 -28 -3 c-32 -4 -45 -26 -27
-47 13 -15 121 -22 154 -9 25 9 23 160 -1 172 -28 15 -43 3 -43 -34 0 -19 -2
-34 -5 -34 -2 0 -28 15 -57 34 -116 73 -253 99 -375 72z"/>
<path d="M260 1220 l-185 -68 -3 -37 c-2 -20 -12 -45 -23 -56 -13 -13 -19 -33
-19 -63 0 -36 5 -48 26 -65 15 -12 37 -21 50 -21 l24 0 0 -175 0 -174 -34 -16
c-18 -9 -38 -27 -45 -41 -15 -33 -14 -97 1 -112 17 -17 829 -17 846 0 17 17
15 83 -3 118 -9 16 -27 33 -40 36 l-25 6 0 179 c0 168 1 179 19 179 10 0 30 9
45 21 21 17 26 29 26 65 0 30 -6 50 -19 63 -11 11 -21 37 -23 57 l-3 38 -190
68 c-104 37 -201 68 -215 67 -14 0 -108 -31 -210 -69z m388 -52 c103 -37 172
-66 172 -74 0 -10 -28 -14 -112 -16 l-113 -3 0 -25 0 -25 133 -3 c124 -2 132
-4 132 -22 0 -19 -7 -20 -119 -20 -66 0 -126 -3 -135 -6 -32 -12 -11 -64 26
-64 17 0 18 -13 18 -181 l0 -180 -22 3 c-22 3 -23 8 -28 111 -6 134 -9 137
-127 137 -117 0 -123 -7 -123 -145 l0 -105 -25 0 -25 0 0 179 0 179 30 6 c23
4 30 11 30 30 0 13 -7 27 -16 30 -9 3 -69 6 -135 6 -112 0 -119 1 -119 20 0
18 8 20 133 22 l132 3 0 25 0 25 -112 3 c-82 2 -113 6 -113 15 0 9 304 131
340 136 3 1 83 -27 178 -61z m-418 -438 c0 -173 -1 -180 -20 -180 -19 0 -20 7
-20 180 0 173 1 180 20 180 19 0 20 -7 20 -180z m530 0 c0 -173 -1 -180 -20
-180 -19 0 -20 7 -20 180 0 173 1 180 20 180 19 0 20 -7 20 -180z m-220 -85
l0 -95 -65 0 -65 0 0 95 0 95 65 0 65 0 0 -95z m300 -159 c0 -2 3 -11 6 -20 6
-14 -31 -16 -370 -16 -207 0 -376 2 -376 4 0 2 3 11 6 20 5 14 47 16 370 16
200 0 364 -2 364 -4z"/>
<path d="M453 1163 c-4 -10 -15 -24 -26 -32 -29 -20 -36 -52 -22 -88 11 -27
11 -32 -1 -37 -31 -12 0 -96 36 -96 6 0 10 -7 10 -15 0 -17 29 -34 48 -28 6 3
12 11 12 19 0 8 11 19 24 26 38 17 51 59 31 97 -14 28 -14 33 -1 47 19 18 4
56 -31 79 -12 9 -23 22 -23 30 0 22 -49 19 -57 -2z m57 -93 c10 -19 9 -20 -17
-14 -35 8 -37 10 -28 23 10 18 33 13 45 -9z m-1 -86 c3 -3 0 -9 -6 -15 -14
-14 -49 -3 -57 17 -5 13 0 14 27 9 17 -4 34 -9 36 -11z"/>
<path d="M1310 1221 l-185 -68 -3 -37 c-2 -21 -12 -46 -23 -57 -13 -13 -19
-33 -19 -63 0 -36 5 -48 26 -65 15 -12 35 -21 45 -21 18 0 19 -11 19 -179 l0
-179 -25 -6 c-13 -3 -31 -20 -40 -36 -18 -35 -20 -101 -3 -118 17 -17 829 -17
846 0 15 15 16 79 1 112 -7 14 -27 32 -45 41 l-34 16 0 174 0 175 24 0 c13 0
35 9 50 21 34 27 37 98 6 129 -11 11 -20 32 -20 48 0 15 -4 32 -8 38 -10 15
-372 144 -402 143 -14 0 -108 -31 -210 -68z m387 -53 c105 -37 173 -66 173
-74 0 -10 -28 -14 -112 -16 l-113 -3 0 -25 0 -25 133 -3 c124 -2 132 -4 132
-22 0 -19 -7 -20 -119 -20 -66 0 -126 -3 -135 -6 -9 -3 -16 -17 -16 -30 0 -19
7 -26 30 -30 l30 -6 0 -179 0 -179 -25 0 -25 0 0 105 c0 138 -6 145 -123 145
-118 0 -121 -3 -127 -137 -5 -103 -6 -108 -27 -111 l-23 -3 0 179 0 180 30 6
c23 4 30 11 30 30 0 13 -7 27 -16 30 -9 3 -69 6 -135 6 -112 0 -119 1 -119 20
0 18 8 20 133 22 l132 3 0 25 0 25 -112 3 c-82 2 -113 6 -113 15 0 9 303 131
339 136 3 1 83 -27 178 -61z m-417 -438 c0 -173 -1 -180 -20 -180 -19 0 -20 7
-20 180 0 173 1 180 20 180 19 0 20 -7 20 -180z m530 0 c0 -173 -1 -180 -20
-180 -19 0 -20 7 -20 180 0 173 1 180 20 180 19 0 20 -7 20 -180z m-220 -85
l0 -95 -65 0 -65 0 0 95 0 95 65 0 65 0 0 -95z m300 -159 c0 -2 3 -11 6 -20 6
-14 -31 -16 -370 -16 -207 0 -376 2 -376 4 0 2 3 11 6 20 5 14 47 16 370 16
200 0 364 -2 364 -4z"/>
<path d="M1503 1163 c-4 -10 -15 -24 -25 -32 -30 -21 -41 -59 -25 -90 11 -23
10 -28 -5 -44 -17 -16 -17 -19 -2 -48 9 -17 24 -34 35 -36 10 -3 19 -11 19
-19 0 -7 8 -17 17 -23 13 -7 26 0 58 32 23 23 45 50 48 60 7 19 -8 57 -27 69
-6 4 -4 9 7 14 29 11 20 50 -22 93 -42 44 -68 52 -78 24z m51 -89 c22 -22 20
-25 -11 -18 -35 8 -37 10 -28 23 9 15 21 14 39 -5z m5 -90 c1 -1 0 -7 -4 -13
-11 -18 -44 -12 -56 10 -10 20 -9 21 23 14 18 -4 35 -9 37 -11z"/>
</g>
</svg>
