<?xml version="1.0" standalone="no"?>
<!DOCTYPE svg PUBLIC "-//W3C//DTD SVG 20010904//EN"
 "http://www.w3.org/TR/2001/REC-SVG-20010904/DTD/svg10.dtd">
<svg version="1.0" xmlns="http://www.w3.org/2000/svg"
 width="200.000000pt" height="200.000000pt" viewBox="0 0 200.000000 200.000000"
 preserveAspectRatio="xMidYMid meet">
<metadata>
Created by potrace 1.16, written by Peter Selinger 2001-2019
</metadata>
<g transform="translate(0.000000,200.000000) scale(0.100000,-0.100000)"
fill="#000000" stroke="none">
<path d="M781 1619 c-92 -16 -213 -75 -314 -153 -22 -17 -19 -59 4 -64 9 -2
46 18 82 43 197 137 377 150 564 39 l48 -28 -30 -6 c-24 -4 -30 -10 -30 -30 0
-25 1 -25 90 -25 l90 0 3 78 c3 85 -7 110 -42 105 -16 -2 -22 -12 -26 -39 l-5
-37 -64 39 c-116 70 -252 99 -370 78z"/>
<path d="M290 1160 c-74 -27 -154 -57 -177 -66 -24 -8 -43 -22 -43 -30 0 -11
23 -14 119 -14 114 0 120 -1 127 -22 12 -39 -17 -48 -158 -48 -121 0 -128 -1
-128 -20 0 -18 8 -20 143 -22 l142 -3 0 -25 c0 -21 -5 -26 -32 -28 l-33 -3 0
-195 0 -194 24 0 c24 0 24 1 28 110 3 98 5 112 26 132 20 21 32 23 112 23 80
0 92 -2 112 -23 21 -20 23 -34 26 -132 4 -109 4 -110 28 -110 l24 0 -2 192 -3
193 -30 5 c-24 4 -30 10 -30 30 l0 25 143 3 c134 2 142 4 142 22 0 19 -7 20
-128 20 -136 0 -168 9 -160 46 3 17 14 19 121 22 103 2 117 5 117 20 0 13 -41
31 -178 80 -97 34 -181 62 -187 62 -5 -1 -71 -23 -145 -50z m186 -15 c4 -8 21
-30 40 -49 39 -39 41 -50 15 -73 -20 -16 -20 -17 0 -41 10 -14 19 -33 19 -44
0 -20 -90 -118 -109 -118 -6 0 -17 11 -23 25 -6 13 -19 27 -30 31 -22 7 -50
57 -42 78 3 8 12 17 19 20 12 4 11 10 -2 36 -12 26 -13 36 -3 61 7 16 21 34
31 39 10 6 21 19 24 30 8 24 53 28 61 5z"/>
<path d="M425 1051 c-6 -11 1 -16 38 -25 26 -6 27 -5 17 14 -11 21 -44 27 -55
11z"/>
<path d="M410 950 c11 -21 70 -29 70 -10 0 11 -7 14 -53 24 -26 6 -27 5 -17
-14z"/>
<path d="M1410 1159 c-74 -27 -154 -56 -178 -65 -71 -26 -47 -38 84 -44 104
-4 119 -7 122 -23 8 -40 -13 -47 -154 -47 -127 0 -134 -1 -134 -20 0 -18 8
-20 143 -22 l142 -3 0 -25 c0 -20 -6 -26 -30 -30 l-30 -5 -3 -193 -2 -192 24
0 c24 0 24 1 28 110 3 98 5 112 26 132 20 21 32 23 112 23 80 0 92 -2 112 -23
21 -20 23 -34 26 -132 4 -109 4 -110 28 -110 l24 0 0 194 0 195 -32 3 c-28 2
-33 7 -33 28 l0 25 143 3 c134 2 142 4 142 22 0 19 -7 20 -128 20 -136 0 -168
9 -160 46 3 17 14 19 126 22 173 4 165 17 -61 98 -99 35 -184 64 -190 63 -7 0
-73 -22 -147 -50z m186 -14 c4 -8 21 -30 40 -49 40 -40 42 -59 12 -80 -12 -9
-18 -16 -12 -16 12 0 34 -43 34 -66 0 -25 -95 -115 -114 -108 -9 3 -16 10 -16
15 0 5 -15 22 -34 39 -42 39 -51 66 -26 87 16 14 16 19 5 46 -16 38 -7 65 37
112 35 37 65 45 74 20z"/>
<path d="M1545 1051 c-6 -11 1 -16 38 -25 26 -6 27 -5 17 14 -11 21 -44 27
-55 11z"/>
<path d="M1530 950 c11 -21 70 -29 70 -10 0 11 -7 14 -53 24 -26 6 -27 5 -17
-14z"/>
<path d="M137 873 c-4 -3 -7 -91 -7 -195 l0 -188 25 0 25 0 0 195 c0 182 -1
195 -18 195 -10 0 -22 -3 -25 -7z"/>
<path d="M700 686 l0 -196 25 0 25 0 -2 193 c-3 191 -3 192 -25 195 l-23 3 0
-195z"/>
<path d="M1257 873 c-4 -3 -7 -91 -7 -195 l0 -188 25 0 25 0 0 195 c0 182 -1
195 -18 195 -10 0 -22 -3 -25 -7z"/>
<path d="M1820 686 l0 -196 25 0 25 0 -2 193 c-3 191 -3 192 -25 195 l-23 3 0
-195z"/>
<path d="M370 590 l0 -100 70 0 71 0 -3 98 -3 97 -67 3 -68 3 0 -101z"/>
<path d="M1497 683 c-4 -3 -7 -48 -7 -100 l0 -93 70 0 70 0 0 100 0 100 -63 0
c-35 0 -67 -3 -70 -7z"/>
<path d="M44 405 c-3 -8 -3 -19 1 -25 8 -13 781 -14 789 -1 4 5 3 16 0 25 -5
14 -49 16 -395 16 -331 0 -390 -2 -395 -15z"/>
<path d="M1166 403 c-4 -9 -3 -20 2 -25 4 -4 183 -7 398 -6 381 3 389 3 389
23 0 20 -8 20 -391 23 -359 2 -392 1 -398 -15z"/>
</g>
</svg>
