<?xml version="1.0" standalone="no"?>
<!DOCTYPE svg PUBLIC "-//W3C//DTD SVG 20010904//EN"
 "http://www.w3.org/TR/2001/REC-SVG-20010904/DTD/svg10.dtd">
<svg version="1.0" xmlns="http://www.w3.org/2000/svg"
 width="200.000000pt" height="200.000000pt" viewBox="0 0 200.000000 200.000000"
 preserveAspectRatio="xMidYMid meet">
<metadata>
Created by potrace 1.16, written by Peter Selinger 2001-2019
</metadata>
<g transform="translate(0.000000,200.000000) scale(0.100000,-0.100000)"
fill="#000000" stroke="none">
<path d="M835 1744 c-88 -52 -224 -131 -302 -175 -79 -45 -143 -83 -143 -85 0
-2 276 -4 613 -4 l612 1 -50 30 c-94 57 -550 321 -560 324 -5 2 -82 -39 -170
-91z"/>
<path d="M222 1398 l3 -33 775 0 775 0 3 33 3 32 -781 0 -781 0 3 -32z"/>
<path d="M320 1275 l0 -46 143 3 142 3 0 40 0 40 -142 3 -143 3 0 -46z"/>
<path d="M658 1258 c-3 -54 -6 -64 -25 -73 l-23 -10 0 -320 0 -320 23 -10 c19
-9 22 -19 25 -73 l3 -63 67 3 67 3 3 133 3 132 -24 0 c-31 0 -47 18 -47 51 0
21 -5 28 -22 31 -21 3 -23 9 -23 58 l0 55 315 0 315 0 0 -55 c0 -49 -2 -55
-22 -58 -18 -3 -23 -10 -23 -31 0 -33 -16 -51 -47 -51 l-24 0 3 -132 3 -133
67 -3 67 -3 3 63 c3 54 6 64 26 73 l22 10 0 320 0 320 -22 10 c-20 9 -23 19
-26 73 l-3 62 -339 0 -339 0 -3 -62z m567 -33 c0 -19 -8 -20 -219 -23 -130 -1
-224 2 -229 7 -5 5 -7 17 -4 26 6 13 34 15 229 13 215 -3 223 -4 223 -23z m0
-90 c0 -19 -8 -20 -219 -23 -130 -1 -224 2 -229 7 -5 5 -7 17 -4 26 6 13 34
15 229 13 215 -3 223 -4 223 -23z m0 -90 c0 -19 -8 -20 -219 -23 -130 -1 -224
2 -229 7 -5 5 -7 17 -4 26 6 13 34 15 229 13 215 -3 223 -4 223 -23z"/>
<path d="M1394 1306 c-3 -8 -4 -27 -2 -43 l3 -28 143 -3 142 -3 0 46 0 45
-140 0 c-112 0 -142 -3 -146 -14z"/>
<path d="M360 855 c0 -282 2 -325 15 -325 13 0 15 43 15 325 0 282 -2 325 -15
325 -13 0 -15 -43 -15 -325z"/>
<path d="M440 855 c0 -318 0 -325 20 -325 20 0 20 7 20 325 0 318 0 325 -20
325 -20 0 -20 -7 -20 -325z"/>
<path d="M530 855 c0 -282 2 -325 15 -325 13 0 15 43 15 325 0 282 -2 325 -15
325 -13 0 -15 -43 -15 -325z"/>
<path d="M1440 855 c0 -282 2 -325 15 -325 13 0 15 43 15 325 0 282 -2 325
-15 325 -13 0 -15 -43 -15 -325z"/>
<path d="M1520 855 c0 -318 0 -325 20 -325 20 0 20 7 20 325 0 318 0 325 -20
325 -20 0 -20 -7 -20 -325z"/>
<path d="M1610 855 c0 -282 2 -325 15 -325 13 0 15 43 15 325 0 282 -2 325
-15 325 -13 0 -15 -43 -15 -325z"/>
<path d="M737 813 c-4 -3 -7 -10 -7 -15 0 -4 122 -8 271 -8 212 0 270 3 267
13 -4 9 -67 13 -264 15 -143 1 -263 -1 -267 -5z"/>
<path d="M785 730 c-3 -6 0 -12 7 -15 26 -10 423 0 421 10 -4 14 -419 19 -428
5z"/>
<path d="M850 535 l0 -125 150 0 150 0 0 125 0 125 -150 0 -150 0 0 -125z"/>
<path d="M320 435 l0 -46 143 3 142 3 0 40 0 40 -142 3 -143 3 0 -46z"/>
<path d="M1394 466 c-3 -8 -4 -27 -2 -43 l3 -28 143 -3 142 -3 0 46 0 45 -140
0 c-112 0 -142 -3 -146 -14z"/>
<path d="M227 343 c-4 -3 -7 -19 -7 -35 l0 -28 781 0 780 0 -3 33 -3 32 -771
3 c-424 1 -774 -1 -777 -5z"/>
<path d="M100 195 l0 -35 900 0 900 0 0 35 0 35 -900 0 -900 0 0 -35z"/>
</g>
</svg>
