<?xml version="1.0" standalone="no"?>
<!DOCTYPE svg PUBLIC "-//W3C//DTD SVG 20010904//EN"
 "http://www.w3.org/TR/2001/REC-SVG-20010904/DTD/svg10.dtd">
<svg version="1.0" xmlns="http://www.w3.org/2000/svg"
 width="200.000000pt" height="200.000000pt" viewBox="0 0 200.000000 200.000000"
 preserveAspectRatio="xMidYMid meet">
<metadata>
Created by potrace 1.16, written by Peter Selinger 2001-2019
</metadata>
<g transform="translate(0.000000,200.000000) scale(0.100000,-0.100000)"
fill="#000000" stroke="none">
<path d="M1275 1802 l-180 -107 183 -3 c101 -1 263 -1 360 0 l177 3 -160 94
c-88 52 -169 100 -180 107 -18 12 -39 2 -200 -94z"/>
<path d="M670 1701 c0 -5 7 -25 16 -46 15 -36 14 -38 -8 -53 -98 -68 -193
-195 -235 -314 -30 -84 -45 -234 -23 -226 7 2 18 22 25 44 36 121 155 269 263
327 l52 28 15 -35 c9 -20 21 -36 28 -36 6 0 33 49 58 108 35 80 44 110 35 118
-13 13 -198 94 -215 94 -6 0 -11 -4 -11 -9z m126 -70 c38 -16 69 -33 71 -38 1
-4 -13 -39 -31 -78 -33 -69 -34 -70 -44 -42 -7 15 -14 27 -18 27 -3 0 -32 -14
-63 -30 -74 -40 -153 -110 -208 -183 -51 -71 -55 -52 -10 46 40 86 115 179
187 232 46 34 51 41 46 67 -3 15 -4 28 -2 28 2 0 35 -13 72 -29z"/>
<path d="M1040 1625 l0 -25 413 2 412 3 3 23 3 22 -415 0 -416 0 0 -25z"/>
<path d="M1110 1565 c0 -12 14 -15 65 -15 51 0 65 3 65 15 0 12 -14 15 -65 15
-51 0 -65 -3 -65 -15z"/>
<path d="M1670 1565 c0 -12 14 -15 65 -15 51 0 65 3 65 15 0 12 -14 15 -65 15
-51 0 -65 -3 -65 -15z"/>
<path d="M1432 1558 c-19 -19 -14 -44 11 -62 15 -12 16 -15 5 -12 -24 7 -29
-5 -12 -28 11 -16 16 -17 29 -6 20 17 19 57 -2 69 -17 10 -17 10 0 11 21 0 23
26 1 34 -20 8 -18 8 -32 -6z"/>
<path d="M1136 1384 c-4 -82 -3 -141 2 -146 5 -5 24 -8 42 -6 l32 3 -1 128
c-1 70 -5 135 -8 143 -3 7 -18 14 -33 14 l-27 0 -7 -136z"/>
<path d="M1698 1420 c-1 -55 -2 -119 -3 -142 l0 -43 40 0 c39 0 40 1 39 33 0
17 -1 82 -2 142 l-2 110 -35 0 -35 0 -2 -100z"/>
<path d="M1350 1275 l0 -135 45 0 45 0 0 135 0 135 -45 0 -45 0 0 -135z"/>
<path d="M1470 1275 l0 -135 45 0 45 0 0 135 0 135 -45 0 -45 0 0 -135z"/>
<path d="M1120 1200 c0 -5 25 -10 56 -10 34 0 53 4 49 10 -3 6 -28 10 -56 10
-27 0 -49 -4 -49 -10z"/>
<path d="M1685 1200 c-4 -6 15 -10 49 -10 31 0 56 5 56 10 0 6 -22 10 -49 10
-28 0 -53 -4 -56 -10z"/>
<path d="M1090 1155 c0 -12 16 -15 85 -15 69 0 85 3 85 15 0 12 -16 15 -85 15
-69 0 -85 -3 -85 -15z"/>
<path d="M1650 1155 c0 -12 16 -15 85 -15 69 0 85 3 85 15 0 12 -16 15 -85 15
-69 0 -85 -3 -85 -15z"/>
<path d="M1040 1091 c-5 -11 -10 -22 -10 -25 0 -3 191 -6 425 -6 234 0 425 3
425 6 0 3 -5 14 -10 25 -10 18 -26 19 -415 19 -389 0 -405 -1 -415 -19z"/>
<path d="M1022 1033 c-45 -18 43 -23 434 -23 344 0 435 3 432 13 -4 9 -100 12
-429 14 -233 1 -430 -1 -437 -4z"/>
<path d="M372 888 c-94 -56 -172 -106 -172 -110 0 -4 155 -8 345 -8 200 0 345
4 345 9 0 7 -302 192 -339 209 -4 1 -84 -44 -179 -100z"/>
<path d="M1570 821 c0 -36 -81 -181 -133 -237 -51 -56 -157 -134 -183 -134 -7
0 -18 16 -24 35 -6 19 -17 35 -23 35 -12 0 -112 -218 -105 -226 12 -11 203
-94 218 -94 18 0 18 2 3 46 -15 44 -15 47 3 57 68 38 180 174 223 272 46 105
68 265 36 265 -8 0 -15 -8 -15 -19z m-40 -213 c-31 -83 -107 -186 -187 -252
-65 -54 -70 -62 -62 -84 5 -14 8 -26 7 -28 -3 -2 -139 55 -147 62 -2 2 11 38
29 80 33 75 34 76 47 50 8 -14 19 -26 26 -26 25 0 139 75 191 126 29 28 66 72
82 98 36 57 41 47 14 -26z"/>
<path d="M130 710 c0 -20 7 -20 415 -20 408 0 415 0 415 20 0 20 -7 20 -415
20 -408 0 -415 0 -415 -20z"/>
<path d="M200 645 c0 -12 14 -15 65 -15 51 0 65 3 65 15 0 12 -14 15 -65 15
-51 0 -65 -3 -65 -15z"/>
<path d="M760 645 c0 -12 14 -15 65 -15 51 0 65 3 65 15 0 12 -14 15 -65 15
-51 0 -65 -3 -65 -15z"/>
<path d="M520 631 c-14 -26 -13 -27 13 -51 16 -16 17 -19 5 -15 -21 8 -25 -14
-6 -33 9 -9 16 -8 30 5 24 22 23 54 -2 60 -11 3 -20 9 -20 13 0 5 9 6 20 3 22
-6 26 7 8 25 -18 18 -36 15 -48 -7z"/>
<path d="M235 598 c-2 -7 -6 -73 -8 -145 l-5 -133 44 0 43 0 -5 133 c-3 72 -7
138 -10 145 -2 6 -15 12 -29 12 -14 0 -27 -6 -30 -12z"/>
<path d="M796 578 c-3 -18 -7 -84 -8 -146 l-3 -112 43 0 44 0 -7 138 c-4 75
-9 140 -12 145 -2 4 -15 7 -28 7 -19 0 -25 -6 -29 -32z"/>
<path d="M440 355 l0 -135 45 0 45 0 0 135 0 135 -45 0 -45 0 0 -135z"/>
<path d="M560 355 l0 -135 45 0 45 0 0 135 0 135 -45 0 -45 0 0 -135z"/>
<path d="M210 280 c0 -5 25 -10 55 -10 30 0 55 5 55 10 0 6 -25 10 -55 10 -30
0 -55 -4 -55 -10z"/>
<path d="M775 280 c-4 -6 15 -10 49 -10 31 0 56 5 56 10 0 6 -22 10 -49 10
-28 0 -53 -4 -56 -10z"/>
<path d="M180 235 c0 -12 16 -15 85 -15 69 0 85 3 85 15 0 12 -16 15 -85 15
-69 0 -85 -3 -85 -15z"/>
<path d="M740 235 c0 -12 16 -15 85 -15 69 0 85 3 85 15 0 12 -16 15 -85 15
-69 0 -85 -3 -85 -15z"/>
<path d="M135 178 l-15 -23 421 -3 c232 -1 424 0 427 3 3 3 -3 14 -13 25 -18
19 -30 20 -411 20 l-393 0 -16 -22z"/>
<path d="M117 113 c-4 -3 -7 -10 -7 -15 0 -11 867 -10 874 1 3 5 -1 12 -10 15
-21 8 -849 8 -857 -1z"/>
</g>
</svg>
