<?xml version="1.0" standalone="no"?>
<!DOCTYPE svg PUBLIC "-//W3C//DTD SVG 20010904//EN"
 "http://www.w3.org/TR/2001/REC-SVG-20010904/DTD/svg10.dtd">
<svg version="1.0" xmlns="http://www.w3.org/2000/svg"
 width="200.000000pt" height="200.000000pt" viewBox="0 0 200.000000 200.000000"
 preserveAspectRatio="xMidYMid meet">
<metadata>
Created by potrace 1.16, written by Peter Selinger 2001-2019
</metadata>
<g transform="translate(0.000000,200.000000) scale(0.100000,-0.100000)"
fill="#000000" stroke="none">
<path d="M1255 1760 c-98 -59 -181 -112 -183 -119 -3 -8 99 -11 383 -11 242 0
385 4 383 10 -4 13 -375 230 -390 229 -7 0 -94 -49 -193 -109z m356 -98 c-82
-1 -221 -1 -307 0 l-158 3 154 91 154 91 153 -91 154 -91 -150 -3z"/>
<path d="M670 1741 c0 -5 7 -24 15 -44 l14 -35 -53 -41 c-133 -100 -231 -285
-238 -446 -4 -86 14 -98 36 -23 33 113 148 260 251 319 28 16 54 29 58 29 4 0
15 -16 23 -36 8 -19 20 -34 26 -32 14 5 100 198 96 216 -2 8 -47 34 -102 58
-99 44 -126 52 -126 35z m146 -77 l54 -24 -26 -57 c-14 -32 -28 -66 -31 -75
-6 -21 -23 -24 -23 -5 0 6 -4 18 -9 26 -22 35 -198 -87 -274 -191 -27 -38 -52
-67 -54 -65 -6 7 35 106 64 157 32 54 134 163 181 192 29 18 32 24 27 50 -8
35 -4 34 91 -8z"/>
<path d="M1014 1585 c-11 -28 4 -45 41 -45 31 0 35 -3 35 -25 0 -17 6 -25 16
-25 15 0 16 -15 10 -162 -6 -141 -10 -166 -27 -184 -10 -11 -19 -30 -19 -41 0
-13 -8 -24 -20 -28 -21 -7 -53 -58 -43 -69 8 -8 888 -8 896 0 10 10 -25 63
-45 70 -10 3 -18 15 -18 27 0 11 -9 31 -21 43 -19 20 -21 38 -26 183 -5 145
-4 161 11 161 10 0 16 8 16 25 0 22 4 25 35 25 32 0 35 2 35 30 l0 30 -435 0
c-378 0 -436 -2 -441 -15z m644 -12 c-115 -2 -301 -2 -415 0 -115 1 -21 2 207
2 228 0 322 -1 208 -2z m-438 -43 c0 -5 -25 -10 -55 -10 -30 0 -55 5 -55 10 0
6 25 10 55 10 30 0 55 -4 55 -10z m440 -11 c0 -12 8 -23 18 -26 17 -4 18 -15
15 -116 -5 -170 -12 -213 -34 -233 -10 -9 -19 -28 -19 -41 0 -19 -5 -23 -30
-23 l-30 0 0 139 c0 106 -3 141 -14 150 -9 8 -51 11 -122 9 l-109 -3 -3 -147
-3 -148 -29 0 c-23 0 -30 5 -30 19 0 11 -11 32 -24 48 -21 26 -23 39 -29 185
-5 148 -4 156 14 161 11 3 19 14 19 26 0 21 4 21 205 21 201 0 205 0 205 -21z
m130 11 c0 -5 -22 -10 -50 -10 -27 0 -50 5 -50 10 0 6 23 10 50 10 28 0 50 -4
50 -10z m-600 -127 c0 -49 3 -118 7 -155 l6 -68 -32 0 -31 0 0 88 c0 48 3 117
7 155 5 56 9 67 24 67 17 0 19 -9 19 -87z m573 -20 c4 -58 7 -128 7 -155 0
-47 0 -48 -32 -48 l-31 0 6 107 c4 58 7 128 7 155 0 40 3 48 18 48 17 0 20
-12 25 -107z m-323 -168 l0 -135 -40 0 -40 0 0 135 0 135 40 0 40 0 0 -135z
m110 0 l0 -135 -40 0 -40 0 0 135 0 135 40 0 40 0 0 -135z m-335 -75 c4 -6
-13 -10 -44 -10 -28 0 -51 5 -51 10 0 6 20 10 44 10 25 0 48 -4 51 -10z m570
0 c4 -6 -13 -10 -45 -10 -32 0 -49 4 -45 10 3 6 24 10 45 10 21 0 42 -4 45
-10z m-545 -50 c0 -6 -32 -10 -75 -10 -43 0 -75 4 -75 10 0 6 32 10 75 10 43
0 75 -4 75 -10z m570 0 c0 -6 -30 -10 -70 -10 -40 0 -70 4 -70 10 0 6 30 10
70 10 40 0 70 -4 70 -10z m55 -50 c4 -7 -135 -10 -410 -10 -275 0 -414 3 -410
10 8 14 812 14 820 0z"/>
<path d="M1432 1518 c-20 -20 -15 -59 8 -65 11 -3 20 -9 20 -13 0 -5 -10 -6
-21 -3 -15 4 -20 2 -17 -7 8 -24 35 -35 52 -21 23 19 20 46 -6 65 -14 11 -17
15 -6 12 22 -6 29 3 17 25 -11 22 -30 24 -47 7z"/>
<path d="M347 929 c-103 -61 -187 -115 -187 -120 0 -5 164 -9 385 -9 221 0
385 4 385 9 0 5 -64 46 -142 91 -78 46 -162 96 -187 111 -25 16 -50 29 -56 29
-5 0 -95 -50 -198 -111z m351 -3 c79 -46 148 -88 155 -95 8 -8 -70 -11 -306
-11 -174 0 -317 2 -317 5 0 7 303 185 315 185 6 0 75 -38 153 -84z"/>
<path d="M1007 974 c-4 -4 -4 -11 -1 -15 6 -10 863 -12 888 -3 9 3 13 10 10
15 -6 10 -887 13 -897 3z"/>
<path d="M1569 863 c-46 -114 -95 -199 -147 -252 -48 -49 -151 -121 -174 -121
-3 0 -12 16 -18 35 -6 19 -17 35 -24 35 -12 0 -106 -193 -106 -217 0 -13 218
-108 227 -99 3 3 0 24 -7 47 -14 41 -14 42 16 62 49 34 137 131 172 190 46 76
80 180 88 264 7 77 -7 106 -27 56z m-39 -206 c-39 -103 -147 -239 -238 -297
-20 -13 -22 -19 -13 -43 6 -15 7 -27 2 -27 -17 0 -141 61 -141 69 0 5 14 40
31 78 l31 68 14 -27 c8 -16 17 -28 20 -28 4 0 32 14 64 31 75 40 156 113 205
183 21 31 40 54 42 52 2 -2 -6 -28 -17 -59z"/>
<path d="M110 740 c0 -28 3 -30 35 -30 31 0 35 -3 35 -25 0 -17 6 -25 17 -25
14 0 16 -15 10 -161 -5 -144 -8 -164 -26 -183 -12 -12 -21 -32 -21 -43 0 -12
-8 -24 -18 -27 -20 -7 -55 -60 -45 -70 8 -8 888 -8 896 0 10 11 -22 62 -43 69
-12 4 -20 15 -20 28 0 11 -9 30 -20 42 -17 18 -20 41 -26 183 -6 147 -6 162 9
162 11 0 17 8 17 24 0 21 5 25 38 28 32 3 37 6 37 28 l0 25 -437 3 -438 2 0
-30z m648 3 c-114 -2 -303 -2 -420 0 -117 1 -24 2 207 2 231 0 327 -1 213 -2z
m-448 -43 c0 -5 -25 -10 -56 -10 -34 0 -53 4 -49 10 3 6 28 10 56 10 27 0 49
-4 49 -10z m216 -15 c-22 -33 -20 -56 4 -62 11 -3 20 -9 20 -13 0 -5 -9 -6
-20 -3 -24 6 -26 -4 -3 -29 15 -17 17 -17 35 -2 24 23 23 48 -4 68 -14 11 -17
15 -6 12 24 -7 29 4 11 30 l-15 24 101 0 c96 0 101 -1 101 -21 0 -12 8 -23 19
-26 19 -5 20 -12 14 -162 -6 -145 -8 -158 -29 -184 -13 -16 -24 -39 -24 -53 0
-20 -5 -24 -30 -24 l-29 0 -3 153 -3 152 -109 3 c-71 2 -113 -1 -122 -9 -11
-9 -14 -44 -14 -150 l0 -139 -30 0 c-25 0 -30 4 -30 23 0 13 -9 32 -20 42 -23
21 -28 58 -33 223 -3 112 -2 122 15 122 13 0 18 8 18 25 l0 25 101 0 101 0
-16 -25z m359 15 c4 -6 -15 -10 -49 -10 -31 0 -56 5 -56 10 0 6 22 10 49 10
28 0 53 -4 56 -10z m-605 -97 c0 -32 3 -102 7 -155 l6 -98 -31 0 -32 0 0 58
c0 31 3 101 7 155 5 85 8 97 25 97 15 0 18 -8 18 -57z m574 -20 c3 -42 6 -111
6 -155 l0 -78 -31 0 -32 0 7 77 c3 42 6 111 6 155 0 69 2 78 19 78 15 0 19
-11 25 -77z m-324 -203 l0 -140 -40 0 -40 0 0 140 0 140 40 0 40 0 0 -140z
m110 0 l0 -140 -40 0 -40 0 0 140 0 140 40 0 40 0 0 -140z m-335 -70 c4 -6
-13 -10 -45 -10 -32 0 -49 4 -45 10 3 6 24 10 45 10 21 0 42 -4 45 -10z m575
0 c0 -5 -23 -10 -51 -10 -31 0 -48 4 -44 10 3 6 26 10 51 10 24 0 44 -4 44
-10z m-550 -55 c0 -12 -14 -15 -70 -15 -56 0 -70 3 -70 15 0 12 14 15 70 15
56 0 70 -3 70 -15z m578 3 c-3 -9 -30 -14 -76 -16 -60 -2 -72 0 -72 13 0 12
14 15 76 15 56 0 75 -3 72 -12z m47 -48 c4 -7 -135 -10 -410 -10 -275 0 -414
3 -410 10 4 6 152 10 410 10 258 0 406 -4 410 -10z"/>
<path d="M95 140 c-3 -6 0 -12 7 -15 26 -10 893 0 891 10 -4 14 -889 19 -898
5z"/>
</g>
</svg>
