<?xml version="1.0" standalone="no"?>
<!DOCTYPE svg PUBLIC "-//W3C//DTD SVG 20010904//EN"
 "http://www.w3.org/TR/2001/REC-SVG-20010904/DTD/svg10.dtd">
<svg version="1.0" xmlns="http://www.w3.org/2000/svg"
 width="200.000000pt" height="200.000000pt" viewBox="0 0 200.000000 200.000000"
 preserveAspectRatio="xMidYMid meet">
<metadata>
Created by potrace 1.16, written by Peter Selinger 2001-2019
</metadata>
<g transform="translate(0.000000,200.000000) scale(0.100000,-0.100000)"
fill="#000000" stroke="none">
<path d="M850 1595 c-128 -28 -246 -88 -342 -175 -70 -62 -100 -103 -92 -124
11 -30 39 -16 114 57 85 81 194 144 300 173 98 26 255 24 350 -5 100 -30 195
-81 255 -137 l50 -45 -76 6 c-62 5 -78 4 -89 -10 -25 -30 6 -43 120 -50 145
-9 144 -10 148 138 4 97 2 115 -12 120 -29 12 -46 -20 -46 -89 0 -35 -3 -64
-6 -64 -3 0 -31 23 -62 51 -64 56 -187 121 -277 145 -85 22 -255 27 -335 9z"/>
<path d="M255 1020 c-206 -117 -210 -120 -210 -152 0 -30 3 -33 35 -38 19 -3
45 -12 57 -20 21 -14 23 -23 23 -106 0 -132 -10 -214 -26 -214 -8 0 -21 -11
-30 -25 -15 -23 -15 -27 0 -50 l16 -25 363 0 c269 0 366 3 375 12 28 28 8 88
-29 88 -15 0 -18 19 -24 149 -7 142 -6 150 13 169 12 12 37 22 59 24 32 3 38
7 41 29 2 15 -4 31 -15 40 -28 24 -412 239 -426 239 -6 -1 -106 -55 -222 -120z
m255 -64 c0 -8 17 -23 38 -33 38 -18 80 -82 67 -103 -10 -17 -75 -12 -75 5 0
21 -36 55 -60 55 -26 0 -54 -43 -45 -70 4 -14 32 -33 79 -54 84 -39 106 -64
106 -122 0 -51 -35 -99 -79 -109 -17 -3 -31 -14 -34 -26 -7 -24 -37 -25 -44 0
-3 11 -17 21 -35 25 -39 8 -88 58 -88 90 0 24 4 26 39 26 33 0 40 -4 43 -22 7
-51 95 -55 112 -5 13 35 -4 54 -80 88 -78 36 -104 67 -104 126 0 36 6 50 29
74 16 16 39 29 51 29 13 0 24 8 27 20 6 23 53 29 53 6z"/>
<path d="M1293 1019 c-213 -120 -213 -120 -213 -155 0 -33 1 -34 39 -34 25 0
41 -5 45 -15 3 -8 12 -15 21 -15 12 0 15 -18 15 -109 0 -158 -7 -198 -36 -205
-32 -8 -42 -50 -19 -77 18 -19 31 -19 383 -17 321 3 366 5 375 19 16 25 0 68
-27 75 -23 5 -25 12 -30 87 -12 176 -12 227 1 227 6 0 16 6 20 14 4 8 26 16
48 18 35 3 40 7 43 29 2 14 -3 31 -10 37 -24 19 -421 242 -432 242 -6 0 -107
-54 -223 -121z m247 -63 c0 -8 16 -20 35 -26 41 -13 75 -57 75 -95 0 -24 -3
-26 -37 -23 -31 2 -39 7 -41 26 -7 48 -86 54 -98 7 -10 -40 1 -53 81 -91 86
-41 105 -62 105 -120 0 -51 -26 -86 -80 -108 -22 -9 -40 -23 -40 -31 0 -8 -9
-15 -20 -15 -13 0 -20 7 -20 19 0 13 -9 20 -29 24 -38 8 -87 54 -95 90 -6 26
-5 27 32 27 32 0 41 -5 50 -25 32 -69 137 -38 111 32 -5 14 -31 33 -71 51 -81
37 -110 69 -112 120 -1 51 26 91 75 110 21 8 39 21 39 29 0 7 9 13 20 13 11 0
20 -6 20 -14z"/>
</g>
</svg>
