<?xml version="1.0" standalone="no"?>
<!DOCTYPE svg PUBLIC "-//W3C//DTD SVG 20010904//EN"
 "http://www.w3.org/TR/2001/REC-SVG-20010904/DTD/svg10.dtd">
<svg version="1.0" xmlns="http://www.w3.org/2000/svg"
 width="200.000000pt" height="200.000000pt" viewBox="0 0 200.000000 200.000000"
 preserveAspectRatio="xMidYMid meet">
<metadata>
Created by potrace 1.16, written by Peter Selinger 2001-2019
</metadata>
<g transform="translate(0.000000,200.000000) scale(0.100000,-0.100000)"
fill="#000000" stroke="none">
<path d="M585 1754 c-214 -86 -405 -162 -422 -171 -57 -26 -73 -66 -73 -178
l0 -97 34 -34 34 -34 831 0 c905 0 870 -2 901 56 10 18 15 56 15 113 -1 93
-17 139 -58 165 -33 22 -831 336 -853 336 -10 0 -194 -70 -409 -156z m502 -39
c76 -45 106 -149 66 -232 -24 -51 -94 -93 -155 -93 -56 0 -91 16 -130 57 -138
146 44 370 219 268z"/>
<path d="M286 1164 c-10 -27 -6 -110 6 -122 17 -17 339 -17 356 0 12 12 16 95
6 122 -5 14 -31 16 -184 16 -153 0 -179 -2 -184 -16z"/>
<path d="M817 1173 c-4 -3 -7 -34 -7 -69 0 -47 4 -63 16 -68 24 -9 327 -7 343
3 18 11 26 93 12 120 -11 20 -18 21 -185 21 -95 0 -176 -3 -179 -7z"/>
<path d="M1342 1168 c-15 -15 -16 -92 -2 -119 10 -18 23 -19 179 -19 133 0
171 3 180 14 7 9 11 38 9 73 l-3 58 -175 3 c-128 2 -179 -1 -188 -10z"/>
<path d="M367 984 c-4 -4 -7 -92 -7 -195 0 -220 -6 -209 112 -209 113 0 109
-9 106 215 l-3 190 -101 3 c-55 1 -103 0 -107 -4z"/>
<path d="M897 983 c-4 -3 -7 -91 -7 -194 0 -176 1 -189 19 -199 25 -13 141
-13 175 0 l26 10 0 179 c0 99 -3 186 -6 195 -5 13 -24 16 -103 16 -54 0 -101
-3 -104 -7z"/>
<path d="M1417 984 c-4 -4 -7 -92 -7 -196 l0 -188 26 -10 c37 -14 157 -12 177
3 16 11 17 32 15 202 l-3 190 -101 3 c-55 1 -103 0 -107 -4z"/>
<path d="M292 538 c-13 -13 -16 -106 -4 -126 7 -9 51 -12 188 -10 l179 3 3 58
c2 35 -2 64 -9 73 -15 19 -338 21 -357 2z"/>
<path d="M821 536 c-7 -9 -11 -38 -9 -73 l3 -58 180 0 180 0 3 64 c2 45 -1 67
-10 72 -7 5 -86 9 -174 9 -127 0 -164 -3 -173 -14z"/>
<path d="M1340 531 c-12 -23 -13 -101 -2 -119 7 -9 51 -12 188 -10 l179 3 3
58 c2 35 -2 64 -9 73 -9 11 -47 14 -180 14 -156 0 -169 -1 -179 -19z"/>
<path d="M233 340 c-61 -14 -93 -61 -93 -134 0 -36 -4 -48 -21 -56 -13 -7 -19
-19 -17 -33 l3 -22 900 0 900 0 3 23 c3 18 -3 26 -27 35 -29 11 -31 15 -31 60
0 56 -22 99 -59 119 -21 10 -172 13 -776 15 -412 0 -765 -2 -782 -7z"/>
</g>
</svg>
