<?xml version="1.0" standalone="no"?>
<!DOCTYPE svg PUBLIC "-//W3C//DTD SVG 20010904//EN"
 "http://www.w3.org/TR/2001/REC-SVG-20010904/DTD/svg10.dtd">
<svg version="1.0" xmlns="http://www.w3.org/2000/svg"
 width="200.000000pt" height="200.000000pt" viewBox="0 0 200.000000 200.000000"
 preserveAspectRatio="xMidYMid meet">
<metadata>
Created by potrace 1.16, written by Peter Selinger 2001-2019
</metadata>
<g transform="translate(0.000000,200.000000) scale(0.100000,-0.100000)"
fill="#000000" stroke="none">
<path d="M849 1820 c-135 -24 -356 -110 -609 -238 -150 -75 -176 -101 -147
-146 13 -19 32 -26 119 -39 378 -61 975 -85 1034 -43 15 11 13 18 -16 69 -41
72 -42 118 -5 226 34 100 29 126 -30 156 -33 16 -64 20 -170 22 -71 1 -151 -2
-176 -7z"/>
<path d="M1349 1633 c-62 -94 -64 -98 -64 -163 0 -92 19 -120 83 -120 58 0
281 24 417 45 77 12 104 20 118 37 17 20 16 49 -4 74 -20 25 -442 224 -474
224 -7 0 -41 -44 -76 -97z"/>
<path d="M334 1304 c11 -46 35 -62 116 -79 165 -35 275 -46 480 -52 231 -6
406 8 599 48 102 21 125 35 137 83 l7 29 -64 -6 c-148 -15 -286 -20 -304 -10
-13 7 -26 6 -49 -6 -26 -14 -70 -16 -296 -14 -238 1 -323 5 -564 29 l-69 7 7
-29z"/>
<path d="M375 1187 c-10 -32 -45 -488 -45 -594 l0 -53 125 0 125 0 0 309 0
308 -77 13 c-43 7 -88 16 -101 21 -16 6 -24 5 -27 -4z"/>
<path d="M1567 1184 c-27 -7 -71 -15 -98 -19 l-49 -7 0 -309 0 -309 127 0 126
0 -6 116 c-6 110 -18 151 -38 138 -5 -3 -25 -36 -44 -74 -19 -38 -39 -71 -45
-75 -13 -8 -13 -13 9 96 14 68 30 111 56 154 l37 60 -7 115 c-3 63 -9 118 -13
121 -4 3 -29 0 -55 -7z"/>
<path d="M750 838 l0 -299 83 3 82 3 3 288 c2 225 0 288 -10 291 -7 3 -46 6
-85 9 l-73 4 0 -299z"/>
<path d="M1155 1131 l-70 -6 0 -290 0 -290 83 -3 82 -3 0 301 c0 234 -3 300
-12 298 -7 -1 -44 -4 -83 -7z"/>
<path d="M213 490 c-28 -12 -43 -40 -43 -84 l0 -36 830 0 830 0 0 39 c0 23 -8
48 -19 62 l-19 24 -779 2 c-436 1 -788 -2 -800 -7z"/>
<path d="M122 314 c-51 -36 -48 -120 6 -148 28 -14 247 -46 462 -68 159 -16
632 -16 815 0 205 18 434 51 466 67 55 29 55 125 1 154 -15 8 -282 11 -874 11
-766 0 -856 -2 -876 -16z"/>
</g>
</svg>
