<?xml version="1.0" standalone="no"?>
<!DOCTYPE svg PUBLIC "-//W3C//DTD SVG 20010904//EN"
 "http://www.w3.org/TR/2001/REC-SVG-20010904/DTD/svg10.dtd">
<svg version="1.0" xmlns="http://www.w3.org/2000/svg"
 width="200.000000pt" height="200.000000pt" viewBox="0 0 200.000000 200.000000"
 preserveAspectRatio="xMidYMid meet">
<metadata>
Created by potrace 1.16, written by Peter Selinger 2001-2019
</metadata>
<g transform="translate(0.000000,200.000000) scale(0.100000,-0.100000)"
fill="#000000" stroke="none">
<path d="M805 1834 c-66 -16 -85 -28 -68 -45 7 -7 35 -5 93 7 62 12 116 15
210 12 111 -4 131 -7 159 -27 17 -12 31 -29 31 -38 0 -9 -14 -59 -31 -112 -34
-107 -33 -138 7 -210 13 -24 24 -47 24 -52 0 -12 -443 -11 -614 1 -186 14
-487 57 -502 72 -28 30 3 55 168 136 90 45 215 102 278 128 63 25 118 51 122
57 12 19 -3 29 -32 23 -37 -7 -293 -122 -441 -197 -97 -49 -120 -65 -133 -93
-20 -43 -20 -48 4 -78 16 -21 34 -28 102 -37 128 -19 125 -17 131 -63 3 -23
14 -53 25 -67 18 -25 19 -32 6 -151 -7 -69 -19 -227 -26 -352 l-12 -228 -39 0
c-44 0 -92 -22 -107 -49 -5 -11 -10 -42 -10 -69 0 -42 -3 -50 -25 -60 -28 -13
-65 -67 -65 -95 0 -36 32 -85 65 -101 66 -32 565 -83 565 -58 0 19 -27 32 -70
32 -39 0 -262 25 -400 45 -71 10 -100 25 -107 54 -9 33 -5 51 14 74 15 16 70
17 873 17 804 0 858 -1 872 -17 23 -28 28 -51 16 -77 -14 -33 -41 -42 -178
-60 -248 -33 -326 -39 -645 -45 -284 -5 -330 -8 -330 -21 0 -61 1040 -5 1152
62 67 40 63 146 -7 186 -27 15 -30 22 -30 65 0 27 -5 57 -10 68 -15 27 -63 49
-108 49 l-39 0 -5 131 c-5 114 -8 134 -26 151 -25 26 -46 19 -72 -24 l-21 -33
7 30 c8 35 25 74 59 134 28 49 31 105 16 240 -8 66 -7 77 11 101 11 15 22 46
25 68 3 23 8 42 12 42 3 0 49 7 101 15 127 21 157 50 124 121 -16 33 -34 44
-218 134 -111 53 -216 103 -233 110 -56 22 -76 8 -144 -97 -62 -96 -64 -100
-64 -165 0 -38 -1 -68 -2 -68 -1 0 -11 15 -22 34 -28 45 -27 105 4 196 39 115
33 145 -38 182 -37 20 -60 22 -192 25 -108 2 -167 -2 -210 -13z m686 -150 c35
-14 138 -62 228 -107 164 -81 194 -106 167 -135 -13 -14 -308 -58 -458 -68
l-98 -7 -15 36 c-29 69 -21 104 47 210 34 53 62 97 63 97 1 0 30 -12 66 -26z
m-189 -340 c20 -19 87 -20 211 -4 40 5 87 10 106 10 33 0 33 -1 27 -32 -10
-48 -25 -58 -122 -78 -182 -37 -277 -45 -529 -44 -249 0 -358 10 -539 48 -77
16 -93 27 -102 74 -6 31 -5 32 27 32 19 0 72 -4 119 -10 330 -36 725 -36 759
0 20 23 21 23 43 4z m-817 -148 l70 -12 3 -332 2 -332 -105 0 -105 0 0 48 c0
108 33 561 46 620 2 12 8 22 12 21 4 0 39 -6 77 -13z m1121 -10 c3 -12 6 -72
7 -132 2 -109 2 -109 -33 -165 -27 -42 -40 -79 -54 -153 -19 -100 -15 -125 18
-113 8 3 32 39 53 79 l37 73 7 -55 c4 -30 7 -88 8 -127 l1 -73 -105 0 -105 0
2 332 3 332 65 12 c36 6 71 12 77 13 7 0 15 -10 19 -23z m-907 -22 l31 -6 0
-319 0 -319 -65 0 -65 0 0 325 0 325 34 0 c18 0 48 -3 65 -6z m701 -319 l0
-325 -65 0 -65 0 0 165 c0 158 -1 165 -20 165 -19 0 -20 -7 -20 -165 l0 -165
-65 0 -65 0 0 310 c0 240 3 312 13 314 6 3 36 7 65 10 l52 5 0 -129 c0 -123 1
-130 20 -130 19 0 20 7 20 129 0 146 -6 137 88 140 l42 1 0 -325z m-512 299
c9 -2 12 -74 12 -314 l0 -310 -65 0 -65 0 0 320 0 319 53 -5 c28 -3 58 -7 65
-10z m172 -309 l0 -315 -60 0 -60 0 0 315 0 315 60 0 60 0 0 -315z m728 -371
c17 -12 22 -25 22 -60 l0 -44 -810 0 -810 0 0 44 c0 81 -55 76 810 76 677 0
768 -2 788 -16z"/>
</g>
</svg>
