<?xml version="1.0" standalone="no"?>
<!DOCTYPE svg PUBLIC "-//W3C//DTD SVG 20010904//EN"
 "http://www.w3.org/TR/2001/REC-SVG-20010904/DTD/svg10.dtd">
<svg version="1.0" xmlns="http://www.w3.org/2000/svg"
 width="200.000000pt" height="200.000000pt" viewBox="0 0 200.000000 200.000000"
 preserveAspectRatio="xMidYMid meet">
<metadata>
Created by potrace 1.16, written by Peter Selinger 2001-2019
</metadata>
<g transform="translate(0.000000,200.000000) scale(0.100000,-0.100000)"
fill="#000000" stroke="none">
<path d="M849 1821 c-136 -25 -356 -112 -609 -239 -150 -75 -176 -101 -147
-146 13 -19 32 -26 119 -39 502 -81 1038 -83 1541 -5 121 18 140 24 153 44 30
44 4 70 -146 146 -179 90 -404 185 -510 215 -66 19 -116 25 -220 28 -74 2
-156 0 -181 -4z"/>
<path d="M334 1304 c11 -46 35 -62 116 -79 165 -35 275 -46 480 -52 231 -6
406 8 599 48 102 21 125 35 137 83 l7 29 -69 -7 c-38 -3 -121 -12 -184 -18
-150 -15 -692 -15 -840 0 -63 6 -146 15 -184 18 l-69 7 7 -29z"/>
<path d="M375 1187 c-10 -32 -45 -488 -45 -594 l0 -53 125 0 125 0 0 309 0
308 -77 13 c-43 7 -88 16 -101 21 -16 6 -24 5 -27 -4z"/>
<path d="M1594 1190 c-11 -4 -55 -14 -97 -20 l-77 -13 0 -308 0 -309 126 0
127 0 -7 138 c-9 188 -37 506 -45 513 -3 4 -15 3 -27 -1z"/>
<path d="M750 937 l0 -200 53 49 c28 28 67 56 85 63 l32 13 0 130 c0 94 -3
130 -12 133 -7 2 -46 5 -85 8 l-73 4 0 -200z"/>
<path d="M1155 1131 l-70 -6 -3 -131 -3 -131 33 -14 c18 -7 57 -35 86 -63 l52
-49 0 202 c0 155 -3 201 -12 199 -7 -1 -44 -4 -83 -7z"/>
<path d="M920 818 c-52 -15 -174 -145 -238 -253 -63 -108 -106 -234 -97 -285
9 -51 50 -115 87 -138 122 -74 524 -73 652 2 46 27 81 81 90 141 15 94 -96
315 -224 445 -95 97 -162 119 -270 88z m147 -153 c37 -25 48 -83 34 -178 -16
-100 -32 -140 -65 -162 -52 -34 -105 2 -124 86 -23 99 -26 182 -8 218 30 57
105 74 163 36z m-29 -411 c26 -18 30 -65 6 -88 -20 -20 -68 -20 -88 0 -35 35
-6 104 44 104 9 0 26 -7 38 -16z"/>
<path d="M949 619 c-19 -19 -20 -28 -14 -85 14 -138 42 -194 82 -168 23 14 43
93 46 177 2 58 -1 71 -17 83 -28 20 -73 17 -97 -7z"/>
<path d="M987 224 c-14 -15 -6 -34 14 -34 14 0 19 5 17 17 -3 18 -20 27 -31
17z"/>
<path d="M213 490 c-28 -12 -43 -40 -43 -85 l0 -35 191 2 191 3 24 63 23 62
-182 -1 c-100 0 -192 -4 -204 -9z"/>
<path d="M1424 438 l24 -63 191 -3 191 -2 0 39 c0 23 -8 48 -19 62 -19 24 -23
24 -215 27 l-196 3 24 -63z"/>
<path d="M117 310 c-13 -11 -28 -31 -31 -45 -9 -37 17 -90 50 -103 36 -14 285
-49 418 -58 l100 -7 -42 44 c-42 43 -72 113 -72 166 l0 23 -199 0 c-183 0
-200 -2 -224 -20z"/>
<path d="M1460 307 c0 -54 -30 -123 -72 -166 l-43 -44 100 7 c132 9 383 44
419 58 17 7 34 25 42 45 12 28 12 38 0 67 -8 19 -23 39 -34 45 -13 7 -95 11
-216 11 l-196 0 0 -23z"/>
</g>
</svg>
