<?xml version="1.0" standalone="no"?>
<!DOCTYPE svg PUBLIC "-//W3C//DTD SVG 20010904//EN"
 "http://www.w3.org/TR/2001/REC-SVG-20010904/DTD/svg10.dtd">
<svg version="1.0" xmlns="http://www.w3.org/2000/svg"
 width="200.000000pt" height="200.000000pt" viewBox="0 0 200.000000 200.000000"
 preserveAspectRatio="xMidYMid meet">
<metadata>
Created by potrace 1.16, written by Peter Selinger 2001-2019
</metadata>
<g transform="translate(0.000000,200.000000) scale(0.100000,-0.100000)"
fill="#000000" stroke="none">
<path d="M849 1821 c-136 -25 -356 -112 -609 -239 -150 -75 -176 -101 -147
-146 13 -19 32 -26 119 -39 502 -81 1038 -83 1541 -5 121 18 140 24 153 44 30
44 4 70 -146 146 -179 90 -404 185 -510 215 -66 19 -116 25 -220 28 -74 2
-156 0 -181 -4z"/>
<path d="M334 1304 c11 -46 35 -62 116 -79 165 -35 275 -46 480 -52 231 -6
406 8 599 48 102 21 125 35 137 83 l7 29 -69 -7 c-38 -3 -121 -12 -184 -18
-150 -15 -692 -15 -840 0 -63 6 -146 15 -184 18 l-69 7 7 -29z"/>
<path d="M375 1187 c-10 -32 -45 -488 -45 -595 l0 -53 107 3 107 3 7 40 c4 22
12 53 18 68 7 18 11 119 11 266 l0 238 -77 13 c-43 7 -88 16 -101 21 -16 6
-24 5 -27 -4z"/>
<path d="M1567 1184 c-27 -7 -71 -15 -98 -19 l-49 -7 0 -238 c0 -147 4 -249
11 -267 6 -15 14 -46 18 -68 l7 -40 108 -3 109 -3 -7 138 c-9 189 -37 507 -45
514 -3 3 -28 0 -54 -7z"/>
<path d="M750 1014 c0 -68 2 -124 5 -124 3 0 22 8 43 19 20 10 56 24 80 31
l42 13 0 84 c0 58 -4 85 -12 88 -7 2 -46 5 -85 8 l-73 4 0 -123z"/>
<path d="M1155 1131 l-70 -6 -3 -86 -3 -86 43 -12 c24 -7 60 -22 80 -32 21
-11 40 -19 43 -19 3 0 5 56 5 125 0 94 -3 125 -12 123 -7 -1 -44 -4 -83 -7z"/>
<path d="M910 906 c-209 -47 -354 -254 -321 -462 28 -183 166 -323 351 -356
167 -29 363 77 436 236 112 246 -37 536 -301 585 -71 13 -94 13 -165 -3z m156
-92 c55 -26 76 -71 81 -177 3 -56 13 -113 25 -147 26 -72 28 -183 5 -228 -42
-78 -164 -114 -262 -77 -109 42 -140 156 -85 310 11 29 20 88 22 141 5 105 23
146 78 175 43 23 91 24 136 3z"/>
<path d="M929 761 c-26 -27 -29 -36 -29 -95 0 -36 3 -66 8 -66 21 1 31 21 34
70 3 47 7 56 31 70 24 13 30 13 55 0 23 -14 27 -23 30 -70 3 -49 13 -69 35
-70 4 0 7 30 7 66 0 59 -3 68 -29 95 -41 41 -101 41 -142 0z"/>
<path d="M987 704 c-4 -4 -7 -25 -7 -46 0 -32 3 -38 21 -38 18 0 20 5 17 42
-3 39 -16 57 -31 42z"/>
<path d="M945 571 c-58 -26 -95 -107 -95 -211 0 -78 19 -111 77 -135 76 -32
177 -5 208 55 19 38 19 134 0 192 -23 66 -63 100 -122 104 -26 2 -57 0 -68 -5z
m89 -113 c7 -12 7 -23 -2 -40 -6 -13 -13 -36 -14 -53 -3 -34 -31 -42 -36 -10
-1 11 -8 37 -14 57 -9 29 -8 41 2 53 16 20 49 16 64 -7z"/>
<path d="M213 490 c-28 -12 -43 -40 -43 -84 l0 -36 188 0 c104 0 191 2 194 5
2 3 0 32 -5 65 l-10 60 -151 -1 c-83 0 -161 -4 -173 -9z"/>
<path d="M1453 441 c-5 -34 -7 -63 -5 -66 3 -3 90 -5 194 -5 l188 0 0 39 c0
23 -8 48 -19 62 -19 23 -25 24 -184 27 l-164 3 -10 -60z"/>
<path d="M117 310 c-13 -11 -28 -31 -31 -45 -9 -34 18 -89 51 -104 34 -15 376
-58 533 -67 l125 -6 -45 29 c-59 39 -125 111 -152 168 l-22 45 -217 0 c-201 0
-218 -1 -242 -20z"/>
<path d="M1402 285 c-27 -57 -93 -129 -152 -168 l-45 -29 120 6 c216 12 504
50 546 72 38 19 53 66 35 109 -8 18 -23 38 -34 44 -13 7 -100 11 -234 11
l-214 0 -22 -45z"/>
</g>
</svg>
