<?xml version="1.0" standalone="no"?>
<!DOCTYPE svg PUBLIC "-//W3C//DTD SVG 20010904//EN"
 "http://www.w3.org/TR/2001/REC-SVG-20010904/DTD/svg10.dtd">
<svg version="1.0" xmlns="http://www.w3.org/2000/svg"
 width="200.000000pt" height="200.000000pt" viewBox="0 0 200.000000 200.000000"
 preserveAspectRatio="xMidYMid meet">
<metadata>
Created by potrace 1.16, written by Peter Selinger 2001-2019
</metadata>
<g transform="translate(0.000000,200.000000) scale(0.100000,-0.100000)"
fill="#000000" stroke="none">
<path d="M822 1840 c-101 -19 -388 -136 -624 -256 -87 -45 -109 -61 -122 -88
-20 -43 -20 -48 4 -78 16 -21 34 -28 102 -37 128 -19 125 -17 131 -63 3 -23
15 -53 25 -68 19 -24 20 -34 11 -101 -6 -48 -5 -77 1 -83 18 -18 33 11 41 74
4 34 9 63 11 65 2 2 37 -2 78 -9 l75 -12 3 -332 2 -332 -106 0 -106 0 7 153
c4 83 10 191 14 239 3 48 5 91 3 97 -7 20 -32 11 -37 -11 -7 -33 -25 -329 -25
-410 l0 -68 -40 0 c-47 0 -95 -22 -110 -49 -5 -11 -10 -42 -10 -70 0 -46 -3
-52 -30 -66 -30 -16 -60 -61 -60 -90 0 -34 32 -84 63 -98 30 -14 152 -33 357
-57 153 -18 502 -31 650 -25 330 14 690 53 747 82 74 37 79 143 7 185 -31 18
-34 24 -34 70 0 27 -5 58 -10 69 -15 27 -63 49 -107 49 l-39 0 -12 228 c-7
125 -19 283 -26 352 -13 119 -12 126 6 151 11 14 22 44 25 67 6 46 3 44 131
63 68 9 86 16 102 37 24 30 24 35 4 78 -13 28 -36 44 -133 93 -126 64 -364
171 -381 171 -5 0 -10 -8 -10 -18 0 -14 19 -27 68 -47 37 -16 145 -66 240
-111 128 -62 174 -88 181 -106 14 -35 -4 -45 -109 -62 -296 -46 -364 -51 -780
-51 -416 0 -484 5 -780 51 -173 27 -162 56 64 164 214 103 361 165 465 197 78
24 102 26 251 26 149 0 173 -2 250 -26 87 -26 100 -26 100 -2 0 9 -31 24 -82
41 -72 23 -103 27 -238 30 -85 1 -179 -1 -208 -6z m-202 -512 c161 -15 599
-15 760 0 69 7 158 15 199 19 l74 6 -7 -34 c-10 -50 -25 -59 -122 -79 -182
-37 -277 -45 -529 -44 -249 0 -358 10 -539 48 -78 16 -93 27 -102 75 l-7 34
74 -6 c41 -4 130 -12 199 -19z m984 -145 c9 -42 34 -359 42 -520 l7 -143 -107
0 -106 0 2 332 3 332 65 12 c36 6 70 12 77 13 6 0 14 -11 17 -26z m-905 -19
l31 -6 0 -157 0 -157 -31 -30 c-17 -16 -45 -50 -61 -76 -17 -27 -33 -48 -35
-48 -2 0 -3 108 -3 240 l0 240 34 0 c18 0 48 -3 65 -6z m701 -234 c0 -132 -2
-240 -4 -240 -2 0 -15 19 -29 43 -14 23 -41 58 -61 76 l-36 35 0 157 c0 178
-7 165 88 168 l42 1 0 -240z m-542 220 l43 0 -3 -111 -3 -111 -62 -28 -63 -29
0 146 0 145 23 -6 c12 -3 41 -6 65 -6z m372 -134 l0 -145 -62 29 -63 28 0 108
0 109 50 6 c28 3 56 7 63 7 9 2 12 -33 12 -142z m-170 26 l0 -107 -60 0 -60 0
0 107 0 108 60 0 60 0 0 -108z m111 -189 c292 -144 294 -555 4 -707 -57 -30
-65 -31 -175 -31 -137 1 -182 17 -268 99 -166 157 -168 414 -4 568 47 44 109
82 162 99 14 5 68 7 120 6 85 -2 103 -6 161 -34z m-601 -407 c0 -19 4 -46 10
-60 l10 -26 -200 0 -200 0 0 44 c0 71 13 76 212 76 l168 0 0 -34z m1218 18
c17 -12 22 -25 22 -60 l0 -44 -199 0 -200 0 10 32 c5 18 9 45 9 60 l0 28 168
0 c135 0 172 -3 190 -16z m-1155 -197 c25 -41 84 -102 137 -140 24 -17 23 -17
-75 -12 -119 7 -356 32 -440 45 -33 6 -75 13 -92 16 -23 3 -37 14 -48 34 -19
37 -19 42 6 74 l20 26 234 0 233 0 25 -43z m1239 26 c36 -43 27 -94 -21 -112
-48 -18 -506 -71 -620 -71 l-35 0 45 28 c47 31 101 87 132 139 l19 33 232 0
c209 0 234 -2 248 -17z"/>
<path d="M930 811 c-55 -29 -73 -70 -78 -175 -2 -53 -11 -112 -22 -141 -54
-151 -26 -262 77 -306 77 -33 182 -20 236 29 44 39 66 124 34 130 -10 2 -19
-4 -23 -15 -18 -58 -36 -84 -73 -103 -71 -36 -166 -20 -210 36 -17 21 -21 41
-21 94 0 82 22 148 61 186 26 25 38 29 89 29 52 0 62 -4 90 -30 20 -19 37 -51
48 -87 12 -42 22 -58 35 -58 22 0 22 26 -2 92 -11 31 -21 91 -24 145 -3 70 -9
99 -26 126 -39 63 -123 85 -191 48z m141 -50 c26 -27 29 -36 29 -95 0 -36 -3
-66 -7 -66 -22 1 -32 21 -35 70 -3 47 -7 56 -30 70 -25 13 -31 13 -55 0 -24
-14 -28 -23 -31 -70 -3 -49 -13 -69 -34 -70 -5 0 -8 30 -8 66 0 59 3 68 29 95
41 41 101 41 142 0z m-53 -97 c3 -34 0 -40 -18 -40 -16 0 -20 7 -20 36 0 65
33 68 38 4z"/>
<path d="M970 465 c-10 -12 -10 -24 -2 -53 6 -20 13 -46 14 -57 2 -11 10 -20
18 -20 8 0 16 9 18 20 1 11 8 37 14 57 12 42 0 68 -32 68 -10 0 -23 -7 -30
-15z"/>
</g>
</svg>
