<?xml version="1.0" standalone="no"?>
<!DOCTYPE svg PUBLIC "-//W3C//DTD SVG 20010904//EN"
 "http://www.w3.org/TR/2001/REC-SVG-20010904/DTD/svg10.dtd">
<svg version="1.0" xmlns="http://www.w3.org/2000/svg"
 width="200.000000pt" height="200.000000pt" viewBox="0 0 200.000000 200.000000"
 preserveAspectRatio="xMidYMid meet">
<metadata>
Created by potrace 1.16, written by Peter Selinger 2001-2019
</metadata>
<g transform="translate(0.000000,200.000000) scale(0.100000,-0.100000)"
fill="#000000" stroke="none">
<path d="M909 1887 c-125 -36 -214 -131 -244 -261 l-11 -50 -209 -82 c-114
-46 -215 -90 -223 -98 -9 -8 -17 -40 -20 -70 -4 -51 -2 -57 27 -86 20 -20 31
-42 31 -59 0 -37 38 -71 78 -71 l32 0 0 -61 c0 -58 1 -61 30 -72 l30 -11 0
-261 0 -261 -30 -11 c-29 -11 -30 -14 -30 -72 l0 -61 -48 0 c-75 0 -92 -18
-92 -95 0 -53 4 -68 22 -85 21 -20 31 -20 748 -20 717 0 727 0 748 20 18 17
22 32 22 85 0 77 -17 95 -92 95 l-48 0 0 61 c0 58 -1 61 -30 72 l-30 11 0 261
0 261 30 11 c29 11 30 14 30 72 l0 61 34 0 c39 0 76 37 76 76 0 12 14 37 31
54 29 29 31 35 27 86 -3 30 -11 62 -20 70 -8 8 -108 52 -223 97 l-208 83 -13
52 c-41 159 -155 257 -311 268 -40 2 -87 -2 -114 -9z m217 -73 c67 -35 100
-69 132 -133 67 -139 9 -309 -131 -383 -60 -32 -194 -32 -254 0 -172 91 -212
309 -84 454 52 59 121 88 211 88 63 0 86 -5 126 -26z m-417 -437 c12 -19 39
-51 61 -71 l40 -36 -276 0 -275 0 3 47 3 48 195 76 194 77 17 -53 c9 -29 26
-69 38 -88z m866 50 l160 -63 3 -47 3 -47 -275 0 -276 0 41 37 c49 44 84 102
99 165 l12 47 37 -14 c20 -8 108 -43 196 -78z m115 -230 c0 -37 -9 -37 -690
-37 -505 0 -669 3 -678 12 -38 38 -37 38 678 38 559 0 690 -2 690 -13z m-1000
-127 l0 -40 -130 0 -130 0 0 40 0 40 130 0 130 0 0 -40z m560 -14 c0 -56 16
-86 46 -86 12 0 14 -42 14 -265 0 -223 -2 -265 -14 -265 -30 0 -46 -30 -46
-86 l0 -54 -250 0 -250 0 0 54 c0 56 -16 86 -46 86 -12 0 -14 42 -14 265 0
223 2 265 14 265 30 0 46 30 46 86 l0 54 250 0 250 0 0 -54z m320 14 l0 -40
-130 0 -130 0 0 40 0 40 130 0 130 0 0 -40z m-930 -365 l0 -265 -80 0 -80 0 0
265 0 265 80 0 80 0 0 -265z m880 0 l0 -265 -80 0 -80 0 0 265 0 265 80 0 80
0 0 -265z m-830 -365 l0 -40 -130 0 -130 0 0 40 0 40 130 0 130 0 0 -40z m880
0 l0 -40 -130 0 -130 0 0 40 0 40 130 0 130 0 0 -40z m148 -137 l3 -43 -720 0
-721 0 0 38 c0 21 3 42 7 45 3 4 326 6 717 5 l711 -3 3 -42z"/>
<path d="M982 1758 c-7 -7 -12 -18 -12 -24 0 -7 -9 -16 -20 -19 -33 -11 -60
-46 -60 -81 0 -35 30 -79 60 -89 16 -5 20 -15 20 -53 l-1 -47 -23 29 c-27 32
-56 30 -56 -5 0 -19 52 -79 70 -79 4 0 10 -9 13 -20 7 -27 47 -27 54 0 3 10
14 22 24 25 30 10 59 55 59 92 0 35 -38 83 -66 83 -10 0 -14 15 -14 51 0 53
13 58 31 12 11 -31 43 -27 47 6 4 24 -41 81 -62 81 -6 0 -16 10 -21 22 -12 27
-27 32 -43 16z m-12 -123 c0 -36 -13 -47 -24 -19 -5 14 9 54 19 54 3 0 5 -16
5 -35z m90 -150 c0 -7 -7 -18 -15 -25 -13 -11 -15 -7 -15 25 0 32 2 36 15 25
8 -7 15 -18 15 -25z"/>
</g>
</svg>
