<?xml version="1.0" standalone="no"?>
<!DOCTYPE svg PUBLIC "-//W3C//DTD SVG 20010904//EN"
 "http://www.w3.org/TR/2001/REC-SVG-20010904/DTD/svg10.dtd">
<svg version="1.0" xmlns="http://www.w3.org/2000/svg"
 width="200.000000pt" height="200.000000pt" viewBox="0 0 200.000000 200.000000"
 preserveAspectRatio="xMidYMid meet">
<metadata>
Created by potrace 1.16, written by Peter Selinger 2001-2019
</metadata>
<g transform="translate(0.000000,200.000000) scale(0.100000,-0.100000)"
fill="#000000" stroke="none">
<path d="M886 1875 c-73 -30 -128 -82 -164 -155 -69 -141 -5 -325 141 -402 35
-19 58 -23 137 -23 79 0 102 4 137 23 192 102 226 361 66 501 -90 80 -208 101
-317 56z m139 -83 c5 -12 18 -25 27 -28 25 -7 68 -62 68 -85 0 -36 -31 -35
-61 2 l-28 34 -1 -51 c0 -48 2 -52 31 -64 70 -30 75 -123 9 -168 -19 -13 -38
-32 -42 -43 -10 -25 -48 -25 -55 1 -3 10 -20 28 -39 39 -56 33 -72 101 -24
101 13 0 24 -10 30 -25 15 -39 30 -29 30 20 0 39 -4 46 -29 60 -79 40 -80 142
-1 175 16 7 30 18 30 24 0 16 22 37 35 33 5 -2 14 -13 20 -25z"/>
<path d="M950 1695 c-14 -17 -10 -47 8 -53 8 -2 12 8 12 32 0 40 -2 42 -20 21z"/>
<path d="M1030 1514 c0 -24 4 -34 13 -32 19 7 21 54 3 61 -13 5 -16 -1 -16
-29z"/>
<path d="M420 1467 l-205 -82 -3 -40 c-6 -65 -4 -65 305 -65 150 0 273 4 273
8 0 5 -17 22 -38 39 -42 34 -97 128 -107 186 -4 20 -10 37 -14 36 -3 0 -98
-37 -211 -82z"/>
<path d="M1355 1513 c-10 -57 -52 -130 -101 -179 -24 -25 -44 -47 -44 -49 0
-7 531 -6 558 1 20 6 23 12 20 53 l-3 46 -205 82 c-113 45 -208 82 -211 83 -4
0 -10 -17 -14 -37z"/>
<path d="M270 1206 c0 -13 7 -27 16 -30 20 -8 1408 -8 1428 0 9 3 16 17 16 30
l0 24 -730 0 -730 0 0 -24z"/>
<path d="M390 1075 l0 -45 140 0 140 0 0 45 0 45 -140 0 -140 0 0 -45z"/>
<path d="M1330 1075 l0 -45 140 0 140 0 0 45 0 45 -140 0 -140 0 0 -45z"/>
<path d="M450 685 l0 -285 80 0 80 0 0 285 0 285 -80 0 -80 0 0 -285z"/>
<path d="M1390 685 l0 -285 80 0 80 0 0 285 0 285 -80 0 -80 0 0 -285z"/>
<path d="M390 300 l0 -40 140 0 140 0 0 40 0 40 -140 0 -140 0 0 -40z"/>
<path d="M1330 300 l0 -40 140 0 140 0 0 40 0 40 -140 0 -140 0 0 -40z"/>
<path d="M234 186 c-3 -8 -4 -29 -2 -48 l3 -33 765 0 765 0 0 45 0 45 -763 3
c-649 2 -763 0 -768 -12z"/>
</g>
</svg>
