<?xml version="1.0" standalone="no"?>
<!DOCTYPE svg PUBLIC "-//W3C//DTD SVG 20010904//EN"
 "http://www.w3.org/TR/2001/REC-SVG-20010904/DTD/svg10.dtd">
<svg version="1.0" xmlns="http://www.w3.org/2000/svg"
 width="200.000000pt" height="200.000000pt" viewBox="0 0 200.000000 200.000000"
 preserveAspectRatio="xMidYMid meet">
<metadata>
Created by potrace 1.16, written by Peter Selinger 2001-2019
</metadata>
<g transform="translate(0.000000,200.000000) scale(0.100000,-0.100000)"
fill="#000000" stroke="none">
<path d="M949 1886 c-77 -41 -762 -487 -776 -504 -7 -9 -13 -42 -13 -73 0 -59
19 -89 66 -103 18 -5 23 -17 28 -65 7 -61 31 -95 71 -103 19 -3 20 -12 23
-349 l2 -346 -40 -12 c-48 -14 -70 -50 -70 -115 0 -60 16 -92 56 -111 29 -14
113 -15 719 -13 l687 3 29 33 c24 27 29 41 29 83 0 70 -21 105 -70 120 l-40
12 0 296 c0 339 5 401 30 401 32 0 61 44 67 104 5 45 10 57 27 62 47 14 66 44
66 103 0 31 -6 64 -13 73 -16 20 -748 495 -794 514 -40 17 -32 18 -84 -10z
m450 -293 l381 -246 0 -39 0 -38 -781 0 -780 0 3 40 3 39 375 245 c206 134
385 245 397 245 12 1 183 -103 402 -246z m279 -440 l-3 -48 -675 0 -675 0 -3
48 -3 47 681 0 681 0 -3 -47z m-1108 -468 l0 -345 -80 0 -80 0 0 345 0 345 80
0 80 0 0 -345z m200 0 l0 -345 -70 0 -70 0 0 345 0 345 70 0 70 0 0 -345z
m400 0 l0 -345 -170 0 -170 0 0 345 0 345 170 0 170 0 0 -345z m200 0 l0 -345
-70 0 -70 0 0 345 0 345 70 0 70 0 0 -345z m220 0 l0 -345 -80 0 -80 0 0 345
0 345 80 0 80 0 0 -345z m98 -417 c13 -13 16 -66 6 -92 -6 -14 -76 -16 -694
-16 -618 0 -688 2 -694 16 -10 26 -7 79 6 92 17 17 1359 17 1376 0z"/>
</g>
</svg>
