<?xml version="1.0" standalone="no"?>
<!DOCTYPE svg PUBLIC "-//W3C//DTD SVG 20010904//EN"
 "http://www.w3.org/TR/2001/REC-SVG-20010904/DTD/svg10.dtd">
<svg version="1.0" xmlns="http://www.w3.org/2000/svg"
 width="200.000000pt" height="200.000000pt" viewBox="0 0 200.000000 200.000000"
 preserveAspectRatio="xMidYMid meet">
<metadata>
Created by potrace 1.16, written by Peter Selinger 2001-2019
</metadata>
<g transform="translate(0.000000,200.000000) scale(0.100000,-0.100000)"
fill="#000000" stroke="none">
<path d="M595 1551 l-400 -258 -3 -161 -2 -162 75 0 75 0 0 -220 0 -220 -75 0
-75 0 0 -170 0 -170 810 0 810 0 0 170 0 170 -75 0 -75 0 0 220 0 220 75 0 75
0 -2 162 -3 161 -400 258 c-220 142 -402 259 -405 259 -3 0 -185 -117 -405
-259z m776 -72 l359 -232 0 -98 0 -99 -730 0 -730 0 0 99 0 98 358 231 c196
127 363 231 370 232 7 0 175 -104 373 -231z m-621 -729 l0 -220 -165 0 -165 0
0 220 0 220 165 0 165 0 0 -220z m420 0 l0 -220 -165 0 -165 0 0 220 0 220
165 0 165 0 0 -220z m410 0 l0 -220 -165 0 -165 0 0 220 0 220 165 0 165 0 0
-220z m150 -385 l0 -85 -730 0 -730 0 0 85 0 85 730 0 730 0 0 -85z"/>
<path d="M909 1467 c-43 -29 -79 -91 -79 -137 0 -49 38 -120 79 -147 52 -35
135 -32 188 6 41 30 73 89 73 136 0 47 -32 106 -73 136 -53 38 -136 41 -188 6z
m151 -77 c27 -27 35 -65 20 -101 -15 -35 -37 -49 -80 -49 -43 0 -65 14 -80 49
-25 62 14 121 80 121 26 0 47 -7 60 -20z"/>
</g>
</svg>
