<?xml version="1.0" standalone="no"?>
<!DOCTYPE svg PUBLIC "-//W3C//DTD SVG 20010904//EN"
 "http://www.w3.org/TR/2001/REC-SVG-20010904/DTD/svg10.dtd">
<svg version="1.0" xmlns="http://www.w3.org/2000/svg"
 width="200.000000pt" height="200.000000pt" viewBox="0 0 200.000000 200.000000"
 preserveAspectRatio="xMidYMid meet">
<metadata>
Created by potrace 1.16, written by Peter Selinger 2001-2019
</metadata>
<g transform="translate(0.000000,200.000000) scale(0.100000,-0.100000)"
fill="#000000" stroke="none">
<path d="M709 1688 l-273 -213 282 -3 c155 -1 409 -1 564 0 l281 3 -272 213
c-150 116 -281 212 -291 212 -10 0 -141 -96 -291 -212z"/>
<path d="M314 1422 c-8 -6 -54 -146 -54 -166 0 -3 331 -6 735 -6 404 0 735 3
735 6 0 20 -46 160 -54 166 -6 4 -312 8 -681 8 -369 0 -675 -4 -681 -8z"/>
<path d="M310 830 l0 -370 75 0 75 0 0 370 0 370 -75 0 -75 0 0 -370z"/>
<path d="M632 833 l3 -368 75 0 75 0 3 368 2 367 -80 0 -80 0 2 -367z"/>
<path d="M1202 833 l3 -368 75 0 75 0 3 368 2 367 -80 0 -80 0 2 -367z"/>
<path d="M1530 830 l0 -370 75 0 75 0 0 370 0 370 -75 0 -75 0 0 -370z"/>
<path d="M258 409 c-10 -5 -18 -14 -18 -19 0 -6 119 -10 305 -10 168 0 305 4
305 8 0 29 -30 32 -299 32 -169 0 -283 -5 -293 -11z"/>
<path d="M1152 408 c-7 -7 -12 -16 -12 -20 0 -4 137 -8 305 -8 296 0 334 4
286 30 -29 15 -563 14 -579 -2z"/>
<path d="M158 329 c-12 -7 -18 -22 -18 -49 l0 -40 860 0 860 0 0 40 c0 29 -5
42 -19 50 -27 14 -1659 13 -1683 -1z"/>
<path d="M40 150 l0 -50 960 0 960 0 0 50 0 50 -960 0 -960 0 0 -50z"/>
</g>
</svg>
