<?xml version="1.0" standalone="no"?>
<!DOCTYPE svg PUBLIC "-//W3C//DTD SVG 20010904//EN"
 "http://www.w3.org/TR/2001/REC-SVG-20010904/DTD/svg10.dtd">
<svg version="1.0" xmlns="http://www.w3.org/2000/svg"
 width="200.000000pt" height="200.000000pt" viewBox="0 0 200.000000 200.000000"
 preserveAspectRatio="xMidYMid meet">
<metadata>
Created by potrace 1.16, written by Peter Selinger 2001-2019
</metadata>
<g transform="translate(0.000000,200.000000) scale(0.100000,-0.100000)"
fill="#000000" stroke="none">
<path d="M728 1728 c-128 -100 -261 -203 -294 -230 -36 -28 -72 -48 -86 -48
-35 0 -52 -24 -76 -112 -27 -94 -27 -114 -2 -130 19 -12 20 -24 20 -369 l0
-357 -25 -16 c-14 -10 -30 -28 -35 -42 -6 -15 -17 -24 -30 -24 -36 0 -70 -44
-70 -90 0 -40 0 -40 -38 -40 -21 0 -43 -5 -50 -12 -12 -12 -17 -124 -6 -152 6
-14 100 -16 964 -16 864 0 958 2 964 16 11 28 6 140 -6 152 -7 7 -29 12 -49
12 -36 0 -36 1 -41 45 -7 56 -20 72 -69 85 -23 7 -40 18 -44 30 -4 12 -17 28
-31 36 l-24 16 0 357 c0 345 1 357 20 369 25 16 25 36 -2 130 -24 88 -41 112
-76 112 -14 0 -50 20 -86 48 -480 377 -527 412 -561 412 -29 0 -69 -27 -267
-182z m552 -69 l261 -204 -270 -3 c-148 -1 -394 -1 -546 0 l-277 3 268 208
c179 139 273 207 285 204 10 -3 135 -96 279 -208z m396 -334 c13 -44 24 -81
24 -82 0 -2 -318 -3 -706 -3 -561 0 -705 3 -701 13 2 6 12 39 21 72 9 33 19
66 21 73 4 10 141 12 661 10 l657 -3 23 -80z m-1188 -487 l-3 -353 -72 -3 -73
-3 0 356 0 355 75 0 75 0 -2 -352z m112 -3 l0 -355 -35 0 -35 0 0 355 0 355
35 0 35 0 0 -355z m200 0 l0 -355 -75 0 -75 0 0 355 0 355 75 0 75 0 0 -355z
m350 5 l0 -350 -40 -40 c-40 -40 -41 -40 -115 -40 -74 0 -75 0 -115 40 l-40
40 0 350 0 350 155 0 155 0 0 -350z m190 -5 l0 -355 -75 0 -75 0 0 355 0 355
75 0 75 0 0 -355z m120 0 l0 -355 -35 0 -35 0 0 355 0 355 35 0 35 0 0 -355z
m190 0 l0 -356 -72 3 -73 3 -3 353 -2 352 75 0 75 0 0 -355z m-804 -410 c17
-13 -15 -14 -281 -14 -266 0 -298 1 -281 14 29 22 533 22 562 0z m860 0 c17
-13 -15 -14 -281 -14 -266 0 -298 1 -281 14 29 22 533 22 562 0z m102 -77 c7
-7 12 -27 12 -45 l0 -33 -820 0 -820 0 0 33 c0 18 5 38 12 45 17 17 1599 17
1616 0z m112 -173 l0 -45 -920 0 -920 0 0 45 0 45 920 0 920 0 0 -45z"/>
</g>
</svg>
