<?xml version="1.0" standalone="no"?>
<!DOCTYPE svg PUBLIC "-//W3C//DTD SVG 20010904//EN"
 "http://www.w3.org/TR/2001/REC-SVG-20010904/DTD/svg10.dtd">
<svg version="1.0" xmlns="http://www.w3.org/2000/svg"
 width="200.000000pt" height="200.000000pt" viewBox="0 0 200.000000 200.000000"
 preserveAspectRatio="xMidYMid meet">
<metadata>
Created by potrace 1.16, written by Peter Selinger 2001-2019
</metadata>
<g transform="translate(0.000000,200.000000) scale(0.100000,-0.100000)"
fill="#000000" stroke="none">
<path d="M890 1783 c-64 -33 -106 -83 -129 -153 l-17 -52 -277 -151 -277 -152
0 -71 c0 -80 3 -84 71 -84 39 0 39 0 39 -39 0 -33 4 -40 25 -45 l25 -6 0 -289
0 -288 -25 -11 c-20 -9 -25 -19 -25 -47 0 -34 -1 -35 -39 -35 -69 0 -71 -3
-71 -91 l0 -79 810 0 810 0 0 79 c0 88 -2 91 -71 91 -38 0 -39 1 -39 35 0 28
-5 38 -25 47 l-25 11 0 288 0 289 25 6 c21 5 25 12 25 45 0 39 0 39 39 39 68
0 71 4 71 84 l0 71 -278 152 -277 151 -20 57 c-26 74 -63 117 -126 149 -73 36
-147 36 -219 -1z m164 -24 c56 -15 121 -79 136 -134 38 -137 -52 -261 -190
-259 -112 1 -190 73 -198 184 -7 99 41 172 137 206 45 16 66 17 115 3z m-294
-255 c0 -28 39 -91 76 -124 51 -44 98 -62 164 -62 117 0 205 70 244 194 4 14
42 -3 220 -100 l216 -117 -340 -3 c-187 -1 -493 -1 -681 0 l-340 3 213 116
c117 63 216 114 221 112 4 -2 7 -11 7 -19z m1008 -301 l3 -33 -770 0 -771 0 0
28 c0 16 3 32 7 35 3 4 349 6 767 5 l761 -3 3 -32z m-1168 -103 c0 -19 -7 -20
-125 -20 -118 0 -125 1 -125 20 0 19 7 20 125 20 118 0 125 -1 125 -20z m760
-19 c0 -31 4 -41 20 -46 19 -6 20 -15 20 -295 0 -280 -1 -289 -20 -295 -16 -5
-20 -15 -20 -46 l0 -39 -65 0 -65 0 0 191 c0 105 -5 210 -11 234 -14 54 -68
119 -123 147 -103 53 -243 5 -303 -103 -16 -30 -18 -63 -21 -252 l-3 -217 -65
0 -64 0 0 39 c0 31 -4 41 -20 46 -19 6 -20 15 -20 295 0 280 1 289 20 295 16
5 20 15 20 46 l0 39 360 0 360 0 0 -39z m290 19 c0 -19 -7 -20 -125 -20 -118
0 -125 1 -125 20 0 19 7 20 125 20 118 0 125 -1 125 -20z m-1100 -360 l0 -290
-80 0 -80 0 0 290 0 290 80 0 80 0 0 -290z m1060 0 l0 -290 -80 0 -80 0 0 290
0 290 80 0 80 0 0 -290z m-630 -110 l0 -270 -81 0 -80 0 3 218 c3 210 4 218
27 250 28 40 77 72 109 72 l22 0 0 -270z m121 247 c18 -12 44 -40 56 -62 21
-38 23 -51 23 -247 l0 -208 -80 0 -80 0 0 270 0 270 24 0 c12 0 38 -10 57 -23z
m-501 -497 c0 -19 -7 -20 -125 -20 -118 0 -125 1 -125 20 0 19 7 20 125 20
118 0 125 -1 125 -20z m1050 0 c0 -19 -7 -20 -125 -20 -118 0 -125 1 -125 20
0 19 7 20 125 20 118 0 125 -1 125 -20z m118 -107 l-3 -38 -765 0 -765 0 -3
38 -3 37 771 0 771 0 -3 -37z"/>
<path d="M987 1744 c-4 -4 -7 -18 -7 -31 0 -16 -6 -23 -19 -23 -24 0 -61 -45
-61 -75 0 -42 33 -69 91 -75 46 -4 54 -8 57 -27 3 -21 0 -23 -46 -23 -42 0
-51 3 -55 21 -6 24 -40 23 -45 -2 -4 -22 36 -69 58 -69 13 0 20 -8 22 -27 2
-17 9 -28 18 -28 9 0 16 11 18 28 2 19 9 27 22 27 30 0 63 49 56 85 -9 43 -27
56 -87 63 -45 6 -54 10 -54 27 0 28 82 36 92 8 13 -36 53 -38 53 -3 0 25 -38
70 -60 70 -13 0 -20 8 -22 27 -3 26 -18 39 -31 27z"/>
</g>
</svg>
