<?xml version="1.0" standalone="no"?>
<!DOCTYPE svg PUBLIC "-//W3C//DTD SVG 20010904//EN"
 "http://www.w3.org/TR/2001/REC-SVG-20010904/DTD/svg10.dtd">
<svg version="1.0" xmlns="http://www.w3.org/2000/svg"
 width="200.000000pt" height="200.000000pt" viewBox="0 0 200.000000 200.000000"
 preserveAspectRatio="xMidYMid meet">
<metadata>
Created by potrace 1.16, written by Peter Selinger 2001-2019
</metadata>
<g transform="translate(0.000000,200.000000) scale(0.100000,-0.100000)"
fill="#000000" stroke="none">
<path d="M541 1690 c-250 -138 -460 -255 -468 -261 -9 -8 -13 -37 -13 -94 0
-124 7 -132 80 -95 22 11 42 20 45 20 3 0 5 -29 5 -64 l0 -63 -41 -6 c-23 -3
-46 -11 -50 -19 -13 -20 -11 -142 3 -156 7 -7 29 -12 50 -12 36 0 38 -1 38
-33 0 -41 20 -71 60 -87 l30 -12 0 -219 c0 -214 0 -219 -20 -219 -32 0 -70
-47 -70 -86 0 -29 -5 -36 -33 -48 -43 -17 -85 -68 -93 -111 -13 -70 -80 -65
936 -65 1025 0 954 -5 931 69 -15 51 -47 90 -88 107 -28 12 -33 19 -33 48 0
39 -38 86 -70 86 -20 0 -20 5 -20 219 l0 219 30 12 c40 16 60 46 60 87 0 32 2
33 38 33 21 0 43 5 50 12 14 14 16 136 3 156 -4 8 -27 16 -50 19 l-41 6 0 63
c0 35 2 64 5 64 3 0 23 -9 45 -20 73 -37 80 -29 80 95 0 54 -4 86 -12 93 -16
13 -920 512 -928 512 -3 0 -210 -113 -459 -250z m899 -62 l425 -235 3 -42 c2
-22 1 -41 -2 -41 -2 0 -196 106 -430 235 -234 129 -430 235 -436 235 -6 0
-202 -106 -436 -235 -234 -129 -428 -235 -430 -235 -3 0 -4 19 -2 41 l3 42
430 238 c237 131 435 236 440 235 6 -2 201 -109 435 -238z m-63 -122 l368
-204 3 -86 3 -86 -751 0 -751 0 3 86 3 86 365 204 c201 111 370 203 377 203 7
1 178 -91 380 -203z m463 -476 l0 -30 -840 0 -840 0 0 30 0 30 840 0 840 0 0
-30z m-1222 -117 l-3 -28 -180 0 -180 0 -3 28 -3 27 186 0 186 0 -3 -27z m132
-2 c0 -33 33 -79 66 -91 l24 -10 0 -220 c0 -210 -1 -220 -19 -220 -27 0 -71
-56 -71 -91 0 -25 -4 -29 -29 -29 -25 0 -29 4 -35 38 -6 40 -38 78 -71 84 -19
3 -20 12 -23 220 l-2 217 22 6 c38 12 68 47 74 87 6 34 10 38 35 38 25 0 29
-4 29 -29z m440 15 c0 -45 -3 -46 -190 -46 -153 0 -179 2 -184 16 -17 44 -16
44 184 44 157 0 190 -2 190 -14z m124 -24 c6 -40 36 -75 74 -87 l22 -6 -2
-217 c-3 -208 -4 -217 -23 -220 -33 -6 -65 -44 -71 -84 -6 -34 -10 -38 -35
-38 -25 0 -29 4 -29 29 0 35 -44 91 -71 91 -18 0 -19 10 -19 220 l0 220 24 10
c33 12 66 58 66 91 0 25 4 29 29 29 25 0 29 -4 35 -38z m434 11 l-3 -28 -182
-3 -183 -2 0 30 0 30 186 0 185 0 -3 -27z m-1218 -318 l0 -215 -95 0 -95 0 0
215 0 215 95 0 95 0 0 -215z m560 0 l0 -215 -90 0 -90 0 0 215 0 215 90 0 90
0 0 -215z m570 0 l0 -215 -95 0 -95 0 0 215 0 215 95 0 95 0 0 -215z m-1042
-317 l3 -28 -185 0 -186 0 0 23 c0 13 3 27 7 31 4 3 86 5 182 4 l176 -3 3 -27z
m560 20 c7 -7 12 -20 12 -30 0 -17 -14 -18 -190 -18 -200 0 -201 0 -184 44 5
14 31 16 178 16 120 0 176 -4 184 -12z m570 -20 l3 -28 -185 0 -186 0 0 23 c0
13 3 27 7 31 4 3 86 5 182 4 l176 -3 3 -27z m91 -112 c12 -11 21 -23 21 -28 0
-4 -390 -8 -867 -8 l-866 0 19 21 c10 12 28 25 39 30 11 4 383 7 826 6 778 -2
808 -3 828 -21z"/>
<path d="M925 1546 c-56 -24 -115 -112 -115 -171 0 -32 25 -90 53 -122 75 -85
199 -85 274 0 28 32 53 90 53 122 0 60 -60 148 -117 171 -41 17 -109 17 -148
0z m162 -90 c27 -29 33 -44 33 -81 0 -37 -6 -52 -32 -80 -79 -85 -208 -35
-208 80 0 115 130 165 207 81z"/>
</g>
</svg>
