<?xml version="1.0" standalone="no"?>
<!DOCTYPE svg PUBLIC "-//W3C//DTD SVG 20010904//EN"
 "http://www.w3.org/TR/2001/REC-SVG-20010904/DTD/svg10.dtd">
<svg version="1.0" xmlns="http://www.w3.org/2000/svg"
 width="200.000000pt" height="200.000000pt" viewBox="0 0 200.000000 200.000000"
 preserveAspectRatio="xMidYMid meet">
<metadata>
Created by potrace 1.16, written by Peter Selinger 2001-2019
</metadata>
<g transform="translate(0.000000,200.000000) scale(0.100000,-0.100000)"
fill="#000000" stroke="none">
<path d="M737 1644 c-251 -169 -273 -190 -228 -214 11 -5 49 -10 85 -10 l66 0
0 -40 0 -40 -110 0 -110 0 0 25 c0 35 -27 45 -125 45 -129 0 -125 5 -125 -159
0 -160 -7 -151 106 -151 l74 0 0 -355 0 -354 -87 -3 -88 -3 0 -95 0 -95 805 0
805 0 0 95 0 95 -92 3 -93 3 0 354 0 355 79 0 c44 0 86 3 95 6 14 5 16 27 16
143 0 93 -4 141 -12 149 -16 16 -210 16 -226 0 -7 -7 -12 -22 -12 -35 0 -23
-2 -23 -110 -23 l-110 0 0 40 0 40 66 0 c72 0 104 12 104 39 0 19 -483 351
-511 351 -8 0 -126 -75 -262 -166z m-37 -899 l0 -355 -50 0 -50 0 0 355 0 355
50 0 50 0 0 -355z m540 0 l0 -355 -240 0 -240 0 0 355 0 355 240 0 240 0 0
-355z m150 0 l0 -355 -45 0 -45 0 0 355 0 355 45 0 45 0 0 -355z"/>
</g>
</svg>
