<?xml version="1.0" standalone="no"?>
<!DOCTYPE svg PUBLIC "-//W3C//DTD SVG 20010904//EN"
 "http://www.w3.org/TR/2001/REC-SVG-20010904/DTD/svg10.dtd">
<svg version="1.0" xmlns="http://www.w3.org/2000/svg"
 width="200.000000pt" height="200.000000pt" viewBox="0 0 200.000000 200.000000"
 preserveAspectRatio="xMidYMid meet">
<metadata>
Created by potrace 1.16, written by Peter Selinger 2001-2019
</metadata>
<g transform="translate(0.000000,200.000000) scale(0.100000,-0.100000)"
fill="#000000" stroke="none">
<path d="M643 1633 c-10 -4 -13 -106 -13 -466 l0 -462 -200 -155 c-110 -85
-200 -161 -200 -167 0 -32 49 -2 230 142 l195 154 82 1 82 0 3 -47 3 -48 470
0 470 0 0 225 0 225 -464 3 c-365 2 -466 0 -473 -10 -4 -7 -8 -79 -8 -160 l0
-148 -75 0 -75 0 0 454 c0 250 -3 457 -7 459 -5 2 -14 2 -20 0z m1087 -668 l0
-35 -435 0 -435 0 0 28 c0 16 3 32 7 35 3 4 199 7 435 7 l428 0 0 -35z m0
-210 l0 -135 -435 0 -435 0 0 135 0 135 435 0 435 0 0 -135z"/>
<path d="M1032 1628 c-7 -7 -12 -33 -12 -60 l0 -47 -62 -3 -63 -3 0 -95 0 -95
400 0 400 0 0 95 0 95 -72 3 -73 3 0 53 c0 57 -4 67 -26 59 -10 -3 -14 -22
-14 -59 l0 -54 -225 0 -225 0 0 54 c0 57 -9 73 -28 54z m628 -208 l0 -60 -365
0 -365 0 0 60 0 60 365 0 365 0 0 -60z"/>
</g>
</svg>
