<?xml version="1.0" standalone="no"?>
<!DOCTYPE svg PUBLIC "-//W3C//DTD SVG 20010904//EN"
 "http://www.w3.org/TR/2001/REC-SVG-20010904/DTD/svg10.dtd">
<svg version="1.0" xmlns="http://www.w3.org/2000/svg"
 width="200.000000pt" height="200.000000pt" viewBox="0 0 200.000000 200.000000"
 preserveAspectRatio="xMidYMid meet">
<metadata>
Created by potrace 1.16, written by Peter Selinger 2001-2019
</metadata>
<g transform="translate(0.000000,200.000000) scale(0.100000,-0.100000)"
fill="#000000" stroke="none">
<path d="M632 1638 c-9 -9 -12 -127 -12 -469 l0 -456 -200 -158 c-110 -87
-200 -164 -200 -170 0 -7 7 -18 15 -25 19 -16 13 -19 245 164 l184 146 73 0
73 0 0 -38 c0 -21 5 -43 12 -50 17 -17 929 -17 946 0 17 17 17 439 0 456 -17
17 -929 17 -946 0 -8 -8 -12 -58 -12 -160 l0 -148 -65 0 -65 0 0 448 c0 437
-2 472 -30 472 -3 0 -11 -5 -18 -12z m1088 -673 l0 -25 -425 0 c-405 0 -425 1
-425 18 0 10 3 22 7 25 3 4 195 7 425 7 l418 0 0 -25z m0 -210 l0 -125 -425 0
-425 0 0 125 0 125 425 0 425 0 0 -125z"/>
<path d="M1016 1625 c-3 -9 -6 -34 -6 -56 l0 -39 -53 0 c-29 0 -58 -5 -65 -12
-14 -14 -17 -175 -4 -196 7 -9 96 -12 413 -10 l404 3 3 94 c2 60 -1 98 -9 107
-8 9 -33 14 -75 14 l-63 0 -3 53 c-3 48 -5 52 -28 52 -23 0 -25 -4 -28 -52
l-3 -53 -214 0 -214 0 -3 53 c-3 44 -6 52 -24 55 -13 2 -24 -4 -28 -13z m634
-205 l0 -50 -355 0 -355 0 0 50 0 50 355 0 355 0 0 -50z"/>
</g>
</svg>
