<?xml version="1.0" standalone="no"?>
<!DOCTYPE svg PUBLIC "-//W3C//DTD SVG 20010904//EN"
 "http://www.w3.org/TR/2001/REC-SVG-20010904/DTD/svg10.dtd">
<svg version="1.0" xmlns="http://www.w3.org/2000/svg"
 width="200.000000pt" height="200.000000pt" viewBox="0 0 200.000000 200.000000"
 preserveAspectRatio="xMidYMid meet">
<metadata>
Created by potrace 1.16, written by Peter Selinger 2001-2019
</metadata>
<g transform="translate(0.000000,200.000000) scale(0.100000,-0.100000)"
fill="#000000" stroke="none">
<path d="M66 1794 c-22 -21 -20 -50 4 -74 18 -18 33 -20 133 -20 l113 0 148
-612 c81 -337 150 -621 152 -630 10 -33 34 -48 80 -48 l45 0 -23 -31 c-58 -78
2 -192 102 -192 100 0 159 115 101 194 l-22 29 246 0 245 0 -20 -32 c-25 -42
-25 -94 0 -135 24 -40 54 -56 106 -56 104 0 162 126 92 200 l-21 23 30 0 c54
0 83 59 45 93 -16 15 -67 17 -462 19 l-444 3 -13 50 c-7 28 -13 56 -13 63 0 9
108 12 508 12 399 0 512 3 526 13 13 9 46 129 122 442 57 237 104 436 104 442
0 7 -9 22 -20 33 -20 20 -33 20 -749 20 l-728 0 -18 83 c-28 133 -19 127 -200
127 -126 0 -156 -3 -169 -16z m790 -391 l10 -83 -172 0 -172 0 -20 80 c-11 43
-17 82 -14 85 3 3 85 4 181 3 l176 -3 11 -82z m487 80 c2 -5 0 -43 -6 -85 l-9
-78 -173 0 c-198 0 -179 -10 -190 103 l-7 67 191 0 c104 0 192 -3 194 -7z
m477 0 c-1 -5 -9 -42 -18 -83 l-18 -75 -173 -3 -173 -2 6 37 c3 21 8 59 12 86
l6 47 179 0 c99 0 179 -3 179 -7z m-935 -320 c3 -27 8 -65 11 -85 l6 -38 -155
0 c-174 0 -157 -8 -177 85 -6 28 -13 58 -16 68 -5 16 7 17 160 17 l165 0 6
-47z m425 23 c0 -12 -3 -51 -6 -85 l-7 -61 -142 0 -143 0 -6 58 c-4 31 -9 69
-12 85 l-6 27 161 0 161 0 0 -24z m440 12 c0 -7 -7 -46 -17 -85 l-17 -73 -154
0 -154 0 6 58 c4 31 9 69 12 85 l6 27 159 0 c120 0 159 -3 159 -12z m-836
-295 c3 -16 8 -54 12 -86 l6 -58 -138 3 -138 3 -18 70 c-9 39 -18 76 -18 83 0
9 35 12 144 12 l144 0 6 -27z m362 -30 c-4 -32 -9 -71 -12 -86 l-6 -28 -106 3
-107 3 -11 83 -10 82 129 0 129 0 -6 -57z m411 50 c-2 -5 -12 -43 -21 -85
l-17 -78 -135 0 -134 0 0 33 c0 17 3 56 6 85 l7 52 149 0 c82 0 147 -3 145 -7z"/>
</g>
</svg>
