<?xml version="1.0" standalone="no"?>
<!DOCTYPE svg PUBLIC "-//W3C//DTD SVG 20010904//EN"
 "http://www.w3.org/TR/2001/REC-SVG-20010904/DTD/svg10.dtd">
<svg version="1.0" xmlns="http://www.w3.org/2000/svg"
 width="200.000000pt" height="200.000000pt" viewBox="0 0 200.000000 200.000000"
 preserveAspectRatio="xMidYMid meet">
<metadata>
Created by potrace 1.16, written by Peter Selinger 2001-2019
</metadata>
<g transform="translate(0.000000,200.000000) scale(0.100000,-0.100000)"
fill="#000000" stroke="none">
<path d="M739 1879 c-64 -38 -73 -65 -79 -233 l-5 -149 -42 -14 c-55 -19 -126
-96 -143 -157 l-13 -46 -67 0 c-47 0 -71 -4 -80 -15 -9 -11 -7 -52 13 -195
l26 -180 -26 -180 c-20 -143 -22 -184 -13 -195 10 -12 45 -15 181 -15 l168 0
3 -149 c3 -166 9 -181 78 -229 l34 -23 412 3 c399 3 413 4 440 24 15 11 37 33
48 48 21 27 21 35 21 826 0 791 0 799 -21 826 -11 15 -33 37 -48 48 -27 20
-41 21 -439 23 -403 3 -413 2 -448 -18z m856 -84 l25 -24 0 -771 0 -771 -25
-24 -24 -25 -395 0 -395 0 -20 26 c-19 24 -21 40 -21 160 l0 134 169 0 c136 0
171 3 181 15 9 11 7 52 -13 195 l-26 180 26 180 c20 143 22 184 13 195 -9 11
-33 15 -81 15 -67 0 -69 1 -75 28 -19 78 -82 152 -149 175 l-40 14 -3 137 c-3
134 -2 137 22 161 l25 25 391 0 391 0 24 -25z m-807 -402 c15 -10 37 -39 50
-64 l22 -44 -156 -3 c-86 -1 -159 -1 -161 1 -7 8 18 62 40 86 12 13 36 30 52
37 40 19 119 12 153 -13z m222 -210 c0 -10 -9 -80 -20 -155 -19 -137 -19 -139
0 -275 11 -76 20 -146 20 -155 0 -17 -21 -18 -310 -18 -300 0 -310 1 -310 19
0 11 9 81 20 155 20 136 20 136 0 272 -11 74 -20 144 -20 155 0 18 10 19 310
19 289 0 310 -1 310 -17z"/>
<path d="M1032 1728 c-6 -6 -12 -20 -12 -29 0 -34 24 -40 165 -37 119 3 139 5
149 21 8 12 8 22 0 35 -10 15 -31 17 -150 20 -100 2 -143 -1 -152 -10z"/>
<path d="M502 1056 c7 -78 33 -126 91 -164 34 -22 52 -27 106 -27 57 0 72 4
110 30 55 37 84 91 89 167 l4 58 -40 0 -40 0 -4 -56 c-4 -46 -10 -61 -37 -87
-27 -27 -39 -32 -81 -32 -42 0 -54 5 -81 32 -27 26 -33 41 -37 87 l-4 56 -41
0 -40 0 5 -64z"/>
</g>
</svg>
