<?xml version="1.0" standalone="no"?>
<!DOCTYPE svg PUBLIC "-//W3C//DTD SVG 20010904//EN"
 "http://www.w3.org/TR/2001/REC-SVG-20010904/DTD/svg10.dtd">
<svg version="1.0" xmlns="http://www.w3.org/2000/svg"
 width="200.000000pt" height="200.000000pt" viewBox="0 0 200.000000 200.000000"
 preserveAspectRatio="xMidYMid meet">
<metadata>
Created by potrace 1.16, written by Peter Selinger 2001-2019
</metadata>
<g transform="translate(0.000000,200.000000) scale(0.100000,-0.100000)"
fill="#000000" stroke="none">
<path d="M765 1844 c-269 -31 -387 -55 -431 -89 -20 -15 -49 -55 -68 -93 -32
-63 -116 -306 -116 -334 0 -34 24 -92 50 -122 27 -30 29 -39 32 -127 2 -76 6
-94 18 -94 12 0 16 17 18 85 l3 85 50 -4 c42 -2 62 3 115 30 l64 32 62 -31
c82 -43 131 -43 209 0 l59 32 65 -33 c56 -29 72 -33 119 -29 37 3 68 13 95 31
48 32 70 34 102 9 70 -53 140 -56 228 -10 l62 32 60 -33 c51 -28 68 -32 114
-29 l55 3 0 -193 0 -192 -39 25 -38 26 20 39 c22 46 18 86 -12 136 -38 62
-205 104 -411 104 -141 0 -247 -16 -336 -52 -52 -20 -62 -29 -83 -71 -29 -59
-23 -104 22 -154 27 -29 47 -38 125 -59 51 -13 128 -27 171 -30 l79 -7 -29
-45 c-16 -25 -29 -52 -29 -59 0 -10 -42 -13 -200 -13 l-200 0 0 171 0 171 -34
34 -34 34 -113 0 c-96 0 -119 -3 -146 -20 -18 -11 -34 -21 -35 -22 -1 -2 -5
-133 -8 -293 l-5 -289 -62 -11 -63 -12 -2 281 c-3 242 -5 281 -18 281 -13 0
-15 -40 -18 -287 -2 -267 -4 -288 -20 -288 -34 0 -62 -29 -62 -64 0 -69 -24
-66 579 -66 l541 0 39 -26 c109 -72 273 -72 382 0 27 18 52 26 82 26 67 0 100
54 63 105 -10 14 -11 26 -3 52 7 24 7 37 0 44 -16 16 -30 4 -38 -30 -9 -44
-67 -119 -120 -156 -83 -59 -209 -71 -306 -28 -63 28 -134 105 -160 172 -17
44 -20 71 -17 131 5 89 29 142 91 202 53 52 114 79 192 86 93 7 165 -18 231
-80 62 -58 90 -111 101 -188 6 -40 13 -56 26 -58 39 -8 14 131 -38 210 -25 37
-25 40 -25 261 0 215 1 225 21 243 63 57 66 127 15 284 -55 166 -99 246 -155
282 -48 30 -74 33 -79 7 -2 -9 12 -22 39 -33 27 -12 50 -33 70 -64 16 -25 29
-50 29 -54 0 -4 -319 -8 -710 -8 -390 0 -710 3 -710 7 0 17 52 92 74 107 63
41 297 75 561 82 201 6 291 1 549 -33 43 -5 48 -4 44 13 -4 21 -58 33 -242 53
-86 10 -438 13 -511 5z m-238 -435 c-26 -130 -33 -152 -52 -159 -12 -4 -39
-20 -61 -35 -33 -23 -47 -26 -93 -22 -47 3 -59 9 -88 40 -44 48 -44 98 -1 229
l32 98 147 0 146 0 -30 -151z m283 -4 l0 -155 -52 -30 c-69 -39 -119 -40 -176
-3 -23 15 -42 33 -42 39 0 10 43 230 55 282 5 21 10 22 110 22 l105 0 0 -155z
m340 3 l-1 -153 -47 -30 c-66 -41 -138 -41 -204 0 l-47 30 -1 153 0 152 150 0
150 0 0 -152z m255 130 c12 -52 55 -272 55 -282 0 -6 -19 -24 -42 -39 -57 -37
-107 -36 -175 3 l-53 30 0 155 0 155 105 0 c100 0 105 -1 110 -22z m363 -76
c43 -131 43 -181 -1 -229 -29 -31 -41 -37 -88 -40 -46 -4 -60 -1 -93 22 -22
15 -49 31 -61 35 -19 7 -26 29 -52 159 l-30 151 146 0 147 0 32 -98z m-358
-413 c176 -28 235 -62 233 -136 -2 -59 -21 -70 -113 -65 -94 5 -150 -8 -218
-51 -45 -29 -50 -29 -133 -24 -142 11 -268 45 -300 83 -36 42 -28 109 16 138
23 15 152 51 210 59 64 8 243 6 305 -4z m-700 -89 c19 -19 20 -33 20 -275 l0
-254 -32 -5 c-18 -3 -67 -8 -108 -11 -41 -3 -92 -9 -112 -12 l-38 -6 0 276 c0
331 -12 307 147 307 90 0 106 -3 123 -20z m440 -460 l0 -60 -98 0 c-55 0 -140
-3 -190 -6 l-92 -7 0 67 0 66 190 0 190 0 0 -60z m29 -140 c5 -17 20 -44 31
-61 l21 -29 -518 2 c-504 3 -518 4 -518 22 0 24 16 29 206 56 217 31 298 37
546 39 l221 1 11 -30z m628 -75 c-4 -8 -14 -15 -23 -15 -16 0 -16 2 1 20 20
22 31 20 22 -5z"/>
<path d="M515 657 c-23 -18 -14 -63 16 -72 39 -13 67 43 37 73 -16 16 -30 15
-53 -1z"/>
<path d="M1335 665 c-14 -13 -25 -31 -25 -40 0 -9 23 -41 51 -71 l52 -54 -52
-54 c-28 -30 -51 -62 -51 -71 0 -21 44 -65 65 -65 9 0 41 23 71 51 l54 52 54
-52 c30 -28 62 -51 71 -51 21 0 65 44 65 65 0 9 -23 41 -51 71 l-52 54 52 54
c28 30 51 62 51 71 0 21 -44 65 -65 65 -9 0 -41 -23 -71 -51 l-54 -52 -54 52
c-30 28 -62 51 -71 51 -9 0 -27 -11 -40 -25z m105 -76 l59 -51 60 52 c42 37
65 50 77 46 15 -6 8 -17 -39 -64 -31 -32 -57 -64 -57 -72 0 -8 26 -40 57 -72
46 -46 53 -58 40 -64 -12 -4 -36 10 -77 46 l-61 52 -60 -52 c-40 -35 -65 -50
-76 -46 -13 6 -5 18 40 64 31 32 57 64 57 73 0 8 -25 39 -55 69 -50 49 -60 70
-34 70 6 0 37 -23 69 -51z"/>
</g>
</svg>
