<?xml version="1.0" standalone="no"?>
<!DOCTYPE svg PUBLIC "-//W3C//DTD SVG 20010904//EN"
 "http://www.w3.org/TR/2001/REC-SVG-20010904/DTD/svg10.dtd">
<svg version="1.0" xmlns="http://www.w3.org/2000/svg"
 width="200.000000pt" height="200.000000pt" viewBox="0 0 200.000000 200.000000"
 preserveAspectRatio="xMidYMid meet">
<metadata>
Created by potrace 1.16, written by Peter Selinger 2001-2019
</metadata>
<g transform="translate(0.000000,200.000000) scale(0.100000,-0.100000)"
fill="#000000" stroke="none">
<path d="M695 1816 c-164 -21 -293 -48 -333 -71 -35 -19 -91 -101 -92 -132 0
-10 153 -13 730 -13 577 0 730 3 730 13 0 23 -58 114 -84 130 -27 18 -112 38
-266 63 -130 21 -552 27 -685 10z"/>
<path d="M209 1463 c-37 -112 -40 -167 -13 -213 33 -56 67 -75 138 -75 53 0
70 5 107 30 24 16 46 30 48 32 2 1 18 74 36 163 l32 160 -158 0 -157 0 -33
-97z"/>
<path d="M595 1538 c-3 -13 -18 -89 -33 -169 l-28 -147 40 -26 c55 -36 121
-36 187 2 l49 27 0 168 0 167 -105 0 c-100 0 -105 -1 -110 -22z"/>
<path d="M850 1396 l0 -163 43 -29 c64 -43 136 -44 205 -4 l52 30 0 165 0 165
-150 0 -150 0 0 -164z"/>
<path d="M1190 1393 l0 -168 51 -29 c43 -24 59 -28 104 -24 34 3 66 13 88 28
l34 23 -24 116 c-13 64 -28 140 -34 169 l-10 52 -105 0 -104 0 0 -167z"/>
<path d="M1475 1400 c18 -89 34 -162 36 -163 78 -58 105 -69 162 -65 64 5 101
26 130 77 28 46 24 105 -12 214 l-33 97 -157 0 -158 0 32 -160z"/>
<path d="M446 1162 c-35 -24 -49 -27 -118 -27 l-78 0 0 -373 0 -373 38 7 c20
3 53 9 72 13 l35 7 5 279 c3 154 7 281 8 283 1 1 17 11 35 22 27 17 50 20 144
20 110 0 113 -1 145 -29 l33 -29 5 -179 5 -178 182 -3 181 -2 28 57 c16 32 30
61 31 64 2 4 -27 10 -64 14 -37 4 -108 17 -158 30 -75 20 -95 29 -122 58 -45
50 -51 95 -22 154 21 42 31 51 83 71 89 36 195 52 336 52 141 0 247 -16 336
-52 51 -20 62 -29 82 -68 22 -43 24 -68 7 -125 -5 -16 3 -26 34 -47 l41 -27 0
177 0 177 -78 0 c-69 0 -84 3 -120 28 -23 15 -46 27 -52 27 -6 0 -29 -12 -51
-27 -74 -49 -178 -41 -261 19 -15 11 -27 8 -77 -20 -72 -39 -146 -44 -201 -12
-74 43 -80 45 -98 32 -82 -60 -187 -68 -261 -19 -49 33 -56 33 -105 -1z"/>
<path d="M1080 1049 c-106 -18 -189 -48 -207 -76 -22 -33 -20 -89 4 -115 34
-38 140 -69 289 -83 70 -7 71 -7 118 29 26 19 70 42 98 51 58 17 174 20 212 6
32 -13 48 6 48 54 0 57 -23 82 -99 104 -38 11 -97 25 -133 30 -77 13 -253 12
-330 0z"/>
<path d="M462 964 c-22 -15 -22 -18 -22 -281 l0 -266 38 6 c20 3 71 9 112 12
41 3 90 8 108 11 l32 5 0 244 c0 302 9 285 -143 285 -77 0 -108 -4 -125 -16z
m106 -306 c31 -31 -3 -87 -42 -72 -26 10 -32 55 -11 71 23 16 37 17 53 1z"/>
<path d="M1402 819 c-95 -29 -186 -118 -219 -214 -22 -66 -14 -186 17 -250 30
-63 92 -124 155 -156 43 -20 64 -24 145 -24 83 0 101 4 145 27 112 59 175 155
183 278 5 97 -22 173 -87 243 -67 72 -128 100 -226 103 -44 2 -95 -1 -113 -7z
m44 -180 l54 -52 54 52 c30 28 62 51 71 51 21 0 65 -44 65 -65 0 -9 -23 -41
-51 -71 l-52 -54 52 -54 c28 -30 51 -62 51 -71 0 -21 -44 -65 -65 -65 -9 0
-41 23 -71 51 l-54 52 -54 -52 c-30 -28 -62 -51 -71 -51 -21 0 -65 44 -65 65
0 9 23 41 51 71 l52 54 -52 54 c-28 30 -51 62 -51 71 0 21 44 65 65 65 9 0 41
-23 71 -51z"/>
<path d="M1360 635 c-10 -12 -2 -25 45 -75 l58 -60 -38 -42 c-21 -24 -46 -51
-56 -61 -18 -17 -16 -47 3 -47 6 0 35 25 65 55 30 30 58 55 62 55 3 0 33 -25
65 -55 51 -47 62 -53 74 -42 11 12 5 23 -44 76 l-57 61 58 61 c47 49 55 62 45
74 -7 8 -14 15 -17 15 -2 0 -31 -25 -64 -57 l-59 -56 -59 56 c-33 32 -62 57
-64 57 -3 0 -10 -7 -17 -15z"/>
<path d="M770 504 l0 -57 92 7 c50 3 131 6 180 6 l88 0 0 50 0 50 -180 0 -180
0 0 -56z"/>
<path d="M715 409 c-152 -11 -482 -57 -515 -72 -28 -14 -38 -50 -20 -73 11
-12 90 -14 526 -14 l513 0 -28 43 c-16 23 -34 58 -41 79 -10 28 -20 38 -43 42
-39 8 -243 5 -392 -5z"/>
<path d="M1802 282 c-18 -24 -20 -32 -9 -32 20 0 39 26 35 47 -3 14 -8 12 -26
-15z"/>
</g>
</svg>
