<?xml version="1.0" standalone="no"?>
<!DOCTYPE svg PUBLIC "-//W3C//DTD SVG 20010904//EN"
 "http://www.w3.org/TR/2001/REC-SVG-20010904/DTD/svg10.dtd">
<svg version="1.0" xmlns="http://www.w3.org/2000/svg"
 width="200.000000pt" height="200.000000pt" viewBox="0 0 200.000000 200.000000"
 preserveAspectRatio="xMidYMid meet">
<metadata>
Created by potrace 1.16, written by Peter Selinger 2001-2019
</metadata>
<g transform="translate(0.000000,200.000000) scale(0.100000,-0.100000)"
fill="#000000" stroke="none">
<path d="M887 1818 c-9 -15 -21 -97 -31 -223 -9 -110 -19 -210 -22 -222 -4
-21 -10 -23 -72 -23 -119 0 -121 -27 -10 -164 45 -55 88 -109 96 -118 14 -17
8 -18 -121 -18 l-137 0 0 250 0 251 -25 24 c-16 17 -35 25 -60 25 -25 0 -44
-8 -60 -25 l-25 -24 0 -251 0 -250 -82 0 c-99 0 -145 -19 -171 -70 -41 -80 5
-161 103 -183 l54 -12 53 -265 c30 -145 62 -278 71 -294 10 -17 33 -39 52 -51
34 -19 50 -20 500 -20 450 0 466 1 500 20 19 12 42 34 52 51 9 16 41 149 71
294 l53 265 53 11 c107 24 150 115 95 200 -26 39 -72 54 -164 54 l-80 0 0 250
0 251 -25 24 c-33 34 -87 34 -120 0 l-25 -24 0 -251 0 -250 -137 0 c-129 0
-135 1 -121 18 8 9 51 63 96 118 111 137 109 164 -10 164 -62 0 -68 2 -72 23
-3 12 -13 112 -22 222 -10 128 -21 208 -30 223 -13 20 -22 22 -114 22 -92 0
-101 -2 -113 -22z m-333 -270 c13 -19 16 -61 16 -260 l0 -238 -65 0 -65 0 0
238 c0 268 3 282 65 282 24 0 39 -7 49 -22z m990 0 c13 -19 16 -61 16 -260 l0
-238 -65 0 -65 0 0 238 c0 268 3 282 65 282 24 0 39 -7 49 -22z m-615 -583
c60 -75 83 -75 141 0 l42 55 325 0 325 0 29 -29 c47 -47 33 -132 -26 -159 -19
-9 -214 -12 -766 -12 -794 0 -782 -1 -809 49 -20 39 -12 91 19 122 l29 29 324
0 323 0 44 -55z m717 -202 c-3 -16 -28 -135 -55 -266 -27 -130 -56 -249 -66
-263 -34 -53 -48 -54 -525 -54 -478 0 -491 1 -526 54 -12 20 -122 503 -124
549 0 4 293 7 651 7 l651 0 -6 -27z"/>
<path d="M658 689 c-26 -15 -38 -74 -38 -194 0 -167 17 -205 89 -205 20 0 36
8 50 26 19 24 21 40 21 179 0 139 -2 155 -21 179 -22 28 -68 35 -101 15z"/>
<path d="M949 681 c-23 -19 -24 -23 -24 -186 0 -163 1 -167 24 -186 30 -24 72
-24 102 0 23 19 24 23 24 186 0 163 -1 167 -24 186 -13 10 -36 19 -51 19 -15
0 -38 -9 -51 -19z"/>
<path d="M1241 674 c-19 -24 -21 -40 -21 -179 0 -139 2 -155 21 -179 14 -18
30 -26 50 -26 73 0 89 36 89 205 0 169 -16 205 -89 205 -20 0 -36 -8 -50 -26z"/>
</g>
</svg>
