<?xml version="1.0" standalone="no"?>
<!DOCTYPE svg PUBLIC "-//W3C//DTD SVG 20010904//EN"
 "http://www.w3.org/TR/2001/REC-SVG-20010904/DTD/svg10.dtd">
<svg version="1.0" xmlns="http://www.w3.org/2000/svg"
 width="200.000000pt" height="200.000000pt" viewBox="0 0 200.000000 200.000000"
 preserveAspectRatio="xMidYMid meet">
<metadata>
Created by potrace 1.16, written by Peter Selinger 2001-2019
</metadata>
<g transform="translate(0.000000,200.000000) scale(0.100000,-0.100000)"
fill="#000000" stroke="none">
<path d="M351 1930 c-131 -32 -178 -191 -91 -302 23 -27 26 -37 15 -41 -7 -3
-26 -26 -40 -52 -26 -43 -28 -58 -42 -268 -18 -284 -16 -332 21 -387 l28 -42
-97 -283 c-89 -263 -95 -286 -86 -322 16 -60 60 -96 123 -100 71 -5 112 20
141 87 12 27 25 50 28 50 4 0 10 -21 14 -48 15 -98 52 -145 125 -157 75 -13
160 56 160 128 0 17 -27 178 -61 359 -59 320 -61 330 -45 369 9 21 16 59 16
83 0 24 3 58 6 75 7 32 7 32 28 12 24 -22 328 -131 366 -131 l25 0 37 -241
c26 -167 42 -247 54 -260 14 -15 14 -22 3 -53 -18 -49 -3 -104 36 -131 25 -17
29 -26 27 -54 -9 -90 71 -147 153 -109 33 15 55 56 55 103 l0 35 145 0 145 0
0 -41 c0 -51 13 -75 50 -94 100 -52 197 45 145 145 -28 54 -35 55 -373 58
l-313 3 -11 23 c-23 53 -13 57 344 146 183 46 345 89 360 97 44 22 56 50 78
193 25 161 27 200 9 228 -31 50 -49 52 -463 52 -382 0 -386 0 -386 20 0 36
-28 77 -62 92 -18 9 -88 35 -156 58 l-123 43 -96 141 c-53 78 -106 151 -117
164 -20 22 -20 24 -3 33 19 11 50 68 61 112 15 61 -34 161 -93 192 -38 19 -98
26 -140 15z m109 -75 c79 -41 79 -169 0 -210 -108 -56 -221 57 -165 165 29 55
105 76 165 45z m-2 -304 c9 -5 67 -81 127 -170 l110 -160 148 -52 c145 -51
177 -68 177 -92 0 -18 -29 -57 -43 -57 -7 0 -86 25 -176 57 l-163 56 -91 119
c-67 86 -97 118 -113 118 -42 0 -37 -30 20 -104 l55 -72 -9 -121 c-5 -81 -14
-132 -25 -150 -15 -27 -13 -44 49 -377 57 -300 64 -352 53 -375 -26 -55 -109
-54 -131 2 -8 18 -41 183 -75 367 -54 291 -65 338 -86 360 -44 46 -45 64 -29
322 8 134 20 256 26 272 6 15 25 37 42 47 33 20 105 25 134 10z m-155 -995
l25 -139 -34 -96 c-36 -100 -60 -131 -101 -131 -30 0 -73 42 -73 71 0 31 144
449 151 441 4 -4 18 -70 32 -146z"/>
</g>
</svg>
