<?xml version="1.0" standalone="no"?>
<!DOCTYPE svg PUBLIC "-//W3C//DTD SVG 20010904//EN"
 "http://www.w3.org/TR/2001/REC-SVG-20010904/DTD/svg10.dtd">
<svg version="1.0" xmlns="http://www.w3.org/2000/svg"
 width="200.000000pt" height="200.000000pt" viewBox="0 0 200.000000 200.000000"
 preserveAspectRatio="xMidYMid meet">
<metadata>
Created by potrace 1.16, written by Peter Selinger 2001-2019
</metadata>
<g transform="translate(0.000000,200.000000) scale(0.100000,-0.100000)"
fill="#000000" stroke="none">
<path d="M977 1894 c-4 -4 -7 -21 -7 -38 -1 -26 -7 -34 -43 -52 -58 -28 -87
-74 -87 -136 0 -97 52 -154 154 -169 38 -6 58 -16 79 -39 68 -76 0 -191 -99
-166 -36 9 -74 50 -74 79 0 29 -24 52 -45 43 -19 -7 -20 -58 -1 -94 18 -35 54
-68 88 -81 22 -8 27 -17 30 -48 3 -33 6 -38 28 -38 22 0 25 5 28 38 3 31 8 39
36 51 37 15 83 67 92 102 10 40 -2 114 -23 143 -25 34 -98 71 -141 71 -24 0
-42 9 -63 29 -64 65 -20 171 71 171 33 0 48 -6 71 -29 16 -17 29 -40 29 -54 0
-30 24 -52 46 -43 13 5 16 16 12 50 -7 56 -38 99 -88 123 -33 15 -39 23 -42
53 -2 26 -8 36 -23 38 -12 2 -24 0 -28 -4z"/>
<path d="M645 1530 c-32 -12 -37 -22 -133 -235 l-90 -200 -63 -2 c-143 -6
-169 -23 -169 -113 0 -58 18 -87 63 -103 9 -4 17 -16 17 -28 0 -12 12 -164 26
-338 27 -338 31 -353 87 -395 28 -21 34 -21 617 -21 583 0 589 0 617 21 56 42
60 57 87 395 14 174 26 326 26 338 0 12 8 24 18 28 44 16 62 45 62 103 0 48
-4 60 -26 81 -22 20 -38 24 -116 29 l-90 5 -90 200 c-50 110 -97 208 -105 217
-21 24 -69 32 -104 18 -31 -13 -59 -55 -59 -88 0 -11 33 -93 74 -183 l73 -164
-183 -3 c-101 -1 -267 -1 -368 0 l-183 3 73 164 c41 90 74 172 74 183 0 67
-72 114 -135 88z m68 -71 c8 -13 -16 -74 -103 -268 -108 -239 -115 -252 -140
-249 -16 2 -26 10 -28 24 -3 19 181 441 214 492 17 26 41 26 57 1z m626 7 c22
-27 229 -499 224 -512 -6 -16 -29 -25 -46 -18 -13 4 -237 488 -237 510 0 14
21 34 36 34 6 0 17 -6 23 -14z m-955 -458 c-5 -13 -7 -36 -6 -51 l1 -28 -62 3
-62 3 -3 33 c-6 57 1 62 73 62 64 0 66 -1 59 -22z m1034 -23 c12 -25 22 -48
22 -50 0 -3 -198 -5 -440 -5 -242 0 -440 2 -440 5 0 2 10 25 22 50 l22 45 396
0 396 0 22 -45z m327 -5 l0 -45 -62 -3 -62 -3 1 28 c1 15 -1 38 -6 51 -8 23
-7 23 61 20 l68 -3 0 -45z m-75 -126 c0 -9 -11 -156 -26 -327 -21 -258 -28
-316 -43 -337 l-18 -25 -580 -3 -579 -2 -21 22 c-19 21 -24 53 -47 333 -14
171 -26 321 -26 333 l0 22 670 0 c605 0 670 -2 670 -16z"/>
<path d="M543 780 c-46 -19 -53 -53 -53 -275 0 -269 7 -285 129 -285 49 0 65
4 88 24 l28 24 0 236 c0 230 0 236 -22 258 -18 17 -36 23 -85 25 -35 1 -73 -1
-85 -7z m125 -62 c17 -17 17 -409 0 -426 -16 -16 -90 -16 -106 0 -17 17 -17
409 0 426 16 16 90 16 106 0z"/>
<path d="M925 778 c-44 -23 -45 -32 -45 -269 0 -125 3 -235 6 -244 10 -26 60
-45 119 -45 49 0 60 4 86 29 l29 29 0 227 0 227 -29 29 c-26 25 -36 29 -88 29
-32 0 -67 -6 -78 -12z m123 -56 c9 -7 12 -58 10 -223 l-3 -214 -55 0 -55 0 -3
210 c-1 115 0 215 2 222 6 14 83 18 104 5z"/>
<path d="M1319 761 l-29 -29 0 -227 0 -227 29 -29 c26 -25 37 -29 86 -29 58 0
91 11 112 39 9 12 12 81 13 248 l0 231 -31 26 c-25 22 -41 26 -91 26 -53 0
-63 -3 -89 -29z m146 -256 l0 -220 -55 0 -55 0 -3 210 c-1 115 0 215 3 223 3
9 21 12 57 10 l53 -3 0 -220z"/>
</g>
</svg>
