<?xml version="1.0" standalone="no"?>
<!DOCTYPE svg PUBLIC "-//W3C//DTD SVG 20010904//EN"
 "http://www.w3.org/TR/2001/REC-SVG-20010904/DTD/svg10.dtd">
<svg version="1.0" xmlns="http://www.w3.org/2000/svg"
 width="200.000000pt" height="200.000000pt" viewBox="0 0 200.000000 200.000000"
 preserveAspectRatio="xMidYMid meet">
<metadata>
Created by potrace 1.16, written by Peter Selinger 2001-2019
</metadata>
<g transform="translate(0.000000,200.000000) scale(0.100000,-0.100000)"
fill="#000000" stroke="none">
<path d="M534 1793 c-12 -2 -32 -15 -45 -29 -20 -22 -24 -37 -27 -124 -3 -77
-1 -105 12 -132 9 -18 19 -58 23 -89 l6 -56 82 -41 83 -41 27 29 c21 22 26 34
21 55 -5 21 -2 31 18 46 13 11 27 32 31 48 3 16 13 35 21 42 11 9 13 32 8 123
-7 127 -17 150 -71 165 -37 11 -146 13 -189 4z m172 -87 c8 -14 25 -26 37 -28
17 -2 23 -12 28 -45 7 -52 -3 -134 -16 -134 -5 1 -12 25 -15 54 -5 53 -5 54
-38 53 -17 -1 -30 4 -29 9 2 6 18 10 35 10 24 0 32 4 32 17 0 10 -6 18 -14 18
-7 0 -21 10 -29 23 l-16 22 -16 -22 c-12 -17 -26 -23 -56 -23 -47 0 -89 -35
-89 -75 0 -21 -5 -25 -27 -25 -25 1 -26 2 -11 13 9 7 20 25 23 39 10 39 39 60
90 66 37 4 49 10 57 28 14 31 33 30 54 0z m-79 -91 c2 -6 -12 -9 -29 -8 -45 2
-45 2 -28 13 18 12 52 9 57 -5z m-21 -62 c-11 -11 -19 6 -11 24 8 17 8 17 12
0 3 -10 2 -21 -1 -24z m109 7 c-5 -8 -11 -8 -17 -2 -6 6 -7 16 -3 22 5 8 11 8
17 2 6 -6 7 -16 3 -22z m-42 -14 c7 -21 6 -32 -7 -44 -8 -9 -19 -12 -23 -8 -4
4 -2 11 5 15 10 6 10 15 2 35 -13 35 -13 39 2 34 6 -2 16 -17 21 -32z m6 -92
c-13 -15 -55 -19 -63 -5 -8 13 -1 16 39 18 31 1 34 -1 24 -13z m16 -54 c4 -6
-17 -10 -54 -10 -34 0 -61 4 -61 10 0 6 24 10 54 10 30 0 58 -4 61 -10z"/>
<path d="M1062 1733 c-9 -10 -30 -26 -45 -36 -15 -10 -32 -28 -36 -40 -5 -12
-19 -31 -31 -42 -19 -17 -21 -26 -15 -70 6 -49 5 -51 -25 -62 -38 -14 -40 -46
-5 -69 28 -19 33 -34 9 -34 -14 0 -63 -18 -104 -39 -8 -5 -20 -17 -25 -28 -6
-12 -17 -28 -24 -37 -8 -9 -11 -20 -7 -24 4 -4 27 14 51 39 l44 46 30 -31 c17
-17 42 -41 56 -53 14 -12 25 -33 25 -46 0 -13 11 -34 24 -46 20 -19 28 -21 45
-11 19 10 20 17 15 65 -6 45 -4 55 8 55 21 0 12 54 -18 111 -28 54 -31 112 -9
185 15 52 46 94 70 94 8 0 23 -19 34 -42 29 -63 53 -89 92 -97 49 -10 50 -41
4 -92 -31 -35 -35 -44 -30 -77 12 -72 15 -80 35 -85 11 -3 20 -12 20 -21 0 -9
5 -16 10 -16 6 0 10 22 10 48 0 51 12 72 42 72 11 0 32 10 48 22 22 16 33 19
41 11 8 -8 5 -13 -12 -18 -21 -7 -21 -8 9 -21 18 -7 37 -24 44 -39 6 -14 15
-25 20 -25 27 0 -7 -54 -79 -127 -27 -27 -40 -48 -37 -58 3 -8 10 -15 14 -15
10 0 174 138 178 150 2 5 -13 19 -32 32 -29 18 -36 29 -36 55 0 23 -8 38 -29
55 -16 13 -34 33 -40 45 -6 13 -22 25 -36 29 -33 8 -37 26 -14 69 19 35 19 38
3 56 -10 11 -34 22 -55 25 l-38 6 6 43 c5 38 3 44 -18 56 -13 7 -47 13 -76 13
-41 1 -53 5 -57 19 -2 9 -11 17 -20 17 -9 0 -24 -8 -34 -17z"/>
<path d="M1068 1618 c-24 -37 -32 -69 -15 -62 7 2 20 -2 27 -11 7 -8 8 -15 2
-15 -5 0 -12 -9 -15 -21 -3 -12 -10 -18 -16 -15 -6 4 -8 13 -4 21 3 8 0 15 -6
15 -7 0 -11 -21 -11 -52 0 -59 23 -106 65 -134 30 -19 33 -38 5 -29 -21 7 -24
-2 -14 -29 4 -12 20 -16 53 -16 l48 0 -8 58 c-10 64 2 108 31 117 10 3 21 12
24 20 7 18 -5 20 -22 3 -15 -15 -28 -3 -14 14 7 10 4 17 -12 30 -24 18 -39 13
-49 -15 -4 -10 -11 -15 -17 -12 -6 4 -8 11 -4 16 3 5 0 17 -7 25 -10 12 -9 16
8 20 l21 6 -22 44 c-11 24 -24 44 -27 44 -4 0 -13 -10 -21 -22z m28 -152 c-4
-15 -1 -26 7 -29 8 -3 6 -7 -6 -12 -27 -11 -39 7 -25 38 16 33 32 35 24 3z
m64 -43 c0 -3 -7 -15 -17 -25 -17 -19 -53 -25 -53 -8 0 6 6 10 14 10 7 0 19 7
26 15 13 15 30 20 30 8z"/>
<path d="M491 1333 c1 -10 123 -111 143 -119 12 -5 16 1 16 23 0 26 -8 32 -75
66 -80 39 -85 41 -84 30z"/>
<path d="M1295 1319 c-11 -16 -2 -17 25 -2 24 12 24 13 3 13 -12 0 -25 -5 -28
-11z"/>
<path d="M401 1297 c-101 -40 -128 -77 -215 -297 -83 -208 -93 -258 -63 -317
34 -65 105 -103 196 -103 38 0 42 2 35 18 -11 22 -11 91 -1 119 7 19 3 22 -32
28 -21 3 -65 2 -97 -4 -53 -10 -75 -9 -62 4 11 12 125 26 160 21 32 -5 40 -3
52 16 20 33 35 85 44 151 4 32 11 57 17 57 12 0 7 -68 -10 -134 -7 -28 -11
-53 -9 -55 2 -2 4 1 4 7 0 16 103 81 140 88 28 6 30 5 30 -25 0 -24 4 -31 19
-31 35 0 46 -29 47 -119 1 -47 5 -101 9 -118 7 -31 10 -33 50 -33 60 0 85 -24
96 -90 9 -55 1 -88 -12 -54 -4 10 -8 35 -8 55 -1 42 -26 69 -63 69 -24 0 -25
-4 -55 -167 -17 -93 -29 -171 -26 -176 2 -4 45 -7 94 -7 70 0 91 3 95 15 4 8
2 53 -4 100 -9 81 -8 90 19 175 16 49 34 132 40 184 l12 94 24 -35 c32 -47 62
-72 96 -79 15 -4 26 -9 25 -13 -99 -189 -131 -276 -126 -338 l3 -38 345 0 345
0 1 117 c1 106 3 119 22 135 12 10 73 85 137 167 98 128 115 155 115 185 0 31
-18 56 -131 191 -174 208 -170 204 -194 186 -19 -14 -19 -16 -2 -45 11 -19 14
-32 7 -36 -6 -3 -13 1 -16 9 -3 9 -10 16 -16 16 -5 0 -45 -30 -89 -67 l-79
-66 22 -24 c29 -31 14 -43 -17 -13 -16 15 -29 20 -35 14 -5 -5 44 -96 131
-237 76 -125 139 -230 139 -232 0 -26 -39 29 -156 219 l-137 224 -23 -16 c-13
-9 -24 -21 -24 -26 0 -24 144 -453 158 -468 18 -22 42 -22 106 -3 57 17 66 18
66 6 0 -4 -26 -16 -58 -25 -127 -35 -131 -30 -221 252 -68 214 -80 262 -63
262 4 1 24 16 45 34 35 31 37 36 26 60 -9 19 -20 26 -39 26 -37 0 -64 32 -56
65 4 14 4 36 0 50 -6 24 -9 25 -90 25 l-84 0 7 -45 c6 -44 4 -47 -41 -92 -50
-49 -86 -109 -86 -143 0 -31 25 -74 52 -88 34 -19 111 -187 97 -213 -5 -11
-14 -19 -19 -19 -13 0 -13 13 1 27 7 7 4 20 -10 44 -11 19 -27 54 -37 78 -10
25 -37 64 -61 86 -33 32 -43 49 -43 74 0 28 30 97 62 143 11 15 7 23 -22 53
-40 41 -46 42 -82 11 l-27 -24 19 -94 c23 -116 31 -208 19 -208 -11 0 -16 25
-23 110 -4 36 -14 97 -24 135 -14 59 -21 71 -40 73 -12 2 -27 12 -32 23 -6 10
-25 26 -42 35 -31 16 -31 16 -24 -8 37 -126 48 -188 53 -288 6 -118 -9 -254
-29 -266 -7 -5 -9 5 -5 27 4 19 9 84 13 144 7 115 -7 228 -42 345 -16 52 -18
54 -27 30 -6 -14 -12 -27 -13 -29 -2 -2 -45 31 -96 73 -51 42 -95 76 -98 75
-3 -1 -30 -11 -59 -22z"/>
<path d="M1396 1312 c-3 -5 -16 -7 -29 -5 -16 3 -34 -4 -53 -20 -33 -29 -27
-47 8 -23 29 21 77 20 100 -1 17 -15 18 -15 7 15 -12 35 -25 47 -33 34z"/>
<path d="M740 1299 c0 -5 5 -7 10 -4 6 3 10 8 10 11 0 2 -4 4 -10 4 -5 0 -10
-5 -10 -11z"/>
<path d="M702 1288 c-16 -16 -15 -28 3 -28 8 0 15 9 15 20 0 23 -2 24 -18 8z"/>
<path d="M807 1263 c-25 -20 -43 -41 -41 -45 6 -9 94 60 94 73 0 14 -4 12 -53
-28z"/>
<path d="M830 1231 c-25 -22 -42 -42 -38 -46 7 -8 98 64 98 77 0 15 -15 7 -60
-31z"/>
<path d="M1325 1240 c-19 -21 -19 -21 3 -27 24 -6 27 -14 11 -30 -6 -6 -9 -19
-7 -29 6 -29 81 47 76 78 -4 32 -57 37 -83 8z"/>
<path d="M870 1210 c-49 -43 -37 -56 12 -14 17 14 37 23 44 20 18 -7 18 8 1
22 -10 8 -24 1 -57 -28z"/>
<path d="M1265 1197 c-27 -39 -15 -67 30 -67 20 0 23 53 3 72 -16 16 -18 16
-33 -5z"/>
<path d="M505 847 c-45 -25 -64 -44 -80 -75 -12 -23 -30 -48 -41 -56 -26 -19
-27 -98 -1 -123 24 -25 197 -33 197 -10 0 12 -8 13 -42 6 -57 -11 -108 -11
-108 0 0 5 26 12 58 15 31 4 65 10 75 12 18 6 18 6 0 20 -17 12 -17 13 0 14
19 0 22 11 6 27 -8 8 -8 13 0 17 16 10 13 26 -4 26 -8 0 -15 5 -15 10 0 6 5
10 10 10 6 0 10 5 10 10 0 6 -7 10 -15 10 -8 0 -15 5 -15 10 0 6 11 10 24 10
26 0 36 -28 36 -107 0 -29 4 -42 11 -38 6 4 8 9 5 12 -3 3 2 12 11 21 14 14
14 16 -2 22 -15 5 -16 7 -1 19 17 14 22 32 9 30 -22 -4 -24 3 -8 21 18 19 17
20 -5 20 -19 0 -21 2 -9 16 10 13 10 17 -1 24 -17 11 -39 3 -71 -27 -40 -36
-43 -15 -4 29 29 31 44 58 33 58 -2 0 -30 -15 -63 -33z"/>
<path d="M617 616 c-26 -20 -22 -46 8 -46 17 0 25 5 25 18 0 31 -13 42 -33 28z"/>
<path d="M297 548 c-20 -20 -25 -44 -40 -176 -10 -84 -15 -157 -12 -162 8 -13
362 -13 370 0 4 7 65 322 65 338 0 2 -19 2 -42 0 -36 -2 -44 -7 -46 -25 -5
-31 -22 -29 -22 2 0 24 -2 25 -75 25 -43 0 -75 4 -75 10 0 6 -23 10 -50 10
-39 0 -56 -5 -73 -22z"/>
</g>
</svg>
