<?xml version="1.0" standalone="no"?>
<!DOCTYPE svg PUBLIC "-//W3C//DTD SVG 20010904//EN"
 "http://www.w3.org/TR/2001/REC-SVG-20010904/DTD/svg10.dtd">
<svg version="1.0" xmlns="http://www.w3.org/2000/svg"
 width="200.000000pt" height="200.000000pt" viewBox="0 0 200.000000 200.000000"
 preserveAspectRatio="xMidYMid meet">
<metadata>
Created by potrace 1.16, written by Peter Selinger 2001-2019
</metadata>
<g transform="translate(0.000000,200.000000) scale(0.100000,-0.100000)"
fill="#000000" stroke="none">
<path d="M152 1808 c-6 -7 -33 -70 -61 -141 -41 -102 -51 -139 -51 -185 0 -70
27 -132 69 -163 l31 -23 0 -456 c0 -341 3 -459 12 -468 17 -17 1679 -17 1696
0 9 9 12 127 12 468 l0 456 29 22 c42 31 71 98 71 165 0 45 -11 84 -51 184
-28 71 -56 134 -61 141 -8 9 -48 12 -157 10 -138 -3 -146 -4 -146 -23 0 -19 8
-20 137 -23 l136 -3 37 -92 c21 -50 39 -98 42 -104 4 -10 -179 -13 -897 -13
-718 0 -901 3 -897 13 3 6 21 54 42 105 l37 92 599 0 c541 0 600 2 606 16 3 9
0 20 -8 25 -8 5 -285 9 -615 9 -469 0 -604 -3 -612 -12z m1758 -348 c0 -43 -5
-56 -33 -86 -75 -83 -203 -44 -226 69 -9 43 -43 45 -51 2 -15 -73 -66 -115
-139 -115 -37 0 -49 6 -82 39 -23 23 -39 48 -39 62 0 31 -14 53 -30 47 -7 -2
-19 -26 -29 -53 -28 -87 -120 -122 -196 -75 -31 19 -65 80 -65 115 0 8 -9 15
-20 15 -11 0 -20 -7 -20 -15 0 -35 -34 -96 -65 -115 -76 -47 -168 -12 -196 75
-10 27 -22 51 -29 53 -16 6 -30 -16 -30 -46 0 -12 -15 -38 -33 -58 -75 -83
-203 -44 -226 69 -9 43 -43 45 -51 2 -15 -73 -66 -115 -139 -115 -37 0 -49 6
-82 39 -35 35 -39 44 -39 90 l0 51 910 0 910 0 0 -50z m-1450 -164 c22 -9 56
-16 76 -16 43 0 105 31 132 65 l21 26 16 -25 c21 -32 91 -66 138 -66 49 0 86
16 125 53 l32 31 33 -31 c38 -37 75 -53 124 -53 46 0 117 34 138 66 l16 25 24
-30 c51 -60 134 -77 212 -42 23 11 49 31 58 45 l17 26 20 -25 c27 -34 89 -65
133 -65 l35 0 0 -55 0 -55 -810 0 -810 0 0 55 0 55 33 0 c43 1 110 32 133 63
l19 26 22 -29 c13 -15 41 -35 63 -44z m1350 -531 l0 -355 -80 0 -80 0 0 300
c0 286 -1 300 -19 310 -26 13 -356 13 -382 0 -18 -10 -19 -24 -19 -310 l0
-300 -520 0 -520 0 0 355 0 355 810 0 810 0 0 -355z m-210 180 l0 -35 -160 0
-160 0 0 35 0 35 160 0 160 0 0 -35z m0 -310 l0 -225 -160 0 -160 0 0 225 0
225 160 0 160 0 0 -225z"/>
<path d="M363 1023 c-10 -3 -13 -62 -13 -244 l0 -239 280 0 280 0 0 239 c0
209 -2 240 -16 245 -19 7 -513 7 -531 -1z m245 -240 l-3 -198 -107 -3 -108 -3
0 201 0 200 110 0 110 0 -2 -197z m260 0 l-3 -198 -107 -3 -108 -3 0 201 0
200 110 0 110 0 -2 -197z"/>
<path d="M241 1006 c-20 -23 -10 -71 14 -71 15 0 21 8 23 31 4 38 -19 62 -37
40z"/>
<path d="M235 858 c-3 -8 -4 -70 -3 -139 3 -116 4 -124 23 -124 19 0 20 7 20
135 0 120 -2 135 -18 138 -9 2 -19 -3 -22 -10z"/>
<path d="M252 218 c-8 -8 -9 -15 -1 -25 9 -11 150 -13 753 -13 411 0 747 4
755 9 8 5 11 16 8 25 -6 14 -78 16 -755 16 -560 0 -751 -3 -760 -12z"/>
</g>
</svg>
