<?xml version="1.0" standalone="no"?>
<!DOCTYPE svg PUBLIC "-//W3C//DTD SVG 20010904//EN"
 "http://www.w3.org/TR/2001/REC-SVG-20010904/DTD/svg10.dtd">
<svg version="1.0" xmlns="http://www.w3.org/2000/svg"
 width="200.000000pt" height="200.000000pt" viewBox="0 0 200.000000 200.000000"
 preserveAspectRatio="xMidYMid meet">
<metadata>
Created by potrace 1.16, written by Peter Selinger 2001-2019
</metadata>
<g transform="translate(0.000000,200.000000) scale(0.100000,-0.100000)"
fill="#000000" stroke="none">
<path d="M648 1899 c-15 -8 -18 -25 -18 -94 0 -119 -3 -115 96 -115 l84 0 0
-35 0 -35 -147 -1 -148 0 -239 -234 c-169 -166 -237 -238 -233 -249 5 -11 20
-16 52 -16 l45 0 0 -254 c0 -215 2 -255 15 -260 30 -11 35 31 35 273 l0 241
420 0 420 0 0 -415 0 -415 -159 0 -159 0 -4 130 -3 130 -33 32 c-27 28 -39 33
-77 32 -29 -1 -52 -8 -66 -20 -41 -37 -49 -68 -49 -189 l0 -115 -145 0 -145 0
0 64 c0 78 -6 96 -31 96 -18 0 -20 -7 -17 -102 l3 -103 879 -3 c697 -2 881 0
888 10 4 7 8 194 8 414 0 399 0 402 21 407 12 3 19 12 17 20 -1 8 -108 130
-236 271 l-233 256 -170 0 -169 0 0 35 0 34 88 3 87 3 3 95 c2 80 0 97 -15
107 -22 16 -638 18 -665 2z m632 -99 l0 -60 -300 0 -300 0 0 60 0 60 300 0
300 0 0 -60z m-175 -145 l0 -30 -122 -3 -123 -3 0 36 0 36 123 -3 122 -3 0
-30z m284 -115 c-13 -16 -94 -106 -179 -199 l-155 -169 -465 -1 -465 0 205
199 205 199 439 1 439 0 -24 -30z m286 -194 l195 -214 0 -421 0 -421 -135 0
-135 0 0 98 c0 53 -5 114 -10 134 -14 50 -55 78 -113 78 -39 0 -49 -5 -76 -35
-31 -36 -31 -36 -31 -155 l0 -120 -145 0 -145 0 0 423 1 422 195 213 c108 116
197 212 199 212 2 0 92 -96 200 -214z m-1033 -793 c16 -14 18 -33 18 -140 l0
-123 -65 0 -65 0 0 120 c0 107 2 122 20 140 24 24 67 26 92 3z m883 -18 c24
-23 25 -31 25 -135 l0 -110 -70 0 -70 0 0 99 c0 112 9 147 42 161 36 14 47 12
73 -15z"/>
<path d="M577 1512 c-23 -25 -22 -52 1 -52 25 0 56 35 49 55 -8 20 -30 19 -50
-3z"/>
<path d="M416 1351 c-90 -90 -108 -121 -73 -121 7 0 55 42 106 94 65 65 92 99
88 110 -4 9 -10 16 -14 16 -5 0 -53 -45 -107 -99z"/>
<path d="M1319 1305 c-79 -86 -145 -165 -147 -176 -8 -45 38 -10 167 129 73
78 136 142 139 142 4 0 66 -68 137 -150 123 -141 165 -176 165 -132 0 22 -277
336 -300 340 -11 2 -66 -51 -161 -153z"/>
<path d="M1433 1056 c-55 -25 -64 -58 -61 -214 l3 -137 104 -3 c77 -2 107 1
113 10 12 20 8 239 -5 277 -22 63 -94 94 -154 67z m96 -62 c18 -23 21 -41 21
-135 l0 -109 -71 0 -71 0 4 116 c3 108 5 117 27 135 33 27 66 24 90 -7z"/>
<path d="M1170 1001 c0 -25 41 -38 79 -25 46 17 32 39 -26 42 -48 3 -53 1 -53
-17z"/>
<path d="M1690 1001 c0 -25 41 -38 79 -25 46 17 32 39 -26 42 -48 3 -53 1 -53
-17z"/>
<path d="M1174 895 c-10 -25 6 -35 52 -35 47 0 71 23 43 41 -23 14 -89 11 -95
-6z"/>
<path d="M1692 898 c-19 -19 6 -38 53 -38 44 0 63 18 42 39 -15 15 -80 14 -95
-1z"/>
<path d="M1172 768 c2 -19 10 -23 43 -26 47 -3 70 9 62 32 -5 12 -20 16 -57
16 -48 0 -51 -2 -48 -22z"/>
<path d="M1687 776 c-8 -21 14 -36 54 -36 37 0 66 21 54 40 -10 16 -102 13
-108 -4z"/>
<path d="M257 1023 c-4 -3 -7 -50 -7 -104 0 -92 1 -97 23 -103 29 -8 631 -8
651 0 13 5 16 25 16 110 l0 104 -338 0 c-186 0 -342 -3 -345 -7z m643 -103 l0
-60 -300 0 -300 0 0 60 0 60 300 0 300 0 0 -60z"/>
<path d="M294 605 c-10 -25 9 -37 57 -33 36 2 44 7 44 23 0 17 -8 20 -48 23
-36 2 -49 -1 -53 -13z"/>
<path d="M822 608 c-19 -19 6 -38 53 -38 42 0 64 18 49 41 -8 13 -88 11 -102
-3z"/>
<path d="M305 497 c-28 -21 -9 -37 46 -37 41 0 49 3 49 19 0 32 -60 43 -95 18z"/>
<path d="M833 503 c-7 -2 -13 -13 -13 -24 0 -16 7 -19 49 -19 28 0 53 5 57 12
15 25 -53 48 -93 31z"/>
<path d="M301 381 c-8 -5 -11 -16 -8 -26 5 -12 17 -15 54 -13 40 3 48 6 48 23
0 16 -8 20 -40 23 -22 1 -46 -2 -54 -7z"/>
<path d="M822 378 c-19 -19 6 -38 53 -38 44 0 63 18 42 39 -15 15 -80 14 -95
-1z"/>
<path d="M253 124 c-3 -9 0 -20 8 -25 8 -5 348 -9 765 -9 646 0 753 2 764 15
6 8 9 19 5 25 -4 7 -250 10 -771 10 -692 0 -765 -2 -771 -16z"/>
</g>
</svg>
