<?xml version="1.0" standalone="no"?>
<!DOCTYPE svg PUBLIC "-//W3C//DTD SVG 20010904//EN"
 "http://www.w3.org/TR/2001/REC-SVG-20010904/DTD/svg10.dtd">
<svg version="1.0" xmlns="http://www.w3.org/2000/svg"
 width="200.000000pt" height="200.000000pt" viewBox="0 0 200.000000 200.000000"
 preserveAspectRatio="xMidYMid meet">
<metadata>
Created by potrace 1.16, written by Peter Selinger 2001-2019
</metadata>
<g transform="translate(0.000000,200.000000) scale(0.100000,-0.100000)"
fill="#000000" stroke="none">
<path d="M292 1788 c-11 -13 -62 -79 -112 -148 l-92 -125 4 -88 c5 -96 18
-125 76 -162 l31 -20 1 -481 c0 -316 4 -492 11 -512 22 -65 -17 -62 789 -62
806 0 767 -3 789 62 7 20 11 196 11 512 l1 481 31 20 c58 37 71 66 76 162 l4
88 -92 125 c-50 69 -101 135 -112 148 l-21 22 -687 0 -687 0 -21 -22z m107
-110 c-22 -40 -47 -88 -56 -105 -16 -32 -18 -33 -85 -33 -37 0 -68 3 -68 6 0
4 33 51 73 105 l72 98 52 1 52 0 -40 -72z m181 -30 l-38 -103 -71 -3 c-39 -2
-71 0 -71 4 0 8 89 174 103 192 5 7 32 12 62 12 l52 0 -37 -102z m210 85 c-1
-10 -9 -56 -18 -103 l-17 -85 -72 -3 c-40 -2 -73 1 -73 6 0 5 11 41 25 78 50
135 41 124 101 124 45 0 54 -3 54 -17z m180 -88 l0 -105 -75 0 c-41 0 -75 3
-75 8 0 4 7 51 17 105 l18 97 57 0 58 0 0 -105z m189 28 c7 -43 15 -90 18
-105 l6 -28 -77 0 -76 0 0 105 0 105 58 0 58 0 13 -77z m169 50 c28 -71 62
-166 62 -175 0 -5 -33 -8 -72 -6 l-73 3 -17 85 c-25 126 -27 120 36 120 49 0
54 -2 64 -27z m219 -73 c29 -52 53 -99 53 -103 0 -4 -32 -7 -71 -5 l-71 3 -38
103 -38 103 56 -3 57 -3 52 -95z m191 1 c39 -55 72 -102 72 -105 0 -3 -31 -6
-68 -6 -67 0 -69 1 -85 33 -9 17 -34 65 -56 105 l-40 72 52 0 52 0 73 -99z
m-1428 -234 c0 -79 -21 -107 -79 -107 -55 0 -74 26 -79 106 l-4 64 81 0 81 0
0 -63z m220 1 c0 -77 -23 -108 -80 -108 -54 0 -73 26 -78 106 l-4 64 81 0 81
0 0 -62z m220 -5 c0 -85 -14 -103 -81 -103 -63 0 -79 22 -79 107 l0 63 80 0
80 0 0 -67z m220 8 c0 -77 -24 -111 -80 -111 -56 0 -80 34 -80 111 l0 59 80 0
80 0 0 -59z m220 0 c0 -77 -24 -111 -80 -111 -56 0 -80 34 -80 111 l0 59 80 0
80 0 0 -59z m220 0 c0 -76 -25 -111 -78 -111 -59 0 -82 30 -82 107 l0 63 80 0
80 0 0 -59z m218 -5 c-5 -80 -24 -106 -79 -106 -58 0 -79 28 -79 107 l0 63 81
0 81 0 -4 -64z m220 0 c-5 -80 -24 -106 -80 -106 -59 0 -78 26 -78 105 l0 65
81 0 81 0 -4 -64z m-1471 -146 c35 -27 107 -27 152 1 29 18 35 18 50 6 42 -38
140 -39 181 -2 18 16 21 16 53 -4 44 -27 111 -28 155 -1 l33 20 29 -20 c38
-27 114 -27 158 0 l33 20 26 -20 c35 -28 114 -27 159 1 l34 21 26 -21 c37 -29
121 -29 158 0 14 11 30 19 34 17 4 -2 24 -14 45 -27 l37 -23 0 -475 c0 -308
-4 -481 -10 -494 -10 -19 -29 -19 -730 -19 -701 0 -720 0 -730 19 -6 13 -10
188 -10 500 0 404 2 481 14 481 8 0 24 9 37 20 30 24 35 24 66 0z"/>
<path d="M415 1108 c-45 -24 -45 -26 -45 -370 l0 -329 25 -24 c24 -25 26 -25
214 -25 104 0 197 3 206 6 41 16 45 48 45 379 l0 317 -29 29 -29 29 -184 0
c-113 0 -191 -5 -203 -12z m373 -56 c9 -7 12 -77 10 -318 l-3 -309 -180 0
-180 0 -3 305 c-1 168 0 310 3 317 3 10 46 13 172 13 92 0 174 -4 181 -8z"/>
<path d="M698 797 c-19 -19 -11 -116 9 -124 35 -13 58 71 33 118 -13 22 -24
24 -42 6z"/>
<path d="M1209 1107 c-95 -27 -184 -99 -227 -184 -89 -174 -9 -397 171 -479
53 -25 74 -29 152 -29 77 0 99 4 147 27 70 32 138 99 174 170 39 76 45 190 14
271 -52 137 -168 224 -310 233 -45 2 -93 -1 -121 -9z m192 -64 c72 -23 158
-107 182 -177 39 -114 14 -221 -72 -306 -41 -41 -70 -60 -110 -73 -149 -48
-295 12 -362 149 -118 238 105 489 362 407z"/>
<path d="M1274 1001 c-4 -17 -16 -33 -30 -40 -29 -13 -64 -67 -64 -99 0 -34
26 -85 52 -101 12 -7 42 -19 67 -25 58 -14 82 -53 57 -91 -23 -34 -53 -41 -84
-18 -15 11 -29 31 -32 44 -7 28 -47 39 -56 15 -11 -28 17 -86 52 -109 18 -12
34 -29 34 -38 0 -22 26 -43 45 -35 8 3 15 16 15 29 0 18 8 28 31 38 45 18 75
86 59 134 -15 45 -58 81 -109 89 -76 12 -95 97 -28 120 36 13 56 1 80 -47 19
-39 37 -46 55 -24 23 27 -12 98 -59 123 -20 10 -29 22 -29 39 0 20 -5 25 -25
25 -20 0 -27 -6 -31 -29z"/>
</g>
</svg>
