<?xml version="1.0" standalone="no"?>
<!DOCTYPE svg PUBLIC "-//W3C//DTD SVG 20010904//EN"
 "http://www.w3.org/TR/2001/REC-SVG-20010904/DTD/svg10.dtd">
<svg version="1.0" xmlns="http://www.w3.org/2000/svg"
 width="200.000000pt" height="200.000000pt" viewBox="0 0 200.000000 200.000000"
 preserveAspectRatio="xMidYMid meet">
<metadata>
Created by potrace 1.16, written by Peter Selinger 2001-2019
</metadata>
<g transform="translate(0.000000,200.000000) scale(0.100000,-0.100000)"
fill="#000000" stroke="none">
<path d="M415 1685 c-8 -19 -22 -51 -29 -70 l-15 -35 629 0 629 0 -28 68 -28
67 -572 3 -572 2 -14 -35z"/>
<path d="M360 1495 c0 -68 21 -111 63 -124 56 -19 100 7 116 66 8 31 41 45 41
18 0 -30 29 -72 58 -84 53 -22 105 6 121 65 11 43 37 43 45 -1 18 -94 150 -94
174 -1 10 39 33 40 43 2 16 -59 68 -87 121 -65 29 12 58 54 58 84 0 27 33 13
41 -18 16 -59 60 -85 116 -66 33 11 63 51 63 84 0 29 33 12 42 -21 18 -69 95
-92 145 -41 21 21 28 38 31 87 l4 60 -641 0 -641 0 0 -45z"/>
<path d="M211 1376 l-104 -121 244 -5 244 -5 3 -397 2 -398 130 0 130 0 0 138
c0 165 8 199 60 245 62 57 137 58 204 6 46 -36 51 -56 56 -224 l5 -160 130 0
130 0 3 397 2 398 222 2 221 3 -104 121 -104 122 -11 -54 c-12 -64 -43 -100
-96 -115 -46 -12 -96 1 -124 32 -17 19 -18 19 -46 -8 -41 -39 -110 -39 -160
-1 l-35 27 -23 -24 c-42 -44 -116 -44 -164 0 l-26 24 -26 -24 c-47 -44 -123
-44 -166 0 l-22 23 -35 -27 c-49 -37 -118 -37 -159 2 -28 27 -29 27 -46 8 -28
-31 -78 -44 -124 -32 -53 15 -84 51 -96 115 l-11 54 -104 -122z m1169 -251 l0
-105 -355 0 -355 0 0 105 0 105 355 0 355 0 0 -105z m-682 -203 c4 -25 -15
-55 -29 -46 -5 3 -9 21 -9 40 0 28 4 35 18 32 9 -2 18 -14 20 -26z m-3 -257
c0 -116 -2 -130 -17 -133 -16 -3 -18 8 -18 133 0 125 2 136 18 133 15 -3 17
-17 17 -133z"/>
<path d="M704 1186 c-3 -7 -4 -40 -2 -72 l3 -59 318 -3 317 -2 0 75 0 75 -315
0 c-257 0 -317 -3 -321 -14z"/>
<path d="M222 1138 l3 -73 165 0 165 0 3 73 3 72 -171 0 -171 0 3 -72z"/>
<path d="M1490 1135 l0 -75 165 0 165 0 0 75 0 75 -165 0 -165 0 0 -75z"/>
<path d="M227 1024 c-4 -4 -7 -38 -7 -76 l0 -68 170 0 171 0 -3 73 -3 72 -161
3 c-88 1 -163 -1 -167 -4z"/>
<path d="M1490 955 l0 -75 165 0 165 0 0 75 0 75 -165 0 -165 0 0 -75z"/>
<path d="M220 765 l0 -75 170 0 170 0 0 75 0 75 -170 0 -170 0 0 -75z"/>
<path d="M970 823 c-60 -31 -71 -67 -68 -228 l3 -140 118 -3 117 -3 0 150 c0
92 -4 160 -12 175 -24 55 -101 78 -158 49z"/>
<path d="M1490 765 l0 -75 165 0 165 0 0 75 0 75 -165 0 -165 0 0 -75z"/>
<path d="M222 553 l3 -98 165 0 165 0 3 98 3 97 -171 0 -171 0 3 -97z"/>
<path d="M1490 550 l0 -100 165 0 165 0 0 100 0 100 -165 0 -165 0 0 -100z"/>
<path d="M335 316 c-46 -33 6 -36 689 -36 365 0 671 3 680 6 21 8 21 30 0 38
-9 3 -316 6 -683 6 -549 0 -670 -2 -686 -14z"/>
</g>
</svg>
