<?xml version="1.0" standalone="no"?>
<!DOCTYPE svg PUBLIC "-//W3C//DTD SVG 20010904//EN"
 "http://www.w3.org/TR/2001/REC-SVG-20010904/DTD/svg10.dtd">
<svg version="1.0" xmlns="http://www.w3.org/2000/svg"
 width="200.000000pt" height="200.000000pt" viewBox="0 0 200.000000 200.000000"
 preserveAspectRatio="xMidYMid meet">
<metadata>
Created by potrace 1.16, written by Peter Selinger 2001-2019
</metadata>
<g transform="translate(0.000000,200.000000) scale(0.100000,-0.100000)"
fill="#000000" stroke="none">
<path d="M391 1718 c-61 -158 -63 -162 -209 -331 -89 -104 -142 -174 -138
-183 4 -10 23 -14 71 -14 l65 0 2 -397 3 -398 840 0 840 0 3 398 2 397 40 0
c26 0 43 5 46 14 4 9 -49 79 -138 183 -132 154 -148 176 -180 258 l-36 90
-601 3 -601 2 -9 -22z m1205 -92 c13 -33 24 -61 24 -63 0 -2 -56 -3 -125 -3
-106 0 -127 -3 -132 -16 -10 -27 17 -34 145 -34 l122 0 0 -58 c0 -50 -4 -62
-25 -82 -50 -47 -126 -23 -143 44 -11 42 -40 47 -48 7 -13 -63 -89 -99 -134
-63 -13 11 -29 35 -35 53 -14 41 -41 50 -50 17 -18 -65 -59 -97 -110 -84 -27
7 -65 59 -65 89 0 31 -37 20 -43 -13 -13 -60 -78 -96 -126 -67 -15 8 -32 33
-41 56 -8 23 -20 41 -27 41 -7 0 -21 -19 -31 -43 -26 -58 -68 -77 -117 -54
-26 12 -37 26 -45 57 -14 52 -36 52 -56 0 -16 -39 -54 -70 -88 -70 -8 0 -28
12 -45 26 -28 23 -31 31 -31 85 l0 59 408 0 c224 0 413 4 421 9 8 5 11 16 8
25 -6 14 -50 16 -417 16 -225 0 -410 2 -410 4 0 2 7 21 16 42 9 22 20 49 25
62 l9 22 571 -2 571 -3 24 -59z m-1256 -265 c32 -60 130 -79 193 -37 35 24 36
24 53 5 38 -43 122 -42 177 1 24 19 25 19 42 0 39 -44 132 -43 176 1 19 19 19
19 38 0 44 -44 137 -45 176 -1 16 18 20 18 34 5 9 -8 34 -21 54 -30 44 -18
102 -8 131 24 17 19 18 19 53 -5 62 -42 149 -27 188 32 9 14 20 46 23 70 l7
44 95 -112 c52 -62 97 -116 98 -120 2 -4 -93 -8 -212 -8 l-216 0 0 -395 0
-395 -130 0 -130 0 0 138 c0 111 -4 145 -19 177 -42 92 -134 127 -219 83 -79
-41 -92 -74 -92 -250 l0 -148 -130 0 -130 0 -2 393 -3 392 -237 3 c-131 1
-238 5 -238 7 0 3 44 57 98 120 l97 115 6 -44 c4 -24 12 -53 19 -65z m210
-241 l0 -70 -160 0 -160 0 0 70 0 70 160 0 160 0 0 -70z m1270 0 l0 -70 -165
0 -165 0 0 70 0 70 165 0 165 0 0 -70z m-1270 -190 l0 -70 -160 0 -160 0 0 70
0 70 160 0 160 0 0 -70z m1270 0 l0 -70 -165 0 -165 0 0 70 0 70 165 0 165 0
0 -70z m-1270 -190 l0 -70 -160 0 -160 0 0 70 0 70 160 0 160 0 0 -70z m530
55 c51 -26 60 -58 60 -215 l0 -140 -115 0 -115 0 0 149 c0 136 2 150 21 175
37 47 96 59 149 31z m740 -55 l0 -70 -165 0 -165 0 0 70 0 70 165 0 165 0 0
-70z m-1270 -210 l0 -90 -160 0 -160 0 0 90 0 90 160 0 160 0 0 -90z m1270 0
l0 -90 -165 0 -165 0 0 90 0 90 165 0 165 0 0 -90z"/>
<path d="M677 1207 c-15 -10 -17 -27 -15 -112 l3 -100 358 -3 357 -2 0 109 c0
90 -3 110 -16 115 -9 3 -163 6 -343 6 -248 0 -331 -3 -344 -13z m663 -102 l0
-65 -315 0 -315 0 0 65 0 65 315 0 315 0 0 -65z"/>
<path d="M654 906 c-8 -35 1 -56 26 -56 18 0 21 5 18 37 -4 46 -34 59 -44 19z"/>
<path d="M657 774 c-4 -4 -7 -62 -7 -129 0 -98 3 -125 15 -135 29 -24 36 3 33
136 -3 107 -6 129 -18 132 -9 1 -19 0 -23 -4z"/>
<path d="M335 297 c-47 -35 -18 -37 690 -37 603 0 694 2 699 15 3 8 -3 19 -14
25 -12 6 -254 10 -687 10 -546 0 -673 -2 -688 -13z"/>
</g>
</svg>
