<?xml version="1.0" standalone="no"?>
<!DOCTYPE svg PUBLIC "-//W3C//DTD SVG 20010904//EN"
 "http://www.w3.org/TR/2001/REC-SVG-20010904/DTD/svg10.dtd">
<svg version="1.0" xmlns="http://www.w3.org/2000/svg"
 width="200.000000pt" height="200.000000pt" viewBox="0 0 200.000000 200.000000"
 preserveAspectRatio="xMidYMid meet">
<metadata>
Created by potrace 1.16, written by Peter Selinger 2001-2019
</metadata>
<g transform="translate(0.000000,200.000000) scale(0.100000,-0.100000)"
fill="#000000" stroke="none">
<path d="M132 1695 c-23 -58 -42 -110 -42 -116 0 -5 340 -9 906 -9 892 0 905
0 899 19 -3 11 -23 62 -44 113 l-37 93 -821 3 -820 2 -41 -105z"/>
<path d="M80 1484 c0 -52 3 -59 39 -95 34 -35 44 -39 87 -39 30 0 61 7 80 19
32 20 64 74 64 111 0 33 33 21 40 -15 15 -72 66 -115 135 -115 69 0 120 43
135 115 7 36 40 48 40 15 0 -68 63 -130 133 -130 70 0 121 40 135 105 8 40 42
64 42 31 0 -9 7 -34 16 -56 37 -92 168 -109 231 -30 7 8 18 34 24 58 16 59 49
53 49 -10 0 -11 17 -38 39 -59 34 -35 44 -39 87 -39 30 0 61 7 80 19 32 20 64
74 64 111 0 33 33 21 40 -15 15 -71 66 -115 133 -115 81 0 137 58 137 143 l0
47 -915 0 -915 0 0 -56z"/>
<path d="M972 1371 c-60 -82 -209 -80 -274 2 l-16 21 -30 -32 c-36 -39 -69
-52 -129 -52 -53 0 -106 23 -134 58 l-20 25 -32 -30 c-44 -42 -69 -53 -116
-53 l-41 0 0 -65 0 -65 813 2 812 3 3 63 3 62 -42 0 c-50 0 -102 24 -130 58
l-20 25 -32 -30 c-45 -43 -69 -53 -122 -53 -59 0 -108 21 -135 58 l-23 30 -25
-30 c-33 -39 -78 -58 -137 -58 -54 0 -93 18 -128 59 l-24 29 -21 -27z"/>
<path d="M180 790 l0 -360 525 0 525 0 0 305 0 305 203 -2 202 -3 3 -302 2
-303 85 0 85 0 -2 358 -3 357 -812 3 -813 2 0 -360z m85 209 c0 -24 -5 -34
-15 -34 -16 0 -25 37 -16 62 10 26 31 8 31 -28z m633 -196 l-3 -238 -275 0
-275 0 -3 225 c-1 123 0 230 2 237 4 10 67 13 281 13 l275 0 -2 -237z m-633
-48 c0 -109 -2 -130 -15 -130 -12 0 -15 23 -18 133 -2 124 -1 133 15 130 16
-3 18 -17 18 -133z"/>
<path d="M387 1003 c-4 -3 -7 -96 -7 -205 l0 -198 110 0 110 0 0 205 0 205
-103 0 c-57 0 -107 -3 -110 -7z"/>
<path d="M647 1003 c-4 -3 -7 -96 -7 -205 l0 -198 110 0 110 0 0 205 0 205
-103 0 c-57 0 -107 -3 -110 -7z"/>
<path d="M1277 1004 c-4 -4 -7 -22 -7 -41 l0 -33 166 0 165 0 -3 38 -3 37
-156 3 c-85 1 -158 -1 -162 -4z"/>
<path d="M1270 660 l0 -230 165 0 165 0 0 230 0 230 -165 0 -165 0 0 -230z"/>
<path d="M245 239 c-4 -6 -3 -15 2 -20 5 -5 312 -8 759 -7 658 3 749 5 749 18
0 13 -91 15 -752 18 -536 1 -754 -1 -758 -9z"/>
</g>
</svg>
