<?xml version="1.0" standalone="no"?>
<!DOCTYPE svg PUBLIC "-//W3C//DTD SVG 20010904//EN"
 "http://www.w3.org/TR/2001/REC-SVG-20010904/DTD/svg10.dtd">
<svg version="1.0" xmlns="http://www.w3.org/2000/svg"
 width="200.000000pt" height="200.000000pt" viewBox="0 0 200.000000 200.000000"
 preserveAspectRatio="xMidYMid meet">
<metadata>
Created by potrace 1.16, written by Peter Selinger 2001-2019
</metadata>
<g transform="translate(0.000000,200.000000) scale(0.100000,-0.100000)"
fill="#000000" stroke="none">
<path d="M690 1820 l0 -70 303 2 302 3 0 65 0 65 -302 3 -303 2 0 -70z"/>
<path d="M870 1680 l0 -40 125 0 125 0 0 40 0 40 -125 0 -125 0 0 -40z"/>
<path d="M340 1398 l-210 -203 467 -3 468 -3 35 39 c19 21 104 114 188 205
l154 167 -446 0 -445 0 -211 -202z m296 141 c3 -6 -5 -23 -20 -37 -20 -20 -28
-24 -38 -14 -9 9 -6 17 12 37 26 28 35 31 46 14z m-89 -85 c4 -11 -21 -43 -83
-105 -81 -82 -124 -108 -124 -77 0 14 180 198 193 198 4 0 10 -7 14 -16z"/>
<path d="M1288 1375 l-198 -215 0 -430 0 -430 145 0 145 0 0 110 c0 71 5 122
14 143 30 72 121 91 175 37 30 -31 30 -31 33 -158 l3 -127 138 -3 137 -3 0
432 0 431 -132 146 c-73 80 -162 176 -198 214 l-65 69 -197 -216z m358 -58
c129 -147 154 -184 129 -189 -5 -1 -70 65 -144 148 -73 82 -137 150 -140 152
-4 1 -67 -63 -140 -143 -85 -92 -141 -145 -154 -145 -13 0 -17 5 -13 16 12 31
291 323 307 321 9 -1 79 -73 155 -160z m-75 -266 l29 -29 0 -147 0 -146 -107
3 -108 3 -3 115 c-4 130 7 180 45 209 40 33 107 29 144 -8z m-286 -31 c0 -11
-13 -16 -44 -18 -45 -3 -68 8 -56 28 11 17 100 9 100 -10z m515 0 c0 -17 -7
-20 -44 -20 -45 0 -63 11 -51 30 3 6 26 10 51 10 37 0 44 -3 44 -20z m-515
-110 c0 -11 -13 -16 -44 -18 -45 -3 -68 8 -56 28 11 17 100 9 100 -10z m513
-2 c3 -15 -4 -18 -42 -18 -25 0 -48 5 -51 10 -12 20 7 31 48 28 30 -2 43 -8
45 -20z m-513 -118 c0 -11 -13 -16 -44 -18 -45 -3 -68 8 -56 28 11 17 100 9
100 -10z m513 3 c-4 -20 -74 -31 -90 -15 -18 18 3 32 48 32 38 0 45 -3 42 -17z"/>
<path d="M1462 1040 c-33 -14 -42 -49 -42 -166 l0 -104 75 0 75 0 0 99 c0 113
-11 154 -46 170 -29 13 -31 13 -62 1z"/>
<path d="M195 1137 c-3 -6 -4 -197 -3 -422 l3 -410 150 0 150 0 5 136 c6 154
12 170 80 190 28 9 43 8 71 -4 56 -23 69 -63 69 -206 l0 -121 163 2 162 3 3
423 2 422 -425 0 c-331 0 -427 -3 -430 -13z m750 -192 l0 -100 -337 -3 -338
-2 0 105 0 105 338 -2 337 -3 0 -100z m-537 -327 c3 -15 -4 -18 -47 -18 -36 0
-51 4 -51 13 0 23 12 28 55 25 29 -2 41 -8 43 -20z m521 9 c16 -20 4 -27 -45
-27 -43 0 -61 11 -49 30 9 15 81 12 94 -3z m-521 -124 c-5 -26 -91 -26 -96 0
-3 14 4 17 48 17 44 0 51 -3 48 -17z m520 0 c-4 -20 -74 -31 -90 -15 -18 18 3
32 48 32 38 0 45 -3 42 -17z m-520 -115 c3 -15 -4 -18 -47 -18 -36 0 -51 4
-51 13 0 23 12 28 55 25 29 -2 41 -8 43 -20z m521 9 c16 -20 4 -27 -45 -27
-43 0 -61 11 -49 30 9 15 81 12 94 -3z"/>
<path d="M302 948 l3 -63 303 -3 302 -2 0 65 0 65 -305 0 -306 0 3 -62z"/>
<path d="M562 577 c-20 -21 -22 -34 -22 -150 l0 -127 70 0 70 0 0 125 c0 120
-1 127 -25 150 -30 31 -65 32 -93 2z"/>
<path d="M1446 564 c-23 -23 -27 -48 -24 -159 l3 -100 70 0 70 0 0 116 c0 101
-3 120 -19 138 -23 25 -77 28 -100 5z"/>
<path d="M272 143 c3 -17 47 -18 763 -18 716 0 760 1 763 18 3 16 -38 17 -763
17 -725 0 -766 -1 -763 -17z"/>
</g>
</svg>
