<?xml version="1.0" standalone="no"?>
<!DOCTYPE svg PUBLIC "-//W3C//DTD SVG 20010904//EN"
 "http://www.w3.org/TR/2001/REC-SVG-20010904/DTD/svg10.dtd">
<svg version="1.0" xmlns="http://www.w3.org/2000/svg"
 width="200.000000pt" height="200.000000pt" viewBox="0 0 200.000000 200.000000"
 preserveAspectRatio="xMidYMid meet">
<metadata>
Created by potrace 1.16, written by Peter Selinger 2001-2019
</metadata>
<g transform="translate(0.000000,200.000000) scale(0.100000,-0.100000)"
fill="#000000" stroke="none">
<path d="M535 1793 c-11 -3 -30 -14 -42 -26 -20 -18 -23 -29 -21 -96 l1 -76 6
73 c8 102 21 112 150 112 128 0 142 -11 139 -108 -1 -41 -3 -53 -5 -29 -3 27
-9 37 -22 37 -9 0 -27 11 -39 25 -27 31 -36 31 -50 1 -8 -18 -20 -24 -57 -28
-53 -6 -81 -28 -90 -68 -3 -16 -13 -31 -21 -34 -19 -7 -18 -60 1 -76 19 -16
21 -139 3 -162 -7 -9 -47 -30 -89 -47 -42 -17 -88 -44 -102 -59 -16 -16 -59
-108 -107 -225 -89 -220 -98 -270 -59 -333 37 -60 71 -76 188 -89 78 -9 93
-13 55 -14 -87 -2 -94 -13 -115 -182 -10 -79 -18 -152 -19 -161 0 -17 21 -18
301 -18 l301 0 -6 27 c-19 101 -18 160 7 239 24 77 45 188 50 268 l2 40 30
-48 c30 -48 78 -86 110 -86 9 0 15 -3 13 -7 -2 -5 -25 -51 -51 -103 -56 -112
-79 -185 -75 -237 l3 -38 345 0 345 0 0 115 c0 81 4 117 12 123 7 4 69 80 138
168 108 140 125 166 125 198 -1 32 -17 55 -141 201 -178 210 -163 195 -180
174 -12 -16 -12 -17 2 -12 12 5 49 -32 140 -140 157 -185 169 -201 169 -227 0
-12 -55 -92 -126 -183 l-125 -162 -66 -20 c-80 -25 -115 -25 -136 -2 -16 18
-157 435 -157 465 0 9 10 23 22 31 18 13 25 13 34 3 6 -6 68 -106 139 -222
140 -231 133 -220 140 -214 2 3 -57 106 -132 230 -75 123 -136 230 -136 237 0
18 -8 15 -51 -21 l-38 -33 76 -239 c78 -244 94 -275 138 -275 11 0 45 7 75 16
30 9 57 13 61 10 3 -4 6 -50 6 -104 l1 -97 -332 -3 c-263 -2 -333 0 -334 10
-5 64 23 147 100 293 51 96 57 113 46 129 -8 10 -26 48 -42 84 -15 37 -32 69
-38 71 -5 2 -22 17 -37 32 -53 52 -34 130 52 214 47 47 49 50 43 92 l-6 43 86
0 c96 0 104 -6 92 -73 -6 -29 -3 -37 16 -51 13 -9 33 -16 45 -16 14 0 31 -15
52 -50 18 -29 39 -50 48 -50 15 0 13 5 -8 28 -14 15 -33 38 -42 52 -15 25 -15
26 15 44 16 10 41 34 54 54 36 55 51 72 63 72 6 0 29 -21 51 -47 22 -26 43
-44 47 -41 3 4 -19 32 -50 63 -34 35 -56 65 -56 78 0 28 -26 67 -44 67 -8 0
-17 11 -20 25 -4 16 -19 30 -41 39 -38 16 -44 38 -20 70 8 11 15 28 15 38 0
20 -47 48 -81 48 -19 0 -20 4 -15 34 4 18 4 41 0 50 -8 20 -78 40 -116 32 -23
-5 -28 -2 -28 14 0 25 -33 27 -58 2 -9 -9 -32 -28 -50 -40 -17 -13 -32 -30
-32 -37 0 -8 -12 -26 -26 -40 -26 -26 -28 -48 -9 -97 5 -13 -2 -21 -29 -32
-44 -18 -45 -31 -5 -72 l30 -31 -41 -7 c-22 -3 -43 -13 -46 -21 -3 -7 -12 -11
-20 -8 -9 3 -27 -6 -43 -21 -26 -25 -31 -26 -50 -14 -11 7 -24 28 -27 46 -5
27 -2 38 20 61 14 15 26 36 26 47 0 11 9 27 20 36 18 16 19 26 13 120 -7 124
-19 153 -71 167 -37 11 -149 13 -187 4z m570 -82 c5 -15 13 -18 50 -14 24 3
56 2 70 -1 25 -6 26 -10 23 -54 l-3 -47 47 -15 c60 -19 63 -23 43 -53 -22 -35
-16 -79 13 -93 45 -22 49 -33 22 -54 -14 -11 -37 -22 -53 -25 -29 -7 -48 -32
-45 -62 5 -65 -13 -99 -26 -48 -4 16 -13 25 -26 25 -17 0 -20 7 -22 43 -4 85
-1 98 32 126 43 35 40 75 -6 79 -36 4 -64 30 -97 92 -28 53 -39 58 -67 28 -50
-54 -64 -201 -23 -256 26 -35 37 -112 17 -112 -12 0 -13 -10 -8 -50 6 -44 4
-52 -16 -68 -23 -19 -24 -19 -52 13 -15 18 -28 44 -28 59 0 18 -8 30 -27 40
-71 37 -77 84 -14 97 53 11 58 24 23 58 -40 36 -40 48 -1 56 31 7 31 7 25 59
-6 47 -4 54 19 76 14 13 25 32 25 41 0 10 13 25 28 33 16 8 34 22 41 30 18 21
28 20 36 -3z m-372 -51 c15 0 17 -12 17 -99 0 -84 -3 -102 -21 -125 -18 -23
-27 -26 -85 -26 -36 0 -64 -4 -64 -10 0 -5 24 -10 53 -10 52 0 54 -1 64 -34 9
-31 8 -37 -12 -56 l-22 -21 -77 38 -76 37 0 77 c0 59 -3 78 -15 83 -22 8 -18
44 5 51 12 4 20 15 20 28 0 41 27 67 71 67 29 0 46 6 62 23 l22 24 20 -24 c12
-12 28 -23 38 -23z m382 -57 c11 -21 21 -41 23 -45 2 -5 -4 -8 -13 -8 -12 0
-15 -5 -11 -16 3 -9 6 -23 6 -32 0 -14 2 -15 9 -2 6 8 7 18 5 22 -10 15 26 8
58 -12 18 -11 27 -20 21 -20 -7 0 -13 -7 -13 -16 0 -14 3 -14 15 -4 30 25 27
0 -4 -29 -37 -34 -37 -36 -27 -119 l7 -53 -53 3 c-49 3 -53 5 -56 30 -3 22 0
26 17 21 16 -4 11 5 -18 34 -43 43 -65 102 -55 151 7 35 24 34 25 -1 l0 -22 9
23 c5 12 14 22 20 22 6 0 8 5 5 10 -3 6 -15 10 -26 10 -10 0 -19 6 -19 13 0
16 38 77 48 77 5 0 17 -17 27 -37z m-335 -53 c0 -16 -4 -32 -10 -35 -6 -4 -10
10 -10 35 0 25 4 39 10 35 6 -3 10 -19 10 -35z m654 -193 c18 -13 24 -57 12
-95 l-7 -22 -26 20 c-33 26 -63 25 -97 -1 -21 -17 -26 -18 -26 -5 0 29 39 58
71 54 16 -3 29 -1 29 4 0 11 -58 10 -81 -2 -15 -8 -19 -7 -19 4 0 44 121 25
139 -22 10 -26 10 -26 8 -2 -1 15 -15 33 -34 46 -18 12 -29 24 -26 28 10 10
38 7 57 -7z m-850 -57 c63 -29 66 -32 66 -65 0 -19 -2 -35 -6 -35 -10 0 -144
112 -144 121 0 14 13 11 84 -21z m256 21 c0 -10 -89 -81 -102 -81 -17 0 -7 16
34 52 41 36 68 47 68 29z m-191 -141 c6 0 11 11 11 25 0 14 4 25 9 25 9 0 46
-119 61 -199 13 -69 13 -243 0 -311 -9 -49 -7 -71 5 -58 3 2 10 50 17 106 13
113 3 246 -28 357 -9 33 -22 80 -29 105 -11 38 -10 48 2 62 12 13 18 14 28 5
8 -7 10 -16 4 -21 -15 -16 -11 -34 14 -62 38 -46 48 -54 62 -54 21 0 32 -26
48 -115 24 -127 30 -251 18 -355 -14 -111 -54 -269 -59 -230 -11 83 -38 110
-112 110 -38 0 -40 2 -40 29 0 17 -4 32 -9 35 -6 4 -5 21 1 43 19 69 -11 163
-52 163 -17 0 -19 5 -14 25 5 22 3 25 -21 25 -45 0 -131 -58 -160 -109 -28
-49 -27 -39 4 49 23 66 37 160 23 160 -5 0 -12 -27 -15 -59 -4 -32 -16 -84
-27 -115 l-21 -56 -67 0 c-81 0 -142 -9 -142 -21 0 -5 19 -6 42 -2 46 9 145 9
153 2 2 -3 -1 -22 -7 -43 -9 -28 -9 -45 0 -68 l11 -30 -69 4 c-100 5 -157 53
-167 141 -5 39 5 70 72 238 43 107 90 210 105 229 19 25 49 43 105 66 l79 31
77 -63 c42 -35 82 -64 88 -64z m211 111 c0 -15 -90 -85 -98 -76 -4 4 13 25 38
46 46 39 60 47 60 30z m30 -30 c0 -11 -85 -81 -99 -81 -20 0 -11 14 32 52 41
36 67 47 67 29z m518 -13 c5 -7 6 -22 2 -33 -9 -23 -58 -75 -71 -75 -14 0 -10
34 7 58 15 22 15 23 -10 16 -20 -5 -26 -2 -26 9 0 32 76 51 98 25z m-470 -21
c2 -11 -1 -15 -11 -11 -8 3 -28 -6 -45 -20 -16 -15 -38 -26 -48 -26 -14 0 -7
11 26 40 47 41 72 47 78 17z m369 -25 c6 -10 9 -31 6 -46 -5 -22 -10 -27 -32
-24 -32 4 -41 41 -15 69 21 24 26 24 41 1z m-334 -54 l26 -32 -24 -28 c-33
-39 -59 -112 -51 -144 4 -15 27 -46 52 -70 24 -24 44 -48 44 -54 0 -6 13 -38
30 -71 35 -71 31 -94 -14 -85 -75 15 -134 113 -147 244 -5 48 -16 120 -25 161
l-16 75 33 27 c38 31 53 28 92 -23z m-403 -281 c0 -8 -16 -30 -37 -50 -41 -42
-27 -50 19 -12 16 14 36 25 43 25 20 0 29 -20 16 -33 -18 -18 -13 -29 9 -17
16 9 20 8 20 -5 0 -9 -7 -18 -15 -21 -8 -4 -15 -10 -15 -15 0 -4 7 -6 15 -3
20 8 19 -5 -2 -28 -15 -17 -15 -18 0 -18 21 0 22 -19 2 -26 -8 -4 -15 -15 -15
-26 0 -13 5 -18 14 -15 14 6 26 -12 26 -39 0 -9 -11 -14 -30 -14 -27 0 -30 2
-24 25 11 42 -6 176 -22 182 -8 3 -18 2 -22 -2 -4 -4 -1 -10 6 -12 6 -3 12
-11 12 -18 0 -7 -6 -16 -12 -18 -8 -3 -6 -6 5 -6 19 -1 24 -31 5 -31 -9 0 -9
-3 0 -12 17 -17 15 -28 -5 -28 -17 -1 -17 -1 0 -14 9 -7 17 -25 17 -40 0 -26
-1 -26 -72 -25 -79 0 -70 17 10 18 23 1 42 5 42 10 0 5 -38 6 -85 3 -98 -6
-115 3 -115 55 0 39 16 76 30 68 4 -3 13 10 19 28 14 40 40 66 101 101 51 29
60 31 60 13z m0 -343 c0 -14 4 -23 10 -19 6 3 10 15 10 26 0 16 7 19 45 19 29
0 45 -4 45 -12 0 -7 -13 -80 -28 -163 l-29 -150 -181 -3 c-179 -2 -182 -2
-182 19 0 71 33 276 47 291 14 15 34 18 140 18 l123 0 0 -26z m203 9 c10 -12
21 -63 31 -155 9 -75 16 -142 16 -148 0 -6 -34 -10 -90 -10 -49 0 -90 2 -90 3
0 6 50 281 55 305 7 28 54 31 78 5z"/>
<path d="M575 1620 c-4 -6 7 -10 25 -10 18 0 29 4 25 10 -3 6 -15 10 -25 10
-10 0 -22 -4 -25 -10z"/>
<path d="M675 1620 c-4 -6 7 -10 25 -10 18 0 29 4 25 10 -3 6 -15 10 -25 10
-10 0 -22 -4 -25 -10z"/>
<path d="M594 1579 c-3 -6 -1 -16 5 -22 8 -8 11 -5 11 11 0 24 -5 28 -16 11z"/>
<path d="M702 1570 c0 -14 2 -19 5 -12 2 6 2 18 0 25 -3 6 -5 1 -5 -13z"/>
<path d="M640 1575 c0 -2 5 -16 12 -30 10 -22 9 -28 -2 -35 -8 -5 -11 -12 -7
-16 4 -4 12 -3 18 3 13 13 3 83 -11 83 -6 0 -10 -2 -10 -5z"/>
<path d="M647 1462 c-15 -2 -25 -8 -22 -13 8 -12 42 -11 50 2 9 14 5 15 -28
11z"/>
<path d="M1076 1468 c-8 -32 -8 -35 7 -41 9 -3 13 5 13 29 0 39 -11 45 -20 12z"/>
<path d="M1136 1415 c-3 -8 -13 -15 -21 -15 -9 0 -13 -5 -10 -10 4 -7 12 -7
24 0 20 10 36 40 22 40 -5 0 -11 -7 -15 -15z"/>
<path d="M1446 1144 c-56 -47 -80 -83 -28 -45 58 43 97 80 91 85 -3 4 -32 -14
-63 -40z"/>
</g>
</svg>
