<?xml version="1.0" standalone="no"?>
<!DOCTYPE svg PUBLIC "-//W3C//DTD SVG 20010904//EN"
 "http://www.w3.org/TR/2001/REC-SVG-20010904/DTD/svg10.dtd">
<svg version="1.0" xmlns="http://www.w3.org/2000/svg"
 width="200.000000pt" height="200.000000pt" viewBox="0 0 200.000000 200.000000"
 preserveAspectRatio="xMidYMid meet">
<metadata>
Created by potrace 1.16, written by Peter Selinger 2001-2019
</metadata>
<g transform="translate(0.000000,200.000000) scale(0.100000,-0.100000)"
fill="#000000" stroke="none">
<path d="M743 1946 c-132 -43 -212 -148 -213 -278 l0 -68 -135 0 c-130 0 -137
-1 -160 -24 -30 -30 -29 -17 -59 -661 -26 -554 -25 -596 14 -643 40 -48 63
-51 426 -52 476 -1 444 -3 451 16 16 41 -12 44 -410 44 -252 0 -385 4 -399 11
-11 6 -26 26 -34 45 -13 31 -12 96 11 572 13 295 28 557 32 582 l8 45 128 3
127 3 0 -52 c0 -47 -4 -55 -32 -79 -29 -24 -32 -33 -36 -94 -2 -37 0 -72 5
-77 10 -10 170 -15 179 -6 4 3 6 36 6 74 -1 63 -3 70 -31 95 -28 25 -31 34
-31 83 l0 55 245 0 245 0 0 -58 c0 -47 -4 -59 -21 -70 -27 -17 -49 -71 -49
-119 0 -61 6 -64 105 -61 l89 3 8 30 c13 51 -2 107 -39 142 -29 28 -33 38 -33
82 l0 51 124 0 123 0 7 -46 c3 -26 6 -80 6 -120 0 -92 4 -102 37 -96 l26 5 -7
131 c-9 185 -4 180 -180 184 l-136 3 0 54 c0 114 -70 224 -175 275 -60 29
-159 36 -222 16z m192 -67 c56 -27 120 -96 134 -145 6 -22 11 -60 11 -86 l0
-48 -245 0 -245 0 0 50 c0 62 32 148 68 183 69 66 191 86 277 46z m-357 -521
c7 -7 12 -25 12 -40 0 -25 -3 -28 -35 -28 -32 0 -35 3 -35 28 0 29 16 52 35
52 6 0 16 -5 23 -12z m560 0 c7 -7 12 -25 12 -40 0 -26 -3 -28 -41 -28 -41 0
-41 0 -35 32 9 45 39 61 64 36z"/>
<path d="M1425 1200 c-72 -28 -119 -71 -154 -142 -61 -121 -35 -258 63 -345
113 -99 273 -98 385 3 26 24 51 41 55 37 3 -3 6 -22 6 -42 0 -46 -120 -393
-134 -388 -6 3 -97 33 -203 67 -157 52 -193 67 -197 84 -3 12 -40 68 -82 126
-110 151 -175 251 -168 261 12 20 35 5 111 -73 57 -57 85 -79 97 -75 30 12 16
39 -56 116 -81 86 -101 100 -141 101 -32 0 -77 -39 -77 -67 0 -26 55 -115 165
-270 l94 -133 -24 -55 c-55 -124 -54 -189 5 -238 31 -26 320 -127 365 -127 39
0 80 28 103 69 11 20 61 153 112 296 100 284 108 328 72 387 -18 29 -20 40
-11 78 49 217 -177 410 -386 330z m221 -75 c103 -60 141 -194 85 -303 -25 -48
-55 -76 -111 -101 -151 -69 -320 42 -320 209 0 32 8 72 19 96 22 49 90 109
139 123 58 16 137 6 188 -24z m-203 -797 l188 -63 -5 -28 c-12 -60 -44 -117
-73 -128 -24 -9 -49 -4 -173 37 -166 54 -186 65 -195 103 -8 38 31 141 53 141
9 0 101 -28 205 -62z"/>
<path d="M1480 1049 c-41 -22 -63 -59 -54 -93 9 -38 35 -54 88 -58 57 -3 72
-23 26 -33 -22 -5 -36 -2 -49 9 -27 25 -61 21 -61 -7 0 -25 28 -57 49 -57 6 0
14 -6 17 -14 9 -24 34 -27 51 -6 10 11 23 20 30 20 25 0 53 39 53 74 0 43 -38
73 -98 78 -23 2 -43 8 -45 13 -4 17 60 17 86 1 20 -14 26 -14 43 -2 19 14 19
15 -2 43 -12 15 -31 29 -43 31 -11 2 -21 8 -21 13 0 14 -31 9 -70 -12z"/>
<path d="M457 966 c-3 -8 35 -101 86 -206 70 -147 96 -194 115 -201 13 -5 85
-9 161 -9 126 0 140 2 156 20 33 37 8 45 -155 49 l-148 3 -69 146 c-37 80 -75
160 -83 176 -16 33 -54 47 -63 22z"/>
</g>
</svg>
