<?xml version="1.0" standalone="no"?>
<!DOCTYPE svg PUBLIC "-//W3C//DTD SVG 20010904//EN"
 "http://www.w3.org/TR/2001/REC-SVG-20010904/DTD/svg10.dtd">
<svg version="1.0" xmlns="http://www.w3.org/2000/svg"
 width="200.000000pt" height="200.000000pt" viewBox="0 0 200.000000 200.000000"
 preserveAspectRatio="xMidYMid meet">
<metadata>
Created by potrace 1.16, written by Peter Selinger 2001-2019
</metadata>
<g transform="translate(0.000000,200.000000) scale(0.100000,-0.100000)"
fill="#000000" stroke="none">
<path d="M211 1954 c-27 -22 -31 -32 -31 -75 l0 -49 -43 0 c-24 0 -48 -5 -55
-12 -15 -15 -17 -565 -2 -619 6 -20 19 -44 30 -54 19 -17 20 -31 20 -311 l0
-293 -52 -3 -53 -3 -3 -83 c-2 -53 1 -89 9 -98 10 -12 94 -14 508 -14 l496 0
23 -50 c13 -28 50 -79 82 -114 265 -283 726 -159 825 220 61 234 -83 492 -320
574 -32 11 -78 20 -102 20 l-43 0 0 67 c0 47 5 72 16 84 38 42 43 85 44 380 0
209 -3 288 -12 297 -7 7 -31 12 -55 12 l-43 0 0 49 c0 43 -4 53 -31 75 l-31
26 -573 0 -573 0 -31 -26z m1174 -164 l0 -125 -570 0 -570 0 -3 114 c-1 63 0
121 2 128 4 11 110 13 573 11 l568 -3 0 -125z m-1207 -82 c3 -49 7 -60 33 -83
25 -21 41 -25 90 -25 l59 0 0 -160 0 -160 -115 0 -115 0 0 246 0 245 23 -3
c19 -3 22 -10 25 -60z m1322 -183 l0 -245 -115 0 -115 0 0 160 0 160 59 0 c49
0 65 4 90 26 28 23 31 31 31 85 0 56 1 59 25 59 l25 0 0 -245z m-860 -85 l0
-160 -110 0 -110 0 0 160 0 160 110 0 110 0 0 -160z m290 0 l0 -160 -115 0
-115 0 0 160 0 160 115 0 115 0 0 -160z m280 0 l0 -160 -110 0 -110 0 0 160 0
160 110 0 110 0 0 -160z m-860 -231 c0 -6 -13 -24 -29 -40 -24 -24 -38 -29
-76 -29 -38 0 -52 5 -76 29 -16 16 -29 34 -29 40 0 7 37 11 105 11 68 0 105
-4 105 -11z m280 -8 c-18 -35 -61 -61 -100 -61 -39 0 -82 26 -100 61 -10 18
-6 19 100 19 106 0 110 -1 100 -19z m290 8 c0 -6 -13 -24 -29 -40 -24 -24 -38
-29 -76 -29 -38 0 -52 5 -76 29 -16 16 -29 34 -29 40 0 7 37 11 105 11 68 0
105 -4 105 -11z m280 -8 c-18 -35 -61 -61 -100 -61 -39 0 -82 26 -100 61 -10
18 -6 19 100 19 106 0 110 -1 100 -19z m290 8 c0 -6 -13 -24 -29 -40 -24 -24
-38 -29 -76 -29 -38 0 -52 5 -76 29 -16 16 -29 34 -29 40 0 7 37 11 105 11 68
0 105 -4 105 -11z m-1027 -118 c63 -24 140 -8 193 40 20 19 21 19 40 -2 59
-65 180 -65 238 0 l19 21 26 -24 c33 -31 72 -46 122 -46 42 0 106 27 128 54
12 14 17 13 47 -14 40 -35 69 -44 124 -38 l40 4 0 -47 0 -46 -54 -11 c-181
-36 -352 -216 -373 -390 l-6 -52 -53 0 -54 0 -2 238 -3 237 -299 3 c-212 2
-303 -1 -312 -9 -11 -9 -14 -59 -14 -241 l0 -229 -37 3 -38 3 -3 270 -2 271
39 -4 c51 -5 102 12 131 43 l24 25 25 -24 c14 -14 39 -30 54 -35z m97 -341 l0
-210 -115 0 -115 0 0 210 0 210 115 0 115 0 0 -210z m280 0 c0 -199 -1 -210
-19 -210 -28 0 -47 -26 -31 -45 10 -12 36 -15 116 -15 l104 0 0 -40 0 -40
-465 0 -465 0 0 40 0 40 313 2 312 3 0 25 c0 22 -5 25 -42 28 l-43 3 0 210 0
209 110 0 110 0 0 -210z m830 144 c90 -43 150 -100 193 -182 89 -169 66 -358
-59 -493 -210 -224 -565 -168 -698 111 -29 61 -31 72 -31 180 0 104 3 121 27
172 30 65 103 148 163 186 74 48 131 62 240 59 89 -2 107 -6 165 -33z"/>
<path d="M1400 827 c-48 -13 -121 -59 -157 -98 -12 -13 -34 -49 -49 -79 -25
-47 -29 -67 -29 -140 0 -73 4 -93 28 -142 35 -72 116 -147 185 -172 73 -26
189 -20 257 14 63 31 124 92 156 155 20 43 24 64 24 145 0 83 -4 101 -27 145
-32 62 -104 130 -164 156 -56 25 -165 33 -224 16z m182 -64 c107 -41 168 -122
176 -234 11 -164 -105 -289 -268 -289 -107 1 -189 50 -238 144 -35 68 -38 180
-5 241 66 124 215 185 335 138z"/>
<path d="M1465 697 c-5 -19 -16 -27 -41 -31 -41 -8 -64 -39 -64 -87 0 -56 24
-76 115 -97 74 -17 80 -21 83 -45 3 -27 3 -27 -63 -27 -57 0 -69 3 -85 22 -15
19 -20 20 -34 9 -37 -30 -1 -91 54 -91 23 0 30 -5 30 -19 0 -10 6 -24 14 -30
20 -17 46 -3 46 25 0 21 5 24 33 24 48 0 67 25 67 88 0 64 -14 75 -121 98 -76
16 -79 18 -79 45 l0 29 69 0 c61 0 70 -3 76 -20 4 -13 15 -20 31 -20 20 0 24
5 24 28 0 15 -4 32 -8 38 -10 16 -48 34 -71 34 -13 0 -21 8 -23 23 -5 33 -45
36 -53 4z"/>
</g>
</svg>
