<?xml version="1.0" standalone="no"?>
<!DOCTYPE svg PUBLIC "-//W3C//DTD SVG 20010904//EN"
 "http://www.w3.org/TR/2001/REC-SVG-20010904/DTD/svg10.dtd">
<svg version="1.0" xmlns="http://www.w3.org/2000/svg"
 width="200.000000pt" height="200.000000pt" viewBox="0 0 200.000000 200.000000"
 preserveAspectRatio="xMidYMid meet">
<metadata>
Created by potrace 1.16, written by Peter Selinger 2001-2019
</metadata>
<g transform="translate(0.000000,200.000000) scale(0.100000,-0.100000)"
fill="#000000" stroke="none">
<path d="M287 1837 c-13 -12 -44 -82 -72 -161 -53 -150 -53 -159 2 -186 l30
-15 -50 -208 -49 -209 37 -38 c20 -21 55 -46 76 -55 l39 -18 0 -379 0 -378
-115 0 -115 0 0 75 c0 60 -3 77 -16 82 -9 3 -20 0 -25 -8 -10 -16 -12 -159 -3
-183 6 -14 100 -16 968 -16 735 0 965 3 974 12 14 14 16 166 3 187 -5 8 -16
11 -25 8 -13 -5 -16 -22 -16 -82 l0 -75 -115 0 -115 0 0 379 0 379 38 23 c61
37 92 70 92 100 0 16 -20 112 -45 214 -25 103 -42 191 -39 196 3 5 13 9 23 9
24 0 44 24 43 53 0 38 -93 281 -114 300 -19 16 -67 17 -705 17 l-684 0 -22
-23z m1434 -161 c26 -72 46 -133 43 -138 -6 -10 -1544 -11 -1544 0 0 4 21 67
47 140 l47 132 679 -2 680 -3 48 -129z m-27 -213 c3 -10 23 -97 46 -193 22
-96 43 -181 45 -187 6 -18 -43 -61 -92 -79 -29 -11 -63 -15 -107 -12 -55 3
-73 10 -119 41 -63 44 -76 45 -115 12 -46 -38 -95 -55 -162 -55 -64 0 -103 14
-153 56 -16 13 -33 24 -40 24 -6 0 -35 -17 -64 -37 -46 -31 -64 -38 -118 -41
-81 -5 -101 0 -165 43 -61 41 -73 43 -114 11 -82 -62 -180 -75 -262 -36 -83
41 -82 33 -29 257 26 109 50 201 52 206 2 4 316 7 698 7 652 0 694 -1 699 -17z
m-1064 -472 c98 -71 252 -66 337 11 l21 20 44 -29 c108 -74 228 -71 338 7 l29
20 45 -31 c56 -37 95 -49 163 -49 l53 0 0 -375 0 -375 -375 0 -375 0 0 40 0
40 328 0 c242 0 331 3 340 12 9 9 12 86 12 285 0 259 -1 273 -19 283 -13 6
-210 10 -570 10 -486 0 -551 -2 -565 -16 -14 -13 -16 -58 -16 -335 l0 -319
-40 0 -40 0 0 375 0 375 53 0 c55 0 140 33 166 63 18 23 25 22 71 -12z m230
-491 l0 -310 -195 0 -195 0 0 310 0 310 195 0 195 0 0 -310z m690 65 l0 -245
-320 0 -320 0 0 245 0 245 320 0 320 0 0 -245z"/>
<path d="M1023 704 c-10 -28 18 -34 170 -34 l147 0 0 -50 c0 -42 3 -50 19 -50
10 0 22 7 25 16 10 27 6 110 -6 122 -8 8 -63 12 -180 12 -145 0 -169 -2 -175
-16z"/>
<path d="M1023 504 c-10 -28 18 -34 170 -34 l147 0 0 -45 c0 -33 5 -47 16 -52
22 -8 34 14 34 69 0 82 9 78 -186 78 -151 0 -175 -2 -181 -16z"/>
</g>
</svg>
