<?xml version="1.0" standalone="no"?>
<!DOCTYPE svg PUBLIC "-//W3C//DTD SVG 20010904//EN"
 "http://www.w3.org/TR/2001/REC-SVG-20010904/DTD/svg10.dtd">
<svg version="1.0" xmlns="http://www.w3.org/2000/svg"
 width="200.000000pt" height="200.000000pt" viewBox="0 0 200.000000 200.000000"
 preserveAspectRatio="xMidYMid meet">
<metadata>
Created by potrace 1.16, written by Peter Selinger 2001-2019
</metadata>
<g transform="translate(0.000000,200.000000) scale(0.100000,-0.100000)"
fill="#000000" stroke="none">
<path d="M305 1840 c-12 -19 -95 -253 -95 -267 0 -11 144 -13 779 -13 429 0
782 4 785 9 3 4 -16 68 -43 142 l-48 134 -686 3 c-470 1 -688 -1 -692 -8z"/>
<path d="M285 1508 c-2 -7 -25 -104 -51 -215 l-48 -202 25 -21 c87 -76 205
-80 303 -9 52 38 76 36 137 -6 89 -61 185 -62 273 -1 62 43 77 44 120 11 95
-72 211 -74 297 -5 46 37 80 38 125 4 75 -58 167 -69 249 -30 92 43 90 34 39
251 -24 105 -48 200 -54 213 l-10 22 -700 0 c-552 0 -701 -3 -705 -12z"/>
<path d="M542 1021 c-39 -33 -118 -61 -173 -61 l-39 0 0 -380 0 -380 -135 0
-135 0 0 73 c0 74 -11 100 -36 90 -22 -8 -20 -199 2 -207 20 -8 1928 -8 1948
0 22 8 24 199 2 207 -25 10 -36 -16 -36 -90 l0 -73 -135 0 -135 0 0 380 0 380
-50 0 c-58 0 -137 27 -185 64 -26 20 -35 23 -44 12 -24 -29 -111 -66 -167 -72
-83 -9 -132 7 -214 67 -12 8 -28 3 -73 -25 -74 -44 -140 -54 -221 -32 -32 8
-76 29 -97 45 -21 17 -39 31 -41 31 -2 -1 -18 -14 -36 -29z m1046 -153 c9 -9
12 -85 12 -282 0 -237 -2 -272 -17 -288 -15 -17 -39 -18 -350 -18 l-333 0 0
-40 c0 -33 -3 -40 -20 -40 -19 0 -20 8 -22 318 l-3 317 -195 0 -195 0 -3 -318
-2 -318 -23 3 -22 3 -3 311 c-1 189 2 322 8 338 l10 26 573 0 c432 0 576 -3
585 -12z"/>
<path d="M907 833 c-4 -3 -7 -118 -7 -255 l0 -248 328 2 327 3 0 250 0 250
-321 3 c-176 1 -323 -1 -327 -5z m481 -171 c3 -72 2 -73 -20 -70 -20 3 -23 10
-26 51 l-3 47 -147 0 c-151 0 -179 6 -169 34 6 15 28 16 184 14 l178 -3 3 -73z
m0 -196 c3 -74 -7 -98 -33 -76 -9 8 -15 29 -15 56 l0 44 -154 0 c-155 0 -174
4 -162 36 5 12 34 14 183 12 l178 -3 3 -69z"/>
</g>
</svg>
