<?xml version="1.0" standalone="no"?>
<!DOCTYPE svg PUBLIC "-//W3C//DTD SVG 20010904//EN"
 "http://www.w3.org/TR/2001/REC-SVG-20010904/DTD/svg10.dtd">
<svg version="1.0" xmlns="http://www.w3.org/2000/svg"
 width="200.000000pt" height="200.000000pt" viewBox="0 0 200.000000 200.000000"
 preserveAspectRatio="xMidYMid meet">
<metadata>
Created by potrace 1.16, written by Peter Selinger 2001-2019
</metadata>
<g transform="translate(0.000000,200.000000) scale(0.100000,-0.100000)"
fill="#000000" stroke="none">
<path d="M248 1873 c-8 -10 -43 -148 -77 -307 -69 -315 -69 -330 -26 -425 l25
-53 0 -418 c0 -272 4 -429 11 -447 14 -38 57 -83 96 -99 26 -11 158 -14 715
-14 417 0 697 4 718 10 41 11 94 61 109 103 7 18 11 176 11 446 l0 419 25 54
c44 95 42 115 -28 437 -39 180 -70 296 -78 302 -8 5 -342 9 -750 9 -689 0
-737 -1 -751 -17z m1495 -340 c63 -297 63 -304 7 -381 -44 -61 -112 -92 -199
-92 -61 0 -74 4 -117 33 -56 37 -82 77 -103 160 -28 107 -77 105 -99 -4 -15
-77 -48 -129 -104 -166 -33 -23 -55 -28 -114 -31 -86 -5 -144 17 -193 74 -30
33 -61 116 -61 161 0 16 -9 27 -26 35 -23 11 -29 10 -45 -11 -11 -13 -19 -35
-19 -49 0 -40 -38 -109 -81 -145 -127 -109 -318 -55 -375 105 -14 42 -13 51
42 310 l57 268 687 0 686 0 57 -267z m-998 -453 c25 -39 108 -95 161 -110 60
-18 180 -8 234 18 48 24 95 62 122 100 l16 23 46 -48 c39 -43 96 -77 159 -97
15 -5 17 -21 17 -151 0 -142 -1 -147 -25 -170 l-24 -25 -451 0 -451 0 -24 25
c-24 23 -25 28 -25 170 0 130 2 146 18 151 60 18 124 58 158 98 22 25 41 45
44 46 3 0 14 -14 25 -30z m-427 -100 c29 -11 61 -20 72 -20 19 0 20 -7 20
-145 0 -100 4 -156 14 -178 17 -42 66 -83 114 -97 60 -16 887 -13 935 4 95 34
116 85 117 274 0 135 1 142 20 142 11 0 43 9 72 20 29 11 54 20 56 20 1 0 1
-171 0 -380 -3 -349 -4 -381 -21 -397 -17 -17 -61 -18 -713 -21 l-695 -2 -24
24 -25 25 0 376 c0 206 1 375 3 375 1 0 26 -9 55 -20z"/>
</g>
</svg>
