<?xml version="1.0" standalone="no"?>
<!DOCTYPE svg PUBLIC "-//W3C//DTD SVG 20010904//EN"
 "http://www.w3.org/TR/2001/REC-SVG-20010904/DTD/svg10.dtd">
<svg version="1.0" xmlns="http://www.w3.org/2000/svg"
 width="200.000000pt" height="200.000000pt" viewBox="0 0 200.000000 200.000000"
 preserveAspectRatio="xMidYMid meet">
<metadata>
Created by potrace 1.16, written by Peter Selinger 2001-2019
</metadata>
<g transform="translate(0.000000,200.000000) scale(0.100000,-0.100000)"
fill="#000000" stroke="none">
<path d="M904 1931 c-82 -13 -178 -49 -241 -90 -122 -79 -223 -224 -253 -363
l-13 -56 -118 -4 c-132 -3 -159 -15 -191 -79 -16 -33 -15 -55 37 -598 30 -310
57 -576 60 -591 3 -15 20 -40 36 -56 l30 -29 738 -3 737 -2 35 23 c19 12 39
34 46 47 11 23 113 1033 116 1147 1 62 -20 98 -74 125 -26 14 -59 18 -141 18
l-107 0 -11 55 c-16 79 -82 205 -141 269 -103 113 -248 180 -410 190 -46 2
-107 1 -135 -3z m209 -126 c92 -19 175 -66 242 -136 55 -57 107 -151 120 -216
l7 -33 -481 0 c-396 0 -481 2 -481 13 0 8 9 39 19 69 79 230 320 357 574 303z
m-723 -633 c0 -135 5 -154 47 -167 17 -4 29 1 48 19 24 24 25 30 25 151 l0
125 490 0 490 0 0 -125 c0 -121 1 -127 25 -151 19 -18 31 -23 48 -19 42 13 47
32 47 167 l0 128 94 0 c52 0 97 -4 100 -8 3 -6 -97 -1092 -103 -1109 -1 -2
-316 -3 -701 -3 l-700 0 -4 23 c-10 44 -104 1081 -100 1089 3 4 48 8 100 8
l94 0 0 -128z"/>
<path d="M620 937 c-18 -9 -26 -22 -28 -45 -6 -64 -18 -62 404 -62 420 0 414
-1 414 59 0 56 -2 56 -399 59 -282 2 -372 -1 -391 -11z"/>
<path d="M607 572 c-22 -24 -21 -65 1 -85 17 -15 58 -17 388 -17 407 0 414 1
414 59 0 61 1 61 -412 61 -350 0 -376 -1 -391 -18z"/>
</g>
</svg>
