<?xml version="1.0" standalone="no"?>
<!DOCTYPE svg PUBLIC "-//W3C//DTD SVG 20010904//EN"
 "http://www.w3.org/TR/2001/REC-SVG-20010904/DTD/svg10.dtd">
<svg version="1.0" xmlns="http://www.w3.org/2000/svg"
 width="200.000000pt" height="200.000000pt" viewBox="0 0 200.000000 200.000000"
 preserveAspectRatio="xMidYMid meet">
<metadata>
Created by potrace 1.16, written by Peter Selinger 2001-2019
</metadata>
<g transform="translate(0.000000,200.000000) scale(0.100000,-0.100000)"
fill="#000000" stroke="none">
<path d="M653 1843 c-7 -2 -13 -20 -13 -39 l0 -34 -193 0 c-140 0 -198 -3
-209 -12 -9 -7 -18 -35 -22 -62 -8 -63 -43 -123 -105 -178 -43 -38 -49 -49
-55 -94 -10 -77 8 -152 46 -191 17 -18 40 -35 50 -39 17 -5 18 -29 18 -439 l0
-434 -52 -3 -53 -3 0 -80 0 -80 935 0 935 0 0 80 0 80 -52 3 -53 3 0 432 1
432 32 20 c60 38 77 77 77 179 l0 91 -56 49 c-63 55 -104 129 -104 188 0 27
-6 40 -19 48 -12 6 -98 10 -210 10 l-191 0 0 34 c0 22 -6 36 -16 40 -19 7
-673 7 -691 -1z m-13 -243 l0 -110 -236 0 -236 0 36 42 c31 36 46 71 72 166 3
9 48 12 184 12 l180 0 0 -110z m1092 67 c10 -49 44 -115 76 -149 l26 -28 -237
0 -237 0 0 110 0 110 182 -2 182 -3 8 -38z m-1414 -303 c-4 -60 -7 -70 -36
-95 -54 -48 -129 -35 -161 28 -6 12 -11 47 -11 77 l0 56 106 0 106 0 -4 -66z
m262 11 c0 -66 -15 -102 -51 -121 -44 -22 -85 -17 -121 15 -29 25 -32 35 -36
95 l-4 66 106 0 106 0 0 -55z m260 0 c0 -92 -33 -135 -103 -135 -66 0 -107 59
-107 153 l0 37 105 0 105 0 0 -55z m260 -11 c0 -59 -3 -68 -29 -95 -23 -23
-38 -29 -71 -29 -33 0 -48 6 -71 29 -26 27 -29 36 -29 95 l0 66 100 0 100 0 0
-66z m270 29 c0 -59 -18 -110 -47 -133 -36 -28 -94 -27 -130 4 -24 21 -28 32
-31 95 l-4 71 106 0 106 0 0 -37z m258 -29 c-4 -60 -7 -70 -36 -95 -54 -48
-129 -35 -161 28 -6 12 -11 47 -11 77 l0 56 106 0 106 0 -4 -66z m262 10 c0
-63 -20 -106 -57 -123 -41 -19 -81 -13 -115 18 -29 25 -32 35 -36 95 l-4 66
106 0 106 0 0 -56z m-1444 -190 c46 -9 104 9 134 41 l23 24 33 -29 c19 -16 50
-32 70 -36 45 -8 109 10 138 39 l21 22 39 -30 c32 -26 47 -30 96 -30 50 0 64
4 95 30 l38 30 29 -27 c54 -50 143 -49 201 2 l33 28 23 -24 c52 -54 146 -55
205 -4 l33 29 23 -24 c13 -14 41 -30 62 -37 l38 -11 0 -429 0 -428 -250 0
-250 0 0 276 c0 231 2 278 15 290 10 10 15 35 15 69 0 92 26 85 -310 85 -336
0 -310 7 -310 -85 0 -34 5 -59 15 -69 13 -12 15 -59 15 -290 l0 -276 -250 0
-250 0 0 428 0 429 38 11 c21 7 49 23 62 37 l23 24 33 -29 c19 -16 50 -32 70
-36z m524 -589 l0 -275 -95 0 -95 0 0 275 0 275 95 0 95 0 0 -275z m250 0 l0
-275 -95 0 -95 0 0 275 0 275 95 0 95 0 0 -275z"/>
<path d="M336 774 c-12 -31 -7 -349 6 -362 14 -14 235 -17 256 -4 9 7 12 52
10 193 l-3 184 -131 3 c-113 2 -132 0 -138 -14z m224 -259 l0 -55 -85 0 -85 0
0 55 0 55 85 0 85 0 0 -55z"/>
<path d="M1397 783 c-4 -3 -7 -88 -7 -189 0 -157 2 -183 16 -188 30 -12 239
-7 252 6 13 13 18 331 6 362 -5 13 -27 16 -133 16 -70 0 -131 -3 -134 -7z
m213 -268 l0 -55 -85 0 -85 0 0 55 0 55 85 0 85 0 0 -55z"/>
<path d="M894 636 c-11 -29 0 -61 21 -61 16 0 21 8 23 38 3 32 0 37 -18 37
-11 0 -23 -6 -26 -14z"/>
<path d="M1064 636 c-11 -28 0 -61 21 -61 16 0 20 7 20 35 0 25 -5 36 -18 38
-9 2 -20 -3 -23 -12z"/>
</g>
</svg>
