<?xml version="1.0" standalone="no"?>
<!DOCTYPE svg PUBLIC "-//W3C//DTD SVG 20010904//EN"
 "http://www.w3.org/TR/2001/REC-SVG-20010904/DTD/svg10.dtd">
<svg version="1.0" xmlns="http://www.w3.org/2000/svg"
 width="200.000000pt" height="200.000000pt" viewBox="0 0 200.000000 200.000000"
 preserveAspectRatio="xMidYMid meet">
<metadata>
Created by potrace 1.16, written by Peter Selinger 2001-2019
</metadata>
<g transform="translate(0.000000,200.000000) scale(0.100000,-0.100000)"
fill="#000000" stroke="none">
<path d="M680 1680 l0 -160 320 0 320 0 0 160 0 160 -320 0 -320 0 0 -160z"/>
<path d="M225 1713 c-8 -46 -38 -106 -77 -155 l-30 -38 251 0 251 0 0 115 0
115 -194 0 -194 0 -7 -37z"/>
<path d="M1380 1635 l0 -115 250 0 250 0 -35 46 c-40 51 -61 97 -71 149 l-6
35 -194 0 -194 0 0 -115z"/>
<path d="M60 1390 c0 -63 3 -73 29 -102 25 -28 36 -33 76 -33 40 0 51 5 76 33
26 29 29 39 29 102 l0 70 -105 0 -105 0 0 -70z"/>
<path d="M337 1453 c-10 -10 -8 -83 3 -125 23 -80 125 -102 183 -38 24 27 27
38 27 100 l0 70 -103 0 c-57 0 -107 -3 -110 -7z"/>
<path d="M610 1405 c0 -71 20 -120 59 -139 40 -21 69 -20 109 4 40 25 52 54
52 131 l0 59 -110 0 -110 0 0 -55z"/>
<path d="M890 1400 c0 -35 7 -74 15 -90 17 -32 61 -60 95 -60 34 0 78 28 95
60 8 16 15 55 15 90 l0 60 -110 0 -110 0 0 -60z"/>
<path d="M1170 1392 c0 -75 13 -103 60 -127 37 -19 63 -19 101 1 39 19 59 68
59 139 l0 55 -110 0 -110 0 0 -68z"/>
<path d="M1450 1391 c0 -60 4 -74 26 -100 33 -40 85 -50 129 -26 44 23 60 57
60 129 l0 61 -107 3 -108 3 0 -70z"/>
<path d="M1730 1387 c0 -61 4 -77 21 -96 48 -51 120 -51 163 0 22 26 26 40 26
100 l0 69 -105 0 -105 0 0 -73z"/>
<path d="M275 1234 c-16 -13 -47 -29 -67 -35 l-38 -10 0 -454 0 -455 265 0
265 0 0 294 c0 186 -4 297 -10 301 -5 3 -10 42 -10 86 l0 79 320 0 320 0 0
-79 c0 -44 -4 -83 -10 -86 -6 -4 -10 -115 -10 -301 l0 -294 265 0 265 0 0 455
0 454 -36 10 c-19 5 -51 21 -69 35 -30 23 -34 24 -46 9 -19 -22 -88 -53 -122
-53 -36 0 -90 23 -117 50 -22 22 -22 22 -43 2 -73 -67 -163 -68 -229 -4 l-28
26 -27 -25 c-16 -14 -41 -31 -56 -37 -56 -24 -117 -11 -169 37 l-28 25 -27
-26 c-67 -64 -157 -63 -230 4 -21 20 -21 20 -43 -2 -27 -27 -80 -50 -115 -50
-33 0 -94 25 -120 50 -20 18 -21 18 -50 -6z m303 -466 c14 -14 17 -364 4 -386
-7 -9 -43 -12 -148 -10 l-139 3 -3 189 c-2 130 1 193 9 202 15 19 259 20 277
2z m1121 -2 c8 -9 11 -72 9 -202 l-3 -189 -139 -3 c-105 -2 -141 1 -148 10
-13 22 -10 372 4 386 18 18 262 17 277 -2z"/>
<path d="M350 660 l0 -60 90 0 90 0 0 60 0 60 -90 0 -90 0 0 -60z"/>
<path d="M350 480 l0 -61 88 3 87 3 3 58 3 57 -91 0 -90 0 0 -60z"/>
<path d="M1470 660 l0 -60 90 0 90 0 0 60 0 60 -90 0 -90 0 0 -60z"/>
<path d="M1472 483 l3 -58 88 -3 87 -3 0 61 0 60 -90 0 -91 0 3 -57z"/>
<path d="M734 976 c-3 -8 -4 -23 -2 -33 3 -17 21 -18 268 -18 l265 0 0 30 0
30 -263 3 c-222 2 -263 0 -268 -12z"/>
<path d="M767 863 c-4 -3 -7 -136 -7 -295 l0 -288 105 0 105 0 0 295 0 295
-98 0 c-54 0 -102 -3 -105 -7z m171 -269 c4 -38 -20 -63 -43 -44 -18 15 -20
51 -3 68 21 21 43 9 46 -24z"/>
<path d="M1030 575 l0 -295 105 0 105 0 -2 293 -3 292 -102 3 -103 3 0 -296z
m78 43 c30 -30 -1 -94 -33 -68 -15 13 -21 61 -8 73 10 11 28 8 41 -5z"/>
<path d="M60 190 l0 -30 940 0 940 0 0 30 0 30 -940 0 -940 0 0 -30z"/>
</g>
</svg>
