<?xml version="1.0" standalone="no"?>
<!DOCTYPE svg PUBLIC "-//W3C//DTD SVG 20010904//EN"
 "http://www.w3.org/TR/2001/REC-SVG-20010904/DTD/svg10.dtd">
<svg version="1.0" xmlns="http://www.w3.org/2000/svg"
 width="200.000000pt" height="200.000000pt" viewBox="0 0 200.000000 200.000000"
 preserveAspectRatio="xMidYMid meet">
<metadata>
Created by potrace 1.16, written by Peter Selinger 2001-2019
</metadata>
<g transform="translate(0.000000,200.000000) scale(0.100000,-0.100000)"
fill="#000000" stroke="none">
<path d="M212 1648 c-7 -7 -12 -19 -12 -28 0 -35 21 -40 161 -40 l137 0 31
-56 c24 -44 49 -136 112 -413 44 -196 87 -366 95 -378 l14 -23 534 0 c294 0
541 -3 550 -6 19 -7 21 -47 3 -63 -10 -8 -185 -12 -592 -13 -538 -3 -579 -4
-589 -20 -8 -13 -8 -23 0 -35 9 -15 29 -18 126 -21 l115 -3 -4 -52 c-6 -83 42
-143 125 -154 46 -6 110 23 135 60 22 34 30 87 18 120 l-11 27 135 0 135 0 -6
-39 c-24 -148 163 -232 253 -114 23 30 28 46 28 95 l-1 58 64 0 c103 0 162 44
162 121 0 66 -55 119 -125 119 -14 0 -25 2 -25 5 0 3 39 160 86 350 71 282 84
348 74 360 -11 13 -97 15 -666 15 l-653 0 -36 64 c-22 40 -44 66 -58 70 -43
11 -302 7 -315 -6z"/>
<path d="M61 1481 c-14 -26 -4 -50 23 -56 11 -3 93 -4 180 -3 138 3 160 5 170
21 8 12 8 22 0 35 -10 15 -32 17 -187 20 -166 2 -177 1 -186 -17z"/>
<path d="M306 1344 c-41 -40 -10 -64 84 -64 78 0 100 9 100 42 0 26 -32 38
-104 38 -45 0 -69 -5 -80 -16z"/>
<path d="M70 1226 c-6 -8 -10 -25 -8 -38 3 -22 7 -23 93 -23 86 0 90 1 93 23
6 41 -14 52 -93 52 -51 0 -76 -4 -85 -14z"/>
<path d="M326 1194 c-41 -40 -10 -64 84 -64 74 0 100 9 100 36 0 30 -31 44
-100 44 -49 0 -73 -4 -84 -16z"/>
<path d="M78 1053 c-20 -5 -31 -33 -22 -56 9 -24 52 -29 242 -25 175 3 192 7
192 43 0 37 -16 40 -207 42 -103 1 -196 -1 -205 -4z"/>
<path d="M202 888 c-7 -7 -12 -19 -12 -28 0 -37 19 -40 222 -40 187 0 198 1
208 20 8 14 8 26 0 40 -10 19 -21 20 -208 20 -141 0 -201 -3 -210 -12z"/>
<path d="M182 738 c-15 -15 -15 -41 0 -56 7 -7 35 -12 63 -12 69 0 95 28 59
64 -19 19 -104 22 -122 4z"/>
<path d="M376 735 c-9 -9 -16 -22 -16 -29 0 -30 28 -37 135 -34 90 3 110 6
119 21 8 12 8 22 0 35 -16 25 -214 31 -238 7z"/>
</g>
</svg>
