<?xml version="1.0" standalone="no"?>
<!DOCTYPE svg PUBLIC "-//W3C//DTD SVG 20010904//EN"
 "http://www.w3.org/TR/2001/REC-SVG-20010904/DTD/svg10.dtd">
<svg version="1.0" xmlns="http://www.w3.org/2000/svg"
 width="200.000000pt" height="200.000000pt" viewBox="0 0 200.000000 200.000000"
 preserveAspectRatio="xMidYMid meet">
<metadata>
Created by potrace 1.16, written by Peter Selinger 2001-2019
</metadata>
<g transform="translate(0.000000,200.000000) scale(0.100000,-0.100000)"
fill="#000000" stroke="none">
<path d="M546 1827 c-44 -24 -86 -93 -86 -138 0 -24 -5 -28 -31 -31 -29 -3
-40 -19 -185 -271 -85 -147 -152 -272 -148 -278 4 -7 34 -24 68 -39 l60 -28
-3 -446 -3 -446 771 0 771 0 0 445 c0 415 1 446 18 452 76 26 132 58 127 71
-3 8 -74 134 -158 279 -138 239 -154 263 -178 263 -23 0 -27 5 -33 42 -9 57
-38 100 -84 126 -39 22 -45 22 -453 22 -410 0 -414 -1 -453 -23z m878 -79 c15
-13 29 -38 32 -55 l7 -33 -462 0 -461 0 0 26 c0 15 12 38 29 55 l29 29 401 0
400 0 25 -22z m-854 -175 c0 -5 -28 -101 -62 -215 l-61 -208 -43 -16 c-48 -18
-176 -16 -195 3 -8 8 21 67 112 227 l124 215 63 1 c34 0 62 -3 62 -7z m240
-10 c0 -25 -19 -286 -26 -359 l-5 -62 -45 -12 c-48 -14 -179 -9 -195 7 -6 6
11 82 51 214 33 112 62 210 65 217 3 8 29 12 80 12 65 0 75 -2 75 -17z m225
-5 c13 -57 75 -385 75 -400 0 -44 -160 -53 -247 -13 -1 1 4 91 12 201 8 109
15 207 15 217 0 14 10 17 70 17 64 0 70 -2 75 -22z m337 -193 c42 -115 77
-213 77 -217 3 -26 -170 -38 -223 -15 -29 13 -30 16 -67 207 -21 107 -39 205
-39 218 0 22 2 23 88 20 l87 -3 77 -210z m304 -5 c85 -147 120 -218 113 -225
-17 -17 -179 -19 -220 -1 -35 15 -37 19 -107 213 -39 109 -74 207 -78 216 -6
16 1 18 81 15 l87 -3 124 -215z m-1011 -318 c55 3 101 10 119 20 26 14 33 13
80 -4 62 -24 212 -22 260 4 26 14 33 13 80 -4 64 -25 212 -22 264 5 29 16 35
16 62 2 17 -9 56 -19 88 -23 l57 -7 3 -101 3 -101 -133 -5 c-159 -6 -202 -22
-243 -91 -25 -43 -25 -45 -25 -275 l0 -232 -490 0 -490 0 2 402 3 403 52 7
c29 4 67 14 85 21 29 12 39 11 83 -6 40 -15 68 -18 140 -15z m1015 -557 l0
-255 -160 0 -160 0 0 227 0 227 27 28 c27 28 27 28 160 28 l133 0 0 -255z"/>
<path d="M414 927 c-2 -7 -3 -87 -2 -177 l3 -165 303 -3 302 -2 0 180 0 180
-300 0 c-236 0 -302 -3 -306 -13z m526 -172 l0 -95 -222 2 -223 3 -3 93 -3 92
226 0 225 0 0 -95z"/>
<path d="M1390 430 l0 -41 73 3 72 3 3 38 3 37 -75 0 -76 0 0 -40z"/>
</g>
</svg>
